  0
SECTION
  2
HEADER
  9
$ANGBASE
  50
0.0
  9
$ANGDIR
  70
1
  9
$MEASUREMENT
  70
0
  0
ENDSEC
  0
SECTION
  2
TABLES
  0
TABLE
  2
LTYPE
  70
4
  0
LTYPE
  5
40F
  2
CONTINUOUS
  70
0
  3
Solid line
  72
65
  73
0
  40
0.0
  0
LTYPE
  5
410
  2
DASHDOT
 70
0
  3
Dash Dot ____ _ ____ _
 72
65
 73
4
 40
2.0
 49
1.25
 49
-0.25
 49
0.25
 49
-0.25
  0
LTYPE
  5
411
  2
DASHED
 70
0
  3
Dashed __ __ __ __ __
 72
65
 73
2
 40
0.75
 49
0.5
 49
-0.25
  0
LTYPE
  5
43B
  2
DOTTED
 70
0
  3
Dotted .  .  .  .
 72
65
 73
2
 40
0.2
 49
0.0
 49
-0.2
  0
ENDTAB
  0
TABLE
  2
STYLE
  70
4
  0
STYLE
  2
KICAD
  70
0
  40
0
  41
1
  42
1
  50
0
  71
0
  3
isocp.shx
  0
STYLE
  2
KICADB
  70
0
  40
0
  41
1
  42
1
  50
0
  71
0
  3
isocp.shx
  0
STYLE
  2
KICADI
  70
0
  40
0
  41
1
  42
1
  50
15
  71
0
  3
isocp.shx
  0
STYLE
  2
KICADBI
  70
0
  40
0
  41
1
  42
1
  50
15
  71
0
  3
isocp.shx
  0
ENDTAB
  0
TABLE
  2
LAYER
  70
1
  0
LAYER
  2
BLACK
  70
0
  62
7
  6
CONTINUOUS
  0
ENDTAB
  0
ENDSEC
  0
SECTION
  2
ENTITIES
0
LINE
8
BLACK
6
CONTINUOUS
10
4.574260433070866
20
-5.0221471653543306
11
4.586734212598425
21
-5.0251035039370073
0
LINE
8
BLACK
6
CONTINUOUS
10
4.586734212598425
20
-5.0251035039370073
11
4.5987804330708659
21
-5.0294879921259845
0
LINE
8
BLACK
6
CONTINUOUS
10
4.5987804330708659
20
-5.0294879921259845
11
4.6102362204724407
21
-5.0352412992125979
0
LINE
8
BLACK
6
CONTINUOUS
10
4.6102362204724407
20
-5.0352412992125979
11
4.6209466141732278
21
-5.0422856299212597
0
LINE
8
BLACK
6
CONTINUOUS
10
4.6209466141732278
20
-5.0422856299212597
11
4.630766811023622
21
-5.0505257480314958
0
LINE
8
BLACK
6
CONTINUOUS
10
4.630766811023622
20
-5.0505257480314958
11
4.6395639370078738
21
-5.0598501968503937
0
LINE
8
BLACK
6
CONTINUOUS
10
4.6395639370078738
20
-5.0598501968503937
11
4.6472191338582673
21
-5.0701328740157479
0
LINE
8
BLACK
6
CONTINUOUS
10
4.6472191338582673
20
-5.0701328740157479
11
4.6536287795275593
21
-5.0812347244094491
0
LINE
8
BLACK
6
CONTINUOUS
10
4.6536287795275593
20
-5.0812347244094491
11
4.6587062598425195
21
-5.0930056692913386
0
LINE
8
BLACK
6
CONTINUOUS
10
4.6587062598425195
20
-5.0930056692913386
11
4.6623829133858266
21
-5.1052864566929133
0
LINE
8
BLACK
6
CONTINUOUS
10
4.6623829133858266
20
-5.1052864566929133
11
4.6646089370078743
21
-5.1179110236220469
0
LINE
8
BLACK
6
CONTINUOUS
10
4.6646089370078743
20
-5.1179110236220469
11
4.6653543307086611
21
-5.130708661417323
0
LINE
8
BLACK
6
CONTINUOUS
10
4.6653543307086611
20
-5.130708661417323
11
4.6646089370078743
21
-5.1435062992125982
0
LINE
8
BLACK
6
CONTINUOUS
10
4.6646089370078743
20
-5.1435062992125982
11
4.6623829133858266
21
-5.1561308661417318
0
LINE
8
BLACK
6
CONTINUOUS
10
4.6623829133858266
20
-5.1561308661417318
11
4.6587062598425195
21
-5.1684116535433073
0
LINE
8
BLACK
6
CONTINUOUS
10
4.6587062598425195
20
-5.1684116535433073
11
4.6536287795275593
21
-5.1801825984251968
0
LINE
8
BLACK
6
CONTINUOUS
10
4.6536287795275593
20
-5.1801825984251968
11
4.6472191338582673
21
-5.1912844488188972
0
LINE
8
BLACK
6
CONTINUOUS
10
4.6472191338582673
20
-5.1912844488188972
11
4.6395639370078738
21
-5.2015671259842522
0
LINE
8
BLACK
6
CONTINUOUS
10
4.6395639370078738
20
-5.2015671259842522
11
4.630766811023622
21
-5.2108915748031492
0
LINE
8
BLACK
6
CONTINUOUS
10
4.630766811023622
20
-5.2108915748031492
11
4.6209466141732278
21
-5.2191316929133853
0
LINE
8
BLACK
6
CONTINUOUS
10
4.6209466141732278
20
-5.2191316929133853
11
4.6102362204724407
21
-5.2261760236220471
0
LINE
8
BLACK
6
CONTINUOUS
10
4.6102362204724407
20
-5.2261760236220471
11
4.5987804330708659
21
-5.2319293307086614
0
LINE
8
BLACK
6
CONTINUOUS
10
4.5987804330708659
20
-5.2319293307086614
11
4.586734212598425
21
-5.2363138188976377
0
LINE
8
BLACK
6
CONTINUOUS
10
4.586734212598425
20
-5.2363138188976377
11
4.574260433070866
21
-5.2392701574803144
0
LINE
8
BLACK
6
CONTINUOUS
10
4.574260433070866
20
-5.2392701574803144
11
4.5615277952755902
21
-5.2407583858267719
0
LINE
8
BLACK
6
CONTINUOUS
10
4.5615277952755902
20
-5.2407583858267719
11
4.5487084251968506
21
-5.2407583858267719
0
LINE
8
BLACK
6
CONTINUOUS
10
4.5487084251968506
20
-5.2407583858267719
11
4.5359757874015747
21
-5.2392701574803144
0
LINE
8
BLACK
6
CONTINUOUS
10
4.5359757874015747
20
-5.2392701574803144
11
4.5235020078740158
21
-5.2363138188976377
0
LINE
8
BLACK
6
CONTINUOUS
10
4.5235020078740158
20
-5.2363138188976377
11
4.5114557874015748
21
-5.2319293307086614
0
LINE
8
BLACK
6
CONTINUOUS
10
4.5114557874015748
20
-5.2319293307086614
11
4.5
21
-5.2261760236220471
0
LINE
8
BLACK
6
CONTINUOUS
10
4.5
20
-5.2261760236220471
11
4.4892896062992129
21
-5.2191316929133853
0
LINE
8
BLACK
6
CONTINUOUS
10
4.4892896062992129
20
-5.2191316929133853
11
4.4794694094488188
21
-5.2108915748031492
0
LINE
8
BLACK
6
CONTINUOUS
10
4.4794694094488188
20
-5.2108915748031492
11
4.4706722834645669
21
-5.2015671259842522
0
LINE
8
BLACK
6
CONTINUOUS
10
4.4706722834645669
20
-5.2015671259842522
11
4.4630170866141734
21
-5.1912844488188972
0
LINE
8
BLACK
6
CONTINUOUS
10
4.4630170866141734
20
-5.1912844488188972
11
4.4566074409448815
21
-5.1801825984251968
0
LINE
8
BLACK
6
CONTINUOUS
10
4.4566074409448815
20
-5.1801825984251968
11
4.4515299606299212
21
-5.1684116535433073
0
LINE
8
BLACK
6
CONTINUOUS
10
4.4515299606299212
20
-5.1684116535433073
11
4.4478533070866142
21
-5.1561308661417318
0
LINE
8
BLACK
6
CONTINUOUS
10
4.4478533070866142
20
-5.1561308661417318
11
4.4456272834645665
21
-5.1435062992125982
0
LINE
8
BLACK
6
CONTINUOUS
10
4.4456272834645665
20
-5.1435062992125982
11
4.4448818897637796
21
-5.130708661417323
0
LINE
8
BLACK
6
CONTINUOUS
10
4.4448818897637796
20
-5.130708661417323
11
4.4456272834645665
21
-5.1179110236220469
0
LINE
8
BLACK
6
CONTINUOUS
10
4.4456272834645665
20
-5.1179110236220469
11
4.4478533070866142
21
-5.1052864566929133
0
LINE
8
BLACK
6
CONTINUOUS
10
4.4478533070866142
20
-5.1052864566929133
11
4.4515299606299212
21
-5.0930056692913386
0
LINE
8
BLACK
6
CONTINUOUS
10
4.4515299606299212
20
-5.0930056692913386
11
4.4566074409448815
21
-5.0812347244094491
0
LINE
8
BLACK
6
CONTINUOUS
10
4.4566074409448815
20
-5.0812347244094491
11
4.4630170866141734
21
-5.0701328740157479
0
LINE
8
BLACK
6
CONTINUOUS
10
4.4630170866141734
20
-5.0701328740157479
11
4.4706722834645669
21
-5.0598501968503937
0
LINE
8
BLACK
6
CONTINUOUS
10
4.4706722834645669
20
-5.0598501968503937
11
4.4794694094488188
21
-5.0505257480314958
0
LINE
8
BLACK
6
CONTINUOUS
10
4.4794694094488188
20
-5.0505257480314958
11
4.4892896062992129
21
-5.0422856299212597
0
LINE
8
BLACK
6
CONTINUOUS
10
4.4892896062992129
20
-5.0422856299212597
11
4.5
21
-5.0352412992125979
0
LINE
8
BLACK
6
CONTINUOUS
10
4.5
20
-5.0352412992125979
11
4.5114557874015748
21
-5.0294879921259845
0
LINE
8
BLACK
6
CONTINUOUS
10
4.5114557874015748
20
-5.0294879921259845
11
4.5235020078740158
21
-5.0251035039370073
0
LINE
8
BLACK
6
CONTINUOUS
10
4.5235020078740158
20
-5.0251035039370073
11
4.5359757874015747
21
-5.0221471653543306
0
LINE
8
BLACK
6
CONTINUOUS
10
4.5359757874015747
20
-5.0221471653543306
11
4.5487084251968506
21
-5.020658937007874
0
LINE
8
BLACK
6
CONTINUOUS
10
4.5487084251968506
20
-5.020658937007874
11
4.5615277952755902
21
-5.020658937007874
0
LINE
8
BLACK
6
CONTINUOUS
10
4.5615277952755902
20
-5.020658937007874
11
4.574260433070866
21
-5.0221471653543306
0
LINE
8
BLACK
6
CONTINUOUS
10
6.1742604330708657
20
-5.0221471653543306
11
6.1867342125984255
21
-5.0251035039370073
0
LINE
8
BLACK
6
CONTINUOUS
10
6.1867342125984255
20
-5.0251035039370073
11
6.1987804330708656
21
-5.0294879921259845
0
LINE
8
BLACK
6
CONTINUOUS
10
6.1987804330708656
20
-5.0294879921259845
11
6.2102362204724404
21
-5.0352412992125979
0
LINE
8
BLACK
6
CONTINUOUS
10
6.2102362204724404
20
-5.0352412992125979
11
6.2209466141732284
21
-5.0422856299212597
0
LINE
8
BLACK
6
CONTINUOUS
10
6.2209466141732284
20
-5.0422856299212597
11
6.2307668110236216
21
-5.0505257480314958
0
LINE
8
BLACK
6
CONTINUOUS
10
6.2307668110236216
20
-5.0505257480314958
11
6.2395639370078735
21
-5.0598501968503937
0
LINE
8
BLACK
6
CONTINUOUS
10
6.2395639370078735
20
-5.0598501968503937
11
6.2472191338582679
21
-5.0701328740157479
0
LINE
8
BLACK
6
CONTINUOUS
10
6.2472191338582679
20
-5.0701328740157479
11
6.2536287795275589
21
-5.0812347244094491
0
LINE
8
BLACK
6
CONTINUOUS
10
6.2536287795275589
20
-5.0812347244094491
11
6.2587062598425192
21
-5.0930056692913386
0
LINE
8
BLACK
6
CONTINUOUS
10
6.2587062598425192
20
-5.0930056692913386
11
6.2623829133858262
21
-5.1052864566929133
0
LINE
8
BLACK
6
CONTINUOUS
10
6.2623829133858262
20
-5.1052864566929133
11
6.2646089370078739
21
-5.1179110236220469
0
LINE
8
BLACK
6
CONTINUOUS
10
6.2646089370078739
20
-5.1179110236220469
11
6.2653543307086617
21
-5.130708661417323
0
LINE
8
BLACK
6
CONTINUOUS
10
6.2653543307086617
20
-5.130708661417323
11
6.2646089370078739
21
-5.1435062992125982
0
LINE
8
BLACK
6
CONTINUOUS
10
6.2646089370078739
20
-5.1435062992125982
11
6.2623829133858262
21
-5.1561308661417318
0
LINE
8
BLACK
6
CONTINUOUS
10
6.2623829133858262
20
-5.1561308661417318
11
6.2587062598425192
21
-5.1684116535433073
0
LINE
8
BLACK
6
CONTINUOUS
10
6.2587062598425192
20
-5.1684116535433073
11
6.2536287795275589
21
-5.1801825984251968
0
LINE
8
BLACK
6
CONTINUOUS
10
6.2536287795275589
20
-5.1801825984251968
11
6.2472191338582679
21
-5.1912844488188972
0
LINE
8
BLACK
6
CONTINUOUS
10
6.2472191338582679
20
-5.1912844488188972
11
6.2395639370078735
21
-5.2015671259842522
0
LINE
8
BLACK
6
CONTINUOUS
10
6.2395639370078735
20
-5.2015671259842522
11
6.2307668110236216
21
-5.2108915748031492
0
LINE
8
BLACK
6
CONTINUOUS
10
6.2307668110236216
20
-5.2108915748031492
11
6.2209466141732284
21
-5.2191316929133853
0
LINE
8
BLACK
6
CONTINUOUS
10
6.2209466141732284
20
-5.2191316929133853
11
6.2102362204724404
21
-5.2261760236220471
0
LINE
8
BLACK
6
CONTINUOUS
10
6.2102362204724404
20
-5.2261760236220471
11
6.1987804330708656
21
-5.2319293307086614
0
LINE
8
BLACK
6
CONTINUOUS
10
6.1987804330708656
20
-5.2319293307086614
11
6.1867342125984255
21
-5.2363138188976377
0
LINE
8
BLACK
6
CONTINUOUS
10
6.1867342125984255
20
-5.2363138188976377
11
6.1742604330708657
21
-5.2392701574803144
0
LINE
8
BLACK
6
CONTINUOUS
10
6.1742604330708657
20
-5.2392701574803144
11
6.1615277952755907
21
-5.2407583858267719
0
LINE
8
BLACK
6
CONTINUOUS
10
6.1615277952755907
20
-5.2407583858267719
11
6.1487084251968502
21
-5.2407583858267719
0
LINE
8
BLACK
6
CONTINUOUS
10
6.1487084251968502
20
-5.2407583858267719
11
6.1359757874015743
21
-5.2392701574803144
0
LINE
8
BLACK
6
CONTINUOUS
10
6.1359757874015743
20
-5.2392701574803144
11
6.1235020078740154
21
-5.2363138188976377
0
LINE
8
BLACK
6
CONTINUOUS
10
6.1235020078740154
20
-5.2363138188976377
11
6.1114557874015745
21
-5.2319293307086614
0
LINE
8
BLACK
6
CONTINUOUS
10
6.1114557874015745
20
-5.2319293307086614
11
6.0999999999999996
21
-5.2261760236220471
0
LINE
8
BLACK
6
CONTINUOUS
10
6.0999999999999996
20
-5.2261760236220471
11
6.0892896062992126
21
-5.2191316929133853
0
LINE
8
BLACK
6
CONTINUOUS
10
6.0892896062992126
20
-5.2191316929133853
11
6.0794694094488184
21
-5.2108915748031492
0
LINE
8
BLACK
6
CONTINUOUS
10
6.0794694094488184
20
-5.2108915748031492
11
6.0706722834645666
21
-5.2015671259842522
0
LINE
8
BLACK
6
CONTINUOUS
10
6.0706722834645666
20
-5.2015671259842522
11
6.063017086614173
21
-5.1912844488188972
0
LINE
8
BLACK
6
CONTINUOUS
10
6.063017086614173
20
-5.1912844488188972
11
6.056607440944882
21
-5.1801825984251968
0
LINE
8
BLACK
6
CONTINUOUS
10
6.056607440944882
20
-5.1801825984251968
11
6.0515299606299209
21
-5.1684116535433073
0
LINE
8
BLACK
6
CONTINUOUS
10
6.0515299606299209
20
-5.1684116535433073
11
6.0478533070866138
21
-5.1561308661417318
0
LINE
8
BLACK
6
CONTINUOUS
10
6.0478533070866138
20
-5.1561308661417318
11
6.045627283464567
21
-5.1435062992125982
0
LINE
8
BLACK
6
CONTINUOUS
10
6.045627283464567
20
-5.1435062992125982
11
6.0448818897637793
21
-5.130708661417323
0
LINE
8
BLACK
6
CONTINUOUS
10
6.0448818897637793
20
-5.130708661417323
11
6.045627283464567
21
-5.1179110236220469
0
LINE
8
BLACK
6
CONTINUOUS
10
6.045627283464567
20
-5.1179110236220469
11
6.0478533070866138
21
-5.1052864566929133
0
LINE
8
BLACK
6
CONTINUOUS
10
6.0478533070866138
20
-5.1052864566929133
11
6.0515299606299209
21
-5.0930056692913386
0
LINE
8
BLACK
6
CONTINUOUS
10
6.0515299606299209
20
-5.0930056692913386
11
6.056607440944882
21
-5.0812347244094491
0
LINE
8
BLACK
6
CONTINUOUS
10
6.056607440944882
20
-5.0812347244094491
11
6.063017086614173
21
-5.0701328740157479
0
LINE
8
BLACK
6
CONTINUOUS
10
6.063017086614173
20
-5.0701328740157479
11
6.0706722834645666
21
-5.0598501968503937
0
LINE
8
BLACK
6
CONTINUOUS
10
6.0706722834645666
20
-5.0598501968503937
11
6.0794694094488184
21
-5.0505257480314958
0
LINE
8
BLACK
6
CONTINUOUS
10
6.0794694094488184
20
-5.0505257480314958
11
6.0892896062992126
21
-5.0422856299212597
0
LINE
8
BLACK
6
CONTINUOUS
10
6.0892896062992126
20
-5.0422856299212597
11
6.0999999999999996
21
-5.0352412992125979
0
LINE
8
BLACK
6
CONTINUOUS
10
6.0999999999999996
20
-5.0352412992125979
11
6.1114557874015745
21
-5.0294879921259845
0
LINE
8
BLACK
6
CONTINUOUS
10
6.1114557874015745
20
-5.0294879921259845
11
6.1235020078740154
21
-5.0251035039370073
0
LINE
8
BLACK
6
CONTINUOUS
10
6.1235020078740154
20
-5.0251035039370073
11
6.1359757874015743
21
-5.0221471653543306
0
LINE
8
BLACK
6
CONTINUOUS
10
6.1359757874015743
20
-5.0221471653543306
11
6.1487084251968502
21
-5.020658937007874
0
LINE
8
BLACK
6
CONTINUOUS
10
6.1487084251968502
20
-5.020658937007874
11
6.1615277952755907
21
-5.020658937007874
0
LINE
8
BLACK
6
CONTINUOUS
10
6.1615277952755907
20
-5.020658937007874
11
6.1742604330708657
21
-5.0221471653543306
0
LINE
8
BLACK
6
CONTINUOUS
10
5.175590590551181
20
-4.5549212598425193
11
5.2346456692913383
21
-4.5549212204724405
0
LINE
8
BLACK
6
CONTINUOUS
10
5.2346456692913383
20
-4.5549212204724405
11
5.2346457086614171
21
-4.5549212204724405
0
LINE
8
BLACK
6
CONTINUOUS
10
5.2346457086614171
20
-4.5549212204724405
11
5.2346457086614171
21
-4.5549212598425193
0
LINE
8
BLACK
6
CONTINUOUS
10
5.2346457086614171
20
-4.5549212598425193
11
5.2346456692913383
21
-4.554921299212598
0
LINE
8
BLACK
6
CONTINUOUS
10
5.2346456692913383
20
-4.554921299212598
11
5.2346457086614171
21
-4.6257874015748026
0
LINE
8
BLACK
6
CONTINUOUS
10
5.2346457086614171
20
-4.6257874015748026
11
5.2346457086614171
21
-4.6257874409448814
0
LINE
8
BLACK
6
CONTINUOUS
10
5.2346457086614171
20
-4.6257874409448814
11
5.2346456692913383
21
-4.6257874409448814
0
LINE
8
BLACK
6
CONTINUOUS
10
5.2346456692913383
20
-4.6257874409448814
11
5.2346456299212596
21
-4.6257874015748026
0
LINE
8
BLACK
6
CONTINUOUS
10
5.2346456299212596
20
-4.6257874015748026
11
5.1755905511811022
21
-4.6257874409448814
0
LINE
8
BLACK
6
CONTINUOUS
10
5.1755905511811022
20
-4.6257874409448814
11
5.1755905118110235
21
-4.6257874409448814
0
LINE
8
BLACK
6
CONTINUOUS
10
5.1755905118110235
20
-4.6257874409448814
11
5.1755905118110235
21
-4.6257874015748026
0
LINE
8
BLACK
6
CONTINUOUS
10
5.1755905118110235
20
-4.6257874015748026
11
5.1755905511811022
21
-4.6257873622047239
0
LINE
8
BLACK
6
CONTINUOUS
10
5.1755905511811022
20
-4.6257873622047239
11
5.1755905118110235
21
-4.5549212598425193
0
LINE
8
BLACK
6
CONTINUOUS
10
5.1755905118110235
20
-4.5549212598425193
11
5.1755905118110235
21
-4.5549212204724405
0
LINE
8
BLACK
6
CONTINUOUS
10
5.1755905118110235
20
-4.5549212204724405
11
5.1755905511811022
21
-4.5549212204724405
0
LINE
8
BLACK
6
CONTINUOUS
10
5.1755905511811022
20
-4.5549212204724405
11
5.175590590551181
21
-4.5549212598425193
0
LINE
8
BLACK
6
CONTINUOUS
10
5.2503937401574801
20
-4.5549212598425193
11
5.3094488188976374
21
-4.5549212204724405
0
LINE
8
BLACK
6
CONTINUOUS
10
5.3094488188976374
20
-4.5549212204724405
11
5.3094488582677162
21
-4.5549212204724405
0
LINE
8
BLACK
6
CONTINUOUS
10
5.3094488582677162
20
-4.5549212204724405
11
5.3094488582677162
21
-4.5549212598425193
0
LINE
8
BLACK
6
CONTINUOUS
10
5.3094488582677162
20
-4.5549212598425193
11
5.3094488188976374
21
-4.554921299212598
0
LINE
8
BLACK
6
CONTINUOUS
10
5.3094488188976374
20
-4.554921299212598
11
5.3094488582677162
21
-4.6257874015748026
0
LINE
8
BLACK
6
CONTINUOUS
10
5.3094488582677162
20
-4.6257874015748026
11
5.3094488582677162
21
-4.6257874409448814
0
LINE
8
BLACK
6
CONTINUOUS
10
5.3094488582677162
20
-4.6257874409448814
11
5.3094488188976374
21
-4.6257874409448814
0
LINE
8
BLACK
6
CONTINUOUS
10
5.3094488188976374
20
-4.6257874409448814
11
5.3094487795275587
21
-4.6257874015748026
0
LINE
8
BLACK
6
CONTINUOUS
10
5.3094487795275587
20
-4.6257874015748026
11
5.2503937007874013
21
-4.6257874409448814
0
LINE
8
BLACK
6
CONTINUOUS
10
5.2503937007874013
20
-4.6257874409448814
11
5.2503936614173226
21
-4.6257874409448814
0
LINE
8
BLACK
6
CONTINUOUS
10
5.2503936614173226
20
-4.6257874409448814
11
5.2503936614173226
21
-4.6257874015748026
0
LINE
8
BLACK
6
CONTINUOUS
10
5.2503936614173226
20
-4.6257874015748026
11
5.2503937007874013
21
-4.6257873622047239
0
LINE
8
BLACK
6
CONTINUOUS
10
5.2503937007874013
20
-4.6257873622047239
11
5.2503936614173226
21
-4.5549212598425193
0
LINE
8
BLACK
6
CONTINUOUS
10
5.2503936614173226
20
-4.5549212598425193
11
5.2503936614173226
21
-4.5549212204724405
0
LINE
8
BLACK
6
CONTINUOUS
10
5.2503936614173226
20
-4.5549212204724405
11
5.2503937007874013
21
-4.5549212204724405
0
LINE
8
BLACK
6
CONTINUOUS
10
5.2503937007874013
20
-4.5549212204724405
11
5.2503937401574801
21
-4.5549212598425193
0
LINE
8
BLACK
6
CONTINUOUS
10
5.3251968897637791
20
-4.5549212598425193
11
5.3842519685039365
21
-4.5549212204724405
0
LINE
8
BLACK
6
CONTINUOUS
10
5.3842519685039365
20
-4.5549212204724405
11
5.3842520078740153
21
-4.5549212204724405
0
LINE
8
BLACK
6
CONTINUOUS
10
5.3842520078740153
20
-4.5549212204724405
11
5.3842520078740153
21
-4.5549212598425193
0
LINE
8
BLACK
6
CONTINUOUS
10
5.3842520078740153
20
-4.5549212598425193
11
5.3842519685039365
21
-4.554921299212598
0
LINE
8
BLACK
6
CONTINUOUS
10
5.3842519685039365
20
-4.554921299212598
11
5.3842520078740153
21
-4.6257874015748026
0
LINE
8
BLACK
6
CONTINUOUS
10
5.3842520078740153
20
-4.6257874015748026
11
5.3842520078740153
21
-4.6257874409448814
0
LINE
8
BLACK
6
CONTINUOUS
10
5.3842520078740153
20
-4.6257874409448814
11
5.3842519685039365
21
-4.6257874409448814
0
LINE
8
BLACK
6
CONTINUOUS
10
5.3842519685039365
20
-4.6257874409448814
11
5.3842519291338578
21
-4.6257874015748026
0
LINE
8
BLACK
6
CONTINUOUS
10
5.3842519291338578
20
-4.6257874015748026
11
5.3251968503937004
21
-4.6257874409448814
0
LINE
8
BLACK
6
CONTINUOUS
10
5.3251968503937004
20
-4.6257874409448814
11
5.3251968110236216
21
-4.6257874409448814
0
LINE
8
BLACK
6
CONTINUOUS
10
5.3251968110236216
20
-4.6257874409448814
11
5.3251968110236216
21
-4.6257874015748026
0
LINE
8
BLACK
6
CONTINUOUS
10
5.3251968110236216
20
-4.6257874015748026
11
5.3251968503937004
21
-4.6257873622047239
0
LINE
8
BLACK
6
CONTINUOUS
10
5.3251968503937004
20
-4.6257873622047239
11
5.3251968110236216
21
-4.5549212598425193
0
LINE
8
BLACK
6
CONTINUOUS
10
5.3251968110236216
20
-4.5549212598425193
11
5.3251968110236216
21
-4.5549212204724405
0
LINE
8
BLACK
6
CONTINUOUS
10
5.3251968110236216
20
-4.5549212204724405
11
5.3251968503937004
21
-4.5549212204724405
0
LINE
8
BLACK
6
CONTINUOUS
10
5.3251968503937004
20
-4.5549212204724405
11
5.3251968897637791
21
-4.5549212598425193
0
LINE
8
BLACK
6
CONTINUOUS
10
5.4000000393700782
20
-4.5549212598425193
11
5.4590551181102365
21
-4.5549212204724405
0
LINE
8
BLACK
6
CONTINUOUS
10
5.4590551181102365
20
-4.5549212204724405
11
5.4590551574803152
21
-4.5549212204724405
0
LINE
8
BLACK
6
CONTINUOUS
10
5.4590551574803152
20
-4.5549212204724405
11
5.4590551574803152
21
-4.5549212598425193
0
LINE
8
BLACK
6
CONTINUOUS
10
5.4590551574803152
20
-4.5549212598425193
11
5.4590551181102365
21
-4.554921299212598
0
LINE
8
BLACK
6
CONTINUOUS
10
5.4590551181102365
20
-4.554921299212598
11
5.4590551574803152
21
-4.6257874015748026
0
LINE
8
BLACK
6
CONTINUOUS
10
5.4590551574803152
20
-4.6257874015748026
11
5.4590551574803152
21
-4.6257874409448814
0
LINE
8
BLACK
6
CONTINUOUS
10
5.4590551574803152
20
-4.6257874409448814
11
5.4590551181102365
21
-4.6257874409448814
0
LINE
8
BLACK
6
CONTINUOUS
10
5.4590551181102365
20
-4.6257874409448814
11
5.4590550787401577
21
-4.6257874015748026
0
LINE
8
BLACK
6
CONTINUOUS
10
5.4590550787401577
20
-4.6257874015748026
11
5.3999999999999995
21
-4.6257874409448814
0
LINE
8
BLACK
6
CONTINUOUS
10
5.3999999999999995
20
-4.6257874409448814
11
5.3999999606299207
21
-4.6257874409448814
0
LINE
8
BLACK
6
CONTINUOUS
10
5.3999999606299207
20
-4.6257874409448814
11
5.3999999606299207
21
-4.6257874015748026
0
LINE
8
BLACK
6
CONTINUOUS
10
5.3999999606299207
20
-4.6257874015748026
11
5.3999999999999995
21
-4.6257873622047239
0
LINE
8
BLACK
6
CONTINUOUS
10
5.3999999999999995
20
-4.6257873622047239
11
5.3999999606299207
21
-4.5549212598425193
0
LINE
8
BLACK
6
CONTINUOUS
10
5.3999999606299207
20
-4.5549212598425193
11
5.3999999606299207
21
-4.5549212204724405
0
LINE
8
BLACK
6
CONTINUOUS
10
5.3999999606299207
20
-4.5549212204724405
11
5.3999999999999995
21
-4.5549212204724405
0
LINE
8
BLACK
6
CONTINUOUS
10
5.3999999999999995
20
-4.5549212204724405
11
5.4000000393700782
21
-4.5549212598425193
0
LINE
8
BLACK
6
CONTINUOUS
10
5.4748031889763782
20
-4.5549212598425193
11
5.5338582677165356
21
-4.5549212204724405
0
LINE
8
BLACK
6
CONTINUOUS
10
5.5338582677165356
20
-4.5549212204724405
11
5.5338583070866143
21
-4.5549212204724405
0
LINE
8
BLACK
6
CONTINUOUS
10
5.5338583070866143
20
-4.5549212204724405
11
5.5338583070866143
21
-4.5549212598425193
0
LINE
8
BLACK
6
CONTINUOUS
10
5.5338583070866143
20
-4.5549212598425193
11
5.5338582677165356
21
-4.554921299212598
0
LINE
8
BLACK
6
CONTINUOUS
10
5.5338582677165356
20
-4.554921299212598
11
5.5338583070866143
21
-4.6257874015748026
0
LINE
8
BLACK
6
CONTINUOUS
10
5.5338583070866143
20
-4.6257874015748026
11
5.5338583070866143
21
-4.6257874409448814
0
LINE
8
BLACK
6
CONTINUOUS
10
5.5338583070866143
20
-4.6257874409448814
11
5.5338582677165356
21
-4.6257874409448814
0
LINE
8
BLACK
6
CONTINUOUS
10
5.5338582677165356
20
-4.6257874409448814
11
5.5338582283464568
21
-4.6257874015748026
0
LINE
8
BLACK
6
CONTINUOUS
10
5.5338582283464568
20
-4.6257874015748026
11
5.4748031496062994
21
-4.6257874409448814
0
LINE
8
BLACK
6
CONTINUOUS
10
5.4748031496062994
20
-4.6257874409448814
11
5.4748031102362207
21
-4.6257874409448814
0
LINE
8
BLACK
6
CONTINUOUS
10
5.4748031102362207
20
-4.6257874409448814
11
5.4748031102362207
21
-4.6257874015748026
0
LINE
8
BLACK
6
CONTINUOUS
10
5.4748031102362207
20
-4.6257874015748026
11
5.4748031496062994
21
-4.6257873622047239
0
LINE
8
BLACK
6
CONTINUOUS
10
5.4748031496062994
20
-4.6257873622047239
11
5.4748031102362207
21
-4.5549212598425193
0
LINE
8
BLACK
6
CONTINUOUS
10
5.4748031102362207
20
-4.5549212598425193
11
5.4748031102362207
21
-4.5549212204724405
0
LINE
8
BLACK
6
CONTINUOUS
10
5.4748031102362207
20
-4.5549212204724405
11
5.4748031496062994
21
-4.5549212204724405
0
LINE
8
BLACK
6
CONTINUOUS
10
5.4748031496062994
20
-4.5549212204724405
11
5.4748031889763782
21
-4.5549212598425193
0
LINE
8
BLACK
6
CONTINUOUS
10
5.0594488582677162
20
-4.4505905511811026
11
5.1303149606299208
21
-4.4505905118110238
0
LINE
8
BLACK
6
CONTINUOUS
10
5.1303149606299208
20
-4.4505905118110238
11
5.1303149999999995
21
-4.4505905118110238
0
LINE
8
BLACK
6
CONTINUOUS
10
5.1303149999999995
20
-4.4505905118110238
11
5.1303149999999995
21
-4.4505905511811026
0
LINE
8
BLACK
6
CONTINUOUS
10
5.1303149999999995
20
-4.4505905511811026
11
5.1303149606299208
21
-4.4505905905511813
0
LINE
8
BLACK
6
CONTINUOUS
10
5.1303149606299208
20
-4.4505905905511813
11
5.1303149999999995
21
-4.5096456692913387
0
LINE
8
BLACK
6
CONTINUOUS
10
5.1303149999999995
20
-4.5096456692913387
11
5.1303149999999995
21
-4.5096457086614175
0
LINE
8
BLACK
6
CONTINUOUS
10
5.1303149999999995
20
-4.5096457086614175
11
5.1303149606299208
21
-4.5096457086614175
0
LINE
8
BLACK
6
CONTINUOUS
10
5.1303149606299208
20
-4.5096457086614175
11
5.130314921259842
21
-4.5096456692913387
0
LINE
8
BLACK
6
CONTINUOUS
10
5.130314921259842
20
-4.5096456692913387
11
5.0594488188976374
21
-4.5096457086614175
0
LINE
8
BLACK
6
CONTINUOUS
10
5.0594488188976374
20
-4.5096457086614175
11
5.0594487795275587
21
-4.5096457086614175
0
LINE
8
BLACK
6
CONTINUOUS
10
5.0594487795275587
20
-4.5096457086614175
11
5.0594487795275587
21
-4.5096456692913387
0
LINE
8
BLACK
6
CONTINUOUS
10
5.0594487795275587
20
-4.5096456692913387
11
5.0594488188976374
21
-4.5096456299212599
0
LINE
8
BLACK
6
CONTINUOUS
10
5.0594488188976374
20
-4.5096456299212599
11
5.0594487795275587
21
-4.4505905511811026
0
LINE
8
BLACK
6
CONTINUOUS
10
5.0594487795275587
20
-4.4505905511811026
11
5.0594487795275587
21
-4.4505905118110238
0
LINE
8
BLACK
6
CONTINUOUS
10
5.0594487795275587
20
-4.4505905118110238
11
5.0594488188976374
21
-4.4505905118110238
0
LINE
8
BLACK
6
CONTINUOUS
10
5.0594488188976374
20
-4.4505905118110238
11
5.0594488582677162
21
-4.4505905511811026
0
LINE
8
BLACK
6
CONTINUOUS
10
5.5791338976377949
20
-4.4505905511811026
11
5.6499999999999995
21
-4.4505905118110238
0
LINE
8
BLACK
6
CONTINUOUS
10
5.6499999999999995
20
-4.4505905118110238
11
5.6500000393700782
21
-4.4505905118110238
0
LINE
8
BLACK
6
CONTINUOUS
10
5.6500000393700782
20
-4.4505905118110238
11
5.6500000393700782
21
-4.4505905511811026
0
LINE
8
BLACK
6
CONTINUOUS
10
5.6500000393700782
20
-4.4505905511811026
11
5.6499999999999995
21
-4.4505905905511813
0
LINE
8
BLACK
6
CONTINUOUS
10
5.6499999999999995
20
-4.4505905905511813
11
5.6500000393700782
21
-4.5096456692913387
0
LINE
8
BLACK
6
CONTINUOUS
10
5.6500000393700782
20
-4.5096456692913387
11
5.6500000393700782
21
-4.5096457086614175
0
LINE
8
BLACK
6
CONTINUOUS
10
5.6500000393700782
20
-4.5096457086614175
11
5.6499999999999995
21
-4.5096457086614175
0
LINE
8
BLACK
6
CONTINUOUS
10
5.6499999999999995
20
-4.5096457086614175
11
5.6499999606299207
21
-4.5096456692913387
0
LINE
8
BLACK
6
CONTINUOUS
10
5.6499999606299207
20
-4.5096456692913387
11
5.5791338582677161
21
-4.5096457086614175
0
LINE
8
BLACK
6
CONTINUOUS
10
5.5791338582677161
20
-4.5096457086614175
11
5.5791338188976374
21
-4.5096457086614175
0
LINE
8
BLACK
6
CONTINUOUS
10
5.5791338188976374
20
-4.5096457086614175
11
5.5791338188976374
21
-4.5096456692913387
0
LINE
8
BLACK
6
CONTINUOUS
10
5.5791338188976374
20
-4.5096456692913387
11
5.5791338582677161
21
-4.5096456299212599
0
LINE
8
BLACK
6
CONTINUOUS
10
5.5791338582677161
20
-4.5096456299212599
11
5.5791338188976374
21
-4.4505905511811026
0
LINE
8
BLACK
6
CONTINUOUS
10
5.5791338188976374
20
-4.4505905511811026
11
5.5791338188976374
21
-4.4505905118110238
0
LINE
8
BLACK
6
CONTINUOUS
10
5.5791338188976374
20
-4.4505905118110238
11
5.5791338582677161
21
-4.4505905118110238
0
LINE
8
BLACK
6
CONTINUOUS
10
5.5791338582677161
20
-4.4505905118110238
11
5.5791338976377949
21
-4.4505905511811026
0
LINE
8
BLACK
6
CONTINUOUS
10
5.0594488582677162
20
-4.3757874015748026
11
5.1303149606299208
21
-4.3757873622047248
0
LINE
8
BLACK
6
CONTINUOUS
10
5.1303149606299208
20
-4.3757873622047248
11
5.1303149999999995
21
-4.3757873622047248
0
LINE
8
BLACK
6
CONTINUOUS
10
5.1303149999999995
20
-4.3757873622047248
11
5.1303149999999995
21
-4.3757874015748026
0
LINE
8
BLACK
6
CONTINUOUS
10
5.1303149999999995
20
-4.3757874015748026
11
5.1303149606299208
21
-4.3757874409448814
0
LINE
8
BLACK
6
CONTINUOUS
10
5.1303149606299208
20
-4.3757874409448814
11
5.1303149999999995
21
-4.4348425196850396
0
LINE
8
BLACK
6
CONTINUOUS
10
5.1303149999999995
20
-4.4348425196850396
11
5.1303149999999995
21
-4.4348425590551184
0
LINE
8
BLACK
6
CONTINUOUS
10
5.1303149999999995
20
-4.4348425590551184
11
5.1303149606299208
21
-4.4348425590551184
0
LINE
8
BLACK
6
CONTINUOUS
10
5.1303149606299208
20
-4.4348425590551184
11
5.130314921259842
21
-4.4348425196850396
0
LINE
8
BLACK
6
CONTINUOUS
10
5.130314921259842
20
-4.4348425196850396
11
5.0594488188976374
21
-4.4348425590551184
0
LINE
8
BLACK
6
CONTINUOUS
10
5.0594488188976374
20
-4.4348425590551184
11
5.0594487795275587
21
-4.4348425590551184
0
LINE
8
BLACK
6
CONTINUOUS
10
5.0594487795275587
20
-4.4348425590551184
11
5.0594487795275587
21
-4.4348425196850396
0
LINE
8
BLACK
6
CONTINUOUS
10
5.0594487795275587
20
-4.4348425196850396
11
5.0594488188976374
21
-4.4348424803149609
0
LINE
8
BLACK
6
CONTINUOUS
10
5.0594488188976374
20
-4.4348424803149609
11
5.0594487795275587
21
-4.3757874015748026
0
LINE
8
BLACK
6
CONTINUOUS
10
5.0594487795275587
20
-4.3757874015748026
11
5.0594487795275587
21
-4.3757873622047248
0
LINE
8
BLACK
6
CONTINUOUS
10
5.0594487795275587
20
-4.3757873622047248
11
5.0594488188976374
21
-4.3757873622047248
0
LINE
8
BLACK
6
CONTINUOUS
10
5.0594488188976374
20
-4.3757873622047248
11
5.0594488582677162
21
-4.3757874015748026
0
LINE
8
BLACK
6
CONTINUOUS
10
5.5791338976377949
20
-4.3757874015748026
11
5.6499999999999995
21
-4.3757873622047248
0
LINE
8
BLACK
6
CONTINUOUS
10
5.6499999999999995
20
-4.3757873622047248
11
5.6500000393700782
21
-4.3757873622047248
0
LINE
8
BLACK
6
CONTINUOUS
10
5.6500000393700782
20
-4.3757873622047248
11
5.6500000393700782
21
-4.3757874015748026
0
LINE
8
BLACK
6
CONTINUOUS
10
5.6500000393700782
20
-4.3757874015748026
11
5.6499999999999995
21
-4.3757874409448814
0
LINE
8
BLACK
6
CONTINUOUS
10
5.6499999999999995
20
-4.3757874409448814
11
5.6500000393700782
21
-4.4348425196850396
0
LINE
8
BLACK
6
CONTINUOUS
10
5.6500000393700782
20
-4.4348425196850396
11
5.6500000393700782
21
-4.4348425590551184
0
LINE
8
BLACK
6
CONTINUOUS
10
5.6500000393700782
20
-4.4348425590551184
11
5.6499999999999995
21
-4.4348425590551184
0
LINE
8
BLACK
6
CONTINUOUS
10
5.6499999999999995
20
-4.4348425590551184
11
5.6499999606299207
21
-4.4348425196850396
0
LINE
8
BLACK
6
CONTINUOUS
10
5.6499999606299207
20
-4.4348425196850396
11
5.5791338582677161
21
-4.4348425590551184
0
LINE
8
BLACK
6
CONTINUOUS
10
5.5791338582677161
20
-4.4348425590551184
11
5.5791338188976374
21
-4.4348425590551184
0
LINE
8
BLACK
6
CONTINUOUS
10
5.5791338188976374
20
-4.4348425590551184
11
5.5791338188976374
21
-4.4348425196850396
0
LINE
8
BLACK
6
CONTINUOUS
10
5.5791338188976374
20
-4.4348425196850396
11
5.5791338582677161
21
-4.4348424803149609
0
LINE
8
BLACK
6
CONTINUOUS
10
5.5791338582677161
20
-4.4348424803149609
11
5.5791338188976374
21
-4.3757874015748026
0
LINE
8
BLACK
6
CONTINUOUS
10
5.5791338188976374
20
-4.3757874015748026
11
5.5791338188976374
21
-4.3757873622047248
0
LINE
8
BLACK
6
CONTINUOUS
10
5.5791338188976374
20
-4.3757873622047248
11
5.5791338582677161
21
-4.3757873622047248
0
LINE
8
BLACK
6
CONTINUOUS
10
5.5791338582677161
20
-4.3757873622047248
11
5.5791338976377949
21
-4.3757874015748026
0
LINE
8
BLACK
6
CONTINUOUS
10
5.0594488582677162
20
-4.3009842519685035
11
5.1303149606299208
21
-4.3009842125984248
0
LINE
8
BLACK
6
CONTINUOUS
10
5.1303149606299208
20
-4.3009842125984248
11
5.1303149999999995
21
-4.3009842125984248
0
LINE
8
BLACK
6
CONTINUOUS
10
5.1303149999999995
20
-4.3009842125984248
11
5.1303149999999995
21
-4.3009842519685035
0
LINE
8
BLACK
6
CONTINUOUS
10
5.1303149999999995
20
-4.3009842519685035
11
5.1303149606299208
21
-4.3009842913385823
0
LINE
8
BLACK
6
CONTINUOUS
10
5.1303149606299208
20
-4.3009842913385823
11
5.1303149999999995
21
-4.3600393700787397
0
LINE
8
BLACK
6
CONTINUOUS
10
5.1303149999999995
20
-4.3600393700787397
11
5.1303149999999995
21
-4.3600394094488184
0
LINE
8
BLACK
6
CONTINUOUS
10
5.1303149999999995
20
-4.3600394094488184
11
5.1303149606299208
21
-4.3600394094488184
0
LINE
8
BLACK
6
CONTINUOUS
10
5.1303149606299208
20
-4.3600394094488184
11
5.130314921259842
21
-4.3600393700787397
0
LINE
8
BLACK
6
CONTINUOUS
10
5.130314921259842
20
-4.3600393700787397
11
5.0594488188976374
21
-4.3600394094488184
0
LINE
8
BLACK
6
CONTINUOUS
10
5.0594488188976374
20
-4.3600394094488184
11
5.0594487795275587
21
-4.3600394094488184
0
LINE
8
BLACK
6
CONTINUOUS
10
5.0594487795275587
20
-4.3600394094488184
11
5.0594487795275587
21
-4.3600393700787397
0
LINE
8
BLACK
6
CONTINUOUS
10
5.0594487795275587
20
-4.3600393700787397
11
5.0594488188976374
21
-4.3600393307086609
0
LINE
8
BLACK
6
CONTINUOUS
10
5.0594488188976374
20
-4.3600393307086609
11
5.0594487795275587
21
-4.3009842519685035
0
LINE
8
BLACK
6
CONTINUOUS
10
5.0594487795275587
20
-4.3009842519685035
11
5.0594487795275587
21
-4.3009842125984248
0
LINE
8
BLACK
6
CONTINUOUS
10
5.0594487795275587
20
-4.3009842125984248
11
5.0594488188976374
21
-4.3009842125984248
0
LINE
8
BLACK
6
CONTINUOUS
10
5.0594488188976374
20
-4.3009842125984248
11
5.0594488582677162
21
-4.3009842519685035
0
LINE
8
BLACK
6
CONTINUOUS
10
5.5791338976377949
20
-4.3009842519685035
11
5.6499999999999995
21
-4.3009842125984248
0
LINE
8
BLACK
6
CONTINUOUS
10
5.6499999999999995
20
-4.3009842125984248
11
5.6500000393700782
21
-4.3009842125984248
0
LINE
8
BLACK
6
CONTINUOUS
10
5.6500000393700782
20
-4.3009842125984248
11
5.6500000393700782
21
-4.3009842519685035
0
LINE
8
BLACK
6
CONTINUOUS
10
5.6500000393700782
20
-4.3009842519685035
11
5.6499999999999995
21
-4.3009842913385823
0
LINE
8
BLACK
6
CONTINUOUS
10
5.6499999999999995
20
-4.3009842913385823
11
5.6500000393700782
21
-4.3600393700787397
0
LINE
8
BLACK
6
CONTINUOUS
10
5.6500000393700782
20
-4.3600393700787397
11
5.6500000393700782
21
-4.3600394094488184
0
LINE
8
BLACK
6
CONTINUOUS
10
5.6500000393700782
20
-4.3600394094488184
11
5.6499999999999995
21
-4.3600394094488184
0
LINE
8
BLACK
6
CONTINUOUS
10
5.6499999999999995
20
-4.3600394094488184
11
5.6499999606299207
21
-4.3600393700787397
0
LINE
8
BLACK
6
CONTINUOUS
10
5.6499999606299207
20
-4.3600393700787397
11
5.5791338582677161
21
-4.3600394094488184
0
LINE
8
BLACK
6
CONTINUOUS
10
5.5791338582677161
20
-4.3600394094488184
11
5.5791338188976374
21
-4.3600394094488184
0
LINE
8
BLACK
6
CONTINUOUS
10
5.5791338188976374
20
-4.3600394094488184
11
5.5791338188976374
21
-4.3600393700787397
0
LINE
8
BLACK
6
CONTINUOUS
10
5.5791338188976374
20
-4.3600393700787397
11
5.5791338582677161
21
-4.3600393307086609
0
LINE
8
BLACK
6
CONTINUOUS
10
5.5791338582677161
20
-4.3600393307086609
11
5.5791338188976374
21
-4.3009842519685035
0
LINE
8
BLACK
6
CONTINUOUS
10
5.5791338188976374
20
-4.3009842519685035
11
5.5791338188976374
21
-4.3009842125984248
0
LINE
8
BLACK
6
CONTINUOUS
10
5.5791338188976374
20
-4.3009842125984248
11
5.5791338582677161
21
-4.3009842125984248
0
LINE
8
BLACK
6
CONTINUOUS
10
5.5791338582677161
20
-4.3009842125984248
11
5.5791338976377949
21
-4.3009842519685035
0
LINE
8
BLACK
6
CONTINUOUS
10
5.0594488582677162
20
-4.2261811023622045
11
5.1303149606299208
21
-4.2261810629921257
0
LINE
8
BLACK
6
CONTINUOUS
10
5.1303149606299208
20
-4.2261810629921257
11
5.1303149999999995
21
-4.2261810629921257
0
LINE
8
BLACK
6
CONTINUOUS
10
5.1303149999999995
20
-4.2261810629921257
11
5.1303149999999995
21
-4.2261811023622045
0
LINE
8
BLACK
6
CONTINUOUS
10
5.1303149999999995
20
-4.2261811023622045
11
5.1303149606299208
21
-4.2261811417322832
0
LINE
8
BLACK
6
CONTINUOUS
10
5.1303149606299208
20
-4.2261811417322832
11
5.1303149999999995
21
-4.2852362204724406
0
LINE
8
BLACK
6
CONTINUOUS
10
5.1303149999999995
20
-4.2852362204724406
11
5.1303149999999995
21
-4.2852362598425193
0
LINE
8
BLACK
6
CONTINUOUS
10
5.1303149999999995
20
-4.2852362598425193
11
5.1303149606299208
21
-4.2852362598425193
0
LINE
8
BLACK
6
CONTINUOUS
10
5.1303149606299208
20
-4.2852362598425193
11
5.130314921259842
21
-4.2852362204724406
0
LINE
8
BLACK
6
CONTINUOUS
10
5.130314921259842
20
-4.2852362204724406
11
5.0594488188976374
21
-4.2852362598425193
0
LINE
8
BLACK
6
CONTINUOUS
10
5.0594488188976374
20
-4.2852362598425193
11
5.0594487795275587
21
-4.2852362598425193
0
LINE
8
BLACK
6
CONTINUOUS
10
5.0594487795275587
20
-4.2852362598425193
11
5.0594487795275587
21
-4.2852362204724406
0
LINE
8
BLACK
6
CONTINUOUS
10
5.0594487795275587
20
-4.2852362204724406
11
5.0594488188976374
21
-4.2852361811023618
0
LINE
8
BLACK
6
CONTINUOUS
10
5.0594488188976374
20
-4.2852361811023618
11
5.0594487795275587
21
-4.2261811023622045
0
LINE
8
BLACK
6
CONTINUOUS
10
5.0594487795275587
20
-4.2261811023622045
11
5.0594487795275587
21
-4.2261810629921257
0
LINE
8
BLACK
6
CONTINUOUS
10
5.0594487795275587
20
-4.2261810629921257
11
5.0594488188976374
21
-4.2261810629921257
0
LINE
8
BLACK
6
CONTINUOUS
10
5.0594488188976374
20
-4.2261810629921257
11
5.0594488582677162
21
-4.2261811023622045
0
LINE
8
BLACK
6
CONTINUOUS
10
5.5791338976377949
20
-4.2261811023622045
11
5.6499999999999995
21
-4.2261810629921257
0
LINE
8
BLACK
6
CONTINUOUS
10
5.6499999999999995
20
-4.2261810629921257
11
5.6500000393700782
21
-4.2261810629921257
0
LINE
8
BLACK
6
CONTINUOUS
10
5.6500000393700782
20
-4.2261810629921257
11
5.6500000393700782
21
-4.2261811023622045
0
LINE
8
BLACK
6
CONTINUOUS
10
5.6500000393700782
20
-4.2261811023622045
11
5.6499999999999995
21
-4.2261811417322832
0
LINE
8
BLACK
6
CONTINUOUS
10
5.6499999999999995
20
-4.2261811417322832
11
5.6500000393700782
21
-4.2852362204724406
0
LINE
8
BLACK
6
CONTINUOUS
10
5.6500000393700782
20
-4.2852362204724406
11
5.6500000393700782
21
-4.2852362598425193
0
LINE
8
BLACK
6
CONTINUOUS
10
5.6500000393700782
20
-4.2852362598425193
11
5.6499999999999995
21
-4.2852362598425193
0
LINE
8
BLACK
6
CONTINUOUS
10
5.6499999999999995
20
-4.2852362598425193
11
5.6499999606299207
21
-4.2852362204724406
0
LINE
8
BLACK
6
CONTINUOUS
10
5.6499999606299207
20
-4.2852362204724406
11
5.5791338582677161
21
-4.2852362598425193
0
LINE
8
BLACK
6
CONTINUOUS
10
5.5791338582677161
20
-4.2852362598425193
11
5.5791338188976374
21
-4.2852362598425193
0
LINE
8
BLACK
6
CONTINUOUS
10
5.5791338188976374
20
-4.2852362598425193
11
5.5791338188976374
21
-4.2852362204724406
0
LINE
8
BLACK
6
CONTINUOUS
10
5.5791338188976374
20
-4.2852362204724406
11
5.5791338582677161
21
-4.2852361811023618
0
LINE
8
BLACK
6
CONTINUOUS
10
5.5791338582677161
20
-4.2852361811023618
11
5.5791338188976374
21
-4.2261811023622045
0
LINE
8
BLACK
6
CONTINUOUS
10
5.5791338188976374
20
-4.2261811023622045
11
5.5791338188976374
21
-4.2261810629921257
0
LINE
8
BLACK
6
CONTINUOUS
10
5.5791338188976374
20
-4.2261810629921257
11
5.5791338582677161
21
-4.2261810629921257
0
LINE
8
BLACK
6
CONTINUOUS
10
5.5791338582677161
20
-4.2261810629921257
11
5.5791338976377949
21
-4.2261811023622045
0
LINE
8
BLACK
6
CONTINUOUS
10
5.0594488582677162
20
-4.1513779527559054
11
5.1303149606299208
21
-4.1513779133858266
0
LINE
8
BLACK
6
CONTINUOUS
10
5.1303149606299208
20
-4.1513779133858266
11
5.1303149999999995
21
-4.1513779133858266
0
LINE
8
BLACK
6
CONTINUOUS
10
5.1303149999999995
20
-4.1513779133858266
11
5.1303149999999995
21
-4.1513779527559054
0
LINE
8
BLACK
6
CONTINUOUS
10
5.1303149999999995
20
-4.1513779527559054
11
5.1303149606299208
21
-4.1513779921259841
0
LINE
8
BLACK
6
CONTINUOUS
10
5.1303149606299208
20
-4.1513779921259841
11
5.1303149999999995
21
-4.2104330708661415
0
LINE
8
BLACK
6
CONTINUOUS
10
5.1303149999999995
20
-4.2104330708661415
11
5.1303149999999995
21
-4.2104331102362202
0
LINE
8
BLACK
6
CONTINUOUS
10
5.1303149999999995
20
-4.2104331102362202
11
5.1303149606299208
21
-4.2104331102362202
0
LINE
8
BLACK
6
CONTINUOUS
10
5.1303149606299208
20
-4.2104331102362202
11
5.130314921259842
21
-4.2104330708661415
0
LINE
8
BLACK
6
CONTINUOUS
10
5.130314921259842
20
-4.2104330708661415
11
5.0594488188976374
21
-4.2104331102362202
0
LINE
8
BLACK
6
CONTINUOUS
10
5.0594488188976374
20
-4.2104331102362202
11
5.0594487795275587
21
-4.2104331102362202
0
LINE
8
BLACK
6
CONTINUOUS
10
5.0594487795275587
20
-4.2104331102362202
11
5.0594487795275587
21
-4.2104330708661415
0
LINE
8
BLACK
6
CONTINUOUS
10
5.0594487795275587
20
-4.2104330708661415
11
5.0594488188976374
21
-4.2104330314960627
0
LINE
8
BLACK
6
CONTINUOUS
10
5.0594488188976374
20
-4.2104330314960627
11
5.0594487795275587
21
-4.1513779527559054
0
LINE
8
BLACK
6
CONTINUOUS
10
5.0594487795275587
20
-4.1513779527559054
11
5.0594487795275587
21
-4.1513779133858266
0
LINE
8
BLACK
6
CONTINUOUS
10
5.0594487795275587
20
-4.1513779133858266
11
5.0594488188976374
21
-4.1513779133858266
0
LINE
8
BLACK
6
CONTINUOUS
10
5.0594488188976374
20
-4.1513779133858266
11
5.0594488582677162
21
-4.1513779527559054
0
LINE
8
BLACK
6
CONTINUOUS
10
5.5791338976377949
20
-4.1513779527559054
11
5.6499999999999995
21
-4.1513779133858266
0
LINE
8
BLACK
6
CONTINUOUS
10
5.6499999999999995
20
-4.1513779133858266
11
5.6500000393700782
21
-4.1513779133858266
0
LINE
8
BLACK
6
CONTINUOUS
10
5.6500000393700782
20
-4.1513779133858266
11
5.6500000393700782
21
-4.1513779527559054
0
LINE
8
BLACK
6
CONTINUOUS
10
5.6500000393700782
20
-4.1513779527559054
11
5.6499999999999995
21
-4.1513779921259841
0
LINE
8
BLACK
6
CONTINUOUS
10
5.6499999999999995
20
-4.1513779921259841
11
5.6500000393700782
21
-4.2104330708661415
0
LINE
8
BLACK
6
CONTINUOUS
10
5.6500000393700782
20
-4.2104330708661415
11
5.6500000393700782
21
-4.2104331102362202
0
LINE
8
BLACK
6
CONTINUOUS
10
5.6500000393700782
20
-4.2104331102362202
11
5.6499999999999995
21
-4.2104331102362202
0
LINE
8
BLACK
6
CONTINUOUS
10
5.6499999999999995
20
-4.2104331102362202
11
5.6499999606299207
21
-4.2104330708661415
0
LINE
8
BLACK
6
CONTINUOUS
10
5.6499999606299207
20
-4.2104330708661415
11
5.5791338582677161
21
-4.2104331102362202
0
LINE
8
BLACK
6
CONTINUOUS
10
5.5791338582677161
20
-4.2104331102362202
11
5.5791338188976374
21
-4.2104331102362202
0
LINE
8
BLACK
6
CONTINUOUS
10
5.5791338188976374
20
-4.2104331102362202
11
5.5791338188976374
21
-4.2104330708661415
0
LINE
8
BLACK
6
CONTINUOUS
10
5.5791338188976374
20
-4.2104330708661415
11
5.5791338582677161
21
-4.2104330314960627
0
LINE
8
BLACK
6
CONTINUOUS
10
5.5791338582677161
20
-4.2104330314960627
11
5.5791338188976374
21
-4.1513779527559054
0
LINE
8
BLACK
6
CONTINUOUS
10
5.5791338188976374
20
-4.1513779527559054
11
5.5791338188976374
21
-4.1513779133858266
0
LINE
8
BLACK
6
CONTINUOUS
10
5.5791338188976374
20
-4.1513779133858266
11
5.5791338582677161
21
-4.1513779133858266
0
LINE
8
BLACK
6
CONTINUOUS
10
5.5791338582677161
20
-4.1513779133858266
11
5.5791338976377949
21
-4.1513779527559054
0
LINE
8
BLACK
6
CONTINUOUS
10
5.175590590551181
20
-4.0352362204724406
11
5.2346456692913383
21
-4.0352361811023618
0
LINE
8
BLACK
6
CONTINUOUS
10
5.2346456692913383
20
-4.0352361811023618
11
5.2346457086614171
21
-4.0352361811023618
0
LINE
8
BLACK
6
CONTINUOUS
10
5.2346457086614171
20
-4.0352361811023618
11
5.2346457086614171
21
-4.0352362204724406
0
LINE
8
BLACK
6
CONTINUOUS
10
5.2346457086614171
20
-4.0352362204724406
11
5.2346456692913383
21
-4.0352362598425193
0
LINE
8
BLACK
6
CONTINUOUS
10
5.2346456692913383
20
-4.0352362598425193
11
5.2346457086614171
21
-4.1061023622047239
0
LINE
8
BLACK
6
CONTINUOUS
10
5.2346457086614171
20
-4.1061023622047239
11
5.2346457086614171
21
-4.1061024015748027
0
LINE
8
BLACK
6
CONTINUOUS
10
5.2346457086614171
20
-4.1061024015748027
11
5.2346456692913383
21
-4.1061024015748027
0
LINE
8
BLACK
6
CONTINUOUS
10
5.2346456692913383
20
-4.1061024015748027
11
5.2346456299212596
21
-4.1061023622047239
0
LINE
8
BLACK
6
CONTINUOUS
10
5.2346456299212596
20
-4.1061023622047239
11
5.1755905511811022
21
-4.1061024015748027
0
LINE
8
BLACK
6
CONTINUOUS
10
5.1755905511811022
20
-4.1061024015748027
11
5.1755905118110235
21
-4.1061024015748027
0
LINE
8
BLACK
6
CONTINUOUS
10
5.1755905118110235
20
-4.1061024015748027
11
5.1755905118110235
21
-4.1061023622047239
0
LINE
8
BLACK
6
CONTINUOUS
10
5.1755905118110235
20
-4.1061023622047239
11
5.1755905511811022
21
-4.1061023228346452
0
LINE
8
BLACK
6
CONTINUOUS
10
5.1755905511811022
20
-4.1061023228346452
11
5.1755905118110235
21
-4.0352362204724406
0
LINE
8
BLACK
6
CONTINUOUS
10
5.1755905118110235
20
-4.0352362204724406
11
5.1755905118110235
21
-4.0352361811023618
0
LINE
8
BLACK
6
CONTINUOUS
10
5.1755905118110235
20
-4.0352361811023618
11
5.1755905511811022
21
-4.0352361811023618
0
LINE
8
BLACK
6
CONTINUOUS
10
5.1755905511811022
20
-4.0352361811023618
11
5.175590590551181
21
-4.0352362204724406
0
LINE
8
BLACK
6
CONTINUOUS
10
5.2503937401574801
20
-4.0352362204724406
11
5.3094488188976374
21
-4.0352361811023618
0
LINE
8
BLACK
6
CONTINUOUS
10
5.3094488188976374
20
-4.0352361811023618
11
5.3094488582677162
21
-4.0352361811023618
0
LINE
8
BLACK
6
CONTINUOUS
10
5.3094488582677162
20
-4.0352361811023618
11
5.3094488582677162
21
-4.0352362204724406
0
LINE
8
BLACK
6
CONTINUOUS
10
5.3094488582677162
20
-4.0352362204724406
11
5.3094488188976374
21
-4.0352362598425193
0
LINE
8
BLACK
6
CONTINUOUS
10
5.3094488188976374
20
-4.0352362598425193
11
5.3094488582677162
21
-4.1061023622047239
0
LINE
8
BLACK
6
CONTINUOUS
10
5.3094488582677162
20
-4.1061023622047239
11
5.3094488582677162
21
-4.1061024015748027
0
LINE
8
BLACK
6
CONTINUOUS
10
5.3094488582677162
20
-4.1061024015748027
11
5.3094488188976374
21
-4.1061024015748027
0
LINE
8
BLACK
6
CONTINUOUS
10
5.3094488188976374
20
-4.1061024015748027
11
5.3094487795275587
21
-4.1061023622047239
0
LINE
8
BLACK
6
CONTINUOUS
10
5.3094487795275587
20
-4.1061023622047239
11
5.2503937007874013
21
-4.1061024015748027
0
LINE
8
BLACK
6
CONTINUOUS
10
5.2503937007874013
20
-4.1061024015748027
11
5.2503936614173226
21
-4.1061024015748027
0
LINE
8
BLACK
6
CONTINUOUS
10
5.2503936614173226
20
-4.1061024015748027
11
5.2503936614173226
21
-4.1061023622047239
0
LINE
8
BLACK
6
CONTINUOUS
10
5.2503936614173226
20
-4.1061023622047239
11
5.2503937007874013
21
-4.1061023228346452
0
LINE
8
BLACK
6
CONTINUOUS
10
5.2503937007874013
20
-4.1061023228346452
11
5.2503936614173226
21
-4.0352362204724406
0
LINE
8
BLACK
6
CONTINUOUS
10
5.2503936614173226
20
-4.0352362204724406
11
5.2503936614173226
21
-4.0352361811023618
0
LINE
8
BLACK
6
CONTINUOUS
10
5.2503936614173226
20
-4.0352361811023618
11
5.2503937007874013
21
-4.0352361811023618
0
LINE
8
BLACK
6
CONTINUOUS
10
5.2503937007874013
20
-4.0352361811023618
11
5.2503937401574801
21
-4.0352362204724406
0
LINE
8
BLACK
6
CONTINUOUS
10
5.3251968897637791
20
-4.0352362204724406
11
5.3842519685039365
21
-4.0352361811023618
0
LINE
8
BLACK
6
CONTINUOUS
10
5.3842519685039365
20
-4.0352361811023618
11
5.3842520078740153
21
-4.0352361811023618
0
LINE
8
BLACK
6
CONTINUOUS
10
5.3842520078740153
20
-4.0352361811023618
11
5.3842520078740153
21
-4.0352362204724406
0
LINE
8
BLACK
6
CONTINUOUS
10
5.3842520078740153
20
-4.0352362204724406
11
5.3842519685039365
21
-4.0352362598425193
0
LINE
8
BLACK
6
CONTINUOUS
10
5.3842519685039365
20
-4.0352362598425193
11
5.3842520078740153
21
-4.1061023622047239
0
LINE
8
BLACK
6
CONTINUOUS
10
5.3842520078740153
20
-4.1061023622047239
11
5.3842520078740153
21
-4.1061024015748027
0
LINE
8
BLACK
6
CONTINUOUS
10
5.3842520078740153
20
-4.1061024015748027
11
5.3842519685039365
21
-4.1061024015748027
0
LINE
8
BLACK
6
CONTINUOUS
10
5.3842519685039365
20
-4.1061024015748027
11
5.3842519291338578
21
-4.1061023622047239
0
LINE
8
BLACK
6
CONTINUOUS
10
5.3842519291338578
20
-4.1061023622047239
11
5.3251968503937004
21
-4.1061024015748027
0
LINE
8
BLACK
6
CONTINUOUS
10
5.3251968503937004
20
-4.1061024015748027
11
5.3251968110236216
21
-4.1061024015748027
0
LINE
8
BLACK
6
CONTINUOUS
10
5.3251968110236216
20
-4.1061024015748027
11
5.3251968110236216
21
-4.1061023622047239
0
LINE
8
BLACK
6
CONTINUOUS
10
5.3251968110236216
20
-4.1061023622047239
11
5.3251968503937004
21
-4.1061023228346452
0
LINE
8
BLACK
6
CONTINUOUS
10
5.3251968503937004
20
-4.1061023228346452
11
5.3251968110236216
21
-4.0352362204724406
0
LINE
8
BLACK
6
CONTINUOUS
10
5.3251968110236216
20
-4.0352362204724406
11
5.3251968110236216
21
-4.0352361811023618
0
LINE
8
BLACK
6
CONTINUOUS
10
5.3251968110236216
20
-4.0352361811023618
11
5.3251968503937004
21
-4.0352361811023618
0
LINE
8
BLACK
6
CONTINUOUS
10
5.3251968503937004
20
-4.0352361811023618
11
5.3251968897637791
21
-4.0352362204724406
0
LINE
8
BLACK
6
CONTINUOUS
10
5.4000000393700782
20
-4.0352362204724406
11
5.4590551181102365
21
-4.0352361811023618
0
LINE
8
BLACK
6
CONTINUOUS
10
5.4590551181102365
20
-4.0352361811023618
11
5.4590551574803152
21
-4.0352361811023618
0
LINE
8
BLACK
6
CONTINUOUS
10
5.4590551574803152
20
-4.0352361811023618
11
5.4590551574803152
21
-4.0352362204724406
0
LINE
8
BLACK
6
CONTINUOUS
10
5.4590551574803152
20
-4.0352362204724406
11
5.4590551181102365
21
-4.0352362598425193
0
LINE
8
BLACK
6
CONTINUOUS
10
5.4590551181102365
20
-4.0352362598425193
11
5.4590551574803152
21
-4.1061023622047239
0
LINE
8
BLACK
6
CONTINUOUS
10
5.4590551574803152
20
-4.1061023622047239
11
5.4590551574803152
21
-4.1061024015748027
0
LINE
8
BLACK
6
CONTINUOUS
10
5.4590551574803152
20
-4.1061024015748027
11
5.4590551181102365
21
-4.1061024015748027
0
LINE
8
BLACK
6
CONTINUOUS
10
5.4590551181102365
20
-4.1061024015748027
11
5.4590550787401577
21
-4.1061023622047239
0
LINE
8
BLACK
6
CONTINUOUS
10
5.4590550787401577
20
-4.1061023622047239
11
5.3999999999999995
21
-4.1061024015748027
0
LINE
8
BLACK
6
CONTINUOUS
10
5.3999999999999995
20
-4.1061024015748027
11
5.3999999606299207
21
-4.1061024015748027
0
LINE
8
BLACK
6
CONTINUOUS
10
5.3999999606299207
20
-4.1061024015748027
11
5.3999999606299207
21
-4.1061023622047239
0
LINE
8
BLACK
6
CONTINUOUS
10
5.3999999606299207
20
-4.1061023622047239
11
5.3999999999999995
21
-4.1061023228346452
0
LINE
8
BLACK
6
CONTINUOUS
10
5.3999999999999995
20
-4.1061023228346452
11
5.3999999606299207
21
-4.0352362204724406
0
LINE
8
BLACK
6
CONTINUOUS
10
5.3999999606299207
20
-4.0352362204724406
11
5.3999999606299207
21
-4.0352361811023618
0
LINE
8
BLACK
6
CONTINUOUS
10
5.3999999606299207
20
-4.0352361811023618
11
5.3999999999999995
21
-4.0352361811023618
0
LINE
8
BLACK
6
CONTINUOUS
10
5.3999999999999995
20
-4.0352361811023618
11
5.4000000393700782
21
-4.0352362204724406
0
LINE
8
BLACK
6
CONTINUOUS
10
5.4748031889763782
20
-4.0352362204724406
11
5.5338582677165356
21
-4.0352361811023618
0
LINE
8
BLACK
6
CONTINUOUS
10
5.5338582677165356
20
-4.0352361811023618
11
5.5338583070866143
21
-4.0352361811023618
0
LINE
8
BLACK
6
CONTINUOUS
10
5.5338583070866143
20
-4.0352361811023618
11
5.5338583070866143
21
-4.0352362204724406
0
LINE
8
BLACK
6
CONTINUOUS
10
5.5338583070866143
20
-4.0352362204724406
11
5.5338582677165356
21
-4.0352362598425193
0
LINE
8
BLACK
6
CONTINUOUS
10
5.5338582677165356
20
-4.0352362598425193
11
5.5338583070866143
21
-4.1061023622047239
0
LINE
8
BLACK
6
CONTINUOUS
10
5.5338583070866143
20
-4.1061023622047239
11
5.5338583070866143
21
-4.1061024015748027
0
LINE
8
BLACK
6
CONTINUOUS
10
5.5338583070866143
20
-4.1061024015748027
11
5.5338582677165356
21
-4.1061024015748027
0
LINE
8
BLACK
6
CONTINUOUS
10
5.5338582677165356
20
-4.1061024015748027
11
5.5338582283464568
21
-4.1061023622047239
0
LINE
8
BLACK
6
CONTINUOUS
10
5.5338582283464568
20
-4.1061023622047239
11
5.4748031496062994
21
-4.1061024015748027
0
LINE
8
BLACK
6
CONTINUOUS
10
5.4748031496062994
20
-4.1061024015748027
11
5.4748031102362207
21
-4.1061024015748027
0
LINE
8
BLACK
6
CONTINUOUS
10
5.4748031102362207
20
-4.1061024015748027
11
5.4748031102362207
21
-4.1061023622047239
0
LINE
8
BLACK
6
CONTINUOUS
10
5.4748031102362207
20
-4.1061023622047239
11
5.4748031496062994
21
-4.1061023228346452
0
LINE
8
BLACK
6
CONTINUOUS
10
5.4748031496062994
20
-4.1061023228346452
11
5.4748031102362207
21
-4.0352362204724406
0
LINE
8
BLACK
6
CONTINUOUS
10
5.4748031102362207
20
-4.0352362204724406
11
5.4748031102362207
21
-4.0352361811023618
0
LINE
8
BLACK
6
CONTINUOUS
10
5.4748031102362207
20
-4.0352361811023618
11
5.4748031496062994
21
-4.0352361811023618
0
LINE
8
BLACK
6
CONTINUOUS
10
5.4748031496062994
20
-4.0352361811023618
11
5.4748031889763782
21
-4.0352362204724406
0
LINE
8
BLACK
6
CONTINUOUS
10
5.5811992913385824
20
-3.9248681496062989
11
5.5839933070866143
21
-3.9267350393700786
0
LINE
8
BLACK
6
CONTINUOUS
10
5.5839933070866143
20
-3.9267350393700786
11
5.5858601968503931
21
-3.9295290551181101
0
LINE
8
BLACK
6
CONTINUOUS
10
5.5858601968503931
20
-3.9295290551181101
11
5.5865157480314958
21
-3.932824803149606
0
LINE
8
BLACK
6
CONTINUOUS
10
5.5865157480314958
20
-3.932824803149606
11
5.5865157480314958
21
-3.953001968503937
0
LINE
8
BLACK
6
CONTINUOUS
10
5.5865157480314958
20
-3.953001968503937
11
5.5858601968503931
21
-3.9562977165354329
0
LINE
8
BLACK
6
CONTINUOUS
10
5.5858601968503931
20
-3.9562977165354329
11
5.5839933070866143
21
-3.9590917322834644
0
LINE
8
BLACK
6
CONTINUOUS
10
5.5839933070866143
20
-3.9590917322834644
11
5.5811992913385824
21
-3.9609586220472441
0
LINE
8
BLACK
6
CONTINUOUS
10
5.5811992913385824
20
-3.9609586220472441
11
5.5779035433070865
21
-3.9616141732283463
0
LINE
8
BLACK
6
CONTINUOUS
10
5.5779035433070865
20
-3.9616141732283463
11
5.560679133858268
21
-3.9616141732283463
0
LINE
8
BLACK
6
CONTINUOUS
10
5.560679133858268
20
-3.9616141732283463
11
5.5573833858267712
21
-3.9609586220472441
0
LINE
8
BLACK
6
CONTINUOUS
10
5.5573833858267712
20
-3.9609586220472441
11
5.5545893700787401
21
-3.9590917322834644
0
LINE
8
BLACK
6
CONTINUOUS
10
5.5545893700787401
20
-3.9590917322834644
11
5.5527224803149604
21
-3.9562977165354329
0
LINE
8
BLACK
6
CONTINUOUS
10
5.5527224803149604
20
-3.9562977165354329
11
5.5520669291338578
21
-3.953001968503937
0
LINE
8
BLACK
6
CONTINUOUS
10
5.5520669291338578
20
-3.953001968503937
11
5.5520669291338578
21
-3.932824803149606
0
LINE
8
BLACK
6
CONTINUOUS
10
5.5520669291338578
20
-3.932824803149606
11
5.5527224803149604
21
-3.9295290551181101
0
LINE
8
BLACK
6
CONTINUOUS
10
5.5527224803149604
20
-3.9295290551181101
11
5.5545893700787401
21
-3.9267350393700786
0
LINE
8
BLACK
6
CONTINUOUS
10
5.5545893700787401
20
-3.9267350393700786
11
5.5573833858267712
21
-3.9248681496062989
0
LINE
8
BLACK
6
CONTINUOUS
10
5.5573833858267712
20
-3.9248681496062989
11
5.560679133858268
21
-3.9242125984251968
0
LINE
8
BLACK
6
CONTINUOUS
10
5.560679133858268
20
-3.9242125984251968
11
5.5779035433070865
21
-3.9242125984251968
0
LINE
8
BLACK
6
CONTINUOUS
10
5.5779035433070865
20
-3.9242125984251968
11
5.5811992913385824
21
-3.9248681496062989
0
LINE
8
BLACK
6
CONTINUOUS
10
5.6432071653543305
20
-3.9248681496062989
11
5.6460011811023625
21
-3.9267350393700786
0
LINE
8
BLACK
6
CONTINUOUS
10
5.6460011811023625
20
-3.9267350393700786
11
5.6478680708661413
21
-3.9295290551181101
0
LINE
8
BLACK
6
CONTINUOUS
10
5.6478680708661413
20
-3.9295290551181101
11
5.6485236220472439
21
-3.932824803149606
0
LINE
8
BLACK
6
CONTINUOUS
10
5.6485236220472439
20
-3.932824803149606
11
5.6485236220472439
21
-3.953001968503937
0
LINE
8
BLACK
6
CONTINUOUS
10
5.6485236220472439
20
-3.953001968503937
11
5.6478680708661413
21
-3.9562977165354329
0
LINE
8
BLACK
6
CONTINUOUS
10
5.6478680708661413
20
-3.9562977165354329
11
5.6460011811023625
21
-3.9590917322834644
0
LINE
8
BLACK
6
CONTINUOUS
10
5.6460011811023625
20
-3.9590917322834644
11
5.6432071653543305
21
-3.9609586220472441
0
LINE
8
BLACK
6
CONTINUOUS
10
5.6432071653543305
20
-3.9609586220472441
11
5.6399114173228346
21
-3.9616141732283463
0
LINE
8
BLACK
6
CONTINUOUS
10
5.6399114173228346
20
-3.9616141732283463
11
5.6226870078740152
21
-3.9616141732283463
0
LINE
8
BLACK
6
CONTINUOUS
10
5.6226870078740152
20
-3.9616141732283463
11
5.6193912598425193
21
-3.9609586220472441
0
LINE
8
BLACK
6
CONTINUOUS
10
5.6193912598425193
20
-3.9609586220472441
11
5.6165972440944882
21
-3.9590917322834644
0
LINE
8
BLACK
6
CONTINUOUS
10
5.6165972440944882
20
-3.9590917322834644
11
5.6147303543307086
21
-3.9562977165354329
0
LINE
8
BLACK
6
CONTINUOUS
10
5.6147303543307086
20
-3.9562977165354329
11
5.6140748031496059
21
-3.953001968503937
0
LINE
8
BLACK
6
CONTINUOUS
10
5.6140748031496059
20
-3.953001968503937
11
5.6140748031496059
21
-3.932824803149606
0
LINE
8
BLACK
6
CONTINUOUS
10
5.6140748031496059
20
-3.932824803149606
11
5.6147303543307086
21
-3.9295290551181101
0
LINE
8
BLACK
6
CONTINUOUS
10
5.6147303543307086
20
-3.9295290551181101
11
5.6165972440944882
21
-3.9267350393700786
0
LINE
8
BLACK
6
CONTINUOUS
10
5.6165972440944882
20
-3.9267350393700786
11
5.6193912598425193
21
-3.9248681496062989
0
LINE
8
BLACK
6
CONTINUOUS
10
5.6193912598425193
20
-3.9248681496062989
11
5.6226870078740152
21
-3.9242125984251968
0
LINE
8
BLACK
6
CONTINUOUS
10
5.6226870078740152
20
-3.9242125984251968
11
5.6399114173228346
21
-3.9242125984251968
0
LINE
8
BLACK
6
CONTINUOUS
10
5.6399114173228346
20
-3.9242125984251968
11
5.6432071653543305
21
-3.9248681496062989
0
LINE
8
BLACK
6
CONTINUOUS
10
5.089270157480315
20
-3.9236870472440946
11
5.092064173228346
21
-3.9255539370078738
0
LINE
8
BLACK
6
CONTINUOUS
10
5.092064173228346
20
-3.9255539370078738
11
5.0939310629921257
21
-3.9283479527559053
0
LINE
8
BLACK
6
CONTINUOUS
10
5.0939310629921257
20
-3.9283479527559053
11
5.0945866141732283
21
-3.9316437007874017
0
LINE
8
BLACK
6
CONTINUOUS
10
5.0945866141732283
20
-3.9316437007874017
11
5.0945866141732283
21
-3.9518208661417322
0
LINE
8
BLACK
6
CONTINUOUS
10
5.0945866141732283
20
-3.9518208661417322
11
5.0939310629921257
21
-3.9551166141732281
0
LINE
8
BLACK
6
CONTINUOUS
10
5.0939310629921257
20
-3.9551166141732281
11
5.092064173228346
21
-3.9579106299212596
0
LINE
8
BLACK
6
CONTINUOUS
10
5.092064173228346
20
-3.9579106299212596
11
5.089270157480315
21
-3.9597775196850393
0
LINE
8
BLACK
6
CONTINUOUS
10
5.089270157480315
20
-3.9597775196850393
11
5.0859744094488191
21
-3.9604330708661415
0
LINE
8
BLACK
6
CONTINUOUS
10
5.0859744094488191
20
-3.9604330708661415
11
5.0687499999999996
21
-3.9604330708661415
0
LINE
8
BLACK
6
CONTINUOUS
10
5.0687499999999996
20
-3.9604330708661415
11
5.0654542519685037
21
-3.9597775196850393
0
LINE
8
BLACK
6
CONTINUOUS
10
5.0654542519685037
20
-3.9597775196850393
11
5.0626602362204727
21
-3.9579106299212596
0
LINE
8
BLACK
6
CONTINUOUS
10
5.0626602362204727
20
-3.9579106299212596
11
5.060793346456693
21
-3.9551166141732281
0
LINE
8
BLACK
6
CONTINUOUS
10
5.060793346456693
20
-3.9551166141732281
11
5.0601377952755904
21
-3.9518208661417322
0
LINE
8
BLACK
6
CONTINUOUS
10
5.0601377952755904
20
-3.9518208661417322
11
5.0601377952755904
21
-3.9316437007874017
0
LINE
8
BLACK
6
CONTINUOUS
10
5.0601377952755904
20
-3.9316437007874017
11
5.060793346456693
21
-3.9283479527559053
0
LINE
8
BLACK
6
CONTINUOUS
10
5.060793346456693
20
-3.9283479527559053
11
5.0626602362204727
21
-3.9255539370078738
0
LINE
8
BLACK
6
CONTINUOUS
10
5.0626602362204727
20
-3.9255539370078738
11
5.0654542519685037
21
-3.9236870472440946
0
LINE
8
BLACK
6
CONTINUOUS
10
5.0654542519685037
20
-3.9236870472440946
11
5.0687499999999996
21
-3.923031496062992
0
LINE
8
BLACK
6
CONTINUOUS
10
5.0687499999999996
20
-3.923031496062992
11
5.0859744094488191
21
-3.923031496062992
0
LINE
8
BLACK
6
CONTINUOUS
10
5.0859744094488191
20
-3.923031496062992
11
5.089270157480315
21
-3.9236870472440946
0
LINE
8
BLACK
6
CONTINUOUS
10
5.1512780314960631
20
-3.9236870472440946
11
5.1540720472440942
21
-3.9255539370078738
0
LINE
8
BLACK
6
CONTINUOUS
10
5.1540720472440942
20
-3.9255539370078738
11
5.1559389370078739
21
-3.9283479527559053
0
LINE
8
BLACK
6
CONTINUOUS
10
5.1559389370078739
20
-3.9283479527559053
11
5.1565944881889765
21
-3.9316437007874017
0
LINE
8
BLACK
6
CONTINUOUS
10
5.1565944881889765
20
-3.9316437007874017
11
5.1565944881889765
21
-3.9518208661417322
0
LINE
8
BLACK
6
CONTINUOUS
10
5.1565944881889765
20
-3.9518208661417322
11
5.1559389370078739
21
-3.9551166141732281
0
LINE
8
BLACK
6
CONTINUOUS
10
5.1559389370078739
20
-3.9551166141732281
11
5.1540720472440942
21
-3.9579106299212596
0
LINE
8
BLACK
6
CONTINUOUS
10
5.1540720472440942
20
-3.9579106299212596
11
5.1512780314960631
21
-3.9597775196850393
0
LINE
8
BLACK
6
CONTINUOUS
10
5.1512780314960631
20
-3.9597775196850393
11
5.1479822834645672
21
-3.9604330708661415
0
LINE
8
BLACK
6
CONTINUOUS
10
5.1479822834645672
20
-3.9604330708661415
11
5.1307578740157478
21
-3.9604330708661415
0
LINE
8
BLACK
6
CONTINUOUS
10
5.1307578740157478
20
-3.9604330708661415
11
5.1274621259842519
21
-3.9597775196850393
0
LINE
8
BLACK
6
CONTINUOUS
10
5.1274621259842519
20
-3.9597775196850393
11
5.1246681102362199
21
-3.9579106299212596
0
LINE
8
BLACK
6
CONTINUOUS
10
5.1246681102362199
20
-3.9579106299212596
11
5.1228012204724411
21
-3.9551166141732281
0
LINE
8
BLACK
6
CONTINUOUS
10
5.1228012204724411
20
-3.9551166141732281
11
5.1221456692913385
21
-3.9518208661417322
0
LINE
8
BLACK
6
CONTINUOUS
10
5.1221456692913385
20
-3.9518208661417322
11
5.1221456692913385
21
-3.9316437007874017
0
LINE
8
BLACK
6
CONTINUOUS
10
5.1221456692913385
20
-3.9316437007874017
11
5.1228012204724411
21
-3.9283479527559053
0
LINE
8
BLACK
6
CONTINUOUS
10
5.1228012204724411
20
-3.9283479527559053
11
5.1246681102362199
21
-3.9255539370078738
0
LINE
8
BLACK
6
CONTINUOUS
10
5.1246681102362199
20
-3.9255539370078738
11
5.1274621259842519
21
-3.9236870472440946
0
LINE
8
BLACK
6
CONTINUOUS
10
5.1274621259842519
20
-3.9236870472440946
11
5.1307578740157478
21
-3.923031496062992
0
LINE
8
BLACK
6
CONTINUOUS
10
5.1307578740157478
20
-3.923031496062992
11
5.1479822834645672
21
-3.923031496062992
0
LINE
8
BLACK
6
CONTINUOUS
10
5.1479822834645672
20
-3.923031496062992
11
5.1512780314960631
21
-3.9236870472440946
0
LINE
8
BLACK
6
CONTINUOUS
10
4.574260433070866
20
-3.4221471653543305
11
4.586734212598425
21
-3.4251035039370077
0
LINE
8
BLACK
6
CONTINUOUS
10
4.586734212598425
20
-3.4251035039370077
11
4.5987804330708659
21
-3.429487992125984
0
LINE
8
BLACK
6
CONTINUOUS
10
4.5987804330708659
20
-3.429487992125984
11
4.6102362204724407
21
-3.4352412992125982
0
LINE
8
BLACK
6
CONTINUOUS
10
4.6102362204724407
20
-3.4352412992125982
11
4.6209466141732278
21
-3.4422856299212596
0
LINE
8
BLACK
6
CONTINUOUS
10
4.6209466141732278
20
-3.4422856299212596
11
4.630766811023622
21
-3.4505257480314961
0
LINE
8
BLACK
6
CONTINUOUS
10
4.630766811023622
20
-3.4505257480314961
11
4.6395639370078738
21
-3.4598501968503936
0
LINE
8
BLACK
6
CONTINUOUS
10
4.6395639370078738
20
-3.4598501968503936
11
4.6472191338582673
21
-3.4701328740157478
0
LINE
8
BLACK
6
CONTINUOUS
10
4.6472191338582673
20
-3.4701328740157478
11
4.6536287795275593
21
-3.4812347244094486
0
LINE
8
BLACK
6
CONTINUOUS
10
4.6536287795275593
20
-3.4812347244094486
11
4.6587062598425195
21
-3.4930056692913385
0
LINE
8
BLACK
6
CONTINUOUS
10
4.6587062598425195
20
-3.4930056692913385
11
4.6623829133858266
21
-3.5052864566929132
0
LINE
8
BLACK
6
CONTINUOUS
10
4.6623829133858266
20
-3.5052864566929132
11
4.6646089370078743
21
-3.5179110236220472
0
LINE
8
BLACK
6
CONTINUOUS
10
4.6646089370078743
20
-3.5179110236220472
11
4.6653543307086611
21
-3.5307086614173229
0
LINE
8
BLACK
6
CONTINUOUS
10
4.6653543307086611
20
-3.5307086614173229
11
4.6646089370078743
21
-3.5435062992125985
0
LINE
8
BLACK
6
CONTINUOUS
10
4.6646089370078743
20
-3.5435062992125985
11
4.6623829133858266
21
-3.5561308661417321
0
LINE
8
BLACK
6
CONTINUOUS
10
4.6623829133858266
20
-3.5561308661417321
11
4.6587062598425195
21
-3.5684116535433068
0
LINE
8
BLACK
6
CONTINUOUS
10
4.6587062598425195
20
-3.5684116535433068
11
4.6536287795275593
21
-3.5801825984251967
0
LINE
8
BLACK
6
CONTINUOUS
10
4.6536287795275593
20
-3.5801825984251967
11
4.6472191338582673
21
-3.5912844488188975
0
LINE
8
BLACK
6
CONTINUOUS
10
4.6472191338582673
20
-3.5912844488188975
11
4.6395639370078738
21
-3.6015671259842521
0
LINE
8
BLACK
6
CONTINUOUS
10
4.6395639370078738
20
-3.6015671259842521
11
4.630766811023622
21
-3.6108915748031496
0
LINE
8
BLACK
6
CONTINUOUS
10
4.630766811023622
20
-3.6108915748031496
11
4.6209466141732278
21
-3.6191316929133857
0
LINE
8
BLACK
6
CONTINUOUS
10
4.6209466141732278
20
-3.6191316929133857
11
4.6102362204724407
21
-3.6261760236220471
0
LINE
8
BLACK
6
CONTINUOUS
10
4.6102362204724407
20
-3.6261760236220471
11
4.5987804330708659
21
-3.6319293307086613
0
LINE
8
BLACK
6
CONTINUOUS
10
4.5987804330708659
20
-3.6319293307086613
11
4.586734212598425
21
-3.6363138188976376
0
LINE
8
BLACK
6
CONTINUOUS
10
4.586734212598425
20
-3.6363138188976376
11
4.574260433070866
21
-3.6392701574803148
0
LINE
8
BLACK
6
CONTINUOUS
10
4.574260433070866
20
-3.6392701574803148
11
4.5615277952755902
21
-3.6407583858267714
0
LINE
8
BLACK
6
CONTINUOUS
10
4.5615277952755902
20
-3.6407583858267714
11
4.5487084251968506
21
-3.6407583858267714
0
LINE
8
BLACK
6
CONTINUOUS
10
4.5487084251968506
20
-3.6407583858267714
11
4.5359757874015747
21
-3.6392701574803148
0
LINE
8
BLACK
6
CONTINUOUS
10
4.5359757874015747
20
-3.6392701574803148
11
4.5235020078740158
21
-3.6363138188976376
0
LINE
8
BLACK
6
CONTINUOUS
10
4.5235020078740158
20
-3.6363138188976376
11
4.5114557874015748
21
-3.6319293307086613
0
LINE
8
BLACK
6
CONTINUOUS
10
4.5114557874015748
20
-3.6319293307086613
11
4.5
21
-3.6261760236220471
0
LINE
8
BLACK
6
CONTINUOUS
10
4.5
20
-3.6261760236220471
11
4.4892896062992129
21
-3.6191316929133857
0
LINE
8
BLACK
6
CONTINUOUS
10
4.4892896062992129
20
-3.6191316929133857
11
4.4794694094488188
21
-3.6108915748031496
0
LINE
8
BLACK
6
CONTINUOUS
10
4.4794694094488188
20
-3.6108915748031496
11
4.4706722834645669
21
-3.6015671259842521
0
LINE
8
BLACK
6
CONTINUOUS
10
4.4706722834645669
20
-3.6015671259842521
11
4.4630170866141734
21
-3.5912844488188975
0
LINE
8
BLACK
6
CONTINUOUS
10
4.4630170866141734
20
-3.5912844488188975
11
4.4566074409448815
21
-3.5801825984251967
0
LINE
8
BLACK
6
CONTINUOUS
10
4.4566074409448815
20
-3.5801825984251967
11
4.4515299606299212
21
-3.5684116535433068
0
LINE
8
BLACK
6
CONTINUOUS
10
4.4515299606299212
20
-3.5684116535433068
11
4.4478533070866142
21
-3.5561308661417321
0
LINE
8
BLACK
6
CONTINUOUS
10
4.4478533070866142
20
-3.5561308661417321
11
4.4456272834645665
21
-3.5435062992125985
0
LINE
8
BLACK
6
CONTINUOUS
10
4.4456272834645665
20
-3.5435062992125985
11
4.4448818897637796
21
-3.5307086614173229
0
LINE
8
BLACK
6
CONTINUOUS
10
4.4448818897637796
20
-3.5307086614173229
11
4.4456272834645665
21
-3.5179110236220472
0
LINE
8
BLACK
6
CONTINUOUS
10
4.4456272834645665
20
-3.5179110236220472
11
4.4478533070866142
21
-3.5052864566929132
0
LINE
8
BLACK
6
CONTINUOUS
10
4.4478533070866142
20
-3.5052864566929132
11
4.4515299606299212
21
-3.4930056692913385
0
LINE
8
BLACK
6
CONTINUOUS
10
4.4515299606299212
20
-3.4930056692913385
11
4.4566074409448815
21
-3.4812347244094486
0
LINE
8
BLACK
6
CONTINUOUS
10
4.4566074409448815
20
-3.4812347244094486
11
4.4630170866141734
21
-3.4701328740157478
0
LINE
8
BLACK
6
CONTINUOUS
10
4.4630170866141734
20
-3.4701328740157478
11
4.4706722834645669
21
-3.4598501968503936
0
LINE
8
BLACK
6
CONTINUOUS
10
4.4706722834645669
20
-3.4598501968503936
11
4.4794694094488188
21
-3.4505257480314961
0
LINE
8
BLACK
6
CONTINUOUS
10
4.4794694094488188
20
-3.4505257480314961
11
4.4892896062992129
21
-3.4422856299212596
0
LINE
8
BLACK
6
CONTINUOUS
10
4.4892896062992129
20
-3.4422856299212596
11
4.5
21
-3.4352412992125982
0
LINE
8
BLACK
6
CONTINUOUS
10
4.5
20
-3.4352412992125982
11
4.5114557874015748
21
-3.429487992125984
0
LINE
8
BLACK
6
CONTINUOUS
10
4.5114557874015748
20
-3.429487992125984
11
4.5235020078740158
21
-3.4251035039370077
0
LINE
8
BLACK
6
CONTINUOUS
10
4.5235020078740158
20
-3.4251035039370077
11
4.5359757874015747
21
-3.4221471653543305
0
LINE
8
BLACK
6
CONTINUOUS
10
4.5359757874015747
20
-3.4221471653543305
11
4.5487084251968506
21
-3.4206589370078739
0
LINE
8
BLACK
6
CONTINUOUS
10
4.5487084251968506
20
-3.4206589370078739
11
4.5615277952755902
21
-3.4206589370078739
0
LINE
8
BLACK
6
CONTINUOUS
10
4.5615277952755902
20
-3.4206589370078739
11
4.574260433070866
21
-3.4221471653543305
0
LINE
8
BLACK
6
CONTINUOUS
10
6.1742604330708657
20
-3.4221471653543305
11
6.1867342125984255
21
-3.4251035039370077
0
LINE
8
BLACK
6
CONTINUOUS
10
6.1867342125984255
20
-3.4251035039370077
11
6.1987804330708656
21
-3.429487992125984
0
LINE
8
BLACK
6
CONTINUOUS
10
6.1987804330708656
20
-3.429487992125984
11
6.2102362204724404
21
-3.4352412992125982
0
LINE
8
BLACK
6
CONTINUOUS
10
6.2102362204724404
20
-3.4352412992125982
11
6.2209466141732284
21
-3.4422856299212596
0
LINE
8
BLACK
6
CONTINUOUS
10
6.2209466141732284
20
-3.4422856299212596
11
6.2307668110236216
21
-3.4505257480314961
0
LINE
8
BLACK
6
CONTINUOUS
10
6.2307668110236216
20
-3.4505257480314961
11
6.2395639370078735
21
-3.4598501968503936
0
LINE
8
BLACK
6
CONTINUOUS
10
6.2395639370078735
20
-3.4598501968503936
11
6.2472191338582679
21
-3.4701328740157478
0
LINE
8
BLACK
6
CONTINUOUS
10
6.2472191338582679
20
-3.4701328740157478
11
6.2536287795275589
21
-3.4812347244094486
0
LINE
8
BLACK
6
CONTINUOUS
10
6.2536287795275589
20
-3.4812347244094486
11
6.2587062598425192
21
-3.4930056692913385
0
LINE
8
BLACK
6
CONTINUOUS
10
6.2587062598425192
20
-3.4930056692913385
11
6.2623829133858262
21
-3.5052864566929132
0
LINE
8
BLACK
6
CONTINUOUS
10
6.2623829133858262
20
-3.5052864566929132
11
6.2646089370078739
21
-3.5179110236220472
0
LINE
8
BLACK
6
CONTINUOUS
10
6.2646089370078739
20
-3.5179110236220472
11
6.2653543307086617
21
-3.5307086614173229
0
LINE
8
BLACK
6
CONTINUOUS
10
6.2653543307086617
20
-3.5307086614173229
11
6.2646089370078739
21
-3.5435062992125985
0
LINE
8
BLACK
6
CONTINUOUS
10
6.2646089370078739
20
-3.5435062992125985
11
6.2623829133858262
21
-3.5561308661417321
0
LINE
8
BLACK
6
CONTINUOUS
10
6.2623829133858262
20
-3.5561308661417321
11
6.2587062598425192
21
-3.5684116535433068
0
LINE
8
BLACK
6
CONTINUOUS
10
6.2587062598425192
20
-3.5684116535433068
11
6.2536287795275589
21
-3.5801825984251967
0
LINE
8
BLACK
6
CONTINUOUS
10
6.2536287795275589
20
-3.5801825984251967
11
6.2472191338582679
21
-3.5912844488188975
0
LINE
8
BLACK
6
CONTINUOUS
10
6.2472191338582679
20
-3.5912844488188975
11
6.2395639370078735
21
-3.6015671259842521
0
LINE
8
BLACK
6
CONTINUOUS
10
6.2395639370078735
20
-3.6015671259842521
11
6.2307668110236216
21
-3.6108915748031496
0
LINE
8
BLACK
6
CONTINUOUS
10
6.2307668110236216
20
-3.6108915748031496
11
6.2209466141732284
21
-3.6191316929133857
0
LINE
8
BLACK
6
CONTINUOUS
10
6.2209466141732284
20
-3.6191316929133857
11
6.2102362204724404
21
-3.6261760236220471
0
LINE
8
BLACK
6
CONTINUOUS
10
6.2102362204724404
20
-3.6261760236220471
11
6.1987804330708656
21
-3.6319293307086613
0
LINE
8
BLACK
6
CONTINUOUS
10
6.1987804330708656
20
-3.6319293307086613
11
6.1867342125984255
21
-3.6363138188976376
0
LINE
8
BLACK
6
CONTINUOUS
10
6.1867342125984255
20
-3.6363138188976376
11
6.1742604330708657
21
-3.6392701574803148
0
LINE
8
BLACK
6
CONTINUOUS
10
6.1742604330708657
20
-3.6392701574803148
11
6.1615277952755907
21
-3.6407583858267714
0
LINE
8
BLACK
6
CONTINUOUS
10
6.1615277952755907
20
-3.6407583858267714
11
6.1487084251968502
21
-3.6407583858267714
0
LINE
8
BLACK
6
CONTINUOUS
10
6.1487084251968502
20
-3.6407583858267714
11
6.1359757874015743
21
-3.6392701574803148
0
LINE
8
BLACK
6
CONTINUOUS
10
6.1359757874015743
20
-3.6392701574803148
11
6.1235020078740154
21
-3.6363138188976376
0
LINE
8
BLACK
6
CONTINUOUS
10
6.1235020078740154
20
-3.6363138188976376
11
6.1114557874015745
21
-3.6319293307086613
0
LINE
8
BLACK
6
CONTINUOUS
10
6.1114557874015745
20
-3.6319293307086613
11
6.0999999999999996
21
-3.6261760236220471
0
LINE
8
BLACK
6
CONTINUOUS
10
6.0999999999999996
20
-3.6261760236220471
11
6.0892896062992126
21
-3.6191316929133857
0
LINE
8
BLACK
6
CONTINUOUS
10
6.0892896062992126
20
-3.6191316929133857
11
6.0794694094488184
21
-3.6108915748031496
0
LINE
8
BLACK
6
CONTINUOUS
10
6.0794694094488184
20
-3.6108915748031496
11
6.0706722834645666
21
-3.6015671259842521
0
LINE
8
BLACK
6
CONTINUOUS
10
6.0706722834645666
20
-3.6015671259842521
11
6.063017086614173
21
-3.5912844488188975
0
LINE
8
BLACK
6
CONTINUOUS
10
6.063017086614173
20
-3.5912844488188975
11
6.056607440944882
21
-3.5801825984251967
0
LINE
8
BLACK
6
CONTINUOUS
10
6.056607440944882
20
-3.5801825984251967
11
6.0515299606299209
21
-3.5684116535433068
0
LINE
8
BLACK
6
CONTINUOUS
10
6.0515299606299209
20
-3.5684116535433068
11
6.0478533070866138
21
-3.5561308661417321
0
LINE
8
BLACK
6
CONTINUOUS
10
6.0478533070866138
20
-3.5561308661417321
11
6.045627283464567
21
-3.5435062992125985
0
LINE
8
BLACK
6
CONTINUOUS
10
6.045627283464567
20
-3.5435062992125985
11
6.0448818897637793
21
-3.5307086614173229
0
LINE
8
BLACK
6
CONTINUOUS
10
6.0448818897637793
20
-3.5307086614173229
11
6.045627283464567
21
-3.5179110236220472
0
LINE
8
BLACK
6
CONTINUOUS
10
6.045627283464567
20
-3.5179110236220472
11
6.0478533070866138
21
-3.5052864566929132
0
LINE
8
BLACK
6
CONTINUOUS
10
6.0478533070866138
20
-3.5052864566929132
11
6.0515299606299209
21
-3.4930056692913385
0
LINE
8
BLACK
6
CONTINUOUS
10
6.0515299606299209
20
-3.4930056692913385
11
6.056607440944882
21
-3.4812347244094486
0
LINE
8
BLACK
6
CONTINUOUS
10
6.056607440944882
20
-3.4812347244094486
11
6.063017086614173
21
-3.4701328740157478
0
LINE
8
BLACK
6
CONTINUOUS
10
6.063017086614173
20
-3.4701328740157478
11
6.0706722834645666
21
-3.4598501968503936
0
LINE
8
BLACK
6
CONTINUOUS
10
6.0706722834645666
20
-3.4598501968503936
11
6.0794694094488184
21
-3.4505257480314961
0
LINE
8
BLACK
6
CONTINUOUS
10
6.0794694094488184
20
-3.4505257480314961
11
6.0892896062992126
21
-3.4422856299212596
0
LINE
8
BLACK
6
CONTINUOUS
10
6.0892896062992126
20
-3.4422856299212596
11
6.0999999999999996
21
-3.4352412992125982
0
LINE
8
BLACK
6
CONTINUOUS
10
6.0999999999999996
20
-3.4352412992125982
11
6.1114557874015745
21
-3.429487992125984
0
LINE
8
BLACK
6
CONTINUOUS
10
6.1114557874015745
20
-3.429487992125984
11
6.1235020078740154
21
-3.4251035039370077
0
LINE
8
BLACK
6
CONTINUOUS
10
6.1235020078740154
20
-3.4251035039370077
11
6.1359757874015743
21
-3.4221471653543305
0
LINE
8
BLACK
6
CONTINUOUS
10
6.1359757874015743
20
-3.4221471653543305
11
6.1487084251968502
21
-3.4206589370078739
0
LINE
8
BLACK
6
CONTINUOUS
10
6.1487084251968502
20
-3.4206589370078739
11
6.1615277952755907
21
-3.4206589370078739
0
LINE
8
BLACK
6
CONTINUOUS
10
6.1615277952755907
20
-3.4206589370078739
11
6.1742604330708657
21
-3.4221471653543305
  0
ENDSEC
  0
EOF
