  0
SECTION
  2
HEADER
  9
$ANGBASE
  50
0.0
  9
$ANGDIR
  70
1
  9
$MEASUREMENT
  70
0
  0
ENDSEC
  0
SECTION
  2
TABLES
  0
TABLE
  2
LTYPE
  70
4
  0
LTYPE
  5
40F
  2
CONTINUOUS
  70
0
  3
Solid line
  72
65
  73
0
  40
0.0
  0
LTYPE
  5
410
  2
DASHDOT
 70
0
  3
Dash Dot ____ _ ____ _
 72
65
 73
4
 40
2.0
 49
1.25
 49
-0.25
 49
0.25
 49
-0.25
  0
LTYPE
  5
411
  2
DASHED
 70
0
  3
Dashed __ __ __ __ __
 72
65
 73
2
 40
0.75
 49
0.5
 49
-0.25
  0
LTYPE
  5
43B
  2
DOTTED
 70
0
  3
Dotted .  .  .  .
 72
65
 73
2
 40
0.2
 49
0.0
 49
-0.2
  0
ENDTAB
  0
TABLE
  2
STYLE
  70
4
  0
STYLE
  2
KICAD
  70
0
  40
0
  41
1
  42
1
  50
0
  71
0
  3
isocp.shx
  0
STYLE
  2
KICADB
  70
0
  40
0
  41
1
  42
1
  50
0
  71
0
  3
isocp.shx
  0
STYLE
  2
KICADI
  70
0
  40
0
  41
1
  42
1
  50
15
  71
0
  3
isocp.shx
  0
STYLE
  2
KICADBI
  70
0
  40
0
  41
1
  42
1
  50
15
  71
0
  3
isocp.shx
  0
ENDTAB
  0
TABLE
  2
LAYER
  70
1
  0
LAYER
  2
BLACK
  70
0
  62
7
  6
CONTINUOUS
  0
ENDTAB
  0
ENDSEC
  0
SECTION
  2
ENTITIES
0
LINE
8
BLACK
6
CONTINUOUS
10
4.5686728740157481
20
-4.6104068897637793
11
4.5820571653543309
21
-4.612680984251968
0
LINE
8
BLACK
6
CONTINUOUS
10
4.5820571653543309
20
-4.612680984251968
11
4.5951026771653538
21
-4.6164393307086611
0
LINE
8
BLACK
6
CONTINUOUS
10
4.5951026771653538
20
-4.6164393307086611
11
4.6076453543307085
21
-4.6216346850393704
0
LINE
8
BLACK
6
CONTINUOUS
10
4.6076453543307085
20
-4.6216346850393704
11
4.6195275196850396
21
-4.628201692913386
0
LINE
8
BLACK
6
CONTINUOUS
10
4.6195275196850396
20
-4.628201692913386
11
4.6305996456692915
21
-4.6360577952755904
0
LINE
8
BLACK
6
CONTINUOUS
10
4.6305996456692915
20
-4.6360577952755904
11
4.640722559055118
21
-4.645104212598425
0
LINE
8
BLACK
6
CONTINUOUS
10
4.640722559055118
20
-4.645104212598425
11
4.6497689763779526
21
-4.6552271259842515
0
LINE
8
BLACK
6
CONTINUOUS
10
4.6497689763779526
20
-4.6552271259842515
11
4.657625078740157
21
-4.6662992519685043
0
LINE
8
BLACK
6
CONTINUOUS
10
4.657625078740157
20
-4.6662992519685043
11
4.6641920866141735
21
-4.6781814173228344
0
LINE
8
BLACK
6
CONTINUOUS
10
4.6641920866141735
20
-4.6781814173228344
11
4.6693874409448819
21
-4.6907240944881892
0
LINE
8
BLACK
6
CONTINUOUS
10
4.6693874409448819
20
-4.6907240944881892
11
4.6731457874015749
21
-4.7037696062992129
0
LINE
8
BLACK
6
CONTINUOUS
10
4.6731457874015749
20
-4.7037696062992129
11
4.6754198818897637
21
-4.7171538976377949
0
LINE
8
BLACK
6
CONTINUOUS
10
4.6754198818897637
20
-4.7171538976377949
11
4.6761811023622046
21
-4.7307086614173226
0
LINE
8
BLACK
6
CONTINUOUS
10
4.6761811023622046
20
-4.7307086614173226
11
4.6754198818897637
21
-4.7442634251968503
0
LINE
8
BLACK
6
CONTINUOUS
10
4.6754198818897637
20
-4.7442634251968503
11
4.6731457874015749
21
-4.7576477165354332
0
LINE
8
BLACK
6
CONTINUOUS
10
4.6731457874015749
20
-4.7576477165354332
11
4.6693874409448819
21
-4.7706932283464569
0
LINE
8
BLACK
6
CONTINUOUS
10
4.6693874409448819
20
-4.7706932283464569
11
4.6641920866141735
21
-4.7832359055118108
0
LINE
8
BLACK
6
CONTINUOUS
10
4.6641920866141735
20
-4.7832359055118108
11
4.657625078740157
21
-4.7951180708661418
0
LINE
8
BLACK
6
CONTINUOUS
10
4.657625078740157
20
-4.7951180708661418
11
4.6497689763779526
21
-4.8061901968503937
0
LINE
8
BLACK
6
CONTINUOUS
10
4.6497689763779526
20
-4.8061901968503937
11
4.640722559055118
21
-4.8163131102362202
0
LINE
8
BLACK
6
CONTINUOUS
10
4.640722559055118
20
-4.8163131102362202
11
4.6305996456692915
21
-4.8253595275590548
0
LINE
8
BLACK
6
CONTINUOUS
10
4.6305996456692915
20
-4.8253595275590548
11
4.6195275196850396
21
-4.8332156299212601
0
LINE
8
BLACK
6
CONTINUOUS
10
4.6195275196850396
20
-4.8332156299212601
11
4.6076453543307085
21
-4.8397826377952757
0
LINE
8
BLACK
6
CONTINUOUS
10
4.6076453543307085
20
-4.8397826377952757
11
4.5951026771653538
21
-4.8449779921259841
0
LINE
8
BLACK
6
CONTINUOUS
10
4.5951026771653538
20
-4.8449779921259841
11
4.5820571653543309
21
-4.8487363385826772
0
LINE
8
BLACK
6
CONTINUOUS
10
4.5820571653543309
20
-4.8487363385826772
11
4.5686728740157481
21
-4.8510104330708659
0
LINE
8
BLACK
6
CONTINUOUS
10
4.5686728740157481
20
-4.8510104330708659
11
4.5551181102362204
21
-4.8517716535433069
0
LINE
8
BLACK
6
CONTINUOUS
10
4.5551181102362204
20
-4.8517716535433069
11
4.5415633464566927
21
-4.8510104330708659
0
LINE
8
BLACK
6
CONTINUOUS
10
4.5415633464566927
20
-4.8510104330708659
11
4.5281790551181098
21
-4.8487363385826772
0
LINE
8
BLACK
6
CONTINUOUS
10
4.5281790551181098
20
-4.8487363385826772
11
4.5151335433070869
21
-4.8449779921259841
0
LINE
8
BLACK
6
CONTINUOUS
10
4.5151335433070869
20
-4.8449779921259841
11
4.5025908661417322
21
-4.8397826377952757
0
LINE
8
BLACK
6
CONTINUOUS
10
4.5025908661417322
20
-4.8397826377952757
11
4.4907087007874011
21
-4.8332156299212601
0
LINE
8
BLACK
6
CONTINUOUS
10
4.4907087007874011
20
-4.8332156299212601
11
4.4796365748031493
21
-4.8253595275590548
0
LINE
8
BLACK
6
CONTINUOUS
10
4.4796365748031493
20
-4.8253595275590548
11
4.4695136614173228
21
-4.8163131102362202
0
LINE
8
BLACK
6
CONTINUOUS
10
4.4695136614173228
20
-4.8163131102362202
11
4.4604672440944881
21
-4.8061901968503937
0
LINE
8
BLACK
6
CONTINUOUS
10
4.4604672440944881
20
-4.8061901968503937
11
4.4526111417322838
21
-4.7951180708661418
0
LINE
8
BLACK
6
CONTINUOUS
10
4.4526111417322838
20
-4.7951180708661418
11
4.4460441338582672
21
-4.7832359055118108
0
LINE
8
BLACK
6
CONTINUOUS
10
4.4460441338582672
20
-4.7832359055118108
11
4.4408487795275589
21
-4.7706932283464569
0
LINE
8
BLACK
6
CONTINUOUS
10
4.4408487795275589
20
-4.7706932283464569
11
4.4370904330708658
21
-4.7576477165354332
0
LINE
8
BLACK
6
CONTINUOUS
10
4.4370904330708658
20
-4.7576477165354332
11
4.4348163385826771
21
-4.7442634251968503
0
LINE
8
BLACK
6
CONTINUOUS
10
4.4348163385826771
20
-4.7442634251968503
11
4.4340551181102361
21
-4.7307086614173226
0
LINE
8
BLACK
6
CONTINUOUS
10
4.4340551181102361
20
-4.7307086614173226
11
4.4348163385826771
21
-4.7171538976377949
0
LINE
8
BLACK
6
CONTINUOUS
10
4.4348163385826771
20
-4.7171538976377949
11
4.4370904330708658
21
-4.7037696062992129
0
LINE
8
BLACK
6
CONTINUOUS
10
4.4370904330708658
20
-4.7037696062992129
11
4.4408487795275589
21
-4.6907240944881892
0
LINE
8
BLACK
6
CONTINUOUS
10
4.4408487795275589
20
-4.6907240944881892
11
4.4460441338582672
21
-4.6781814173228344
0
LINE
8
BLACK
6
CONTINUOUS
10
4.4460441338582672
20
-4.6781814173228344
11
4.4526111417322838
21
-4.6662992519685043
0
LINE
8
BLACK
6
CONTINUOUS
10
4.4526111417322838
20
-4.6662992519685043
11
4.4604672440944881
21
-4.6552271259842515
0
LINE
8
BLACK
6
CONTINUOUS
10
4.4604672440944881
20
-4.6552271259842515
11
4.4695136614173228
21
-4.645104212598425
0
LINE
8
BLACK
6
CONTINUOUS
10
4.4695136614173228
20
-4.645104212598425
11
4.4796365748031493
21
-4.6360577952755904
0
LINE
8
BLACK
6
CONTINUOUS
10
4.4796365748031493
20
-4.6360577952755904
11
4.4907087007874011
21
-4.628201692913386
0
LINE
8
BLACK
6
CONTINUOUS
10
4.4907087007874011
20
-4.628201692913386
11
4.5025908661417322
21
-4.6216346850393704
0
LINE
8
BLACK
6
CONTINUOUS
10
4.5025908661417322
20
-4.6216346850393704
11
4.5151335433070869
21
-4.6164393307086611
0
LINE
8
BLACK
6
CONTINUOUS
10
4.5151335433070869
20
-4.6164393307086611
11
4.5281790551181098
21
-4.612680984251968
0
LINE
8
BLACK
6
CONTINUOUS
10
4.5281790551181098
20
-4.612680984251968
11
4.5415633464566927
21
-4.6104068897637793
0
LINE
8
BLACK
6
CONTINUOUS
10
4.5415633464566927
20
-4.6104068897637793
11
4.5551181102362204
21
-4.6096456692913383
0
LINE
8
BLACK
6
CONTINUOUS
10
4.5551181102362204
20
-4.6096456692913383
11
4.5686728740157481
21
-4.6104068897637793
0
LINE
8
BLACK
6
CONTINUOUS
10
4.4365860236220476
20
-4.7440640157480312
11
4.4388266535433072
21
-4.7572514173228342
0
LINE
8
BLACK
6
CONTINUOUS
10
4.4388266535433072
20
-4.7572514173228342
11
4.4425296850393696
21
-4.7701050393700788
0
LINE
8
BLACK
6
CONTINUOUS
10
4.4425296850393696
20
-4.7701050393700788
11
4.447648622047244
21
-4.7824632283464563
0
LINE
8
BLACK
6
CONTINUOUS
10
4.447648622047244
20
-4.7824632283464563
11
4.4541190551181105
21
-4.7941705905511807
0
LINE
8
BLACK
6
CONTINUOUS
10
4.4541190551181105
20
-4.7941705905511807
11
4.4618596062992122
21
-4.8050798425196852
0
LINE
8
BLACK
6
CONTINUOUS
10
4.4618596062992122
20
-4.8050798425196852
11
4.4707729133858267
21
-4.8150538582677163
0
LINE
8
BLACK
6
CONTINUOUS
10
4.4707729133858267
20
-4.8150538582677163
11
4.4807469291338577
21
-4.8239671653543308
0
LINE
8
BLACK
6
CONTINUOUS
10
4.4807469291338577
20
-4.8239671653543308
11
4.4916561811023623
21
-4.8317077165354325
0
LINE
8
BLACK
6
CONTINUOUS
10
4.4916561811023623
20
-4.8317077165354325
11
4.5033635433070867
21
-4.838178149606299
0
LINE
8
BLACK
6
CONTINUOUS
10
4.5033635433070867
20
-4.838178149606299
11
4.5157217322834642
21
-4.8432970866141734
0
LINE
8
BLACK
6
CONTINUOUS
10
4.5157217322834642
20
-4.8432970866141734
11
4.5285753543307088
21
-4.8470001181102358
0
LINE
8
BLACK
6
CONTINUOUS
10
4.5285753543307088
20
-4.8470001181102358
11
4.5417627559055118
21
-4.8492407480314963
0
LINE
8
BLACK
6
CONTINUOUS
10
4.5417627559055118
20
-4.8492407480314963
11
4.5551181102362204
21
-4.8499907874015751
0
LINE
8
BLACK
6
CONTINUOUS
10
4.5551181102362204
20
-4.8499907874015751
11
4.5684734645669289
21
-4.8492407480314963
0
LINE
8
BLACK
6
CONTINUOUS
10
4.5684734645669289
20
-4.8492407480314963
11
4.581660866141732
21
-4.8470001181102358
0
LINE
8
BLACK
6
CONTINUOUS
10
4.581660866141732
20
-4.8470001181102358
11
4.5945144881889766
21
-4.8432970866141734
0
LINE
8
BLACK
6
CONTINUOUS
10
4.5945144881889766
20
-4.8432970866141734
11
4.6068726771653541
21
-4.838178149606299
0
LINE
8
BLACK
6
CONTINUOUS
10
4.6068726771653541
20
-4.838178149606299
11
4.6185800393700784
21
-4.8317077165354325
0
LINE
8
BLACK
6
CONTINUOUS
10
4.6185800393700784
20
-4.8317077165354325
11
4.629489291338583
21
-4.8239671653543308
0
LINE
8
BLACK
6
CONTINUOUS
10
4.629489291338583
20
-4.8239671653543308
11
4.639463307086614
21
-4.8150538582677163
0
LINE
8
BLACK
6
CONTINUOUS
10
4.639463307086614
20
-4.8150538582677163
11
4.6483766141732286
21
-4.8050798425196852
0
LINE
8
BLACK
6
CONTINUOUS
10
4.6483766141732286
20
-4.8050798425196852
11
4.6561171653543303
21
-4.7941705905511807
0
LINE
8
BLACK
6
CONTINUOUS
10
4.6561171653543303
20
-4.7941705905511807
11
4.6625875984251968
21
-4.7824632283464563
0
LINE
8
BLACK
6
CONTINUOUS
10
4.6625875984251968
20
-4.7824632283464563
11
4.6677065354330711
21
-4.7701050393700788
0
LINE
8
BLACK
6
CONTINUOUS
10
4.6677065354330711
20
-4.7701050393700788
11
4.6714095669291336
21
-4.7572514173228342
0
LINE
8
BLACK
6
CONTINUOUS
10
4.6714095669291336
20
-4.7572514173228342
11
4.6736501968503932
21
-4.7440640157480312
0
LINE
8
BLACK
6
CONTINUOUS
10
4.6736501968503932
20
-4.7440640157480312
11
4.674400236220472
21
-4.7307086614173226
0
LINE
8
BLACK
6
CONTINUOUS
10
4.674400236220472
20
-4.7307086614173226
11
4.6736501968503932
21
-4.717353307086614
0
LINE
8
BLACK
6
CONTINUOUS
10
4.6736501968503932
20
-4.717353307086614
11
4.6714095669291336
21
-4.704165905511811
0
LINE
8
BLACK
6
CONTINUOUS
10
4.6714095669291336
20
-4.704165905511811
11
4.6677065354330711
21
-4.6913122834645664
0
LINE
8
BLACK
6
CONTINUOUS
10
4.6677065354330711
20
-4.6913122834645664
11
4.6625875984251968
21
-4.6789540944881889
0
LINE
8
BLACK
6
CONTINUOUS
10
4.6625875984251968
20
-4.6789540944881889
11
4.6561171653543303
21
-4.6672467322834645
0
LINE
8
BLACK
6
CONTINUOUS
10
4.6561171653543303
20
-4.6672467322834645
11
4.6483766141732286
21
-4.6563374803149609
0
LINE
8
BLACK
6
CONTINUOUS
10
4.6483766141732286
20
-4.6563374803149609
11
4.639463307086614
21
-4.6463634645669289
0
LINE
8
BLACK
6
CONTINUOUS
10
4.639463307086614
20
-4.6463634645669289
11
4.629489291338583
21
-4.6374501574803144
0
LINE
8
BLACK
6
CONTINUOUS
10
4.629489291338583
20
-4.6374501574803144
11
4.6185800393700784
21
-4.6297096062992127
0
LINE
8
BLACK
6
CONTINUOUS
10
4.6185800393700784
20
-4.6297096062992127
11
4.6068726771653541
21
-4.6232391732283462
0
LINE
8
BLACK
6
CONTINUOUS
10
4.6068726771653541
20
-4.6232391732283462
11
4.5945144881889766
21
-4.6181202362204727
0
LINE
8
BLACK
6
CONTINUOUS
10
4.5945144881889766
20
-4.6181202362204727
11
4.581660866141732
21
-4.6144172047244094
0
LINE
8
BLACK
6
CONTINUOUS
10
4.581660866141732
20
-4.6144172047244094
11
4.5684734645669289
21
-4.6121765748031498
0
LINE
8
BLACK
6
CONTINUOUS
10
4.5684734645669289
20
-4.6121765748031498
11
4.5551181102362204
21
-4.611426535433071
0
LINE
8
BLACK
6
CONTINUOUS
10
4.5551181102362204
20
-4.611426535433071
11
4.5417627559055118
21
-4.6121765748031498
0
LINE
8
BLACK
6
CONTINUOUS
10
4.5417627559055118
20
-4.6121765748031498
11
4.5285753543307088
21
-4.6144172047244094
0
LINE
8
BLACK
6
CONTINUOUS
10
4.5285753543307088
20
-4.6144172047244094
11
4.5157217322834642
21
-4.6181202362204727
0
LINE
8
BLACK
6
CONTINUOUS
10
4.5157217322834642
20
-4.6181202362204727
11
4.5033635433070867
21
-4.6232391732283462
0
LINE
8
BLACK
6
CONTINUOUS
10
4.5033635433070867
20
-4.6232391732283462
11
4.4916561811023623
21
-4.6297096062992127
0
LINE
8
BLACK
6
CONTINUOUS
10
4.4916561811023623
20
-4.6297096062992127
11
4.4807469291338577
21
-4.6374501574803144
0
LINE
8
BLACK
6
CONTINUOUS
10
4.4807469291338577
20
-4.6374501574803144
11
4.4707729133858267
21
-4.6463634645669289
0
LINE
8
BLACK
6
CONTINUOUS
10
4.4707729133858267
20
-4.6463634645669289
11
4.4618596062992122
21
-4.6563374803149609
0
LINE
8
BLACK
6
CONTINUOUS
10
4.4618596062992122
20
-4.6563374803149609
11
4.4541190551181105
21
-4.6672467322834645
0
LINE
8
BLACK
6
CONTINUOUS
10
4.4541190551181105
20
-4.6672467322834645
11
4.447648622047244
21
-4.6789540944881889
0
LINE
8
BLACK
6
CONTINUOUS
10
4.447648622047244
20
-4.6789540944881889
11
4.4425296850393696
21
-4.6913122834645664
0
LINE
8
BLACK
6
CONTINUOUS
10
4.4425296850393696
20
-4.6913122834645664
11
4.4388266535433072
21
-4.704165905511811
0
LINE
8
BLACK
6
CONTINUOUS
10
4.4388266535433072
20
-4.704165905511811
11
4.4365860236220476
21
-4.717353307086614
0
LINE
8
BLACK
6
CONTINUOUS
10
4.4365860236220476
20
-4.717353307086614
11
4.4358359842519688
21
-4.7307086614173226
0
LINE
8
BLACK
6
CONTINUOUS
10
4.4358359842519688
20
-4.7307086614173226
11
4.4365860236220476
21
-4.7440640157480312
0
LINE
8
BLACK
6
CONTINUOUS
10
6.1686728740157477
20
-4.6104068897637793
11
6.1820571653543306
21
-4.612680984251968
0
LINE
8
BLACK
6
CONTINUOUS
10
6.1820571653543306
20
-4.612680984251968
11
6.1951026771653543
21
-4.6164393307086611
0
LINE
8
BLACK
6
CONTINUOUS
10
6.1951026771653543
20
-4.6164393307086611
11
6.2076453543307082
21
-4.6216346850393704
0
LINE
8
BLACK
6
CONTINUOUS
10
6.2076453543307082
20
-4.6216346850393704
11
6.2195275196850393
21
-4.628201692913386
0
LINE
8
BLACK
6
CONTINUOUS
10
6.2195275196850393
20
-4.628201692913386
11
6.2305996456692911
21
-4.6360577952755904
0
LINE
8
BLACK
6
CONTINUOUS
10
6.2305996456692911
20
-4.6360577952755904
11
6.2407225590551176
21
-4.645104212598425
0
LINE
8
BLACK
6
CONTINUOUS
10
6.2407225590551176
20
-4.645104212598425
11
6.2497689763779523
21
-4.6552271259842515
0
LINE
8
BLACK
6
CONTINUOUS
10
6.2497689763779523
20
-4.6552271259842515
11
6.2576250787401575
21
-4.6662992519685043
0
LINE
8
BLACK
6
CONTINUOUS
10
6.2576250787401575
20
-4.6662992519685043
11
6.2641920866141731
21
-4.6781814173228344
0
LINE
8
BLACK
6
CONTINUOUS
10
6.2641920866141731
20
-4.6781814173228344
11
6.2693874409448815
21
-4.6907240944881892
0
LINE
8
BLACK
6
CONTINUOUS
10
6.2693874409448815
20
-4.6907240944881892
11
6.2731457874015746
21
-4.7037696062992129
0
LINE
8
BLACK
6
CONTINUOUS
10
6.2731457874015746
20
-4.7037696062992129
11
6.2754198818897633
21
-4.7171538976377949
0
LINE
8
BLACK
6
CONTINUOUS
10
6.2754198818897633
20
-4.7171538976377949
11
6.2761811023622043
21
-4.7307086614173226
0
LINE
8
BLACK
6
CONTINUOUS
10
6.2761811023622043
20
-4.7307086614173226
11
6.2754198818897633
21
-4.7442634251968503
0
LINE
8
BLACK
6
CONTINUOUS
10
6.2754198818897633
20
-4.7442634251968503
11
6.2731457874015746
21
-4.7576477165354332
0
LINE
8
BLACK
6
CONTINUOUS
10
6.2731457874015746
20
-4.7576477165354332
11
6.2693874409448815
21
-4.7706932283464569
0
LINE
8
BLACK
6
CONTINUOUS
10
6.2693874409448815
20
-4.7706932283464569
11
6.2641920866141731
21
-4.7832359055118108
0
LINE
8
BLACK
6
CONTINUOUS
10
6.2641920866141731
20
-4.7832359055118108
11
6.2576250787401575
21
-4.7951180708661418
0
LINE
8
BLACK
6
CONTINUOUS
10
6.2576250787401575
20
-4.7951180708661418
11
6.2497689763779523
21
-4.8061901968503937
0
LINE
8
BLACK
6
CONTINUOUS
10
6.2497689763779523
20
-4.8061901968503937
11
6.2407225590551176
21
-4.8163131102362202
0
LINE
8
BLACK
6
CONTINUOUS
10
6.2407225590551176
20
-4.8163131102362202
11
6.2305996456692911
21
-4.8253595275590548
0
LINE
8
BLACK
6
CONTINUOUS
10
6.2305996456692911
20
-4.8253595275590548
11
6.2195275196850393
21
-4.8332156299212601
0
LINE
8
BLACK
6
CONTINUOUS
10
6.2195275196850393
20
-4.8332156299212601
11
6.2076453543307082
21
-4.8397826377952757
0
LINE
8
BLACK
6
CONTINUOUS
10
6.2076453543307082
20
-4.8397826377952757
11
6.1951026771653543
21
-4.8449779921259841
0
LINE
8
BLACK
6
CONTINUOUS
10
6.1951026771653543
20
-4.8449779921259841
11
6.1820571653543306
21
-4.8487363385826772
0
LINE
8
BLACK
6
CONTINUOUS
10
6.1820571653543306
20
-4.8487363385826772
11
6.1686728740157477
21
-4.8510104330708659
0
LINE
8
BLACK
6
CONTINUOUS
10
6.1686728740157477
20
-4.8510104330708659
11
6.15511811023622
21
-4.8517716535433069
0
LINE
8
BLACK
6
CONTINUOUS
10
6.15511811023622
20
-4.8517716535433069
11
6.1415633464566932
21
-4.8510104330708659
0
LINE
8
BLACK
6
CONTINUOUS
10
6.1415633464566932
20
-4.8510104330708659
11
6.1281790551181103
21
-4.8487363385826772
0
LINE
8
BLACK
6
CONTINUOUS
10
6.1281790551181103
20
-4.8487363385826772
11
6.1151335433070866
21
-4.8449779921259841
0
LINE
8
BLACK
6
CONTINUOUS
10
6.1151335433070866
20
-4.8449779921259841
11
6.1025908661417319
21
-4.8397826377952757
0
LINE
8
BLACK
6
CONTINUOUS
10
6.1025908661417319
20
-4.8397826377952757
11
6.0907087007874017
21
-4.8332156299212601
0
LINE
8
BLACK
6
CONTINUOUS
10
6.0907087007874017
20
-4.8332156299212601
11
6.0796365748031498
21
-4.8253595275590548
0
LINE
8
BLACK
6
CONTINUOUS
10
6.0796365748031498
20
-4.8253595275590548
11
6.0695136614173224
21
-4.8163131102362202
0
LINE
8
BLACK
6
CONTINUOUS
10
6.0695136614173224
20
-4.8163131102362202
11
6.0604672440944878
21
-4.8061901968503937
0
LINE
8
BLACK
6
CONTINUOUS
10
6.0604672440944878
20
-4.8061901968503937
11
6.0526111417322834
21
-4.7951180708661418
0
LINE
8
BLACK
6
CONTINUOUS
10
6.0526111417322834
20
-4.7951180708661418
11
6.0460441338582678
21
-4.7832359055118108
0
LINE
8
BLACK
6
CONTINUOUS
10
6.0460441338582678
20
-4.7832359055118108
11
6.0408487795275585
21
-4.7706932283464569
0
LINE
8
BLACK
6
CONTINUOUS
10
6.0408487795275585
20
-4.7706932283464569
11
6.0370904330708663
21
-4.7576477165354332
0
LINE
8
BLACK
6
CONTINUOUS
10
6.0370904330708663
20
-4.7576477165354332
11
6.0348163385826767
21
-4.7442634251968503
0
LINE
8
BLACK
6
CONTINUOUS
10
6.0348163385826767
20
-4.7442634251968503
11
6.0340551181102358
21
-4.7307086614173226
0
LINE
8
BLACK
6
CONTINUOUS
10
6.0340551181102358
20
-4.7307086614173226
11
6.0348163385826767
21
-4.7171538976377949
0
LINE
8
BLACK
6
CONTINUOUS
10
6.0348163385826767
20
-4.7171538976377949
11
6.0370904330708663
21
-4.7037696062992129
0
LINE
8
BLACK
6
CONTINUOUS
10
6.0370904330708663
20
-4.7037696062992129
11
6.0408487795275585
21
-4.6907240944881892
0
LINE
8
BLACK
6
CONTINUOUS
10
6.0408487795275585
20
-4.6907240944881892
11
6.0460441338582678
21
-4.6781814173228344
0
LINE
8
BLACK
6
CONTINUOUS
10
6.0460441338582678
20
-4.6781814173228344
11
6.0526111417322834
21
-4.6662992519685043
0
LINE
8
BLACK
6
CONTINUOUS
10
6.0526111417322834
20
-4.6662992519685043
11
6.0604672440944878
21
-4.6552271259842515
0
LINE
8
BLACK
6
CONTINUOUS
10
6.0604672440944878
20
-4.6552271259842515
11
6.0695136614173224
21
-4.645104212598425
0
LINE
8
BLACK
6
CONTINUOUS
10
6.0695136614173224
20
-4.645104212598425
11
6.0796365748031498
21
-4.6360577952755904
0
LINE
8
BLACK
6
CONTINUOUS
10
6.0796365748031498
20
-4.6360577952755904
11
6.0907087007874017
21
-4.628201692913386
0
LINE
8
BLACK
6
CONTINUOUS
10
6.0907087007874017
20
-4.628201692913386
11
6.1025908661417319
21
-4.6216346850393704
0
LINE
8
BLACK
6
CONTINUOUS
10
6.1025908661417319
20
-4.6216346850393704
11
6.1151335433070866
21
-4.6164393307086611
0
LINE
8
BLACK
6
CONTINUOUS
10
6.1151335433070866
20
-4.6164393307086611
11
6.1281790551181103
21
-4.612680984251968
0
LINE
8
BLACK
6
CONTINUOUS
10
6.1281790551181103
20
-4.612680984251968
11
6.1415633464566932
21
-4.6104068897637793
0
LINE
8
BLACK
6
CONTINUOUS
10
6.1415633464566932
20
-4.6104068897637793
11
6.15511811023622
21
-4.6096456692913383
0
LINE
8
BLACK
6
CONTINUOUS
10
6.15511811023622
20
-4.6096456692913383
11
6.1686728740157477
21
-4.6104068897637793
0
LINE
8
BLACK
6
CONTINUOUS
10
6.0365860236220472
20
-4.7440640157480312
11
6.0388266535433068
21
-4.7572514173228342
0
LINE
8
BLACK
6
CONTINUOUS
10
6.0388266535433068
20
-4.7572514173228342
11
6.0425296850393702
21
-4.7701050393700788
0
LINE
8
BLACK
6
CONTINUOUS
10
6.0425296850393702
20
-4.7701050393700788
11
6.0476486220472436
21
-4.7824632283464563
0
LINE
8
BLACK
6
CONTINUOUS
10
6.0476486220472436
20
-4.7824632283464563
11
6.0541190551181101
21
-4.7941705905511807
0
LINE
8
BLACK
6
CONTINUOUS
10
6.0541190551181101
20
-4.7941705905511807
11
6.0618596062992127
21
-4.8050798425196852
0
LINE
8
BLACK
6
CONTINUOUS
10
6.0618596062992127
20
-4.8050798425196852
11
6.0707729133858264
21
-4.8150538582677163
0
LINE
8
BLACK
6
CONTINUOUS
10
6.0707729133858264
20
-4.8150538582677163
11
6.0807469291338583
21
-4.8239671653543308
0
LINE
8
BLACK
6
CONTINUOUS
10
6.0807469291338583
20
-4.8239671653543308
11
6.091656181102362
21
-4.8317077165354325
0
LINE
8
BLACK
6
CONTINUOUS
10
6.091656181102362
20
-4.8317077165354325
11
6.1033635433070863
21
-4.838178149606299
0
LINE
8
BLACK
6
CONTINUOUS
10
6.1033635433070863
20
-4.838178149606299
11
6.1157217322834647
21
-4.8432970866141734
0
LINE
8
BLACK
6
CONTINUOUS
10
6.1157217322834647
20
-4.8432970866141734
11
6.1285753543307084
21
-4.8470001181102358
0
LINE
8
BLACK
6
CONTINUOUS
10
6.1285753543307084
20
-4.8470001181102358
11
6.1417627559055115
21
-4.8492407480314963
0
LINE
8
BLACK
6
CONTINUOUS
10
6.1417627559055115
20
-4.8492407480314963
11
6.15511811023622
21
-4.8499907874015751
0
LINE
8
BLACK
6
CONTINUOUS
10
6.15511811023622
20
-4.8499907874015751
11
6.1684734645669286
21
-4.8492407480314963
0
LINE
8
BLACK
6
CONTINUOUS
10
6.1684734645669286
20
-4.8492407480314963
11
6.1816608661417325
21
-4.8470001181102358
0
LINE
8
BLACK
6
CONTINUOUS
10
6.1816608661417325
20
-4.8470001181102358
11
6.1945144881889762
21
-4.8432970866141734
0
LINE
8
BLACK
6
CONTINUOUS
10
6.1945144881889762
20
-4.8432970866141734
11
6.2068726771653546
21
-4.838178149606299
0
LINE
8
BLACK
6
CONTINUOUS
10
6.2068726771653546
20
-4.838178149606299
11
6.218580039370079
21
-4.8317077165354325
0
LINE
8
BLACK
6
CONTINUOUS
10
6.218580039370079
20
-4.8317077165354325
11
6.2294892913385826
21
-4.8239671653543308
0
LINE
8
BLACK
6
CONTINUOUS
10
6.2294892913385826
20
-4.8239671653543308
11
6.2394633070866137
21
-4.8150538582677163
0
LINE
8
BLACK
6
CONTINUOUS
10
6.2394633070866137
20
-4.8150538582677163
11
6.2483766141732282
21
-4.8050798425196852
0
LINE
8
BLACK
6
CONTINUOUS
10
6.2483766141732282
20
-4.8050798425196852
11
6.2561171653543308
21
-4.7941705905511807
0
LINE
8
BLACK
6
CONTINUOUS
10
6.2561171653543308
20
-4.7941705905511807
11
6.2625875984251964
21
-4.7824632283464563
0
LINE
8
BLACK
6
CONTINUOUS
10
6.2625875984251964
20
-4.7824632283464563
11
6.2677065354330708
21
-4.7701050393700788
0
LINE
8
BLACK
6
CONTINUOUS
10
6.2677065354330708
20
-4.7701050393700788
11
6.2714095669291341
21
-4.7572514173228342
0
LINE
8
BLACK
6
CONTINUOUS
10
6.2714095669291341
20
-4.7572514173228342
11
6.2736501968503937
21
-4.7440640157480312
0
LINE
8
BLACK
6
CONTINUOUS
10
6.2736501968503937
20
-4.7440640157480312
11
6.2744002362204725
21
-4.7307086614173226
0
LINE
8
BLACK
6
CONTINUOUS
10
6.2744002362204725
20
-4.7307086614173226
11
6.2736501968503937
21
-4.717353307086614
0
LINE
8
BLACK
6
CONTINUOUS
10
6.2736501968503937
20
-4.717353307086614
11
6.2714095669291341
21
-4.704165905511811
0
LINE
8
BLACK
6
CONTINUOUS
10
6.2714095669291341
20
-4.704165905511811
11
6.2677065354330708
21
-4.6913122834645664
0
LINE
8
BLACK
6
CONTINUOUS
10
6.2677065354330708
20
-4.6913122834645664
11
6.2625875984251964
21
-4.6789540944881889
0
LINE
8
BLACK
6
CONTINUOUS
10
6.2625875984251964
20
-4.6789540944881889
11
6.2561171653543308
21
-4.6672467322834645
0
LINE
8
BLACK
6
CONTINUOUS
10
6.2561171653543308
20
-4.6672467322834645
11
6.2483766141732282
21
-4.6563374803149609
0
LINE
8
BLACK
6
CONTINUOUS
10
6.2483766141732282
20
-4.6563374803149609
11
6.2394633070866137
21
-4.6463634645669289
0
LINE
8
BLACK
6
CONTINUOUS
10
6.2394633070866137
20
-4.6463634645669289
11
6.2294892913385826
21
-4.6374501574803144
0
LINE
8
BLACK
6
CONTINUOUS
10
6.2294892913385826
20
-4.6374501574803144
11
6.218580039370079
21
-4.6297096062992127
0
LINE
8
BLACK
6
CONTINUOUS
10
6.218580039370079
20
-4.6297096062992127
11
6.2068726771653546
21
-4.6232391732283462
0
LINE
8
BLACK
6
CONTINUOUS
10
6.2068726771653546
20
-4.6232391732283462
11
6.1945144881889762
21
-4.6181202362204727
0
LINE
8
BLACK
6
CONTINUOUS
10
6.1945144881889762
20
-4.6181202362204727
11
6.1816608661417325
21
-4.6144172047244094
0
LINE
8
BLACK
6
CONTINUOUS
10
6.1816608661417325
20
-4.6144172047244094
11
6.1684734645669286
21
-4.6121765748031498
0
LINE
8
BLACK
6
CONTINUOUS
10
6.1684734645669286
20
-4.6121765748031498
11
6.15511811023622
21
-4.611426535433071
0
LINE
8
BLACK
6
CONTINUOUS
10
6.15511811023622
20
-4.611426535433071
11
6.1417627559055115
21
-4.6121765748031498
0
LINE
8
BLACK
6
CONTINUOUS
10
6.1417627559055115
20
-4.6121765748031498
11
6.1285753543307084
21
-4.6144172047244094
0
LINE
8
BLACK
6
CONTINUOUS
10
6.1285753543307084
20
-4.6144172047244094
11
6.1157217322834647
21
-4.6181202362204727
0
LINE
8
BLACK
6
CONTINUOUS
10
6.1157217322834647
20
-4.6181202362204727
11
6.1033635433070863
21
-4.6232391732283462
0
LINE
8
BLACK
6
CONTINUOUS
10
6.1033635433070863
20
-4.6232391732283462
11
6.091656181102362
21
-4.6297096062992127
0
LINE
8
BLACK
6
CONTINUOUS
10
6.091656181102362
20
-4.6297096062992127
11
6.0807469291338583
21
-4.6374501574803144
0
LINE
8
BLACK
6
CONTINUOUS
10
6.0807469291338583
20
-4.6374501574803144
11
6.0707729133858264
21
-4.6463634645669289
0
LINE
8
BLACK
6
CONTINUOUS
10
6.0707729133858264
20
-4.6463634645669289
11
6.0618596062992127
21
-4.6563374803149609
0
LINE
8
BLACK
6
CONTINUOUS
10
6.0618596062992127
20
-4.6563374803149609
11
6.0541190551181101
21
-4.6672467322834645
0
LINE
8
BLACK
6
CONTINUOUS
10
6.0541190551181101
20
-4.6672467322834645
11
6.0476486220472436
21
-4.6789540944881889
0
LINE
8
BLACK
6
CONTINUOUS
10
6.0476486220472436
20
-4.6789540944881889
11
6.0425296850393702
21
-4.6913122834645664
0
LINE
8
BLACK
6
CONTINUOUS
10
6.0425296850393702
20
-4.6913122834645664
11
6.0388266535433068
21
-4.704165905511811
0
LINE
8
BLACK
6
CONTINUOUS
10
6.0388266535433068
20
-4.704165905511811
11
6.0365860236220472
21
-4.717353307086614
0
LINE
8
BLACK
6
CONTINUOUS
10
6.0365860236220472
20
-4.717353307086614
11
6.0358359842519684
21
-4.7307086614173226
0
LINE
8
BLACK
6
CONTINUOUS
10
6.0358359842519684
20
-4.7307086614173226
11
6.0365860236220472
21
-4.7440640157480312
0
LINE
8
BLACK
6
CONTINUOUS
10
5.5590380708661415
20
-4.5065709842519688
11
5.5595707480314962
21
-4.5071036614173225
0
LINE
8
BLACK
6
CONTINUOUS
10
5.5595707480314962
20
-4.5071036614173225
11
5.5596456692913385
21
-4.5074803149606302
0
LINE
8
BLACK
6
CONTINUOUS
10
5.5596456692913385
20
-4.5074803149606302
11
5.5596456692913385
21
-4.6240157480314963
0
LINE
8
BLACK
6
CONTINUOUS
10
5.5596456692913385
20
-4.6240157480314963
11
5.5595707480314962
21
-4.624392401574803
0
LINE
8
BLACK
6
CONTINUOUS
10
5.5595707480314962
20
-4.624392401574803
11
5.5590380708661415
21
-4.6249250787401577
0
LINE
8
BLACK
6
CONTINUOUS
10
5.5590380708661415
20
-4.6249250787401577
11
5.5586614173228348
21
-4.625
0
LINE
8
BLACK
6
CONTINUOUS
10
5.5586614173228348
20
-4.625
11
5.5011811023622048
21
-4.625
0
LINE
8
BLACK
6
CONTINUOUS
10
5.5011811023622048
20
-4.625
11
5.5008044488188972
21
-4.6249250787401577
0
LINE
8
BLACK
6
CONTINUOUS
10
5.5008044488188972
20
-4.6249250787401577
11
5.5002717716535434
21
-4.624392401574803
0
LINE
8
BLACK
6
CONTINUOUS
10
5.5002717716535434
20
-4.624392401574803
11
5.5001968503937011
21
-4.6240157480314963
0
LINE
8
BLACK
6
CONTINUOUS
10
5.5001968503937011
20
-4.6240157480314963
11
5.5001968503937011
21
-4.5074803149606302
0
LINE
8
BLACK
6
CONTINUOUS
10
5.5001968503937011
20
-4.5074803149606302
11
5.5002717716535434
21
-4.5071036614173225
0
LINE
8
BLACK
6
CONTINUOUS
10
5.5002717716535434
20
-4.5071036614173225
11
5.5008044488188972
21
-4.5065709842519688
0
LINE
8
BLACK
6
CONTINUOUS
10
5.5008044488188972
20
-4.5065709842519688
11
5.5011811023622048
21
-4.5064960629921256
0
LINE
8
BLACK
6
CONTINUOUS
10
5.5011811023622048
20
-4.5064960629921256
11
5.5586614173228348
21
-4.5064960629921256
0
LINE
8
BLACK
6
CONTINUOUS
10
5.5586614173228348
20
-4.5064960629921256
11
5.5590380708661415
21
-4.5065709842519688
0
LINE
8
BLACK
6
CONTINUOUS
10
5.5021653543307085
20
-4.5084645669291339
11
5.5021653543307085
21
-4.6230314960629917
0
LINE
8
BLACK
6
CONTINUOUS
10
5.5021653543307085
20
-4.6230314960629917
11
5.5576771653543302
21
-4.6230314960629917
0
LINE
8
BLACK
6
CONTINUOUS
10
5.5576771653543302
20
-4.6230314960629917
11
5.5576771653543302
21
-4.5084645669291339
0
LINE
8
BLACK
6
CONTINUOUS
10
5.5576771653543302
20
-4.5084645669291339
11
5.5021653543307085
21
-4.5084645669291339
0
LINE
8
BLACK
6
CONTINUOUS
10
5.9747861023622049
20
-4.5065709842519688
11
5.9753187795275586
21
-4.5071036614173225
0
LINE
8
BLACK
6
CONTINUOUS
10
5.9753187795275586
20
-4.5071036614173225
11
5.9753937007874018
21
-4.5074803149606302
0
LINE
8
BLACK
6
CONTINUOUS
10
5.9753937007874018
20
-4.5074803149606302
11
5.9753937007874018
21
-4.6240157480314963
0
LINE
8
BLACK
6
CONTINUOUS
10
5.9753937007874018
20
-4.6240157480314963
11
5.9753187795275586
21
-4.624392401574803
0
LINE
8
BLACK
6
CONTINUOUS
10
5.9753187795275586
20
-4.624392401574803
11
5.9747861023622049
21
-4.6249250787401577
0
LINE
8
BLACK
6
CONTINUOUS
10
5.9747861023622049
20
-4.6249250787401577
11
5.9744094488188972
21
-4.625
0
LINE
8
BLACK
6
CONTINUOUS
10
5.9744094488188972
20
-4.625
11
5.9169291338582672
21
-4.625
0
LINE
8
BLACK
6
CONTINUOUS
10
5.9169291338582672
20
-4.625
11
5.9165524803149605
21
-4.6249250787401577
0
LINE
8
BLACK
6
CONTINUOUS
10
5.9165524803149605
20
-4.6249250787401577
11
5.9160198031496058
21
-4.624392401574803
0
LINE
8
BLACK
6
CONTINUOUS
10
5.9160198031496058
20
-4.624392401574803
11
5.9159448818897635
21
-4.6240157480314963
0
LINE
8
BLACK
6
CONTINUOUS
10
5.9159448818897635
20
-4.6240157480314963
11
5.9159448818897635
21
-4.5074803149606302
0
LINE
8
BLACK
6
CONTINUOUS
10
5.9159448818897635
20
-4.5074803149606302
11
5.9160198031496058
21
-4.5071036614173225
0
LINE
8
BLACK
6
CONTINUOUS
10
5.9160198031496058
20
-4.5071036614173225
11
5.9165524803149605
21
-4.5065709842519688
0
LINE
8
BLACK
6
CONTINUOUS
10
5.9165524803149605
20
-4.5065709842519688
11
5.9169291338582672
21
-4.5064960629921256
0
LINE
8
BLACK
6
CONTINUOUS
10
5.9169291338582672
20
-4.5064960629921256
11
5.9744094488188972
21
-4.5064960629921256
0
LINE
8
BLACK
6
CONTINUOUS
10
5.9744094488188972
20
-4.5064960629921256
11
5.9747861023622049
21
-4.5065709842519688
0
LINE
8
BLACK
6
CONTINUOUS
10
5.9179133858267718
20
-4.5084645669291339
11
5.9179133858267718
21
-4.6230314960629917
0
LINE
8
BLACK
6
CONTINUOUS
10
5.9179133858267718
20
-4.6230314960629917
11
5.9734251968503935
21
-4.6230314960629917
0
LINE
8
BLACK
6
CONTINUOUS
10
5.9734251968503935
20
-4.6230314960629917
11
5.9734251968503935
21
-4.5084645669291339
0
LINE
8
BLACK
6
CONTINUOUS
10
5.9734251968503935
20
-4.5084645669291339
11
5.9179133858267718
21
-4.5084645669291339
0
LINE
8
BLACK
6
CONTINUOUS
10
4.5686728740157481
20
-3.8104068897637795
11
4.5820571653543309
21
-3.8126809842519682
0
LINE
8
BLACK
6
CONTINUOUS
10
4.5820571653543309
20
-3.8126809842519682
11
4.5951026771653538
21
-3.8164393307086613
0
LINE
8
BLACK
6
CONTINUOUS
10
4.5951026771653538
20
-3.8164393307086613
11
4.6076453543307085
21
-3.8216346850393701
0
LINE
8
BLACK
6
CONTINUOUS
10
4.6076453543307085
20
-3.8216346850393701
11
4.6195275196850396
21
-3.8282016929133857
0
LINE
8
BLACK
6
CONTINUOUS
10
4.6195275196850396
20
-3.8282016929133857
11
4.6305996456692915
21
-3.8360577952755905
0
LINE
8
BLACK
6
CONTINUOUS
10
4.6305996456692915
20
-3.8360577952755905
11
4.640722559055118
21
-3.8451042125984252
0
LINE
8
BLACK
6
CONTINUOUS
10
4.640722559055118
20
-3.8451042125984252
11
4.6497689763779526
21
-3.8552271259842521
0
LINE
8
BLACK
6
CONTINUOUS
10
4.6497689763779526
20
-3.8552271259842521
11
4.657625078740157
21
-3.866299251968504
0
LINE
8
BLACK
6
CONTINUOUS
10
4.657625078740157
20
-3.866299251968504
11
4.6641920866141735
21
-3.8781814173228346
0
LINE
8
BLACK
6
CONTINUOUS
10
4.6641920866141735
20
-3.8781814173228346
11
4.6693874409448819
21
-3.8907240944881889
0
LINE
8
BLACK
6
CONTINUOUS
10
4.6693874409448819
20
-3.8907240944881889
11
4.6731457874015749
21
-3.9037696062992127
0
LINE
8
BLACK
6
CONTINUOUS
10
4.6731457874015749
20
-3.9037696062992127
11
4.6754198818897637
21
-3.9171538976377951
0
LINE
8
BLACK
6
CONTINUOUS
10
4.6754198818897637
20
-3.9171538976377951
11
4.6761811023622046
21
-3.9307086614173228
0
LINE
8
BLACK
6
CONTINUOUS
10
4.6761811023622046
20
-3.9307086614173228
11
4.6754198818897637
21
-3.9442634251968505
0
LINE
8
BLACK
6
CONTINUOUS
10
4.6754198818897637
20
-3.9442634251968505
11
4.6731457874015749
21
-3.9576477165354329
0
LINE
8
BLACK
6
CONTINUOUS
10
4.6731457874015749
20
-3.9576477165354329
11
4.6693874409448819
21
-3.9706932283464567
0
LINE
8
BLACK
6
CONTINUOUS
10
4.6693874409448819
20
-3.9706932283464567
11
4.6641920866141735
21
-3.9832359055118109
0
LINE
8
BLACK
6
CONTINUOUS
10
4.6641920866141735
20
-3.9832359055118109
11
4.657625078740157
21
-3.9951180708661416
0
LINE
8
BLACK
6
CONTINUOUS
10
4.657625078740157
20
-3.9951180708661416
11
4.6497689763779526
21
-4.0061901968503939
0
LINE
8
BLACK
6
CONTINUOUS
10
4.6497689763779526
20
-4.0061901968503939
11
4.640722559055118
21
-4.0163131102362204
0
LINE
8
BLACK
6
CONTINUOUS
10
4.640722559055118
20
-4.0163131102362204
11
4.6305996456692915
21
-4.025359527559055
0
LINE
8
BLACK
6
CONTINUOUS
10
4.6305996456692915
20
-4.025359527559055
11
4.6195275196850396
21
-4.0332156299212594
0
LINE
8
BLACK
6
CONTINUOUS
10
4.6195275196850396
20
-4.0332156299212594
11
4.6076453543307085
21
-4.0397826377952759
0
LINE
8
BLACK
6
CONTINUOUS
10
4.6076453543307085
20
-4.0397826377952759
11
4.5951026771653538
21
-4.0449779921259843
0
LINE
8
BLACK
6
CONTINUOUS
10
4.5951026771653538
20
-4.0449779921259843
11
4.5820571653543309
21
-4.0487363385826773
0
LINE
8
BLACK
6
CONTINUOUS
10
4.5820571653543309
20
-4.0487363385826773
11
4.5686728740157481
21
-4.0510104330708661
0
LINE
8
BLACK
6
CONTINUOUS
10
4.5686728740157481
20
-4.0510104330708661
11
4.5551181102362204
21
-4.051771653543307
0
LINE
8
BLACK
6
CONTINUOUS
10
4.5551181102362204
20
-4.051771653543307
11
4.5415633464566927
21
-4.0510104330708661
0
LINE
8
BLACK
6
CONTINUOUS
10
4.5415633464566927
20
-4.0510104330708661
11
4.5281790551181098
21
-4.0487363385826773
0
LINE
8
BLACK
6
CONTINUOUS
10
4.5281790551181098
20
-4.0487363385826773
11
4.5151335433070869
21
-4.0449779921259843
0
LINE
8
BLACK
6
CONTINUOUS
10
4.5151335433070869
20
-4.0449779921259843
11
4.5025908661417322
21
-4.0397826377952759
0
LINE
8
BLACK
6
CONTINUOUS
10
4.5025908661417322
20
-4.0397826377952759
11
4.4907087007874011
21
-4.0332156299212594
0
LINE
8
BLACK
6
CONTINUOUS
10
4.4907087007874011
20
-4.0332156299212594
11
4.4796365748031493
21
-4.025359527559055
0
LINE
8
BLACK
6
CONTINUOUS
10
4.4796365748031493
20
-4.025359527559055
11
4.4695136614173228
21
-4.0163131102362204
0
LINE
8
BLACK
6
CONTINUOUS
10
4.4695136614173228
20
-4.0163131102362204
11
4.4604672440944881
21
-4.0061901968503939
0
LINE
8
BLACK
6
CONTINUOUS
10
4.4604672440944881
20
-4.0061901968503939
11
4.4526111417322838
21
-3.9951180708661416
0
LINE
8
BLACK
6
CONTINUOUS
10
4.4526111417322838
20
-3.9951180708661416
11
4.4460441338582672
21
-3.9832359055118109
0
LINE
8
BLACK
6
CONTINUOUS
10
4.4460441338582672
20
-3.9832359055118109
11
4.4408487795275589
21
-3.9706932283464567
0
LINE
8
BLACK
6
CONTINUOUS
10
4.4408487795275589
20
-3.9706932283464567
11
4.4370904330708658
21
-3.9576477165354329
0
LINE
8
BLACK
6
CONTINUOUS
10
4.4370904330708658
20
-3.9576477165354329
11
4.4348163385826771
21
-3.9442634251968505
0
LINE
8
BLACK
6
CONTINUOUS
10
4.4348163385826771
20
-3.9442634251968505
11
4.4340551181102361
21
-3.9307086614173228
0
LINE
8
BLACK
6
CONTINUOUS
10
4.4340551181102361
20
-3.9307086614173228
11
4.4348163385826771
21
-3.9171538976377951
0
LINE
8
BLACK
6
CONTINUOUS
10
4.4348163385826771
20
-3.9171538976377951
11
4.4370904330708658
21
-3.9037696062992127
0
LINE
8
BLACK
6
CONTINUOUS
10
4.4370904330708658
20
-3.9037696062992127
11
4.4408487795275589
21
-3.8907240944881889
0
LINE
8
BLACK
6
CONTINUOUS
10
4.4408487795275589
20
-3.8907240944881889
11
4.4460441338582672
21
-3.8781814173228346
0
LINE
8
BLACK
6
CONTINUOUS
10
4.4460441338582672
20
-3.8781814173228346
11
4.4526111417322838
21
-3.866299251968504
0
LINE
8
BLACK
6
CONTINUOUS
10
4.4526111417322838
20
-3.866299251968504
11
4.4604672440944881
21
-3.8552271259842521
0
LINE
8
BLACK
6
CONTINUOUS
10
4.4604672440944881
20
-3.8552271259842521
11
4.4695136614173228
21
-3.8451042125984252
0
LINE
8
BLACK
6
CONTINUOUS
10
4.4695136614173228
20
-3.8451042125984252
11
4.4796365748031493
21
-3.8360577952755905
0
LINE
8
BLACK
6
CONTINUOUS
10
4.4796365748031493
20
-3.8360577952755905
11
4.4907087007874011
21
-3.8282016929133857
0
LINE
8
BLACK
6
CONTINUOUS
10
4.4907087007874011
20
-3.8282016929133857
11
4.5025908661417322
21
-3.8216346850393701
0
LINE
8
BLACK
6
CONTINUOUS
10
4.5025908661417322
20
-3.8216346850393701
11
4.5151335433070869
21
-3.8164393307086613
0
LINE
8
BLACK
6
CONTINUOUS
10
4.5151335433070869
20
-3.8164393307086613
11
4.5281790551181098
21
-3.8126809842519682
0
LINE
8
BLACK
6
CONTINUOUS
10
4.5281790551181098
20
-3.8126809842519682
11
4.5415633464566927
21
-3.8104068897637795
0
LINE
8
BLACK
6
CONTINUOUS
10
4.5415633464566927
20
-3.8104068897637795
11
4.5551181102362204
21
-3.8096456692913385
0
LINE
8
BLACK
6
CONTINUOUS
10
4.5551181102362204
20
-3.8096456692913385
11
4.5686728740157481
21
-3.8104068897637795
0
LINE
8
BLACK
6
CONTINUOUS
10
4.4365860236220476
20
-3.9440640157480313
11
4.4388266535433072
21
-3.9572514173228344
0
LINE
8
BLACK
6
CONTINUOUS
10
4.4388266535433072
20
-3.9572514173228344
11
4.4425296850393696
21
-3.9701050393700785
0
LINE
8
BLACK
6
CONTINUOUS
10
4.4425296850393696
20
-3.9701050393700785
11
4.447648622047244
21
-3.9824632283464565
0
LINE
8
BLACK
6
CONTINUOUS
10
4.447648622047244
20
-3.9824632283464565
11
4.4541190551181105
21
-3.9941705905511808
0
LINE
8
BLACK
6
CONTINUOUS
10
4.4541190551181105
20
-3.9941705905511808
11
4.4618596062992122
21
-4.0050798425196845
0
LINE
8
BLACK
6
CONTINUOUS
10
4.4618596062992122
20
-4.0050798425196845
11
4.4707729133858267
21
-4.0150538582677164
0
LINE
8
BLACK
6
CONTINUOUS
10
4.4707729133858267
20
-4.0150538582677164
11
4.4807469291338577
21
-4.023967165354331
0
LINE
8
BLACK
6
CONTINUOUS
10
4.4807469291338577
20
-4.023967165354331
11
4.4916561811023623
21
-4.0317077165354327
0
LINE
8
BLACK
6
CONTINUOUS
10
4.4916561811023623
20
-4.0317077165354327
11
4.5033635433070867
21
-4.0381781496062992
0
LINE
8
BLACK
6
CONTINUOUS
10
4.5033635433070867
20
-4.0381781496062992
11
4.5157217322834642
21
-4.0432970866141735
0
LINE
8
BLACK
6
CONTINUOUS
10
4.5157217322834642
20
-4.0432970866141735
11
4.5285753543307088
21
-4.047000118110236
0
LINE
8
BLACK
6
CONTINUOUS
10
4.5285753543307088
20
-4.047000118110236
11
4.5417627559055118
21
-4.0492407480314956
0
LINE
8
BLACK
6
CONTINUOUS
10
4.5417627559055118
20
-4.0492407480314956
11
4.5551181102362204
21
-4.0499907874015744
0
LINE
8
BLACK
6
CONTINUOUS
10
4.5551181102362204
20
-4.0499907874015744
11
4.5684734645669289
21
-4.0492407480314956
0
LINE
8
BLACK
6
CONTINUOUS
10
4.5684734645669289
20
-4.0492407480314956
11
4.581660866141732
21
-4.047000118110236
0
LINE
8
BLACK
6
CONTINUOUS
10
4.581660866141732
20
-4.047000118110236
11
4.5945144881889766
21
-4.0432970866141735
0
LINE
8
BLACK
6
CONTINUOUS
10
4.5945144881889766
20
-4.0432970866141735
11
4.6068726771653541
21
-4.0381781496062992
0
LINE
8
BLACK
6
CONTINUOUS
10
4.6068726771653541
20
-4.0381781496062992
11
4.6185800393700784
21
-4.0317077165354327
0
LINE
8
BLACK
6
CONTINUOUS
10
4.6185800393700784
20
-4.0317077165354327
11
4.629489291338583
21
-4.023967165354331
0
LINE
8
BLACK
6
CONTINUOUS
10
4.629489291338583
20
-4.023967165354331
11
4.639463307086614
21
-4.0150538582677164
0
LINE
8
BLACK
6
CONTINUOUS
10
4.639463307086614
20
-4.0150538582677164
11
4.6483766141732286
21
-4.0050798425196845
0
LINE
8
BLACK
6
CONTINUOUS
10
4.6483766141732286
20
-4.0050798425196845
11
4.6561171653543303
21
-3.9941705905511808
0
LINE
8
BLACK
6
CONTINUOUS
10
4.6561171653543303
20
-3.9941705905511808
11
4.6625875984251968
21
-3.9824632283464565
0
LINE
8
BLACK
6
CONTINUOUS
10
4.6625875984251968
20
-3.9824632283464565
11
4.6677065354330711
21
-3.9701050393700785
0
LINE
8
BLACK
6
CONTINUOUS
10
4.6677065354330711
20
-3.9701050393700785
11
4.6714095669291336
21
-3.9572514173228344
0
LINE
8
BLACK
6
CONTINUOUS
10
4.6714095669291336
20
-3.9572514173228344
11
4.6736501968503932
21
-3.9440640157480313
0
LINE
8
BLACK
6
CONTINUOUS
10
4.6736501968503932
20
-3.9440640157480313
11
4.674400236220472
21
-3.9307086614173228
0
LINE
8
BLACK
6
CONTINUOUS
10
4.674400236220472
20
-3.9307086614173228
11
4.6736501968503932
21
-3.9173533070866142
0
LINE
8
BLACK
6
CONTINUOUS
10
4.6736501968503932
20
-3.9173533070866142
11
4.6714095669291336
21
-3.9041659055118108
0
LINE
8
BLACK
6
CONTINUOUS
10
4.6714095669291336
20
-3.9041659055118108
11
4.6677065354330711
21
-3.891312283464567
0
LINE
8
BLACK
6
CONTINUOUS
10
4.6677065354330711
20
-3.891312283464567
11
4.6625875984251968
21
-3.8789540944881891
0
LINE
8
BLACK
6
CONTINUOUS
10
4.6625875984251968
20
-3.8789540944881891
11
4.6561171653543303
21
-3.8672467322834643
0
LINE
8
BLACK
6
CONTINUOUS
10
4.6561171653543303
20
-3.8672467322834643
11
4.6483766141732286
21
-3.8563374803149606
0
LINE
8
BLACK
6
CONTINUOUS
10
4.6483766141732286
20
-3.8563374803149606
11
4.639463307086614
21
-3.8463634645669291
0
LINE
8
BLACK
6
CONTINUOUS
10
4.639463307086614
20
-3.8463634645669291
11
4.629489291338583
21
-3.837450157480315
0
LINE
8
BLACK
6
CONTINUOUS
10
4.629489291338583
20
-3.837450157480315
11
4.6185800393700784
21
-3.8297096062992124
0
LINE
8
BLACK
6
CONTINUOUS
10
4.6185800393700784
20
-3.8297096062992124
11
4.6068726771653541
21
-3.8232391732283464
0
LINE
8
BLACK
6
CONTINUOUS
10
4.6068726771653541
20
-3.8232391732283464
11
4.5945144881889766
21
-3.8181202362204725
0
LINE
8
BLACK
6
CONTINUOUS
10
4.5945144881889766
20
-3.8181202362204725
11
4.581660866141732
21
-3.8144172047244091
0
LINE
8
BLACK
6
CONTINUOUS
10
4.581660866141732
20
-3.8144172047244091
11
4.5684734645669289
21
-3.8121765748031495
0
LINE
8
BLACK
6
CONTINUOUS
10
4.5684734645669289
20
-3.8121765748031495
11
4.5551181102362204
21
-3.8114265354330708
0
LINE
8
BLACK
6
CONTINUOUS
10
4.5551181102362204
20
-3.8114265354330708
11
4.5417627559055118
21
-3.8121765748031495
0
LINE
8
BLACK
6
CONTINUOUS
10
4.5417627559055118
20
-3.8121765748031495
11
4.5285753543307088
21
-3.8144172047244091
0
LINE
8
BLACK
6
CONTINUOUS
10
4.5285753543307088
20
-3.8144172047244091
11
4.5157217322834642
21
-3.8181202362204725
0
LINE
8
BLACK
6
CONTINUOUS
10
4.5157217322834642
20
-3.8181202362204725
11
4.5033635433070867
21
-3.8232391732283464
0
LINE
8
BLACK
6
CONTINUOUS
10
4.5033635433070867
20
-3.8232391732283464
11
4.4916561811023623
21
-3.8297096062992124
0
LINE
8
BLACK
6
CONTINUOUS
10
4.4916561811023623
20
-3.8297096062992124
11
4.4807469291338577
21
-3.837450157480315
0
LINE
8
BLACK
6
CONTINUOUS
10
4.4807469291338577
20
-3.837450157480315
11
4.4707729133858267
21
-3.8463634645669291
0
LINE
8
BLACK
6
CONTINUOUS
10
4.4707729133858267
20
-3.8463634645669291
11
4.4618596062992122
21
-3.8563374803149606
0
LINE
8
BLACK
6
CONTINUOUS
10
4.4618596062992122
20
-3.8563374803149606
11
4.4541190551181105
21
-3.8672467322834643
0
LINE
8
BLACK
6
CONTINUOUS
10
4.4541190551181105
20
-3.8672467322834643
11
4.447648622047244
21
-3.8789540944881891
0
LINE
8
BLACK
6
CONTINUOUS
10
4.447648622047244
20
-3.8789540944881891
11
4.4425296850393696
21
-3.891312283464567
0
LINE
8
BLACK
6
CONTINUOUS
10
4.4425296850393696
20
-3.891312283464567
11
4.4388266535433072
21
-3.9041659055118108
0
LINE
8
BLACK
6
CONTINUOUS
10
4.4388266535433072
20
-3.9041659055118108
11
4.4365860236220476
21
-3.9173533070866142
0
LINE
8
BLACK
6
CONTINUOUS
10
4.4365860236220476
20
-3.9173533070866142
11
4.4358359842519688
21
-3.9307086614173228
0
LINE
8
BLACK
6
CONTINUOUS
10
4.4358359842519688
20
-3.9307086614173228
11
4.4365860236220476
21
-3.9440640157480313
0
LINE
8
BLACK
6
CONTINUOUS
10
6.1686728740157477
20
-3.8104068897637795
11
6.1820571653543306
21
-3.8126809842519682
0
LINE
8
BLACK
6
CONTINUOUS
10
6.1820571653543306
20
-3.8126809842519682
11
6.1951026771653543
21
-3.8164393307086613
0
LINE
8
BLACK
6
CONTINUOUS
10
6.1951026771653543
20
-3.8164393307086613
11
6.2076453543307082
21
-3.8216346850393701
0
LINE
8
BLACK
6
CONTINUOUS
10
6.2076453543307082
20
-3.8216346850393701
11
6.2195275196850393
21
-3.8282016929133857
0
LINE
8
BLACK
6
CONTINUOUS
10
6.2195275196850393
20
-3.8282016929133857
11
6.2305996456692911
21
-3.8360577952755905
0
LINE
8
BLACK
6
CONTINUOUS
10
6.2305996456692911
20
-3.8360577952755905
11
6.2407225590551176
21
-3.8451042125984252
0
LINE
8
BLACK
6
CONTINUOUS
10
6.2407225590551176
20
-3.8451042125984252
11
6.2497689763779523
21
-3.8552271259842521
0
LINE
8
BLACK
6
CONTINUOUS
10
6.2497689763779523
20
-3.8552271259842521
11
6.2576250787401575
21
-3.866299251968504
0
LINE
8
BLACK
6
CONTINUOUS
10
6.2576250787401575
20
-3.866299251968504
11
6.2641920866141731
21
-3.8781814173228346
0
LINE
8
BLACK
6
CONTINUOUS
10
6.2641920866141731
20
-3.8781814173228346
11
6.2693874409448815
21
-3.8907240944881889
0
LINE
8
BLACK
6
CONTINUOUS
10
6.2693874409448815
20
-3.8907240944881889
11
6.2731457874015746
21
-3.9037696062992127
0
LINE
8
BLACK
6
CONTINUOUS
10
6.2731457874015746
20
-3.9037696062992127
11
6.2754198818897633
21
-3.9171538976377951
0
LINE
8
BLACK
6
CONTINUOUS
10
6.2754198818897633
20
-3.9171538976377951
11
6.2761811023622043
21
-3.9307086614173228
0
LINE
8
BLACK
6
CONTINUOUS
10
6.2761811023622043
20
-3.9307086614173228
11
6.2754198818897633
21
-3.9442634251968505
0
LINE
8
BLACK
6
CONTINUOUS
10
6.2754198818897633
20
-3.9442634251968505
11
6.2731457874015746
21
-3.9576477165354329
0
LINE
8
BLACK
6
CONTINUOUS
10
6.2731457874015746
20
-3.9576477165354329
11
6.2693874409448815
21
-3.9706932283464567
0
LINE
8
BLACK
6
CONTINUOUS
10
6.2693874409448815
20
-3.9706932283464567
11
6.2641920866141731
21
-3.9832359055118109
0
LINE
8
BLACK
6
CONTINUOUS
10
6.2641920866141731
20
-3.9832359055118109
11
6.2576250787401575
21
-3.9951180708661416
0
LINE
8
BLACK
6
CONTINUOUS
10
6.2576250787401575
20
-3.9951180708661416
11
6.2497689763779523
21
-4.0061901968503939
0
LINE
8
BLACK
6
CONTINUOUS
10
6.2497689763779523
20
-4.0061901968503939
11
6.2407225590551176
21
-4.0163131102362204
0
LINE
8
BLACK
6
CONTINUOUS
10
6.2407225590551176
20
-4.0163131102362204
11
6.2305996456692911
21
-4.025359527559055
0
LINE
8
BLACK
6
CONTINUOUS
10
6.2305996456692911
20
-4.025359527559055
11
6.2195275196850393
21
-4.0332156299212594
0
LINE
8
BLACK
6
CONTINUOUS
10
6.2195275196850393
20
-4.0332156299212594
11
6.2076453543307082
21
-4.0397826377952759
0
LINE
8
BLACK
6
CONTINUOUS
10
6.2076453543307082
20
-4.0397826377952759
11
6.1951026771653543
21
-4.0449779921259843
0
LINE
8
BLACK
6
CONTINUOUS
10
6.1951026771653543
20
-4.0449779921259843
11
6.1820571653543306
21
-4.0487363385826773
0
LINE
8
BLACK
6
CONTINUOUS
10
6.1820571653543306
20
-4.0487363385826773
11
6.1686728740157477
21
-4.0510104330708661
0
LINE
8
BLACK
6
CONTINUOUS
10
6.1686728740157477
20
-4.0510104330708661
11
6.15511811023622
21
-4.051771653543307
0
LINE
8
BLACK
6
CONTINUOUS
10
6.15511811023622
20
-4.051771653543307
11
6.1415633464566932
21
-4.0510104330708661
0
LINE
8
BLACK
6
CONTINUOUS
10
6.1415633464566932
20
-4.0510104330708661
11
6.1281790551181103
21
-4.0487363385826773
0
LINE
8
BLACK
6
CONTINUOUS
10
6.1281790551181103
20
-4.0487363385826773
11
6.1151335433070866
21
-4.0449779921259843
0
LINE
8
BLACK
6
CONTINUOUS
10
6.1151335433070866
20
-4.0449779921259843
11
6.1025908661417319
21
-4.0397826377952759
0
LINE
8
BLACK
6
CONTINUOUS
10
6.1025908661417319
20
-4.0397826377952759
11
6.0907087007874017
21
-4.0332156299212594
0
LINE
8
BLACK
6
CONTINUOUS
10
6.0907087007874017
20
-4.0332156299212594
11
6.0796365748031498
21
-4.025359527559055
0
LINE
8
BLACK
6
CONTINUOUS
10
6.0796365748031498
20
-4.025359527559055
11
6.0695136614173224
21
-4.0163131102362204
0
LINE
8
BLACK
6
CONTINUOUS
10
6.0695136614173224
20
-4.0163131102362204
11
6.0604672440944878
21
-4.0061901968503939
0
LINE
8
BLACK
6
CONTINUOUS
10
6.0604672440944878
20
-4.0061901968503939
11
6.0526111417322834
21
-3.9951180708661416
0
LINE
8
BLACK
6
CONTINUOUS
10
6.0526111417322834
20
-3.9951180708661416
11
6.0460441338582678
21
-3.9832359055118109
0
LINE
8
BLACK
6
CONTINUOUS
10
6.0460441338582678
20
-3.9832359055118109
11
6.0408487795275585
21
-3.9706932283464567
0
LINE
8
BLACK
6
CONTINUOUS
10
6.0408487795275585
20
-3.9706932283464567
11
6.0370904330708663
21
-3.9576477165354329
0
LINE
8
BLACK
6
CONTINUOUS
10
6.0370904330708663
20
-3.9576477165354329
11
6.0348163385826767
21
-3.9442634251968505
0
LINE
8
BLACK
6
CONTINUOUS
10
6.0348163385826767
20
-3.9442634251968505
11
6.0340551181102358
21
-3.9307086614173228
0
LINE
8
BLACK
6
CONTINUOUS
10
6.0340551181102358
20
-3.9307086614173228
11
6.0348163385826767
21
-3.9171538976377951
0
LINE
8
BLACK
6
CONTINUOUS
10
6.0348163385826767
20
-3.9171538976377951
11
6.0370904330708663
21
-3.9037696062992127
0
LINE
8
BLACK
6
CONTINUOUS
10
6.0370904330708663
20
-3.9037696062992127
11
6.0408487795275585
21
-3.8907240944881889
0
LINE
8
BLACK
6
CONTINUOUS
10
6.0408487795275585
20
-3.8907240944881889
11
6.0460441338582678
21
-3.8781814173228346
0
LINE
8
BLACK
6
CONTINUOUS
10
6.0460441338582678
20
-3.8781814173228346
11
6.0526111417322834
21
-3.866299251968504
0
LINE
8
BLACK
6
CONTINUOUS
10
6.0526111417322834
20
-3.866299251968504
11
6.0604672440944878
21
-3.8552271259842521
0
LINE
8
BLACK
6
CONTINUOUS
10
6.0604672440944878
20
-3.8552271259842521
11
6.0695136614173224
21
-3.8451042125984252
0
LINE
8
BLACK
6
CONTINUOUS
10
6.0695136614173224
20
-3.8451042125984252
11
6.0796365748031498
21
-3.8360577952755905
0
LINE
8
BLACK
6
CONTINUOUS
10
6.0796365748031498
20
-3.8360577952755905
11
6.0907087007874017
21
-3.8282016929133857
0
LINE
8
BLACK
6
CONTINUOUS
10
6.0907087007874017
20
-3.8282016929133857
11
6.1025908661417319
21
-3.8216346850393701
0
LINE
8
BLACK
6
CONTINUOUS
10
6.1025908661417319
20
-3.8216346850393701
11
6.1151335433070866
21
-3.8164393307086613
0
LINE
8
BLACK
6
CONTINUOUS
10
6.1151335433070866
20
-3.8164393307086613
11
6.1281790551181103
21
-3.8126809842519682
0
LINE
8
BLACK
6
CONTINUOUS
10
6.1281790551181103
20
-3.8126809842519682
11
6.1415633464566932
21
-3.8104068897637795
0
LINE
8
BLACK
6
CONTINUOUS
10
6.1415633464566932
20
-3.8104068897637795
11
6.15511811023622
21
-3.8096456692913385
0
LINE
8
BLACK
6
CONTINUOUS
10
6.15511811023622
20
-3.8096456692913385
11
6.1686728740157477
21
-3.8104068897637795
0
LINE
8
BLACK
6
CONTINUOUS
10
6.0365860236220472
20
-3.9440640157480313
11
6.0388266535433068
21
-3.9572514173228344
0
LINE
8
BLACK
6
CONTINUOUS
10
6.0388266535433068
20
-3.9572514173228344
11
6.0425296850393702
21
-3.9701050393700785
0
LINE
8
BLACK
6
CONTINUOUS
10
6.0425296850393702
20
-3.9701050393700785
11
6.0476486220472436
21
-3.9824632283464565
0
LINE
8
BLACK
6
CONTINUOUS
10
6.0476486220472436
20
-3.9824632283464565
11
6.0541190551181101
21
-3.9941705905511808
0
LINE
8
BLACK
6
CONTINUOUS
10
6.0541190551181101
20
-3.9941705905511808
11
6.0618596062992127
21
-4.0050798425196845
0
LINE
8
BLACK
6
CONTINUOUS
10
6.0618596062992127
20
-4.0050798425196845
11
6.0707729133858264
21
-4.0150538582677164
0
LINE
8
BLACK
6
CONTINUOUS
10
6.0707729133858264
20
-4.0150538582677164
11
6.0807469291338583
21
-4.023967165354331
0
LINE
8
BLACK
6
CONTINUOUS
10
6.0807469291338583
20
-4.023967165354331
11
6.091656181102362
21
-4.0317077165354327
0
LINE
8
BLACK
6
CONTINUOUS
10
6.091656181102362
20
-4.0317077165354327
11
6.1033635433070863
21
-4.0381781496062992
0
LINE
8
BLACK
6
CONTINUOUS
10
6.1033635433070863
20
-4.0381781496062992
11
6.1157217322834647
21
-4.0432970866141735
0
LINE
8
BLACK
6
CONTINUOUS
10
6.1157217322834647
20
-4.0432970866141735
11
6.1285753543307084
21
-4.047000118110236
0
LINE
8
BLACK
6
CONTINUOUS
10
6.1285753543307084
20
-4.047000118110236
11
6.1417627559055115
21
-4.0492407480314956
0
LINE
8
BLACK
6
CONTINUOUS
10
6.1417627559055115
20
-4.0492407480314956
11
6.15511811023622
21
-4.0499907874015744
0
LINE
8
BLACK
6
CONTINUOUS
10
6.15511811023622
20
-4.0499907874015744
11
6.1684734645669286
21
-4.0492407480314956
0
LINE
8
BLACK
6
CONTINUOUS
10
6.1684734645669286
20
-4.0492407480314956
11
6.1816608661417325
21
-4.047000118110236
0
LINE
8
BLACK
6
CONTINUOUS
10
6.1816608661417325
20
-4.047000118110236
11
6.1945144881889762
21
-4.0432970866141735
0
LINE
8
BLACK
6
CONTINUOUS
10
6.1945144881889762
20
-4.0432970866141735
11
6.2068726771653546
21
-4.0381781496062992
0
LINE
8
BLACK
6
CONTINUOUS
10
6.2068726771653546
20
-4.0381781496062992
11
6.218580039370079
21
-4.0317077165354327
0
LINE
8
BLACK
6
CONTINUOUS
10
6.218580039370079
20
-4.0317077165354327
11
6.2294892913385826
21
-4.023967165354331
0
LINE
8
BLACK
6
CONTINUOUS
10
6.2294892913385826
20
-4.023967165354331
11
6.2394633070866137
21
-4.0150538582677164
0
LINE
8
BLACK
6
CONTINUOUS
10
6.2394633070866137
20
-4.0150538582677164
11
6.2483766141732282
21
-4.0050798425196845
0
LINE
8
BLACK
6
CONTINUOUS
10
6.2483766141732282
20
-4.0050798425196845
11
6.2561171653543308
21
-3.9941705905511808
0
LINE
8
BLACK
6
CONTINUOUS
10
6.2561171653543308
20
-3.9941705905511808
11
6.2625875984251964
21
-3.9824632283464565
0
LINE
8
BLACK
6
CONTINUOUS
10
6.2625875984251964
20
-3.9824632283464565
11
6.2677065354330708
21
-3.9701050393700785
0
LINE
8
BLACK
6
CONTINUOUS
10
6.2677065354330708
20
-3.9701050393700785
11
6.2714095669291341
21
-3.9572514173228344
0
LINE
8
BLACK
6
CONTINUOUS
10
6.2714095669291341
20
-3.9572514173228344
11
6.2736501968503937
21
-3.9440640157480313
0
LINE
8
BLACK
6
CONTINUOUS
10
6.2736501968503937
20
-3.9440640157480313
11
6.2744002362204725
21
-3.9307086614173228
0
LINE
8
BLACK
6
CONTINUOUS
10
6.2744002362204725
20
-3.9307086614173228
11
6.2736501968503937
21
-3.9173533070866142
0
LINE
8
BLACK
6
CONTINUOUS
10
6.2736501968503937
20
-3.9173533070866142
11
6.2714095669291341
21
-3.9041659055118108
0
LINE
8
BLACK
6
CONTINUOUS
10
6.2714095669291341
20
-3.9041659055118108
11
6.2677065354330708
21
-3.891312283464567
0
LINE
8
BLACK
6
CONTINUOUS
10
6.2677065354330708
20
-3.891312283464567
11
6.2625875984251964
21
-3.8789540944881891
0
LINE
8
BLACK
6
CONTINUOUS
10
6.2625875984251964
20
-3.8789540944881891
11
6.2561171653543308
21
-3.8672467322834643
0
LINE
8
BLACK
6
CONTINUOUS
10
6.2561171653543308
20
-3.8672467322834643
11
6.2483766141732282
21
-3.8563374803149606
0
LINE
8
BLACK
6
CONTINUOUS
10
6.2483766141732282
20
-3.8563374803149606
11
6.2394633070866137
21
-3.8463634645669291
0
LINE
8
BLACK
6
CONTINUOUS
10
6.2394633070866137
20
-3.8463634645669291
11
6.2294892913385826
21
-3.837450157480315
0
LINE
8
BLACK
6
CONTINUOUS
10
6.2294892913385826
20
-3.837450157480315
11
6.218580039370079
21
-3.8297096062992124
0
LINE
8
BLACK
6
CONTINUOUS
10
6.218580039370079
20
-3.8297096062992124
11
6.2068726771653546
21
-3.8232391732283464
0
LINE
8
BLACK
6
CONTINUOUS
10
6.2068726771653546
20
-3.8232391732283464
11
6.1945144881889762
21
-3.8181202362204725
0
LINE
8
BLACK
6
CONTINUOUS
10
6.1945144881889762
20
-3.8181202362204725
11
6.1816608661417325
21
-3.8144172047244091
0
LINE
8
BLACK
6
CONTINUOUS
10
6.1816608661417325
20
-3.8144172047244091
11
6.1684734645669286
21
-3.8121765748031495
0
LINE
8
BLACK
6
CONTINUOUS
10
6.1684734645669286
20
-3.8121765748031495
11
6.15511811023622
21
-3.8114265354330708
0
LINE
8
BLACK
6
CONTINUOUS
10
6.15511811023622
20
-3.8114265354330708
11
6.1417627559055115
21
-3.8121765748031495
0
LINE
8
BLACK
6
CONTINUOUS
10
6.1417627559055115
20
-3.8121765748031495
11
6.1285753543307084
21
-3.8144172047244091
0
LINE
8
BLACK
6
CONTINUOUS
10
6.1285753543307084
20
-3.8144172047244091
11
6.1157217322834647
21
-3.8181202362204725
0
LINE
8
BLACK
6
CONTINUOUS
10
6.1157217322834647
20
-3.8181202362204725
11
6.1033635433070863
21
-3.8232391732283464
0
LINE
8
BLACK
6
CONTINUOUS
10
6.1033635433070863
20
-3.8232391732283464
11
6.091656181102362
21
-3.8297096062992124
0
LINE
8
BLACK
6
CONTINUOUS
10
6.091656181102362
20
-3.8297096062992124
11
6.0807469291338583
21
-3.837450157480315
0
LINE
8
BLACK
6
CONTINUOUS
10
6.0807469291338583
20
-3.837450157480315
11
6.0707729133858264
21
-3.8463634645669291
0
LINE
8
BLACK
6
CONTINUOUS
10
6.0707729133858264
20
-3.8463634645669291
11
6.0618596062992127
21
-3.8563374803149606
0
LINE
8
BLACK
6
CONTINUOUS
10
6.0618596062992127
20
-3.8563374803149606
11
6.0541190551181101
21
-3.8672467322834643
0
LINE
8
BLACK
6
CONTINUOUS
10
6.0541190551181101
20
-3.8672467322834643
11
6.0476486220472436
21
-3.8789540944881891
0
LINE
8
BLACK
6
CONTINUOUS
10
6.0476486220472436
20
-3.8789540944881891
11
6.0425296850393702
21
-3.891312283464567
0
LINE
8
BLACK
6
CONTINUOUS
10
6.0425296850393702
20
-3.891312283464567
11
6.0388266535433068
21
-3.9041659055118108
0
LINE
8
BLACK
6
CONTINUOUS
10
6.0388266535433068
20
-3.9041659055118108
11
6.0365860236220472
21
-3.9173533070866142
0
LINE
8
BLACK
6
CONTINUOUS
10
6.0365860236220472
20
-3.9173533070866142
11
6.0358359842519684
21
-3.9307086614173228
0
LINE
8
BLACK
6
CONTINUOUS
10
6.0358359842519684
20
-3.9307086614173228
11
6.0365860236220472
21
-3.9440640157480313
0
CIRCLE
8
BLACK
10
6.15511811023622
20
-3.9307086614173228
40
0.0068897637795276
0
CIRCLE
8
BLACK
10
4.5551181102362204
20
-3.9307086614173228
40
0.0068897637795276
0
CIRCLE
8
BLACK
10
4.5551181102362204
20
-4.7307086614173226
40
0.0068897637795276
0
CIRCLE
8
BLACK
10
6.15511811023622
20
-4.7307086614173226
40
0.0068897637795276
  0
ENDSEC
  0
EOF
