  0
SECTION
  2
HEADER
  9
$ANGBASE
  50
0.0
  9
$ANGDIR
  70
1
  9
$MEASUREMENT
  70
0
  0
ENDSEC
  0
SECTION
  2
TABLES
  0
TABLE
  2
LTYPE
  70
4
  0
LTYPE
  5
40F
  2
CONTINUOUS
  70
0
  3
Solid line
  72
65
  73
0
  40
0.0
  0
LTYPE
  5
410
  2
DASHDOT
 70
0
  3
Dash Dot ____ _ ____ _
 72
65
 73
4
 40
2.0
 49
1.25
 49
-0.25
 49
0.25
 49
-0.25
  0
LTYPE
  5
411
  2
DASHED
 70
0
  3
Dashed __ __ __ __ __
 72
65
 73
2
 40
0.75
 49
0.5
 49
-0.25
  0
LTYPE
  5
43B
  2
DOTTED
 70
0
  3
Dotted .  .  .  .
 72
65
 73
2
 40
0.2
 49
0.0
 49
-0.2
  0
ENDTAB
  0
TABLE
  2
STYLE
  70
4
  0
STYLE
  2
KICAD
  70
0
  40
0
  41
1
  42
1
  50
0
  71
0
  3
isocp.shx
  0
STYLE
  2
KICADB
  70
0
  40
0
  41
1
  42
1
  50
0
  71
0
  3
isocp.shx
  0
STYLE
  2
KICADI
  70
0
  40
0
  41
1
  42
1
  50
15
  71
0
  3
isocp.shx
  0
STYLE
  2
KICADBI
  70
0
  40
0
  41
1
  42
1
  50
15
  71
0
  3
isocp.shx
  0
ENDTAB
  0
TABLE
  2
LAYER
  70
1
  0
LAYER
  2
BLACK
  70
0
  62
7
  6
CONTINUOUS
  0
ENDTAB
  0
ENDSEC
  0
SECTION
  2
ENTITIES
0
LINE
8
BLACK
6
CONTINUOUS
10
5.420892559055118
20
-4.8086232283464563
11
5.4240857086614174
21
-4.8107568110236221
0
LINE
8
BLACK
6
CONTINUOUS
10
5.4240857086614174
20
-4.8107568110236221
11
5.4262192913385823
21
-4.8139499606299214
0
LINE
8
BLACK
6
CONTINUOUS
10
5.4262192913385823
20
-4.8139499606299214
11
5.4269685039370081
21
-4.8177165354330711
0
LINE
8
BLACK
6
CONTINUOUS
10
5.4269685039370081
20
-4.8177165354330711
11
5.4269685039370081
21
-4.9043307086614174
0
LINE
8
BLACK
6
CONTINUOUS
10
5.4269685039370081
20
-4.9043307086614174
11
5.4262192913385823
21
-4.9080972834645671
0
LINE
8
BLACK
6
CONTINUOUS
10
5.4262192913385823
20
-4.9080972834645671
11
5.4240857086614174
21
-4.9112904330708664
0
LINE
8
BLACK
6
CONTINUOUS
10
5.4240857086614174
20
-4.9112904330708664
11
5.420892559055118
21
-4.9134240157480313
0
LINE
8
BLACK
6
CONTINUOUS
10
5.420892559055118
20
-4.9134240157480313
11
5.4171259842519683
21
-4.9141732283464563
0
LINE
8
BLACK
6
CONTINUOUS
10
5.4171259842519683
20
-4.9141732283464563
11
5.3974409448818896
21
-4.9141732283464563
0
LINE
8
BLACK
6
CONTINUOUS
10
5.3974409448818896
20
-4.9141732283464563
11
5.39367437007874
21
-4.9134240157480313
0
LINE
8
BLACK
6
CONTINUOUS
10
5.39367437007874
20
-4.9134240157480313
11
5.3904812204724406
21
-4.9112904330708664
0
LINE
8
BLACK
6
CONTINUOUS
10
5.3904812204724406
20
-4.9112904330708664
11
5.3883476377952757
21
-4.9080972834645671
0
LINE
8
BLACK
6
CONTINUOUS
10
5.3883476377952757
20
-4.9080972834645671
11
5.3875984251968498
21
-4.9043307086614174
0
LINE
8
BLACK
6
CONTINUOUS
10
5.3875984251968498
20
-4.9043307086614174
11
5.3875984251968498
21
-4.8177165354330711
0
LINE
8
BLACK
6
CONTINUOUS
10
5.3875984251968498
20
-4.8177165354330711
11
5.3883476377952757
21
-4.8139499606299214
0
LINE
8
BLACK
6
CONTINUOUS
10
5.3883476377952757
20
-4.8139499606299214
11
5.3904812204724406
21
-4.8107568110236221
0
LINE
8
BLACK
6
CONTINUOUS
10
5.3904812204724406
20
-4.8107568110236221
11
5.39367437007874
21
-4.8086232283464563
0
LINE
8
BLACK
6
CONTINUOUS
10
5.39367437007874
20
-4.8086232283464563
11
5.3974409448818896
21
-4.8078740157480313
0
LINE
8
BLACK
6
CONTINUOUS
10
5.3974409448818896
20
-4.8078740157480313
11
5.4171259842519683
21
-4.8078740157480313
0
LINE
8
BLACK
6
CONTINUOUS
10
5.4171259842519683
20
-4.8078740157480313
11
5.420892559055118
21
-4.8086232283464563
0
LINE
8
BLACK
6
CONTINUOUS
10
5.7141996456692912
20
-4.8086232283464563
11
5.7173927952755905
21
-4.8107568110236221
0
LINE
8
BLACK
6
CONTINUOUS
10
5.7173927952755905
20
-4.8107568110236221
11
5.7195263779527554
21
-4.8139499606299214
0
LINE
8
BLACK
6
CONTINUOUS
10
5.7195263779527554
20
-4.8139499606299214
11
5.7202755905511813
21
-4.8177165354330711
0
LINE
8
BLACK
6
CONTINUOUS
10
5.7202755905511813
20
-4.8177165354330711
11
5.7202755905511813
21
-4.9043307086614174
0
LINE
8
BLACK
6
CONTINUOUS
10
5.7202755905511813
20
-4.9043307086614174
11
5.7195263779527554
21
-4.9080972834645671
0
LINE
8
BLACK
6
CONTINUOUS
10
5.7195263779527554
20
-4.9080972834645671
11
5.7173927952755905
21
-4.9112904330708664
0
LINE
8
BLACK
6
CONTINUOUS
10
5.7173927952755905
20
-4.9112904330708664
11
5.7141996456692912
21
-4.9134240157480313
0
LINE
8
BLACK
6
CONTINUOUS
10
5.7141996456692912
20
-4.9134240157480313
11
5.7104330708661415
21
-4.9141732283464563
0
LINE
8
BLACK
6
CONTINUOUS
10
5.7104330708661415
20
-4.9141732283464563
11
5.6907480314960628
21
-4.9141732283464563
0
LINE
8
BLACK
6
CONTINUOUS
10
5.6907480314960628
20
-4.9141732283464563
11
5.6869814566929131
21
-4.9134240157480313
0
LINE
8
BLACK
6
CONTINUOUS
10
5.6869814566929131
20
-4.9134240157480313
11
5.6837883070866138
21
-4.9112904330708664
0
LINE
8
BLACK
6
CONTINUOUS
10
5.6837883070866138
20
-4.9112904330708664
11
5.6816547244094489
21
-4.9080972834645671
0
LINE
8
BLACK
6
CONTINUOUS
10
5.6816547244094489
20
-4.9080972834645671
11
5.6809055118110239
21
-4.9043307086614174
0
LINE
8
BLACK
6
CONTINUOUS
10
5.6809055118110239
20
-4.9043307086614174
11
5.6809055118110239
21
-4.8177165354330711
0
LINE
8
BLACK
6
CONTINUOUS
10
5.6809055118110239
20
-4.8177165354330711
11
5.6816547244094489
21
-4.8139499606299214
0
LINE
8
BLACK
6
CONTINUOUS
10
5.6816547244094489
20
-4.8139499606299214
11
5.6837883070866138
21
-4.8107568110236221
0
LINE
8
BLACK
6
CONTINUOUS
10
5.6837883070866138
20
-4.8107568110236221
11
5.6869814566929131
21
-4.8086232283464563
0
LINE
8
BLACK
6
CONTINUOUS
10
5.6869814566929131
20
-4.8086232283464563
11
5.6907480314960628
21
-4.8078740157480313
0
LINE
8
BLACK
6
CONTINUOUS
10
5.6907480314960628
20
-4.8078740157480313
11
5.7104330708661415
21
-4.8078740157480313
0
LINE
8
BLACK
6
CONTINUOUS
10
5.7104330708661415
20
-4.8078740157480313
11
5.7141996456692912
21
-4.8086232283464563
0
LINE
8
BLACK
6
CONTINUOUS
10
4.9019949212598428
20
-4.8070484251968502
11
4.9051880708661413
21
-4.809182007874016
0
LINE
8
BLACK
6
CONTINUOUS
10
4.9051880708661413
20
-4.809182007874016
11
4.9073216535433071
21
-4.8123751574803144
0
LINE
8
BLACK
6
CONTINUOUS
10
4.9073216535433071
20
-4.8123751574803144
11
4.908070866141732
21
-4.8161417322834641
0
LINE
8
BLACK
6
CONTINUOUS
10
4.908070866141732
20
-4.8161417322834641
11
4.908070866141732
21
-4.9027559055118113
0
LINE
8
BLACK
6
CONTINUOUS
10
4.908070866141732
20
-4.9027559055118113
11
4.9073216535433071
21
-4.9065224803149601
0
LINE
8
BLACK
6
CONTINUOUS
10
4.9073216535433071
20
-4.9065224803149601
11
4.9051880708661413
21
-4.9097156299212594
0
LINE
8
BLACK
6
CONTINUOUS
10
4.9051880708661413
20
-4.9097156299212594
11
4.9019949212598428
21
-4.9118492125984252
0
LINE
8
BLACK
6
CONTINUOUS
10
4.9019949212598428
20
-4.9118492125984252
11
4.8982283464566931
21
-4.9125984251968502
0
LINE
8
BLACK
6
CONTINUOUS
10
4.8982283464566931
20
-4.9125984251968502
11
4.8785433070866144
21
-4.9125984251968502
0
LINE
8
BLACK
6
CONTINUOUS
10
4.8785433070866144
20
-4.9125984251968502
11
4.8747767322834648
21
-4.9118492125984252
0
LINE
8
BLACK
6
CONTINUOUS
10
4.8747767322834648
20
-4.9118492125984252
11
4.8715835826771654
21
-4.9097156299212594
0
LINE
8
BLACK
6
CONTINUOUS
10
4.8715835826771654
20
-4.9097156299212594
11
4.8694499999999996
21
-4.9065224803149601
0
LINE
8
BLACK
6
CONTINUOUS
10
4.8694499999999996
20
-4.9065224803149601
11
4.8687007874015746
21
-4.9027559055118113
0
LINE
8
BLACK
6
CONTINUOUS
10
4.8687007874015746
20
-4.9027559055118113
11
4.8687007874015746
21
-4.8161417322834641
0
LINE
8
BLACK
6
CONTINUOUS
10
4.8687007874015746
20
-4.8161417322834641
11
4.8694499999999996
21
-4.8123751574803144
0
LINE
8
BLACK
6
CONTINUOUS
10
4.8694499999999996
20
-4.8123751574803144
11
4.8715835826771654
21
-4.809182007874016
0
LINE
8
BLACK
6
CONTINUOUS
10
4.8715835826771654
20
-4.809182007874016
11
4.8747767322834648
21
-4.8070484251968502
0
LINE
8
BLACK
6
CONTINUOUS
10
4.8747767322834648
20
-4.8070484251968502
11
4.8785433070866144
21
-4.8062992125984252
0
LINE
8
BLACK
6
CONTINUOUS
10
4.8785433070866144
20
-4.8062992125984252
11
4.8982283464566931
21
-4.8062992125984252
0
LINE
8
BLACK
6
CONTINUOUS
10
4.8982283464566931
20
-4.8062992125984252
11
4.9019949212598428
21
-4.8070484251968502
0
LINE
8
BLACK
6
CONTINUOUS
10
5.2937272047244095
20
-4.8070484251968502
11
5.2969203543307088
21
-4.809182007874016
0
LINE
8
BLACK
6
CONTINUOUS
10
5.2969203543307088
20
-4.809182007874016
11
5.2990539370078737
21
-4.8123751574803144
0
LINE
8
BLACK
6
CONTINUOUS
10
5.2990539370078737
20
-4.8123751574803144
11
5.2998031496062987
21
-4.8161417322834641
0
LINE
8
BLACK
6
CONTINUOUS
10
5.2998031496062987
20
-4.8161417322834641
11
5.2998031496062987
21
-4.9027559055118113
0
LINE
8
BLACK
6
CONTINUOUS
10
5.2998031496062987
20
-4.9027559055118113
11
5.2990539370078737
21
-4.9065224803149601
0
LINE
8
BLACK
6
CONTINUOUS
10
5.2990539370078737
20
-4.9065224803149601
11
5.2969203543307088
21
-4.9097156299212594
0
LINE
8
BLACK
6
CONTINUOUS
10
5.2969203543307088
20
-4.9097156299212594
11
5.2937272047244095
21
-4.9118492125984252
0
LINE
8
BLACK
6
CONTINUOUS
10
5.2937272047244095
20
-4.9118492125984252
11
5.2899606299212598
21
-4.9125984251968502
0
LINE
8
BLACK
6
CONTINUOUS
10
5.2899606299212598
20
-4.9125984251968502
11
5.2702755905511811
21
-4.9125984251968502
0
LINE
8
BLACK
6
CONTINUOUS
10
5.2702755905511811
20
-4.9125984251968502
11
5.2665090157480314
21
-4.9118492125984252
0
LINE
8
BLACK
6
CONTINUOUS
10
5.2665090157480314
20
-4.9118492125984252
11
5.2633158661417321
21
-4.9097156299212594
0
LINE
8
BLACK
6
CONTINUOUS
10
5.2633158661417321
20
-4.9097156299212594
11
5.2611822834645672
21
-4.9065224803149601
0
LINE
8
BLACK
6
CONTINUOUS
10
5.2611822834645672
20
-4.9065224803149601
11
5.2604330708661413
21
-4.9027559055118113
0
LINE
8
BLACK
6
CONTINUOUS
10
5.2604330708661413
20
-4.9027559055118113
11
5.2604330708661413
21
-4.8161417322834641
0
LINE
8
BLACK
6
CONTINUOUS
10
5.2604330708661413
20
-4.8161417322834641
11
5.2611822834645672
21
-4.8123751574803144
0
LINE
8
BLACK
6
CONTINUOUS
10
5.2611822834645672
20
-4.8123751574803144
11
5.2633158661417321
21
-4.809182007874016
0
LINE
8
BLACK
6
CONTINUOUS
10
5.2633158661417321
20
-4.809182007874016
11
5.2665090157480314
21
-4.8070484251968502
0
LINE
8
BLACK
6
CONTINUOUS
10
5.2665090157480314
20
-4.8070484251968502
11
5.2702755905511811
21
-4.8062992125984252
0
LINE
8
BLACK
6
CONTINUOUS
10
5.2702755905511811
20
-4.8062992125984252
11
5.2899606299212598
21
-4.8062992125984252
0
LINE
8
BLACK
6
CONTINUOUS
10
5.2899606299212598
20
-4.8062992125984252
11
5.2937272047244095
21
-4.8070484251968502
0
LINE
8
BLACK
6
CONTINUOUS
10
5.8747311417322834
20
-4.8164972440944878
11
5.8779242913385827
21
-4.8186308267716536
0
LINE
8
BLACK
6
CONTINUOUS
10
5.8779242913385827
20
-4.8186308267716536
11
5.8800578740157476
21
-4.8218239763779529
0
LINE
8
BLACK
6
CONTINUOUS
10
5.8800578740157476
20
-4.8218239763779529
11
5.8808070866141735
21
-4.8255905511811026
0
LINE
8
BLACK
6
CONTINUOUS
10
5.8808070866141735
20
-4.8255905511811026
11
5.8808070866141735
21
-4.8629921259842517
0
LINE
8
BLACK
6
CONTINUOUS
10
5.8808070866141735
20
-4.8629921259842517
11
5.8800578740157476
21
-4.8667587007874014
0
LINE
8
BLACK
6
CONTINUOUS
10
5.8800578740157476
20
-4.8667587007874014
11
5.8779242913385827
21
-4.8699518503937007
0
LINE
8
BLACK
6
CONTINUOUS
10
5.8779242913385827
20
-4.8699518503937007
11
5.8747311417322834
21
-4.8720854330708656
0
LINE
8
BLACK
6
CONTINUOUS
10
5.8747311417322834
20
-4.8720854330708656
11
5.8709645669291337
21
-4.8728346456692915
0
LINE
8
BLACK
6
CONTINUOUS
10
5.8709645669291337
20
-4.8728346456692915
11
5.851279527559055
21
-4.8728346456692915
0
LINE
8
BLACK
6
CONTINUOUS
10
5.851279527559055
20
-4.8728346456692915
11
5.8475129527559053
21
-4.8720854330708656
0
LINE
8
BLACK
6
CONTINUOUS
10
5.8475129527559053
20
-4.8720854330708656
11
5.844319803149606
21
-4.8699518503937007
0
LINE
8
BLACK
6
CONTINUOUS
10
5.844319803149606
20
-4.8699518503937007
11
5.8421862204724411
21
-4.8667587007874014
0
LINE
8
BLACK
6
CONTINUOUS
10
5.8421862204724411
20
-4.8667587007874014
11
5.8414370078740152
21
-4.8629921259842517
0
LINE
8
BLACK
6
CONTINUOUS
10
5.8414370078740152
20
-4.8629921259842517
11
5.8414370078740152
21
-4.8255905511811026
0
LINE
8
BLACK
6
CONTINUOUS
10
5.8414370078740152
20
-4.8255905511811026
11
5.8421862204724411
21
-4.8218239763779529
0
LINE
8
BLACK
6
CONTINUOUS
10
5.8421862204724411
20
-4.8218239763779529
11
5.844319803149606
21
-4.8186308267716536
0
LINE
8
BLACK
6
CONTINUOUS
10
5.844319803149606
20
-4.8186308267716536
11
5.8475129527559053
21
-4.8164972440944878
0
LINE
8
BLACK
6
CONTINUOUS
10
5.8475129527559053
20
-4.8164972440944878
11
5.851279527559055
21
-4.8157480314960628
0
LINE
8
BLACK
6
CONTINUOUS
10
5.851279527559055
20
-4.8157480314960628
11
5.8709645669291337
21
-4.8157480314960628
0
LINE
8
BLACK
6
CONTINUOUS
10
5.8709645669291337
20
-4.8157480314960628
11
5.8747311417322834
21
-4.8164972440944878
0
LINE
8
BLACK
6
CONTINUOUS
10
5.9495342913385825
20
-4.8164972440944878
11
5.9527274409448818
21
-4.8186308267716536
0
LINE
8
BLACK
6
CONTINUOUS
10
5.9527274409448818
20
-4.8186308267716536
11
5.9548610236220467
21
-4.8218239763779529
0
LINE
8
BLACK
6
CONTINUOUS
10
5.9548610236220467
20
-4.8218239763779529
11
5.9556102362204726
21
-4.8255905511811026
0
LINE
8
BLACK
6
CONTINUOUS
10
5.9556102362204726
20
-4.8255905511811026
11
5.9556102362204726
21
-4.8629921259842517
0
LINE
8
BLACK
6
CONTINUOUS
10
5.9556102362204726
20
-4.8629921259842517
11
5.9548610236220467
21
-4.8667587007874014
0
LINE
8
BLACK
6
CONTINUOUS
10
5.9548610236220467
20
-4.8667587007874014
11
5.9527274409448818
21
-4.8699518503937007
0
LINE
8
BLACK
6
CONTINUOUS
10
5.9527274409448818
20
-4.8699518503937007
11
5.9495342913385825
21
-4.8720854330708656
0
LINE
8
BLACK
6
CONTINUOUS
10
5.9495342913385825
20
-4.8720854330708656
11
5.9457677165354328
21
-4.8728346456692915
0
LINE
8
BLACK
6
CONTINUOUS
10
5.9457677165354328
20
-4.8728346456692915
11
5.9260826771653541
21
-4.8728346456692915
0
LINE
8
BLACK
6
CONTINUOUS
10
5.9260826771653541
20
-4.8728346456692915
11
5.9223161023622044
21
-4.8720854330708656
0
LINE
8
BLACK
6
CONTINUOUS
10
5.9223161023622044
20
-4.8720854330708656
11
5.9191229527559051
21
-4.8699518503937007
0
LINE
8
BLACK
6
CONTINUOUS
10
5.9191229527559051
20
-4.8699518503937007
11
5.9169893700787402
21
-4.8667587007874014
0
LINE
8
BLACK
6
CONTINUOUS
10
5.9169893700787402
20
-4.8667587007874014
11
5.9162401574803152
21
-4.8629921259842517
0
LINE
8
BLACK
6
CONTINUOUS
10
5.9162401574803152
20
-4.8629921259842517
11
5.9162401574803152
21
-4.8255905511811026
0
LINE
8
BLACK
6
CONTINUOUS
10
5.9162401574803152
20
-4.8255905511811026
11
5.9169893700787402
21
-4.8218239763779529
0
LINE
8
BLACK
6
CONTINUOUS
10
5.9169893700787402
20
-4.8218239763779529
11
5.9191229527559051
21
-4.8186308267716536
0
LINE
8
BLACK
6
CONTINUOUS
10
5.9191229527559051
20
-4.8186308267716536
11
5.9223161023622044
21
-4.8164972440944878
0
LINE
8
BLACK
6
CONTINUOUS
10
5.9223161023622044
20
-4.8164972440944878
11
5.9260826771653541
21
-4.8157480314960628
0
LINE
8
BLACK
6
CONTINUOUS
10
5.9260826771653541
20
-4.8157480314960628
11
5.9457677165354328
21
-4.8157480314960628
0
LINE
8
BLACK
6
CONTINUOUS
10
5.9457677165354328
20
-4.8157480314960628
11
5.9495342913385825
21
-4.8164972440944878
0
LINE
8
BLACK
6
CONTINUOUS
10
5.8901536614173224
20
-4.7350951968503932
11
5.8920695275590553
21
-4.7363753543307086
0
LINE
8
BLACK
6
CONTINUOUS
10
5.8920695275590553
20
-4.7363753543307086
11
5.8933496850393698
21
-4.7382912204724406
0
LINE
8
BLACK
6
CONTINUOUS
10
5.8933496850393698
20
-4.7382912204724406
11
5.8937992125984247
21
-4.7405511811023624
0
LINE
8
BLACK
6
CONTINUOUS
10
5.8937992125984247
20
-4.7405511811023624
11
5.8937992125984247
21
-4.7809055118110235
0
LINE
8
BLACK
6
CONTINUOUS
10
5.8937992125984247
20
-4.7809055118110235
11
5.8933496850393698
21
-4.7831654724409445
0
LINE
8
BLACK
6
CONTINUOUS
10
5.8933496850393698
20
-4.7831654724409445
11
5.8920695275590553
21
-4.7850813385826774
0
LINE
8
BLACK
6
CONTINUOUS
10
5.8920695275590553
20
-4.7850813385826774
11
5.8901536614173224
21
-4.7863614960629919
0
LINE
8
BLACK
6
CONTINUOUS
10
5.8901536614173224
20
-4.7863614960629919
11
5.8878937007874015
21
-4.7868110236220476
0
LINE
8
BLACK
6
CONTINUOUS
10
5.8878937007874015
20
-4.7868110236220476
11
5.8760826771653543
21
-4.7868110236220476
0
LINE
8
BLACK
6
CONTINUOUS
10
5.8760826771653543
20
-4.7868110236220476
11
5.8738227165354333
21
-4.7863614960629919
0
LINE
8
BLACK
6
CONTINUOUS
10
5.8738227165354333
20
-4.7863614960629919
11
5.8719068503937004
21
-4.7850813385826774
0
LINE
8
BLACK
6
CONTINUOUS
10
5.8719068503937004
20
-4.7850813385826774
11
5.8706266929133859
21
-4.7831654724409445
0
LINE
8
BLACK
6
CONTINUOUS
10
5.8706266929133859
20
-4.7831654724409445
11
5.8701771653543302
21
-4.7809055118110235
0
LINE
8
BLACK
6
CONTINUOUS
10
5.8701771653543302
20
-4.7809055118110235
11
5.8701771653543302
21
-4.7405511811023624
0
LINE
8
BLACK
6
CONTINUOUS
10
5.8701771653543302
20
-4.7405511811023624
11
5.8706266929133859
21
-4.7382912204724406
0
LINE
8
BLACK
6
CONTINUOUS
10
5.8706266929133859
20
-4.7382912204724406
11
5.8719068503937004
21
-4.7363753543307086
0
LINE
8
BLACK
6
CONTINUOUS
10
5.8719068503937004
20
-4.7363753543307086
11
5.8738227165354333
21
-4.7350951968503932
0
LINE
8
BLACK
6
CONTINUOUS
10
5.8738227165354333
20
-4.7350951968503932
11
5.8760826771653543
21
-4.7346456692913383
0
LINE
8
BLACK
6
CONTINUOUS
10
5.8760826771653543
20
-4.7346456692913383
11
5.8878937007874015
21
-4.7346456692913383
0
LINE
8
BLACK
6
CONTINUOUS
10
5.8878937007874015
20
-4.7346456692913383
11
5.8901536614173224
21
-4.7350951968503932
0
LINE
8
BLACK
6
CONTINUOUS
10
5.9275552362204724
20
-4.7350951968503932
11
5.9294711023622044
21
-4.7363753543307086
0
LINE
8
BLACK
6
CONTINUOUS
10
5.9294711023622044
20
-4.7363753543307086
11
5.9307512598425198
21
-4.7382912204724406
0
LINE
8
BLACK
6
CONTINUOUS
10
5.9307512598425198
20
-4.7382912204724406
11
5.9312007874015746
21
-4.7405511811023624
0
LINE
8
BLACK
6
CONTINUOUS
10
5.9312007874015746
20
-4.7405511811023624
11
5.9312007874015746
21
-4.7809055118110235
0
LINE
8
BLACK
6
CONTINUOUS
10
5.9312007874015746
20
-4.7809055118110235
11
5.9307512598425198
21
-4.7831654724409445
0
LINE
8
BLACK
6
CONTINUOUS
10
5.9307512598425198
20
-4.7831654724409445
11
5.9294711023622044
21
-4.7850813385826774
0
LINE
8
BLACK
6
CONTINUOUS
10
5.9294711023622044
20
-4.7850813385826774
11
5.9275552362204724
21
-4.7863614960629919
0
LINE
8
BLACK
6
CONTINUOUS
10
5.9275552362204724
20
-4.7863614960629919
11
5.9252952755905515
21
-4.7868110236220476
0
LINE
8
BLACK
6
CONTINUOUS
10
5.9252952755905515
20
-4.7868110236220476
11
5.9134842519685042
21
-4.7868110236220476
0
LINE
8
BLACK
6
CONTINUOUS
10
5.9134842519685042
20
-4.7868110236220476
11
5.9112242913385824
21
-4.7863614960629919
0
LINE
8
BLACK
6
CONTINUOUS
10
5.9112242913385824
20
-4.7863614960629919
11
5.9093084251968504
21
-4.7850813385826774
0
LINE
8
BLACK
6
CONTINUOUS
10
5.9093084251968504
20
-4.7850813385826774
11
5.908028267716535
21
-4.7831654724409445
0
LINE
8
BLACK
6
CONTINUOUS
10
5.908028267716535
20
-4.7831654724409445
11
5.9075787401574802
21
-4.7809055118110235
0
LINE
8
BLACK
6
CONTINUOUS
10
5.9075787401574802
20
-4.7809055118110235
11
5.9075787401574802
21
-4.7405511811023624
0
LINE
8
BLACK
6
CONTINUOUS
10
5.9075787401574802
20
-4.7405511811023624
11
5.908028267716535
21
-4.7382912204724406
0
LINE
8
BLACK
6
CONTINUOUS
10
5.908028267716535
20
-4.7382912204724406
11
5.9093084251968504
21
-4.7363753543307086
0
LINE
8
BLACK
6
CONTINUOUS
10
5.9093084251968504
20
-4.7363753543307086
11
5.9112242913385824
21
-4.7350951968503932
0
LINE
8
BLACK
6
CONTINUOUS
10
5.9112242913385824
20
-4.7350951968503932
11
5.9134842519685042
21
-4.7346456692913383
0
LINE
8
BLACK
6
CONTINUOUS
10
5.9134842519685042
20
-4.7346456692913383
11
5.9252952755905515
21
-4.7346456692913383
0
LINE
8
BLACK
6
CONTINUOUS
10
5.9252952755905515
20
-4.7346456692913383
11
5.9275552362204724
21
-4.7350951968503932
0
LINE
8
BLACK
6
CONTINUOUS
10
5.9649568110236215
20
-4.7350951968503932
11
5.9668726771653544
21
-4.7363753543307086
0
LINE
8
BLACK
6
CONTINUOUS
10
5.9668726771653544
20
-4.7363753543307086
11
5.9681528346456689
21
-4.7382912204724406
0
LINE
8
BLACK
6
CONTINUOUS
10
5.9681528346456689
20
-4.7382912204724406
11
5.9686023622047246
21
-4.7405511811023624
0
LINE
8
BLACK
6
CONTINUOUS
10
5.9686023622047246
20
-4.7405511811023624
11
5.9686023622047246
21
-4.7809055118110235
0
LINE
8
BLACK
6
CONTINUOUS
10
5.9686023622047246
20
-4.7809055118110235
11
5.9681528346456689
21
-4.7831654724409445
0
LINE
8
BLACK
6
CONTINUOUS
10
5.9681528346456689
20
-4.7831654724409445
11
5.9668726771653544
21
-4.7850813385826774
0
LINE
8
BLACK
6
CONTINUOUS
10
5.9668726771653544
20
-4.7850813385826774
11
5.9649568110236215
21
-4.7863614960629919
0
LINE
8
BLACK
6
CONTINUOUS
10
5.9649568110236215
20
-4.7863614960629919
11
5.9626968503937006
21
-4.7868110236220476
0
LINE
8
BLACK
6
CONTINUOUS
10
5.9626968503937006
20
-4.7868110236220476
11
5.9508858267716533
21
-4.7868110236220476
0
LINE
8
BLACK
6
CONTINUOUS
10
5.9508858267716533
20
-4.7868110236220476
11
5.9486258661417324
21
-4.7863614960629919
0
LINE
8
BLACK
6
CONTINUOUS
10
5.9486258661417324
20
-4.7863614960629919
11
5.9467099999999995
21
-4.7850813385826774
0
LINE
8
BLACK
6
CONTINUOUS
10
5.9467099999999995
20
-4.7850813385826774
11
5.945429842519685
21
-4.7831654724409445
0
LINE
8
BLACK
6
CONTINUOUS
10
5.945429842519685
20
-4.7831654724409445
11
5.9449803149606302
21
-4.7809055118110235
0
LINE
8
BLACK
6
CONTINUOUS
10
5.9449803149606302
20
-4.7809055118110235
11
5.9449803149606302
21
-4.7405511811023624
0
LINE
8
BLACK
6
CONTINUOUS
10
5.9449803149606302
20
-4.7405511811023624
11
5.945429842519685
21
-4.7382912204724406
0
LINE
8
BLACK
6
CONTINUOUS
10
5.945429842519685
20
-4.7382912204724406
11
5.9467099999999995
21
-4.7363753543307086
0
LINE
8
BLACK
6
CONTINUOUS
10
5.9467099999999995
20
-4.7363753543307086
11
5.9486258661417324
21
-4.7350951968503932
0
LINE
8
BLACK
6
CONTINUOUS
10
5.9486258661417324
20
-4.7350951968503932
11
5.9508858267716533
21
-4.7346456692913383
0
LINE
8
BLACK
6
CONTINUOUS
10
5.9508858267716533
20
-4.7346456692913383
11
5.9626968503937006
21
-4.7346456692913383
0
LINE
8
BLACK
6
CONTINUOUS
10
5.9626968503937006
20
-4.7346456692913383
11
5.9649568110236215
21
-4.7350951968503932
0
LINE
8
BLACK
6
CONTINUOUS
10
5.4882835826771652
20
-4.7020243307086611
11
5.4901994488188972
21
-4.7033044881889765
0
LINE
8
BLACK
6
CONTINUOUS
10
5.4901994488188972
20
-4.7033044881889765
11
5.4914796062992126
21
-4.7052203543307085
0
LINE
8
BLACK
6
CONTINUOUS
10
5.4914796062992126
20
-4.7052203543307085
11
5.4919291338582674
21
-4.7074803149606295
0
LINE
8
BLACK
6
CONTINUOUS
10
5.4919291338582674
20
-4.7074803149606295
11
5.4919291338582674
21
-4.7625984251968507
0
LINE
8
BLACK
6
CONTINUOUS
10
5.4919291338582674
20
-4.7625984251968507
11
5.4914796062992126
21
-4.7648583858267717
0
LINE
8
BLACK
6
CONTINUOUS
10
5.4914796062992126
20
-4.7648583858267717
11
5.4901994488188972
21
-4.7667742519685037
0
LINE
8
BLACK
6
CONTINUOUS
10
5.4901994488188972
20
-4.7667742519685037
11
5.4882835826771652
21
-4.7680544094488191
0
LINE
8
BLACK
6
CONTINUOUS
10
5.4882835826771652
20
-4.7680544094488191
11
5.4860236220472443
21
-4.7685039370078739
0
LINE
8
BLACK
6
CONTINUOUS
10
5.4860236220472443
20
-4.7685039370078739
11
5.474212598425197
21
-4.7685039370078739
0
LINE
8
BLACK
6
CONTINUOUS
10
5.474212598425197
20
-4.7685039370078739
11
5.4719526377952752
21
-4.7680544094488191
0
LINE
8
BLACK
6
CONTINUOUS
10
5.4719526377952752
20
-4.7680544094488191
11
5.4700367716535432
21
-4.7667742519685037
0
LINE
8
BLACK
6
CONTINUOUS
10
5.4700367716535432
20
-4.7667742519685037
11
5.4687566141732278
21
-4.7648583858267717
0
LINE
8
BLACK
6
CONTINUOUS
10
5.4687566141732278
20
-4.7648583858267717
11
5.468307086614173
21
-4.7625984251968507
0
LINE
8
BLACK
6
CONTINUOUS
10
5.468307086614173
20
-4.7625984251968507
11
5.468307086614173
21
-4.7074803149606295
0
LINE
8
BLACK
6
CONTINUOUS
10
5.468307086614173
20
-4.7074803149606295
11
5.4687566141732278
21
-4.7052203543307085
0
LINE
8
BLACK
6
CONTINUOUS
10
5.4687566141732278
20
-4.7052203543307085
11
5.4700367716535432
21
-4.7033044881889765
0
LINE
8
BLACK
6
CONTINUOUS
10
5.4700367716535432
20
-4.7033044881889765
11
5.4719526377952752
21
-4.7020243307086611
0
LINE
8
BLACK
6
CONTINUOUS
10
5.4719526377952752
20
-4.7020243307086611
11
5.474212598425197
21
-4.7015748031496063
0
LINE
8
BLACK
6
CONTINUOUS
10
5.474212598425197
20
-4.7015748031496063
11
5.4860236220472443
21
-4.7015748031496063
0
LINE
8
BLACK
6
CONTINUOUS
10
5.4860236220472443
20
-4.7015748031496063
11
5.4882835826771652
21
-4.7020243307086611
0
LINE
8
BLACK
6
CONTINUOUS
10
5.5374961811023624
20
-4.7020243307086611
11
5.5394120472440944
21
-4.7033044881889765
0
LINE
8
BLACK
6
CONTINUOUS
10
5.5394120472440944
20
-4.7033044881889765
11
5.5406922047244089
21
-4.7052203543307085
0
LINE
8
BLACK
6
CONTINUOUS
10
5.5406922047244089
20
-4.7052203543307085
11
5.5411417322834646
21
-4.7074803149606295
0
LINE
8
BLACK
6
CONTINUOUS
10
5.5411417322834646
20
-4.7074803149606295
11
5.5411417322834646
21
-4.7625984251968507
0
LINE
8
BLACK
6
CONTINUOUS
10
5.5411417322834646
20
-4.7625984251968507
11
5.5406922047244089
21
-4.7648583858267717
0
LINE
8
BLACK
6
CONTINUOUS
10
5.5406922047244089
20
-4.7648583858267717
11
5.5394120472440944
21
-4.7667742519685037
0
LINE
8
BLACK
6
CONTINUOUS
10
5.5394120472440944
20
-4.7667742519685037
11
5.5374961811023624
21
-4.7680544094488191
0
LINE
8
BLACK
6
CONTINUOUS
10
5.5374961811023624
20
-4.7680544094488191
11
5.5352362204724406
21
-4.7685039370078739
0
LINE
8
BLACK
6
CONTINUOUS
10
5.5352362204724406
20
-4.7685039370078739
11
5.5234251968503933
21
-4.7685039370078739
0
LINE
8
BLACK
6
CONTINUOUS
10
5.5234251968503933
20
-4.7685039370078739
11
5.5211652362204724
21
-4.7680544094488191
0
LINE
8
BLACK
6
CONTINUOUS
10
5.5211652362204724
20
-4.7680544094488191
11
5.5192493700787404
21
-4.7667742519685037
0
LINE
8
BLACK
6
CONTINUOUS
10
5.5192493700787404
20
-4.7667742519685037
11
5.517969212598425
21
-4.7648583858267717
0
LINE
8
BLACK
6
CONTINUOUS
10
5.517969212598425
20
-4.7648583858267717
11
5.5175196850393702
21
-4.7625984251968507
0
LINE
8
BLACK
6
CONTINUOUS
10
5.5175196850393702
20
-4.7625984251968507
11
5.5175196850393702
21
-4.7074803149606295
0
LINE
8
BLACK
6
CONTINUOUS
10
5.5175196850393702
20
-4.7074803149606295
11
5.517969212598425
21
-4.7052203543307085
0
LINE
8
BLACK
6
CONTINUOUS
10
5.517969212598425
20
-4.7052203543307085
11
5.5192493700787404
21
-4.7033044881889765
0
LINE
8
BLACK
6
CONTINUOUS
10
5.5192493700787404
20
-4.7033044881889765
11
5.5211652362204724
21
-4.7020243307086611
0
LINE
8
BLACK
6
CONTINUOUS
10
5.5211652362204724
20
-4.7020243307086611
11
5.5234251968503933
21
-4.7015748031496063
0
LINE
8
BLACK
6
CONTINUOUS
10
5.5234251968503933
20
-4.7015748031496063
11
5.5352362204724406
21
-4.7015748031496063
0
LINE
8
BLACK
6
CONTINUOUS
10
5.5352362204724406
20
-4.7015748031496063
11
5.5374961811023624
21
-4.7020243307086611
0
LINE
8
BLACK
6
CONTINUOUS
10
5.5867087795275587
20
-4.7020243307086611
11
5.5886246456692916
21
-4.7033044881889765
0
LINE
8
BLACK
6
CONTINUOUS
10
5.5886246456692916
20
-4.7033044881889765
11
5.5899048031496061
21
-4.7052203543307085
0
LINE
8
BLACK
6
CONTINUOUS
10
5.5899048031496061
20
-4.7052203543307085
11
5.5903543307086609
21
-4.7074803149606295
0
LINE
8
BLACK
6
CONTINUOUS
10
5.5903543307086609
20
-4.7074803149606295
11
5.5903543307086609
21
-4.7625984251968507
0
LINE
8
BLACK
6
CONTINUOUS
10
5.5903543307086609
20
-4.7625984251968507
11
5.5899048031496061
21
-4.7648583858267717
0
LINE
8
BLACK
6
CONTINUOUS
10
5.5899048031496061
20
-4.7648583858267717
11
5.5886246456692916
21
-4.7667742519685037
0
LINE
8
BLACK
6
CONTINUOUS
10
5.5886246456692916
20
-4.7667742519685037
11
5.5867087795275587
21
-4.7680544094488191
0
LINE
8
BLACK
6
CONTINUOUS
10
5.5867087795275587
20
-4.7680544094488191
11
5.5844488188976378
21
-4.7685039370078739
0
LINE
8
BLACK
6
CONTINUOUS
10
5.5844488188976378
20
-4.7685039370078739
11
5.5726377952755906
21
-4.7685039370078739
0
LINE
8
BLACK
6
CONTINUOUS
10
5.5726377952755906
20
-4.7685039370078739
11
5.5703778346456696
21
-4.7680544094488191
0
LINE
8
BLACK
6
CONTINUOUS
10
5.5703778346456696
20
-4.7680544094488191
11
5.5684619685039367
21
-4.7667742519685037
0
LINE
8
BLACK
6
CONTINUOUS
10
5.5684619685039367
20
-4.7667742519685037
11
5.5671818110236222
21
-4.7648583858267717
0
LINE
8
BLACK
6
CONTINUOUS
10
5.5671818110236222
20
-4.7648583858267717
11
5.5667322834645665
21
-4.7625984251968507
0
LINE
8
BLACK
6
CONTINUOUS
10
5.5667322834645665
20
-4.7625984251968507
11
5.5667322834645665
21
-4.7074803149606295
0
LINE
8
BLACK
6
CONTINUOUS
10
5.5667322834645665
20
-4.7074803149606295
11
5.5671818110236222
21
-4.7052203543307085
0
LINE
8
BLACK
6
CONTINUOUS
10
5.5671818110236222
20
-4.7052203543307085
11
5.5684619685039367
21
-4.7033044881889765
0
LINE
8
BLACK
6
CONTINUOUS
10
5.5684619685039367
20
-4.7033044881889765
11
5.5703778346456696
21
-4.7020243307086611
0
LINE
8
BLACK
6
CONTINUOUS
10
5.5703778346456696
20
-4.7020243307086611
11
5.5726377952755906
21
-4.7015748031496063
0
LINE
8
BLACK
6
CONTINUOUS
10
5.5726377952755906
20
-4.7015748031496063
11
5.5844488188976378
21
-4.7015748031496063
0
LINE
8
BLACK
6
CONTINUOUS
10
5.5844488188976378
20
-4.7015748031496063
11
5.5867087795275587
21
-4.7020243307086611
0
LINE
8
BLACK
6
CONTINUOUS
10
5.6359213779527559
20
-4.7020243307086611
11
5.6378372440944879
21
-4.7033044881889765
0
LINE
8
BLACK
6
CONTINUOUS
10
5.6378372440944879
20
-4.7033044881889765
11
5.6391174015748033
21
-4.7052203543307085
0
LINE
8
BLACK
6
CONTINUOUS
10
5.6391174015748033
20
-4.7052203543307085
11
5.6395669291338582
21
-4.7074803149606295
0
LINE
8
BLACK
6
CONTINUOUS
10
5.6395669291338582
20
-4.7074803149606295
11
5.6395669291338582
21
-4.7625984251968507
0
LINE
8
BLACK
6
CONTINUOUS
10
5.6395669291338582
20
-4.7625984251968507
11
5.6391174015748033
21
-4.7648583858267717
0
LINE
8
BLACK
6
CONTINUOUS
10
5.6391174015748033
20
-4.7648583858267717
11
5.6378372440944879
21
-4.7667742519685037
0
LINE
8
BLACK
6
CONTINUOUS
10
5.6378372440944879
20
-4.7667742519685037
11
5.6359213779527559
21
-4.7680544094488191
0
LINE
8
BLACK
6
CONTINUOUS
10
5.6359213779527559
20
-4.7680544094488191
11
5.6336614173228341
21
-4.7685039370078739
0
LINE
8
BLACK
6
CONTINUOUS
10
5.6336614173228341
20
-4.7685039370078739
11
5.6218503937007869
21
-4.7685039370078739
0
LINE
8
BLACK
6
CONTINUOUS
10
5.6218503937007869
20
-4.7685039370078739
11
5.6195904330708659
21
-4.7680544094488191
0
LINE
8
BLACK
6
CONTINUOUS
10
5.6195904330708659
20
-4.7680544094488191
11
5.6176745669291339
21
-4.7667742519685037
0
LINE
8
BLACK
6
CONTINUOUS
10
5.6176745669291339
20
-4.7667742519685037
11
5.6163944094488185
21
-4.7648583858267717
0
LINE
8
BLACK
6
CONTINUOUS
10
5.6163944094488185
20
-4.7648583858267717
11
5.6159448818897637
21
-4.7625984251968507
0
LINE
8
BLACK
6
CONTINUOUS
10
5.6159448818897637
20
-4.7625984251968507
11
5.6159448818897637
21
-4.7074803149606295
0
LINE
8
BLACK
6
CONTINUOUS
10
5.6159448818897637
20
-4.7074803149606295
11
5.6163944094488185
21
-4.7052203543307085
0
LINE
8
BLACK
6
CONTINUOUS
10
5.6163944094488185
20
-4.7052203543307085
11
5.6176745669291339
21
-4.7033044881889765
0
LINE
8
BLACK
6
CONTINUOUS
10
5.6176745669291339
20
-4.7033044881889765
11
5.6195904330708659
21
-4.7020243307086611
0
LINE
8
BLACK
6
CONTINUOUS
10
5.6195904330708659
20
-4.7020243307086611
11
5.6218503937007869
21
-4.7015748031496063
0
LINE
8
BLACK
6
CONTINUOUS
10
5.6218503937007869
20
-4.7015748031496063
11
5.6336614173228341
21
-4.7015748031496063
0
LINE
8
BLACK
6
CONTINUOUS
10
5.6336614173228341
20
-4.7015748031496063
11
5.6359213779527559
21
-4.7020243307086611
0
LINE
8
BLACK
6
CONTINUOUS
10
4.96938594488189
20
-4.700449527559055
11
4.971301811023622
21
-4.7017296850393704
0
LINE
8
BLACK
6
CONTINUOUS
10
4.971301811023622
20
-4.7017296850393704
11
4.9725819685039365
21
-4.7036455511811024
0
LINE
8
BLACK
6
CONTINUOUS
10
4.9725819685039365
20
-4.7036455511811024
11
4.9730314960629922
21
-4.7059055118110233
0
LINE
8
BLACK
6
CONTINUOUS
10
4.9730314960629922
20
-4.7059055118110233
11
4.9730314960629922
21
-4.7610236220472437
0
LINE
8
BLACK
6
CONTINUOUS
10
4.9730314960629922
20
-4.7610236220472437
11
4.9725819685039365
21
-4.7632835826771656
0
LINE
8
BLACK
6
CONTINUOUS
10
4.9725819685039365
20
-4.7632835826771656
11
4.971301811023622
21
-4.7651994488188976
0
LINE
8
BLACK
6
CONTINUOUS
10
4.971301811023622
20
-4.7651994488188976
11
4.96938594488189
21
-4.7664796062992121
0
LINE
8
BLACK
6
CONTINUOUS
10
4.96938594488189
20
-4.7664796062992121
11
4.9671259842519682
21
-4.7669291338582678
0
LINE
8
BLACK
6
CONTINUOUS
10
4.9671259842519682
20
-4.7669291338582678
11
4.9553149606299209
21
-4.7669291338582678
0
LINE
8
BLACK
6
CONTINUOUS
10
4.9553149606299209
20
-4.7669291338582678
11
4.953055
21
-4.7664796062992121
0
LINE
8
BLACK
6
CONTINUOUS
10
4.953055
20
-4.7664796062992121
11
4.951139133858268
21
-4.7651994488188976
0
LINE
8
BLACK
6
CONTINUOUS
10
4.951139133858268
20
-4.7651994488188976
11
4.9498589763779526
21
-4.7632835826771656
0
LINE
8
BLACK
6
CONTINUOUS
10
4.9498589763779526
20
-4.7632835826771656
11
4.9494094488188978
21
-4.7610236220472437
0
LINE
8
BLACK
6
CONTINUOUS
10
4.9494094488188978
20
-4.7610236220472437
11
4.9494094488188978
21
-4.7059055118110233
0
LINE
8
BLACK
6
CONTINUOUS
10
4.9494094488188978
20
-4.7059055118110233
11
4.9498589763779526
21
-4.7036455511811024
0
LINE
8
BLACK
6
CONTINUOUS
10
4.9498589763779526
20
-4.7036455511811024
11
4.951139133858268
21
-4.7017296850393704
0
LINE
8
BLACK
6
CONTINUOUS
10
4.951139133858268
20
-4.7017296850393704
11
4.953055
21
-4.700449527559055
0
LINE
8
BLACK
6
CONTINUOUS
10
4.953055
20
-4.700449527559055
11
4.9553149606299209
21
-4.7000000000000002
0
LINE
8
BLACK
6
CONTINUOUS
10
4.9553149606299209
20
-4.7000000000000002
11
4.9671259842519682
21
-4.7000000000000002
0
LINE
8
BLACK
6
CONTINUOUS
10
4.9671259842519682
20
-4.7000000000000002
11
4.96938594488189
21
-4.700449527559055
0
LINE
8
BLACK
6
CONTINUOUS
10
5.0185985433070863
20
-4.700449527559055
11
5.0205144094488192
21
-4.7017296850393704
0
LINE
8
BLACK
6
CONTINUOUS
10
5.0205144094488192
20
-4.7017296850393704
11
5.0217945669291337
21
-4.7036455511811024
0
LINE
8
BLACK
6
CONTINUOUS
10
5.0217945669291337
20
-4.7036455511811024
11
5.0222440944881885
21
-4.7059055118110233
0
LINE
8
BLACK
6
CONTINUOUS
10
5.0222440944881885
20
-4.7059055118110233
11
5.0222440944881885
21
-4.7610236220472437
0
LINE
8
BLACK
6
CONTINUOUS
10
5.0222440944881885
20
-4.7610236220472437
11
5.0217945669291337
21
-4.7632835826771656
0
LINE
8
BLACK
6
CONTINUOUS
10
5.0217945669291337
20
-4.7632835826771656
11
5.0205144094488192
21
-4.7651994488188976
0
LINE
8
BLACK
6
CONTINUOUS
10
5.0205144094488192
20
-4.7651994488188976
11
5.0185985433070863
21
-4.7664796062992121
0
LINE
8
BLACK
6
CONTINUOUS
10
5.0185985433070863
20
-4.7664796062992121
11
5.0163385826771654
21
-4.7669291338582678
0
LINE
8
BLACK
6
CONTINUOUS
10
5.0163385826771654
20
-4.7669291338582678
11
5.0045275590551181
21
-4.7669291338582678
0
LINE
8
BLACK
6
CONTINUOUS
10
5.0045275590551181
20
-4.7669291338582678
11
5.0022675984251963
21
-4.7664796062992121
0
LINE
8
BLACK
6
CONTINUOUS
10
5.0022675984251963
20
-4.7664796062992121
11
5.0003517322834643
21
-4.7651994488188976
0
LINE
8
BLACK
6
CONTINUOUS
10
5.0003517322834643
20
-4.7651994488188976
11
4.9990715748031498
21
-4.7632835826771656
0
LINE
8
BLACK
6
CONTINUOUS
10
4.9990715748031498
20
-4.7632835826771656
11
4.9986220472440941
21
-4.7610236220472437
0
LINE
8
BLACK
6
CONTINUOUS
10
4.9986220472440941
20
-4.7610236220472437
11
4.9986220472440941
21
-4.7059055118110233
0
LINE
8
BLACK
6
CONTINUOUS
10
4.9986220472440941
20
-4.7059055118110233
11
4.9990715748031498
21
-4.7036455511811024
0
LINE
8
BLACK
6
CONTINUOUS
10
4.9990715748031498
20
-4.7036455511811024
11
5.0003517322834643
21
-4.7017296850393704
0
LINE
8
BLACK
6
CONTINUOUS
10
5.0003517322834643
20
-4.7017296850393704
11
5.0022675984251963
21
-4.700449527559055
0
LINE
8
BLACK
6
CONTINUOUS
10
5.0022675984251963
20
-4.700449527559055
11
5.0045275590551181
21
-4.7000000000000002
0
LINE
8
BLACK
6
CONTINUOUS
10
5.0045275590551181
20
-4.7000000000000002
11
5.0163385826771654
21
-4.7000000000000002
0
LINE
8
BLACK
6
CONTINUOUS
10
5.0163385826771654
20
-4.7000000000000002
11
5.0185985433070863
21
-4.700449527559055
0
LINE
8
BLACK
6
CONTINUOUS
10
5.0678111417322835
20
-4.700449527559055
11
5.0697270078740155
21
-4.7017296850393704
0
LINE
8
BLACK
6
CONTINUOUS
10
5.0697270078740155
20
-4.7017296850393704
11
5.0710071653543309
21
-4.7036455511811024
0
LINE
8
BLACK
6
CONTINUOUS
10
5.0710071653543309
20
-4.7036455511811024
11
5.0714566929133857
21
-4.7059055118110233
0
LINE
8
BLACK
6
CONTINUOUS
10
5.0714566929133857
20
-4.7059055118110233
11
5.0714566929133857
21
-4.7610236220472437
0
LINE
8
BLACK
6
CONTINUOUS
10
5.0714566929133857
20
-4.7610236220472437
11
5.0710071653543309
21
-4.7632835826771656
0
LINE
8
BLACK
6
CONTINUOUS
10
5.0710071653543309
20
-4.7632835826771656
11
5.0697270078740155
21
-4.7651994488188976
0
LINE
8
BLACK
6
CONTINUOUS
10
5.0697270078740155
20
-4.7651994488188976
11
5.0678111417322835
21
-4.7664796062992121
0
LINE
8
BLACK
6
CONTINUOUS
10
5.0678111417322835
20
-4.7664796062992121
11
5.0655511811023617
21
-4.7669291338582678
0
LINE
8
BLACK
6
CONTINUOUS
10
5.0655511811023617
20
-4.7669291338582678
11
5.0537401574803145
21
-4.7669291338582678
0
LINE
8
BLACK
6
CONTINUOUS
10
5.0537401574803145
20
-4.7669291338582678
11
5.0514801968503935
21
-4.7664796062992121
0
LINE
8
BLACK
6
CONTINUOUS
10
5.0514801968503935
20
-4.7664796062992121
11
5.0495643307086615
21
-4.7651994488188976
0
LINE
8
BLACK
6
CONTINUOUS
10
5.0495643307086615
20
-4.7651994488188976
11
5.0482841732283461
21
-4.7632835826771656
0
LINE
8
BLACK
6
CONTINUOUS
10
5.0482841732283461
20
-4.7632835826771656
11
5.0478346456692913
21
-4.7610236220472437
0
LINE
8
BLACK
6
CONTINUOUS
10
5.0478346456692913
20
-4.7610236220472437
11
5.0478346456692913
21
-4.7059055118110233
0
LINE
8
BLACK
6
CONTINUOUS
10
5.0478346456692913
20
-4.7059055118110233
11
5.0482841732283461
21
-4.7036455511811024
0
LINE
8
BLACK
6
CONTINUOUS
10
5.0482841732283461
20
-4.7036455511811024
11
5.0495643307086615
21
-4.7017296850393704
0
LINE
8
BLACK
6
CONTINUOUS
10
5.0495643307086615
20
-4.7017296850393704
11
5.0514801968503935
21
-4.700449527559055
0
LINE
8
BLACK
6
CONTINUOUS
10
5.0514801968503935
20
-4.700449527559055
11
5.0537401574803145
21
-4.7000000000000002
0
LINE
8
BLACK
6
CONTINUOUS
10
5.0537401574803145
20
-4.7000000000000002
11
5.0655511811023617
21
-4.7000000000000002
0
LINE
8
BLACK
6
CONTINUOUS
10
5.0655511811023617
20
-4.7000000000000002
11
5.0678111417322835
21
-4.700449527559055
0
LINE
8
BLACK
6
CONTINUOUS
10
5.1170237401574798
20
-4.700449527559055
11
5.1189396062992127
21
-4.7017296850393704
0
LINE
8
BLACK
6
CONTINUOUS
10
5.1189396062992127
20
-4.7017296850393704
11
5.1202197637795273
21
-4.7036455511811024
0
LINE
8
BLACK
6
CONTINUOUS
10
5.1202197637795273
20
-4.7036455511811024
11
5.120669291338583
21
-4.7059055118110233
0
LINE
8
BLACK
6
CONTINUOUS
10
5.120669291338583
20
-4.7059055118110233
11
5.120669291338583
21
-4.7610236220472437
0
LINE
8
BLACK
6
CONTINUOUS
10
5.120669291338583
20
-4.7610236220472437
11
5.1202197637795273
21
-4.7632835826771656
0
LINE
8
BLACK
6
CONTINUOUS
10
5.1202197637795273
20
-4.7632835826771656
11
5.1189396062992127
21
-4.7651994488188976
0
LINE
8
BLACK
6
CONTINUOUS
10
5.1189396062992127
20
-4.7651994488188976
11
5.1170237401574798
21
-4.7664796062992121
0
LINE
8
BLACK
6
CONTINUOUS
10
5.1170237401574798
20
-4.7664796062992121
11
5.1147637795275589
21
-4.7669291338582678
0
LINE
8
BLACK
6
CONTINUOUS
10
5.1147637795275589
20
-4.7669291338582678
11
5.1029527559055117
21
-4.7669291338582678
0
LINE
8
BLACK
6
CONTINUOUS
10
5.1029527559055117
20
-4.7669291338582678
11
5.1006927952755907
21
-4.7664796062992121
0
LINE
8
BLACK
6
CONTINUOUS
10
5.1006927952755907
20
-4.7664796062992121
11
5.0987769291338578
21
-4.7651994488188976
0
LINE
8
BLACK
6
CONTINUOUS
10
5.0987769291338578
20
-4.7651994488188976
11
5.0974967716535433
21
-4.7632835826771656
0
LINE
8
BLACK
6
CONTINUOUS
10
5.0974967716535433
20
-4.7632835826771656
11
5.0970472440944885
21
-4.7610236220472437
0
LINE
8
BLACK
6
CONTINUOUS
10
5.0970472440944885
20
-4.7610236220472437
11
5.0970472440944885
21
-4.7059055118110233
0
LINE
8
BLACK
6
CONTINUOUS
10
5.0970472440944885
20
-4.7059055118110233
11
5.0974967716535433
21
-4.7036455511811024
0
LINE
8
BLACK
6
CONTINUOUS
10
5.0974967716535433
20
-4.7036455511811024
11
5.0987769291338578
21
-4.7017296850393704
0
LINE
8
BLACK
6
CONTINUOUS
10
5.0987769291338578
20
-4.7017296850393704
11
5.1006927952755907
21
-4.700449527559055
0
LINE
8
BLACK
6
CONTINUOUS
10
5.1006927952755907
20
-4.700449527559055
11
5.1029527559055117
21
-4.7000000000000002
0
LINE
8
BLACK
6
CONTINUOUS
10
5.1029527559055117
20
-4.7000000000000002
11
5.1147637795275589
21
-4.7000000000000002
0
LINE
8
BLACK
6
CONTINUOUS
10
5.1147637795275589
20
-4.7000000000000002
11
5.1170237401574798
21
-4.700449527559055
0
LINE
8
BLACK
6
CONTINUOUS
10
5.1662363385826771
20
-4.700449527559055
11
5.1681522047244091
21
-4.7017296850393704
0
LINE
8
BLACK
6
CONTINUOUS
10
5.1681522047244091
20
-4.7017296850393704
11
5.1694323622047245
21
-4.7036455511811024
0
LINE
8
BLACK
6
CONTINUOUS
10
5.1694323622047245
20
-4.7036455511811024
11
5.1698818897637793
21
-4.7059055118110233
0
LINE
8
BLACK
6
CONTINUOUS
10
5.1698818897637793
20
-4.7059055118110233
11
5.1698818897637793
21
-4.7610236220472437
0
LINE
8
BLACK
6
CONTINUOUS
10
5.1698818897637793
20
-4.7610236220472437
11
5.1694323622047245
21
-4.7632835826771656
0
LINE
8
BLACK
6
CONTINUOUS
10
5.1694323622047245
20
-4.7632835826771656
11
5.1681522047244091
21
-4.7651994488188976
0
LINE
8
BLACK
6
CONTINUOUS
10
5.1681522047244091
20
-4.7651994488188976
11
5.1662363385826771
21
-4.7664796062992121
0
LINE
8
BLACK
6
CONTINUOUS
10
5.1662363385826771
20
-4.7664796062992121
11
5.1639763779527561
21
-4.7669291338582678
0
LINE
8
BLACK
6
CONTINUOUS
10
5.1639763779527561
20
-4.7669291338582678
11
5.1521653543307089
21
-4.7669291338582678
0
LINE
8
BLACK
6
CONTINUOUS
10
5.1521653543307089
20
-4.7669291338582678
11
5.149905393700787
21
-4.7664796062992121
0
LINE
8
BLACK
6
CONTINUOUS
10
5.149905393700787
20
-4.7664796062992121
11
5.147989527559055
21
-4.7651994488188976
0
LINE
8
BLACK
6
CONTINUOUS
10
5.147989527559055
20
-4.7651994488188976
11
5.1467093700787396
21
-4.7632835826771656
0
LINE
8
BLACK
6
CONTINUOUS
10
5.1467093700787396
20
-4.7632835826771656
11
5.1462598425196848
21
-4.7610236220472437
0
LINE
8
BLACK
6
CONTINUOUS
10
5.1462598425196848
20
-4.7610236220472437
11
5.1462598425196848
21
-4.7059055118110233
0
LINE
8
BLACK
6
CONTINUOUS
10
5.1462598425196848
20
-4.7059055118110233
11
5.1467093700787396
21
-4.7036455511811024
0
LINE
8
BLACK
6
CONTINUOUS
10
5.1467093700787396
20
-4.7036455511811024
11
5.147989527559055
21
-4.7017296850393704
0
LINE
8
BLACK
6
CONTINUOUS
10
5.147989527559055
20
-4.7017296850393704
11
5.149905393700787
21
-4.700449527559055
0
LINE
8
BLACK
6
CONTINUOUS
10
5.149905393700787
20
-4.700449527559055
11
5.1521653543307089
21
-4.7000000000000002
0
LINE
8
BLACK
6
CONTINUOUS
10
5.1521653543307089
20
-4.7000000000000002
11
5.1639763779527561
21
-4.7000000000000002
0
LINE
8
BLACK
6
CONTINUOUS
10
5.1639763779527561
20
-4.7000000000000002
11
5.1662363385826771
21
-4.700449527559055
0
LINE
8
BLACK
6
CONTINUOUS
10
5.2154489370078743
20
-4.700449527559055
11
5.2173648031496063
21
-4.7017296850393704
0
LINE
8
BLACK
6
CONTINUOUS
10
5.2173648031496063
20
-4.7017296850393704
11
5.2186449606299208
21
-4.7036455511811024
0
LINE
8
BLACK
6
CONTINUOUS
10
5.2186449606299208
20
-4.7036455511811024
11
5.2190944881889765
21
-4.7059055118110233
0
LINE
8
BLACK
6
CONTINUOUS
10
5.2190944881889765
20
-4.7059055118110233
11
5.2190944881889765
21
-4.7610236220472437
0
LINE
8
BLACK
6
CONTINUOUS
10
5.2190944881889765
20
-4.7610236220472437
11
5.2186449606299208
21
-4.7632835826771656
0
LINE
8
BLACK
6
CONTINUOUS
10
5.2186449606299208
20
-4.7632835826771656
11
5.2173648031496063
21
-4.7651994488188976
0
LINE
8
BLACK
6
CONTINUOUS
10
5.2173648031496063
20
-4.7651994488188976
11
5.2154489370078743
21
-4.7664796062992121
0
LINE
8
BLACK
6
CONTINUOUS
10
5.2154489370078743
20
-4.7664796062992121
11
5.2131889763779524
21
-4.7669291338582678
0
LINE
8
BLACK
6
CONTINUOUS
10
5.2131889763779524
20
-4.7669291338582678
11
5.2013779527559052
21
-4.7669291338582678
0
LINE
8
BLACK
6
CONTINUOUS
10
5.2013779527559052
20
-4.7669291338582678
11
5.1991179921259842
21
-4.7664796062992121
0
LINE
8
BLACK
6
CONTINUOUS
10
5.1991179921259842
20
-4.7664796062992121
11
5.1972021259842522
21
-4.7651994488188976
0
LINE
8
BLACK
6
CONTINUOUS
10
5.1972021259842522
20
-4.7651994488188976
11
5.1959219685039368
21
-4.7632835826771656
0
LINE
8
BLACK
6
CONTINUOUS
10
5.1959219685039368
20
-4.7632835826771656
11
5.195472440944882
21
-4.7610236220472437
0
LINE
8
BLACK
6
CONTINUOUS
10
5.195472440944882
20
-4.7610236220472437
11
5.195472440944882
21
-4.7059055118110233
0
LINE
8
BLACK
6
CONTINUOUS
10
5.195472440944882
20
-4.7059055118110233
11
5.1959219685039368
21
-4.7036455511811024
0
LINE
8
BLACK
6
CONTINUOUS
10
5.1959219685039368
20
-4.7036455511811024
11
5.1972021259842522
21
-4.7017296850393704
0
LINE
8
BLACK
6
CONTINUOUS
10
5.1972021259842522
20
-4.7017296850393704
11
5.1991179921259842
21
-4.700449527559055
0
LINE
8
BLACK
6
CONTINUOUS
10
5.1991179921259842
20
-4.700449527559055
11
5.2013779527559052
21
-4.7000000000000002
0
LINE
8
BLACK
6
CONTINUOUS
10
5.2013779527559052
20
-4.7000000000000002
11
5.2131889763779524
21
-4.7000000000000002
0
LINE
8
BLACK
6
CONTINUOUS
10
5.2131889763779524
20
-4.7000000000000002
11
5.2154489370078743
21
-4.700449527559055
0
LINE
8
BLACK
6
CONTINUOUS
10
5.8901536614173224
20
-4.6455282677165357
11
5.8920695275590553
21
-4.6468084251968502
0
LINE
8
BLACK
6
CONTINUOUS
10
5.8920695275590553
20
-4.6468084251968502
11
5.8933496850393698
21
-4.6487242913385822
0
LINE
8
BLACK
6
CONTINUOUS
10
5.8933496850393698
20
-4.6487242913385822
11
5.8937992125984247
21
-4.6509842519685041
0
LINE
8
BLACK
6
CONTINUOUS
10
5.8937992125984247
20
-4.6509842519685041
11
5.8937992125984247
21
-4.6913385826771652
0
LINE
8
BLACK
6
CONTINUOUS
10
5.8937992125984247
20
-4.6913385826771652
11
5.8933496850393698
21
-4.6935985433070861
0
LINE
8
BLACK
6
CONTINUOUS
10
5.8933496850393698
20
-4.6935985433070861
11
5.8920695275590553
21
-4.695514409448819
0
LINE
8
BLACK
6
CONTINUOUS
10
5.8920695275590553
20
-4.695514409448819
11
5.8901536614173224
21
-4.6967945669291336
0
LINE
8
BLACK
6
CONTINUOUS
10
5.8901536614173224
20
-4.6967945669291336
11
5.8878937007874015
21
-4.6972440944881892
0
LINE
8
BLACK
6
CONTINUOUS
10
5.8878937007874015
20
-4.6972440944881892
11
5.8760826771653543
21
-4.6972440944881892
0
LINE
8
BLACK
6
CONTINUOUS
10
5.8760826771653543
20
-4.6972440944881892
11
5.8738227165354333
21
-4.6967945669291336
0
LINE
8
BLACK
6
CONTINUOUS
10
5.8738227165354333
20
-4.6967945669291336
11
5.8719068503937004
21
-4.695514409448819
0
LINE
8
BLACK
6
CONTINUOUS
10
5.8719068503937004
20
-4.695514409448819
11
5.8706266929133859
21
-4.6935985433070861
0
LINE
8
BLACK
6
CONTINUOUS
10
5.8706266929133859
20
-4.6935985433070861
11
5.8701771653543302
21
-4.6913385826771652
0
LINE
8
BLACK
6
CONTINUOUS
10
5.8701771653543302
20
-4.6913385826771652
11
5.8701771653543302
21
-4.6509842519685041
0
LINE
8
BLACK
6
CONTINUOUS
10
5.8701771653543302
20
-4.6509842519685041
11
5.8706266929133859
21
-4.6487242913385822
0
LINE
8
BLACK
6
CONTINUOUS
10
5.8706266929133859
20
-4.6487242913385822
11
5.8719068503937004
21
-4.6468084251968502
0
LINE
8
BLACK
6
CONTINUOUS
10
5.8719068503937004
20
-4.6468084251968502
11
5.8738227165354333
21
-4.6455282677165357
0
LINE
8
BLACK
6
CONTINUOUS
10
5.8738227165354333
20
-4.6455282677165357
11
5.8760826771653543
21
-4.64507874015748
0
LINE
8
BLACK
6
CONTINUOUS
10
5.8760826771653543
20
-4.64507874015748
11
5.8878937007874015
21
-4.64507874015748
0
LINE
8
BLACK
6
CONTINUOUS
10
5.8878937007874015
20
-4.64507874015748
11
5.8901536614173224
21
-4.6455282677165357
0
LINE
8
BLACK
6
CONTINUOUS
10
5.9649568110236215
20
-4.6455282677165357
11
5.9668726771653544
21
-4.6468084251968502
0
LINE
8
BLACK
6
CONTINUOUS
10
5.9668726771653544
20
-4.6468084251968502
11
5.9681528346456689
21
-4.6487242913385822
0
LINE
8
BLACK
6
CONTINUOUS
10
5.9681528346456689
20
-4.6487242913385822
11
5.9686023622047246
21
-4.6509842519685041
0
LINE
8
BLACK
6
CONTINUOUS
10
5.9686023622047246
20
-4.6509842519685041
11
5.9686023622047246
21
-4.6913385826771652
0
LINE
8
BLACK
6
CONTINUOUS
10
5.9686023622047246
20
-4.6913385826771652
11
5.9681528346456689
21
-4.6935985433070861
0
LINE
8
BLACK
6
CONTINUOUS
10
5.9681528346456689
20
-4.6935985433070861
11
5.9668726771653544
21
-4.695514409448819
0
LINE
8
BLACK
6
CONTINUOUS
10
5.9668726771653544
20
-4.695514409448819
11
5.9649568110236215
21
-4.6967945669291336
0
LINE
8
BLACK
6
CONTINUOUS
10
5.9649568110236215
20
-4.6967945669291336
11
5.9626968503937006
21
-4.6972440944881892
0
LINE
8
BLACK
6
CONTINUOUS
10
5.9626968503937006
20
-4.6972440944881892
11
5.9508858267716533
21
-4.6972440944881892
0
LINE
8
BLACK
6
CONTINUOUS
10
5.9508858267716533
20
-4.6972440944881892
11
5.9486258661417324
21
-4.6967945669291336
0
LINE
8
BLACK
6
CONTINUOUS
10
5.9486258661417324
20
-4.6967945669291336
11
5.9467099999999995
21
-4.695514409448819
0
LINE
8
BLACK
6
CONTINUOUS
10
5.9467099999999995
20
-4.695514409448819
11
5.945429842519685
21
-4.6935985433070861
0
LINE
8
BLACK
6
CONTINUOUS
10
5.945429842519685
20
-4.6935985433070861
11
5.9449803149606302
21
-4.6913385826771652
0
LINE
8
BLACK
6
CONTINUOUS
10
5.9449803149606302
20
-4.6913385826771652
11
5.9449803149606302
21
-4.6509842519685041
0
LINE
8
BLACK
6
CONTINUOUS
10
5.9449803149606302
20
-4.6509842519685041
11
5.945429842519685
21
-4.6487242913385822
0
LINE
8
BLACK
6
CONTINUOUS
10
5.945429842519685
20
-4.6487242913385822
11
5.9467099999999995
21
-4.6468084251968502
0
LINE
8
BLACK
6
CONTINUOUS
10
5.9467099999999995
20
-4.6468084251968502
11
5.9486258661417324
21
-4.6455282677165357
0
LINE
8
BLACK
6
CONTINUOUS
10
5.9486258661417324
20
-4.6455282677165357
11
5.9508858267716533
21
-4.64507874015748
0
LINE
8
BLACK
6
CONTINUOUS
10
5.9508858267716533
20
-4.64507874015748
11
5.9626968503937006
21
-4.64507874015748
0
LINE
8
BLACK
6
CONTINUOUS
10
5.9626968503937006
20
-4.64507874015748
11
5.9649568110236215
21
-4.6455282677165357
0
LINE
8
BLACK
6
CONTINUOUS
10
5.6346720866141728
20
-4.6019303149606294
11
5.6378652362204722
21
-4.6040638976377952
0
LINE
8
BLACK
6
CONTINUOUS
10
5.6378652362204722
20
-4.6040638976377952
11
5.639998818897638
21
-4.6072570472440946
0
LINE
8
BLACK
6
CONTINUOUS
10
5.639998818897638
20
-4.6072570472440946
11
5.640748031496063
21
-4.6110236220472443
0
LINE
8
BLACK
6
CONTINUOUS
10
5.640748031496063
20
-4.6110236220472443
11
5.640748031496063
21
-4.6356299212598424
0
LINE
8
BLACK
6
CONTINUOUS
10
5.640748031496063
20
-4.6356299212598424
11
5.639998818897638
21
-4.6393964960629921
0
LINE
8
BLACK
6
CONTINUOUS
10
5.639998818897638
20
-4.6393964960629921
11
5.6378652362204722
21
-4.6425896456692914
0
LINE
8
BLACK
6
CONTINUOUS
10
5.6378652362204722
20
-4.6425896456692914
11
5.6346720866141728
21
-4.6447232283464563
0
LINE
8
BLACK
6
CONTINUOUS
10
5.6346720866141728
20
-4.6447232283464563
11
5.6309055118110232
21
-4.6454724409448822
0
LINE
8
BLACK
6
CONTINUOUS
10
5.6309055118110232
20
-4.6454724409448822
11
5.5816929133858268
21
-4.6454724409448822
0
LINE
8
BLACK
6
CONTINUOUS
10
5.5816929133858268
20
-4.6454724409448822
11
5.5779263385826772
21
-4.6447232283464563
0
LINE
8
BLACK
6
CONTINUOUS
10
5.5779263385826772
20
-4.6447232283464563
11
5.5747331889763778
21
-4.6425896456692914
0
LINE
8
BLACK
6
CONTINUOUS
10
5.5747331889763778
20
-4.6425896456692914
11
5.5725996062992129
21
-4.6393964960629921
0
LINE
8
BLACK
6
CONTINUOUS
10
5.5725996062992129
20
-4.6393964960629921
11
5.5718503937007871
21
-4.6356299212598424
0
LINE
8
BLACK
6
CONTINUOUS
10
5.5718503937007871
20
-4.6356299212598424
11
5.5718503937007871
21
-4.6110236220472443
0
LINE
8
BLACK
6
CONTINUOUS
10
5.5718503937007871
20
-4.6110236220472443
11
5.5725996062992129
21
-4.6072570472440946
0
LINE
8
BLACK
6
CONTINUOUS
10
5.5725996062992129
20
-4.6072570472440946
11
5.5747331889763778
21
-4.6040638976377952
0
LINE
8
BLACK
6
CONTINUOUS
10
5.5747331889763778
20
-4.6040638976377952
11
5.5779263385826772
21
-4.6019303149606294
0
LINE
8
BLACK
6
CONTINUOUS
10
5.5779263385826772
20
-4.6019303149606294
11
5.5816929133858268
21
-4.6011811023622045
0
LINE
8
BLACK
6
CONTINUOUS
10
5.5816929133858268
20
-4.6011811023622045
11
5.6309055118110232
21
-4.6011811023622045
0
LINE
8
BLACK
6
CONTINUOUS
10
5.6309055118110232
20
-4.6011811023622045
11
5.6346720866141728
21
-4.6019303149606294
0
LINE
8
BLACK
6
CONTINUOUS
10
4.8435303543307082
20
-4.5743712598425192
11
4.8467235039370076
21
-4.576504842519685
0
LINE
8
BLACK
6
CONTINUOUS
10
4.8467235039370076
20
-4.576504842519685
11
4.8488570866141734
21
-4.5796979921259844
0
LINE
8
BLACK
6
CONTINUOUS
10
4.8488570866141734
20
-4.5796979921259844
11
4.8496062992125983
21
-4.5834645669291341
0
LINE
8
BLACK
6
CONTINUOUS
10
4.8496062992125983
20
-4.5834645669291341
11
4.8496062992125983
21
-4.6188976377952757
0
LINE
8
BLACK
6
CONTINUOUS
10
4.8496062992125983
20
-4.6188976377952757
11
4.8488570866141734
21
-4.6226642125984254
0
LINE
8
BLACK
6
CONTINUOUS
10
4.8488570866141734
20
-4.6226642125984254
11
4.8467235039370076
21
-4.6258573622047239
0
LINE
8
BLACK
6
CONTINUOUS
10
4.8467235039370076
20
-4.6258573622047239
11
4.8435303543307082
21
-4.6279909448818897
0
LINE
8
BLACK
6
CONTINUOUS
10
4.8435303543307082
20
-4.6279909448818897
11
4.8397637795275585
21
-4.6287401574803146
0
LINE
8
BLACK
6
CONTINUOUS
10
4.8397637795275585
20
-4.6287401574803146
11
4.8190944881889761
21
-4.6287401574803146
0
LINE
8
BLACK
6
CONTINUOUS
10
4.8190944881889761
20
-4.6287401574803146
11
4.8153279133858264
21
-4.6279909448818897
0
LINE
8
BLACK
6
CONTINUOUS
10
4.8153279133858264
20
-4.6279909448818897
11
4.8121347637795271
21
-4.6258573622047239
0
LINE
8
BLACK
6
CONTINUOUS
10
4.8121347637795271
20
-4.6258573622047239
11
4.8100011811023622
21
-4.6226642125984254
0
LINE
8
BLACK
6
CONTINUOUS
10
4.8100011811023622
20
-4.6226642125984254
11
4.8092519685039372
21
-4.6188976377952757
0
LINE
8
BLACK
6
CONTINUOUS
10
4.8092519685039372
20
-4.6188976377952757
11
4.8092519685039372
21
-4.5834645669291341
0
LINE
8
BLACK
6
CONTINUOUS
10
4.8092519685039372
20
-4.5834645669291341
11
4.8100011811023622
21
-4.5796979921259844
0
LINE
8
BLACK
6
CONTINUOUS
10
4.8100011811023622
20
-4.5796979921259844
11
4.8121347637795271
21
-4.576504842519685
0
LINE
8
BLACK
6
CONTINUOUS
10
4.8121347637795271
20
-4.576504842519685
11
4.8153279133858264
21
-4.5743712598425192
0
LINE
8
BLACK
6
CONTINUOUS
10
4.8153279133858264
20
-4.5743712598425192
11
4.8190944881889761
21
-4.5736220472440943
0
LINE
8
BLACK
6
CONTINUOUS
10
4.8190944881889761
20
-4.5736220472440943
11
4.8397637795275585
21
-4.5736220472440943
0
LINE
8
BLACK
6
CONTINUOUS
10
4.8397637795275585
20
-4.5736220472440943
11
4.8435303543307082
21
-4.5743712598425192
0
LINE
8
BLACK
6
CONTINUOUS
10
4.9153807480314962
20
-4.5743712598425192
11
4.9185738976377955
21
-4.576504842519685
0
LINE
8
BLACK
6
CONTINUOUS
10
4.9185738976377955
20
-4.576504842519685
11
4.9207074803149604
21
-4.5796979921259844
0
LINE
8
BLACK
6
CONTINUOUS
10
4.9207074803149604
20
-4.5796979921259844
11
4.9214566929133854
21
-4.5834645669291341
0
LINE
8
BLACK
6
CONTINUOUS
10
4.9214566929133854
20
-4.5834645669291341
11
4.9214566929133854
21
-4.6188976377952757
0
LINE
8
BLACK
6
CONTINUOUS
10
4.9214566929133854
20
-4.6188976377952757
11
4.9207074803149604
21
-4.6226642125984254
0
LINE
8
BLACK
6
CONTINUOUS
10
4.9207074803149604
20
-4.6226642125984254
11
4.9185738976377955
21
-4.6258573622047239
0
LINE
8
BLACK
6
CONTINUOUS
10
4.9185738976377955
20
-4.6258573622047239
11
4.9153807480314962
21
-4.6279909448818897
0
LINE
8
BLACK
6
CONTINUOUS
10
4.9153807480314962
20
-4.6279909448818897
11
4.9116141732283465
21
-4.6287401574803146
0
LINE
8
BLACK
6
CONTINUOUS
10
4.9116141732283465
20
-4.6287401574803146
11
4.8909448818897641
21
-4.6287401574803146
0
LINE
8
BLACK
6
CONTINUOUS
10
4.8909448818897641
20
-4.6287401574803146
11
4.8871783070866144
21
-4.6279909448818897
0
LINE
8
BLACK
6
CONTINUOUS
10
4.8871783070866144
20
-4.6279909448818897
11
4.883985157480315
21
-4.6258573622047239
0
LINE
8
BLACK
6
CONTINUOUS
10
4.883985157480315
20
-4.6258573622047239
11
4.8818515748031492
21
-4.6226642125984254
0
LINE
8
BLACK
6
CONTINUOUS
10
4.8818515748031492
20
-4.6226642125984254
11
4.8811023622047243
21
-4.6188976377952757
0
LINE
8
BLACK
6
CONTINUOUS
10
4.8811023622047243
20
-4.6188976377952757
11
4.8811023622047243
21
-4.5834645669291341
0
LINE
8
BLACK
6
CONTINUOUS
10
4.8811023622047243
20
-4.5834645669291341
11
4.8818515748031492
21
-4.5796979921259844
0
LINE
8
BLACK
6
CONTINUOUS
10
4.8818515748031492
20
-4.5796979921259844
11
4.883985157480315
21
-4.576504842519685
0
LINE
8
BLACK
6
CONTINUOUS
10
4.883985157480315
20
-4.576504842519685
11
4.8871783070866144
21
-4.5743712598425192
0
LINE
8
BLACK
6
CONTINUOUS
10
4.8871783070866144
20
-4.5743712598425192
11
4.8909448818897641
21
-4.5736220472440943
0
LINE
8
BLACK
6
CONTINUOUS
10
4.8909448818897641
20
-4.5736220472440943
11
4.9116141732283465
21
-4.5736220472440943
0
LINE
8
BLACK
6
CONTINUOUS
10
4.9116141732283465
20
-4.5736220472440943
11
4.9153807480314962
21
-4.5743712598425192
0
LINE
8
BLACK
6
CONTINUOUS
10
5.4817193307086614
20
-4.5826389763779529
11
5.4849124803149607
21
-4.5847725590551178
0
LINE
8
BLACK
6
CONTINUOUS
10
5.4849124803149607
20
-4.5847725590551178
11
5.4870460629921256
21
-4.5879657086614172
0
LINE
8
BLACK
6
CONTINUOUS
10
5.4870460629921256
20
-4.5879657086614172
11
5.4877952755905515
21
-4.5917322834645669
0
LINE
8
BLACK
6
CONTINUOUS
10
5.4877952755905515
20
-4.5917322834645669
11
5.4877952755905515
21
-4.6124015748031493
0
LINE
8
BLACK
6
CONTINUOUS
10
5.4877952755905515
20
-4.6124015748031493
11
5.4870460629921256
21
-4.616168149606299
0
LINE
8
BLACK
6
CONTINUOUS
10
5.4870460629921256
20
-4.616168149606299
11
5.4849124803149607
21
-4.6193612992125983
0
LINE
8
BLACK
6
CONTINUOUS
10
5.4849124803149607
20
-4.6193612992125983
11
5.4817193307086614
21
-4.6214948818897641
0
LINE
8
BLACK
6
CONTINUOUS
10
5.4817193307086614
20
-4.6214948818897641
11
5.4779527559055117
21
-4.6222440944881891
0
LINE
8
BLACK
6
CONTINUOUS
10
5.4779527559055117
20
-4.6222440944881891
11
5.44251968503937
21
-4.6222440944881891
0
LINE
8
BLACK
6
CONTINUOUS
10
5.44251968503937
20
-4.6222440944881891
11
5.4387531102362203
21
-4.6214948818897641
0
LINE
8
BLACK
6
CONTINUOUS
10
5.4387531102362203
20
-4.6214948818897641
11
5.435559960629921
21
-4.6193612992125983
0
LINE
8
BLACK
6
CONTINUOUS
10
5.435559960629921
20
-4.6193612992125983
11
5.4334263779527561
21
-4.616168149606299
0
LINE
8
BLACK
6
CONTINUOUS
10
5.4334263779527561
20
-4.616168149606299
11
5.4326771653543302
21
-4.6124015748031493
0
LINE
8
BLACK
6
CONTINUOUS
10
5.4326771653543302
20
-4.6124015748031493
11
5.4326771653543302
21
-4.5917322834645669
0
LINE
8
BLACK
6
CONTINUOUS
10
5.4326771653543302
20
-4.5917322834645669
11
5.4334263779527561
21
-4.5879657086614172
0
LINE
8
BLACK
6
CONTINUOUS
10
5.4334263779527561
20
-4.5879657086614172
11
5.435559960629921
21
-4.5847725590551178
0
LINE
8
BLACK
6
CONTINUOUS
10
5.435559960629921
20
-4.5847725590551178
11
5.4387531102362203
21
-4.5826389763779529
0
LINE
8
BLACK
6
CONTINUOUS
10
5.4387531102362203
20
-4.5826389763779529
11
5.44251968503937
21
-4.5818897637795271
0
LINE
8
BLACK
6
CONTINUOUS
10
5.44251968503937
20
-4.5818897637795271
11
5.4779527559055117
21
-4.5818897637795271
0
LINE
8
BLACK
6
CONTINUOUS
10
5.4779527559055117
20
-4.5818897637795271
11
5.4817193307086614
21
-4.5826389763779529
0
LINE
8
BLACK
6
CONTINUOUS
10
5.4017980708661417
20
-4.5822452755905507
11
5.4049912204724411
21
-4.5843788582677165
0
LINE
8
BLACK
6
CONTINUOUS
10
5.4049912204724411
20
-4.5843788582677165
11
5.407124803149606
21
-4.5875720078740159
0
LINE
8
BLACK
6
CONTINUOUS
10
5.407124803149606
20
-4.5875720078740159
11
5.4078740157480309
21
-4.5913385826771655
0
LINE
8
BLACK
6
CONTINUOUS
10
5.4078740157480309
20
-4.5913385826771655
11
5.4078740157480309
21
-4.612007874015748
0
LINE
8
BLACK
6
CONTINUOUS
10
5.4078740157480309
20
-4.612007874015748
11
5.407124803149606
21
-4.6157744488188976
0
LINE
8
BLACK
6
CONTINUOUS
10
5.407124803149606
20
-4.6157744488188976
11
5.4049912204724411
21
-4.618967598425197
0
LINE
8
BLACK
6
CONTINUOUS
10
5.4049912204724411
20
-4.618967598425197
11
5.4017980708661417
21
-4.6211011811023619
0
LINE
8
BLACK
6
CONTINUOUS
10
5.4017980708661417
20
-4.6211011811023619
11
5.398031496062992
21
-4.6218503937007869
0
LINE
8
BLACK
6
CONTINUOUS
10
5.398031496062992
20
-4.6218503937007869
11
5.3625984251968504
21
-4.6218503937007869
0
LINE
8
BLACK
6
CONTINUOUS
10
5.3625984251968504
20
-4.6218503937007869
11
5.3588318503937007
21
-4.6211011811023619
0
LINE
8
BLACK
6
CONTINUOUS
10
5.3588318503937007
20
-4.6211011811023619
11
5.3556387007874013
21
-4.618967598425197
0
LINE
8
BLACK
6
CONTINUOUS
10
5.3556387007874013
20
-4.618967598425197
11
5.3535051181102364
21
-4.6157744488188976
0
LINE
8
BLACK
6
CONTINUOUS
10
5.3535051181102364
20
-4.6157744488188976
11
5.3527559055118106
21
-4.612007874015748
0
LINE
8
BLACK
6
CONTINUOUS
10
5.3527559055118106
20
-4.612007874015748
11
5.3527559055118106
21
-4.5913385826771655
0
LINE
8
BLACK
6
CONTINUOUS
10
5.3527559055118106
20
-4.5913385826771655
11
5.3535051181102364
21
-4.5875720078740159
0
LINE
8
BLACK
6
CONTINUOUS
10
5.3535051181102364
20
-4.5875720078740159
11
5.3556387007874013
21
-4.5843788582677165
0
LINE
8
BLACK
6
CONTINUOUS
10
5.3556387007874013
20
-4.5843788582677165
11
5.3588318503937007
21
-4.5822452755905507
0
LINE
8
BLACK
6
CONTINUOUS
10
5.3588318503937007
20
-4.5822452755905507
11
5.3625984251968504
21
-4.5814960629921258
0
LINE
8
BLACK
6
CONTINUOUS
10
5.3625984251968504
20
-4.5814960629921258
11
5.398031496062992
21
-4.5814960629921258
0
LINE
8
BLACK
6
CONTINUOUS
10
5.398031496062992
20
-4.5814960629921258
11
5.4017980708661417
21
-4.5822452755905507
0
LINE
8
BLACK
6
CONTINUOUS
10
6.0102626377952753
20
-4.5832295275590553
11
6.0134557874015746
21
-4.5853631102362202
0
LINE
8
BLACK
6
CONTINUOUS
10
6.0134557874015746
20
-4.5853631102362202
11
6.0155893700787404
21
-4.5885562598425196
0
LINE
8
BLACK
6
CONTINUOUS
10
6.0155893700787404
20
-4.5885562598425196
11
6.0163385826771654
21
-4.5923228346456693
0
LINE
8
BLACK
6
CONTINUOUS
10
6.0163385826771654
20
-4.5923228346456693
11
6.0163385826771654
21
-4.612007874015748
0
LINE
8
BLACK
6
CONTINUOUS
10
6.0163385826771654
20
-4.612007874015748
11
6.0155893700787404
21
-4.6157744488188976
0
LINE
8
BLACK
6
CONTINUOUS
10
6.0155893700787404
20
-4.6157744488188976
11
6.0134557874015746
21
-4.618967598425197
0
LINE
8
BLACK
6
CONTINUOUS
10
6.0134557874015746
20
-4.618967598425197
11
6.0102626377952753
21
-4.6211011811023619
0
LINE
8
BLACK
6
CONTINUOUS
10
6.0102626377952753
20
-4.6211011811023619
11
6.0064960629921256
21
-4.6218503937007869
0
LINE
8
BLACK
6
CONTINUOUS
10
6.0064960629921256
20
-4.6218503937007869
11
5.9690944881889765
21
-4.6218503937007869
0
LINE
8
BLACK
6
CONTINUOUS
10
5.9690944881889765
20
-4.6218503937007869
11
5.9653279133858268
21
-4.6211011811023619
0
LINE
8
BLACK
6
CONTINUOUS
10
5.9653279133858268
20
-4.6211011811023619
11
5.9621347637795274
21
-4.618967598425197
0
LINE
8
BLACK
6
CONTINUOUS
10
5.9621347637795274
20
-4.618967598425197
11
5.9600011811023617
21
-4.6157744488188976
0
LINE
8
BLACK
6
CONTINUOUS
10
5.9600011811023617
20
-4.6157744488188976
11
5.9592519685039367
21
-4.612007874015748
0
LINE
8
BLACK
6
CONTINUOUS
10
5.9592519685039367
20
-4.612007874015748
11
5.9592519685039367
21
-4.5923228346456693
0
LINE
8
BLACK
6
CONTINUOUS
10
5.9592519685039367
20
-4.5923228346456693
11
5.9600011811023617
21
-4.5885562598425196
0
LINE
8
BLACK
6
CONTINUOUS
10
5.9600011811023617
20
-4.5885562598425196
11
5.9621347637795274
21
-4.5853631102362202
0
LINE
8
BLACK
6
CONTINUOUS
10
5.9621347637795274
20
-4.5853631102362202
11
5.9653279133858268
21
-4.5832295275590553
0
LINE
8
BLACK
6
CONTINUOUS
10
5.9653279133858268
20
-4.5832295275590553
11
5.9690944881889765
21
-4.5824803149606295
0
LINE
8
BLACK
6
CONTINUOUS
10
5.9690944881889765
20
-4.5824803149606295
11
6.0064960629921256
21
-4.5824803149606295
0
LINE
8
BLACK
6
CONTINUOUS
10
6.0064960629921256
20
-4.5824803149606295
11
6.0102626377952753
21
-4.5832295275590553
0
LINE
8
BLACK
6
CONTINUOUS
10
5.3214831102362208
20
-4.5810641732283459
11
5.3246762598425192
21
-4.5831977559055117
0
LINE
8
BLACK
6
CONTINUOUS
10
5.3246762598425192
20
-4.5831977559055117
11
5.326809842519685
21
-4.5863909055118111
0
LINE
8
BLACK
6
CONTINUOUS
10
5.326809842519685
20
-4.5863909055118111
11
5.32755905511811
21
-4.5901574803149607
0
LINE
8
BLACK
6
CONTINUOUS
10
5.32755905511811
20
-4.5901574803149607
11
5.32755905511811
21
-4.6108267716535432
0
LINE
8
BLACK
6
CONTINUOUS
10
5.32755905511811
20
-4.6108267716535432
11
5.326809842519685
21
-4.6145933464566928
0
LINE
8
BLACK
6
CONTINUOUS
10
5.326809842519685
20
-4.6145933464566928
11
5.3246762598425192
21
-4.6177864960629922
0
LINE
8
BLACK
6
CONTINUOUS
10
5.3246762598425192
20
-4.6177864960629922
11
5.3214831102362208
21
-4.6199200787401571
0
LINE
8
BLACK
6
CONTINUOUS
10
5.3214831102362208
20
-4.6199200787401571
11
5.3177165354330711
21
-4.620669291338583
0
LINE
8
BLACK
6
CONTINUOUS
10
5.3177165354330711
20
-4.620669291338583
11
5.2822834645669294
21
-4.620669291338583
0
LINE
8
BLACK
6
CONTINUOUS
10
5.2822834645669294
20
-4.620669291338583
11
5.2785168897637798
21
-4.6199200787401571
0
LINE
8
BLACK
6
CONTINUOUS
10
5.2785168897637798
20
-4.6199200787401571
11
5.2753237401574804
21
-4.6177864960629922
0
LINE
8
BLACK
6
CONTINUOUS
10
5.2753237401574804
20
-4.6177864960629922
11
5.2731901574803146
21
-4.6145933464566928
0
LINE
8
BLACK
6
CONTINUOUS
10
5.2731901574803146
20
-4.6145933464566928
11
5.2724409448818896
21
-4.6108267716535432
0
LINE
8
BLACK
6
CONTINUOUS
10
5.2724409448818896
20
-4.6108267716535432
11
5.2724409448818896
21
-4.5901574803149607
0
LINE
8
BLACK
6
CONTINUOUS
10
5.2724409448818896
20
-4.5901574803149607
11
5.2731901574803146
21
-4.5863909055118111
0
LINE
8
BLACK
6
CONTINUOUS
10
5.2731901574803146
20
-4.5863909055118111
11
5.2753237401574804
21
-4.5831977559055117
0
LINE
8
BLACK
6
CONTINUOUS
10
5.2753237401574804
20
-4.5831977559055117
11
5.2785168897637798
21
-4.5810641732283459
0
LINE
8
BLACK
6
CONTINUOUS
10
5.2785168897637798
20
-4.5810641732283459
11
5.2822834645669294
21
-4.5803149606299209
0
LINE
8
BLACK
6
CONTINUOUS
10
5.2822834645669294
20
-4.5803149606299209
11
5.3177165354330711
21
-4.5803149606299209
0
LINE
8
BLACK
6
CONTINUOUS
10
5.3177165354330711
20
-4.5803149606299209
11
5.3214831102362208
21
-4.5810641732283459
0
LINE
8
BLACK
6
CONTINUOUS
10
5.9297508267716532
20
-4.5804736220472444
11
5.9329439763779526
21
-4.5826072047244093
0
LINE
8
BLACK
6
CONTINUOUS
10
5.9329439763779526
20
-4.5826072047244093
11
5.9350775590551184
21
-4.5858003543307087
0
LINE
8
BLACK
6
CONTINUOUS
10
5.9350775590551184
20
-4.5858003543307087
11
5.9358267716535433
21
-4.5895669291338583
0
LINE
8
BLACK
6
CONTINUOUS
10
5.9358267716535433
20
-4.5895669291338583
11
5.9358267716535433
21
-4.6102362204724407
0
LINE
8
BLACK
6
CONTINUOUS
10
5.9358267716535433
20
-4.6102362204724407
11
5.9350775590551184
21
-4.6140027952755904
0
LINE
8
BLACK
6
CONTINUOUS
10
5.9350775590551184
20
-4.6140027952755904
11
5.9329439763779526
21
-4.6171959448818898
0
LINE
8
BLACK
6
CONTINUOUS
10
5.9329439763779526
20
-4.6171959448818898
11
5.9297508267716532
21
-4.6193295275590547
0
LINE
8
BLACK
6
CONTINUOUS
10
5.9297508267716532
20
-4.6193295275590547
11
5.9259842519685035
21
-4.6200787401574805
0
LINE
8
BLACK
6
CONTINUOUS
10
5.9259842519685035
20
-4.6200787401574805
11
5.8905511811023619
21
-4.6200787401574805
0
LINE
8
BLACK
6
CONTINUOUS
10
5.8905511811023619
20
-4.6200787401574805
11
5.8867846062992122
21
-4.6193295275590547
0
LINE
8
BLACK
6
CONTINUOUS
10
5.8867846062992122
20
-4.6193295275590547
11
5.8835914566929128
21
-4.6171959448818898
0
LINE
8
BLACK
6
CONTINUOUS
10
5.8835914566929128
20
-4.6171959448818898
11
5.8814578740157479
21
-4.6140027952755904
0
LINE
8
BLACK
6
CONTINUOUS
10
5.8814578740157479
20
-4.6140027952755904
11
5.880708661417323
21
-4.6102362204724407
0
LINE
8
BLACK
6
CONTINUOUS
10
5.880708661417323
20
-4.6102362204724407
11
5.880708661417323
21
-4.5895669291338583
0
LINE
8
BLACK
6
CONTINUOUS
10
5.880708661417323
20
-4.5895669291338583
11
5.8814578740157479
21
-4.5858003543307087
0
LINE
8
BLACK
6
CONTINUOUS
10
5.8814578740157479
20
-4.5858003543307087
11
5.8835914566929128
21
-4.5826072047244093
0
LINE
8
BLACK
6
CONTINUOUS
10
5.8835914566929128
20
-4.5826072047244093
11
5.8867846062992122
21
-4.5804736220472444
0
LINE
8
BLACK
6
CONTINUOUS
10
5.8867846062992122
20
-4.5804736220472444
11
5.8905511811023619
21
-4.5797244094488185
0
LINE
8
BLACK
6
CONTINUOUS
10
5.8905511811023619
20
-4.5797244094488185
11
5.9259842519685035
21
-4.5797244094488185
0
LINE
8
BLACK
6
CONTINUOUS
10
5.9259842519685035
20
-4.5797244094488185
11
5.9297508267716532
21
-4.5804736220472444
0
LINE
8
BLACK
6
CONTINUOUS
10
5.4817193307086614
20
-4.510788582677165
11
5.4849124803149607
21
-4.5129221653543308
0
LINE
8
BLACK
6
CONTINUOUS
10
5.4849124803149607
20
-4.5129221653543308
11
5.4870460629921256
21
-4.5161153149606301
0
LINE
8
BLACK
6
CONTINUOUS
10
5.4870460629921256
20
-4.5161153149606301
11
5.4877952755905515
21
-4.5198818897637798
0
LINE
8
BLACK
6
CONTINUOUS
10
5.4877952755905515
20
-4.5198818897637798
11
5.4877952755905515
21
-4.5405511811023622
0
LINE
8
BLACK
6
CONTINUOUS
10
5.4877952755905515
20
-4.5405511811023622
11
5.4870460629921256
21
-4.5443177559055119
0
LINE
8
BLACK
6
CONTINUOUS
10
5.4870460629921256
20
-4.5443177559055119
11
5.4849124803149607
21
-4.5475109055118113
0
LINE
8
BLACK
6
CONTINUOUS
10
5.4849124803149607
20
-4.5475109055118113
11
5.4817193307086614
21
-4.5496444881889762
0
LINE
8
BLACK
6
CONTINUOUS
10
5.4817193307086614
20
-4.5496444881889762
11
5.4779527559055117
21
-4.5503937007874011
0
LINE
8
BLACK
6
CONTINUOUS
10
5.4779527559055117
20
-4.5503937007874011
11
5.44251968503937
21
-4.5503937007874011
0
LINE
8
BLACK
6
CONTINUOUS
10
5.44251968503937
20
-4.5503937007874011
11
5.4387531102362203
21
-4.5496444881889762
0
LINE
8
BLACK
6
CONTINUOUS
10
5.4387531102362203
20
-4.5496444881889762
11
5.435559960629921
21
-4.5475109055118113
0
LINE
8
BLACK
6
CONTINUOUS
10
5.435559960629921
20
-4.5475109055118113
11
5.4334263779527561
21
-4.5443177559055119
0
LINE
8
BLACK
6
CONTINUOUS
10
5.4334263779527561
20
-4.5443177559055119
11
5.4326771653543302
21
-4.5405511811023622
0
LINE
8
BLACK
6
CONTINUOUS
10
5.4326771653543302
20
-4.5405511811023622
11
5.4326771653543302
21
-4.5198818897637798
0
LINE
8
BLACK
6
CONTINUOUS
10
5.4326771653543302
20
-4.5198818897637798
11
5.4334263779527561
21
-4.5161153149606301
0
LINE
8
BLACK
6
CONTINUOUS
10
5.4334263779527561
20
-4.5161153149606301
11
5.435559960629921
21
-4.5129221653543308
0
LINE
8
BLACK
6
CONTINUOUS
10
5.435559960629921
20
-4.5129221653543308
11
5.4387531102362203
21
-4.510788582677165
0
LINE
8
BLACK
6
CONTINUOUS
10
5.4387531102362203
20
-4.510788582677165
11
5.44251968503937
21
-4.51003937007874
0
LINE
8
BLACK
6
CONTINUOUS
10
5.44251968503937
20
-4.51003937007874
11
5.4779527559055117
21
-4.51003937007874
0
LINE
8
BLACK
6
CONTINUOUS
10
5.4779527559055117
20
-4.51003937007874
11
5.4817193307086614
21
-4.510788582677165
0
LINE
8
BLACK
6
CONTINUOUS
10
4.8439240551181104
20
-4.4956311023622044
11
4.8471172047244098
21
-4.4977646850393702
0
LINE
8
BLACK
6
CONTINUOUS
10
4.8471172047244098
20
-4.4977646850393702
11
4.8492507874015747
21
-4.5009578346456696
0
LINE
8
BLACK
6
CONTINUOUS
10
4.8492507874015747
20
-4.5009578346456696
11
4.8499999999999996
21
-4.5047244094488184
0
LINE
8
BLACK
6
CONTINUOUS
10
4.8499999999999996
20
-4.5047244094488184
11
4.8499999999999996
21
-4.5401574803149609
0
LINE
8
BLACK
6
CONTINUOUS
10
4.8499999999999996
20
-4.5401574803149609
11
4.8492507874015747
21
-4.5439240551181097
0
LINE
8
BLACK
6
CONTINUOUS
10
4.8492507874015747
20
-4.5439240551181097
11
4.8471172047244098
21
-4.5471172047244091
0
LINE
8
BLACK
6
CONTINUOUS
10
4.8471172047244098
20
-4.5471172047244091
11
4.8439240551181104
21
-4.5492507874015748
0
LINE
8
BLACK
6
CONTINUOUS
10
4.8439240551181104
20
-4.5492507874015748
11
4.8401574803149607
21
-4.5499999999999998
0
LINE
8
BLACK
6
CONTINUOUS
10
4.8401574803149607
20
-4.5499999999999998
11
4.8194881889763774
21
-4.5499999999999998
0
LINE
8
BLACK
6
CONTINUOUS
10
4.8194881889763774
20
-4.5499999999999998
11
4.8157216141732286
21
-4.5492507874015748
0
LINE
8
BLACK
6
CONTINUOUS
10
4.8157216141732286
20
-4.5492507874015748
11
4.8125284645669293
21
-4.5471172047244091
0
LINE
8
BLACK
6
CONTINUOUS
10
4.8125284645669293
20
-4.5471172047244091
11
4.8103948818897635
21
-4.5439240551181097
0
LINE
8
BLACK
6
CONTINUOUS
10
4.8103948818897635
20
-4.5439240551181097
11
4.8096456692913385
21
-4.5401574803149609
0
LINE
8
BLACK
6
CONTINUOUS
10
4.8096456692913385
20
-4.5401574803149609
11
4.8096456692913385
21
-4.5047244094488184
0
LINE
8
BLACK
6
CONTINUOUS
10
4.8096456692913385
20
-4.5047244094488184
11
4.8103948818897635
21
-4.5009578346456696
0
LINE
8
BLACK
6
CONTINUOUS
10
4.8103948818897635
20
-4.5009578346456696
11
4.8125284645669293
21
-4.4977646850393702
0
LINE
8
BLACK
6
CONTINUOUS
10
4.8125284645669293
20
-4.4977646850393702
11
4.8157216141732286
21
-4.4956311023622044
0
LINE
8
BLACK
6
CONTINUOUS
10
4.8157216141732286
20
-4.4956311023622044
11
4.8194881889763774
21
-4.4948818897637794
0
LINE
8
BLACK
6
CONTINUOUS
10
4.8194881889763774
20
-4.4948818897637794
11
4.8401574803149607
21
-4.4948818897637794
0
LINE
8
BLACK
6
CONTINUOUS
10
4.8401574803149607
20
-4.4948818897637794
11
4.8439240551181104
21
-4.4956311023622044
0
LINE
8
BLACK
6
CONTINUOUS
10
4.9157744488188975
20
-4.4956311023622044
11
4.9189675984251968
21
-4.4977646850393702
0
LINE
8
BLACK
6
CONTINUOUS
10
4.9189675984251968
20
-4.4977646850393702
11
4.9211011811023617
21
-4.5009578346456696
0
LINE
8
BLACK
6
CONTINUOUS
10
4.9211011811023617
20
-4.5009578346456696
11
4.9218503937007876
21
-4.5047244094488184
0
LINE
8
BLACK
6
CONTINUOUS
10
4.9218503937007876
20
-4.5047244094488184
11
4.9218503937007876
21
-4.5401574803149609
0
LINE
8
BLACK
6
CONTINUOUS
10
4.9218503937007876
20
-4.5401574803149609
11
4.9211011811023617
21
-4.5439240551181097
0
LINE
8
BLACK
6
CONTINUOUS
10
4.9211011811023617
20
-4.5439240551181097
11
4.9189675984251968
21
-4.5471172047244091
0
LINE
8
BLACK
6
CONTINUOUS
10
4.9189675984251968
20
-4.5471172047244091
11
4.9157744488188975
21
-4.5492507874015748
0
LINE
8
BLACK
6
CONTINUOUS
10
4.9157744488188975
20
-4.5492507874015748
11
4.9120078740157478
21
-4.5499999999999998
0
LINE
8
BLACK
6
CONTINUOUS
10
4.9120078740157478
20
-4.5499999999999998
11
4.8913385826771654
21
-4.5499999999999998
0
LINE
8
BLACK
6
CONTINUOUS
10
4.8913385826771654
20
-4.5499999999999998
11
4.8875720078740157
21
-4.5492507874015748
0
LINE
8
BLACK
6
CONTINUOUS
10
4.8875720078740157
20
-4.5492507874015748
11
4.8843788582677163
21
-4.5471172047244091
0
LINE
8
BLACK
6
CONTINUOUS
10
4.8843788582677163
20
-4.5471172047244091
11
4.8822452755905514
21
-4.5439240551181097
0
LINE
8
BLACK
6
CONTINUOUS
10
4.8822452755905514
20
-4.5439240551181097
11
4.8814960629921256
21
-4.5401574803149609
0
LINE
8
BLACK
6
CONTINUOUS
10
4.8814960629921256
20
-4.5401574803149609
11
4.8814960629921256
21
-4.5047244094488184
0
LINE
8
BLACK
6
CONTINUOUS
10
4.8814960629921256
20
-4.5047244094488184
11
4.8822452755905514
21
-4.5009578346456696
0
LINE
8
BLACK
6
CONTINUOUS
10
4.8822452755905514
20
-4.5009578346456696
11
4.8843788582677163
21
-4.4977646850393702
0
LINE
8
BLACK
6
CONTINUOUS
10
4.8843788582677163
20
-4.4977646850393702
11
4.8875720078740157
21
-4.4956311023622044
0
LINE
8
BLACK
6
CONTINUOUS
10
4.8875720078740157
20
-4.4956311023622044
11
4.8913385826771654
21
-4.4948818897637794
0
LINE
8
BLACK
6
CONTINUOUS
10
4.8913385826771654
20
-4.4948818897637794
11
4.9120078740157478
21
-4.4948818897637794
0
LINE
8
BLACK
6
CONTINUOUS
10
4.9120078740157478
20
-4.4948818897637794
11
4.9157744488188975
21
-4.4956311023622044
0
LINE
8
BLACK
6
CONTINUOUS
10
5.4017980708661417
20
-4.5103948818897637
11
5.4049912204724411
21
-4.5125284645669295
0
LINE
8
BLACK
6
CONTINUOUS
10
5.4049912204724411
20
-4.5125284645669295
11
5.407124803149606
21
-4.5157216141732279
0
LINE
8
BLACK
6
CONTINUOUS
10
5.407124803149606
20
-4.5157216141732279
11
5.4078740157480309
21
-4.5194881889763776
0
LINE
8
BLACK
6
CONTINUOUS
10
5.4078740157480309
20
-4.5194881889763776
11
5.4078740157480309
21
-4.5401574803149609
0
LINE
8
BLACK
6
CONTINUOUS
10
5.4078740157480309
20
-4.5401574803149609
11
5.407124803149606
21
-4.5439240551181097
0
LINE
8
BLACK
6
CONTINUOUS
10
5.407124803149606
20
-4.5439240551181097
11
5.4049912204724411
21
-4.5471172047244091
0
LINE
8
BLACK
6
CONTINUOUS
10
5.4049912204724411
20
-4.5471172047244091
11
5.4017980708661417
21
-4.5492507874015748
0
LINE
8
BLACK
6
CONTINUOUS
10
5.4017980708661417
20
-4.5492507874015748
11
5.398031496062992
21
-4.5499999999999998
0
LINE
8
BLACK
6
CONTINUOUS
10
5.398031496062992
20
-4.5499999999999998
11
5.3625984251968504
21
-4.5499999999999998
0
LINE
8
BLACK
6
CONTINUOUS
10
5.3625984251968504
20
-4.5499999999999998
11
5.3588318503937007
21
-4.5492507874015748
0
LINE
8
BLACK
6
CONTINUOUS
10
5.3588318503937007
20
-4.5492507874015748
11
5.3556387007874013
21
-4.5471172047244091
0
LINE
8
BLACK
6
CONTINUOUS
10
5.3556387007874013
20
-4.5471172047244091
11
5.3535051181102364
21
-4.5439240551181097
0
LINE
8
BLACK
6
CONTINUOUS
10
5.3535051181102364
20
-4.5439240551181097
11
5.3527559055118106
21
-4.5401574803149609
0
LINE
8
BLACK
6
CONTINUOUS
10
5.3527559055118106
20
-4.5401574803149609
11
5.3527559055118106
21
-4.5194881889763776
0
LINE
8
BLACK
6
CONTINUOUS
10
5.3527559055118106
20
-4.5194881889763776
11
5.3535051181102364
21
-4.5157216141732279
0
LINE
8
BLACK
6
CONTINUOUS
10
5.3535051181102364
20
-4.5157216141732279
11
5.3556387007874013
21
-4.5125284645669295
0
LINE
8
BLACK
6
CONTINUOUS
10
5.3556387007874013
20
-4.5125284645669295
11
5.3588318503937007
21
-4.5103948818897637
0
LINE
8
BLACK
6
CONTINUOUS
10
5.3588318503937007
20
-4.5103948818897637
11
5.3625984251968504
21
-4.5096456692913387
0
LINE
8
BLACK
6
CONTINUOUS
10
5.3625984251968504
20
-4.5096456692913387
11
5.398031496062992
21
-4.5096456692913387
0
LINE
8
BLACK
6
CONTINUOUS
10
5.398031496062992
20
-4.5096456692913387
11
5.4017980708661417
21
-4.5103948818897637
0
LINE
8
BLACK
6
CONTINUOUS
10
5.3214831102362208
20
-4.5092137795275589
11
5.3246762598425192
21
-4.5113473622047247
0
LINE
8
BLACK
6
CONTINUOUS
10
5.3246762598425192
20
-4.5113473622047247
11
5.326809842519685
21
-4.5145405118110231
0
LINE
8
BLACK
6
CONTINUOUS
10
5.326809842519685
20
-4.5145405118110231
11
5.32755905511811
21
-4.5183070866141728
0
LINE
8
BLACK
6
CONTINUOUS
10
5.32755905511811
20
-4.5183070866141728
11
5.32755905511811
21
-4.5389763779527561
0
LINE
8
BLACK
6
CONTINUOUS
10
5.32755905511811
20
-4.5389763779527561
11
5.326809842519685
21
-4.5427429527559058
0
LINE
8
BLACK
6
CONTINUOUS
10
5.326809842519685
20
-4.5427429527559058
11
5.3246762598425192
21
-4.5459361023622042
0
LINE
8
BLACK
6
CONTINUOUS
10
5.3246762598425192
20
-4.5459361023622042
11
5.3214831102362208
21
-4.54806968503937
0
LINE
8
BLACK
6
CONTINUOUS
10
5.3214831102362208
20
-4.54806968503937
11
5.3177165354330711
21
-4.548818897637795
0
LINE
8
BLACK
6
CONTINUOUS
10
5.3177165354330711
20
-4.548818897637795
11
5.2822834645669294
21
-4.548818897637795
0
LINE
8
BLACK
6
CONTINUOUS
10
5.2822834645669294
20
-4.548818897637795
11
5.2785168897637798
21
-4.54806968503937
0
LINE
8
BLACK
6
CONTINUOUS
10
5.2785168897637798
20
-4.54806968503937
11
5.2753237401574804
21
-4.5459361023622042
0
LINE
8
BLACK
6
CONTINUOUS
10
5.2753237401574804
20
-4.5459361023622042
11
5.2731901574803146
21
-4.5427429527559058
0
LINE
8
BLACK
6
CONTINUOUS
10
5.2731901574803146
20
-4.5427429527559058
11
5.2724409448818896
21
-4.5389763779527561
0
LINE
8
BLACK
6
CONTINUOUS
10
5.2724409448818896
20
-4.5389763779527561
11
5.2724409448818896
21
-4.5183070866141728
0
LINE
8
BLACK
6
CONTINUOUS
10
5.2724409448818896
20
-4.5183070866141728
11
5.2731901574803146
21
-4.5145405118110231
0
LINE
8
BLACK
6
CONTINUOUS
10
5.2731901574803146
20
-4.5145405118110231
11
5.2753237401574804
21
-4.5113473622047247
0
LINE
8
BLACK
6
CONTINUOUS
10
5.2753237401574804
20
-4.5113473622047247
11
5.2785168897637798
21
-4.5092137795275589
0
LINE
8
BLACK
6
CONTINUOUS
10
5.2785168897637798
20
-4.5092137795275589
11
5.2822834645669294
21
-4.5084645669291339
0
LINE
8
BLACK
6
CONTINUOUS
10
5.2822834645669294
20
-4.5084645669291339
11
5.3177165354330711
21
-4.5084645669291339
0
LINE
8
BLACK
6
CONTINUOUS
10
5.3177165354330711
20
-4.5084645669291339
11
5.3214831102362208
21
-4.5092137795275589
0
LINE
8
BLACK
6
CONTINUOUS
10
5.9297508267716532
20
-4.5086232283464565
11
5.9329439763779526
21
-4.5107568110236222
0
LINE
8
BLACK
6
CONTINUOUS
10
5.9329439763779526
20
-4.5107568110236222
11
5.9350775590551184
21
-4.5139499606299216
0
LINE
8
BLACK
6
CONTINUOUS
10
5.9350775590551184
20
-4.5139499606299216
11
5.9358267716535433
21
-4.5177165354330704
0
LINE
8
BLACK
6
CONTINUOUS
10
5.9358267716535433
20
-4.5177165354330704
11
5.9358267716535433
21
-4.5383858267716537
0
LINE
8
BLACK
6
CONTINUOUS
10
5.9358267716535433
20
-4.5383858267716537
11
5.9350775590551184
21
-4.5421524015748034
0
LINE
8
BLACK
6
CONTINUOUS
10
5.9350775590551184
20
-4.5421524015748034
11
5.9329439763779526
21
-4.5453455511811018
0
LINE
8
BLACK
6
CONTINUOUS
10
5.9329439763779526
20
-4.5453455511811018
11
5.9297508267716532
21
-4.5474791338582676
0
LINE
8
BLACK
6
CONTINUOUS
10
5.9297508267716532
20
-4.5474791338582676
11
5.9259842519685035
21
-4.5482283464566926
0
LINE
8
BLACK
6
CONTINUOUS
10
5.9259842519685035
20
-4.5482283464566926
11
5.8905511811023619
21
-4.5482283464566926
0
LINE
8
BLACK
6
CONTINUOUS
10
5.8905511811023619
20
-4.5482283464566926
11
5.8867846062992122
21
-4.5474791338582676
0
LINE
8
BLACK
6
CONTINUOUS
10
5.8867846062992122
20
-4.5474791338582676
11
5.8835914566929128
21
-4.5453455511811018
0
LINE
8
BLACK
6
CONTINUOUS
10
5.8835914566929128
20
-4.5453455511811018
11
5.8814578740157479
21
-4.5421524015748034
0
LINE
8
BLACK
6
CONTINUOUS
10
5.8814578740157479
20
-4.5421524015748034
11
5.880708661417323
21
-4.5383858267716537
0
LINE
8
BLACK
6
CONTINUOUS
10
5.880708661417323
20
-4.5383858267716537
11
5.880708661417323
21
-4.5177165354330704
0
LINE
8
BLACK
6
CONTINUOUS
10
5.880708661417323
20
-4.5177165354330704
11
5.8814578740157479
21
-4.5139499606299216
0
LINE
8
BLACK
6
CONTINUOUS
10
5.8814578740157479
20
-4.5139499606299216
11
5.8835914566929128
21
-4.5107568110236222
0
LINE
8
BLACK
6
CONTINUOUS
10
5.8835914566929128
20
-4.5107568110236222
11
5.8867846062992122
21
-4.5086232283464565
0
LINE
8
BLACK
6
CONTINUOUS
10
5.8867846062992122
20
-4.5086232283464565
11
5.8905511811023619
21
-4.5078740157480315
0
LINE
8
BLACK
6
CONTINUOUS
10
5.8905511811023619
20
-4.5078740157480315
11
5.9259842519685035
21
-4.5078740157480315
0
LINE
8
BLACK
6
CONTINUOUS
10
5.9259842519685035
20
-4.5078740157480315
11
5.9297508267716532
21
-4.5086232283464565
0
LINE
8
BLACK
6
CONTINUOUS
10
6.0102626377952753
20
-4.5084263779527554
11
6.0134557874015746
21
-4.5105599606299212
0
LINE
8
BLACK
6
CONTINUOUS
10
6.0134557874015746
20
-4.5105599606299212
11
6.0155893700787404
21
-4.5137531102362205
0
LINE
8
BLACK
6
CONTINUOUS
10
6.0155893700787404
20
-4.5137531102362205
11
6.0163385826771654
21
-4.5175196850393702
0
LINE
8
BLACK
6
CONTINUOUS
10
6.0163385826771654
20
-4.5175196850393702
11
6.0163385826771654
21
-4.5372047244094489
0
LINE
8
BLACK
6
CONTINUOUS
10
6.0163385826771654
20
-4.5372047244094489
11
6.0155893700787404
21
-4.5409712992125986
0
LINE
8
BLACK
6
CONTINUOUS
10
6.0155893700787404
20
-4.5409712992125986
11
6.0134557874015746
21
-4.5441644488188979
0
LINE
8
BLACK
6
CONTINUOUS
10
6.0134557874015746
20
-4.5441644488188979
11
6.0102626377952753
21
-4.5462980314960628
0
LINE
8
BLACK
6
CONTINUOUS
10
6.0102626377952753
20
-4.5462980314960628
11
6.0064960629921256
21
-4.5470472440944878
0
LINE
8
BLACK
6
CONTINUOUS
10
6.0064960629921256
20
-4.5470472440944878
11
5.9690944881889765
21
-4.5470472440944878
0
LINE
8
BLACK
6
CONTINUOUS
10
5.9690944881889765
20
-4.5470472440944878
11
5.9653279133858268
21
-4.5462980314960628
0
LINE
8
BLACK
6
CONTINUOUS
10
5.9653279133858268
20
-4.5462980314960628
11
5.9621347637795274
21
-4.5441644488188979
0
LINE
8
BLACK
6
CONTINUOUS
10
5.9621347637795274
20
-4.5441644488188979
11
5.9600011811023617
21
-4.5409712992125986
0
LINE
8
BLACK
6
CONTINUOUS
10
5.9600011811023617
20
-4.5409712992125986
11
5.9592519685039367
21
-4.5372047244094489
0
LINE
8
BLACK
6
CONTINUOUS
10
5.9592519685039367
20
-4.5372047244094489
11
5.9592519685039367
21
-4.5175196850393702
0
LINE
8
BLACK
6
CONTINUOUS
10
5.9592519685039367
20
-4.5175196850393702
11
5.9600011811023617
21
-4.5137531102362205
0
LINE
8
BLACK
6
CONTINUOUS
10
5.9600011811023617
20
-4.5137531102362205
11
5.9621347637795274
21
-4.5105599606299212
0
LINE
8
BLACK
6
CONTINUOUS
10
5.9621347637795274
20
-4.5105599606299212
11
5.9653279133858268
21
-4.5084263779527554
0
LINE
8
BLACK
6
CONTINUOUS
10
5.9653279133858268
20
-4.5084263779527554
11
5.9690944881889765
21
-4.5076771653543304
0
LINE
8
BLACK
6
CONTINUOUS
10
5.9690944881889765
20
-4.5076771653543304
11
6.0064960629921256
21
-4.5076771653543304
0
LINE
8
BLACK
6
CONTINUOUS
10
6.0064960629921256
20
-4.5076771653543304
11
6.0102626377952753
21
-4.5084263779527554
0
LINE
8
BLACK
6
CONTINUOUS
10
5.6346720866141728
20
-4.4867728346456692
11
5.6378652362204722
21
-4.4889064173228341
0
LINE
8
BLACK
6
CONTINUOUS
10
5.6378652362204722
20
-4.4889064173228341
11
5.639998818897638
21
-4.4920995669291335
0
LINE
8
BLACK
6
CONTINUOUS
10
5.639998818897638
20
-4.4920995669291335
11
5.640748031496063
21
-4.4958661417322832
0
LINE
8
BLACK
6
CONTINUOUS
10
5.640748031496063
20
-4.4958661417322832
11
5.640748031496063
21
-4.5204724409448822
0
LINE
8
BLACK
6
CONTINUOUS
10
5.640748031496063
20
-4.5204724409448822
11
5.639998818897638
21
-4.524239015748031
0
LINE
8
BLACK
6
CONTINUOUS
10
5.639998818897638
20
-4.524239015748031
11
5.6378652362204722
21
-4.5274321653543304
0
LINE
8
BLACK
6
CONTINUOUS
10
5.6378652362204722
20
-4.5274321653543304
11
5.6346720866141728
21
-4.5295657480314961
0
LINE
8
BLACK
6
CONTINUOUS
10
5.6346720866141728
20
-4.5295657480314961
11
5.6309055118110232
21
-4.5303149606299211
0
LINE
8
BLACK
6
CONTINUOUS
10
5.6309055118110232
20
-4.5303149606299211
11
5.5816929133858268
21
-4.5303149606299211
0
LINE
8
BLACK
6
CONTINUOUS
10
5.5816929133858268
20
-4.5303149606299211
11
5.5779263385826772
21
-4.5295657480314961
0
LINE
8
BLACK
6
CONTINUOUS
10
5.5779263385826772
20
-4.5295657480314961
11
5.5747331889763778
21
-4.5274321653543304
0
LINE
8
BLACK
6
CONTINUOUS
10
5.5747331889763778
20
-4.5274321653543304
11
5.5725996062992129
21
-4.524239015748031
0
LINE
8
BLACK
6
CONTINUOUS
10
5.5725996062992129
20
-4.524239015748031
11
5.5718503937007871
21
-4.5204724409448822
0
LINE
8
BLACK
6
CONTINUOUS
10
5.5718503937007871
20
-4.5204724409448822
11
5.5718503937007871
21
-4.4958661417322832
0
LINE
8
BLACK
6
CONTINUOUS
10
5.5718503937007871
20
-4.4958661417322832
11
5.5725996062992129
21
-4.4920995669291335
0
LINE
8
BLACK
6
CONTINUOUS
10
5.5725996062992129
20
-4.4920995669291335
11
5.5747331889763778
21
-4.4889064173228341
0
LINE
8
BLACK
6
CONTINUOUS
10
5.5747331889763778
20
-4.4889064173228341
11
5.5779263385826772
21
-4.4867728346456692
0
LINE
8
BLACK
6
CONTINUOUS
10
5.5779263385826772
20
-4.4867728346456692
11
5.5816929133858268
21
-4.4860236220472443
0
LINE
8
BLACK
6
CONTINUOUS
10
5.5816929133858268
20
-4.4860236220472443
11
5.6309055118110232
21
-4.4860236220472443
0
LINE
8
BLACK
6
CONTINUOUS
10
5.6309055118110232
20
-4.4860236220472443
11
5.6346720866141728
21
-4.4867728346456692
0
LINE
8
BLACK
6
CONTINUOUS
10
5.7529791732283462
20
-4.391694094488189
11
5.7561723228346455
21
-4.3938276771653539
0
LINE
8
BLACK
6
CONTINUOUS
10
5.7561723228346455
20
-4.3938276771653539
11
5.7583059055118113
21
-4.3970208267716533
0
LINE
8
BLACK
6
CONTINUOUS
10
5.7583059055118113
20
-4.3970208267716533
11
5.7590551181102363
21
-4.400787401574803
0
LINE
8
BLACK
6
CONTINUOUS
10
5.7590551181102363
20
-4.400787401574803
11
5.7590551181102363
21
-4.4362204724409446
0
LINE
8
BLACK
6
CONTINUOUS
10
5.7590551181102363
20
-4.4362204724409446
11
5.7583059055118113
21
-4.4399870472440943
0
LINE
8
BLACK
6
CONTINUOUS
10
5.7583059055118113
20
-4.4399870472440943
11
5.7561723228346455
21
-4.4431801968503937
0
LINE
8
BLACK
6
CONTINUOUS
10
5.7561723228346455
20
-4.4431801968503937
11
5.7529791732283462
21
-4.4453137795275586
0
LINE
8
BLACK
6
CONTINUOUS
10
5.7529791732283462
20
-4.4453137795275586
11
5.7492125984251965
21
-4.4460629921259844
0
LINE
8
BLACK
6
CONTINUOUS
10
5.7492125984251965
20
-4.4460629921259844
11
5.7285433070866141
21
-4.4460629921259844
0
LINE
8
BLACK
6
CONTINUOUS
10
5.7285433070866141
20
-4.4460629921259844
11
5.7247767322834644
21
-4.4453137795275586
0
LINE
8
BLACK
6
CONTINUOUS
10
5.7247767322834644
20
-4.4453137795275586
11
5.721583582677165
21
-4.4431801968503937
0
LINE
8
BLACK
6
CONTINUOUS
10
5.721583582677165
20
-4.4431801968503937
11
5.7194500000000001
21
-4.4399870472440943
0
LINE
8
BLACK
6
CONTINUOUS
10
5.7194500000000001
20
-4.4399870472440943
11
5.7187007874015743
21
-4.4362204724409446
0
LINE
8
BLACK
6
CONTINUOUS
10
5.7187007874015743
20
-4.4362204724409446
11
5.7187007874015743
21
-4.400787401574803
0
LINE
8
BLACK
6
CONTINUOUS
10
5.7187007874015743
20
-4.400787401574803
11
5.7194500000000001
21
-4.3970208267716533
0
LINE
8
BLACK
6
CONTINUOUS
10
5.7194500000000001
20
-4.3970208267716533
11
5.721583582677165
21
-4.3938276771653539
0
LINE
8
BLACK
6
CONTINUOUS
10
5.721583582677165
20
-4.3938276771653539
11
5.7247767322834644
21
-4.391694094488189
0
LINE
8
BLACK
6
CONTINUOUS
10
5.7247767322834644
20
-4.391694094488189
11
5.7285433070866141
21
-4.3909448818897641
0
LINE
8
BLACK
6
CONTINUOUS
10
5.7285433070866141
20
-4.3909448818897641
11
5.7492125984251965
21
-4.3909448818897641
0
LINE
8
BLACK
6
CONTINUOUS
10
5.7492125984251965
20
-4.3909448818897641
11
5.7529791732283462
21
-4.391694094488189
0
LINE
8
BLACK
6
CONTINUOUS
10
5.8248295669291341
20
-4.391694094488189
11
5.8280227165354326
21
-4.3938276771653539
0
LINE
8
BLACK
6
CONTINUOUS
10
5.8280227165354326
20
-4.3938276771653539
11
5.8301562992125984
21
-4.3970208267716533
0
LINE
8
BLACK
6
CONTINUOUS
10
5.8301562992125984
20
-4.3970208267716533
11
5.8309055118110233
21
-4.400787401574803
0
LINE
8
BLACK
6
CONTINUOUS
10
5.8309055118110233
20
-4.400787401574803
11
5.8309055118110233
21
-4.4362204724409446
0
LINE
8
BLACK
6
CONTINUOUS
10
5.8309055118110233
20
-4.4362204724409446
11
5.8301562992125984
21
-4.4399870472440943
0
LINE
8
BLACK
6
CONTINUOUS
10
5.8301562992125984
20
-4.4399870472440943
11
5.8280227165354326
21
-4.4431801968503937
0
LINE
8
BLACK
6
CONTINUOUS
10
5.8280227165354326
20
-4.4431801968503937
11
5.8248295669291341
21
-4.4453137795275586
0
LINE
8
BLACK
6
CONTINUOUS
10
5.8248295669291341
20
-4.4453137795275586
11
5.8210629921259844
21
-4.4460629921259844
0
LINE
8
BLACK
6
CONTINUOUS
10
5.8210629921259844
20
-4.4460629921259844
11
5.8003937007874011
21
-4.4460629921259844
0
LINE
8
BLACK
6
CONTINUOUS
10
5.8003937007874011
20
-4.4460629921259844
11
5.7966271259842514
21
-4.4453137795275586
0
LINE
8
BLACK
6
CONTINUOUS
10
5.7966271259842514
20
-4.4453137795275586
11
5.793433976377953
21
-4.4431801968503937
0
LINE
8
BLACK
6
CONTINUOUS
10
5.793433976377953
20
-4.4431801968503937
11
5.7913003937007872
21
-4.4399870472440943
0
LINE
8
BLACK
6
CONTINUOUS
10
5.7913003937007872
20
-4.4399870472440943
11
5.7905511811023622
21
-4.4362204724409446
0
LINE
8
BLACK
6
CONTINUOUS
10
5.7905511811023622
20
-4.4362204724409446
11
5.7905511811023622
21
-4.400787401574803
0
LINE
8
BLACK
6
CONTINUOUS
10
5.7905511811023622
20
-4.400787401574803
11
5.7913003937007872
21
-4.3970208267716533
0
LINE
8
BLACK
6
CONTINUOUS
10
5.7913003937007872
20
-4.3970208267716533
11
5.793433976377953
21
-4.3938276771653539
0
LINE
8
BLACK
6
CONTINUOUS
10
5.793433976377953
20
-4.3938276771653539
11
5.7966271259842514
21
-4.391694094488189
0
LINE
8
BLACK
6
CONTINUOUS
10
5.7966271259842514
20
-4.391694094488189
11
5.8003937007874011
21
-4.3909448818897641
0
LINE
8
BLACK
6
CONTINUOUS
10
5.8003937007874011
20
-4.3909448818897641
11
5.8210629921259844
21
-4.3909448818897641
0
LINE
8
BLACK
6
CONTINUOUS
10
5.8210629921259844
20
-4.3909448818897641
11
5.8248295669291341
21
-4.391694094488189
0
LINE
8
BLACK
6
CONTINUOUS
10
5.6324764960629921
20
-4.4032054330708661
11
5.6343923622047241
21
-4.4044855905511806
0
LINE
8
BLACK
6
CONTINUOUS
10
5.6343923622047241
20
-4.4044855905511806
11
5.6356725196850395
21
-4.4064014566929135
0
LINE
8
BLACK
6
CONTINUOUS
10
5.6356725196850395
20
-4.4064014566929135
11
5.6361220472440943
21
-4.4086614173228345
0
LINE
8
BLACK
6
CONTINUOUS
10
5.6361220472440943
20
-4.4086614173228345
11
5.6361220472440943
21
-4.4244094488188974
0
LINE
8
BLACK
6
CONTINUOUS
10
5.6361220472440943
20
-4.4244094488188974
11
5.6356725196850395
21
-4.4266694094488184
0
LINE
8
BLACK
6
CONTINUOUS
10
5.6356725196850395
20
-4.4266694094488184
11
5.6343923622047241
21
-4.4285852755905513
0
LINE
8
BLACK
6
CONTINUOUS
10
5.6343923622047241
20
-4.4285852755905513
11
5.6324764960629921
21
-4.4298654330708658
0
LINE
8
BLACK
6
CONTINUOUS
10
5.6324764960629921
20
-4.4298654330708658
11
5.6302165354330711
21
-4.4303149606299215
0
LINE
8
BLACK
6
CONTINUOUS
10
5.6302165354330711
20
-4.4303149606299215
11
5.6184055118110239
21
-4.4303149606299215
0
LINE
8
BLACK
6
CONTINUOUS
10
5.6184055118110239
20
-4.4303149606299215
11
5.616145551181102
21
-4.4298654330708658
0
LINE
8
BLACK
6
CONTINUOUS
10
5.616145551181102
20
-4.4298654330708658
11
5.61422968503937
21
-4.4285852755905513
0
LINE
8
BLACK
6
CONTINUOUS
10
5.61422968503937
20
-4.4285852755905513
11
5.6129495275590546
21
-4.4266694094488184
0
LINE
8
BLACK
6
CONTINUOUS
10
5.6129495275590546
20
-4.4266694094488184
11
5.6124999999999998
21
-4.4244094488188974
0
LINE
8
BLACK
6
CONTINUOUS
10
5.6124999999999998
20
-4.4244094488188974
11
5.6124999999999998
21
-4.4086614173228345
0
LINE
8
BLACK
6
CONTINUOUS
10
5.6124999999999998
20
-4.4086614173228345
11
5.6129495275590546
21
-4.4064014566929135
0
LINE
8
BLACK
6
CONTINUOUS
10
5.6129495275590546
20
-4.4064014566929135
11
5.61422968503937
21
-4.4044855905511806
0
LINE
8
BLACK
6
CONTINUOUS
10
5.61422968503937
20
-4.4044855905511806
11
5.616145551181102
21
-4.4032054330708661
0
LINE
8
BLACK
6
CONTINUOUS
10
5.616145551181102
20
-4.4032054330708661
11
5.6184055118110239
21
-4.4027559055118113
0
LINE
8
BLACK
6
CONTINUOUS
10
5.6184055118110239
20
-4.4027559055118113
11
5.6302165354330711
21
-4.4027559055118113
0
LINE
8
BLACK
6
CONTINUOUS
10
5.6302165354330711
20
-4.4027559055118113
11
5.6324764960629921
21
-4.4032054330708661
0
LINE
8
BLACK
6
CONTINUOUS
10
5.6875946062992124
20
-4.4032054330708661
11
5.6895104724409444
21
-4.4044855905511806
0
LINE
8
BLACK
6
CONTINUOUS
10
5.6895104724409444
20
-4.4044855905511806
11
5.6907906299212598
21
-4.4064014566929135
0
LINE
8
BLACK
6
CONTINUOUS
10
5.6907906299212598
20
-4.4064014566929135
11
5.6912401574803146
21
-4.4086614173228345
0
LINE
8
BLACK
6
CONTINUOUS
10
5.6912401574803146
20
-4.4086614173228345
11
5.6912401574803146
21
-4.4244094488188974
0
LINE
8
BLACK
6
CONTINUOUS
10
5.6912401574803146
20
-4.4244094488188974
11
5.6907906299212598
21
-4.4266694094488184
0
LINE
8
BLACK
6
CONTINUOUS
10
5.6907906299212598
20
-4.4266694094488184
11
5.6895104724409444
21
-4.4285852755905513
0
LINE
8
BLACK
6
CONTINUOUS
10
5.6895104724409444
20
-4.4285852755905513
11
5.6875946062992124
21
-4.4298654330708658
0
LINE
8
BLACK
6
CONTINUOUS
10
5.6875946062992124
20
-4.4298654330708658
11
5.6853346456692915
21
-4.4303149606299215
0
LINE
8
BLACK
6
CONTINUOUS
10
5.6853346456692915
20
-4.4303149606299215
11
5.6735236220472443
21
-4.4303149606299215
0
LINE
8
BLACK
6
CONTINUOUS
10
5.6735236220472443
20
-4.4303149606299215
11
5.6712636614173224
21
-4.4298654330708658
0
LINE
8
BLACK
6
CONTINUOUS
10
5.6712636614173224
20
-4.4298654330708658
11
5.6693477952755904
21
-4.4285852755905513
0
LINE
8
BLACK
6
CONTINUOUS
10
5.6693477952755904
20
-4.4285852755905513
11
5.6680676377952759
21
-4.4266694094488184
0
LINE
8
BLACK
6
CONTINUOUS
10
5.6680676377952759
20
-4.4266694094488184
11
5.6676181102362202
21
-4.4244094488188974
0
LINE
8
BLACK
6
CONTINUOUS
10
5.6676181102362202
20
-4.4244094488188974
11
5.6676181102362202
21
-4.4086614173228345
0
LINE
8
BLACK
6
CONTINUOUS
10
5.6676181102362202
20
-4.4086614173228345
11
5.6680676377952759
21
-4.4064014566929135
0
LINE
8
BLACK
6
CONTINUOUS
10
5.6680676377952759
20
-4.4064014566929135
11
5.6693477952755904
21
-4.4044855905511806
0
LINE
8
BLACK
6
CONTINUOUS
10
5.6693477952755904
20
-4.4044855905511806
11
5.6712636614173224
21
-4.4032054330708661
0
LINE
8
BLACK
6
CONTINUOUS
10
5.6712636614173224
20
-4.4032054330708661
11
5.6735236220472443
21
-4.4027559055118113
0
LINE
8
BLACK
6
CONTINUOUS
10
5.6735236220472443
20
-4.4027559055118113
11
5.6853346456692915
21
-4.4027559055118113
0
LINE
8
BLACK
6
CONTINUOUS
10
5.6853346456692915
20
-4.4027559055118113
11
5.6875946062992124
21
-4.4032054330708661
0
LINE
8
BLACK
6
CONTINUOUS
10
5.6565224803149601
20
-4.0019303149606298
11
5.6597156299212594
21
-4.0040638976377956
0
LINE
8
BLACK
6
CONTINUOUS
10
5.6597156299212594
20
-4.0040638976377956
11
5.6618492125984252
21
-4.007257047244094
0
LINE
8
BLACK
6
CONTINUOUS
10
5.6618492125984252
20
-4.007257047244094
11
5.6625984251968502
21
-4.0110236220472437
0
LINE
8
BLACK
6
CONTINUOUS
10
5.6625984251968502
20
-4.0110236220472437
11
5.6625984251968502
21
-4.031692913385827
0
LINE
8
BLACK
6
CONTINUOUS
10
5.6625984251968502
20
-4.031692913385827
11
5.6618492125984252
21
-4.0354594881889767
0
LINE
8
BLACK
6
CONTINUOUS
10
5.6618492125984252
20
-4.0354594881889767
11
5.6597156299212594
21
-4.0386526377952752
0
LINE
8
BLACK
6
CONTINUOUS
10
5.6597156299212594
20
-4.0386526377952752
11
5.6565224803149601
21
-4.040786220472441
0
LINE
8
BLACK
6
CONTINUOUS
10
5.6565224803149601
20
-4.040786220472441
11
5.6527559055118113
21
-4.0415354330708659
0
LINE
8
BLACK
6
CONTINUOUS
10
5.6527559055118113
20
-4.0415354330708659
11
5.6173228346456687
21
-4.0415354330708659
0
LINE
8
BLACK
6
CONTINUOUS
10
5.6173228346456687
20
-4.0415354330708659
11
5.6135562598425199
21
-4.040786220472441
0
LINE
8
BLACK
6
CONTINUOUS
10
5.6135562598425199
20
-4.040786220472441
11
5.6103631102362206
21
-4.0386526377952752
0
LINE
8
BLACK
6
CONTINUOUS
10
5.6103631102362206
20
-4.0386526377952752
11
5.6082295275590548
21
-4.0354594881889767
0
LINE
8
BLACK
6
CONTINUOUS
10
5.6082295275590548
20
-4.0354594881889767
11
5.6074803149606298
21
-4.031692913385827
0
LINE
8
BLACK
6
CONTINUOUS
10
5.6074803149606298
20
-4.031692913385827
11
5.6074803149606298
21
-4.0110236220472437
0
LINE
8
BLACK
6
CONTINUOUS
10
5.6074803149606298
20
-4.0110236220472437
11
5.6082295275590548
21
-4.007257047244094
0
LINE
8
BLACK
6
CONTINUOUS
10
5.6082295275590548
20
-4.007257047244094
11
5.6103631102362206
21
-4.0040638976377956
0
LINE
8
BLACK
6
CONTINUOUS
10
5.6103631102362206
20
-4.0040638976377956
11
5.6135562598425199
21
-4.0019303149606298
0
LINE
8
BLACK
6
CONTINUOUS
10
5.6135562598425199
20
-4.0019303149606298
11
5.6173228346456687
21
-4.0011811023622048
0
LINE
8
BLACK
6
CONTINUOUS
10
5.6173228346456687
20
-4.0011811023622048
11
5.6527559055118113
21
-4.0011811023622048
0
LINE
8
BLACK
6
CONTINUOUS
10
5.6527559055118113
20
-4.0011811023622048
11
5.6565224803149601
21
-4.0019303149606298
0
LINE
8
BLACK
6
CONTINUOUS
10
5.5766012204724404
20
-4.0015366141732285
11
5.5797943700787398
21
-4.0036701968503934
0
LINE
8
BLACK
6
CONTINUOUS
10
5.5797943700787398
20
-4.0036701968503934
11
5.5819279527559056
21
-4.0068633464566927
0
LINE
8
BLACK
6
CONTINUOUS
10
5.5819279527559056
20
-4.0068633464566927
11
5.5826771653543306
21
-4.0106299212598424
0
LINE
8
BLACK
6
CONTINUOUS
10
5.5826771653543306
20
-4.0106299212598424
11
5.5826771653543306
21
-4.0312992125984248
0
LINE
8
BLACK
6
CONTINUOUS
10
5.5826771653543306
20
-4.0312992125984248
11
5.5819279527559056
21
-4.0350657874015745
0
LINE
8
BLACK
6
CONTINUOUS
10
5.5819279527559056
20
-4.0350657874015745
11
5.5797943700787398
21
-4.0382589370078739
0
LINE
8
BLACK
6
CONTINUOUS
10
5.5797943700787398
20
-4.0382589370078739
11
5.5766012204724404
21
-4.0403925196850397
0
LINE
8
BLACK
6
CONTINUOUS
10
5.5766012204724404
20
-4.0403925196850397
11
5.5728346456692917
21
-4.0411417322834646
0
LINE
8
BLACK
6
CONTINUOUS
10
5.5728346456692917
20
-4.0411417322834646
11
5.5374015748031491
21
-4.0411417322834646
0
LINE
8
BLACK
6
CONTINUOUS
10
5.5374015748031491
20
-4.0411417322834646
11
5.5336350000000003
21
-4.0403925196850397
0
LINE
8
BLACK
6
CONTINUOUS
10
5.5336350000000003
20
-4.0403925196850397
11
5.530441850393701
21
-4.0382589370078739
0
LINE
8
BLACK
6
CONTINUOUS
10
5.530441850393701
20
-4.0382589370078739
11
5.5283082677165352
21
-4.0350657874015745
0
LINE
8
BLACK
6
CONTINUOUS
10
5.5283082677165352
20
-4.0350657874015745
11
5.5275590551181102
21
-4.0312992125984248
0
LINE
8
BLACK
6
CONTINUOUS
10
5.5275590551181102
20
-4.0312992125984248
11
5.5275590551181102
21
-4.0106299212598424
0
LINE
8
BLACK
6
CONTINUOUS
10
5.5275590551181102
20
-4.0106299212598424
11
5.5283082677165352
21
-4.0068633464566927
0
LINE
8
BLACK
6
CONTINUOUS
10
5.5283082677165352
20
-4.0068633464566927
11
5.530441850393701
21
-4.0036701968503934
0
LINE
8
BLACK
6
CONTINUOUS
10
5.530441850393701
20
-4.0036701968503934
11
5.5336350000000003
21
-4.0015366141732285
0
LINE
8
BLACK
6
CONTINUOUS
10
5.5336350000000003
20
-4.0015366141732285
11
5.5374015748031491
21
-4.0007874015748026
0
LINE
8
BLACK
6
CONTINUOUS
10
5.5374015748031491
20
-4.0007874015748026
11
5.5728346456692917
21
-4.0007874015748026
0
LINE
8
BLACK
6
CONTINUOUS
10
5.5728346456692917
20
-4.0007874015748026
11
5.5766012204724404
21
-4.0015366141732285
0
LINE
8
BLACK
6
CONTINUOUS
10
5.1199083070866145
20
-3.9857885826771651
11
5.1231014566929129
21
-3.9879221653543304
0
LINE
8
BLACK
6
CONTINUOUS
10
5.1231014566929129
20
-3.9879221653543304
11
5.1252350393700787
21
-3.9911153149606298
0
LINE
8
BLACK
6
CONTINUOUS
10
5.1252350393700787
20
-3.9911153149606298
11
5.1259842519685037
21
-3.9948818897637794
0
LINE
8
BLACK
6
CONTINUOUS
10
5.1259842519685037
20
-3.9948818897637794
11
5.1259842519685037
21
-4.0155511811023619
0
LINE
8
BLACK
6
CONTINUOUS
10
5.1259842519685037
20
-4.0155511811023619
11
5.1252350393700787
21
-4.0193177559055115
0
LINE
8
BLACK
6
CONTINUOUS
10
5.1252350393700787
20
-4.0193177559055115
11
5.1231014566929129
21
-4.0225109055118109
0
LINE
8
BLACK
6
CONTINUOUS
10
5.1231014566929129
20
-4.0225109055118109
11
5.1199083070866145
21
-4.0246444881889767
0
LINE
8
BLACK
6
CONTINUOUS
10
5.1199083070866145
20
-4.0246444881889767
11
5.1161417322834648
21
-4.0253937007874017
0
LINE
8
BLACK
6
CONTINUOUS
10
5.1161417322834648
20
-4.0253937007874017
11
5.0807086614173231
21
-4.0253937007874017
0
LINE
8
BLACK
6
CONTINUOUS
10
5.0807086614173231
20
-4.0253937007874017
11
5.0769420866141735
21
-4.0246444881889767
0
LINE
8
BLACK
6
CONTINUOUS
10
5.0769420866141735
20
-4.0246444881889767
11
5.0737489370078741
21
-4.0225109055118109
0
LINE
8
BLACK
6
CONTINUOUS
10
5.0737489370078741
20
-4.0225109055118109
11
5.0716153543307083
21
-4.0193177559055115
0
LINE
8
BLACK
6
CONTINUOUS
10
5.0716153543307083
20
-4.0193177559055115
11
5.0708661417322833
21
-4.0155511811023619
0
LINE
8
BLACK
6
CONTINUOUS
10
5.0708661417322833
20
-4.0155511811023619
11
5.0708661417322833
21
-3.9948818897637794
0
LINE
8
BLACK
6
CONTINUOUS
10
5.0708661417322833
20
-3.9948818897637794
11
5.0716153543307083
21
-3.9911153149606298
0
LINE
8
BLACK
6
CONTINUOUS
10
5.0716153543307083
20
-3.9911153149606298
11
5.0737489370078741
21
-3.9879221653543304
0
LINE
8
BLACK
6
CONTINUOUS
10
5.0737489370078741
20
-3.9879221653543304
11
5.0769420866141735
21
-3.9857885826771651
0
LINE
8
BLACK
6
CONTINUOUS
10
5.0769420866141735
20
-3.9857885826771651
11
5.0807086614173231
21
-3.9850393700787401
0
LINE
8
BLACK
6
CONTINUOUS
10
5.0807086614173231
20
-3.9850393700787401
11
5.1161417322834648
21
-3.9850393700787401
0
LINE
8
BLACK
6
CONTINUOUS
10
5.1161417322834648
20
-3.9850393700787401
11
5.1199083070866145
21
-3.9857885826771651
0
LINE
8
BLACK
6
CONTINUOUS
10
5.1990421653543306
20
-3.9857885826771651
11
5.20223531496063
21
-3.9879221653543304
0
LINE
8
BLACK
6
CONTINUOUS
10
5.20223531496063
20
-3.9879221653543304
11
5.2043688976377949
21
-3.9911153149606298
0
LINE
8
BLACK
6
CONTINUOUS
10
5.2043688976377949
20
-3.9911153149606298
11
5.2051181102362207
21
-3.9948818897637794
0
LINE
8
BLACK
6
CONTINUOUS
10
5.2051181102362207
20
-3.9948818897637794
11
5.2051181102362207
21
-4.0155511811023619
0
LINE
8
BLACK
6
CONTINUOUS
10
5.2051181102362207
20
-4.0155511811023619
11
5.2043688976377949
21
-4.0193177559055115
0
LINE
8
BLACK
6
CONTINUOUS
10
5.2043688976377949
20
-4.0193177559055115
11
5.20223531496063
21
-4.0225109055118109
0
LINE
8
BLACK
6
CONTINUOUS
10
5.20223531496063
20
-4.0225109055118109
11
5.1990421653543306
21
-4.0246444881889767
0
LINE
8
BLACK
6
CONTINUOUS
10
5.1990421653543306
20
-4.0246444881889767
11
5.1952755905511809
21
-4.0253937007874017
0
LINE
8
BLACK
6
CONTINUOUS
10
5.1952755905511809
20
-4.0253937007874017
11
5.1598425196850393
21
-4.0253937007874017
0
LINE
8
BLACK
6
CONTINUOUS
10
5.1598425196850393
20
-4.0253937007874017
11
5.1560759448818896
21
-4.0246444881889767
0
LINE
8
BLACK
6
CONTINUOUS
10
5.1560759448818896
20
-4.0246444881889767
11
5.1528827952755902
21
-4.0225109055118109
0
LINE
8
BLACK
6
CONTINUOUS
10
5.1528827952755902
20
-4.0225109055118109
11
5.1507492125984253
21
-4.0193177559055115
0
LINE
8
BLACK
6
CONTINUOUS
10
5.1507492125984253
20
-4.0193177559055115
11
5.1499999999999995
21
-4.0155511811023619
0
LINE
8
BLACK
6
CONTINUOUS
10
5.1499999999999995
20
-4.0155511811023619
11
5.1499999999999995
21
-3.9948818897637794
0
LINE
8
BLACK
6
CONTINUOUS
10
5.1499999999999995
20
-3.9948818897637794
11
5.1507492125984253
21
-3.9911153149606298
0
LINE
8
BLACK
6
CONTINUOUS
10
5.1507492125984253
20
-3.9911153149606298
11
5.1528827952755902
21
-3.9879221653543304
0
LINE
8
BLACK
6
CONTINUOUS
10
5.1528827952755902
20
-3.9879221653543304
11
5.1560759448818896
21
-3.9857885826771651
0
LINE
8
BLACK
6
CONTINUOUS
10
5.1560759448818896
20
-3.9857885826771651
11
5.1598425196850393
21
-3.9850393700787401
0
LINE
8
BLACK
6
CONTINUOUS
10
5.1598425196850393
20
-3.9850393700787401
11
5.1952755905511809
21
-3.9850393700787401
0
LINE
8
BLACK
6
CONTINUOUS
10
5.1952755905511809
20
-3.9850393700787401
11
5.1990421653543306
21
-3.9857885826771651
0
LINE
8
BLACK
6
CONTINUOUS
10
5.6565224803149601
20
-3.9300799212598423
11
5.6597156299212594
21
-3.9322135039370076
0
LINE
8
BLACK
6
CONTINUOUS
10
5.6597156299212594
20
-3.9322135039370076
11
5.6618492125984252
21
-3.935406653543307
0
LINE
8
BLACK
6
CONTINUOUS
10
5.6618492125984252
20
-3.935406653543307
11
5.6625984251968502
21
-3.9391732283464567
0
LINE
8
BLACK
6
CONTINUOUS
10
5.6625984251968502
20
-3.9391732283464567
11
5.6625984251968502
21
-3.9598425196850391
0
LINE
8
BLACK
6
CONTINUOUS
10
5.6625984251968502
20
-3.9598425196850391
11
5.6618492125984252
21
-3.9636090944881888
0
LINE
8
BLACK
6
CONTINUOUS
10
5.6618492125984252
20
-3.9636090944881888
11
5.6597156299212594
21
-3.9668022440944881
0
LINE
8
BLACK
6
CONTINUOUS
10
5.6597156299212594
20
-3.9668022440944881
11
5.6565224803149601
21
-3.9689358267716535
0
LINE
8
BLACK
6
CONTINUOUS
10
5.6565224803149601
20
-3.9689358267716535
11
5.6527559055118113
21
-3.9696850393700784
0
LINE
8
BLACK
6
CONTINUOUS
10
5.6527559055118113
20
-3.9696850393700784
11
5.6173228346456687
21
-3.9696850393700784
0
LINE
8
BLACK
6
CONTINUOUS
10
5.6173228346456687
20
-3.9696850393700784
11
5.6135562598425199
21
-3.9689358267716535
0
LINE
8
BLACK
6
CONTINUOUS
10
5.6135562598425199
20
-3.9689358267716535
11
5.6103631102362206
21
-3.9668022440944881
0
LINE
8
BLACK
6
CONTINUOUS
10
5.6103631102362206
20
-3.9668022440944881
11
5.6082295275590548
21
-3.9636090944881888
0
LINE
8
BLACK
6
CONTINUOUS
10
5.6082295275590548
20
-3.9636090944881888
11
5.6074803149606298
21
-3.9598425196850391
0
LINE
8
BLACK
6
CONTINUOUS
10
5.6074803149606298
20
-3.9598425196850391
11
5.6074803149606298
21
-3.9391732283464567
0
LINE
8
BLACK
6
CONTINUOUS
10
5.6074803149606298
20
-3.9391732283464567
11
5.6082295275590548
21
-3.935406653543307
0
LINE
8
BLACK
6
CONTINUOUS
10
5.6082295275590548
20
-3.935406653543307
11
5.6103631102362206
21
-3.9322135039370076
0
LINE
8
BLACK
6
CONTINUOUS
10
5.6103631102362206
20
-3.9322135039370076
11
5.6135562598425199
21
-3.9300799212598423
0
LINE
8
BLACK
6
CONTINUOUS
10
5.6135562598425199
20
-3.9300799212598423
11
5.6173228346456687
21
-3.9293307086614173
0
LINE
8
BLACK
6
CONTINUOUS
10
5.6173228346456687
20
-3.9293307086614173
11
5.6527559055118113
21
-3.9293307086614173
0
LINE
8
BLACK
6
CONTINUOUS
10
5.6527559055118113
20
-3.9293307086614173
11
5.6565224803149601
21
-3.9300799212598423
0
LINE
8
BLACK
6
CONTINUOUS
10
5.5766012204724404
20
-3.929686220472441
11
5.5797943700787398
21
-3.9318198031496063
0
LINE
8
BLACK
6
CONTINUOUS
10
5.5797943700787398
20
-3.9318198031496063
11
5.5819279527559056
21
-3.9350129527559052
0
LINE
8
BLACK
6
CONTINUOUS
10
5.5819279527559056
20
-3.9350129527559052
11
5.5826771653543306
21
-3.9387795275590549
0
LINE
8
BLACK
6
CONTINUOUS
10
5.5826771653543306
20
-3.9387795275590549
11
5.5826771653543306
21
-3.9594488188976378
0
LINE
8
BLACK
6
CONTINUOUS
10
5.5826771653543306
20
-3.9594488188976378
11
5.5819279527559056
21
-3.9632153937007875
0
LINE
8
BLACK
6
CONTINUOUS
10
5.5819279527559056
20
-3.9632153937007875
11
5.5797943700787398
21
-3.9664085433070864
0
LINE
8
BLACK
6
CONTINUOUS
10
5.5797943700787398
20
-3.9664085433070864
11
5.5766012204724404
21
-3.9685421259842517
0
LINE
8
BLACK
6
CONTINUOUS
10
5.5766012204724404
20
-3.9685421259842517
11
5.5728346456692917
21
-3.9692913385826771
0
LINE
8
BLACK
6
CONTINUOUS
10
5.5728346456692917
20
-3.9692913385826771
11
5.5374015748031491
21
-3.9692913385826771
0
LINE
8
BLACK
6
CONTINUOUS
10
5.5374015748031491
20
-3.9692913385826771
11
5.5336350000000003
21
-3.9685421259842517
0
LINE
8
BLACK
6
CONTINUOUS
10
5.5336350000000003
20
-3.9685421259842517
11
5.530441850393701
21
-3.9664085433070864
0
LINE
8
BLACK
6
CONTINUOUS
10
5.530441850393701
20
-3.9664085433070864
11
5.5283082677165352
21
-3.9632153937007875
0
LINE
8
BLACK
6
CONTINUOUS
10
5.5283082677165352
20
-3.9632153937007875
11
5.5275590551181102
21
-3.9594488188976378
0
LINE
8
BLACK
6
CONTINUOUS
10
5.5275590551181102
20
-3.9594488188976378
11
5.5275590551181102
21
-3.9387795275590549
0
LINE
8
BLACK
6
CONTINUOUS
10
5.5275590551181102
20
-3.9387795275590549
11
5.5283082677165352
21
-3.9350129527559052
0
LINE
8
BLACK
6
CONTINUOUS
10
5.5283082677165352
20
-3.9350129527559052
11
5.530441850393701
21
-3.9318198031496063
0
LINE
8
BLACK
6
CONTINUOUS
10
5.530441850393701
20
-3.9318198031496063
11
5.5336350000000003
21
-3.929686220472441
0
LINE
8
BLACK
6
CONTINUOUS
10
5.5336350000000003
20
-3.929686220472441
11
5.5374015748031491
21
-3.9289370078740156
0
LINE
8
BLACK
6
CONTINUOUS
10
5.5374015748031491
20
-3.9289370078740156
11
5.5728346456692917
21
-3.9289370078740156
0
LINE
8
BLACK
6
CONTINUOUS
10
5.5728346456692917
20
-3.9289370078740156
11
5.5766012204724404
21
-3.929686220472441
0
LINE
8
BLACK
6
CONTINUOUS
10
5.1199083070866145
20
-3.913938188976378
11
5.1231014566929129
21
-3.9160717716535434
0
LINE
8
BLACK
6
CONTINUOUS
10
5.1231014566929129
20
-3.9160717716535434
11
5.1252350393700787
21
-3.9192649212598423
0
LINE
8
BLACK
6
CONTINUOUS
10
5.1252350393700787
20
-3.9192649212598423
11
5.1259842519685037
21
-3.923031496062992
0
LINE
8
BLACK
6
CONTINUOUS
10
5.1259842519685037
20
-3.923031496062992
11
5.1259842519685037
21
-3.9437007874015748
0
LINE
8
BLACK
6
CONTINUOUS
10
5.1259842519685037
20
-3.9437007874015748
11
5.1252350393700787
21
-3.9474673622047245
0
LINE
8
BLACK
6
CONTINUOUS
10
5.1252350393700787
20
-3.9474673622047245
11
5.1231014566929129
21
-3.9506605118110234
0
LINE
8
BLACK
6
CONTINUOUS
10
5.1231014566929129
20
-3.9506605118110234
11
5.1199083070866145
21
-3.9527940944881887
0
LINE
8
BLACK
6
CONTINUOUS
10
5.1199083070866145
20
-3.9527940944881887
11
5.1161417322834648
21
-3.9535433070866142
0
LINE
8
BLACK
6
CONTINUOUS
10
5.1161417322834648
20
-3.9535433070866142
11
5.0807086614173231
21
-3.9535433070866142
0
LINE
8
BLACK
6
CONTINUOUS
10
5.0807086614173231
20
-3.9535433070866142
11
5.0769420866141735
21
-3.9527940944881887
0
LINE
8
BLACK
6
CONTINUOUS
10
5.0769420866141735
20
-3.9527940944881887
11
5.0737489370078741
21
-3.9506605118110234
0
LINE
8
BLACK
6
CONTINUOUS
10
5.0737489370078741
20
-3.9506605118110234
11
5.0716153543307083
21
-3.9474673622047245
0
LINE
8
BLACK
6
CONTINUOUS
10
5.0716153543307083
20
-3.9474673622047245
11
5.0708661417322833
21
-3.9437007874015748
0
LINE
8
BLACK
6
CONTINUOUS
10
5.0708661417322833
20
-3.9437007874015748
11
5.0708661417322833
21
-3.923031496062992
0
LINE
8
BLACK
6
CONTINUOUS
10
5.0708661417322833
20
-3.923031496062992
11
5.0716153543307083
21
-3.9192649212598423
0
LINE
8
BLACK
6
CONTINUOUS
10
5.0716153543307083
20
-3.9192649212598423
11
5.0737489370078741
21
-3.9160717716535434
0
LINE
8
BLACK
6
CONTINUOUS
10
5.0737489370078741
20
-3.9160717716535434
11
5.0769420866141735
21
-3.913938188976378
0
LINE
8
BLACK
6
CONTINUOUS
10
5.0769420866141735
20
-3.913938188976378
11
5.0807086614173231
21
-3.9131889763779526
0
LINE
8
BLACK
6
CONTINUOUS
10
5.0807086614173231
20
-3.9131889763779526
11
5.1161417322834648
21
-3.9131889763779526
0
LINE
8
BLACK
6
CONTINUOUS
10
5.1161417322834648
20
-3.9131889763779526
11
5.1199083070866145
21
-3.913938188976378
0
LINE
8
BLACK
6
CONTINUOUS
10
5.1990421653543306
20
-3.913938188976378
11
5.20223531496063
21
-3.9160717716535434
0
LINE
8
BLACK
6
CONTINUOUS
10
5.20223531496063
20
-3.9160717716535434
11
5.2043688976377949
21
-3.9192649212598423
0
LINE
8
BLACK
6
CONTINUOUS
10
5.2043688976377949
20
-3.9192649212598423
11
5.2051181102362207
21
-3.923031496062992
0
LINE
8
BLACK
6
CONTINUOUS
10
5.2051181102362207
20
-3.923031496062992
11
5.2051181102362207
21
-3.9437007874015748
0
LINE
8
BLACK
6
CONTINUOUS
10
5.2051181102362207
20
-3.9437007874015748
11
5.2043688976377949
21
-3.9474673622047245
0
LINE
8
BLACK
6
CONTINUOUS
10
5.2043688976377949
20
-3.9474673622047245
11
5.20223531496063
21
-3.9506605118110234
0
LINE
8
BLACK
6
CONTINUOUS
10
5.20223531496063
20
-3.9506605118110234
11
5.1990421653543306
21
-3.9527940944881887
0
LINE
8
BLACK
6
CONTINUOUS
10
5.1990421653543306
20
-3.9527940944881887
11
5.1952755905511809
21
-3.9535433070866142
0
LINE
8
BLACK
6
CONTINUOUS
10
5.1952755905511809
20
-3.9535433070866142
11
5.1598425196850393
21
-3.9535433070866142
0
LINE
8
BLACK
6
CONTINUOUS
10
5.1598425196850393
20
-3.9535433070866142
11
5.1560759448818896
21
-3.9527940944881887
0
LINE
8
BLACK
6
CONTINUOUS
10
5.1560759448818896
20
-3.9527940944881887
11
5.1528827952755902
21
-3.9506605118110234
0
LINE
8
BLACK
6
CONTINUOUS
10
5.1528827952755902
20
-3.9506605118110234
11
5.1507492125984253
21
-3.9474673622047245
0
LINE
8
BLACK
6
CONTINUOUS
10
5.1507492125984253
20
-3.9474673622047245
11
5.1499999999999995
21
-3.9437007874015748
0
LINE
8
BLACK
6
CONTINUOUS
10
5.1499999999999995
20
-3.9437007874015748
11
5.1499999999999995
21
-3.923031496062992
0
LINE
8
BLACK
6
CONTINUOUS
10
5.1499999999999995
20
-3.923031496062992
11
5.1507492125984253
21
-3.9192649212598423
0
LINE
8
BLACK
6
CONTINUOUS
10
5.1507492125984253
20
-3.9192649212598423
11
5.1528827952755902
21
-3.9160717716535434
0
LINE
8
BLACK
6
CONTINUOUS
10
5.1528827952755902
20
-3.9160717716535434
11
5.1560759448818896
21
-3.913938188976378
0
LINE
8
BLACK
6
CONTINUOUS
10
5.1560759448818896
20
-3.913938188976378
11
5.1598425196850393
21
-3.9131889763779526
0
LINE
8
BLACK
6
CONTINUOUS
10
5.1598425196850393
20
-3.9131889763779526
11
5.1952755905511809
21
-3.9131889763779526
0
LINE
8
BLACK
6
CONTINUOUS
10
5.1952755905511809
20
-3.9131889763779526
11
5.1990421653543306
21
-3.913938188976378
0
LINE
8
BLACK
6
CONTINUOUS
10
5.6185303543307086
20
-3.5373633858267715
11
5.6217235039370079
21
-3.5394969685039368
0
LINE
8
BLACK
6
CONTINUOUS
10
5.6217235039370079
20
-3.5394969685039368
11
5.6238570866141728
21
-3.5426901181102362
0
LINE
8
BLACK
6
CONTINUOUS
10
5.6238570866141728
20
-3.5426901181102362
11
5.6246062992125987
21
-3.5464566929133858
0
LINE
8
BLACK
6
CONTINUOUS
10
5.6246062992125987
20
-3.5464566929133858
11
5.6246062992125987
21
-3.5661417322834645
0
LINE
8
BLACK
6
CONTINUOUS
10
5.6246062992125987
20
-3.5661417322834645
11
5.6238570866141728
21
-3.5699083070866142
0
LINE
8
BLACK
6
CONTINUOUS
10
5.6238570866141728
20
-3.5699083070866142
11
5.6217235039370079
21
-3.5731014566929131
0
LINE
8
BLACK
6
CONTINUOUS
10
5.6217235039370079
20
-3.5731014566929131
11
5.6185303543307086
21
-3.5752350393700785
0
LINE
8
BLACK
6
CONTINUOUS
10
5.6185303543307086
20
-3.5752350393700785
11
5.6147637795275589
21
-3.5759842519685039
0
LINE
8
BLACK
6
CONTINUOUS
10
5.6147637795275589
20
-3.5759842519685039
11
5.5773622047244089
21
-3.5759842519685039
0
LINE
8
BLACK
6
CONTINUOUS
10
5.5773622047244089
20
-3.5759842519685039
11
5.5735956299212601
21
-3.5752350393700785
0
LINE
8
BLACK
6
CONTINUOUS
10
5.5735956299212601
20
-3.5752350393700785
11
5.5704024803149608
21
-3.5731014566929131
0
LINE
8
BLACK
6
CONTINUOUS
10
5.5704024803149608
20
-3.5731014566929131
11
5.568268897637795
21
-3.5699083070866142
0
LINE
8
BLACK
6
CONTINUOUS
10
5.568268897637795
20
-3.5699083070866142
11
5.56751968503937
21
-3.5661417322834645
0
LINE
8
BLACK
6
CONTINUOUS
10
5.56751968503937
20
-3.5661417322834645
11
5.56751968503937
21
-3.5464566929133858
0
LINE
8
BLACK
6
CONTINUOUS
10
5.56751968503937
20
-3.5464566929133858
11
5.568268897637795
21
-3.5426901181102362
0
LINE
8
BLACK
6
CONTINUOUS
10
5.568268897637795
20
-3.5426901181102362
11
5.5704024803149608
21
-3.5394969685039368
0
LINE
8
BLACK
6
CONTINUOUS
10
5.5704024803149608
20
-3.5394969685039368
11
5.5735956299212601
21
-3.5373633858267715
0
LINE
8
BLACK
6
CONTINUOUS
10
5.5735956299212601
20
-3.5373633858267715
11
5.5773622047244089
21
-3.5366141732283465
0
LINE
8
BLACK
6
CONTINUOUS
10
5.5773622047244089
20
-3.5366141732283465
11
5.6147637795275589
21
-3.5366141732283465
0
LINE
8
BLACK
6
CONTINUOUS
10
5.6147637795275589
20
-3.5366141732283465
11
5.6185303543307086
21
-3.5373633858267715
0
LINE
8
BLACK
6
CONTINUOUS
10
5.6185303543307086
20
-3.4625602362204724
11
5.6217235039370079
21
-3.4646938188976377
0
LINE
8
BLACK
6
CONTINUOUS
10
5.6217235039370079
20
-3.4646938188976377
11
5.6238570866141728
21
-3.4678869685039371
0
LINE
8
BLACK
6
CONTINUOUS
10
5.6238570866141728
20
-3.4678869685039371
11
5.6246062992125987
21
-3.4716535433070868
0
LINE
8
BLACK
6
CONTINUOUS
10
5.6246062992125987
20
-3.4716535433070868
11
5.6246062992125987
21
-3.4913385826771655
0
LINE
8
BLACK
6
CONTINUOUS
10
5.6246062992125987
20
-3.4913385826771655
11
5.6238570866141728
21
-3.4951051574803147
0
LINE
8
BLACK
6
CONTINUOUS
10
5.6238570866141728
20
-3.4951051574803147
11
5.6217235039370079
21
-3.498298307086614
0
LINE
8
BLACK
6
CONTINUOUS
10
5.6217235039370079
20
-3.498298307086614
11
5.6185303543307086
21
-3.5004318897637794
0
LINE
8
BLACK
6
CONTINUOUS
10
5.6185303543307086
20
-3.5004318897637794
11
5.6147637795275589
21
-3.5011811023622048
0
LINE
8
BLACK
6
CONTINUOUS
10
5.6147637795275589
20
-3.5011811023622048
11
5.5773622047244089
21
-3.5011811023622048
0
LINE
8
BLACK
6
CONTINUOUS
10
5.5773622047244089
20
-3.5011811023622048
11
5.5735956299212601
21
-3.5004318897637794
0
LINE
8
BLACK
6
CONTINUOUS
10
5.5735956299212601
20
-3.5004318897637794
11
5.5704024803149608
21
-3.498298307086614
0
LINE
8
BLACK
6
CONTINUOUS
10
5.5704024803149608
20
-3.498298307086614
11
5.568268897637795
21
-3.4951051574803147
0
LINE
8
BLACK
6
CONTINUOUS
10
5.568268897637795
20
-3.4951051574803147
11
5.56751968503937
21
-3.4913385826771655
0
LINE
8
BLACK
6
CONTINUOUS
10
5.56751968503937
20
-3.4913385826771655
11
5.56751968503937
21
-3.4716535433070868
0
LINE
8
BLACK
6
CONTINUOUS
10
5.56751968503937
20
-3.4716535433070868
11
5.568268897637795
21
-3.4678869685039371
0
LINE
8
BLACK
6
CONTINUOUS
10
5.568268897637795
20
-3.4678869685039371
11
5.5704024803149608
21
-3.4646938188976377
0
LINE
8
BLACK
6
CONTINUOUS
10
5.5704024803149608
20
-3.4646938188976377
11
5.5735956299212601
21
-3.4625602362204724
0
LINE
8
BLACK
6
CONTINUOUS
10
5.5735956299212601
20
-3.4625602362204724
11
5.5773622047244089
21
-3.461811023622047
0
LINE
8
BLACK
6
CONTINUOUS
10
5.5773622047244089
20
-3.461811023622047
11
5.6147637795275589
21
-3.461811023622047
0
LINE
8
BLACK
6
CONTINUOUS
10
5.6147637795275589
20
-3.461811023622047
11
5.6185303543307086
21
-3.4625602362204724
  0
ENDSEC
  0
EOF
