  0
SECTION
  2
HEADER
  9
$ANGBASE
  50
0.0
  9
$ANGDIR
  70
1
  9
$MEASUREMENT
  70
0
  0
ENDSEC
  0
SECTION
  2
TABLES
  0
TABLE
  2
LTYPE
  70
4
  0
LTYPE
  5
40F
  2
CONTINUOUS
  70
0
  3
Solid line
  72
65
  73
0
  40
0.0
  0
LTYPE
  5
410
  2
DASHDOT
 70
0
  3
Dash Dot ____ _ ____ _
 72
65
 73
4
 40
2.0
 49
1.25
 49
-0.25
 49
0.25
 49
-0.25
  0
LTYPE
  5
411
  2
DASHED
 70
0
  3
Dashed __ __ __ __ __
 72
65
 73
2
 40
0.75
 49
0.5
 49
-0.25
  0
LTYPE
  5
43B
  2
DOTTED
 70
0
  3
Dotted .  .  .  .
 72
65
 73
2
 40
0.2
 49
0.0
 49
-0.2
  0
ENDTAB
  0
TABLE
  2
STYLE
  70
4
  0
STYLE
  2
KICAD
  70
0
  40
0
  41
1
  42
1
  50
0
  71
0
  3
isocp.shx
  0
STYLE
  2
KICADB
  70
0
  40
0
  41
1
  42
1
  50
0
  71
0
  3
isocp.shx
  0
STYLE
  2
KICADI
  70
0
  40
0
  41
1
  42
1
  50
15
  71
0
  3
isocp.shx
  0
STYLE
  2
KICADBI
  70
0
  40
0
  41
1
  42
1
  50
15
  71
0
  3
isocp.shx
  0
ENDTAB
  0
TABLE
  2
LAYER
  70
1
  0
LAYER
  2
BLACK
  70
0
  62
7
  6
CONTINUOUS
  0
ENDTAB
  0
ENDSEC
  0
SECTION
  2
ENTITIES
0
LINE
8
BLACK
6
CONTINUOUS
10
4.5686728740157481
20
-5.0104068897637797
11
4.5820571653543309
21
-5.0126809842519684
0
LINE
8
BLACK
6
CONTINUOUS
10
4.5820571653543309
20
-5.0126809842519684
11
4.5951026771653538
21
-5.0164393307086614
0
LINE
8
BLACK
6
CONTINUOUS
10
4.5951026771653538
20
-5.0164393307086614
11
4.6076453543307085
21
-5.0216346850393698
0
LINE
8
BLACK
6
CONTINUOUS
10
4.6076453543307085
20
-5.0216346850393698
11
4.6195275196850396
21
-5.0282016929133855
0
LINE
8
BLACK
6
CONTINUOUS
10
4.6195275196850396
20
-5.0282016929133855
11
4.6305996456692915
21
-5.0360577952755907
0
LINE
8
BLACK
6
CONTINUOUS
10
4.6305996456692915
20
-5.0360577952755907
11
4.640722559055118
21
-5.0451042125984253
0
LINE
8
BLACK
6
CONTINUOUS
10
4.640722559055118
20
-5.0451042125984253
11
4.6497689763779526
21
-5.0552271259842518
0
LINE
8
BLACK
6
CONTINUOUS
10
4.6497689763779526
20
-5.0552271259842518
11
4.657625078740157
21
-5.0662992519685037
0
LINE
8
BLACK
6
CONTINUOUS
10
4.657625078740157
20
-5.0662992519685037
11
4.6641920866141735
21
-5.0781814173228348
0
LINE
8
BLACK
6
CONTINUOUS
10
4.6641920866141735
20
-5.0781814173228348
11
4.6693874409448819
21
-5.0907240944881886
0
LINE
8
BLACK
6
CONTINUOUS
10
4.6693874409448819
20
-5.0907240944881886
11
4.6731457874015749
21
-5.1037696062992124
0
LINE
8
BLACK
6
CONTINUOUS
10
4.6731457874015749
20
-5.1037696062992124
11
4.6754198818897637
21
-5.1171538976377953
0
LINE
8
BLACK
6
CONTINUOUS
10
4.6754198818897637
20
-5.1171538976377953
11
4.6761811023622046
21
-5.130708661417323
0
LINE
8
BLACK
6
CONTINUOUS
10
4.6761811023622046
20
-5.130708661417323
11
4.6754198818897637
21
-5.1442634251968506
0
LINE
8
BLACK
6
CONTINUOUS
10
4.6754198818897637
20
-5.1442634251968506
11
4.6731457874015749
21
-5.1576477165354326
0
LINE
8
BLACK
6
CONTINUOUS
10
4.6731457874015749
20
-5.1576477165354326
11
4.6693874409448819
21
-5.1706932283464564
0
LINE
8
BLACK
6
CONTINUOUS
10
4.6693874409448819
20
-5.1706932283464564
11
4.6641920866141735
21
-5.1832359055118111
0
LINE
8
BLACK
6
CONTINUOUS
10
4.6641920866141735
20
-5.1832359055118111
11
4.657625078740157
21
-5.1951180708661413
0
LINE
8
BLACK
6
CONTINUOUS
10
4.657625078740157
20
-5.1951180708661413
11
4.6497689763779526
21
-5.2061901968503932
0
LINE
8
BLACK
6
CONTINUOUS
10
4.6497689763779526
20
-5.2061901968503932
11
4.640722559055118
21
-5.2163131102362206
0
LINE
8
BLACK
6
CONTINUOUS
10
4.640722559055118
20
-5.2163131102362206
11
4.6305996456692915
21
-5.2253595275590552
0
LINE
8
BLACK
6
CONTINUOUS
10
4.6305996456692915
20
-5.2253595275590552
11
4.6195275196850396
21
-5.2332156299212595
0
LINE
8
BLACK
6
CONTINUOUS
10
4.6195275196850396
20
-5.2332156299212595
11
4.6076453543307085
21
-5.2397826377952752
0
LINE
8
BLACK
6
CONTINUOUS
10
4.6076453543307085
20
-5.2397826377952752
11
4.5951026771653538
21
-5.2449779921259845
0
LINE
8
BLACK
6
CONTINUOUS
10
4.5951026771653538
20
-5.2449779921259845
11
4.5820571653543309
21
-5.2487363385826766
0
LINE
8
BLACK
6
CONTINUOUS
10
4.5820571653543309
20
-5.2487363385826766
11
4.5686728740157481
21
-5.2510104330708662
0
LINE
8
BLACK
6
CONTINUOUS
10
4.5686728740157481
20
-5.2510104330708662
11
4.5551181102362204
21
-5.2517716535433072
0
LINE
8
BLACK
6
CONTINUOUS
10
4.5551181102362204
20
-5.2517716535433072
11
4.5415633464566927
21
-5.2510104330708662
0
LINE
8
BLACK
6
CONTINUOUS
10
4.5415633464566927
20
-5.2510104330708662
11
4.5281790551181098
21
-5.2487363385826766
0
LINE
8
BLACK
6
CONTINUOUS
10
4.5281790551181098
20
-5.2487363385826766
11
4.5151335433070869
21
-5.2449779921259845
0
LINE
8
BLACK
6
CONTINUOUS
10
4.5151335433070869
20
-5.2449779921259845
11
4.5025908661417322
21
-5.2397826377952752
0
LINE
8
BLACK
6
CONTINUOUS
10
4.5025908661417322
20
-5.2397826377952752
11
4.4907087007874011
21
-5.2332156299212595
0
LINE
8
BLACK
6
CONTINUOUS
10
4.4907087007874011
20
-5.2332156299212595
11
4.4796365748031493
21
-5.2253595275590552
0
LINE
8
BLACK
6
CONTINUOUS
10
4.4796365748031493
20
-5.2253595275590552
11
4.4695136614173228
21
-5.2163131102362206
0
LINE
8
BLACK
6
CONTINUOUS
10
4.4695136614173228
20
-5.2163131102362206
11
4.4604672440944881
21
-5.2061901968503932
0
LINE
8
BLACK
6
CONTINUOUS
10
4.4604672440944881
20
-5.2061901968503932
11
4.4526111417322838
21
-5.1951180708661413
0
LINE
8
BLACK
6
CONTINUOUS
10
4.4526111417322838
20
-5.1951180708661413
11
4.4460441338582672
21
-5.1832359055118111
0
LINE
8
BLACK
6
CONTINUOUS
10
4.4460441338582672
20
-5.1832359055118111
11
4.4408487795275589
21
-5.1706932283464564
0
LINE
8
BLACK
6
CONTINUOUS
10
4.4408487795275589
20
-5.1706932283464564
11
4.4370904330708658
21
-5.1576477165354326
0
LINE
8
BLACK
6
CONTINUOUS
10
4.4370904330708658
20
-5.1576477165354326
11
4.4348163385826771
21
-5.1442634251968506
0
LINE
8
BLACK
6
CONTINUOUS
10
4.4348163385826771
20
-5.1442634251968506
11
4.4340551181102361
21
-5.130708661417323
0
LINE
8
BLACK
6
CONTINUOUS
10
4.4340551181102361
20
-5.130708661417323
11
4.4348163385826771
21
-5.1171538976377953
0
LINE
8
BLACK
6
CONTINUOUS
10
4.4348163385826771
20
-5.1171538976377953
11
4.4370904330708658
21
-5.1037696062992124
0
LINE
8
BLACK
6
CONTINUOUS
10
4.4370904330708658
20
-5.1037696062992124
11
4.4408487795275589
21
-5.0907240944881886
0
LINE
8
BLACK
6
CONTINUOUS
10
4.4408487795275589
20
-5.0907240944881886
11
4.4460441338582672
21
-5.0781814173228348
0
LINE
8
BLACK
6
CONTINUOUS
10
4.4460441338582672
20
-5.0781814173228348
11
4.4526111417322838
21
-5.0662992519685037
0
LINE
8
BLACK
6
CONTINUOUS
10
4.4526111417322838
20
-5.0662992519685037
11
4.4604672440944881
21
-5.0552271259842518
0
LINE
8
BLACK
6
CONTINUOUS
10
4.4604672440944881
20
-5.0552271259842518
11
4.4695136614173228
21
-5.0451042125984253
0
LINE
8
BLACK
6
CONTINUOUS
10
4.4695136614173228
20
-5.0451042125984253
11
4.4796365748031493
21
-5.0360577952755907
0
LINE
8
BLACK
6
CONTINUOUS
10
4.4796365748031493
20
-5.0360577952755907
11
4.4907087007874011
21
-5.0282016929133855
0
LINE
8
BLACK
6
CONTINUOUS
10
4.4907087007874011
20
-5.0282016929133855
11
4.5025908661417322
21
-5.0216346850393698
0
LINE
8
BLACK
6
CONTINUOUS
10
4.5025908661417322
20
-5.0216346850393698
11
4.5151335433070869
21
-5.0164393307086614
0
LINE
8
BLACK
6
CONTINUOUS
10
4.5151335433070869
20
-5.0164393307086614
11
4.5281790551181098
21
-5.0126809842519684
0
LINE
8
BLACK
6
CONTINUOUS
10
4.5281790551181098
20
-5.0126809842519684
11
4.5415633464566927
21
-5.0104068897637797
0
LINE
8
BLACK
6
CONTINUOUS
10
4.5415633464566927
20
-5.0104068897637797
11
4.5551181102362204
21
-5.0096456692913387
0
LINE
8
BLACK
6
CONTINUOUS
10
4.5551181102362204
20
-5.0096456692913387
11
4.5686728740157481
21
-5.0104068897637797
0
LINE
8
BLACK
6
CONTINUOUS
10
4.4365860236220476
20
-5.1440640157480315
11
4.4388266535433072
21
-5.1572514173228345
0
LINE
8
BLACK
6
CONTINUOUS
10
4.4388266535433072
20
-5.1572514173228345
11
4.4425296850393696
21
-5.1701050393700783
0
LINE
8
BLACK
6
CONTINUOUS
10
4.4425296850393696
20
-5.1701050393700783
11
4.447648622047244
21
-5.1824632283464567
0
LINE
8
BLACK
6
CONTINUOUS
10
4.447648622047244
20
-5.1824632283464567
11
4.4541190551181105
21
-5.194170590551181
0
LINE
8
BLACK
6
CONTINUOUS
10
4.4541190551181105
20
-5.194170590551181
11
4.4618596062992122
21
-5.2050798425196847
0
LINE
8
BLACK
6
CONTINUOUS
10
4.4618596062992122
20
-5.2050798425196847
11
4.4707729133858267
21
-5.2150538582677166
0
LINE
8
BLACK
6
CONTINUOUS
10
4.4707729133858267
20
-5.2150538582677166
11
4.4807469291338577
21
-5.2239671653543303
0
LINE
8
BLACK
6
CONTINUOUS
10
4.4807469291338577
20
-5.2239671653543303
11
4.4916561811023623
21
-5.2317077165354329
0
LINE
8
BLACK
6
CONTINUOUS
10
4.4916561811023623
20
-5.2317077165354329
11
4.5033635433070867
21
-5.2381781496062993
0
LINE
8
BLACK
6
CONTINUOUS
10
4.5033635433070867
20
-5.2381781496062993
11
4.5157217322834642
21
-5.2432970866141728
0
LINE
8
BLACK
6
CONTINUOUS
10
4.5157217322834642
20
-5.2432970866141728
11
4.5285753543307088
21
-5.2470001181102361
0
LINE
8
BLACK
6
CONTINUOUS
10
4.5285753543307088
20
-5.2470001181102361
11
4.5417627559055118
21
-5.2492407480314958
0
LINE
8
BLACK
6
CONTINUOUS
10
4.5417627559055118
20
-5.2492407480314958
11
4.5551181102362204
21
-5.2499907874015745
0
LINE
8
BLACK
6
CONTINUOUS
10
4.5551181102362204
20
-5.2499907874015745
11
4.5684734645669289
21
-5.2492407480314958
0
LINE
8
BLACK
6
CONTINUOUS
10
4.5684734645669289
20
-5.2492407480314958
11
4.581660866141732
21
-5.2470001181102361
0
LINE
8
BLACK
6
CONTINUOUS
10
4.581660866141732
20
-5.2470001181102361
11
4.5945144881889766
21
-5.2432970866141728
0
LINE
8
BLACK
6
CONTINUOUS
10
4.5945144881889766
20
-5.2432970866141728
11
4.6068726771653541
21
-5.2381781496062993
0
LINE
8
BLACK
6
CONTINUOUS
10
4.6068726771653541
20
-5.2381781496062993
11
4.6185800393700784
21
-5.2317077165354329
0
LINE
8
BLACK
6
CONTINUOUS
10
4.6185800393700784
20
-5.2317077165354329
11
4.629489291338583
21
-5.2239671653543303
0
LINE
8
BLACK
6
CONTINUOUS
10
4.629489291338583
20
-5.2239671653543303
11
4.639463307086614
21
-5.2150538582677166
0
LINE
8
BLACK
6
CONTINUOUS
10
4.639463307086614
20
-5.2150538582677166
11
4.6483766141732286
21
-5.2050798425196847
0
LINE
8
BLACK
6
CONTINUOUS
10
4.6483766141732286
20
-5.2050798425196847
11
4.6561171653543303
21
-5.194170590551181
0
LINE
8
BLACK
6
CONTINUOUS
10
4.6561171653543303
20
-5.194170590551181
11
4.6625875984251968
21
-5.1824632283464567
0
LINE
8
BLACK
6
CONTINUOUS
10
4.6625875984251968
20
-5.1824632283464567
11
4.6677065354330711
21
-5.1701050393700783
0
LINE
8
BLACK
6
CONTINUOUS
10
4.6677065354330711
20
-5.1701050393700783
11
4.6714095669291336
21
-5.1572514173228345
0
LINE
8
BLACK
6
CONTINUOUS
10
4.6714095669291336
20
-5.1572514173228345
11
4.6736501968503932
21
-5.1440640157480315
0
LINE
8
BLACK
6
CONTINUOUS
10
4.6736501968503932
20
-5.1440640157480315
11
4.674400236220472
21
-5.130708661417323
0
LINE
8
BLACK
6
CONTINUOUS
10
4.674400236220472
20
-5.130708661417323
11
4.6736501968503932
21
-5.1173533070866144
0
LINE
8
BLACK
6
CONTINUOUS
10
4.6736501968503932
20
-5.1173533070866144
11
4.6714095669291336
21
-5.1041659055118105
0
LINE
8
BLACK
6
CONTINUOUS
10
4.6714095669291336
20
-5.1041659055118105
11
4.6677065354330711
21
-5.0913122834645668
0
LINE
8
BLACK
6
CONTINUOUS
10
4.6677065354330711
20
-5.0913122834645668
11
4.6625875984251968
21
-5.0789540944881892
0
LINE
8
BLACK
6
CONTINUOUS
10
4.6625875984251968
20
-5.0789540944881892
11
4.6561171653543303
21
-5.0672467322834649
0
LINE
8
BLACK
6
CONTINUOUS
10
4.6561171653543303
20
-5.0672467322834649
11
4.6483766141732286
21
-5.0563374803149603
0
LINE
8
BLACK
6
CONTINUOUS
10
4.6483766141732286
20
-5.0563374803149603
11
4.639463307086614
21
-5.0463634645669293
0
LINE
8
BLACK
6
CONTINUOUS
10
4.639463307086614
20
-5.0463634645669293
11
4.629489291338583
21
-5.0374501574803148
0
LINE
8
BLACK
6
CONTINUOUS
10
4.629489291338583
20
-5.0374501574803148
11
4.6185800393700784
21
-5.0297096062992122
0
LINE
8
BLACK
6
CONTINUOUS
10
4.6185800393700784
20
-5.0297096062992122
11
4.6068726771653541
21
-5.0232391732283466
0
LINE
8
BLACK
6
CONTINUOUS
10
4.6068726771653541
20
-5.0232391732283466
11
4.5945144881889766
21
-5.0181202362204722
0
LINE
8
BLACK
6
CONTINUOUS
10
4.5945144881889766
20
-5.0181202362204722
11
4.581660866141732
21
-5.0144172047244098
0
LINE
8
BLACK
6
CONTINUOUS
10
4.581660866141732
20
-5.0144172047244098
11
4.5684734645669289
21
-5.0121765748031493
0
LINE
8
BLACK
6
CONTINUOUS
10
4.5684734645669289
20
-5.0121765748031493
11
4.5551181102362204
21
-5.0114265354330705
0
LINE
8
BLACK
6
CONTINUOUS
10
4.5551181102362204
20
-5.0114265354330705
11
4.5417627559055118
21
-5.0121765748031493
0
LINE
8
BLACK
6
CONTINUOUS
10
4.5417627559055118
20
-5.0121765748031493
11
4.5285753543307088
21
-5.0144172047244098
0
LINE
8
BLACK
6
CONTINUOUS
10
4.5285753543307088
20
-5.0144172047244098
11
4.5157217322834642
21
-5.0181202362204722
0
LINE
8
BLACK
6
CONTINUOUS
10
4.5157217322834642
20
-5.0181202362204722
11
4.5033635433070867
21
-5.0232391732283466
0
LINE
8
BLACK
6
CONTINUOUS
10
4.5033635433070867
20
-5.0232391732283466
11
4.4916561811023623
21
-5.0297096062992122
0
LINE
8
BLACK
6
CONTINUOUS
10
4.4916561811023623
20
-5.0297096062992122
11
4.4807469291338577
21
-5.0374501574803148
0
LINE
8
BLACK
6
CONTINUOUS
10
4.4807469291338577
20
-5.0374501574803148
11
4.4707729133858267
21
-5.0463634645669293
0
LINE
8
BLACK
6
CONTINUOUS
10
4.4707729133858267
20
-5.0463634645669293
11
4.4618596062992122
21
-5.0563374803149603
0
LINE
8
BLACK
6
CONTINUOUS
10
4.4618596062992122
20
-5.0563374803149603
11
4.4541190551181105
21
-5.0672467322834649
0
LINE
8
BLACK
6
CONTINUOUS
10
4.4541190551181105
20
-5.0672467322834649
11
4.447648622047244
21
-5.0789540944881892
0
LINE
8
BLACK
6
CONTINUOUS
10
4.447648622047244
20
-5.0789540944881892
11
4.4425296850393696
21
-5.0913122834645668
0
LINE
8
BLACK
6
CONTINUOUS
10
4.4425296850393696
20
-5.0913122834645668
11
4.4388266535433072
21
-5.1041659055118105
0
LINE
8
BLACK
6
CONTINUOUS
10
4.4388266535433072
20
-5.1041659055118105
11
4.4365860236220476
21
-5.1173533070866144
0
LINE
8
BLACK
6
CONTINUOUS
10
4.4365860236220476
20
-5.1173533070866144
11
4.4358359842519688
21
-5.130708661417323
0
LINE
8
BLACK
6
CONTINUOUS
10
4.4358359842519688
20
-5.130708661417323
11
4.4365860236220476
21
-5.1440640157480315
0
LINE
8
BLACK
6
CONTINUOUS
10
6.1686728740157477
20
-5.0104068897637797
11
6.1820571653543306
21
-5.0126809842519684
0
LINE
8
BLACK
6
CONTINUOUS
10
6.1820571653543306
20
-5.0126809842519684
11
6.1951026771653543
21
-5.0164393307086614
0
LINE
8
BLACK
6
CONTINUOUS
10
6.1951026771653543
20
-5.0164393307086614
11
6.2076453543307082
21
-5.0216346850393698
0
LINE
8
BLACK
6
CONTINUOUS
10
6.2076453543307082
20
-5.0216346850393698
11
6.2195275196850393
21
-5.0282016929133855
0
LINE
8
BLACK
6
CONTINUOUS
10
6.2195275196850393
20
-5.0282016929133855
11
6.2305996456692911
21
-5.0360577952755907
0
LINE
8
BLACK
6
CONTINUOUS
10
6.2305996456692911
20
-5.0360577952755907
11
6.2407225590551176
21
-5.0451042125984253
0
LINE
8
BLACK
6
CONTINUOUS
10
6.2407225590551176
20
-5.0451042125984253
11
6.2497689763779523
21
-5.0552271259842518
0
LINE
8
BLACK
6
CONTINUOUS
10
6.2497689763779523
20
-5.0552271259842518
11
6.2576250787401575
21
-5.0662992519685037
0
LINE
8
BLACK
6
CONTINUOUS
10
6.2576250787401575
20
-5.0662992519685037
11
6.2641920866141731
21
-5.0781814173228348
0
LINE
8
BLACK
6
CONTINUOUS
10
6.2641920866141731
20
-5.0781814173228348
11
6.2693874409448815
21
-5.0907240944881886
0
LINE
8
BLACK
6
CONTINUOUS
10
6.2693874409448815
20
-5.0907240944881886
11
6.2731457874015746
21
-5.1037696062992124
0
LINE
8
BLACK
6
CONTINUOUS
10
6.2731457874015746
20
-5.1037696062992124
11
6.2754198818897633
21
-5.1171538976377953
0
LINE
8
BLACK
6
CONTINUOUS
10
6.2754198818897633
20
-5.1171538976377953
11
6.2761811023622043
21
-5.130708661417323
0
LINE
8
BLACK
6
CONTINUOUS
10
6.2761811023622043
20
-5.130708661417323
11
6.2754198818897633
21
-5.1442634251968506
0
LINE
8
BLACK
6
CONTINUOUS
10
6.2754198818897633
20
-5.1442634251968506
11
6.2731457874015746
21
-5.1576477165354326
0
LINE
8
BLACK
6
CONTINUOUS
10
6.2731457874015746
20
-5.1576477165354326
11
6.2693874409448815
21
-5.1706932283464564
0
LINE
8
BLACK
6
CONTINUOUS
10
6.2693874409448815
20
-5.1706932283464564
11
6.2641920866141731
21
-5.1832359055118111
0
LINE
8
BLACK
6
CONTINUOUS
10
6.2641920866141731
20
-5.1832359055118111
11
6.2576250787401575
21
-5.1951180708661413
0
LINE
8
BLACK
6
CONTINUOUS
10
6.2576250787401575
20
-5.1951180708661413
11
6.2497689763779523
21
-5.2061901968503932
0
LINE
8
BLACK
6
CONTINUOUS
10
6.2497689763779523
20
-5.2061901968503932
11
6.2407225590551176
21
-5.2163131102362206
0
LINE
8
BLACK
6
CONTINUOUS
10
6.2407225590551176
20
-5.2163131102362206
11
6.2305996456692911
21
-5.2253595275590552
0
LINE
8
BLACK
6
CONTINUOUS
10
6.2305996456692911
20
-5.2253595275590552
11
6.2195275196850393
21
-5.2332156299212595
0
LINE
8
BLACK
6
CONTINUOUS
10
6.2195275196850393
20
-5.2332156299212595
11
6.2076453543307082
21
-5.2397826377952752
0
LINE
8
BLACK
6
CONTINUOUS
10
6.2076453543307082
20
-5.2397826377952752
11
6.1951026771653543
21
-5.2449779921259845
0
LINE
8
BLACK
6
CONTINUOUS
10
6.1951026771653543
20
-5.2449779921259845
11
6.1820571653543306
21
-5.2487363385826766
0
LINE
8
BLACK
6
CONTINUOUS
10
6.1820571653543306
20
-5.2487363385826766
11
6.1686728740157477
21
-5.2510104330708662
0
LINE
8
BLACK
6
CONTINUOUS
10
6.1686728740157477
20
-5.2510104330708662
11
6.15511811023622
21
-5.2517716535433072
0
LINE
8
BLACK
6
CONTINUOUS
10
6.15511811023622
20
-5.2517716535433072
11
6.1415633464566932
21
-5.2510104330708662
0
LINE
8
BLACK
6
CONTINUOUS
10
6.1415633464566932
20
-5.2510104330708662
11
6.1281790551181103
21
-5.2487363385826766
0
LINE
8
BLACK
6
CONTINUOUS
10
6.1281790551181103
20
-5.2487363385826766
11
6.1151335433070866
21
-5.2449779921259845
0
LINE
8
BLACK
6
CONTINUOUS
10
6.1151335433070866
20
-5.2449779921259845
11
6.1025908661417319
21
-5.2397826377952752
0
LINE
8
BLACK
6
CONTINUOUS
10
6.1025908661417319
20
-5.2397826377952752
11
6.0907087007874017
21
-5.2332156299212595
0
LINE
8
BLACK
6
CONTINUOUS
10
6.0907087007874017
20
-5.2332156299212595
11
6.0796365748031498
21
-5.2253595275590552
0
LINE
8
BLACK
6
CONTINUOUS
10
6.0796365748031498
20
-5.2253595275590552
11
6.0695136614173224
21
-5.2163131102362206
0
LINE
8
BLACK
6
CONTINUOUS
10
6.0695136614173224
20
-5.2163131102362206
11
6.0604672440944878
21
-5.2061901968503932
0
LINE
8
BLACK
6
CONTINUOUS
10
6.0604672440944878
20
-5.2061901968503932
11
6.0526111417322834
21
-5.1951180708661413
0
LINE
8
BLACK
6
CONTINUOUS
10
6.0526111417322834
20
-5.1951180708661413
11
6.0460441338582678
21
-5.1832359055118111
0
LINE
8
BLACK
6
CONTINUOUS
10
6.0460441338582678
20
-5.1832359055118111
11
6.0408487795275585
21
-5.1706932283464564
0
LINE
8
BLACK
6
CONTINUOUS
10
6.0408487795275585
20
-5.1706932283464564
11
6.0370904330708663
21
-5.1576477165354326
0
LINE
8
BLACK
6
CONTINUOUS
10
6.0370904330708663
20
-5.1576477165354326
11
6.0348163385826767
21
-5.1442634251968506
0
LINE
8
BLACK
6
CONTINUOUS
10
6.0348163385826767
20
-5.1442634251968506
11
6.0340551181102358
21
-5.130708661417323
0
LINE
8
BLACK
6
CONTINUOUS
10
6.0340551181102358
20
-5.130708661417323
11
6.0348163385826767
21
-5.1171538976377953
0
LINE
8
BLACK
6
CONTINUOUS
10
6.0348163385826767
20
-5.1171538976377953
11
6.0370904330708663
21
-5.1037696062992124
0
LINE
8
BLACK
6
CONTINUOUS
10
6.0370904330708663
20
-5.1037696062992124
11
6.0408487795275585
21
-5.0907240944881886
0
LINE
8
BLACK
6
CONTINUOUS
10
6.0408487795275585
20
-5.0907240944881886
11
6.0460441338582678
21
-5.0781814173228348
0
LINE
8
BLACK
6
CONTINUOUS
10
6.0460441338582678
20
-5.0781814173228348
11
6.0526111417322834
21
-5.0662992519685037
0
LINE
8
BLACK
6
CONTINUOUS
10
6.0526111417322834
20
-5.0662992519685037
11
6.0604672440944878
21
-5.0552271259842518
0
LINE
8
BLACK
6
CONTINUOUS
10
6.0604672440944878
20
-5.0552271259842518
11
6.0695136614173224
21
-5.0451042125984253
0
LINE
8
BLACK
6
CONTINUOUS
10
6.0695136614173224
20
-5.0451042125984253
11
6.0796365748031498
21
-5.0360577952755907
0
LINE
8
BLACK
6
CONTINUOUS
10
6.0796365748031498
20
-5.0360577952755907
11
6.0907087007874017
21
-5.0282016929133855
0
LINE
8
BLACK
6
CONTINUOUS
10
6.0907087007874017
20
-5.0282016929133855
11
6.1025908661417319
21
-5.0216346850393698
0
LINE
8
BLACK
6
CONTINUOUS
10
6.1025908661417319
20
-5.0216346850393698
11
6.1151335433070866
21
-5.0164393307086614
0
LINE
8
BLACK
6
CONTINUOUS
10
6.1151335433070866
20
-5.0164393307086614
11
6.1281790551181103
21
-5.0126809842519684
0
LINE
8
BLACK
6
CONTINUOUS
10
6.1281790551181103
20
-5.0126809842519684
11
6.1415633464566932
21
-5.0104068897637797
0
LINE
8
BLACK
6
CONTINUOUS
10
6.1415633464566932
20
-5.0104068897637797
11
6.15511811023622
21
-5.0096456692913387
0
LINE
8
BLACK
6
CONTINUOUS
10
6.15511811023622
20
-5.0096456692913387
11
6.1686728740157477
21
-5.0104068897637797
0
LINE
8
BLACK
6
CONTINUOUS
10
6.0365860236220472
20
-5.1440640157480315
11
6.0388266535433068
21
-5.1572514173228345
0
LINE
8
BLACK
6
CONTINUOUS
10
6.0388266535433068
20
-5.1572514173228345
11
6.0425296850393702
21
-5.1701050393700783
0
LINE
8
BLACK
6
CONTINUOUS
10
6.0425296850393702
20
-5.1701050393700783
11
6.0476486220472436
21
-5.1824632283464567
0
LINE
8
BLACK
6
CONTINUOUS
10
6.0476486220472436
20
-5.1824632283464567
11
6.0541190551181101
21
-5.194170590551181
0
LINE
8
BLACK
6
CONTINUOUS
10
6.0541190551181101
20
-5.194170590551181
11
6.0618596062992127
21
-5.2050798425196847
0
LINE
8
BLACK
6
CONTINUOUS
10
6.0618596062992127
20
-5.2050798425196847
11
6.0707729133858264
21
-5.2150538582677166
0
LINE
8
BLACK
6
CONTINUOUS
10
6.0707729133858264
20
-5.2150538582677166
11
6.0807469291338583
21
-5.2239671653543303
0
LINE
8
BLACK
6
CONTINUOUS
10
6.0807469291338583
20
-5.2239671653543303
11
6.091656181102362
21
-5.2317077165354329
0
LINE
8
BLACK
6
CONTINUOUS
10
6.091656181102362
20
-5.2317077165354329
11
6.1033635433070863
21
-5.2381781496062993
0
LINE
8
BLACK
6
CONTINUOUS
10
6.1033635433070863
20
-5.2381781496062993
11
6.1157217322834647
21
-5.2432970866141728
0
LINE
8
BLACK
6
CONTINUOUS
10
6.1157217322834647
20
-5.2432970866141728
11
6.1285753543307084
21
-5.2470001181102361
0
LINE
8
BLACK
6
CONTINUOUS
10
6.1285753543307084
20
-5.2470001181102361
11
6.1417627559055115
21
-5.2492407480314958
0
LINE
8
BLACK
6
CONTINUOUS
10
6.1417627559055115
20
-5.2492407480314958
11
6.15511811023622
21
-5.2499907874015745
0
LINE
8
BLACK
6
CONTINUOUS
10
6.15511811023622
20
-5.2499907874015745
11
6.1684734645669286
21
-5.2492407480314958
0
LINE
8
BLACK
6
CONTINUOUS
10
6.1684734645669286
20
-5.2492407480314958
11
6.1816608661417325
21
-5.2470001181102361
0
LINE
8
BLACK
6
CONTINUOUS
10
6.1816608661417325
20
-5.2470001181102361
11
6.1945144881889762
21
-5.2432970866141728
0
LINE
8
BLACK
6
CONTINUOUS
10
6.1945144881889762
20
-5.2432970866141728
11
6.2068726771653546
21
-5.2381781496062993
0
LINE
8
BLACK
6
CONTINUOUS
10
6.2068726771653546
20
-5.2381781496062993
11
6.218580039370079
21
-5.2317077165354329
0
LINE
8
BLACK
6
CONTINUOUS
10
6.218580039370079
20
-5.2317077165354329
11
6.2294892913385826
21
-5.2239671653543303
0
LINE
8
BLACK
6
CONTINUOUS
10
6.2294892913385826
20
-5.2239671653543303
11
6.2394633070866137
21
-5.2150538582677166
0
LINE
8
BLACK
6
CONTINUOUS
10
6.2394633070866137
20
-5.2150538582677166
11
6.2483766141732282
21
-5.2050798425196847
0
LINE
8
BLACK
6
CONTINUOUS
10
6.2483766141732282
20
-5.2050798425196847
11
6.2561171653543308
21
-5.194170590551181
0
LINE
8
BLACK
6
CONTINUOUS
10
6.2561171653543308
20
-5.194170590551181
11
6.2625875984251964
21
-5.1824632283464567
0
LINE
8
BLACK
6
CONTINUOUS
10
6.2625875984251964
20
-5.1824632283464567
11
6.2677065354330708
21
-5.1701050393700783
0
LINE
8
BLACK
6
CONTINUOUS
10
6.2677065354330708
20
-5.1701050393700783
11
6.2714095669291341
21
-5.1572514173228345
0
LINE
8
BLACK
6
CONTINUOUS
10
6.2714095669291341
20
-5.1572514173228345
11
6.2736501968503937
21
-5.1440640157480315
0
LINE
8
BLACK
6
CONTINUOUS
10
6.2736501968503937
20
-5.1440640157480315
11
6.2744002362204725
21
-5.130708661417323
0
LINE
8
BLACK
6
CONTINUOUS
10
6.2744002362204725
20
-5.130708661417323
11
6.2736501968503937
21
-5.1173533070866144
0
LINE
8
BLACK
6
CONTINUOUS
10
6.2736501968503937
20
-5.1173533070866144
11
6.2714095669291341
21
-5.1041659055118105
0
LINE
8
BLACK
6
CONTINUOUS
10
6.2714095669291341
20
-5.1041659055118105
11
6.2677065354330708
21
-5.0913122834645668
0
LINE
8
BLACK
6
CONTINUOUS
10
6.2677065354330708
20
-5.0913122834645668
11
6.2625875984251964
21
-5.0789540944881892
0
LINE
8
BLACK
6
CONTINUOUS
10
6.2625875984251964
20
-5.0789540944881892
11
6.2561171653543308
21
-5.0672467322834649
0
LINE
8
BLACK
6
CONTINUOUS
10
6.2561171653543308
20
-5.0672467322834649
11
6.2483766141732282
21
-5.0563374803149603
0
LINE
8
BLACK
6
CONTINUOUS
10
6.2483766141732282
20
-5.0563374803149603
11
6.2394633070866137
21
-5.0463634645669293
0
LINE
8
BLACK
6
CONTINUOUS
10
6.2394633070866137
20
-5.0463634645669293
11
6.2294892913385826
21
-5.0374501574803148
0
LINE
8
BLACK
6
CONTINUOUS
10
6.2294892913385826
20
-5.0374501574803148
11
6.218580039370079
21
-5.0297096062992122
0
LINE
8
BLACK
6
CONTINUOUS
10
6.218580039370079
20
-5.0297096062992122
11
6.2068726771653546
21
-5.0232391732283466
0
LINE
8
BLACK
6
CONTINUOUS
10
6.2068726771653546
20
-5.0232391732283466
11
6.1945144881889762
21
-5.0181202362204722
0
LINE
8
BLACK
6
CONTINUOUS
10
6.1945144881889762
20
-5.0181202362204722
11
6.1816608661417325
21
-5.0144172047244098
0
LINE
8
BLACK
6
CONTINUOUS
10
6.1816608661417325
20
-5.0144172047244098
11
6.1684734645669286
21
-5.0121765748031493
0
LINE
8
BLACK
6
CONTINUOUS
10
6.1684734645669286
20
-5.0121765748031493
11
6.15511811023622
21
-5.0114265354330705
0
LINE
8
BLACK
6
CONTINUOUS
10
6.15511811023622
20
-5.0114265354330705
11
6.1417627559055115
21
-5.0121765748031493
0
LINE
8
BLACK
6
CONTINUOUS
10
6.1417627559055115
20
-5.0121765748031493
11
6.1285753543307084
21
-5.0144172047244098
0
LINE
8
BLACK
6
CONTINUOUS
10
6.1285753543307084
20
-5.0144172047244098
11
6.1157217322834647
21
-5.0181202362204722
0
LINE
8
BLACK
6
CONTINUOUS
10
6.1157217322834647
20
-5.0181202362204722
11
6.1033635433070863
21
-5.0232391732283466
0
LINE
8
BLACK
6
CONTINUOUS
10
6.1033635433070863
20
-5.0232391732283466
11
6.091656181102362
21
-5.0297096062992122
0
LINE
8
BLACK
6
CONTINUOUS
10
6.091656181102362
20
-5.0297096062992122
11
6.0807469291338583
21
-5.0374501574803148
0
LINE
8
BLACK
6
CONTINUOUS
10
6.0807469291338583
20
-5.0374501574803148
11
6.0707729133858264
21
-5.0463634645669293
0
LINE
8
BLACK
6
CONTINUOUS
10
6.0707729133858264
20
-5.0463634645669293
11
6.0618596062992127
21
-5.0563374803149603
0
LINE
8
BLACK
6
CONTINUOUS
10
6.0618596062992127
20
-5.0563374803149603
11
6.0541190551181101
21
-5.0672467322834649
0
LINE
8
BLACK
6
CONTINUOUS
10
6.0541190551181101
20
-5.0672467322834649
11
6.0476486220472436
21
-5.0789540944881892
0
LINE
8
BLACK
6
CONTINUOUS
10
6.0476486220472436
20
-5.0789540944881892
11
6.0425296850393702
21
-5.0913122834645668
0
LINE
8
BLACK
6
CONTINUOUS
10
6.0425296850393702
20
-5.0913122834645668
11
6.0388266535433068
21
-5.1041659055118105
0
LINE
8
BLACK
6
CONTINUOUS
10
6.0388266535433068
20
-5.1041659055118105
11
6.0365860236220472
21
-5.1173533070866144
0
LINE
8
BLACK
6
CONTINUOUS
10
6.0365860236220472
20
-5.1173533070866144
11
6.0358359842519684
21
-5.130708661417323
0
LINE
8
BLACK
6
CONTINUOUS
10
6.0358359842519684
20
-5.130708661417323
11
6.0365860236220472
21
-5.1440640157480315
0
LINE
8
BLACK
6
CONTINUOUS
10
5.6700616929133858
20
-4.0146418503937005
11
5.6705943700787405
21
-4.0151745275590551
0
LINE
8
BLACK
6
CONTINUOUS
10
5.6705943700787405
20
-4.0151745275590551
11
5.6706692913385828
21
-4.0155511811023619
0
LINE
8
BLACK
6
CONTINUOUS
10
5.6706692913385828
20
-4.0155511811023619
11
5.6706692913385828
21
-4.6454724409448822
0
LINE
8
BLACK
6
CONTINUOUS
10
5.6706692913385828
20
-4.6454724409448822
11
5.6705943700787405
21
-4.6458490944881889
0
LINE
8
BLACK
6
CONTINUOUS
10
5.6705943700787405
20
-4.6458490944881889
11
5.6700616929133858
21
-4.6463817716535436
0
LINE
8
BLACK
6
CONTINUOUS
10
5.6700616929133858
20
-4.6463817716535436
11
5.6696850393700782
21
-4.6464566929133859
0
LINE
8
BLACK
6
CONTINUOUS
10
5.6696850393700782
20
-4.6464566929133859
11
5.0397637795275587
21
-4.6464566929133859
0
LINE
8
BLACK
6
CONTINUOUS
10
5.0397637795275587
20
-4.6464566929133859
11
5.039387125984252
21
-4.6463817716535436
0
LINE
8
BLACK
6
CONTINUOUS
10
5.039387125984252
20
-4.6463817716535436
11
5.0388544488188973
21
-4.6458490944881889
0
LINE
8
BLACK
6
CONTINUOUS
10
5.0388544488188973
20
-4.6458490944881889
11
5.038779527559055
21
-4.6454724409448822
0
LINE
8
BLACK
6
CONTINUOUS
10
5.038779527559055
20
-4.6454724409448822
11
5.038779527559055
21
-4.0155511811023619
0
LINE
8
BLACK
6
CONTINUOUS
10
5.038779527559055
20
-4.0155511811023619
11
5.0388544488188973
21
-4.0151745275590551
0
LINE
8
BLACK
6
CONTINUOUS
10
5.0388544488188973
20
-4.0151745275590551
11
5.039387125984252
21
-4.0146418503937005
0
LINE
8
BLACK
6
CONTINUOUS
10
5.039387125984252
20
-4.0146418503937005
11
5.0397637795275587
21
-4.0145669291338582
0
LINE
8
BLACK
6
CONTINUOUS
10
5.0397637795275587
20
-4.0145669291338582
11
5.6696850393700782
21
-4.0145669291338582
0
LINE
8
BLACK
6
CONTINUOUS
10
5.6696850393700782
20
-4.0145669291338582
11
5.6700616929133858
21
-4.0146418503937005
0
LINE
8
BLACK
6
CONTINUOUS
10
5.0407480314960633
20
-4.0165354330708665
11
5.0407480314960633
21
-4.6444881889763776
0
LINE
8
BLACK
6
CONTINUOUS
10
5.0407480314960633
20
-4.6444881889763776
11
5.6687007874015745
21
-4.6444881889763776
0
LINE
8
BLACK
6
CONTINUOUS
10
5.6687007874015745
20
-4.6444881889763776
11
5.6687007874015745
21
-4.0165354330708665
0
LINE
8
BLACK
6
CONTINUOUS
10
5.6687007874015745
20
-4.0165354330708665
11
5.0407480314960633
21
-4.0165354330708665
0
LINE
8
BLACK
6
CONTINUOUS
10
5.6589396456692915
20
-3.9132638976377954
11
5.6594723228346453
21
-3.9137965748031496
0
LINE
8
BLACK
6
CONTINUOUS
10
5.6594723228346453
20
-3.9137965748031496
11
5.6595472440944876
21
-3.9141732283464568
0
LINE
8
BLACK
6
CONTINUOUS
10
5.6595472440944876
20
-3.9141732283464568
11
5.6595472440944876
21
-3.9716535433070863
0
LINE
8
BLACK
6
CONTINUOUS
10
5.6595472440944876
20
-3.9716535433070863
11
5.6594723228346453
21
-3.9720301968503935
0
LINE
8
BLACK
6
CONTINUOUS
10
5.6594723228346453
20
-3.9720301968503935
11
5.6589396456692915
21
-3.9725628740157481
0
LINE
8
BLACK
6
CONTINUOUS
10
5.6589396456692915
20
-3.9725628740157481
11
5.6585629921259839
21
-3.9726377952755905
0
LINE
8
BLACK
6
CONTINUOUS
10
5.6585629921259839
20
-3.9726377952755905
11
5.5420275590551178
21
-3.9726377952755905
0
LINE
8
BLACK
6
CONTINUOUS
10
5.5420275590551178
20
-3.9726377952755905
11
5.5416509055118111
21
-3.9725628740157481
0
LINE
8
BLACK
6
CONTINUOUS
10
5.5416509055118111
20
-3.9725628740157481
11
5.5411182283464564
21
-3.9720301968503935
0
LINE
8
BLACK
6
CONTINUOUS
10
5.5411182283464564
20
-3.9720301968503935
11
5.5410433070866141
21
-3.9716535433070863
0
LINE
8
BLACK
6
CONTINUOUS
10
5.5410433070866141
20
-3.9716535433070863
11
5.5410433070866141
21
-3.9141732283464568
0
LINE
8
BLACK
6
CONTINUOUS
10
5.5410433070866141
20
-3.9141732283464568
11
5.5411182283464564
21
-3.9137965748031496
0
LINE
8
BLACK
6
CONTINUOUS
10
5.5411182283464564
20
-3.9137965748031496
11
5.5416509055118111
21
-3.9132638976377954
0
LINE
8
BLACK
6
CONTINUOUS
10
5.5416509055118111
20
-3.9132638976377954
11
5.5420275590551178
21
-3.9131889763779526
0
LINE
8
BLACK
6
CONTINUOUS
10
5.5420275590551178
20
-3.9131889763779526
11
5.6585629921259839
21
-3.9131889763779526
0
LINE
8
BLACK
6
CONTINUOUS
10
5.6585629921259839
20
-3.9131889763779526
11
5.6589396456692915
21
-3.9132638976377954
0
LINE
8
BLACK
6
CONTINUOUS
10
5.5430118110236215
20
-3.9151574803149605
11
5.5430118110236215
21
-3.9706692913385826
0
LINE
8
BLACK
6
CONTINUOUS
10
5.5430118110236215
20
-3.9706692913385826
11
5.6575787401574802
21
-3.9706692913385826
0
LINE
8
BLACK
6
CONTINUOUS
10
5.6575787401574802
20
-3.9706692913385826
11
5.6575787401574802
21
-3.9151574803149605
0
LINE
8
BLACK
6
CONTINUOUS
10
5.6575787401574802
20
-3.9151574803149605
11
5.5430118110236215
21
-3.9151574803149605
0
LINE
8
BLACK
6
CONTINUOUS
10
5.1670105118110232
20
-3.9120827952755906
11
5.1675431889763779
21
-3.9126154724409448
0
LINE
8
BLACK
6
CONTINUOUS
10
5.1675431889763779
20
-3.9126154724409448
11
5.1676181102362202
21
-3.9129921259842519
0
LINE
8
BLACK
6
CONTINUOUS
10
5.1676181102362202
20
-3.9129921259842519
11
5.1676181102362202
21
-3.9704724409448819
0
LINE
8
BLACK
6
CONTINUOUS
10
5.1676181102362202
20
-3.9704724409448819
11
5.1675431889763779
21
-3.9708490944881887
0
LINE
8
BLACK
6
CONTINUOUS
10
5.1675431889763779
20
-3.9708490944881887
11
5.1670105118110232
21
-3.9713817716535433
0
LINE
8
BLACK
6
CONTINUOUS
10
5.1670105118110232
20
-3.9713817716535433
11
5.1666338582677165
21
-3.9714566929133857
0
LINE
8
BLACK
6
CONTINUOUS
10
5.1666338582677165
20
-3.9714566929133857
11
5.0500984251968504
21
-3.9714566929133857
0
LINE
8
BLACK
6
CONTINUOUS
10
5.0500984251968504
20
-3.9714566929133857
11
5.0497217716535436
21
-3.9713817716535433
0
LINE
8
BLACK
6
CONTINUOUS
10
5.0497217716535436
20
-3.9713817716535433
11
5.049189094488189
21
-3.9708490944881887
0
LINE
8
BLACK
6
CONTINUOUS
10
5.049189094488189
20
-3.9708490944881887
11
5.0491141732283467
21
-3.9704724409448819
0
LINE
8
BLACK
6
CONTINUOUS
10
5.0491141732283467
20
-3.9704724409448819
11
5.0491141732283467
21
-3.9129921259842519
0
LINE
8
BLACK
6
CONTINUOUS
10
5.0491141732283467
20
-3.9129921259842519
11
5.049189094488189
21
-3.9126154724409448
0
LINE
8
BLACK
6
CONTINUOUS
10
5.049189094488189
20
-3.9126154724409448
11
5.0497217716535436
21
-3.9120827952755906
0
LINE
8
BLACK
6
CONTINUOUS
10
5.0497217716535436
20
-3.9120827952755906
11
5.0500984251968504
21
-3.9120078740157478
0
LINE
8
BLACK
6
CONTINUOUS
10
5.0500984251968504
20
-3.9120078740157478
11
5.1666338582677165
21
-3.9120078740157478
0
LINE
8
BLACK
6
CONTINUOUS
10
5.1666338582677165
20
-3.9120078740157478
11
5.1670105118110232
21
-3.9120827952755906
0
LINE
8
BLACK
6
CONTINUOUS
10
5.0510826771653541
20
-3.9139763779527557
11
5.0510826771653541
21
-3.9694881889763778
0
LINE
8
BLACK
6
CONTINUOUS
10
5.0510826771653541
20
-3.9694881889763778
11
5.1656496062992128
21
-3.9694881889763778
0
LINE
8
BLACK
6
CONTINUOUS
10
5.1656496062992128
20
-3.9694881889763778
11
5.1656496062992128
21
-3.9139763779527557
0
LINE
8
BLACK
6
CONTINUOUS
10
5.1656496062992128
20
-3.9139763779527557
11
5.0510826771653541
21
-3.9139763779527557
0
LINE
8
BLACK
6
CONTINUOUS
10
4.5686728740157481
20
-3.4104068897637796
11
4.5820571653543309
21
-3.4126809842519683
0
LINE
8
BLACK
6
CONTINUOUS
10
4.5820571653543309
20
-3.4126809842519683
11
4.5951026771653538
21
-3.4164393307086613
0
LINE
8
BLACK
6
CONTINUOUS
10
4.5951026771653538
20
-3.4164393307086613
11
4.6076453543307085
21
-3.4216346850393702
0
LINE
8
BLACK
6
CONTINUOUS
10
4.6076453543307085
20
-3.4216346850393702
11
4.6195275196850396
21
-3.4282016929133858
0
LINE
8
BLACK
6
CONTINUOUS
10
4.6195275196850396
20
-3.4282016929133858
11
4.6305996456692915
21
-3.4360577952755906
0
LINE
8
BLACK
6
CONTINUOUS
10
4.6305996456692915
20
-3.4360577952755906
11
4.640722559055118
21
-3.4451042125984253
0
LINE
8
BLACK
6
CONTINUOUS
10
4.640722559055118
20
-3.4451042125984253
11
4.6497689763779526
21
-3.4552271259842517
0
LINE
8
BLACK
6
CONTINUOUS
10
4.6497689763779526
20
-3.4552271259842517
11
4.657625078740157
21
-3.4662992519685036
0
LINE
8
BLACK
6
CONTINUOUS
10
4.657625078740157
20
-3.4662992519685036
11
4.6641920866141735
21
-3.4781814173228347
0
LINE
8
BLACK
6
CONTINUOUS
10
4.6641920866141735
20
-3.4781814173228347
11
4.6693874409448819
21
-3.490724094488189
0
LINE
8
BLACK
6
CONTINUOUS
10
4.6693874409448819
20
-3.490724094488189
11
4.6731457874015749
21
-3.5037696062992123
0
LINE
8
BLACK
6
CONTINUOUS
10
4.6731457874015749
20
-3.5037696062992123
11
4.6754198818897637
21
-3.5171538976377952
0
LINE
8
BLACK
6
CONTINUOUS
10
4.6754198818897637
20
-3.5171538976377952
11
4.6761811023622046
21
-3.5307086614173229
0
LINE
8
BLACK
6
CONTINUOUS
10
4.6761811023622046
20
-3.5307086614173229
11
4.6754198818897637
21
-3.5442634251968501
0
LINE
8
BLACK
6
CONTINUOUS
10
4.6754198818897637
20
-3.5442634251968501
11
4.6731457874015749
21
-3.557647716535433
0
LINE
8
BLACK
6
CONTINUOUS
10
4.6731457874015749
20
-3.557647716535433
11
4.6693874409448819
21
-3.5706932283464567
0
LINE
8
BLACK
6
CONTINUOUS
10
4.6693874409448819
20
-3.5706932283464567
11
4.6641920866141735
21
-3.583235905511811
0
LINE
8
BLACK
6
CONTINUOUS
10
4.6641920866141735
20
-3.583235905511811
11
4.657625078740157
21
-3.5951180708661417
0
LINE
8
BLACK
6
CONTINUOUS
10
4.657625078740157
20
-3.5951180708661417
11
4.6497689763779526
21
-3.6061901968503935
0
LINE
8
BLACK
6
CONTINUOUS
10
4.6497689763779526
20
-3.6061901968503935
11
4.640722559055118
21
-3.6163131102362205
0
LINE
8
BLACK
6
CONTINUOUS
10
4.640722559055118
20
-3.6163131102362205
11
4.6305996456692915
21
-3.6253595275590551
0
LINE
8
BLACK
6
CONTINUOUS
10
4.6305996456692915
20
-3.6253595275590551
11
4.6195275196850396
21
-3.6332156299212599
0
LINE
8
BLACK
6
CONTINUOUS
10
4.6195275196850396
20
-3.6332156299212599
11
4.6076453543307085
21
-3.6397826377952756
0
LINE
8
BLACK
6
CONTINUOUS
10
4.6076453543307085
20
-3.6397826377952756
11
4.5951026771653538
21
-3.6449779921259844
0
LINE
8
BLACK
6
CONTINUOUS
10
4.5951026771653538
20
-3.6449779921259844
11
4.5820571653543309
21
-3.648736338582677
0
LINE
8
BLACK
6
CONTINUOUS
10
4.5820571653543309
20
-3.648736338582677
11
4.5686728740157481
21
-3.6510104330708661
0
LINE
8
BLACK
6
CONTINUOUS
10
4.5686728740157481
20
-3.6510104330708661
11
4.5551181102362204
21
-3.6517716535433071
0
LINE
8
BLACK
6
CONTINUOUS
10
4.5551181102362204
20
-3.6517716535433071
11
4.5415633464566927
21
-3.6510104330708661
0
LINE
8
BLACK
6
CONTINUOUS
10
4.5415633464566927
20
-3.6510104330708661
11
4.5281790551181098
21
-3.648736338582677
0
LINE
8
BLACK
6
CONTINUOUS
10
4.5281790551181098
20
-3.648736338582677
11
4.5151335433070869
21
-3.6449779921259844
0
LINE
8
BLACK
6
CONTINUOUS
10
4.5151335433070869
20
-3.6449779921259844
11
4.5025908661417322
21
-3.6397826377952756
0
LINE
8
BLACK
6
CONTINUOUS
10
4.5025908661417322
20
-3.6397826377952756
11
4.4907087007874011
21
-3.6332156299212599
0
LINE
8
BLACK
6
CONTINUOUS
10
4.4907087007874011
20
-3.6332156299212599
11
4.4796365748031493
21
-3.6253595275590551
0
LINE
8
BLACK
6
CONTINUOUS
10
4.4796365748031493
20
-3.6253595275590551
11
4.4695136614173228
21
-3.6163131102362205
0
LINE
8
BLACK
6
CONTINUOUS
10
4.4695136614173228
20
-3.6163131102362205
11
4.4604672440944881
21
-3.6061901968503935
0
LINE
8
BLACK
6
CONTINUOUS
10
4.4604672440944881
20
-3.6061901968503935
11
4.4526111417322838
21
-3.5951180708661417
0
LINE
8
BLACK
6
CONTINUOUS
10
4.4526111417322838
20
-3.5951180708661417
11
4.4460441338582672
21
-3.583235905511811
0
LINE
8
BLACK
6
CONTINUOUS
10
4.4460441338582672
20
-3.583235905511811
11
4.4408487795275589
21
-3.5706932283464567
0
LINE
8
BLACK
6
CONTINUOUS
10
4.4408487795275589
20
-3.5706932283464567
11
4.4370904330708658
21
-3.557647716535433
0
LINE
8
BLACK
6
CONTINUOUS
10
4.4370904330708658
20
-3.557647716535433
11
4.4348163385826771
21
-3.5442634251968501
0
LINE
8
BLACK
6
CONTINUOUS
10
4.4348163385826771
20
-3.5442634251968501
11
4.4340551181102361
21
-3.5307086614173229
0
LINE
8
BLACK
6
CONTINUOUS
10
4.4340551181102361
20
-3.5307086614173229
11
4.4348163385826771
21
-3.5171538976377952
0
LINE
8
BLACK
6
CONTINUOUS
10
4.4348163385826771
20
-3.5171538976377952
11
4.4370904330708658
21
-3.5037696062992123
0
LINE
8
BLACK
6
CONTINUOUS
10
4.4370904330708658
20
-3.5037696062992123
11
4.4408487795275589
21
-3.490724094488189
0
LINE
8
BLACK
6
CONTINUOUS
10
4.4408487795275589
20
-3.490724094488189
11
4.4460441338582672
21
-3.4781814173228347
0
LINE
8
BLACK
6
CONTINUOUS
10
4.4460441338582672
20
-3.4781814173228347
11
4.4526111417322838
21
-3.4662992519685036
0
LINE
8
BLACK
6
CONTINUOUS
10
4.4526111417322838
20
-3.4662992519685036
11
4.4604672440944881
21
-3.4552271259842517
0
LINE
8
BLACK
6
CONTINUOUS
10
4.4604672440944881
20
-3.4552271259842517
11
4.4695136614173228
21
-3.4451042125984253
0
LINE
8
BLACK
6
CONTINUOUS
10
4.4695136614173228
20
-3.4451042125984253
11
4.4796365748031493
21
-3.4360577952755906
0
LINE
8
BLACK
6
CONTINUOUS
10
4.4796365748031493
20
-3.4360577952755906
11
4.4907087007874011
21
-3.4282016929133858
0
LINE
8
BLACK
6
CONTINUOUS
10
4.4907087007874011
20
-3.4282016929133858
11
4.5025908661417322
21
-3.4216346850393702
0
LINE
8
BLACK
6
CONTINUOUS
10
4.5025908661417322
20
-3.4216346850393702
11
4.5151335433070869
21
-3.4164393307086613
0
LINE
8
BLACK
6
CONTINUOUS
10
4.5151335433070869
20
-3.4164393307086613
11
4.5281790551181098
21
-3.4126809842519683
0
LINE
8
BLACK
6
CONTINUOUS
10
4.5281790551181098
20
-3.4126809842519683
11
4.5415633464566927
21
-3.4104068897637796
0
LINE
8
BLACK
6
CONTINUOUS
10
4.5415633464566927
20
-3.4104068897637796
11
4.5551181102362204
21
-3.4096456692913386
0
LINE
8
BLACK
6
CONTINUOUS
10
4.5551181102362204
20
-3.4096456692913386
11
4.5686728740157481
21
-3.4104068897637796
0
LINE
8
BLACK
6
CONTINUOUS
10
4.4365860236220476
20
-3.5440640157480314
11
4.4388266535433072
21
-3.5572514173228345
0
LINE
8
BLACK
6
CONTINUOUS
10
4.4388266535433072
20
-3.5572514173228345
11
4.4425296850393696
21
-3.5701050393700786
0
LINE
8
BLACK
6
CONTINUOUS
10
4.4425296850393696
20
-3.5701050393700786
11
4.447648622047244
21
-3.5824632283464566
0
LINE
8
BLACK
6
CONTINUOUS
10
4.447648622047244
20
-3.5824632283464566
11
4.4541190551181105
21
-3.5941705905511809
0
LINE
8
BLACK
6
CONTINUOUS
10
4.4541190551181105
20
-3.5941705905511809
11
4.4618596062992122
21
-3.6050798425196851
0
LINE
8
BLACK
6
CONTINUOUS
10
4.4618596062992122
20
-3.6050798425196851
11
4.4707729133858267
21
-3.6150538582677165
0
LINE
8
BLACK
6
CONTINUOUS
10
4.4707729133858267
20
-3.6150538582677165
11
4.4807469291338577
21
-3.6239671653543306
0
LINE
8
BLACK
6
CONTINUOUS
10
4.4807469291338577
20
-3.6239671653543306
11
4.4916561811023623
21
-3.6317077165354328
0
LINE
8
BLACK
6
CONTINUOUS
10
4.4916561811023623
20
-3.6317077165354328
11
4.5033635433070867
21
-3.6381781496062993
0
LINE
8
BLACK
6
CONTINUOUS
10
4.5033635433070867
20
-3.6381781496062993
11
4.5157217322834642
21
-3.6432970866141732
0
LINE
8
BLACK
6
CONTINUOUS
10
4.5157217322834642
20
-3.6432970866141732
11
4.5285753543307088
21
-3.6470001181102361
0
LINE
8
BLACK
6
CONTINUOUS
10
4.5285753543307088
20
-3.6470001181102361
11
4.5417627559055118
21
-3.6492407480314961
0
LINE
8
BLACK
6
CONTINUOUS
10
4.5417627559055118
20
-3.6492407480314961
11
4.5551181102362204
21
-3.6499907874015749
0
LINE
8
BLACK
6
CONTINUOUS
10
4.5551181102362204
20
-3.6499907874015749
11
4.5684734645669289
21
-3.6492407480314961
0
LINE
8
BLACK
6
CONTINUOUS
10
4.5684734645669289
20
-3.6492407480314961
11
4.581660866141732
21
-3.6470001181102361
0
LINE
8
BLACK
6
CONTINUOUS
10
4.581660866141732
20
-3.6470001181102361
11
4.5945144881889766
21
-3.6432970866141732
0
LINE
8
BLACK
6
CONTINUOUS
10
4.5945144881889766
20
-3.6432970866141732
11
4.6068726771653541
21
-3.6381781496062993
0
LINE
8
BLACK
6
CONTINUOUS
10
4.6068726771653541
20
-3.6381781496062993
11
4.6185800393700784
21
-3.6317077165354328
0
LINE
8
BLACK
6
CONTINUOUS
10
4.6185800393700784
20
-3.6317077165354328
11
4.629489291338583
21
-3.6239671653543306
0
LINE
8
BLACK
6
CONTINUOUS
10
4.629489291338583
20
-3.6239671653543306
11
4.639463307086614
21
-3.6150538582677165
0
LINE
8
BLACK
6
CONTINUOUS
10
4.639463307086614
20
-3.6150538582677165
11
4.6483766141732286
21
-3.6050798425196851
0
LINE
8
BLACK
6
CONTINUOUS
10
4.6483766141732286
20
-3.6050798425196851
11
4.6561171653543303
21
-3.5941705905511809
0
LINE
8
BLACK
6
CONTINUOUS
10
4.6561171653543303
20
-3.5941705905511809
11
4.6625875984251968
21
-3.5824632283464566
0
LINE
8
BLACK
6
CONTINUOUS
10
4.6625875984251968
20
-3.5824632283464566
11
4.6677065354330711
21
-3.5701050393700786
0
LINE
8
BLACK
6
CONTINUOUS
10
4.6677065354330711
20
-3.5701050393700786
11
4.6714095669291336
21
-3.5572514173228345
0
LINE
8
BLACK
6
CONTINUOUS
10
4.6714095669291336
20
-3.5572514173228345
11
4.6736501968503932
21
-3.5440640157480314
0
LINE
8
BLACK
6
CONTINUOUS
10
4.6736501968503932
20
-3.5440640157480314
11
4.674400236220472
21
-3.5307086614173229
0
LINE
8
BLACK
6
CONTINUOUS
10
4.674400236220472
20
-3.5307086614173229
11
4.6736501968503932
21
-3.5173533070866143
0
LINE
8
BLACK
6
CONTINUOUS
10
4.6736501968503932
20
-3.5173533070866143
11
4.6714095669291336
21
-3.5041659055118108
0
LINE
8
BLACK
6
CONTINUOUS
10
4.6714095669291336
20
-3.5041659055118108
11
4.6677065354330711
21
-3.4913122834645667
0
LINE
8
BLACK
6
CONTINUOUS
10
4.6677065354330711
20
-3.4913122834645667
11
4.6625875984251968
21
-3.4789540944881887
0
LINE
8
BLACK
6
CONTINUOUS
10
4.6625875984251968
20
-3.4789540944881887
11
4.6561171653543303
21
-3.4672467322834644
0
LINE
8
BLACK
6
CONTINUOUS
10
4.6561171653543303
20
-3.4672467322834644
11
4.6483766141732286
21
-3.4563374803149607
0
LINE
8
BLACK
6
CONTINUOUS
10
4.6483766141732286
20
-3.4563374803149607
11
4.639463307086614
21
-3.4463634645669292
0
LINE
8
BLACK
6
CONTINUOUS
10
4.639463307086614
20
-3.4463634645669292
11
4.629489291338583
21
-3.4374501574803147
0
LINE
8
BLACK
6
CONTINUOUS
10
4.629489291338583
20
-3.4374501574803147
11
4.6185800393700784
21
-3.4297096062992125
0
LINE
8
BLACK
6
CONTINUOUS
10
4.6185800393700784
20
-3.4297096062992125
11
4.6068726771653541
21
-3.4232391732283465
0
LINE
8
BLACK
6
CONTINUOUS
10
4.6068726771653541
20
-3.4232391732283465
11
4.5945144881889766
21
-3.4181202362204726
0
LINE
8
BLACK
6
CONTINUOUS
10
4.5945144881889766
20
-3.4181202362204726
11
4.581660866141732
21
-3.4144172047244092
0
LINE
8
BLACK
6
CONTINUOUS
10
4.581660866141732
20
-3.4144172047244092
11
4.5684734645669289
21
-3.4121765748031496
0
LINE
8
BLACK
6
CONTINUOUS
10
4.5684734645669289
20
-3.4121765748031496
11
4.5551181102362204
21
-3.4114265354330708
0
LINE
8
BLACK
6
CONTINUOUS
10
4.5551181102362204
20
-3.4114265354330708
11
4.5417627559055118
21
-3.4121765748031496
0
LINE
8
BLACK
6
CONTINUOUS
10
4.5417627559055118
20
-3.4121765748031496
11
4.5285753543307088
21
-3.4144172047244092
0
LINE
8
BLACK
6
CONTINUOUS
10
4.5285753543307088
20
-3.4144172047244092
11
4.5157217322834642
21
-3.4181202362204726
0
LINE
8
BLACK
6
CONTINUOUS
10
4.5157217322834642
20
-3.4181202362204726
11
4.5033635433070867
21
-3.4232391732283465
0
LINE
8
BLACK
6
CONTINUOUS
10
4.5033635433070867
20
-3.4232391732283465
11
4.4916561811023623
21
-3.4297096062992125
0
LINE
8
BLACK
6
CONTINUOUS
10
4.4916561811023623
20
-3.4297096062992125
11
4.4807469291338577
21
-3.4374501574803147
0
LINE
8
BLACK
6
CONTINUOUS
10
4.4807469291338577
20
-3.4374501574803147
11
4.4707729133858267
21
-3.4463634645669292
0
LINE
8
BLACK
6
CONTINUOUS
10
4.4707729133858267
20
-3.4463634645669292
11
4.4618596062992122
21
-3.4563374803149607
0
LINE
8
BLACK
6
CONTINUOUS
10
4.4618596062992122
20
-3.4563374803149607
11
4.4541190551181105
21
-3.4672467322834644
0
LINE
8
BLACK
6
CONTINUOUS
10
4.4541190551181105
20
-3.4672467322834644
11
4.447648622047244
21
-3.4789540944881887
0
LINE
8
BLACK
6
CONTINUOUS
10
4.447648622047244
20
-3.4789540944881887
11
4.4425296850393696
21
-3.4913122834645667
0
LINE
8
BLACK
6
CONTINUOUS
10
4.4425296850393696
20
-3.4913122834645667
11
4.4388266535433072
21
-3.5041659055118108
0
LINE
8
BLACK
6
CONTINUOUS
10
4.4388266535433072
20
-3.5041659055118108
11
4.4365860236220476
21
-3.5173533070866143
0
LINE
8
BLACK
6
CONTINUOUS
10
4.4365860236220476
20
-3.5173533070866143
11
4.4358359842519688
21
-3.5307086614173229
0
LINE
8
BLACK
6
CONTINUOUS
10
4.4358359842519688
20
-3.5307086614173229
11
4.4365860236220476
21
-3.5440640157480314
0
LINE
8
BLACK
6
CONTINUOUS
10
6.1686728740157477
20
-3.4104068897637796
11
6.1820571653543306
21
-3.4126809842519683
0
LINE
8
BLACK
6
CONTINUOUS
10
6.1820571653543306
20
-3.4126809842519683
11
6.1951026771653543
21
-3.4164393307086613
0
LINE
8
BLACK
6
CONTINUOUS
10
6.1951026771653543
20
-3.4164393307086613
11
6.2076453543307082
21
-3.4216346850393702
0
LINE
8
BLACK
6
CONTINUOUS
10
6.2076453543307082
20
-3.4216346850393702
11
6.2195275196850393
21
-3.4282016929133858
0
LINE
8
BLACK
6
CONTINUOUS
10
6.2195275196850393
20
-3.4282016929133858
11
6.2305996456692911
21
-3.4360577952755906
0
LINE
8
BLACK
6
CONTINUOUS
10
6.2305996456692911
20
-3.4360577952755906
11
6.2407225590551176
21
-3.4451042125984253
0
LINE
8
BLACK
6
CONTINUOUS
10
6.2407225590551176
20
-3.4451042125984253
11
6.2497689763779523
21
-3.4552271259842517
0
LINE
8
BLACK
6
CONTINUOUS
10
6.2497689763779523
20
-3.4552271259842517
11
6.2576250787401575
21
-3.4662992519685036
0
LINE
8
BLACK
6
CONTINUOUS
10
6.2576250787401575
20
-3.4662992519685036
11
6.2641920866141731
21
-3.4781814173228347
0
LINE
8
BLACK
6
CONTINUOUS
10
6.2641920866141731
20
-3.4781814173228347
11
6.2693874409448815
21
-3.490724094488189
0
LINE
8
BLACK
6
CONTINUOUS
10
6.2693874409448815
20
-3.490724094488189
11
6.2731457874015746
21
-3.5037696062992123
0
LINE
8
BLACK
6
CONTINUOUS
10
6.2731457874015746
20
-3.5037696062992123
11
6.2754198818897633
21
-3.5171538976377952
0
LINE
8
BLACK
6
CONTINUOUS
10
6.2754198818897633
20
-3.5171538976377952
11
6.2761811023622043
21
-3.5307086614173229
0
LINE
8
BLACK
6
CONTINUOUS
10
6.2761811023622043
20
-3.5307086614173229
11
6.2754198818897633
21
-3.5442634251968501
0
LINE
8
BLACK
6
CONTINUOUS
10
6.2754198818897633
20
-3.5442634251968501
11
6.2731457874015746
21
-3.557647716535433
0
LINE
8
BLACK
6
CONTINUOUS
10
6.2731457874015746
20
-3.557647716535433
11
6.2693874409448815
21
-3.5706932283464567
0
LINE
8
BLACK
6
CONTINUOUS
10
6.2693874409448815
20
-3.5706932283464567
11
6.2641920866141731
21
-3.583235905511811
0
LINE
8
BLACK
6
CONTINUOUS
10
6.2641920866141731
20
-3.583235905511811
11
6.2576250787401575
21
-3.5951180708661417
0
LINE
8
BLACK
6
CONTINUOUS
10
6.2576250787401575
20
-3.5951180708661417
11
6.2497689763779523
21
-3.6061901968503935
0
LINE
8
BLACK
6
CONTINUOUS
10
6.2497689763779523
20
-3.6061901968503935
11
6.2407225590551176
21
-3.6163131102362205
0
LINE
8
BLACK
6
CONTINUOUS
10
6.2407225590551176
20
-3.6163131102362205
11
6.2305996456692911
21
-3.6253595275590551
0
LINE
8
BLACK
6
CONTINUOUS
10
6.2305996456692911
20
-3.6253595275590551
11
6.2195275196850393
21
-3.6332156299212599
0
LINE
8
BLACK
6
CONTINUOUS
10
6.2195275196850393
20
-3.6332156299212599
11
6.2076453543307082
21
-3.6397826377952756
0
LINE
8
BLACK
6
CONTINUOUS
10
6.2076453543307082
20
-3.6397826377952756
11
6.1951026771653543
21
-3.6449779921259844
0
LINE
8
BLACK
6
CONTINUOUS
10
6.1951026771653543
20
-3.6449779921259844
11
6.1820571653543306
21
-3.648736338582677
0
LINE
8
BLACK
6
CONTINUOUS
10
6.1820571653543306
20
-3.648736338582677
11
6.1686728740157477
21
-3.6510104330708661
0
LINE
8
BLACK
6
CONTINUOUS
10
6.1686728740157477
20
-3.6510104330708661
11
6.15511811023622
21
-3.6517716535433071
0
LINE
8
BLACK
6
CONTINUOUS
10
6.15511811023622
20
-3.6517716535433071
11
6.1415633464566932
21
-3.6510104330708661
0
LINE
8
BLACK
6
CONTINUOUS
10
6.1415633464566932
20
-3.6510104330708661
11
6.1281790551181103
21
-3.648736338582677
0
LINE
8
BLACK
6
CONTINUOUS
10
6.1281790551181103
20
-3.648736338582677
11
6.1151335433070866
21
-3.6449779921259844
0
LINE
8
BLACK
6
CONTINUOUS
10
6.1151335433070866
20
-3.6449779921259844
11
6.1025908661417319
21
-3.6397826377952756
0
LINE
8
BLACK
6
CONTINUOUS
10
6.1025908661417319
20
-3.6397826377952756
11
6.0907087007874017
21
-3.6332156299212599
0
LINE
8
BLACK
6
CONTINUOUS
10
6.0907087007874017
20
-3.6332156299212599
11
6.0796365748031498
21
-3.6253595275590551
0
LINE
8
BLACK
6
CONTINUOUS
10
6.0796365748031498
20
-3.6253595275590551
11
6.0695136614173224
21
-3.6163131102362205
0
LINE
8
BLACK
6
CONTINUOUS
10
6.0695136614173224
20
-3.6163131102362205
11
6.0604672440944878
21
-3.6061901968503935
0
LINE
8
BLACK
6
CONTINUOUS
10
6.0604672440944878
20
-3.6061901968503935
11
6.0526111417322834
21
-3.5951180708661417
0
LINE
8
BLACK
6
CONTINUOUS
10
6.0526111417322834
20
-3.5951180708661417
11
6.0460441338582678
21
-3.583235905511811
0
LINE
8
BLACK
6
CONTINUOUS
10
6.0460441338582678
20
-3.583235905511811
11
6.0408487795275585
21
-3.5706932283464567
0
LINE
8
BLACK
6
CONTINUOUS
10
6.0408487795275585
20
-3.5706932283464567
11
6.0370904330708663
21
-3.557647716535433
0
LINE
8
BLACK
6
CONTINUOUS
10
6.0370904330708663
20
-3.557647716535433
11
6.0348163385826767
21
-3.5442634251968501
0
LINE
8
BLACK
6
CONTINUOUS
10
6.0348163385826767
20
-3.5442634251968501
11
6.0340551181102358
21
-3.5307086614173229
0
LINE
8
BLACK
6
CONTINUOUS
10
6.0340551181102358
20
-3.5307086614173229
11
6.0348163385826767
21
-3.5171538976377952
0
LINE
8
BLACK
6
CONTINUOUS
10
6.0348163385826767
20
-3.5171538976377952
11
6.0370904330708663
21
-3.5037696062992123
0
LINE
8
BLACK
6
CONTINUOUS
10
6.0370904330708663
20
-3.5037696062992123
11
6.0408487795275585
21
-3.490724094488189
0
LINE
8
BLACK
6
CONTINUOUS
10
6.0408487795275585
20
-3.490724094488189
11
6.0460441338582678
21
-3.4781814173228347
0
LINE
8
BLACK
6
CONTINUOUS
10
6.0460441338582678
20
-3.4781814173228347
11
6.0526111417322834
21
-3.4662992519685036
0
LINE
8
BLACK
6
CONTINUOUS
10
6.0526111417322834
20
-3.4662992519685036
11
6.0604672440944878
21
-3.4552271259842517
0
LINE
8
BLACK
6
CONTINUOUS
10
6.0604672440944878
20
-3.4552271259842517
11
6.0695136614173224
21
-3.4451042125984253
0
LINE
8
BLACK
6
CONTINUOUS
10
6.0695136614173224
20
-3.4451042125984253
11
6.0796365748031498
21
-3.4360577952755906
0
LINE
8
BLACK
6
CONTINUOUS
10
6.0796365748031498
20
-3.4360577952755906
11
6.0907087007874017
21
-3.4282016929133858
0
LINE
8
BLACK
6
CONTINUOUS
10
6.0907087007874017
20
-3.4282016929133858
11
6.1025908661417319
21
-3.4216346850393702
0
LINE
8
BLACK
6
CONTINUOUS
10
6.1025908661417319
20
-3.4216346850393702
11
6.1151335433070866
21
-3.4164393307086613
0
LINE
8
BLACK
6
CONTINUOUS
10
6.1151335433070866
20
-3.4164393307086613
11
6.1281790551181103
21
-3.4126809842519683
0
LINE
8
BLACK
6
CONTINUOUS
10
6.1281790551181103
20
-3.4126809842519683
11
6.1415633464566932
21
-3.4104068897637796
0
LINE
8
BLACK
6
CONTINUOUS
10
6.1415633464566932
20
-3.4104068897637796
11
6.15511811023622
21
-3.4096456692913386
0
LINE
8
BLACK
6
CONTINUOUS
10
6.15511811023622
20
-3.4096456692913386
11
6.1686728740157477
21
-3.4104068897637796
0
LINE
8
BLACK
6
CONTINUOUS
10
6.0365860236220472
20
-3.5440640157480314
11
6.0388266535433068
21
-3.5572514173228345
0
LINE
8
BLACK
6
CONTINUOUS
10
6.0388266535433068
20
-3.5572514173228345
11
6.0425296850393702
21
-3.5701050393700786
0
LINE
8
BLACK
6
CONTINUOUS
10
6.0425296850393702
20
-3.5701050393700786
11
6.0476486220472436
21
-3.5824632283464566
0
LINE
8
BLACK
6
CONTINUOUS
10
6.0476486220472436
20
-3.5824632283464566
11
6.0541190551181101
21
-3.5941705905511809
0
LINE
8
BLACK
6
CONTINUOUS
10
6.0541190551181101
20
-3.5941705905511809
11
6.0618596062992127
21
-3.6050798425196851
0
LINE
8
BLACK
6
CONTINUOUS
10
6.0618596062992127
20
-3.6050798425196851
11
6.0707729133858264
21
-3.6150538582677165
0
LINE
8
BLACK
6
CONTINUOUS
10
6.0707729133858264
20
-3.6150538582677165
11
6.0807469291338583
21
-3.6239671653543306
0
LINE
8
BLACK
6
CONTINUOUS
10
6.0807469291338583
20
-3.6239671653543306
11
6.091656181102362
21
-3.6317077165354328
0
LINE
8
BLACK
6
CONTINUOUS
10
6.091656181102362
20
-3.6317077165354328
11
6.1033635433070863
21
-3.6381781496062993
0
LINE
8
BLACK
6
CONTINUOUS
10
6.1033635433070863
20
-3.6381781496062993
11
6.1157217322834647
21
-3.6432970866141732
0
LINE
8
BLACK
6
CONTINUOUS
10
6.1157217322834647
20
-3.6432970866141732
11
6.1285753543307084
21
-3.6470001181102361
0
LINE
8
BLACK
6
CONTINUOUS
10
6.1285753543307084
20
-3.6470001181102361
11
6.1417627559055115
21
-3.6492407480314961
0
LINE
8
BLACK
6
CONTINUOUS
10
6.1417627559055115
20
-3.6492407480314961
11
6.15511811023622
21
-3.6499907874015749
0
LINE
8
BLACK
6
CONTINUOUS
10
6.15511811023622
20
-3.6499907874015749
11
6.1684734645669286
21
-3.6492407480314961
0
LINE
8
BLACK
6
CONTINUOUS
10
6.1684734645669286
20
-3.6492407480314961
11
6.1816608661417325
21
-3.6470001181102361
0
LINE
8
BLACK
6
CONTINUOUS
10
6.1816608661417325
20
-3.6470001181102361
11
6.1945144881889762
21
-3.6432970866141732
0
LINE
8
BLACK
6
CONTINUOUS
10
6.1945144881889762
20
-3.6432970866141732
11
6.2068726771653546
21
-3.6381781496062993
0
LINE
8
BLACK
6
CONTINUOUS
10
6.2068726771653546
20
-3.6381781496062993
11
6.218580039370079
21
-3.6317077165354328
0
LINE
8
BLACK
6
CONTINUOUS
10
6.218580039370079
20
-3.6317077165354328
11
6.2294892913385826
21
-3.6239671653543306
0
LINE
8
BLACK
6
CONTINUOUS
10
6.2294892913385826
20
-3.6239671653543306
11
6.2394633070866137
21
-3.6150538582677165
0
LINE
8
BLACK
6
CONTINUOUS
10
6.2394633070866137
20
-3.6150538582677165
11
6.2483766141732282
21
-3.6050798425196851
0
LINE
8
BLACK
6
CONTINUOUS
10
6.2483766141732282
20
-3.6050798425196851
11
6.2561171653543308
21
-3.5941705905511809
0
LINE
8
BLACK
6
CONTINUOUS
10
6.2561171653543308
20
-3.5941705905511809
11
6.2625875984251964
21
-3.5824632283464566
0
LINE
8
BLACK
6
CONTINUOUS
10
6.2625875984251964
20
-3.5824632283464566
11
6.2677065354330708
21
-3.5701050393700786
0
LINE
8
BLACK
6
CONTINUOUS
10
6.2677065354330708
20
-3.5701050393700786
11
6.2714095669291341
21
-3.5572514173228345
0
LINE
8
BLACK
6
CONTINUOUS
10
6.2714095669291341
20
-3.5572514173228345
11
6.2736501968503937
21
-3.5440640157480314
0
LINE
8
BLACK
6
CONTINUOUS
10
6.2736501968503937
20
-3.5440640157480314
11
6.2744002362204725
21
-3.5307086614173229
0
LINE
8
BLACK
6
CONTINUOUS
10
6.2744002362204725
20
-3.5307086614173229
11
6.2736501968503937
21
-3.5173533070866143
0
LINE
8
BLACK
6
CONTINUOUS
10
6.2736501968503937
20
-3.5173533070866143
11
6.2714095669291341
21
-3.5041659055118108
0
LINE
8
BLACK
6
CONTINUOUS
10
6.2714095669291341
20
-3.5041659055118108
11
6.2677065354330708
21
-3.4913122834645667
0
LINE
8
BLACK
6
CONTINUOUS
10
6.2677065354330708
20
-3.4913122834645667
11
6.2625875984251964
21
-3.4789540944881887
0
LINE
8
BLACK
6
CONTINUOUS
10
6.2625875984251964
20
-3.4789540944881887
11
6.2561171653543308
21
-3.4672467322834644
0
LINE
8
BLACK
6
CONTINUOUS
10
6.2561171653543308
20
-3.4672467322834644
11
6.2483766141732282
21
-3.4563374803149607
0
LINE
8
BLACK
6
CONTINUOUS
10
6.2483766141732282
20
-3.4563374803149607
11
6.2394633070866137
21
-3.4463634645669292
0
LINE
8
BLACK
6
CONTINUOUS
10
6.2394633070866137
20
-3.4463634645669292
11
6.2294892913385826
21
-3.4374501574803147
0
LINE
8
BLACK
6
CONTINUOUS
10
6.2294892913385826
20
-3.4374501574803147
11
6.218580039370079
21
-3.4297096062992125
0
LINE
8
BLACK
6
CONTINUOUS
10
6.218580039370079
20
-3.4297096062992125
11
6.2068726771653546
21
-3.4232391732283465
0
LINE
8
BLACK
6
CONTINUOUS
10
6.2068726771653546
20
-3.4232391732283465
11
6.1945144881889762
21
-3.4181202362204726
0
LINE
8
BLACK
6
CONTINUOUS
10
6.1945144881889762
20
-3.4181202362204726
11
6.1816608661417325
21
-3.4144172047244092
0
LINE
8
BLACK
6
CONTINUOUS
10
6.1816608661417325
20
-3.4144172047244092
11
6.1684734645669286
21
-3.4121765748031496
0
LINE
8
BLACK
6
CONTINUOUS
10
6.1684734645669286
20
-3.4121765748031496
11
6.15511811023622
21
-3.4114265354330708
0
LINE
8
BLACK
6
CONTINUOUS
10
6.15511811023622
20
-3.4114265354330708
11
6.1417627559055115
21
-3.4121765748031496
0
LINE
8
BLACK
6
CONTINUOUS
10
6.1417627559055115
20
-3.4121765748031496
11
6.1285753543307084
21
-3.4144172047244092
0
LINE
8
BLACK
6
CONTINUOUS
10
6.1285753543307084
20
-3.4144172047244092
11
6.1157217322834647
21
-3.4181202362204726
0
LINE
8
BLACK
6
CONTINUOUS
10
6.1157217322834647
20
-3.4181202362204726
11
6.1033635433070863
21
-3.4232391732283465
0
LINE
8
BLACK
6
CONTINUOUS
10
6.1033635433070863
20
-3.4232391732283465
11
6.091656181102362
21
-3.4297096062992125
0
LINE
8
BLACK
6
CONTINUOUS
10
6.091656181102362
20
-3.4297096062992125
11
6.0807469291338583
21
-3.4374501574803147
0
LINE
8
BLACK
6
CONTINUOUS
10
6.0807469291338583
20
-3.4374501574803147
11
6.0707729133858264
21
-3.4463634645669292
0
LINE
8
BLACK
6
CONTINUOUS
10
6.0707729133858264
20
-3.4463634645669292
11
6.0618596062992127
21
-3.4563374803149607
0
LINE
8
BLACK
6
CONTINUOUS
10
6.0618596062992127
20
-3.4563374803149607
11
6.0541190551181101
21
-3.4672467322834644
0
LINE
8
BLACK
6
CONTINUOUS
10
6.0541190551181101
20
-3.4672467322834644
11
6.0476486220472436
21
-3.4789540944881887
0
LINE
8
BLACK
6
CONTINUOUS
10
6.0476486220472436
20
-3.4789540944881887
11
6.0425296850393702
21
-3.4913122834645667
0
LINE
8
BLACK
6
CONTINUOUS
10
6.0425296850393702
20
-3.4913122834645667
11
6.0388266535433068
21
-3.5041659055118108
0
LINE
8
BLACK
6
CONTINUOUS
10
6.0388266535433068
20
-3.5041659055118108
11
6.0365860236220472
21
-3.5173533070866143
0
LINE
8
BLACK
6
CONTINUOUS
10
6.0365860236220472
20
-3.5173533070866143
11
6.0358359842519684
21
-3.5307086614173229
0
LINE
8
BLACK
6
CONTINUOUS
10
6.0358359842519684
20
-3.5307086614173229
11
6.0365860236220472
21
-3.5440640157480314
0
CIRCLE
8
BLACK
10
6.15511811023622
20
-5.130708661417323
40
0.0068897637795276
0
CIRCLE
8
BLACK
10
4.5551181102362204
20
-3.5307086614173229
40
0.0068897637795276
0
CIRCLE
8
BLACK
10
4.5551181102362204
20
-5.130708661417323
40
0.0068897637795276
0
CIRCLE
8
BLACK
10
6.15511811023622
20
-3.5307086614173229
40
0.0068897637795276
  0
ENDSEC
  0
EOF
