  0
SECTION
  2
HEADER
  9
$ANGBASE
  50
0.0
  9
$ANGDIR
  70
1
  9
$MEASUREMENT
  70
0
  0
ENDSEC
  0
SECTION
  2
TABLES
  0
TABLE
  2
LTYPE
  70
4
  0
LTYPE
  5
40F
  2
CONTINUOUS
  70
0
  3
Solid line
  72
65
  73
0
  40
0.0
  0
LTYPE
  5
410
  2
DASHDOT
 70
0
  3
Dash Dot ____ _ ____ _
 72
65
 73
4
 40
2.0
 49
1.25
 49
-0.25
 49
0.25
 49
-0.25
  0
LTYPE
  5
411
  2
DASHED
 70
0
  3
Dashed __ __ __ __ __
 72
65
 73
2
 40
0.75
 49
0.5
 49
-0.25
  0
LTYPE
  5
43B
  2
DOTTED
 70
0
  3
Dotted .  .  .  .
 72
65
 73
2
 40
0.2
 49
0.0
 49
-0.2
  0
ENDTAB
  0
TABLE
  2
STYLE
  70
4
  0
STYLE
  2
KICAD
  70
0
  40
0
  41
1
  42
1
  50
0
  71
0
  3
isocp.shx
  0
STYLE
  2
KICADB
  70
0
  40
0
  41
1
  42
1
  50
0
  71
0
  3
isocp.shx
  0
STYLE
  2
KICADI
  70
0
  40
0
  41
1
  42
1
  50
15
  71
0
  3
isocp.shx
  0
STYLE
  2
KICADBI
  70
0
  40
0
  41
1
  42
1
  50
15
  71
0
  3
isocp.shx
  0
ENDTAB
  0
TABLE
  2
LAYER
  70
1
  0
LAYER
  2
BLACK
  70
0
  62
7
  6
CONTINUOUS
  0
ENDTAB
  0
ENDSEC
  0
SECTION
  2
ENTITIES
0
LINE
8
BLACK
6
CONTINUOUS
10
4.574260433070866
20
-4.6221471653543302
11
4.586734212598425
21
-4.6251035039370079
0
LINE
8
BLACK
6
CONTINUOUS
10
4.586734212598425
20
-4.6251035039370079
11
4.5987804330708659
21
-4.6294879921259842
0
LINE
8
BLACK
6
CONTINUOUS
10
4.5987804330708659
20
-4.6294879921259842
11
4.6102362204724407
21
-4.6352412992125984
0
LINE
8
BLACK
6
CONTINUOUS
10
4.6102362204724407
20
-4.6352412992125984
11
4.6209466141732278
21
-4.6422856299212594
0
LINE
8
BLACK
6
CONTINUOUS
10
4.6209466141732278
20
-4.6422856299212594
11
4.630766811023622
21
-4.6505257480314963
0
LINE
8
BLACK
6
CONTINUOUS
10
4.630766811023622
20
-4.6505257480314963
11
4.6395639370078738
21
-4.6598501968503934
0
LINE
8
BLACK
6
CONTINUOUS
10
4.6395639370078738
20
-4.6598501968503934
11
4.6472191338582673
21
-4.6701328740157475
0
LINE
8
BLACK
6
CONTINUOUS
10
4.6472191338582673
20
-4.6701328740157475
11
4.6536287795275593
21
-4.6812347244094488
0
LINE
8
BLACK
6
CONTINUOUS
10
4.6536287795275593
20
-4.6812347244094488
11
4.6587062598425195
21
-4.6930056692913382
0
LINE
8
BLACK
6
CONTINUOUS
10
4.6587062598425195
20
-4.6930056692913382
11
4.6623829133858266
21
-4.7052864566929129
0
LINE
8
BLACK
6
CONTINUOUS
10
4.6623829133858266
20
-4.7052864566929129
11
4.6646089370078743
21
-4.7179110236220474
0
LINE
8
BLACK
6
CONTINUOUS
10
4.6646089370078743
20
-4.7179110236220474
11
4.6653543307086611
21
-4.7307086614173226
0
LINE
8
BLACK
6
CONTINUOUS
10
4.6653543307086611
20
-4.7307086614173226
11
4.6646089370078743
21
-4.7435062992125987
0
LINE
8
BLACK
6
CONTINUOUS
10
4.6646089370078743
20
-4.7435062992125987
11
4.6623829133858266
21
-4.7561308661417323
0
LINE
8
BLACK
6
CONTINUOUS
10
4.6623829133858266
20
-4.7561308661417323
11
4.6587062598425195
21
-4.768411653543307
0
LINE
8
BLACK
6
CONTINUOUS
10
4.6587062598425195
20
-4.768411653543307
11
4.6536287795275593
21
-4.7801825984251964
0
LINE
8
BLACK
6
CONTINUOUS
10
4.6536287795275593
20
-4.7801825984251964
11
4.6472191338582673
21
-4.7912844488188977
0
LINE
8
BLACK
6
CONTINUOUS
10
4.6472191338582673
20
-4.7912844488188977
11
4.6395639370078738
21
-4.8015671259842518
0
LINE
8
BLACK
6
CONTINUOUS
10
4.6395639370078738
20
-4.8015671259842518
11
4.630766811023622
21
-4.8108915748031498
0
LINE
8
BLACK
6
CONTINUOUS
10
4.630766811023622
20
-4.8108915748031498
11
4.6209466141732278
21
-4.8191316929133858
0
LINE
8
BLACK
6
CONTINUOUS
10
4.6209466141732278
20
-4.8191316929133858
11
4.6102362204724407
21
-4.8261760236220468
0
LINE
8
BLACK
6
CONTINUOUS
10
4.6102362204724407
20
-4.8261760236220468
11
4.5987804330708659
21
-4.831929330708661
0
LINE
8
BLACK
6
CONTINUOUS
10
4.5987804330708659
20
-4.831929330708661
11
4.586734212598425
21
-4.8363138188976373
0
LINE
8
BLACK
6
CONTINUOUS
10
4.586734212598425
20
-4.8363138188976373
11
4.574260433070866
21
-4.839270157480315
0
LINE
8
BLACK
6
CONTINUOUS
10
4.574260433070866
20
-4.839270157480315
11
4.5615277952755902
21
-4.8407583858267715
0
LINE
8
BLACK
6
CONTINUOUS
10
4.5615277952755902
20
-4.8407583858267715
11
4.5487084251968506
21
-4.8407583858267715
0
LINE
8
BLACK
6
CONTINUOUS
10
4.5487084251968506
20
-4.8407583858267715
11
4.5359757874015747
21
-4.839270157480315
0
LINE
8
BLACK
6
CONTINUOUS
10
4.5359757874015747
20
-4.839270157480315
11
4.5235020078740158
21
-4.8363138188976373
0
LINE
8
BLACK
6
CONTINUOUS
10
4.5235020078740158
20
-4.8363138188976373
11
4.5114557874015748
21
-4.831929330708661
0
LINE
8
BLACK
6
CONTINUOUS
10
4.5114557874015748
20
-4.831929330708661
11
4.5
21
-4.8261760236220468
0
LINE
8
BLACK
6
CONTINUOUS
10
4.5
20
-4.8261760236220468
11
4.4892896062992129
21
-4.8191316929133858
0
LINE
8
BLACK
6
CONTINUOUS
10
4.4892896062992129
20
-4.8191316929133858
11
4.4794694094488188
21
-4.8108915748031498
0
LINE
8
BLACK
6
CONTINUOUS
10
4.4794694094488188
20
-4.8108915748031498
11
4.4706722834645669
21
-4.8015671259842518
0
LINE
8
BLACK
6
CONTINUOUS
10
4.4706722834645669
20
-4.8015671259842518
11
4.4630170866141734
21
-4.7912844488188977
0
LINE
8
BLACK
6
CONTINUOUS
10
4.4630170866141734
20
-4.7912844488188977
11
4.4566074409448815
21
-4.7801825984251964
0
LINE
8
BLACK
6
CONTINUOUS
10
4.4566074409448815
20
-4.7801825984251964
11
4.4515299606299212
21
-4.768411653543307
0
LINE
8
BLACK
6
CONTINUOUS
10
4.4515299606299212
20
-4.768411653543307
11
4.4478533070866142
21
-4.7561308661417323
0
LINE
8
BLACK
6
CONTINUOUS
10
4.4478533070866142
20
-4.7561308661417323
11
4.4456272834645665
21
-4.7435062992125987
0
LINE
8
BLACK
6
CONTINUOUS
10
4.4456272834645665
20
-4.7435062992125987
11
4.4448818897637796
21
-4.7307086614173226
0
LINE
8
BLACK
6
CONTINUOUS
10
4.4448818897637796
20
-4.7307086614173226
11
4.4456272834645665
21
-4.7179110236220474
0
LINE
8
BLACK
6
CONTINUOUS
10
4.4456272834645665
20
-4.7179110236220474
11
4.4478533070866142
21
-4.7052864566929129
0
LINE
8
BLACK
6
CONTINUOUS
10
4.4478533070866142
20
-4.7052864566929129
11
4.4515299606299212
21
-4.6930056692913382
0
LINE
8
BLACK
6
CONTINUOUS
10
4.4515299606299212
20
-4.6930056692913382
11
4.4566074409448815
21
-4.6812347244094488
0
LINE
8
BLACK
6
CONTINUOUS
10
4.4566074409448815
20
-4.6812347244094488
11
4.4630170866141734
21
-4.6701328740157475
0
LINE
8
BLACK
6
CONTINUOUS
10
4.4630170866141734
20
-4.6701328740157475
11
4.4706722834645669
21
-4.6598501968503934
0
LINE
8
BLACK
6
CONTINUOUS
10
4.4706722834645669
20
-4.6598501968503934
11
4.4794694094488188
21
-4.6505257480314963
0
LINE
8
BLACK
6
CONTINUOUS
10
4.4794694094488188
20
-4.6505257480314963
11
4.4892896062992129
21
-4.6422856299212594
0
LINE
8
BLACK
6
CONTINUOUS
10
4.4892896062992129
20
-4.6422856299212594
11
4.5
21
-4.6352412992125984
0
LINE
8
BLACK
6
CONTINUOUS
10
4.5
20
-4.6352412992125984
11
4.5114557874015748
21
-4.6294879921259842
0
LINE
8
BLACK
6
CONTINUOUS
10
4.5114557874015748
20
-4.6294879921259842
11
4.5235020078740158
21
-4.6251035039370079
0
LINE
8
BLACK
6
CONTINUOUS
10
4.5235020078740158
20
-4.6251035039370079
11
4.5359757874015747
21
-4.6221471653543302
0
LINE
8
BLACK
6
CONTINUOUS
10
4.5359757874015747
20
-4.6221471653543302
11
4.5487084251968506
21
-4.6206589370078737
0
LINE
8
BLACK
6
CONTINUOUS
10
4.5487084251968506
20
-4.6206589370078737
11
4.5615277952755902
21
-4.6206589370078737
0
LINE
8
BLACK
6
CONTINUOUS
10
4.5615277952755902
20
-4.6206589370078737
11
4.574260433070866
21
-4.6221471653543302
0
LINE
8
BLACK
6
CONTINUOUS
10
6.1742604330708657
20
-4.6221471653543302
11
6.1867342125984255
21
-4.6251035039370079
0
LINE
8
BLACK
6
CONTINUOUS
10
6.1867342125984255
20
-4.6251035039370079
11
6.1987804330708656
21
-4.6294879921259842
0
LINE
8
BLACK
6
CONTINUOUS
10
6.1987804330708656
20
-4.6294879921259842
11
6.2102362204724404
21
-4.6352412992125984
0
LINE
8
BLACK
6
CONTINUOUS
10
6.2102362204724404
20
-4.6352412992125984
11
6.2209466141732284
21
-4.6422856299212594
0
LINE
8
BLACK
6
CONTINUOUS
10
6.2209466141732284
20
-4.6422856299212594
11
6.2307668110236216
21
-4.6505257480314963
0
LINE
8
BLACK
6
CONTINUOUS
10
6.2307668110236216
20
-4.6505257480314963
11
6.2395639370078735
21
-4.6598501968503934
0
LINE
8
BLACK
6
CONTINUOUS
10
6.2395639370078735
20
-4.6598501968503934
11
6.2472191338582679
21
-4.6701328740157475
0
LINE
8
BLACK
6
CONTINUOUS
10
6.2472191338582679
20
-4.6701328740157475
11
6.2536287795275589
21
-4.6812347244094488
0
LINE
8
BLACK
6
CONTINUOUS
10
6.2536287795275589
20
-4.6812347244094488
11
6.2587062598425192
21
-4.6930056692913382
0
LINE
8
BLACK
6
CONTINUOUS
10
6.2587062598425192
20
-4.6930056692913382
11
6.2623829133858262
21
-4.7052864566929129
0
LINE
8
BLACK
6
CONTINUOUS
10
6.2623829133858262
20
-4.7052864566929129
11
6.2646089370078739
21
-4.7179110236220474
0
LINE
8
BLACK
6
CONTINUOUS
10
6.2646089370078739
20
-4.7179110236220474
11
6.2653543307086617
21
-4.7307086614173226
0
LINE
8
BLACK
6
CONTINUOUS
10
6.2653543307086617
20
-4.7307086614173226
11
6.2646089370078739
21
-4.7435062992125987
0
LINE
8
BLACK
6
CONTINUOUS
10
6.2646089370078739
20
-4.7435062992125987
11
6.2623829133858262
21
-4.7561308661417323
0
LINE
8
BLACK
6
CONTINUOUS
10
6.2623829133858262
20
-4.7561308661417323
11
6.2587062598425192
21
-4.768411653543307
0
LINE
8
BLACK
6
CONTINUOUS
10
6.2587062598425192
20
-4.768411653543307
11
6.2536287795275589
21
-4.7801825984251964
0
LINE
8
BLACK
6
CONTINUOUS
10
6.2536287795275589
20
-4.7801825984251964
11
6.2472191338582679
21
-4.7912844488188977
0
LINE
8
BLACK
6
CONTINUOUS
10
6.2472191338582679
20
-4.7912844488188977
11
6.2395639370078735
21
-4.8015671259842518
0
LINE
8
BLACK
6
CONTINUOUS
10
6.2395639370078735
20
-4.8015671259842518
11
6.2307668110236216
21
-4.8108915748031498
0
LINE
8
BLACK
6
CONTINUOUS
10
6.2307668110236216
20
-4.8108915748031498
11
6.2209466141732284
21
-4.8191316929133858
0
LINE
8
BLACK
6
CONTINUOUS
10
6.2209466141732284
20
-4.8191316929133858
11
6.2102362204724404
21
-4.8261760236220468
0
LINE
8
BLACK
6
CONTINUOUS
10
6.2102362204724404
20
-4.8261760236220468
11
6.1987804330708656
21
-4.831929330708661
0
LINE
8
BLACK
6
CONTINUOUS
10
6.1987804330708656
20
-4.831929330708661
11
6.1867342125984255
21
-4.8363138188976373
0
LINE
8
BLACK
6
CONTINUOUS
10
6.1867342125984255
20
-4.8363138188976373
11
6.1742604330708657
21
-4.839270157480315
0
LINE
8
BLACK
6
CONTINUOUS
10
6.1742604330708657
20
-4.839270157480315
11
6.1615277952755907
21
-4.8407583858267715
0
LINE
8
BLACK
6
CONTINUOUS
10
6.1615277952755907
20
-4.8407583858267715
11
6.1487084251968502
21
-4.8407583858267715
0
LINE
8
BLACK
6
CONTINUOUS
10
6.1487084251968502
20
-4.8407583858267715
11
6.1359757874015743
21
-4.839270157480315
0
LINE
8
BLACK
6
CONTINUOUS
10
6.1359757874015743
20
-4.839270157480315
11
6.1235020078740154
21
-4.8363138188976373
0
LINE
8
BLACK
6
CONTINUOUS
10
6.1235020078740154
20
-4.8363138188976373
11
6.1114557874015745
21
-4.831929330708661
0
LINE
8
BLACK
6
CONTINUOUS
10
6.1114557874015745
20
-4.831929330708661
11
6.0999999999999996
21
-4.8261760236220468
0
LINE
8
BLACK
6
CONTINUOUS
10
6.0999999999999996
20
-4.8261760236220468
11
6.0892896062992126
21
-4.8191316929133858
0
LINE
8
BLACK
6
CONTINUOUS
10
6.0892896062992126
20
-4.8191316929133858
11
6.0794694094488184
21
-4.8108915748031498
0
LINE
8
BLACK
6
CONTINUOUS
10
6.0794694094488184
20
-4.8108915748031498
11
6.0706722834645666
21
-4.8015671259842518
0
LINE
8
BLACK
6
CONTINUOUS
10
6.0706722834645666
20
-4.8015671259842518
11
6.063017086614173
21
-4.7912844488188977
0
LINE
8
BLACK
6
CONTINUOUS
10
6.063017086614173
20
-4.7912844488188977
11
6.056607440944882
21
-4.7801825984251964
0
LINE
8
BLACK
6
CONTINUOUS
10
6.056607440944882
20
-4.7801825984251964
11
6.0515299606299209
21
-4.768411653543307
0
LINE
8
BLACK
6
CONTINUOUS
10
6.0515299606299209
20
-4.768411653543307
11
6.0478533070866138
21
-4.7561308661417323
0
LINE
8
BLACK
6
CONTINUOUS
10
6.0478533070866138
20
-4.7561308661417323
11
6.045627283464567
21
-4.7435062992125987
0
LINE
8
BLACK
6
CONTINUOUS
10
6.045627283464567
20
-4.7435062992125987
11
6.0448818897637793
21
-4.7307086614173226
0
LINE
8
BLACK
6
CONTINUOUS
10
6.0448818897637793
20
-4.7307086614173226
11
6.045627283464567
21
-4.7179110236220474
0
LINE
8
BLACK
6
CONTINUOUS
10
6.045627283464567
20
-4.7179110236220474
11
6.0478533070866138
21
-4.7052864566929129
0
LINE
8
BLACK
6
CONTINUOUS
10
6.0478533070866138
20
-4.7052864566929129
11
6.0515299606299209
21
-4.6930056692913382
0
LINE
8
BLACK
6
CONTINUOUS
10
6.0515299606299209
20
-4.6930056692913382
11
6.056607440944882
21
-4.6812347244094488
0
LINE
8
BLACK
6
CONTINUOUS
10
6.056607440944882
20
-4.6812347244094488
11
6.063017086614173
21
-4.6701328740157475
0
LINE
8
BLACK
6
CONTINUOUS
10
6.063017086614173
20
-4.6701328740157475
11
6.0706722834645666
21
-4.6598501968503934
0
LINE
8
BLACK
6
CONTINUOUS
10
6.0706722834645666
20
-4.6598501968503934
11
6.0794694094488184
21
-4.6505257480314963
0
LINE
8
BLACK
6
CONTINUOUS
10
6.0794694094488184
20
-4.6505257480314963
11
6.0892896062992126
21
-4.6422856299212594
0
LINE
8
BLACK
6
CONTINUOUS
10
6.0892896062992126
20
-4.6422856299212594
11
6.0999999999999996
21
-4.6352412992125984
0
LINE
8
BLACK
6
CONTINUOUS
10
6.0999999999999996
20
-4.6352412992125984
11
6.1114557874015745
21
-4.6294879921259842
0
LINE
8
BLACK
6
CONTINUOUS
10
6.1114557874015745
20
-4.6294879921259842
11
6.1235020078740154
21
-4.6251035039370079
0
LINE
8
BLACK
6
CONTINUOUS
10
6.1235020078740154
20
-4.6251035039370079
11
6.1359757874015743
21
-4.6221471653543302
0
LINE
8
BLACK
6
CONTINUOUS
10
6.1359757874015743
20
-4.6221471653543302
11
6.1487084251968502
21
-4.6206589370078737
0
LINE
8
BLACK
6
CONTINUOUS
10
6.1487084251968502
20
-4.6206589370078737
11
6.1615277952755907
21
-4.6206589370078737
0
LINE
8
BLACK
6
CONTINUOUS
10
6.1615277952755907
20
-4.6206589370078737
11
6.1742604330708657
21
-4.6221471653543302
0
LINE
8
BLACK
6
CONTINUOUS
10
5.5433055905511806
20
-4.58018311023622
11
5.5460996062992125
21
-4.5820499999999997
0
LINE
8
BLACK
6
CONTINUOUS
10
5.5460996062992125
20
-4.5820499999999997
11
5.5479664960629922
21
-4.5848440157480317
0
LINE
8
BLACK
6
CONTINUOUS
10
5.5479664960629922
20
-4.5848440157480317
11
5.5486220472440948
21
-4.5881397637795276
0
LINE
8
BLACK
6
CONTINUOUS
10
5.5486220472440948
20
-4.5881397637795276
11
5.5486220472440948
21
-4.6053641732283461
0
LINE
8
BLACK
6
CONTINUOUS
10
5.5486220472440948
20
-4.6053641732283461
11
5.5479664960629922
21
-4.608659921259842
0
LINE
8
BLACK
6
CONTINUOUS
10
5.5479664960629922
20
-4.608659921259842
11
5.5460996062992125
21
-4.611453937007874
0
LINE
8
BLACK
6
CONTINUOUS
10
5.5460996062992125
20
-4.611453937007874
11
5.5433055905511806
21
-4.6133208267716537
0
LINE
8
BLACK
6
CONTINUOUS
10
5.5433055905511806
20
-4.6133208267716537
11
5.5400098425196846
21
-4.6139763779527554
0
LINE
8
BLACK
6
CONTINUOUS
10
5.5400098425196846
20
-4.6139763779527554
11
5.5198326771653541
21
-4.6139763779527554
0
LINE
8
BLACK
6
CONTINUOUS
10
5.5198326771653541
20
-4.6139763779527554
11
5.5165369291338582
21
-4.6133208267716537
0
LINE
8
BLACK
6
CONTINUOUS
10
5.5165369291338582
20
-4.6133208267716537
11
5.5137429133858262
21
-4.611453937007874
0
LINE
8
BLACK
6
CONTINUOUS
10
5.5137429133858262
20
-4.611453937007874
11
5.5118760236220474
21
-4.608659921259842
0
LINE
8
BLACK
6
CONTINUOUS
10
5.5118760236220474
20
-4.608659921259842
11
5.5112204724409448
21
-4.6053641732283461
0
LINE
8
BLACK
6
CONTINUOUS
10
5.5112204724409448
20
-4.6053641732283461
11
5.5112204724409448
21
-4.5881397637795276
0
LINE
8
BLACK
6
CONTINUOUS
10
5.5112204724409448
20
-4.5881397637795276
11
5.5118760236220474
21
-4.5848440157480317
0
LINE
8
BLACK
6
CONTINUOUS
10
5.5118760236220474
20
-4.5848440157480317
11
5.5137429133858262
21
-4.5820499999999997
0
LINE
8
BLACK
6
CONTINUOUS
10
5.5137429133858262
20
-4.5820499999999997
11
5.5165369291338582
21
-4.58018311023622
0
LINE
8
BLACK
6
CONTINUOUS
10
5.5165369291338582
20
-4.58018311023622
11
5.5198326771653541
21
-4.5795275590551183
0
LINE
8
BLACK
6
CONTINUOUS
10
5.5198326771653541
20
-4.5795275590551183
11
5.5400098425196846
21
-4.5795275590551183
0
LINE
8
BLACK
6
CONTINUOUS
10
5.5400098425196846
20
-4.5795275590551183
11
5.5433055905511806
21
-4.58018311023622
0
LINE
8
BLACK
6
CONTINUOUS
10
5.9590536220472439
20
-4.58018311023622
11
5.9618476377952758
21
-4.5820499999999997
0
LINE
8
BLACK
6
CONTINUOUS
10
5.9618476377952758
20
-4.5820499999999997
11
5.9637145275590546
21
-4.5848440157480317
0
LINE
8
BLACK
6
CONTINUOUS
10
5.9637145275590546
20
-4.5848440157480317
11
5.9643700787401572
21
-4.5881397637795276
0
LINE
8
BLACK
6
CONTINUOUS
10
5.9643700787401572
20
-4.5881397637795276
11
5.9643700787401572
21
-4.6053641732283461
0
LINE
8
BLACK
6
CONTINUOUS
10
5.9643700787401572
20
-4.6053641732283461
11
5.9637145275590546
21
-4.608659921259842
0
LINE
8
BLACK
6
CONTINUOUS
10
5.9637145275590546
20
-4.608659921259842
11
5.9618476377952758
21
-4.611453937007874
0
LINE
8
BLACK
6
CONTINUOUS
10
5.9618476377952758
20
-4.611453937007874
11
5.9590536220472439
21
-4.6133208267716537
0
LINE
8
BLACK
6
CONTINUOUS
10
5.9590536220472439
20
-4.6133208267716537
11
5.955757874015748
21
-4.6139763779527554
0
LINE
8
BLACK
6
CONTINUOUS
10
5.955757874015748
20
-4.6139763779527554
11
5.9355807086614174
21
-4.6139763779527554
0
LINE
8
BLACK
6
CONTINUOUS
10
5.9355807086614174
20
-4.6139763779527554
11
5.9322849606299215
21
-4.6133208267716537
0
LINE
8
BLACK
6
CONTINUOUS
10
5.9322849606299215
20
-4.6133208267716537
11
5.9294909448818895
21
-4.611453937007874
0
LINE
8
BLACK
6
CONTINUOUS
10
5.9294909448818895
20
-4.611453937007874
11
5.9276240551181099
21
-4.608659921259842
0
LINE
8
BLACK
6
CONTINUOUS
10
5.9276240551181099
20
-4.608659921259842
11
5.9269685039370081
21
-4.6053641732283461
0
LINE
8
BLACK
6
CONTINUOUS
10
5.9269685039370081
20
-4.6053641732283461
11
5.9269685039370081
21
-4.5881397637795276
0
LINE
8
BLACK
6
CONTINUOUS
10
5.9269685039370081
20
-4.5881397637795276
11
5.9276240551181099
21
-4.5848440157480317
0
LINE
8
BLACK
6
CONTINUOUS
10
5.9276240551181099
20
-4.5848440157480317
11
5.9294909448818895
21
-4.5820499999999997
0
LINE
8
BLACK
6
CONTINUOUS
10
5.9294909448818895
20
-4.5820499999999997
11
5.9322849606299215
21
-4.58018311023622
0
LINE
8
BLACK
6
CONTINUOUS
10
5.9322849606299215
20
-4.58018311023622
11
5.9355807086614174
21
-4.5795275590551183
0
LINE
8
BLACK
6
CONTINUOUS
10
5.9355807086614174
20
-4.5795275590551183
11
5.955757874015748
21
-4.5795275590551183
0
LINE
8
BLACK
6
CONTINUOUS
10
5.955757874015748
20
-4.5795275590551183
11
5.9590536220472439
21
-4.58018311023622
0
LINE
8
BLACK
6
CONTINUOUS
10
5.5433055905511806
20
-4.5181752362204719
11
5.5460996062992125
21
-4.5200421259842516
0
LINE
8
BLACK
6
CONTINUOUS
10
5.5460996062992125
20
-4.5200421259842516
11
5.5479664960629922
21
-4.5228361417322835
0
LINE
8
BLACK
6
CONTINUOUS
10
5.5479664960629922
20
-4.5228361417322835
11
5.5486220472440948
21
-4.5261318897637794
0
LINE
8
BLACK
6
CONTINUOUS
10
5.5486220472440948
20
-4.5261318897637794
11
5.5486220472440948
21
-4.543356299212598
0
LINE
8
BLACK
6
CONTINUOUS
10
5.5486220472440948
20
-4.543356299212598
11
5.5479664960629922
21
-4.5466520472440948
0
LINE
8
BLACK
6
CONTINUOUS
10
5.5479664960629922
20
-4.5466520472440948
11
5.5460996062992125
21
-4.5494460629921258
0
LINE
8
BLACK
6
CONTINUOUS
10
5.5460996062992125
20
-4.5494460629921258
11
5.5433055905511806
21
-4.5513129527559055
0
LINE
8
BLACK
6
CONTINUOUS
10
5.5433055905511806
20
-4.5513129527559055
11
5.5400098425196846
21
-4.5519685039370081
0
LINE
8
BLACK
6
CONTINUOUS
10
5.5400098425196846
20
-4.5519685039370081
11
5.5198326771653541
21
-4.5519685039370081
0
LINE
8
BLACK
6
CONTINUOUS
10
5.5198326771653541
20
-4.5519685039370081
11
5.5165369291338582
21
-4.5513129527559055
0
LINE
8
BLACK
6
CONTINUOUS
10
5.5165369291338582
20
-4.5513129527559055
11
5.5137429133858262
21
-4.5494460629921258
0
LINE
8
BLACK
6
CONTINUOUS
10
5.5137429133858262
20
-4.5494460629921258
11
5.5118760236220474
21
-4.5466520472440948
0
LINE
8
BLACK
6
CONTINUOUS
10
5.5118760236220474
20
-4.5466520472440948
11
5.5112204724409448
21
-4.543356299212598
0
LINE
8
BLACK
6
CONTINUOUS
10
5.5112204724409448
20
-4.543356299212598
11
5.5112204724409448
21
-4.5261318897637794
0
LINE
8
BLACK
6
CONTINUOUS
10
5.5112204724409448
20
-4.5261318897637794
11
5.5118760236220474
21
-4.5228361417322835
0
LINE
8
BLACK
6
CONTINUOUS
10
5.5118760236220474
20
-4.5228361417322835
11
5.5137429133858262
21
-4.5200421259842516
0
LINE
8
BLACK
6
CONTINUOUS
10
5.5137429133858262
20
-4.5200421259842516
11
5.5165369291338582
21
-4.5181752362204719
0
LINE
8
BLACK
6
CONTINUOUS
10
5.5165369291338582
20
-4.5181752362204719
11
5.5198326771653541
21
-4.5175196850393702
0
LINE
8
BLACK
6
CONTINUOUS
10
5.5198326771653541
20
-4.5175196850393702
11
5.5400098425196846
21
-4.5175196850393702
0
LINE
8
BLACK
6
CONTINUOUS
10
5.5400098425196846
20
-4.5175196850393702
11
5.5433055905511806
21
-4.5181752362204719
0
LINE
8
BLACK
6
CONTINUOUS
10
5.9590536220472439
20
-4.5181752362204719
11
5.9618476377952758
21
-4.5200421259842516
0
LINE
8
BLACK
6
CONTINUOUS
10
5.9618476377952758
20
-4.5200421259842516
11
5.9637145275590546
21
-4.5228361417322835
0
LINE
8
BLACK
6
CONTINUOUS
10
5.9637145275590546
20
-4.5228361417322835
11
5.9643700787401572
21
-4.5261318897637794
0
LINE
8
BLACK
6
CONTINUOUS
10
5.9643700787401572
20
-4.5261318897637794
11
5.9643700787401572
21
-4.543356299212598
0
LINE
8
BLACK
6
CONTINUOUS
10
5.9643700787401572
20
-4.543356299212598
11
5.9637145275590546
21
-4.5466520472440948
0
LINE
8
BLACK
6
CONTINUOUS
10
5.9637145275590546
20
-4.5466520472440948
11
5.9618476377952758
21
-4.5494460629921258
0
LINE
8
BLACK
6
CONTINUOUS
10
5.9618476377952758
20
-4.5494460629921258
11
5.9590536220472439
21
-4.5513129527559055
0
LINE
8
BLACK
6
CONTINUOUS
10
5.9590536220472439
20
-4.5513129527559055
11
5.955757874015748
21
-4.5519685039370081
0
LINE
8
BLACK
6
CONTINUOUS
10
5.955757874015748
20
-4.5519685039370081
11
5.9355807086614174
21
-4.5519685039370081
0
LINE
8
BLACK
6
CONTINUOUS
10
5.9355807086614174
20
-4.5519685039370081
11
5.9322849606299215
21
-4.5513129527559055
0
LINE
8
BLACK
6
CONTINUOUS
10
5.9322849606299215
20
-4.5513129527559055
11
5.9294909448818895
21
-4.5494460629921258
0
LINE
8
BLACK
6
CONTINUOUS
10
5.9294909448818895
20
-4.5494460629921258
11
5.9276240551181099
21
-4.5466520472440948
0
LINE
8
BLACK
6
CONTINUOUS
10
5.9276240551181099
20
-4.5466520472440948
11
5.9269685039370081
21
-4.543356299212598
0
LINE
8
BLACK
6
CONTINUOUS
10
5.9269685039370081
20
-4.543356299212598
11
5.9269685039370081
21
-4.5261318897637794
0
LINE
8
BLACK
6
CONTINUOUS
10
5.9269685039370081
20
-4.5261318897637794
11
5.9276240551181099
21
-4.5228361417322835
0
LINE
8
BLACK
6
CONTINUOUS
10
5.9276240551181099
20
-4.5228361417322835
11
5.9294909448818895
21
-4.5200421259842516
0
LINE
8
BLACK
6
CONTINUOUS
10
5.9294909448818895
20
-4.5200421259842516
11
5.9322849606299215
21
-4.5181752362204719
0
LINE
8
BLACK
6
CONTINUOUS
10
5.9322849606299215
20
-4.5181752362204719
11
5.9355807086614174
21
-4.5175196850393702
0
LINE
8
BLACK
6
CONTINUOUS
10
5.9355807086614174
20
-4.5175196850393702
11
5.955757874015748
21
-4.5175196850393702
0
LINE
8
BLACK
6
CONTINUOUS
10
5.955757874015748
20
-4.5175196850393702
11
5.9590536220472439
21
-4.5181752362204719
0
LINE
8
BLACK
6
CONTINUOUS
10
4.574260433070866
20
-3.8221471653543304
11
4.586734212598425
21
-3.8251035039370076
0
LINE
8
BLACK
6
CONTINUOUS
10
4.586734212598425
20
-3.8251035039370076
11
4.5987804330708659
21
-3.8294879921259843
0
LINE
8
BLACK
6
CONTINUOUS
10
4.5987804330708659
20
-3.8294879921259843
11
4.6102362204724407
21
-3.8352412992125982
0
LINE
8
BLACK
6
CONTINUOUS
10
4.6102362204724407
20
-3.8352412992125982
11
4.6209466141732278
21
-3.8422856299212595
0
LINE
8
BLACK
6
CONTINUOUS
10
4.6209466141732278
20
-3.8422856299212595
11
4.630766811023622
21
-3.8505257480314961
0
LINE
8
BLACK
6
CONTINUOUS
10
4.630766811023622
20
-3.8505257480314961
11
4.6395639370078738
21
-3.8598501968503935
0
LINE
8
BLACK
6
CONTINUOUS
10
4.6395639370078738
20
-3.8598501968503935
11
4.6472191338582673
21
-3.8701328740157481
0
LINE
8
BLACK
6
CONTINUOUS
10
4.6472191338582673
20
-3.8701328740157481
11
4.6536287795275593
21
-3.8812347244094489
0
LINE
8
BLACK
6
CONTINUOUS
10
4.6536287795275593
20
-3.8812347244094489
11
4.6587062598425195
21
-3.8930056692913384
0
LINE
8
BLACK
6
CONTINUOUS
10
4.6587062598425195
20
-3.8930056692913384
11
4.6623829133858266
21
-3.9052864566929131
0
LINE
8
BLACK
6
CONTINUOUS
10
4.6623829133858266
20
-3.9052864566929131
11
4.6646089370078743
21
-3.9179110236220471
0
LINE
8
BLACK
6
CONTINUOUS
10
4.6646089370078743
20
-3.9179110236220471
11
4.6653543307086611
21
-3.9307086614173228
0
LINE
8
BLACK
6
CONTINUOUS
10
4.6653543307086611
20
-3.9307086614173228
11
4.6646089370078743
21
-3.9435062992125984
0
LINE
8
BLACK
6
CONTINUOUS
10
4.6646089370078743
20
-3.9435062992125984
11
4.6623829133858266
21
-3.956130866141732
0
LINE
8
BLACK
6
CONTINUOUS
10
4.6623829133858266
20
-3.956130866141732
11
4.6587062598425195
21
-3.9684116535433072
0
LINE
8
BLACK
6
CONTINUOUS
10
4.6587062598425195
20
-3.9684116535433072
11
4.6536287795275593
21
-3.9801825984251966
0
LINE
8
BLACK
6
CONTINUOUS
10
4.6536287795275593
20
-3.9801825984251966
11
4.6472191338582673
21
-3.9912844488188974
0
LINE
8
BLACK
6
CONTINUOUS
10
4.6472191338582673
20
-3.9912844488188974
11
4.6395639370078738
21
-4.001567125984252
0
LINE
8
BLACK
6
CONTINUOUS
10
4.6395639370078738
20
-4.001567125984252
11
4.630766811023622
21
-4.01089157480315
0
LINE
8
BLACK
6
CONTINUOUS
10
4.630766811023622
20
-4.01089157480315
11
4.6209466141732278
21
-4.019131692913386
0
LINE
8
BLACK
6
CONTINUOUS
10
4.6209466141732278
20
-4.019131692913386
11
4.6102362204724407
21
-4.026176023622047
0
LINE
8
BLACK
6
CONTINUOUS
10
4.6102362204724407
20
-4.026176023622047
11
4.5987804330708659
21
-4.0319293307086612
0
LINE
8
BLACK
6
CONTINUOUS
10
4.5987804330708659
20
-4.0319293307086612
11
4.586734212598425
21
-4.0363138188976375
0
LINE
8
BLACK
6
CONTINUOUS
10
4.586734212598425
20
-4.0363138188976375
11
4.574260433070866
21
-4.0392701574803151
0
LINE
8
BLACK
6
CONTINUOUS
10
4.574260433070866
20
-4.0392701574803151
11
4.5615277952755902
21
-4.0407583858267717
0
LINE
8
BLACK
6
CONTINUOUS
10
4.5615277952755902
20
-4.0407583858267717
11
4.5487084251968506
21
-4.0407583858267717
0
LINE
8
BLACK
6
CONTINUOUS
10
4.5487084251968506
20
-4.0407583858267717
11
4.5359757874015747
21
-4.0392701574803151
0
LINE
8
BLACK
6
CONTINUOUS
10
4.5359757874015747
20
-4.0392701574803151
11
4.5235020078740158
21
-4.0363138188976375
0
LINE
8
BLACK
6
CONTINUOUS
10
4.5235020078740158
20
-4.0363138188976375
11
4.5114557874015748
21
-4.0319293307086612
0
LINE
8
BLACK
6
CONTINUOUS
10
4.5114557874015748
20
-4.0319293307086612
11
4.5
21
-4.026176023622047
0
LINE
8
BLACK
6
CONTINUOUS
10
4.5
20
-4.026176023622047
11
4.4892896062992129
21
-4.019131692913386
0
LINE
8
BLACK
6
CONTINUOUS
10
4.4892896062992129
20
-4.019131692913386
11
4.4794694094488188
21
-4.01089157480315
0
LINE
8
BLACK
6
CONTINUOUS
10
4.4794694094488188
20
-4.01089157480315
11
4.4706722834645669
21
-4.001567125984252
0
LINE
8
BLACK
6
CONTINUOUS
10
4.4706722834645669
20
-4.001567125984252
11
4.4630170866141734
21
-3.9912844488188974
0
LINE
8
BLACK
6
CONTINUOUS
10
4.4630170866141734
20
-3.9912844488188974
11
4.4566074409448815
21
-3.9801825984251966
0
LINE
8
BLACK
6
CONTINUOUS
10
4.4566074409448815
20
-3.9801825984251966
11
4.4515299606299212
21
-3.9684116535433072
0
LINE
8
BLACK
6
CONTINUOUS
10
4.4515299606299212
20
-3.9684116535433072
11
4.4478533070866142
21
-3.956130866141732
0
LINE
8
BLACK
6
CONTINUOUS
10
4.4478533070866142
20
-3.956130866141732
11
4.4456272834645665
21
-3.9435062992125984
0
LINE
8
BLACK
6
CONTINUOUS
10
4.4456272834645665
20
-3.9435062992125984
11
4.4448818897637796
21
-3.9307086614173228
0
LINE
8
BLACK
6
CONTINUOUS
10
4.4448818897637796
20
-3.9307086614173228
11
4.4456272834645665
21
-3.9179110236220471
0
LINE
8
BLACK
6
CONTINUOUS
10
4.4456272834645665
20
-3.9179110236220471
11
4.4478533070866142
21
-3.9052864566929131
0
LINE
8
BLACK
6
CONTINUOUS
10
4.4478533070866142
20
-3.9052864566929131
11
4.4515299606299212
21
-3.8930056692913384
0
LINE
8
BLACK
6
CONTINUOUS
10
4.4515299606299212
20
-3.8930056692913384
11
4.4566074409448815
21
-3.8812347244094489
0
LINE
8
BLACK
6
CONTINUOUS
10
4.4566074409448815
20
-3.8812347244094489
11
4.4630170866141734
21
-3.8701328740157481
0
LINE
8
BLACK
6
CONTINUOUS
10
4.4630170866141734
20
-3.8701328740157481
11
4.4706722834645669
21
-3.8598501968503935
0
LINE
8
BLACK
6
CONTINUOUS
10
4.4706722834645669
20
-3.8598501968503935
11
4.4794694094488188
21
-3.8505257480314961
0
LINE
8
BLACK
6
CONTINUOUS
10
4.4794694094488188
20
-3.8505257480314961
11
4.4892896062992129
21
-3.8422856299212595
0
LINE
8
BLACK
6
CONTINUOUS
10
4.4892896062992129
20
-3.8422856299212595
11
4.5
21
-3.8352412992125982
0
LINE
8
BLACK
6
CONTINUOUS
10
4.5
20
-3.8352412992125982
11
4.5114557874015748
21
-3.8294879921259843
0
LINE
8
BLACK
6
CONTINUOUS
10
4.5114557874015748
20
-3.8294879921259843
11
4.5235020078740158
21
-3.8251035039370076
0
LINE
8
BLACK
6
CONTINUOUS
10
4.5235020078740158
20
-3.8251035039370076
11
4.5359757874015747
21
-3.8221471653543304
0
LINE
8
BLACK
6
CONTINUOUS
10
4.5359757874015747
20
-3.8221471653543304
11
4.5487084251968506
21
-3.8206589370078738
0
LINE
8
BLACK
6
CONTINUOUS
10
4.5487084251968506
20
-3.8206589370078738
11
4.5615277952755902
21
-3.8206589370078738
0
LINE
8
BLACK
6
CONTINUOUS
10
4.5615277952755902
20
-3.8206589370078738
11
4.574260433070866
21
-3.8221471653543304
0
LINE
8
BLACK
6
CONTINUOUS
10
6.1742604330708657
20
-3.8221471653543304
11
6.1867342125984255
21
-3.8251035039370076
0
LINE
8
BLACK
6
CONTINUOUS
10
6.1867342125984255
20
-3.8251035039370076
11
6.1987804330708656
21
-3.8294879921259843
0
LINE
8
BLACK
6
CONTINUOUS
10
6.1987804330708656
20
-3.8294879921259843
11
6.2102362204724404
21
-3.8352412992125982
0
LINE
8
BLACK
6
CONTINUOUS
10
6.2102362204724404
20
-3.8352412992125982
11
6.2209466141732284
21
-3.8422856299212595
0
LINE
8
BLACK
6
CONTINUOUS
10
6.2209466141732284
20
-3.8422856299212595
11
6.2307668110236216
21
-3.8505257480314961
0
LINE
8
BLACK
6
CONTINUOUS
10
6.2307668110236216
20
-3.8505257480314961
11
6.2395639370078735
21
-3.8598501968503935
0
LINE
8
BLACK
6
CONTINUOUS
10
6.2395639370078735
20
-3.8598501968503935
11
6.2472191338582679
21
-3.8701328740157481
0
LINE
8
BLACK
6
CONTINUOUS
10
6.2472191338582679
20
-3.8701328740157481
11
6.2536287795275589
21
-3.8812347244094489
0
LINE
8
BLACK
6
CONTINUOUS
10
6.2536287795275589
20
-3.8812347244094489
11
6.2587062598425192
21
-3.8930056692913384
0
LINE
8
BLACK
6
CONTINUOUS
10
6.2587062598425192
20
-3.8930056692913384
11
6.2623829133858262
21
-3.9052864566929131
0
LINE
8
BLACK
6
CONTINUOUS
10
6.2623829133858262
20
-3.9052864566929131
11
6.2646089370078739
21
-3.9179110236220471
0
LINE
8
BLACK
6
CONTINUOUS
10
6.2646089370078739
20
-3.9179110236220471
11
6.2653543307086617
21
-3.9307086614173228
0
LINE
8
BLACK
6
CONTINUOUS
10
6.2653543307086617
20
-3.9307086614173228
11
6.2646089370078739
21
-3.9435062992125984
0
LINE
8
BLACK
6
CONTINUOUS
10
6.2646089370078739
20
-3.9435062992125984
11
6.2623829133858262
21
-3.956130866141732
0
LINE
8
BLACK
6
CONTINUOUS
10
6.2623829133858262
20
-3.956130866141732
11
6.2587062598425192
21
-3.9684116535433072
0
LINE
8
BLACK
6
CONTINUOUS
10
6.2587062598425192
20
-3.9684116535433072
11
6.2536287795275589
21
-3.9801825984251966
0
LINE
8
BLACK
6
CONTINUOUS
10
6.2536287795275589
20
-3.9801825984251966
11
6.2472191338582679
21
-3.9912844488188974
0
LINE
8
BLACK
6
CONTINUOUS
10
6.2472191338582679
20
-3.9912844488188974
11
6.2395639370078735
21
-4.001567125984252
0
LINE
8
BLACK
6
CONTINUOUS
10
6.2395639370078735
20
-4.001567125984252
11
6.2307668110236216
21
-4.01089157480315
0
LINE
8
BLACK
6
CONTINUOUS
10
6.2307668110236216
20
-4.01089157480315
11
6.2209466141732284
21
-4.019131692913386
0
LINE
8
BLACK
6
CONTINUOUS
10
6.2209466141732284
20
-4.019131692913386
11
6.2102362204724404
21
-4.026176023622047
0
LINE
8
BLACK
6
CONTINUOUS
10
6.2102362204724404
20
-4.026176023622047
11
6.1987804330708656
21
-4.0319293307086612
0
LINE
8
BLACK
6
CONTINUOUS
10
6.1987804330708656
20
-4.0319293307086612
11
6.1867342125984255
21
-4.0363138188976375
0
LINE
8
BLACK
6
CONTINUOUS
10
6.1867342125984255
20
-4.0363138188976375
11
6.1742604330708657
21
-4.0392701574803151
0
LINE
8
BLACK
6
CONTINUOUS
10
6.1742604330708657
20
-4.0392701574803151
11
6.1615277952755907
21
-4.0407583858267717
0
LINE
8
BLACK
6
CONTINUOUS
10
6.1615277952755907
20
-4.0407583858267717
11
6.1487084251968502
21
-4.0407583858267717
0
LINE
8
BLACK
6
CONTINUOUS
10
6.1487084251968502
20
-4.0407583858267717
11
6.1359757874015743
21
-4.0392701574803151
0
LINE
8
BLACK
6
CONTINUOUS
10
6.1359757874015743
20
-4.0392701574803151
11
6.1235020078740154
21
-4.0363138188976375
0
LINE
8
BLACK
6
CONTINUOUS
10
6.1235020078740154
20
-4.0363138188976375
11
6.1114557874015745
21
-4.0319293307086612
0
LINE
8
BLACK
6
CONTINUOUS
10
6.1114557874015745
20
-4.0319293307086612
11
6.0999999999999996
21
-4.026176023622047
0
LINE
8
BLACK
6
CONTINUOUS
10
6.0999999999999996
20
-4.026176023622047
11
6.0892896062992126
21
-4.019131692913386
0
LINE
8
BLACK
6
CONTINUOUS
10
6.0892896062992126
20
-4.019131692913386
11
6.0794694094488184
21
-4.01089157480315
0
LINE
8
BLACK
6
CONTINUOUS
10
6.0794694094488184
20
-4.01089157480315
11
6.0706722834645666
21
-4.001567125984252
0
LINE
8
BLACK
6
CONTINUOUS
10
6.0706722834645666
20
-4.001567125984252
11
6.063017086614173
21
-3.9912844488188974
0
LINE
8
BLACK
6
CONTINUOUS
10
6.063017086614173
20
-3.9912844488188974
11
6.056607440944882
21
-3.9801825984251966
0
LINE
8
BLACK
6
CONTINUOUS
10
6.056607440944882
20
-3.9801825984251966
11
6.0515299606299209
21
-3.9684116535433072
0
LINE
8
BLACK
6
CONTINUOUS
10
6.0515299606299209
20
-3.9684116535433072
11
6.0478533070866138
21
-3.956130866141732
0
LINE
8
BLACK
6
CONTINUOUS
10
6.0478533070866138
20
-3.956130866141732
11
6.045627283464567
21
-3.9435062992125984
0
LINE
8
BLACK
6
CONTINUOUS
10
6.045627283464567
20
-3.9435062992125984
11
6.0448818897637793
21
-3.9307086614173228
0
LINE
8
BLACK
6
CONTINUOUS
10
6.0448818897637793
20
-3.9307086614173228
11
6.045627283464567
21
-3.9179110236220471
0
LINE
8
BLACK
6
CONTINUOUS
10
6.045627283464567
20
-3.9179110236220471
11
6.0478533070866138
21
-3.9052864566929131
0
LINE
8
BLACK
6
CONTINUOUS
10
6.0478533070866138
20
-3.9052864566929131
11
6.0515299606299209
21
-3.8930056692913384
0
LINE
8
BLACK
6
CONTINUOUS
10
6.0515299606299209
20
-3.8930056692913384
11
6.056607440944882
21
-3.8812347244094489
0
LINE
8
BLACK
6
CONTINUOUS
10
6.056607440944882
20
-3.8812347244094489
11
6.063017086614173
21
-3.8701328740157481
0
LINE
8
BLACK
6
CONTINUOUS
10
6.063017086614173
20
-3.8701328740157481
11
6.0706722834645666
21
-3.8598501968503935
0
LINE
8
BLACK
6
CONTINUOUS
10
6.0706722834645666
20
-3.8598501968503935
11
6.0794694094488184
21
-3.8505257480314961
0
LINE
8
BLACK
6
CONTINUOUS
10
6.0794694094488184
20
-3.8505257480314961
11
6.0892896062992126
21
-3.8422856299212595
0
LINE
8
BLACK
6
CONTINUOUS
10
6.0892896062992126
20
-3.8422856299212595
11
6.0999999999999996
21
-3.8352412992125982
0
LINE
8
BLACK
6
CONTINUOUS
10
6.0999999999999996
20
-3.8352412992125982
11
6.1114557874015745
21
-3.8294879921259843
0
LINE
8
BLACK
6
CONTINUOUS
10
6.1114557874015745
20
-3.8294879921259843
11
6.1235020078740154
21
-3.8251035039370076
0
LINE
8
BLACK
6
CONTINUOUS
10
6.1235020078740154
20
-3.8251035039370076
11
6.1359757874015743
21
-3.8221471653543304
0
LINE
8
BLACK
6
CONTINUOUS
10
6.1359757874015743
20
-3.8221471653543304
11
6.1487084251968502
21
-3.8206589370078738
0
LINE
8
BLACK
6
CONTINUOUS
10
6.1487084251968502
20
-3.8206589370078738
11
6.1615277952755907
21
-3.8206589370078738
0
LINE
8
BLACK
6
CONTINUOUS
10
6.1615277952755907
20
-3.8206589370078738
11
6.1742604330708657
21
-3.8221471653543304
0
LINE
8
BLACK
6
CONTINUOUS
10
5.2899015748031495
20
-3.9246062992125985
11
5.2623425196850393
21
-3.9246062992125985
0
LINE
8
BLACK
6
CONTINUOUS
10
5.2623425196850393
20
-3.9246062992125985
11
5.2623425196850393
21
-3.865551181102362
0
LINE
8
BLACK
6
CONTINUOUS
10
5.2623425196850393
20
-3.865551181102362
11
5.2899015748031495
21
-3.865551181102362
0
LINE
8
BLACK
6
CONTINUOUS
10
5.2899015748031495
20
-3.865551181102362
11
5.2899015748031495
21
-3.9246062992125985
0
LINE
8
BLACK
6
CONTINUOUS
10
5.3292716535433069
20
-3.9246062992125985
11
5.3017125984251967
21
-3.9246062992125985
0
LINE
8
BLACK
6
CONTINUOUS
10
5.3017125984251967
20
-3.9246062992125985
11
5.3017125984251967
21
-3.865551181102362
0
LINE
8
BLACK
6
CONTINUOUS
10
5.3017125984251967
20
-3.865551181102362
11
5.3292716535433069
21
-3.865551181102362
0
LINE
8
BLACK
6
CONTINUOUS
10
5.3292716535433069
20
-3.865551181102362
11
5.3292716535433069
21
-3.9246062992125985
0
LINE
8
BLACK
6
CONTINUOUS
10
5.3686417322834643
20
-3.9246062992125985
11
5.3410826771653541
21
-3.9246062992125985
0
LINE
8
BLACK
6
CONTINUOUS
10
5.3410826771653541
20
-3.9246062992125985
11
5.3410826771653541
21
-3.865551181102362
0
LINE
8
BLACK
6
CONTINUOUS
10
5.3410826771653541
20
-3.865551181102362
11
5.3686417322834643
21
-3.865551181102362
0
LINE
8
BLACK
6
CONTINUOUS
10
5.3686417322834643
20
-3.865551181102362
11
5.3686417322834643
21
-3.9246062992125985
0
LINE
8
BLACK
6
CONTINUOUS
10
5.4080118110236217
20
-3.9246062992125985
11
5.3804527559055115
21
-3.9246062992125985
0
LINE
8
BLACK
6
CONTINUOUS
10
5.3804527559055115
20
-3.9246062992125985
11
5.3804527559055115
21
-3.865551181102362
0
LINE
8
BLACK
6
CONTINUOUS
10
5.3804527559055115
20
-3.865551181102362
11
5.4080118110236217
21
-3.865551181102362
0
LINE
8
BLACK
6
CONTINUOUS
10
5.4080118110236217
20
-3.865551181102362
11
5.4080118110236217
21
-3.9246062992125985
0
LINE
8
BLACK
6
CONTINUOUS
10
5.4473818897637791
20
-3.9246062992125985
11
5.4198228346456689
21
-3.9246062992125985
0
LINE
8
BLACK
6
CONTINUOUS
10
5.4198228346456689
20
-3.9246062992125985
11
5.4198228346456689
21
-3.865551181102362
0
LINE
8
BLACK
6
CONTINUOUS
10
5.4198228346456689
20
-3.865551181102362
11
5.4473818897637791
21
-3.865551181102362
0
LINE
8
BLACK
6
CONTINUOUS
10
5.4473818897637791
20
-3.865551181102362
11
5.4473818897637791
21
-3.9246062992125985
0
LINE
8
BLACK
6
CONTINUOUS
10
5.2111614173228347
20
-3.8931102362204721
11
5.1521062992125986
21
-3.8931102362204721
0
LINE
8
BLACK
6
CONTINUOUS
10
5.1521062992125986
20
-3.8931102362204721
11
5.1521062992125986
21
-3.865551181102362
0
LINE
8
BLACK
6
CONTINUOUS
10
5.1521062992125986
20
-3.865551181102362
11
5.2111614173228347
21
-3.865551181102362
0
LINE
8
BLACK
6
CONTINUOUS
10
5.2111614173228347
20
-3.865551181102362
11
5.2111614173228347
21
-3.8931102362204721
0
LINE
8
BLACK
6
CONTINUOUS
10
5.5576181102362208
20
-3.8931102362204721
11
5.4985629921259838
21
-3.8931102362204721
0
LINE
8
BLACK
6
CONTINUOUS
10
5.4985629921259838
20
-3.8931102362204721
11
5.4985629921259838
21
-3.865551181102362
0
LINE
8
BLACK
6
CONTINUOUS
10
5.4985629921259838
20
-3.865551181102362
11
5.5576181102362208
21
-3.865551181102362
0
LINE
8
BLACK
6
CONTINUOUS
10
5.5576181102362208
20
-3.865551181102362
11
5.5576181102362208
21
-3.8931102362204721
0
LINE
8
BLACK
6
CONTINUOUS
10
5.2111614173228347
20
-3.8537401574803147
11
5.1521062992125986
21
-3.8537401574803147
0
LINE
8
BLACK
6
CONTINUOUS
10
5.1521062992125986
20
-3.8537401574803147
11
5.1521062992125986
21
-3.8261811023622045
0
LINE
8
BLACK
6
CONTINUOUS
10
5.1521062992125986
20
-3.8261811023622045
11
5.2111614173228347
21
-3.8261811023622045
0
LINE
8
BLACK
6
CONTINUOUS
10
5.2111614173228347
20
-3.8261811023622045
11
5.2111614173228347
21
-3.8537401574803147
0
LINE
8
BLACK
6
CONTINUOUS
10
5.5576181102362208
20
-3.8537401574803147
11
5.4985629921259838
21
-3.8537401574803147
0
LINE
8
BLACK
6
CONTINUOUS
10
5.4985629921259838
20
-3.8537401574803147
11
5.4985629921259838
21
-3.8261811023622045
0
LINE
8
BLACK
6
CONTINUOUS
10
5.4985629921259838
20
-3.8261811023622045
11
5.5576181102362208
21
-3.8261811023622045
0
LINE
8
BLACK
6
CONTINUOUS
10
5.5576181102362208
20
-3.8261811023622045
11
5.5576181102362208
21
-3.8537401574803147
0
LINE
8
BLACK
6
CONTINUOUS
10
5.2111614173228347
20
-3.8143700787401573
11
5.1521062992125986
21
-3.8143700787401573
0
LINE
8
BLACK
6
CONTINUOUS
10
5.1521062992125986
20
-3.8143700787401573
11
5.1521062992125986
21
-3.7868110236220471
0
LINE
8
BLACK
6
CONTINUOUS
10
5.1521062992125986
20
-3.7868110236220471
11
5.2111614173228347
21
-3.7868110236220471
0
LINE
8
BLACK
6
CONTINUOUS
10
5.2111614173228347
20
-3.7868110236220471
11
5.2111614173228347
21
-3.8143700787401573
0
LINE
8
BLACK
6
CONTINUOUS
10
5.5576181102362208
20
-3.8143700787401573
11
5.4985629921259838
21
-3.8143700787401573
0
LINE
8
BLACK
6
CONTINUOUS
10
5.4985629921259838
20
-3.8143700787401573
11
5.4985629921259838
21
-3.7868110236220471
0
LINE
8
BLACK
6
CONTINUOUS
10
5.4985629921259838
20
-3.7868110236220471
11
5.5576181102362208
21
-3.7868110236220471
0
LINE
8
BLACK
6
CONTINUOUS
10
5.5576181102362208
20
-3.7868110236220471
11
5.5576181102362208
21
-3.8143700787401573
0
LINE
8
BLACK
6
CONTINUOUS
10
5.2111614173228347
20
-3.7749999999999999
11
5.1521062992125986
21
-3.7749999999999999
0
LINE
8
BLACK
6
CONTINUOUS
10
5.1521062992125986
20
-3.7749999999999999
11
5.1521062992125986
21
-3.7474409448818897
0
LINE
8
BLACK
6
CONTINUOUS
10
5.1521062992125986
20
-3.7474409448818897
11
5.2111614173228347
21
-3.7474409448818897
0
LINE
8
BLACK
6
CONTINUOUS
10
5.2111614173228347
20
-3.7474409448818897
11
5.2111614173228347
21
-3.7749999999999999
0
LINE
8
BLACK
6
CONTINUOUS
10
5.5576181102362208
20
-3.7749999999999999
11
5.4985629921259838
21
-3.7749999999999999
0
LINE
8
BLACK
6
CONTINUOUS
10
5.4985629921259838
20
-3.7749999999999999
11
5.4985629921259838
21
-3.7474409448818897
0
LINE
8
BLACK
6
CONTINUOUS
10
5.4985629921259838
20
-3.7474409448818897
11
5.5576181102362208
21
-3.7474409448818897
0
LINE
8
BLACK
6
CONTINUOUS
10
5.5576181102362208
20
-3.7474409448818897
11
5.5576181102362208
21
-3.7749999999999999
0
LINE
8
BLACK
6
CONTINUOUS
10
5.2111614173228347
20
-3.7356299212598425
11
5.1521062992125986
21
-3.7356299212598425
0
LINE
8
BLACK
6
CONTINUOUS
10
5.1521062992125986
20
-3.7356299212598425
11
5.1521062992125986
21
-3.7080708661417323
0
LINE
8
BLACK
6
CONTINUOUS
10
5.1521062992125986
20
-3.7080708661417323
11
5.2111614173228347
21
-3.7080708661417323
0
LINE
8
BLACK
6
CONTINUOUS
10
5.2111614173228347
20
-3.7080708661417323
11
5.2111614173228347
21
-3.7356299212598425
0
LINE
8
BLACK
6
CONTINUOUS
10
5.5576181102362208
20
-3.7356299212598425
11
5.4985629921259838
21
-3.7356299212598425
0
LINE
8
BLACK
6
CONTINUOUS
10
5.4985629921259838
20
-3.7356299212598425
11
5.4985629921259838
21
-3.7080708661417323
0
LINE
8
BLACK
6
CONTINUOUS
10
5.4985629921259838
20
-3.7080708661417323
11
5.5576181102362208
21
-3.7080708661417323
0
LINE
8
BLACK
6
CONTINUOUS
10
5.5576181102362208
20
-3.7080708661417323
11
5.5576181102362208
21
-3.7356299212598425
0
LINE
8
BLACK
6
CONTINUOUS
10
5.2111614173228347
20
-3.6962598425196851
11
5.1521062992125986
21
-3.6962598425196851
0
LINE
8
BLACK
6
CONTINUOUS
10
5.1521062992125986
20
-3.6962598425196851
11
5.1521062992125986
21
-3.6687007874015749
0
LINE
8
BLACK
6
CONTINUOUS
10
5.1521062992125986
20
-3.6687007874015749
11
5.2111614173228347
21
-3.6687007874015749
0
LINE
8
BLACK
6
CONTINUOUS
10
5.2111614173228347
20
-3.6687007874015749
11
5.2111614173228347
21
-3.6962598425196851
0
LINE
8
BLACK
6
CONTINUOUS
10
5.5576181102362208
20
-3.6962598425196851
11
5.4985629921259838
21
-3.6962598425196851
0
LINE
8
BLACK
6
CONTINUOUS
10
5.4985629921259838
20
-3.6962598425196851
11
5.4985629921259838
21
-3.6687007874015749
0
LINE
8
BLACK
6
CONTINUOUS
10
5.4985629921259838
20
-3.6687007874015749
11
5.5576181102362208
21
-3.6687007874015749
0
LINE
8
BLACK
6
CONTINUOUS
10
5.5576181102362208
20
-3.6687007874015749
11
5.5576181102362208
21
-3.6962598425196851
0
LINE
8
BLACK
6
CONTINUOUS
10
5.2111614173228347
20
-3.6568897637795277
11
5.1521062992125986
21
-3.6568897637795277
0
LINE
8
BLACK
6
CONTINUOUS
10
5.1521062992125986
20
-3.6568897637795277
11
5.1521062992125986
21
-3.629330708661417
0
LINE
8
BLACK
6
CONTINUOUS
10
5.1521062992125986
20
-3.629330708661417
11
5.2111614173228347
21
-3.629330708661417
0
LINE
8
BLACK
6
CONTINUOUS
10
5.2111614173228347
20
-3.629330708661417
11
5.2111614173228347
21
-3.6568897637795277
0
LINE
8
BLACK
6
CONTINUOUS
10
5.5576181102362208
20
-3.6568897637795277
11
5.4985629921259838
21
-3.6568897637795277
0
LINE
8
BLACK
6
CONTINUOUS
10
5.4985629921259838
20
-3.6568897637795277
11
5.4985629921259838
21
-3.629330708661417
0
LINE
8
BLACK
6
CONTINUOUS
10
5.4985629921259838
20
-3.629330708661417
11
5.5576181102362208
21
-3.629330708661417
0
LINE
8
BLACK
6
CONTINUOUS
10
5.5576181102362208
20
-3.629330708661417
11
5.5576181102362208
21
-3.6568897637795277
0
LINE
8
BLACK
6
CONTINUOUS
10
5.2111614173228347
20
-3.6175196850393698
11
5.1521062992125986
21
-3.6175196850393698
0
LINE
8
BLACK
6
CONTINUOUS
10
5.1521062992125986
20
-3.6175196850393698
11
5.1521062992125986
21
-3.5899606299212596
0
LINE
8
BLACK
6
CONTINUOUS
10
5.1521062992125986
20
-3.5899606299212596
11
5.2111614173228347
21
-3.5899606299212596
0
LINE
8
BLACK
6
CONTINUOUS
10
5.2111614173228347
20
-3.5899606299212596
11
5.2111614173228347
21
-3.6175196850393698
0
LINE
8
BLACK
6
CONTINUOUS
10
5.5576181102362208
20
-3.6175196850393698
11
5.4985629921259838
21
-3.6175196850393698
0
LINE
8
BLACK
6
CONTINUOUS
10
5.4985629921259838
20
-3.6175196850393698
11
5.4985629921259838
21
-3.5899606299212596
0
LINE
8
BLACK
6
CONTINUOUS
10
5.4985629921259838
20
-3.5899606299212596
11
5.5576181102362208
21
-3.5899606299212596
0
LINE
8
BLACK
6
CONTINUOUS
10
5.5576181102362208
20
-3.5899606299212596
11
5.5576181102362208
21
-3.6175196850393698
0
LINE
8
BLACK
6
CONTINUOUS
10
5.2111614173228347
20
-3.5781496062992124
11
5.1521062992125986
21
-3.5781496062992124
0
LINE
8
BLACK
6
CONTINUOUS
10
5.1521062992125986
20
-3.5781496062992124
11
5.1521062992125986
21
-3.5505905511811022
0
LINE
8
BLACK
6
CONTINUOUS
10
5.1521062992125986
20
-3.5505905511811022
11
5.2111614173228347
21
-3.5505905511811022
0
LINE
8
BLACK
6
CONTINUOUS
10
5.2111614173228347
20
-3.5505905511811022
11
5.2111614173228347
21
-3.5781496062992124
0
LINE
8
BLACK
6
CONTINUOUS
10
5.5576181102362208
20
-3.5781496062992124
11
5.4985629921259838
21
-3.5781496062992124
0
LINE
8
BLACK
6
CONTINUOUS
10
5.4985629921259838
20
-3.5781496062992124
11
5.4985629921259838
21
-3.5505905511811022
0
LINE
8
BLACK
6
CONTINUOUS
10
5.4985629921259838
20
-3.5505905511811022
11
5.5576181102362208
21
-3.5505905511811022
0
LINE
8
BLACK
6
CONTINUOUS
10
5.5576181102362208
20
-3.5505905511811022
11
5.5576181102362208
21
-3.5781496062992124
0
LINE
8
BLACK
6
CONTINUOUS
10
5.2111614173228347
20
-3.538779527559055
11
5.1521062992125986
21
-3.538779527559055
0
LINE
8
BLACK
6
CONTINUOUS
10
5.1521062992125986
20
-3.538779527559055
11
5.1521062992125986
21
-3.5112204724409448
0
LINE
8
BLACK
6
CONTINUOUS
10
5.1521062992125986
20
-3.5112204724409448
11
5.2111614173228347
21
-3.5112204724409448
0
LINE
8
BLACK
6
CONTINUOUS
10
5.2111614173228347
20
-3.5112204724409448
11
5.2111614173228347
21
-3.538779527559055
0
LINE
8
BLACK
6
CONTINUOUS
10
5.5576181102362208
20
-3.538779527559055
11
5.4985629921259838
21
-3.538779527559055
0
LINE
8
BLACK
6
CONTINUOUS
10
5.4985629921259838
20
-3.538779527559055
11
5.4985629921259838
21
-3.5112204724409448
0
LINE
8
BLACK
6
CONTINUOUS
10
5.4985629921259838
20
-3.5112204724409448
11
5.5576181102362208
21
-3.5112204724409448
0
LINE
8
BLACK
6
CONTINUOUS
10
5.5576181102362208
20
-3.5112204724409448
11
5.5576181102362208
21
-3.538779527559055
0
LINE
8
BLACK
6
CONTINUOUS
10
5.2111614173228347
20
-3.4994094488188976
11
5.1521062992125986
21
-3.4994094488188976
0
LINE
8
BLACK
6
CONTINUOUS
10
5.1521062992125986
20
-3.4994094488188976
11
5.1521062992125986
21
-3.4718503937007874
0
LINE
8
BLACK
6
CONTINUOUS
10
5.1521062992125986
20
-3.4718503937007874
11
5.2111614173228347
21
-3.4718503937007874
0
LINE
8
BLACK
6
CONTINUOUS
10
5.2111614173228347
20
-3.4718503937007874
11
5.2111614173228347
21
-3.4994094488188976
0
LINE
8
BLACK
6
CONTINUOUS
10
5.5576181102362208
20
-3.4994094488188976
11
5.4985629921259838
21
-3.4994094488188976
0
LINE
8
BLACK
6
CONTINUOUS
10
5.4985629921259838
20
-3.4994094488188976
11
5.4985629921259838
21
-3.4718503937007874
0
LINE
8
BLACK
6
CONTINUOUS
10
5.4985629921259838
20
-3.4718503937007874
11
5.5576181102362208
21
-3.4718503937007874
0
LINE
8
BLACK
6
CONTINUOUS
10
5.5576181102362208
20
-3.4718503937007874
11
5.5576181102362208
21
-3.4994094488188976
0
LINE
8
BLACK
6
CONTINUOUS
10
5.2111614173228347
20
-3.4600393700787402
11
5.1521062992125986
21
-3.4600393700787402
0
LINE
8
BLACK
6
CONTINUOUS
10
5.1521062992125986
20
-3.4600393700787402
11
5.1521062992125986
21
-3.43248031496063
0
LINE
8
BLACK
6
CONTINUOUS
10
5.1521062992125986
20
-3.43248031496063
11
5.2111614173228347
21
-3.43248031496063
0
LINE
8
BLACK
6
CONTINUOUS
10
5.2111614173228347
20
-3.43248031496063
11
5.2111614173228347
21
-3.4600393700787402
0
LINE
8
BLACK
6
CONTINUOUS
10
5.5576181102362208
20
-3.4600393700787402
11
5.4985629921259838
21
-3.4600393700787402
0
LINE
8
BLACK
6
CONTINUOUS
10
5.4985629921259838
20
-3.4600393700787402
11
5.4985629921259838
21
-3.43248031496063
0
LINE
8
BLACK
6
CONTINUOUS
10
5.4985629921259838
20
-3.43248031496063
11
5.5576181102362208
21
-3.43248031496063
0
LINE
8
BLACK
6
CONTINUOUS
10
5.5576181102362208
20
-3.43248031496063
11
5.5576181102362208
21
-3.4600393700787402
0
LINE
8
BLACK
6
CONTINUOUS
10
5.2111614173228347
20
-3.4206692913385828
11
5.1521062992125986
21
-3.4206692913385828
0
LINE
8
BLACK
6
CONTINUOUS
10
5.1521062992125986
20
-3.4206692913385828
11
5.1521062992125986
21
-3.3812992125984249
0
LINE
8
BLACK
6
CONTINUOUS
10
5.1521062992125986
20
-3.3812992125984249
11
5.2111614173228347
21
-3.3812992125984249
0
LINE
8
BLACK
6
CONTINUOUS
10
5.2111614173228347
20
-3.3812992125984249
11
5.2111614173228347
21
-3.4206692913385828
0
LINE
8
BLACK
6
CONTINUOUS
10
5.5576181102362208
20
-3.4206692913385828
11
5.4985629921259838
21
-3.4206692913385828
0
LINE
8
BLACK
6
CONTINUOUS
10
5.4985629921259838
20
-3.4206692913385828
11
5.4985629921259838
21
-3.3812992125984249
0
LINE
8
BLACK
6
CONTINUOUS
10
5.4985629921259838
20
-3.3812992125984249
11
5.5576181102362208
21
-3.3812992125984249
0
LINE
8
BLACK
6
CONTINUOUS
10
5.5576181102362208
20
-3.3812992125984249
11
5.5576181102362208
21
-3.4206692913385828
  0
ENDSEC
  0
EOF
