  0
SECTION
  2
HEADER
  9
$ANGBASE
  50
0.0
  9
$ANGDIR
  70
1
  9
$MEASUREMENT
  70
0
  0
ENDSEC
  0
SECTION
  2
TABLES
  0
TABLE
  2
LTYPE
  70
4
  0
LTYPE
  5
40F
  2
CONTINUOUS
  70
0
  3
Solid line
  72
65
  73
0
  40
0.0
  0
LTYPE
  5
410
  2
DASHDOT
 70
0
  3
Dash Dot ____ _ ____ _
 72
65
 73
4
 40
2.0
 49
1.25
 49
-0.25
 49
0.25
 49
-0.25
  0
LTYPE
  5
411
  2
DASHED
 70
0
  3
Dashed __ __ __ __ __
 72
65
 73
2
 40
0.75
 49
0.5
 49
-0.25
  0
LTYPE
  5
43B
  2
DOTTED
 70
0
  3
Dotted .  .  .  .
 72
65
 73
2
 40
0.2
 49
0.0
 49
-0.2
  0
ENDTAB
  0
TABLE
  2
STYLE
  70
4
  0
STYLE
  2
KICAD
  70
0
  40
0
  41
1
  42
1
  50
0
  71
0
  3
isocp.shx
  0
STYLE
  2
KICADB
  70
0
  40
0
  41
1
  42
1
  50
0
  71
0
  3
isocp.shx
  0
STYLE
  2
KICADI
  70
0
  40
0
  41
1
  42
1
  50
15
  71
0
  3
isocp.shx
  0
STYLE
  2
KICADBI
  70
0
  40
0
  41
1
  42
1
  50
15
  71
0
  3
isocp.shx
  0
ENDTAB
  0
TABLE
  2
LAYER
  70
1
  0
LAYER
  2
BLACK
  70
0
  62
7
  6
CONTINUOUS
  0
ENDTAB
  0
ENDSEC
  0
SECTION
  2
ENTITIES
0
LINE
8
BLACK
6
CONTINUOUS
10
5.7401404330708656
20
-4.6809804330708662
11
5.7406731102362203
21
-4.68151311023622
0
LINE
8
BLACK
6
CONTINUOUS
10
5.7406731102362203
20
-4.68151311023622
11
5.7407480314960626
21
-4.6818897637795276
0
LINE
8
BLACK
6
CONTINUOUS
10
5.7407480314960626
20
-4.6818897637795276
11
5.7407480314960626
21
-4.933858267716535
0
LINE
8
BLACK
6
CONTINUOUS
10
5.7407480314960626
20
-4.933858267716535
11
5.7406731102362203
21
-4.9342349212598426
0
LINE
8
BLACK
6
CONTINUOUS
10
5.7406731102362203
20
-4.9342349212598426
11
5.7401404330708656
21
-4.9347675984251964
0
LINE
8
BLACK
6
CONTINUOUS
10
5.7401404330708656
20
-4.9347675984251964
11
5.7397637795275589
21
-4.9348425196850396
0
LINE
8
BLACK
6
CONTINUOUS
10
5.7397637795275589
20
-4.9348425196850396
11
5.3681102362204722
21
-4.9348425196850396
0
LINE
8
BLACK
6
CONTINUOUS
10
5.3681102362204722
20
-4.9348425196850396
11
5.3677335826771655
21
-4.9347675984251964
0
LINE
8
BLACK
6
CONTINUOUS
10
5.3677335826771655
20
-4.9347675984251964
11
5.3672009055118108
21
-4.9342349212598426
0
LINE
8
BLACK
6
CONTINUOUS
10
5.3672009055118108
20
-4.9342349212598426
11
5.3671259842519685
21
-4.933858267716535
0
LINE
8
BLACK
6
CONTINUOUS
10
5.3671259842519685
20
-4.933858267716535
11
5.3671259842519685
21
-4.6818897637795276
0
LINE
8
BLACK
6
CONTINUOUS
10
5.3671259842519685
20
-4.6818897637795276
11
5.3672009055118108
21
-4.68151311023622
0
LINE
8
BLACK
6
CONTINUOUS
10
5.3672009055118108
20
-4.68151311023622
11
5.3677335826771655
21
-4.6809804330708662
0
LINE
8
BLACK
6
CONTINUOUS
10
5.3677335826771655
20
-4.6809804330708662
11
5.3681102362204722
21
-4.6809055118110239
0
LINE
8
BLACK
6
CONTINUOUS
10
5.3681102362204722
20
-4.6809055118110239
11
5.7397637795275589
21
-4.6809055118110239
0
LINE
8
BLACK
6
CONTINUOUS
10
5.7397637795275589
20
-4.6809055118110239
11
5.7401404330708656
21
-4.6809804330708662
0
LINE
8
BLACK
6
CONTINUOUS
10
5.3690944881889759
20
-4.6828740157480313
11
5.3690944881889759
21
-4.9328740157480313
0
LINE
8
BLACK
6
CONTINUOUS
10
5.3690944881889759
20
-4.9328740157480313
11
5.7387795275590552
21
-4.9328740157480313
0
LINE
8
BLACK
6
CONTINUOUS
10
5.7387795275590552
20
-4.9328740157480313
11
5.7387795275590552
21
-4.6828740157480313
0
LINE
8
BLACK
6
CONTINUOUS
10
5.7387795275590552
20
-4.6828740157480313
11
5.3690944881889759
21
-4.6828740157480313
0
LINE
8
BLACK
6
CONTINUOUS
10
5.3200616929133853
20
-4.6794056299212601
11
5.3205943700787399
21
-4.6799383070866138
0
LINE
8
BLACK
6
CONTINUOUS
10
5.3205943700787399
20
-4.6799383070866138
11
5.3206692913385822
21
-4.6803149606299215
0
LINE
8
BLACK
6
CONTINUOUS
10
5.3206692913385822
20
-4.6803149606299215
11
5.3206692913385822
21
-4.9322834645669289
0
LINE
8
BLACK
6
CONTINUOUS
10
5.3206692913385822
20
-4.9322834645669289
11
5.3205943700787399
21
-4.9326601181102365
0
LINE
8
BLACK
6
CONTINUOUS
10
5.3205943700787399
20
-4.9326601181102365
11
5.3200616929133853
21
-4.9331927952755903
0
LINE
8
BLACK
6
CONTINUOUS
10
5.3200616929133853
20
-4.9331927952755903
11
5.3196850393700785
21
-4.9332677165354326
0
LINE
8
BLACK
6
CONTINUOUS
10
5.3196850393700785
20
-4.9332677165354326
11
4.8488188976377948
21
-4.9332677165354326
0
LINE
8
BLACK
6
CONTINUOUS
10
4.8488188976377948
20
-4.9332677165354326
11
4.8484422440944881
21
-4.9331927952755903
0
LINE
8
BLACK
6
CONTINUOUS
10
4.8484422440944881
20
-4.9331927952755903
11
4.8479095669291334
21
-4.9326601181102365
0
LINE
8
BLACK
6
CONTINUOUS
10
4.8479095669291334
20
-4.9326601181102365
11
4.8478346456692911
21
-4.9322834645669289
0
LINE
8
BLACK
6
CONTINUOUS
10
4.8478346456692911
20
-4.9322834645669289
11
4.8478346456692911
21
-4.6803149606299215
0
LINE
8
BLACK
6
CONTINUOUS
10
4.8478346456692911
20
-4.6803149606299215
11
4.8479095669291334
21
-4.6799383070866138
0
LINE
8
BLACK
6
CONTINUOUS
10
4.8479095669291334
20
-4.6799383070866138
11
4.8484422440944881
21
-4.6794056299212601
0
LINE
8
BLACK
6
CONTINUOUS
10
4.8484422440944881
20
-4.6794056299212601
11
4.8488188976377948
21
-4.6793307086614169
0
LINE
8
BLACK
6
CONTINUOUS
10
4.8488188976377948
20
-4.6793307086614169
11
5.3196850393700785
21
-4.6793307086614169
0
LINE
8
BLACK
6
CONTINUOUS
10
5.3196850393700785
20
-4.6793307086614169
11
5.3200616929133853
21
-4.6794056299212601
0
LINE
8
BLACK
6
CONTINUOUS
10
4.8498031496062994
20
-4.6812992125984252
11
4.8498031496062994
21
-4.9312992125984252
0
LINE
8
BLACK
6
CONTINUOUS
10
4.8498031496062994
20
-4.9312992125984252
11
5.3187007874015748
21
-4.9312992125984252
0
LINE
8
BLACK
6
CONTINUOUS
10
5.3187007874015748
20
-4.9312992125984252
11
5.3187007874015748
21
-4.6812992125984252
0
LINE
8
BLACK
6
CONTINUOUS
10
5.3187007874015748
20
-4.6812992125984252
11
4.8498031496062994
21
-4.6812992125984252
0
LINE
8
BLACK
6
CONTINUOUS
10
5.9658294094488191
20
-4.8047993307086614
11
5.9663620866141729
21
-4.805332007874016
0
LINE
8
BLACK
6
CONTINUOUS
10
5.9663620866141729
20
-4.805332007874016
11
5.9664370078740152
21
-4.8057086614173228
0
LINE
8
BLACK
6
CONTINUOUS
10
5.9664370078740152
20
-4.8057086614173228
11
5.9664370078740152
21
-4.8828740157480315
0
LINE
8
BLACK
6
CONTINUOUS
10
5.9664370078740152
20
-4.8828740157480315
11
5.9663620866141729
21
-4.8832506692913382
0
LINE
8
BLACK
6
CONTINUOUS
10
5.9663620866141729
20
-4.8832506692913382
11
5.9658294094488191
21
-4.8837833464566929
0
LINE
8
BLACK
6
CONTINUOUS
10
5.9658294094488191
20
-4.8837833464566929
11
5.9654527559055115
21
-4.8838582677165352
0
LINE
8
BLACK
6
CONTINUOUS
10
5.9654527559055115
20
-4.8838582677165352
11
5.8315944881889763
21
-4.8838582677165352
0
LINE
8
BLACK
6
CONTINUOUS
10
5.8315944881889763
20
-4.8838582677165352
11
5.8312178346456696
21
-4.8837833464566929
0
LINE
8
BLACK
6
CONTINUOUS
10
5.8312178346456696
20
-4.8837833464566929
11
5.8306851574803149
21
-4.8832506692913382
0
LINE
8
BLACK
6
CONTINUOUS
10
5.8306851574803149
20
-4.8832506692913382
11
5.8306102362204726
21
-4.8828740157480315
0
LINE
8
BLACK
6
CONTINUOUS
10
5.8306102362204726
20
-4.8828740157480315
11
5.8306102362204726
21
-4.8057086614173228
0
LINE
8
BLACK
6
CONTINUOUS
10
5.8306102362204726
20
-4.8057086614173228
11
5.8306851574803149
21
-4.805332007874016
0
LINE
8
BLACK
6
CONTINUOUS
10
5.8306851574803149
20
-4.805332007874016
11
5.8312178346456696
21
-4.8047993307086614
0
LINE
8
BLACK
6
CONTINUOUS
10
5.8312178346456696
20
-4.8047993307086614
11
5.8315944881889763
21
-4.8047244094488191
0
LINE
8
BLACK
6
CONTINUOUS
10
5.8315944881889763
20
-4.8047244094488191
11
5.9654527559055115
21
-4.8047244094488191
0
LINE
8
BLACK
6
CONTINUOUS
10
5.9654527559055115
20
-4.8047244094488191
11
5.9658294094488191
21
-4.8047993307086614
0
LINE
8
BLACK
6
CONTINUOUS
10
5.83257874015748
20
-4.8066929133858265
11
5.83257874015748
21
-4.8818897637795278
0
LINE
8
BLACK
6
CONTINUOUS
10
5.83257874015748
20
-4.8818897637795278
11
5.9644685039370078
21
-4.8818897637795278
0
LINE
8
BLACK
6
CONTINUOUS
10
5.9644685039370078
20
-4.8818897637795278
11
5.9644685039370078
21
-4.8066929133858265
0
LINE
8
BLACK
6
CONTINUOUS
10
5.9644685039370078
20
-4.8066929133858265
11
5.83257874015748
21
-4.8066929133858265
0
LINE
8
BLACK
6
CONTINUOUS
10
5.9866955511811026
20
-4.6343268897637797
11
5.9872282283464564
21
-4.6348595669291335
0
LINE
8
BLACK
6
CONTINUOUS
10
5.9872282283464564
20
-4.6348595669291335
11
5.9873031496062987
21
-4.6352362204724411
0
LINE
8
BLACK
6
CONTINUOUS
10
5.9873031496062987
20
-4.6352362204724411
11
5.9873031496062987
21
-4.7966535433070865
0
LINE
8
BLACK
6
CONTINUOUS
10
5.9873031496062987
20
-4.7966535433070865
11
5.9872282283464564
21
-4.7970301968503932
0
LINE
8
BLACK
6
CONTINUOUS
10
5.9872282283464564
20
-4.7970301968503932
11
5.9866955511811026
21
-4.7975628740157479
0
LINE
8
BLACK
6
CONTINUOUS
10
5.9866955511811026
20
-4.7975628740157479
11
5.986318897637795
21
-4.7976377952755902
0
LINE
8
BLACK
6
CONTINUOUS
10
5.986318897637795
20
-4.7976377952755902
11
5.8524606299212598
21
-4.7976377952755902
0
LINE
8
BLACK
6
CONTINUOUS
10
5.8524606299212598
20
-4.7976377952755902
11
5.8520839763779522
21
-4.7975628740157479
0
LINE
8
BLACK
6
CONTINUOUS
10
5.8520839763779522
20
-4.7975628740157479
11
5.8515512992125984
21
-4.7970301968503932
0
LINE
8
BLACK
6
CONTINUOUS
10
5.8515512992125984
20
-4.7970301968503932
11
5.8514763779527561
21
-4.7966535433070865
0
LINE
8
BLACK
6
CONTINUOUS
10
5.8514763779527561
20
-4.7966535433070865
11
5.8514763779527561
21
-4.6352362204724411
0
LINE
8
BLACK
6
CONTINUOUS
10
5.8514763779527561
20
-4.6352362204724411
11
5.8515512992125984
21
-4.6348595669291335
0
LINE
8
BLACK
6
CONTINUOUS
10
5.8515512992125984
20
-4.6348595669291335
11
5.8520839763779522
21
-4.6343268897637797
0
LINE
8
BLACK
6
CONTINUOUS
10
5.8520839763779522
20
-4.6343268897637797
11
5.8524606299212598
21
-4.6342519685039365
0
LINE
8
BLACK
6
CONTINUOUS
10
5.8524606299212598
20
-4.6342519685039365
11
5.986318897637795
21
-4.6342519685039365
0
LINE
8
BLACK
6
CONTINUOUS
10
5.986318897637795
20
-4.6342519685039365
11
5.9866955511811026
21
-4.6343268897637797
0
LINE
8
BLACK
6
CONTINUOUS
10
5.8534448818897635
20
-4.6362204724409448
11
5.8534448818897635
21
-4.7956692913385828
0
LINE
8
BLACK
6
CONTINUOUS
10
5.8534448818897635
20
-4.7956692913385828
11
5.9853346456692913
21
-4.7956692913385828
0
LINE
8
BLACK
6
CONTINUOUS
10
5.9853346456692913
20
-4.7956692913385828
11
5.9853346456692913
21
-4.6362204724409448
0
LINE
8
BLACK
6
CONTINUOUS
10
5.9853346456692913
20
-4.6362204724409448
11
5.8534448818897635
21
-4.6362204724409448
0
LINE
8
BLACK
6
CONTINUOUS
10
5.6507703543307084
20
-4.4750749212598429
11
5.6513030314960631
21
-4.4756075984251966
0
LINE
8
BLACK
6
CONTINUOUS
10
5.6513030314960631
20
-4.4756075984251966
11
5.6513779527559054
21
-4.4759842519685042
0
LINE
8
BLACK
6
CONTINUOUS
10
5.6513779527559054
20
-4.4759842519685042
11
5.6513779527559054
21
-4.6555118110236222
0
LINE
8
BLACK
6
CONTINUOUS
10
5.6513779527559054
20
-4.6555118110236222
11
5.6513030314960631
21
-4.655888464566929
0
LINE
8
BLACK
6
CONTINUOUS
10
5.6513030314960631
20
-4.655888464566929
11
5.6507703543307084
21
-4.6564211417322836
0
LINE
8
BLACK
6
CONTINUOUS
10
5.6507703543307084
20
-4.6564211417322836
11
5.6503937007874017
21
-4.6564960629921259
0
LINE
8
BLACK
6
CONTINUOUS
10
5.6503937007874017
20
-4.6564960629921259
11
5.5622047244094484
21
-4.6564960629921259
0
LINE
8
BLACK
6
CONTINUOUS
10
5.5622047244094484
20
-4.6564960629921259
11
5.5618280708661416
21
-4.6564211417322836
0
LINE
8
BLACK
6
CONTINUOUS
10
5.5618280708661416
20
-4.6564211417322836
11
5.561295393700787
21
-4.655888464566929
0
LINE
8
BLACK
6
CONTINUOUS
10
5.561295393700787
20
-4.655888464566929
11
5.5612204724409446
21
-4.6555118110236222
0
LINE
8
BLACK
6
CONTINUOUS
10
5.5612204724409446
20
-4.6555118110236222
11
5.5612204724409446
21
-4.4759842519685042
0
LINE
8
BLACK
6
CONTINUOUS
10
5.5612204724409446
20
-4.4759842519685042
11
5.561295393700787
21
-4.4756075984251966
0
LINE
8
BLACK
6
CONTINUOUS
10
5.561295393700787
20
-4.4756075984251966
11
5.5618280708661416
21
-4.4750749212598429
0
LINE
8
BLACK
6
CONTINUOUS
10
5.5618280708661416
20
-4.4750749212598429
11
5.5622047244094484
21
-4.4749999999999996
0
LINE
8
BLACK
6
CONTINUOUS
10
5.5622047244094484
20
-4.4749999999999996
11
5.6503937007874017
21
-4.4749999999999996
0
LINE
8
BLACK
6
CONTINUOUS
10
5.6503937007874017
20
-4.4749999999999996
11
5.6507703543307084
21
-4.4750749212598429
0
LINE
8
BLACK
6
CONTINUOUS
10
5.563188976377953
20
-4.476968503937008
11
5.563188976377953
21
-4.6545275590551176
0
LINE
8
BLACK
6
CONTINUOUS
10
5.563188976377953
20
-4.6545275590551176
11
5.6494094488188979
21
-4.6545275590551176
0
LINE
8
BLACK
6
CONTINUOUS
10
5.6494094488188979
20
-4.6545275590551176
11
5.6494094488188979
21
-4.476968503937008
0
LINE
8
BLACK
6
CONTINUOUS
10
5.6494094488188979
20
-4.476968503937008
11
5.563188976377953
21
-4.476968503937008
0
LINE
8
BLACK
6
CONTINUOUS
10
4.931872716535433
20
-4.562870196850394
11
4.9324053937007877
21
-4.5634028740157477
0
LINE
8
BLACK
6
CONTINUOUS
10
4.9324053937007877
20
-4.5634028740157477
11
4.93248031496063
21
-4.5637795275590554
0
LINE
8
BLACK
6
CONTINUOUS
10
4.93248031496063
20
-4.5637795275590554
11
4.93248031496063
21
-4.6385826771653544
0
LINE
8
BLACK
6
CONTINUOUS
10
4.93248031496063
20
-4.6385826771653544
11
4.9324053937007877
21
-4.6389593307086612
0
LINE
8
BLACK
6
CONTINUOUS
10
4.9324053937007877
20
-4.6389593307086612
11
4.931872716535433
21
-4.6394920078740158
0
LINE
8
BLACK
6
CONTINUOUS
10
4.931872716535433
20
-4.6394920078740158
11
4.9314960629921263
21
-4.6395669291338582
0
LINE
8
BLACK
6
CONTINUOUS
10
4.9314960629921263
20
-4.6395669291338582
11
4.7992125984251963
21
-4.6395669291338582
0
LINE
8
BLACK
6
CONTINUOUS
10
4.7992125984251963
20
-4.6395669291338582
11
4.7988359448818896
21
-4.6394920078740158
0
LINE
8
BLACK
6
CONTINUOUS
10
4.7988359448818896
20
-4.6394920078740158
11
4.7983032677165349
21
-4.6389593307086612
0
LINE
8
BLACK
6
CONTINUOUS
10
4.7983032677165349
20
-4.6389593307086612
11
4.7982283464566926
21
-4.6385826771653544
0
LINE
8
BLACK
6
CONTINUOUS
10
4.7982283464566926
20
-4.6385826771653544
11
4.7982283464566926
21
-4.5637795275590554
0
LINE
8
BLACK
6
CONTINUOUS
10
4.7982283464566926
20
-4.5637795275590554
11
4.7983032677165349
21
-4.5634028740157477
0
LINE
8
BLACK
6
CONTINUOUS
10
4.7983032677165349
20
-4.5634028740157477
11
4.7988359448818896
21
-4.562870196850394
0
LINE
8
BLACK
6
CONTINUOUS
10
4.7988359448818896
20
-4.562870196850394
11
4.7992125984251963
21
-4.5627952755905508
0
LINE
8
BLACK
6
CONTINUOUS
10
4.7992125984251963
20
-4.5627952755905508
11
4.9314960629921263
21
-4.5627952755905508
0
LINE
8
BLACK
6
CONTINUOUS
10
4.9314960629921263
20
-4.5627952755905508
11
4.931872716535433
21
-4.562870196850394
0
LINE
8
BLACK
6
CONTINUOUS
10
4.8001968503937009
20
-4.5647637795275591
11
4.8001968503937009
21
-4.6375984251968507
0
LINE
8
BLACK
6
CONTINUOUS
10
4.8001968503937009
20
-4.6375984251968507
11
4.9305118110236217
21
-4.6375984251968507
0
LINE
8
BLACK
6
CONTINUOUS
10
4.9305118110236217
20
-4.6375984251968507
11
4.9305118110236217
21
-4.5647637795275591
0
LINE
8
BLACK
6
CONTINUOUS
10
4.9305118110236217
20
-4.5647637795275591
11
4.8001968503937009
21
-4.5647637795275591
0
LINE
8
BLACK
6
CONTINUOUS
10
5.4980144488188971
20
-4.4990906692913386
11
5.4985471259842518
21
-4.4996233464566924
0
LINE
8
BLACK
6
CONTINUOUS
10
5.4985471259842518
20
-4.4996233464566924
11
5.4986220472440941
21
-4.5
0
LINE
8
BLACK
6
CONTINUOUS
10
5.4986220472440941
20
-4.5
11
5.4986220472440941
21
-4.6322834645669291
0
LINE
8
BLACK
6
CONTINUOUS
10
5.4986220472440941
20
-4.6322834645669291
11
5.4985471259842518
21
-4.6326601181102358
0
LINE
8
BLACK
6
CONTINUOUS
10
5.4985471259842518
20
-4.6326601181102358
11
5.4980144488188971
21
-4.6331927952755905
0
LINE
8
BLACK
6
CONTINUOUS
10
5.4980144488188971
20
-4.6331927952755905
11
5.4976377952755904
21
-4.6332677165354328
0
LINE
8
BLACK
6
CONTINUOUS
10
5.4976377952755904
20
-4.6332677165354328
11
5.4228346456692913
21
-4.6332677165354328
0
LINE
8
BLACK
6
CONTINUOUS
10
5.4228346456692913
20
-4.6332677165354328
11
5.4224579921259846
21
-4.6331927952755905
0
LINE
8
BLACK
6
CONTINUOUS
10
5.4224579921259846
20
-4.6331927952755905
11
5.4219253149606299
21
-4.6326601181102358
0
LINE
8
BLACK
6
CONTINUOUS
10
5.4219253149606299
20
-4.6326601181102358
11
5.4218503937007876
21
-4.6322834645669291
0
LINE
8
BLACK
6
CONTINUOUS
10
5.4218503937007876
20
-4.6322834645669291
11
5.4218503937007876
21
-4.5
0
LINE
8
BLACK
6
CONTINUOUS
10
5.4218503937007876
20
-4.5
11
5.4219253149606299
21
-4.4996233464566924
0
LINE
8
BLACK
6
CONTINUOUS
10
5.4219253149606299
20
-4.4996233464566924
11
5.4224579921259846
21
-4.4990906692913386
0
LINE
8
BLACK
6
CONTINUOUS
10
5.4224579921259846
20
-4.4990906692913386
11
5.4228346456692913
21
-4.4990157480314963
0
LINE
8
BLACK
6
CONTINUOUS
10
5.4228346456692913
20
-4.4990157480314963
11
5.4976377952755904
21
-4.4990157480314963
0
LINE
8
BLACK
6
CONTINUOUS
10
5.4976377952755904
20
-4.4990157480314963
11
5.4980144488188971
21
-4.4990906692913386
0
LINE
8
BLACK
6
CONTINUOUS
10
5.423818897637795
20
-4.5009842519685037
11
5.423818897637795
21
-4.6312992125984254
0
LINE
8
BLACK
6
CONTINUOUS
10
5.423818897637795
20
-4.6312992125984254
11
5.4966535433070867
21
-4.6312992125984254
0
LINE
8
BLACK
6
CONTINUOUS
10
5.4966535433070867
20
-4.6312992125984254
11
5.4966535433070867
21
-4.5009842519685037
0
LINE
8
BLACK
6
CONTINUOUS
10
5.4966535433070867
20
-4.5009842519685037
11
5.423818897637795
21
-4.5009842519685037
0
LINE
8
BLACK
6
CONTINUOUS
10
5.4180931889763775
20
-4.4986969685039373
11
5.4186258661417321
21
-4.4992296456692911
0
LINE
8
BLACK
6
CONTINUOUS
10
5.4186258661417321
20
-4.4992296456692911
11
5.4187007874015745
21
-4.4996062992125987
0
LINE
8
BLACK
6
CONTINUOUS
10
5.4187007874015745
20
-4.4996062992125987
11
5.4187007874015745
21
-4.6318897637795278
0
LINE
8
BLACK
6
CONTINUOUS
10
5.4187007874015745
20
-4.6318897637795278
11
5.4186258661417321
21
-4.6322664173228345
0
LINE
8
BLACK
6
CONTINUOUS
10
5.4186258661417321
20
-4.6322664173228345
11
5.4180931889763775
21
-4.6327990944881892
0
LINE
8
BLACK
6
CONTINUOUS
10
5.4180931889763775
20
-4.6327990944881892
11
5.4177165354330707
21
-4.6328740157480315
0
LINE
8
BLACK
6
CONTINUOUS
10
5.4177165354330707
20
-4.6328740157480315
11
5.3429133858267717
21
-4.6328740157480315
0
LINE
8
BLACK
6
CONTINUOUS
10
5.3429133858267717
20
-4.6328740157480315
11
5.342536732283464
21
-4.6327990944881892
0
LINE
8
BLACK
6
CONTINUOUS
10
5.342536732283464
20
-4.6327990944881892
11
5.3420040551181103
21
-4.6322664173228345
0
LINE
8
BLACK
6
CONTINUOUS
10
5.3420040551181103
20
-4.6322664173228345
11
5.341929133858268
21
-4.6318897637795278
0
LINE
8
BLACK
6
CONTINUOUS
10
5.341929133858268
20
-4.6318897637795278
11
5.341929133858268
21
-4.4996062992125987
0
LINE
8
BLACK
6
CONTINUOUS
10
5.341929133858268
20
-4.4996062992125987
11
5.3420040551181103
21
-4.4992296456692911
0
LINE
8
BLACK
6
CONTINUOUS
10
5.3420040551181103
20
-4.4992296456692911
11
5.342536732283464
21
-4.4986969685039373
0
LINE
8
BLACK
6
CONTINUOUS
10
5.342536732283464
20
-4.4986969685039373
11
5.3429133858267717
21
-4.4986220472440941
0
LINE
8
BLACK
6
CONTINUOUS
10
5.3429133858267717
20
-4.4986220472440941
11
5.4177165354330707
21
-4.4986220472440941
0
LINE
8
BLACK
6
CONTINUOUS
10
5.4177165354330707
20
-4.4986220472440941
11
5.4180931889763775
21
-4.4986969685039373
0
LINE
8
BLACK
6
CONTINUOUS
10
5.3438976377952754
20
-4.5005905511811024
11
5.3438976377952754
21
-4.6309055118110232
0
LINE
8
BLACK
6
CONTINUOUS
10
5.3438976377952754
20
-4.6309055118110232
11
5.416732283464567
21
-4.6309055118110232
0
LINE
8
BLACK
6
CONTINUOUS
10
5.416732283464567
20
-4.6309055118110232
11
5.416732283464567
21
-4.5005905511811024
0
LINE
8
BLACK
6
CONTINUOUS
10
5.416732283464567
20
-4.5005905511811024
11
5.3438976377952754
21
-4.5005905511811024
0
LINE
8
BLACK
6
CONTINUOUS
10
6.0267546062992121
20
-4.4969253149606301
11
6.0272872834645668
21
-4.4974579921259838
0
LINE
8
BLACK
6
CONTINUOUS
10
6.0272872834645668
20
-4.4974579921259838
11
6.0273622047244091
21
-4.4978346456692915
0
LINE
8
BLACK
6
CONTINUOUS
10
6.0273622047244091
20
-4.4978346456692915
11
6.0273622047244091
21
-4.6316929133858267
0
LINE
8
BLACK
6
CONTINUOUS
10
6.0273622047244091
20
-4.6316929133858267
11
6.0272872834645668
21
-4.6320695669291334
0
LINE
8
BLACK
6
CONTINUOUS
10
6.0272872834645668
20
-4.6320695669291334
11
6.0267546062992121
21
-4.6326022440944881
0
LINE
8
BLACK
6
CONTINUOUS
10
6.0267546062992121
20
-4.6326022440944881
11
6.0263779527559054
21
-4.6326771653543304
0
LINE
8
BLACK
6
CONTINUOUS
10
6.0263779527559054
20
-4.6326771653543304
11
5.9492125984251967
21
-4.6326771653543304
0
LINE
8
BLACK
6
CONTINUOUS
10
5.9492125984251967
20
-4.6326771653543304
11
5.9488359448818899
21
-4.6326022440944881
0
LINE
8
BLACK
6
CONTINUOUS
10
5.9488359448818899
20
-4.6326022440944881
11
5.9483032677165353
21
-4.6320695669291334
0
LINE
8
BLACK
6
CONTINUOUS
10
5.9483032677165353
20
-4.6320695669291334
11
5.948228346456693
21
-4.6316929133858267
0
LINE
8
BLACK
6
CONTINUOUS
10
5.948228346456693
20
-4.6316929133858267
11
5.948228346456693
21
-4.4978346456692915
0
LINE
8
BLACK
6
CONTINUOUS
10
5.948228346456693
20
-4.4978346456692915
11
5.9483032677165353
21
-4.4974579921259838
0
LINE
8
BLACK
6
CONTINUOUS
10
5.9483032677165353
20
-4.4974579921259838
11
5.9488359448818899
21
-4.4969253149606301
0
LINE
8
BLACK
6
CONTINUOUS
10
5.9488359448818899
20
-4.4969253149606301
11
5.9492125984251967
21
-4.4968503937007869
0
LINE
8
BLACK
6
CONTINUOUS
10
5.9492125984251967
20
-4.4968503937007869
11
6.0263779527559054
21
-4.4968503937007869
0
LINE
8
BLACK
6
CONTINUOUS
10
6.0263779527559054
20
-4.4968503937007869
11
6.0267546062992121
21
-4.4969253149606301
0
LINE
8
BLACK
6
CONTINUOUS
10
5.9501968503937004
20
-4.4988188976377952
11
5.9501968503937004
21
-4.630708661417323
0
LINE
8
BLACK
6
CONTINUOUS
10
5.9501968503937004
20
-4.630708661417323
11
6.0253937007874017
21
-4.630708661417323
0
LINE
8
BLACK
6
CONTINUOUS
10
6.0253937007874017
20
-4.630708661417323
11
6.0253937007874017
21
-4.4988188976377952
0
LINE
8
BLACK
6
CONTINUOUS
10
6.0253937007874017
20
-4.4988188976377952
11
5.9501968503937004
21
-4.4988188976377952
0
LINE
8
BLACK
6
CONTINUOUS
10
5.3377782283464565
20
-4.4975158661417325
11
5.3383109055118112
21
-4.4980485433070863
0
LINE
8
BLACK
6
CONTINUOUS
10
5.3383109055118112
20
-4.4980485433070863
11
5.3383858267716535
21
-4.4984251968503939
0
LINE
8
BLACK
6
CONTINUOUS
10
5.3383858267716535
20
-4.4984251968503939
11
5.3383858267716535
21
-4.630708661417323
0
LINE
8
BLACK
6
CONTINUOUS
10
5.3383858267716535
20
-4.630708661417323
11
5.3383109055118112
21
-4.6310853149606297
0
LINE
8
BLACK
6
CONTINUOUS
10
5.3383109055118112
20
-4.6310853149606297
11
5.3377782283464565
21
-4.6316179921259844
0
LINE
8
BLACK
6
CONTINUOUS
10
5.3377782283464565
20
-4.6316179921259844
11
5.3374015748031498
21
-4.6316929133858267
0
LINE
8
BLACK
6
CONTINUOUS
10
5.3374015748031498
20
-4.6316929133858267
11
5.2625984251968498
21
-4.6316929133858267
0
LINE
8
BLACK
6
CONTINUOUS
10
5.2625984251968498
20
-4.6316929133858267
11
5.2622217716535431
21
-4.6316179921259844
0
LINE
8
BLACK
6
CONTINUOUS
10
5.2622217716535431
20
-4.6316179921259844
11
5.2616890944881884
21
-4.6310853149606297
0
LINE
8
BLACK
6
CONTINUOUS
10
5.2616890944881884
20
-4.6310853149606297
11
5.2616141732283461
21
-4.630708661417323
0
LINE
8
BLACK
6
CONTINUOUS
10
5.2616141732283461
20
-4.630708661417323
11
5.2616141732283461
21
-4.4984251968503939
0
LINE
8
BLACK
6
CONTINUOUS
10
5.2616141732283461
20
-4.4984251968503939
11
5.2616890944881884
21
-4.4980485433070863
0
LINE
8
BLACK
6
CONTINUOUS
10
5.2616890944881884
20
-4.4980485433070863
11
5.2622217716535431
21
-4.4975158661417325
0
LINE
8
BLACK
6
CONTINUOUS
10
5.2622217716535431
20
-4.4975158661417325
11
5.2625984251968498
21
-4.4974409448818893
0
LINE
8
BLACK
6
CONTINUOUS
10
5.2625984251968498
20
-4.4974409448818893
11
5.3374015748031498
21
-4.4974409448818893
0
LINE
8
BLACK
6
CONTINUOUS
10
5.3374015748031498
20
-4.4974409448818893
11
5.3377782283464565
21
-4.4975158661417325
0
LINE
8
BLACK
6
CONTINUOUS
10
5.2635826771653544
20
-4.4994094488188976
11
5.2635826771653544
21
-4.6297244094488184
0
LINE
8
BLACK
6
CONTINUOUS
10
5.2635826771653544
20
-4.6297244094488184
11
5.3364173228346452
21
-4.6297244094488184
0
LINE
8
BLACK
6
CONTINUOUS
10
5.3364173228346452
20
-4.6297244094488184
11
5.3364173228346452
21
-4.4994094488188976
0
LINE
8
BLACK
6
CONTINUOUS
10
5.3364173228346452
20
-4.4994094488188976
11
5.2635826771653544
21
-4.4994094488188976
0
LINE
8
BLACK
6
CONTINUOUS
10
5.9460459448818899
20
-4.4969253149606301
11
5.9465786220472436
21
-4.4974579921259838
0
LINE
8
BLACK
6
CONTINUOUS
10
5.9465786220472436
20
-4.4974579921259838
11
5.9466535433070868
21
-4.4978346456692915
0
LINE
8
BLACK
6
CONTINUOUS
10
5.9466535433070868
20
-4.4978346456692915
11
5.9466535433070868
21
-4.6301181102362206
0
LINE
8
BLACK
6
CONTINUOUS
10
5.9466535433070868
20
-4.6301181102362206
11
5.9465786220472436
21
-4.6304947637795273
0
LINE
8
BLACK
6
CONTINUOUS
10
5.9465786220472436
20
-4.6304947637795273
11
5.9460459448818899
21
-4.6310274409448819
0
LINE
8
BLACK
6
CONTINUOUS
10
5.9460459448818899
20
-4.6310274409448819
11
5.9456692913385822
21
-4.6311023622047243
0
LINE
8
BLACK
6
CONTINUOUS
10
5.9456692913385822
20
-4.6311023622047243
11
5.8708661417322832
21
-4.6311023622047243
0
LINE
8
BLACK
6
CONTINUOUS
10
5.8708661417322832
20
-4.6311023622047243
11
5.8704894881889764
21
-4.6310274409448819
0
LINE
8
BLACK
6
CONTINUOUS
10
5.8704894881889764
20
-4.6310274409448819
11
5.8699568110236218
21
-4.6304947637795273
0
LINE
8
BLACK
6
CONTINUOUS
10
5.8699568110236218
20
-4.6304947637795273
11
5.8698818897637794
21
-4.6301181102362206
0
LINE
8
BLACK
6
CONTINUOUS
10
5.8698818897637794
20
-4.6301181102362206
11
5.8698818897637794
21
-4.4978346456692915
0
LINE
8
BLACK
6
CONTINUOUS
10
5.8698818897637794
20
-4.4978346456692915
11
5.8699568110236218
21
-4.4974579921259838
0
LINE
8
BLACK
6
CONTINUOUS
10
5.8699568110236218
20
-4.4974579921259838
11
5.8704894881889764
21
-4.4969253149606301
0
LINE
8
BLACK
6
CONTINUOUS
10
5.8704894881889764
20
-4.4969253149606301
11
5.8708661417322832
21
-4.4968503937007869
0
LINE
8
BLACK
6
CONTINUOUS
10
5.8708661417322832
20
-4.4968503937007869
11
5.9456692913385822
21
-4.4968503937007869
0
LINE
8
BLACK
6
CONTINUOUS
10
5.9456692913385822
20
-4.4968503937007869
11
5.9460459448818899
21
-4.4969253149606301
0
LINE
8
BLACK
6
CONTINUOUS
10
5.8718503937007869
20
-4.4988188976377952
11
5.8718503937007869
21
-4.6291338582677168
0
LINE
8
BLACK
6
CONTINUOUS
10
5.8718503937007869
20
-4.6291338582677168
11
5.9446850393700785
21
-4.6291338582677168
0
LINE
8
BLACK
6
CONTINUOUS
10
5.9446850393700785
20
-4.6291338582677168
11
5.9446850393700785
21
-4.4988188976377952
0
LINE
8
BLACK
6
CONTINUOUS
10
5.9446850393700785
20
-4.4988188976377952
11
5.8718503937007869
21
-4.4988188976377952
0
LINE
8
BLACK
6
CONTINUOUS
10
4.9322664173228343
20
-4.4841300393700783
11
4.932799094488189
21
-4.4846627165354329
0
LINE
8
BLACK
6
CONTINUOUS
10
4.932799094488189
20
-4.4846627165354329
11
4.9328740157480313
21
-4.4850393700787397
0
LINE
8
BLACK
6
CONTINUOUS
10
4.9328740157480313
20
-4.4850393700787397
11
4.9328740157480313
21
-4.5598425196850396
0
LINE
8
BLACK
6
CONTINUOUS
10
4.9328740157480313
20
-4.5598425196850396
11
4.932799094488189
21
-4.5602191732283464
0
LINE
8
BLACK
6
CONTINUOUS
10
4.932799094488189
20
-4.5602191732283464
11
4.9322664173228343
21
-4.560751850393701
0
LINE
8
BLACK
6
CONTINUOUS
10
4.9322664173228343
20
-4.560751850393701
11
4.9318897637795276
21
-4.5608267716535433
0
LINE
8
BLACK
6
CONTINUOUS
10
4.9318897637795276
20
-4.5608267716535433
11
4.7996062992125985
21
-4.5608267716535433
0
LINE
8
BLACK
6
CONTINUOUS
10
4.7996062992125985
20
-4.5608267716535433
11
4.7992296456692909
21
-4.560751850393701
0
LINE
8
BLACK
6
CONTINUOUS
10
4.7992296456692909
20
-4.560751850393701
11
4.7986969685039371
21
-4.5602191732283464
0
LINE
8
BLACK
6
CONTINUOUS
10
4.7986969685039371
20
-4.5602191732283464
11
4.7986220472440948
21
-4.5598425196850396
0
LINE
8
BLACK
6
CONTINUOUS
10
4.7986220472440948
20
-4.5598425196850396
11
4.7986220472440948
21
-4.4850393700787397
0
LINE
8
BLACK
6
CONTINUOUS
10
4.7986220472440948
20
-4.4850393700787397
11
4.7986969685039371
21
-4.4846627165354329
0
LINE
8
BLACK
6
CONTINUOUS
10
4.7986969685039371
20
-4.4846627165354329
11
4.7992296456692909
21
-4.4841300393700783
0
LINE
8
BLACK
6
CONTINUOUS
10
4.7992296456692909
20
-4.4841300393700783
11
4.7996062992125985
21
-4.4840551181102359
0
LINE
8
BLACK
6
CONTINUOUS
10
4.7996062992125985
20
-4.4840551181102359
11
4.9318897637795276
21
-4.4840551181102359
0
LINE
8
BLACK
6
CONTINUOUS
10
4.9318897637795276
20
-4.4840551181102359
11
4.9322664173228343
21
-4.4841300393700783
0
LINE
8
BLACK
6
CONTINUOUS
10
4.8005905511811022
20
-4.4860236220472443
11
4.8005905511811022
21
-4.558858267716535
0
LINE
8
BLACK
6
CONTINUOUS
10
4.8005905511811022
20
-4.558858267716535
11
4.9309055118110239
21
-4.558858267716535
0
LINE
8
BLACK
6
CONTINUOUS
10
4.9309055118110239
20
-4.558858267716535
11
4.9309055118110239
21
-4.4860236220472443
0
LINE
8
BLACK
6
CONTINUOUS
10
4.9309055118110239
20
-4.4860236220472443
11
4.8005905511811022
21
-4.4860236220472443
0
LINE
8
BLACK
6
CONTINUOUS
10
5.841321535433071
20
-4.3801930314960629
11
5.8418542125984247
21
-4.3807257086614175
0
LINE
8
BLACK
6
CONTINUOUS
10
5.8418542125984247
20
-4.3807257086614175
11
5.841929133858268
21
-4.3811023622047243
0
LINE
8
BLACK
6
CONTINUOUS
10
5.841929133858268
20
-4.3811023622047243
11
5.841929133858268
21
-4.4559055118110233
0
LINE
8
BLACK
6
CONTINUOUS
10
5.841929133858268
20
-4.4559055118110233
11
5.8418542125984247
21
-4.456282165354331
0
LINE
8
BLACK
6
CONTINUOUS
10
5.8418542125984247
20
-4.456282165354331
11
5.841321535433071
21
-4.4568148425196847
0
LINE
8
BLACK
6
CONTINUOUS
10
5.841321535433071
20
-4.4568148425196847
11
5.8409448818897634
21
-4.4568897637795271
0
LINE
8
BLACK
6
CONTINUOUS
10
5.8409448818897634
20
-4.4568897637795271
11
5.7086614173228343
21
-4.4568897637795271
0
LINE
8
BLACK
6
CONTINUOUS
10
5.7086614173228343
20
-4.4568897637795271
11
5.7082847637795275
21
-4.4568148425196847
0
LINE
8
BLACK
6
CONTINUOUS
10
5.7082847637795275
20
-4.4568148425196847
11
5.7077520866141729
21
-4.456282165354331
0
LINE
8
BLACK
6
CONTINUOUS
10
5.7077520866141729
20
-4.456282165354331
11
5.7076771653543306
21
-4.4559055118110233
0
LINE
8
BLACK
6
CONTINUOUS
10
5.7076771653543306
20
-4.4559055118110233
11
5.7076771653543306
21
-4.3811023622047243
0
LINE
8
BLACK
6
CONTINUOUS
10
5.7076771653543306
20
-4.3811023622047243
11
5.7077520866141729
21
-4.3807257086614175
0
LINE
8
BLACK
6
CONTINUOUS
10
5.7077520866141729
20
-4.3807257086614175
11
5.7082847637795275
21
-4.3801930314960629
0
LINE
8
BLACK
6
CONTINUOUS
10
5.7082847637795275
20
-4.3801930314960629
11
5.7086614173228343
21
-4.3801181102362206
0
LINE
8
BLACK
6
CONTINUOUS
10
5.7086614173228343
20
-4.3801181102362206
11
5.8409448818897634
21
-4.3801181102362206
0
LINE
8
BLACK
6
CONTINUOUS
10
5.8409448818897634
20
-4.3801181102362206
11
5.841321535433071
21
-4.3801930314960629
0
LINE
8
BLACK
6
CONTINUOUS
10
5.7096456692913389
20
-4.382086614173228
11
5.7096456692913389
21
-4.4549212598425196
0
LINE
8
BLACK
6
CONTINUOUS
10
5.7096456692913389
20
-4.4549212598425196
11
5.8399606299212596
21
-4.4549212598425196
0
LINE
8
BLACK
6
CONTINUOUS
10
5.8399606299212596
20
-4.4549212598425196
11
5.8399606299212596
21
-4.382086614173228
0
LINE
8
BLACK
6
CONTINUOUS
10
5.8399606299212596
20
-4.382086614173228
11
5.7096456692913389
21
-4.382086614173228
0
LINE
8
BLACK
6
CONTINUOUS
10
5.7014593307086612
20
-4.3880670472440944
11
5.7019920078740158
21
-4.388599724409449
0
LINE
8
BLACK
6
CONTINUOUS
10
5.7019920078740158
20
-4.388599724409449
11
5.7020669291338582
21
-4.3889763779527557
0
LINE
8
BLACK
6
CONTINUOUS
10
5.7020669291338582
20
-4.3889763779527557
11
5.7020669291338582
21
-4.4440944881889761
0
LINE
8
BLACK
6
CONTINUOUS
10
5.7020669291338582
20
-4.4440944881889761
11
5.7019920078740158
21
-4.4444711417322837
0
LINE
8
BLACK
6
CONTINUOUS
10
5.7019920078740158
20
-4.4444711417322837
11
5.7014593307086612
21
-4.4450038188976375
0
LINE
8
BLACK
6
CONTINUOUS
10
5.7014593307086612
20
-4.4450038188976375
11
5.7010826771653544
21
-4.4450787401574798
0
LINE
8
BLACK
6
CONTINUOUS
10
5.7010826771653544
20
-4.4450787401574798
11
5.6026574803149609
21
-4.4450787401574798
0
LINE
8
BLACK
6
CONTINUOUS
10
5.6026574803149609
20
-4.4450787401574798
11
5.6022808267716533
21
-4.4450038188976375
0
LINE
8
BLACK
6
CONTINUOUS
10
5.6022808267716533
20
-4.4450038188976375
11
5.6017481496062995
21
-4.4444711417322837
0
LINE
8
BLACK
6
CONTINUOUS
10
5.6017481496062995
20
-4.4444711417322837
11
5.6016732283464563
21
-4.4440944881889761
0
LINE
8
BLACK
6
CONTINUOUS
10
5.6016732283464563
20
-4.4440944881889761
11
5.6016732283464563
21
-4.3889763779527557
0
LINE
8
BLACK
6
CONTINUOUS
10
5.6016732283464563
20
-4.3889763779527557
11
5.6017481496062995
21
-4.388599724409449
0
LINE
8
BLACK
6
CONTINUOUS
10
5.6017481496062995
20
-4.388599724409449
11
5.6022808267716533
21
-4.3880670472440944
0
LINE
8
BLACK
6
CONTINUOUS
10
5.6022808267716533
20
-4.3880670472440944
11
5.6026574803149609
21
-4.387992125984252
0
LINE
8
BLACK
6
CONTINUOUS
10
5.6026574803149609
20
-4.387992125984252
11
5.7010826771653544
21
-4.387992125984252
0
LINE
8
BLACK
6
CONTINUOUS
10
5.7010826771653544
20
-4.387992125984252
11
5.7014593307086612
21
-4.3880670472440944
0
LINE
8
BLACK
6
CONTINUOUS
10
5.6036417322834646
20
-4.3899606299212595
11
5.6036417322834646
21
-4.4431102362204724
0
LINE
8
BLACK
6
CONTINUOUS
10
5.6036417322834646
20
-4.4431102362204724
11
5.7000984251968498
21
-4.4431102362204724
0
LINE
8
BLACK
6
CONTINUOUS
10
5.7000984251968498
20
-4.4431102362204724
11
5.7000984251968498
21
-4.3899606299212595
0
LINE
8
BLACK
6
CONTINUOUS
10
5.7000984251968498
20
-4.3899606299212595
11
5.6036417322834646
21
-4.3899606299212595
0
LINE
8
BLACK
6
CONTINUOUS
10
5.6728175984251967
20
-3.9183820078740155
11
5.6733502755905514
21
-3.9189146850393701
0
LINE
8
BLACK
6
CONTINUOUS
10
5.6733502755905514
20
-3.9189146850393701
11
5.6734251968503937
21
-3.9192913385826769
0
LINE
8
BLACK
6
CONTINUOUS
10
5.6734251968503937
20
-3.9192913385826769
11
5.6734251968503937
21
-4.0515748031496059
0
LINE
8
BLACK
6
CONTINUOUS
10
5.6734251968503937
20
-4.0515748031496059
11
5.6733502755905514
21
-4.0519514566929136
0
LINE
8
BLACK
6
CONTINUOUS
10
5.6733502755905514
20
-4.0519514566929136
11
5.6728175984251967
21
-4.0524841338582673
0
LINE
8
BLACK
6
CONTINUOUS
10
5.6728175984251967
20
-4.0524841338582673
11
5.67244094488189
21
-4.0525590551181105
0
LINE
8
BLACK
6
CONTINUOUS
10
5.67244094488189
20
-4.0525590551181105
11
5.59763779527559
21
-4.0525590551181105
0
LINE
8
BLACK
6
CONTINUOUS
10
5.59763779527559
20
-4.0525590551181105
11
5.5972611417322833
21
-4.0524841338582673
0
LINE
8
BLACK
6
CONTINUOUS
10
5.5972611417322833
20
-4.0524841338582673
11
5.5967284645669286
21
-4.0519514566929136
0
LINE
8
BLACK
6
CONTINUOUS
10
5.5967284645669286
20
-4.0519514566929136
11
5.5966535433070863
21
-4.0515748031496059
0
LINE
8
BLACK
6
CONTINUOUS
10
5.5966535433070863
20
-4.0515748031496059
11
5.5966535433070863
21
-3.9192913385826769
0
LINE
8
BLACK
6
CONTINUOUS
10
5.5966535433070863
20
-3.9192913385826769
11
5.5967284645669286
21
-3.9189146850393701
0
LINE
8
BLACK
6
CONTINUOUS
10
5.5967284645669286
20
-3.9189146850393701
11
5.5972611417322833
21
-3.9183820078740155
0
LINE
8
BLACK
6
CONTINUOUS
10
5.5972611417322833
20
-3.9183820078740155
11
5.59763779527559
21
-3.9183070866141732
0
LINE
8
BLACK
6
CONTINUOUS
10
5.59763779527559
20
-3.9183070866141732
11
5.67244094488189
21
-3.9183070866141732
0
LINE
8
BLACK
6
CONTINUOUS
10
5.67244094488189
20
-3.9183070866141732
11
5.6728175984251967
21
-3.9183820078740155
0
LINE
8
BLACK
6
CONTINUOUS
10
5.5986220472440946
20
-3.920275590551181
11
5.5986220472440946
21
-4.0505905511811022
0
LINE
8
BLACK
6
CONTINUOUS
10
5.5986220472440946
20
-4.0505905511811022
11
5.6714566929133854
21
-4.0505905511811022
0
LINE
8
BLACK
6
CONTINUOUS
10
5.6714566929133854
20
-4.0505905511811022
11
5.6714566929133854
21
-3.920275590551181
0
LINE
8
BLACK
6
CONTINUOUS
10
5.6714566929133854
20
-3.920275590551181
11
5.5986220472440946
21
-3.920275590551181
0
LINE
8
BLACK
6
CONTINUOUS
10
5.5928963385826771
20
-3.9179883070866142
11
5.5934290157480318
21
-3.9185209842519684
0
LINE
8
BLACK
6
CONTINUOUS
10
5.5934290157480318
20
-3.9185209842519684
11
5.5935039370078741
21
-3.9188976377952756
0
LINE
8
BLACK
6
CONTINUOUS
10
5.5935039370078741
20
-3.9188976377952756
11
5.5935039370078741
21
-4.0511811023622046
0
LINE
8
BLACK
6
CONTINUOUS
10
5.5935039370078741
20
-4.0511811023622046
11
5.5934290157480318
21
-4.0515577559055114
0
LINE
8
BLACK
6
CONTINUOUS
10
5.5934290157480318
20
-4.0515577559055114
11
5.5928963385826771
21
-4.052090433070866
0
LINE
8
BLACK
6
CONTINUOUS
10
5.5928963385826771
20
-4.052090433070866
11
5.5925196850393704
21
-4.0521653543307083
0
LINE
8
BLACK
6
CONTINUOUS
10
5.5925196850393704
20
-4.0521653543307083
11
5.5177165354330704
21
-4.0521653543307083
0
LINE
8
BLACK
6
CONTINUOUS
10
5.5177165354330704
20
-4.0521653543307083
11
5.5173398818897637
21
-4.052090433070866
0
LINE
8
BLACK
6
CONTINUOUS
10
5.5173398818897637
20
-4.052090433070866
11
5.516807204724409
21
-4.0515577559055114
0
LINE
8
BLACK
6
CONTINUOUS
10
5.516807204724409
20
-4.0515577559055114
11
5.5167322834645667
21
-4.0511811023622046
0
LINE
8
BLACK
6
CONTINUOUS
10
5.5167322834645667
20
-4.0511811023622046
11
5.5167322834645667
21
-3.9188976377952756
0
LINE
8
BLACK
6
CONTINUOUS
10
5.5167322834645667
20
-3.9188976377952756
11
5.516807204724409
21
-3.9185209842519684
0
LINE
8
BLACK
6
CONTINUOUS
10
5.516807204724409
20
-3.9185209842519684
11
5.5173398818897637
21
-3.9179883070866142
0
LINE
8
BLACK
6
CONTINUOUS
10
5.5173398818897637
20
-3.9179883070866142
11
5.5177165354330704
21
-3.9179133858267714
0
LINE
8
BLACK
6
CONTINUOUS
10
5.5177165354330704
20
-3.9179133858267714
11
5.5925196850393704
21
-3.9179133858267714
0
LINE
8
BLACK
6
CONTINUOUS
10
5.5925196850393704
20
-3.9179133858267714
11
5.5928963385826771
21
-3.9179883070866142
0
LINE
8
BLACK
6
CONTINUOUS
10
5.518700787401575
20
-3.9198818897637793
11
5.518700787401575
21
-4.0501968503937009
0
LINE
8
BLACK
6
CONTINUOUS
10
5.518700787401575
20
-4.0501968503937009
11
5.5915354330708658
21
-4.0501968503937009
0
LINE
8
BLACK
6
CONTINUOUS
10
5.5915354330708658
20
-4.0501968503937009
11
5.5915354330708658
21
-3.9198818897637793
0
LINE
8
BLACK
6
CONTINUOUS
10
5.5915354330708658
20
-3.9198818897637793
11
5.518700787401575
21
-3.9198818897637793
0
LINE
8
BLACK
6
CONTINUOUS
10
5.1362034251968502
20
-3.9022402755905512
11
5.1367361023622049
21
-3.9027729527559054
0
LINE
8
BLACK
6
CONTINUOUS
10
5.1367361023622049
20
-3.9027729527559054
11
5.1368110236220472
21
-3.9031496062992126
0
LINE
8
BLACK
6
CONTINUOUS
10
5.1368110236220472
20
-3.9031496062992126
11
5.1368110236220472
21
-4.0354330708661417
0
LINE
8
BLACK
6
CONTINUOUS
10
5.1368110236220472
20
-4.0354330708661417
11
5.1367361023622049
21
-4.0358097244094484
0
LINE
8
BLACK
6
CONTINUOUS
10
5.1367361023622049
20
-4.0358097244094484
11
5.1362034251968502
21
-4.0363424015748031
0
LINE
8
BLACK
6
CONTINUOUS
10
5.1362034251968502
20
-4.0363424015748031
11
5.1358267716535435
21
-4.0364173228346454
0
LINE
8
BLACK
6
CONTINUOUS
10
5.1358267716535435
20
-4.0364173228346454
11
5.0610236220472435
21
-4.0364173228346454
0
LINE
8
BLACK
6
CONTINUOUS
10
5.0610236220472435
20
-4.0364173228346454
11
5.0606469685039368
21
-4.0363424015748031
0
LINE
8
BLACK
6
CONTINUOUS
10
5.0606469685039368
20
-4.0363424015748031
11
5.0601142913385821
21
-4.0358097244094484
0
LINE
8
BLACK
6
CONTINUOUS
10
5.0601142913385821
20
-4.0358097244094484
11
5.0600393700787398
21
-4.0354330708661417
0
LINE
8
BLACK
6
CONTINUOUS
10
5.0600393700787398
20
-4.0354330708661417
11
5.0600393700787398
21
-3.9031496062992126
0
LINE
8
BLACK
6
CONTINUOUS
10
5.0600393700787398
20
-3.9031496062992126
11
5.0601142913385821
21
-3.9027729527559054
0
LINE
8
BLACK
6
CONTINUOUS
10
5.0601142913385821
20
-3.9027729527559054
11
5.0606469685039368
21
-3.9022402755905512
0
LINE
8
BLACK
6
CONTINUOUS
10
5.0606469685039368
20
-3.9022402755905512
11
5.0610236220472435
21
-3.9021653543307084
0
LINE
8
BLACK
6
CONTINUOUS
10
5.0610236220472435
20
-3.9021653543307084
11
5.1358267716535435
21
-3.9021653543307084
0
LINE
8
BLACK
6
CONTINUOUS
10
5.1358267716535435
20
-3.9021653543307084
11
5.1362034251968502
21
-3.9022402755905512
0
LINE
8
BLACK
6
CONTINUOUS
10
5.0620078740157481
20
-3.9041338582677163
11
5.0620078740157481
21
-4.034448818897638
0
LINE
8
BLACK
6
CONTINUOUS
10
5.0620078740157481
20
-4.034448818897638
11
5.1348425196850389
21
-4.034448818897638
0
LINE
8
BLACK
6
CONTINUOUS
10
5.1348425196850389
20
-4.034448818897638
11
5.1348425196850389
21
-3.9041338582677163
0
LINE
8
BLACK
6
CONTINUOUS
10
5.1348425196850389
20
-3.9041338582677163
11
5.0620078740157481
21
-3.9041338582677163
0
LINE
8
BLACK
6
CONTINUOUS
10
5.2153372834645664
20
-3.9022402755905512
11
5.215869960629921
21
-3.9027729527559054
0
LINE
8
BLACK
6
CONTINUOUS
10
5.215869960629921
20
-3.9027729527559054
11
5.2159448818897634
21
-3.9031496062992126
0
LINE
8
BLACK
6
CONTINUOUS
10
5.2159448818897634
20
-3.9031496062992126
11
5.2159448818897634
21
-4.0354330708661417
0
LINE
8
BLACK
6
CONTINUOUS
10
5.2159448818897634
20
-4.0354330708661417
11
5.215869960629921
21
-4.0358097244094484
0
LINE
8
BLACK
6
CONTINUOUS
10
5.215869960629921
20
-4.0358097244094484
11
5.2153372834645664
21
-4.0363424015748031
0
LINE
8
BLACK
6
CONTINUOUS
10
5.2153372834645664
20
-4.0363424015748031
11
5.2149606299212596
21
-4.0364173228346454
0
LINE
8
BLACK
6
CONTINUOUS
10
5.2149606299212596
20
-4.0364173228346454
11
5.1401574803149606
21
-4.0364173228346454
0
LINE
8
BLACK
6
CONTINUOUS
10
5.1401574803149606
20
-4.0364173228346454
11
5.1397808267716538
21
-4.0363424015748031
0
LINE
8
BLACK
6
CONTINUOUS
10
5.1397808267716538
20
-4.0363424015748031
11
5.1392481496062992
21
-4.0358097244094484
0
LINE
8
BLACK
6
CONTINUOUS
10
5.1392481496062992
20
-4.0358097244094484
11
5.1391732283464568
21
-4.0354330708661417
0
LINE
8
BLACK
6
CONTINUOUS
10
5.1391732283464568
20
-4.0354330708661417
11
5.1391732283464568
21
-3.9031496062992126
0
LINE
8
BLACK
6
CONTINUOUS
10
5.1391732283464568
20
-3.9031496062992126
11
5.1392481496062992
21
-3.9027729527559054
0
LINE
8
BLACK
6
CONTINUOUS
10
5.1392481496062992
20
-3.9027729527559054
11
5.1397808267716538
21
-3.9022402755905512
0
LINE
8
BLACK
6
CONTINUOUS
10
5.1397808267716538
20
-3.9022402755905512
11
5.1401574803149606
21
-3.9021653543307084
0
LINE
8
BLACK
6
CONTINUOUS
10
5.1401574803149606
20
-3.9021653543307084
11
5.2149606299212596
21
-3.9021653543307084
0
LINE
8
BLACK
6
CONTINUOUS
10
5.2149606299212596
20
-3.9021653543307084
11
5.2153372834645664
21
-3.9022402755905512
0
LINE
8
BLACK
6
CONTINUOUS
10
5.1411417322834643
20
-3.9041338582677163
11
5.1411417322834643
21
-4.034448818897638
0
LINE
8
BLACK
6
CONTINUOUS
10
5.1411417322834643
20
-4.034448818897638
11
5.2139763779527559
21
-4.034448818897638
0
LINE
8
BLACK
6
CONTINUOUS
10
5.2139763779527559
20
-4.034448818897638
11
5.2139763779527559
21
-3.9041338582677163
0
LINE
8
BLACK
6
CONTINUOUS
10
5.2139763779527559
20
-3.9041338582677163
11
5.1411417322834643
21
-3.9041338582677163
0
LINE
8
BLACK
6
CONTINUOUS
10
5.6350223228346454
20
-3.4510591732283462
11
5.6355550000000001
21
-3.4515918503937009
0
LINE
8
BLACK
6
CONTINUOUS
10
5.6355550000000001
20
-3.4515918503937009
11
5.6356299212598424
21
-3.4519685039370076
0
LINE
8
BLACK
6
CONTINUOUS
10
5.6356299212598424
20
-3.4519685039370076
11
5.6356299212598424
21
-3.5858267716535432
0
LINE
8
BLACK
6
CONTINUOUS
10
5.6356299212598424
20
-3.5858267716535432
11
5.6355550000000001
21
-3.5862034251968504
0
LINE
8
BLACK
6
CONTINUOUS
10
5.6355550000000001
20
-3.5862034251968504
11
5.6350223228346454
21
-3.5867361023622046
0
LINE
8
BLACK
6
CONTINUOUS
10
5.6350223228346454
20
-3.5867361023622046
11
5.6346456692913387
21
-3.586811023622047
0
LINE
8
BLACK
6
CONTINUOUS
10
5.6346456692913387
20
-3.586811023622047
11
5.55748031496063
21
-3.586811023622047
0
LINE
8
BLACK
6
CONTINUOUS
10
5.55748031496063
20
-3.586811023622047
11
5.5571036614173224
21
-3.5867361023622046
0
LINE
8
BLACK
6
CONTINUOUS
10
5.5571036614173224
20
-3.5867361023622046
11
5.5565709842519686
21
-3.5862034251968504
0
LINE
8
BLACK
6
CONTINUOUS
10
5.5565709842519686
20
-3.5862034251968504
11
5.5564960629921263
21
-3.5858267716535432
0
LINE
8
BLACK
6
CONTINUOUS
10
5.5564960629921263
20
-3.5858267716535432
11
5.5564960629921263
21
-3.4519685039370076
0
LINE
8
BLACK
6
CONTINUOUS
10
5.5564960629921263
20
-3.4519685039370076
11
5.5565709842519686
21
-3.4515918503937009
0
LINE
8
BLACK
6
CONTINUOUS
10
5.5565709842519686
20
-3.4515918503937009
11
5.5571036614173224
21
-3.4510591732283462
0
LINE
8
BLACK
6
CONTINUOUS
10
5.5571036614173224
20
-3.4510591732283462
11
5.55748031496063
21
-3.4509842519685039
0
LINE
8
BLACK
6
CONTINUOUS
10
5.55748031496063
20
-3.4509842519685039
11
5.6346456692913387
21
-3.4509842519685039
0
LINE
8
BLACK
6
CONTINUOUS
10
5.6346456692913387
20
-3.4509842519685039
11
5.6350223228346454
21
-3.4510591732283462
0
LINE
8
BLACK
6
CONTINUOUS
10
5.5584645669291337
20
-3.4529527559055118
11
5.5584645669291337
21
-3.5848425196850391
0
LINE
8
BLACK
6
CONTINUOUS
10
5.5584645669291337
20
-3.5848425196850391
11
5.6336614173228341
21
-3.5848425196850391
0
LINE
8
BLACK
6
CONTINUOUS
10
5.6336614173228341
20
-3.5848425196850391
11
5.6336614173228341
21
-3.4529527559055118
0
LINE
8
BLACK
6
CONTINUOUS
10
5.6336614173228341
20
-3.4529527559055118
11
5.5584645669291337
21
-3.4529527559055118
0
CIRCLE
8
BLACK
10
6.15511811023622
20
-3.9307086614173228
40
0.0068897637795276
0
CIRCLE
8
BLACK
10
4.5551181102362204
20
-3.9307086614173228
40
0.0068897637795276
0
CIRCLE
8
BLACK
10
4.5551181102362204
20
-4.7307086614173226
40
0.0068897637795276
0
CIRCLE
8
BLACK
10
6.15511811023622
20
-4.7307086614173226
40
0.0068897637795276
  0
ENDSEC
  0
EOF
