  0
SECTION
  2
HEADER
  9
$ANGBASE
  50
0.0
  9
$ANGDIR
  70
1
  9
$MEASUREMENT
  70
0
  0
ENDSEC
  0
SECTION
  2
TABLES
  0
TABLE
  2
LTYPE
  70
4
  0
LTYPE
  5
40F
  2
CONTINUOUS
  70
0
  3
Solid line
  72
65
  73
0
  40
0.0
  0
LTYPE
  5
410
  2
DASHDOT
 70
0
  3
Dash Dot ____ _ ____ _
 72
65
 73
4
 40
2.0
 49
1.25
 49
-0.25
 49
0.25
 49
-0.25
  0
LTYPE
  5
411
  2
DASHED
 70
0
  3
Dashed __ __ __ __ __
 72
65
 73
2
 40
0.75
 49
0.5
 49
-0.25
  0
LTYPE
  5
43B
  2
DOTTED
 70
0
  3
Dotted .  .  .  .
 72
65
 73
2
 40
0.2
 49
0.0
 49
-0.2
  0
ENDTAB
  0
TABLE
  2
STYLE
  70
4
  0
STYLE
  2
KICAD
  70
0
  40
0
  41
1
  42
1
  50
0
  71
0
  3
isocp.shx
  0
STYLE
  2
KICADB
  70
0
  40
0
  41
1
  42
1
  50
0
  71
0
  3
isocp.shx
  0
STYLE
  2
KICADI
  70
0
  40
0
  41
1
  42
1
  50
15
  71
0
  3
isocp.shx
  0
STYLE
  2
KICADBI
  70
0
  40
0
  41
1
  42
1
  50
15
  71
0
  3
isocp.shx
  0
ENDTAB
  0
TABLE
  2
LAYER
  70
1
  0
LAYER
  2
BLACK
  70
0
  62
7
  6
CONTINUOUS
  0
ENDTAB
  0
ENDSEC
  0
SECTION
  2
ENTITIES
0
LINE
8
BLACK
6
CONTINUOUS
10
4.5747731889763781
20
-4.6192392913385829
11
4.5875810629921263
21
-4.6222748031496064
0
LINE
8
BLACK
6
CONTINUOUS
10
4.5875810629921263
20
-4.6222748031496064
11
4.599949960629921
21
-4.6267767322834645
0
LINE
8
BLACK
6
CONTINUOUS
10
4.599949960629921
20
-4.6267767322834645
11
4.6117125984251963
21
-4.6326841338582678
0
LINE
8
BLACK
6
CONTINUOUS
10
4.6117125984251963
20
-4.6326841338582678
11
4.6227098818897634
21
-4.6399171653543307
0
LINE
8
BLACK
6
CONTINUOUS
10
4.6227098818897634
20
-4.6399171653543307
11
4.6327931102362205
21
-4.648377992125984
0
LINE
8
BLACK
6
CONTINUOUS
10
4.6327931102362205
20
-4.648377992125984
11
4.6418259055118112
21
-4.6579522047244097
0
LINE
8
BLACK
6
CONTINUOUS
10
4.6418259055118112
20
-4.6579522047244097
11
4.6496861023622049
21
-4.6685103149606295
0
LINE
8
BLACK
6
CONTINUOUS
10
4.6496861023622049
20
-4.6685103149606295
11
4.6562674803149608
21
-4.6799095275590554
0
LINE
8
BLACK
6
CONTINUOUS
10
4.6562674803149608
20
-4.6799095275590554
11
4.6614809448818892
21
-4.6919957480314958
0
LINE
8
BLACK
6
CONTINUOUS
10
4.6614809448818892
20
-4.6919957480314958
11
4.6652560629921256
21
-4.704605472440945
0
LINE
8
BLACK
6
CONTINUOUS
10
4.6652560629921256
20
-4.704605472440945
11
4.667541732283464
21
-4.7175682283464564
0
LINE
8
BLACK
6
CONTINUOUS
10
4.667541732283464
20
-4.7175682283464564
11
4.6683070866141732
21
-4.7307086614173226
0
LINE
8
BLACK
6
CONTINUOUS
10
4.6683070866141732
20
-4.7307086614173226
11
4.667541732283464
21
-4.7438490944881888
0
LINE
8
BLACK
6
CONTINUOUS
10
4.667541732283464
20
-4.7438490944881888
11
4.6652560629921256
21
-4.7568118503937002
0
LINE
8
BLACK
6
CONTINUOUS
10
4.6652560629921256
20
-4.7568118503937002
11
4.6614809448818892
21
-4.7694215748031494
0
LINE
8
BLACK
6
CONTINUOUS
10
4.6614809448818892
20
-4.7694215748031494
11
4.6562674803149608
21
-4.7815077952755907
0
LINE
8
BLACK
6
CONTINUOUS
10
4.6562674803149608
20
-4.7815077952755907
11
4.6496861023622049
21
-4.7929070078740157
0
LINE
8
BLACK
6
CONTINUOUS
10
4.6496861023622049
20
-4.7929070078740157
11
4.6418259055118112
21
-4.8034651181102364
0
LINE
8
BLACK
6
CONTINUOUS
10
4.6418259055118112
20
-4.8034651181102364
11
4.6327931102362205
21
-4.8130393307086612
0
LINE
8
BLACK
6
CONTINUOUS
10
4.6327931102362205
20
-4.8130393307086612
11
4.6227098818897634
21
-4.8215001574803145
0
LINE
8
BLACK
6
CONTINUOUS
10
4.6227098818897634
20
-4.8215001574803145
11
4.6117125984251963
21
-4.8287331889763783
0
LINE
8
BLACK
6
CONTINUOUS
10
4.6117125984251963
20
-4.8287331889763783
11
4.599949960629921
21
-4.8346405905511807
0
LINE
8
BLACK
6
CONTINUOUS
10
4.599949960629921
20
-4.8346405905511807
11
4.5875810629921263
21
-4.8391425196850388
0
LINE
8
BLACK
6
CONTINUOUS
10
4.5875810629921263
20
-4.8391425196850388
11
4.5747731889763781
21
-4.8421780314960632
0
LINE
8
BLACK
6
CONTINUOUS
10
4.5747731889763781
20
-4.8421780314960632
11
4.5616994488188976
21
-4.8437061417322838
0
LINE
8
BLACK
6
CONTINUOUS
10
4.5616994488188976
20
-4.8437061417322838
11
4.5485367716535432
21
-4.8437061417322838
0
LINE
8
BLACK
6
CONTINUOUS
10
4.5485367716535432
20
-4.8437061417322838
11
4.5354630314960627
21
-4.8421780314960632
0
LINE
8
BLACK
6
CONTINUOUS
10
4.5354630314960627
20
-4.8421780314960632
11
4.5226551574803144
21
-4.8391425196850388
0
LINE
8
BLACK
6
CONTINUOUS
10
4.5226551574803144
20
-4.8391425196850388
11
4.5102862598425197
21
-4.8346405905511807
0
LINE
8
BLACK
6
CONTINUOUS
10
4.5102862598425197
20
-4.8346405905511807
11
4.4985236220472444
21
-4.8287331889763783
0
LINE
8
BLACK
6
CONTINUOUS
10
4.4985236220472444
20
-4.8287331889763783
11
4.4875263385826774
21
-4.8215001574803145
0
LINE
8
BLACK
6
CONTINUOUS
10
4.4875263385826774
20
-4.8215001574803145
11
4.4774431102362202
21
-4.8130393307086612
0
LINE
8
BLACK
6
CONTINUOUS
10
4.4774431102362202
20
-4.8130393307086612
11
4.4684103149606296
21
-4.8034651181102364
0
LINE
8
BLACK
6
CONTINUOUS
10
4.4684103149606296
20
-4.8034651181102364
11
4.4605501181102358
21
-4.7929070078740157
0
LINE
8
BLACK
6
CONTINUOUS
10
4.4605501181102358
20
-4.7929070078740157
11
4.4539687401574799
21
-4.7815077952755907
0
LINE
8
BLACK
6
CONTINUOUS
10
4.4539687401574799
20
-4.7815077952755907
11
4.4487552755905515
21
-4.7694215748031494
0
LINE
8
BLACK
6
CONTINUOUS
10
4.4487552755905515
20
-4.7694215748031494
11
4.4449801574803152
21
-4.7568118503937002
0
LINE
8
BLACK
6
CONTINUOUS
10
4.4449801574803152
20
-4.7568118503937002
11
4.4426944881889767
21
-4.7438490944881888
0
LINE
8
BLACK
6
CONTINUOUS
10
4.4426944881889767
20
-4.7438490944881888
11
4.4419291338582676
21
-4.7307086614173226
0
LINE
8
BLACK
6
CONTINUOUS
10
4.4419291338582676
20
-4.7307086614173226
11
4.4426944881889767
21
-4.7175682283464564
0
LINE
8
BLACK
6
CONTINUOUS
10
4.4426944881889767
20
-4.7175682283464564
11
4.4449801574803152
21
-4.704605472440945
0
LINE
8
BLACK
6
CONTINUOUS
10
4.4449801574803152
20
-4.704605472440945
11
4.4487552755905515
21
-4.6919957480314958
0
LINE
8
BLACK
6
CONTINUOUS
10
4.4487552755905515
20
-4.6919957480314958
11
4.4539687401574799
21
-4.6799095275590554
0
LINE
8
BLACK
6
CONTINUOUS
10
4.4539687401574799
20
-4.6799095275590554
11
4.4605501181102358
21
-4.6685103149606295
0
LINE
8
BLACK
6
CONTINUOUS
10
4.4605501181102358
20
-4.6685103149606295
11
4.4684103149606296
21
-4.6579522047244097
0
LINE
8
BLACK
6
CONTINUOUS
10
4.4684103149606296
20
-4.6579522047244097
11
4.4774431102362202
21
-4.648377992125984
0
LINE
8
BLACK
6
CONTINUOUS
10
4.4774431102362202
20
-4.648377992125984
11
4.4875263385826774
21
-4.6399171653543307
0
LINE
8
BLACK
6
CONTINUOUS
10
4.4875263385826774
20
-4.6399171653543307
11
4.4985236220472444
21
-4.6326841338582678
0
LINE
8
BLACK
6
CONTINUOUS
10
4.4985236220472444
20
-4.6326841338582678
11
4.5102862598425197
21
-4.6267767322834645
0
LINE
8
BLACK
6
CONTINUOUS
10
4.5102862598425197
20
-4.6267767322834645
11
4.5226551574803144
21
-4.6222748031496064
0
LINE
8
BLACK
6
CONTINUOUS
10
4.5226551574803144
20
-4.6222748031496064
11
4.5354630314960627
21
-4.6192392913385829
0
LINE
8
BLACK
6
CONTINUOUS
10
4.5354630314960627
20
-4.6192392913385829
11
4.5485367716535432
21
-4.6177111811023623
0
LINE
8
BLACK
6
CONTINUOUS
10
4.5485367716535432
20
-4.6177111811023623
11
4.5616994488188976
21
-4.6177111811023623
0
LINE
8
BLACK
6
CONTINUOUS
10
4.5616994488188976
20
-4.6177111811023623
11
4.5747731889763781
21
-4.6192392913385829
0
LINE
8
BLACK
6
CONTINUOUS
10
4.4484222047244097
20
-4.7436638976377949
11
4.4507616929133853
21
-4.7564301968503937
0
LINE
8
BLACK
6
CONTINUOUS
10
4.4507616929133853
20
-4.7564301968503937
11
4.4546229527559058
21
-4.7688214566929137
0
LINE
8
BLACK
6
CONTINUOUS
10
4.4546229527559058
20
-4.7688214566929137
11
4.4599496850393701
21
-4.7806568897637796
0
LINE
8
BLACK
6
CONTINUOUS
10
4.4599496850393701
20
-4.7806568897637796
11
4.4666641732283461
21
-4.791764015748031
0
LINE
8
BLACK
6
CONTINUOUS
10
4.4666641732283461
20
-4.791764015748031
11
4.474668503937008
21
-4.8019807874015745
0
LINE
8
BLACK
6
CONTINUOUS
10
4.474668503937008
20
-4.8019807874015745
11
4.4838459842519685
21
-4.811158267716535
0
LINE
8
BLACK
6
CONTINUOUS
10
4.4838459842519685
20
-4.811158267716535
11
4.494062755905512
21
-4.8191625984251969
0
LINE
8
BLACK
6
CONTINUOUS
10
4.494062755905512
20
-4.8191625984251969
11
4.5051698818897634
21
-4.8258770866141729
0
LINE
8
BLACK
6
CONTINUOUS
10
4.5051698818897634
20
-4.8258770866141729
11
4.5170053149606302
21
-4.8312038188976381
0
LINE
8
BLACK
6
CONTINUOUS
10
4.5170053149606302
20
-4.8312038188976381
11
4.5293965748031493
21
-4.8350650787401577
0
LINE
8
BLACK
6
CONTINUOUS
10
4.5293965748031493
20
-4.8350650787401577
11
4.542162874015748
21
-4.8374045669291341
0
LINE
8
BLACK
6
CONTINUOUS
10
4.542162874015748
20
-4.8374045669291341
11
4.5551181102362204
21
-4.838188228346457
0
LINE
8
BLACK
6
CONTINUOUS
10
4.5551181102362204
20
-4.838188228346457
11
4.5680733464566927
21
-4.8374045669291341
0
LINE
8
BLACK
6
CONTINUOUS
10
4.5680733464566927
20
-4.8374045669291341
11
4.5808396456692915
21
-4.8350650787401577
0
LINE
8
BLACK
6
CONTINUOUS
10
4.5808396456692915
20
-4.8350650787401577
11
4.5932309055118106
21
-4.8312038188976381
0
LINE
8
BLACK
6
CONTINUOUS
10
4.5932309055118106
20
-4.8312038188976381
11
4.6050663385826773
21
-4.8258770866141729
0
LINE
8
BLACK
6
CONTINUOUS
10
4.6050663385826773
20
-4.8258770866141729
11
4.6161734645669288
21
-4.8191625984251969
0
LINE
8
BLACK
6
CONTINUOUS
10
4.6161734645669288
20
-4.8191625984251969
11
4.6263902362204723
21
-4.811158267716535
0
LINE
8
BLACK
6
CONTINUOUS
10
4.6263902362204723
20
-4.811158267716535
11
4.6355677165354328
21
-4.8019807874015745
0
LINE
8
BLACK
6
CONTINUOUS
10
4.6355677165354328
20
-4.8019807874015745
11
4.6435720472440947
21
-4.791764015748031
0
LINE
8
BLACK
6
CONTINUOUS
10
4.6435720472440947
20
-4.791764015748031
11
4.6502865354330707
21
-4.7806568897637796
0
LINE
8
BLACK
6
CONTINUOUS
10
4.6502865354330707
20
-4.7806568897637796
11
4.6556132677165349
21
-4.7688214566929137
0
LINE
8
BLACK
6
CONTINUOUS
10
4.6556132677165349
20
-4.7688214566929137
11
4.6594745275590554
21
-4.7564301968503937
0
LINE
8
BLACK
6
CONTINUOUS
10
4.6594745275590554
20
-4.7564301968503937
11
4.661814015748031
21
-4.7436638976377949
0
LINE
8
BLACK
6
CONTINUOUS
10
4.661814015748031
20
-4.7436638976377949
11
4.6625976771653539
21
-4.7307086614173226
0
LINE
8
BLACK
6
CONTINUOUS
10
4.6625976771653539
20
-4.7307086614173226
11
4.661814015748031
21
-4.7177534251968503
0
LINE
8
BLACK
6
CONTINUOUS
10
4.661814015748031
20
-4.7177534251968503
11
4.6594745275590554
21
-4.7049871259842515
0
LINE
8
BLACK
6
CONTINUOUS
10
4.6594745275590554
20
-4.7049871259842515
11
4.6556132677165349
21
-4.6925958661417324
0
LINE
8
BLACK
6
CONTINUOUS
10
4.6556132677165349
20
-4.6925958661417324
11
4.6502865354330707
21
-4.6807604330708656
0
LINE
8
BLACK
6
CONTINUOUS
10
4.6502865354330707
20
-4.6807604330708656
11
4.6435720472440947
21
-4.6696533070866142
0
LINE
8
BLACK
6
CONTINUOUS
10
4.6435720472440947
20
-4.6696533070866142
11
4.6355677165354328
21
-4.6594365354330707
0
LINE
8
BLACK
6
CONTINUOUS
10
4.6355677165354328
20
-4.6594365354330707
11
4.6263902362204723
21
-4.6502590551181102
0
LINE
8
BLACK
6
CONTINUOUS
10
4.6263902362204723
20
-4.6502590551181102
11
4.6161734645669288
21
-4.6422547244094483
0
LINE
8
BLACK
6
CONTINUOUS
10
4.6161734645669288
20
-4.6422547244094483
11
4.6050663385826773
21
-4.6355402362204723
0
LINE
8
BLACK
6
CONTINUOUS
10
4.6050663385826773
20
-4.6355402362204723
11
4.5932309055118106
21
-4.630213503937008
0
LINE
8
BLACK
6
CONTINUOUS
10
4.5932309055118106
20
-4.630213503937008
11
4.5808396456692915
21
-4.6263522440944884
0
LINE
8
BLACK
6
CONTINUOUS
10
4.5808396456692915
20
-4.6263522440944884
11
4.5680733464566927
21
-4.624012755905512
0
LINE
8
BLACK
6
CONTINUOUS
10
4.5680733464566927
20
-4.624012755905512
11
4.5551181102362204
21
-4.6232290944881891
0
LINE
8
BLACK
6
CONTINUOUS
10
4.5551181102362204
20
-4.6232290944881891
11
4.542162874015748
21
-4.624012755905512
0
LINE
8
BLACK
6
CONTINUOUS
10
4.542162874015748
20
-4.624012755905512
11
4.5293965748031493
21
-4.6263522440944884
0
LINE
8
BLACK
6
CONTINUOUS
10
4.5293965748031493
20
-4.6263522440944884
11
4.5170053149606302
21
-4.630213503937008
0
LINE
8
BLACK
6
CONTINUOUS
10
4.5170053149606302
20
-4.630213503937008
11
4.5051698818897634
21
-4.6355402362204723
0
LINE
8
BLACK
6
CONTINUOUS
10
4.5051698818897634
20
-4.6355402362204723
11
4.494062755905512
21
-4.6422547244094483
0
LINE
8
BLACK
6
CONTINUOUS
10
4.494062755905512
20
-4.6422547244094483
11
4.4838459842519685
21
-4.6502590551181102
0
LINE
8
BLACK
6
CONTINUOUS
10
4.4838459842519685
20
-4.6502590551181102
11
4.474668503937008
21
-4.6594365354330707
0
LINE
8
BLACK
6
CONTINUOUS
10
4.474668503937008
20
-4.6594365354330707
11
4.4666641732283461
21
-4.6696533070866142
0
LINE
8
BLACK
6
CONTINUOUS
10
4.4666641732283461
20
-4.6696533070866142
11
4.4599496850393701
21
-4.6807604330708656
0
LINE
8
BLACK
6
CONTINUOUS
10
4.4599496850393701
20
-4.6807604330708656
11
4.4546229527559058
21
-4.6925958661417324
0
LINE
8
BLACK
6
CONTINUOUS
10
4.4546229527559058
20
-4.6925958661417324
11
4.4507616929133853
21
-4.7049871259842515
0
LINE
8
BLACK
6
CONTINUOUS
10
4.4507616929133853
20
-4.7049871259842515
11
4.4484222047244097
21
-4.7177534251968503
0
LINE
8
BLACK
6
CONTINUOUS
10
4.4484222047244097
20
-4.7177534251968503
11
4.4476385433070869
21
-4.7307086614173226
0
LINE
8
BLACK
6
CONTINUOUS
10
4.4476385433070869
20
-4.7307086614173226
11
4.4484222047244097
21
-4.7436638976377949
0
LINE
8
BLACK
6
CONTINUOUS
10
6.1747731889763777
20
-4.6192392913385829
11
6.187581062992126
21
-4.6222748031496064
0
LINE
8
BLACK
6
CONTINUOUS
10
6.187581062992126
20
-4.6222748031496064
11
6.1999499606299215
21
-4.6267767322834645
0
LINE
8
BLACK
6
CONTINUOUS
10
6.1999499606299215
20
-4.6267767322834645
11
6.2117125984251969
21
-4.6326841338582678
0
LINE
8
BLACK
6
CONTINUOUS
10
6.2117125984251969
20
-4.6326841338582678
11
6.2227098818897639
21
-4.6399171653543307
0
LINE
8
BLACK
6
CONTINUOUS
10
6.2227098818897639
20
-4.6399171653543307
11
6.2327931102362202
21
-4.648377992125984
0
LINE
8
BLACK
6
CONTINUOUS
10
6.2327931102362202
20
-4.648377992125984
11
6.2418259055118108
21
-4.6579522047244097
0
LINE
8
BLACK
6
CONTINUOUS
10
6.2418259055118108
20
-4.6579522047244097
11
6.2496861023622046
21
-4.6685103149606295
0
LINE
8
BLACK
6
CONTINUOUS
10
6.2496861023622046
20
-4.6685103149606295
11
6.2562674803149605
21
-4.6799095275590554
0
LINE
8
BLACK
6
CONTINUOUS
10
6.2562674803149605
20
-4.6799095275590554
11
6.2614809448818898
21
-4.6919957480314958
0
LINE
8
BLACK
6
CONTINUOUS
10
6.2614809448818898
20
-4.6919957480314958
11
6.2652560629921261
21
-4.704605472440945
0
LINE
8
BLACK
6
CONTINUOUS
10
6.2652560629921261
20
-4.704605472440945
11
6.2675417322834646
21
-4.7175682283464564
0
LINE
8
BLACK
6
CONTINUOUS
10
6.2675417322834646
20
-4.7175682283464564
11
6.2683070866141728
21
-4.7307086614173226
0
LINE
8
BLACK
6
CONTINUOUS
10
6.2683070866141728
20
-4.7307086614173226
11
6.2675417322834646
21
-4.7438490944881888
0
LINE
8
BLACK
6
CONTINUOUS
10
6.2675417322834646
20
-4.7438490944881888
11
6.2652560629921261
21
-4.7568118503937002
0
LINE
8
BLACK
6
CONTINUOUS
10
6.2652560629921261
20
-4.7568118503937002
11
6.2614809448818898
21
-4.7694215748031494
0
LINE
8
BLACK
6
CONTINUOUS
10
6.2614809448818898
20
-4.7694215748031494
11
6.2562674803149605
21
-4.7815077952755907
0
LINE
8
BLACK
6
CONTINUOUS
10
6.2562674803149605
20
-4.7815077952755907
11
6.2496861023622046
21
-4.7929070078740157
0
LINE
8
BLACK
6
CONTINUOUS
10
6.2496861023622046
20
-4.7929070078740157
11
6.2418259055118108
21
-4.8034651181102364
0
LINE
8
BLACK
6
CONTINUOUS
10
6.2418259055118108
20
-4.8034651181102364
11
6.2327931102362202
21
-4.8130393307086612
0
LINE
8
BLACK
6
CONTINUOUS
10
6.2327931102362202
20
-4.8130393307086612
11
6.2227098818897639
21
-4.8215001574803145
0
LINE
8
BLACK
6
CONTINUOUS
10
6.2227098818897639
20
-4.8215001574803145
11
6.2117125984251969
21
-4.8287331889763783
0
LINE
8
BLACK
6
CONTINUOUS
10
6.2117125984251969
20
-4.8287331889763783
11
6.1999499606299215
21
-4.8346405905511807
0
LINE
8
BLACK
6
CONTINUOUS
10
6.1999499606299215
20
-4.8346405905511807
11
6.187581062992126
21
-4.8391425196850388
0
LINE
8
BLACK
6
CONTINUOUS
10
6.187581062992126
20
-4.8391425196850388
11
6.1747731889763777
21
-4.8421780314960632
0
LINE
8
BLACK
6
CONTINUOUS
10
6.1747731889763777
20
-4.8421780314960632
11
6.1616994488188972
21
-4.8437061417322838
0
LINE
8
BLACK
6
CONTINUOUS
10
6.1616994488188972
20
-4.8437061417322838
11
6.1485367716535428
21
-4.8437061417322838
0
LINE
8
BLACK
6
CONTINUOUS
10
6.1485367716535428
20
-4.8437061417322838
11
6.1354630314960632
21
-4.8421780314960632
0
LINE
8
BLACK
6
CONTINUOUS
10
6.1354630314960632
20
-4.8421780314960632
11
6.122655157480315
21
-4.8391425196850388
0
LINE
8
BLACK
6
CONTINUOUS
10
6.122655157480315
20
-4.8391425196850388
11
6.1102862598425194
21
-4.8346405905511807
0
LINE
8
BLACK
6
CONTINUOUS
10
6.1102862598425194
20
-4.8346405905511807
11
6.0985236220472441
21
-4.8287331889763783
0
LINE
8
BLACK
6
CONTINUOUS
10
6.0985236220472441
20
-4.8287331889763783
11
6.087526338582677
21
-4.8215001574803145
0
LINE
8
BLACK
6
CONTINUOUS
10
6.087526338582677
20
-4.8215001574803145
11
6.0774431102362207
21
-4.8130393307086612
0
LINE
8
BLACK
6
CONTINUOUS
10
6.0774431102362207
20
-4.8130393307086612
11
6.0684103149606301
21
-4.8034651181102364
0
LINE
8
BLACK
6
CONTINUOUS
10
6.0684103149606301
20
-4.8034651181102364
11
6.0605501181102364
21
-4.7929070078740157
0
LINE
8
BLACK
6
CONTINUOUS
10
6.0605501181102364
20
-4.7929070078740157
11
6.0539687401574804
21
-4.7815077952755907
0
LINE
8
BLACK
6
CONTINUOUS
10
6.0539687401574804
20
-4.7815077952755907
11
6.0487552755905512
21
-4.7694215748031494
0
LINE
8
BLACK
6
CONTINUOUS
10
6.0487552755905512
20
-4.7694215748031494
11
6.0449801574803148
21
-4.7568118503937002
0
LINE
8
BLACK
6
CONTINUOUS
10
6.0449801574803148
20
-4.7568118503937002
11
6.0426944881889764
21
-4.7438490944881888
0
LINE
8
BLACK
6
CONTINUOUS
10
6.0426944881889764
20
-4.7438490944881888
11
6.0419291338582672
21
-4.7307086614173226
0
LINE
8
BLACK
6
CONTINUOUS
10
6.0419291338582672
20
-4.7307086614173226
11
6.0426944881889764
21
-4.7175682283464564
0
LINE
8
BLACK
6
CONTINUOUS
10
6.0426944881889764
20
-4.7175682283464564
11
6.0449801574803148
21
-4.704605472440945
0
LINE
8
BLACK
6
CONTINUOUS
10
6.0449801574803148
20
-4.704605472440945
11
6.0487552755905512
21
-4.6919957480314958
0
LINE
8
BLACK
6
CONTINUOUS
10
6.0487552755905512
20
-4.6919957480314958
11
6.0539687401574804
21
-4.6799095275590554
0
LINE
8
BLACK
6
CONTINUOUS
10
6.0539687401574804
20
-4.6799095275590554
11
6.0605501181102364
21
-4.6685103149606295
0
LINE
8
BLACK
6
CONTINUOUS
10
6.0605501181102364
20
-4.6685103149606295
11
6.0684103149606301
21
-4.6579522047244097
0
LINE
8
BLACK
6
CONTINUOUS
10
6.0684103149606301
20
-4.6579522047244097
11
6.0774431102362207
21
-4.648377992125984
0
LINE
8
BLACK
6
CONTINUOUS
10
6.0774431102362207
20
-4.648377992125984
11
6.087526338582677
21
-4.6399171653543307
0
LINE
8
BLACK
6
CONTINUOUS
10
6.087526338582677
20
-4.6399171653543307
11
6.0985236220472441
21
-4.6326841338582678
0
LINE
8
BLACK
6
CONTINUOUS
10
6.0985236220472441
20
-4.6326841338582678
11
6.1102862598425194
21
-4.6267767322834645
0
LINE
8
BLACK
6
CONTINUOUS
10
6.1102862598425194
20
-4.6267767322834645
11
6.122655157480315
21
-4.6222748031496064
0
LINE
8
BLACK
6
CONTINUOUS
10
6.122655157480315
20
-4.6222748031496064
11
6.1354630314960632
21
-4.6192392913385829
0
LINE
8
BLACK
6
CONTINUOUS
10
6.1354630314960632
20
-4.6192392913385829
11
6.1485367716535428
21
-4.6177111811023623
0
LINE
8
BLACK
6
CONTINUOUS
10
6.1485367716535428
20
-4.6177111811023623
11
6.1616994488188972
21
-4.6177111811023623
0
LINE
8
BLACK
6
CONTINUOUS
10
6.1616994488188972
20
-4.6177111811023623
11
6.1747731889763777
21
-4.6192392913385829
0
LINE
8
BLACK
6
CONTINUOUS
10
6.0484222047244094
20
-4.7436638976377949
11
6.0507616929133858
21
-4.7564301968503937
0
LINE
8
BLACK
6
CONTINUOUS
10
6.0507616929133858
20
-4.7564301968503937
11
6.0546229527559055
21
-4.7688214566929137
0
LINE
8
BLACK
6
CONTINUOUS
10
6.0546229527559055
20
-4.7688214566929137
11
6.0599496850393697
21
-4.7806568897637796
0
LINE
8
BLACK
6
CONTINUOUS
10
6.0599496850393697
20
-4.7806568897637796
11
6.0666641732283466
21
-4.791764015748031
0
LINE
8
BLACK
6
CONTINUOUS
10
6.0666641732283466
20
-4.791764015748031
11
6.0746685039370076
21
-4.8019807874015745
0
LINE
8
BLACK
6
CONTINUOUS
10
6.0746685039370076
20
-4.8019807874015745
11
6.0838459842519681
21
-4.811158267716535
0
LINE
8
BLACK
6
CONTINUOUS
10
6.0838459842519681
20
-4.811158267716535
11
6.0940627559055116
21
-4.8191625984251969
0
LINE
8
BLACK
6
CONTINUOUS
10
6.0940627559055116
20
-4.8191625984251969
11
6.1051698818897639
21
-4.8258770866141729
0
LINE
8
BLACK
6
CONTINUOUS
10
6.1051698818897639
20
-4.8258770866141729
11
6.1170053149606298
21
-4.8312038188976381
0
LINE
8
BLACK
6
CONTINUOUS
10
6.1170053149606298
20
-4.8312038188976381
11
6.1293965748031498
21
-4.8350650787401577
0
LINE
8
BLACK
6
CONTINUOUS
10
6.1293965748031498
20
-4.8350650787401577
11
6.1421628740157477
21
-4.8374045669291341
0
LINE
8
BLACK
6
CONTINUOUS
10
6.1421628740157477
20
-4.8374045669291341
11
6.15511811023622
21
-4.838188228346457
0
LINE
8
BLACK
6
CONTINUOUS
10
6.15511811023622
20
-4.838188228346457
11
6.1680733464566924
21
-4.8374045669291341
0
LINE
8
BLACK
6
CONTINUOUS
10
6.1680733464566924
20
-4.8374045669291341
11
6.1808396456692911
21
-4.8350650787401577
0
LINE
8
BLACK
6
CONTINUOUS
10
6.1808396456692911
20
-4.8350650787401577
11
6.1932309055118111
21
-4.8312038188976381
0
LINE
8
BLACK
6
CONTINUOUS
10
6.1932309055118111
20
-4.8312038188976381
11
6.205066338582677
21
-4.8258770866141729
0
LINE
8
BLACK
6
CONTINUOUS
10
6.205066338582677
20
-4.8258770866141729
11
6.2161734645669293
21
-4.8191625984251969
0
LINE
8
BLACK
6
CONTINUOUS
10
6.2161734645669293
20
-4.8191625984251969
11
6.2263902362204719
21
-4.811158267716535
0
LINE
8
BLACK
6
CONTINUOUS
10
6.2263902362204719
20
-4.811158267716535
11
6.2355677165354333
21
-4.8019807874015745
0
LINE
8
BLACK
6
CONTINUOUS
10
6.2355677165354333
20
-4.8019807874015745
11
6.2435720472440943
21
-4.791764015748031
0
LINE
8
BLACK
6
CONTINUOUS
10
6.2435720472440943
20
-4.791764015748031
11
6.2502865354330703
21
-4.7806568897637796
0
LINE
8
BLACK
6
CONTINUOUS
10
6.2502865354330703
20
-4.7806568897637796
11
6.2556132677165355
21
-4.7688214566929137
0
LINE
8
BLACK
6
CONTINUOUS
10
6.2556132677165355
20
-4.7688214566929137
11
6.2594745275590551
21
-4.7564301968503937
0
LINE
8
BLACK
6
CONTINUOUS
10
6.2594745275590551
20
-4.7564301968503937
11
6.2618140157480315
21
-4.7436638976377949
0
LINE
8
BLACK
6
CONTINUOUS
10
6.2618140157480315
20
-4.7436638976377949
11
6.2625976771653544
21
-4.7307086614173226
0
LINE
8
BLACK
6
CONTINUOUS
10
6.2625976771653544
20
-4.7307086614173226
11
6.2618140157480315
21
-4.7177534251968503
0
LINE
8
BLACK
6
CONTINUOUS
10
6.2618140157480315
20
-4.7177534251968503
11
6.2594745275590551
21
-4.7049871259842515
0
LINE
8
BLACK
6
CONTINUOUS
10
6.2594745275590551
20
-4.7049871259842515
11
6.2556132677165355
21
-4.6925958661417324
0
LINE
8
BLACK
6
CONTINUOUS
10
6.2556132677165355
20
-4.6925958661417324
11
6.2502865354330703
21
-4.6807604330708656
0
LINE
8
BLACK
6
CONTINUOUS
10
6.2502865354330703
20
-4.6807604330708656
11
6.2435720472440943
21
-4.6696533070866142
0
LINE
8
BLACK
6
CONTINUOUS
10
6.2435720472440943
20
-4.6696533070866142
11
6.2355677165354333
21
-4.6594365354330707
0
LINE
8
BLACK
6
CONTINUOUS
10
6.2355677165354333
20
-4.6594365354330707
11
6.2263902362204719
21
-4.6502590551181102
0
LINE
8
BLACK
6
CONTINUOUS
10
6.2263902362204719
20
-4.6502590551181102
11
6.2161734645669293
21
-4.6422547244094483
0
LINE
8
BLACK
6
CONTINUOUS
10
6.2161734645669293
20
-4.6422547244094483
11
6.205066338582677
21
-4.6355402362204723
0
LINE
8
BLACK
6
CONTINUOUS
10
6.205066338582677
20
-4.6355402362204723
11
6.1932309055118111
21
-4.630213503937008
0
LINE
8
BLACK
6
CONTINUOUS
10
6.1932309055118111
20
-4.630213503937008
11
6.1808396456692911
21
-4.6263522440944884
0
LINE
8
BLACK
6
CONTINUOUS
10
6.1808396456692911
20
-4.6263522440944884
11
6.1680733464566924
21
-4.624012755905512
0
LINE
8
BLACK
6
CONTINUOUS
10
6.1680733464566924
20
-4.624012755905512
11
6.15511811023622
21
-4.6232290944881891
0
LINE
8
BLACK
6
CONTINUOUS
10
6.15511811023622
20
-4.6232290944881891
11
6.1421628740157477
21
-4.624012755905512
0
LINE
8
BLACK
6
CONTINUOUS
10
6.1421628740157477
20
-4.624012755905512
11
6.1293965748031498
21
-4.6263522440944884
0
LINE
8
BLACK
6
CONTINUOUS
10
6.1293965748031498
20
-4.6263522440944884
11
6.1170053149606298
21
-4.630213503937008
0
LINE
8
BLACK
6
CONTINUOUS
10
6.1170053149606298
20
-4.630213503937008
11
6.1051698818897639
21
-4.6355402362204723
0
LINE
8
BLACK
6
CONTINUOUS
10
6.1051698818897639
20
-4.6355402362204723
11
6.0940627559055116
21
-4.6422547244094483
0
LINE
8
BLACK
6
CONTINUOUS
10
6.0940627559055116
20
-4.6422547244094483
11
6.0838459842519681
21
-4.6502590551181102
0
LINE
8
BLACK
6
CONTINUOUS
10
6.0838459842519681
20
-4.6502590551181102
11
6.0746685039370076
21
-4.6594365354330707
0
LINE
8
BLACK
6
CONTINUOUS
10
6.0746685039370076
20
-4.6594365354330707
11
6.0666641732283466
21
-4.6696533070866142
0
LINE
8
BLACK
6
CONTINUOUS
10
6.0666641732283466
20
-4.6696533070866142
11
6.0599496850393697
21
-4.6807604330708656
0
LINE
8
BLACK
6
CONTINUOUS
10
6.0599496850393697
20
-4.6807604330708656
11
6.0546229527559055
21
-4.6925958661417324
0
LINE
8
BLACK
6
CONTINUOUS
10
6.0546229527559055
20
-4.6925958661417324
11
6.0507616929133858
21
-4.7049871259842515
0
LINE
8
BLACK
6
CONTINUOUS
10
6.0507616929133858
20
-4.7049871259842515
11
6.0484222047244094
21
-4.7177534251968503
0
LINE
8
BLACK
6
CONTINUOUS
10
6.0484222047244094
20
-4.7177534251968503
11
6.0476385433070865
21
-4.7307086614173226
0
LINE
8
BLACK
6
CONTINUOUS
10
6.0476385433070865
20
-4.7307086614173226
11
6.0484222047244094
21
-4.7436638976377949
0
LINE
8
BLACK
6
CONTINUOUS
10
4.5747731889763781
20
-3.8192392913385826
11
4.5875810629921263
21
-3.8222748031496061
0
LINE
8
BLACK
6
CONTINUOUS
10
4.5875810629921263
20
-3.8222748031496061
11
4.599949960629921
21
-3.8267767322834643
0
LINE
8
BLACK
6
CONTINUOUS
10
4.599949960629921
20
-3.8267767322834643
11
4.6117125984251963
21
-3.8326841338582676
0
LINE
8
BLACK
6
CONTINUOUS
10
4.6117125984251963
20
-3.8326841338582676
11
4.6227098818897634
21
-3.8399171653543305
0
LINE
8
BLACK
6
CONTINUOUS
10
4.6227098818897634
20
-3.8399171653543305
11
4.6327931102362205
21
-3.8483779921259842
0
LINE
8
BLACK
6
CONTINUOUS
10
4.6327931102362205
20
-3.8483779921259842
11
4.6418259055118112
21
-3.8579522047244095
0
LINE
8
BLACK
6
CONTINUOUS
10
4.6418259055118112
20
-3.8579522047244095
11
4.6496861023622049
21
-3.8685103149606297
0
LINE
8
BLACK
6
CONTINUOUS
10
4.6496861023622049
20
-3.8685103149606297
11
4.6562674803149608
21
-3.8799095275590552
0
LINE
8
BLACK
6
CONTINUOUS
10
4.6562674803149608
20
-3.8799095275590552
11
4.6614809448818892
21
-3.8919957480314959
0
LINE
8
BLACK
6
CONTINUOUS
10
4.6614809448818892
20
-3.8919957480314959
11
4.6652560629921256
21
-3.9046054724409447
0
LINE
8
BLACK
6
CONTINUOUS
10
4.6652560629921256
20
-3.9046054724409447
11
4.667541732283464
21
-3.9175682283464566
0
LINE
8
BLACK
6
CONTINUOUS
10
4.667541732283464
20
-3.9175682283464566
11
4.6683070866141732
21
-3.9307086614173228
0
LINE
8
BLACK
6
CONTINUOUS
10
4.6683070866141732
20
-3.9307086614173228
11
4.667541732283464
21
-3.943849094488189
0
LINE
8
BLACK
6
CONTINUOUS
10
4.667541732283464
20
-3.943849094488189
11
4.6652560629921256
21
-3.9568118503937009
0
LINE
8
BLACK
6
CONTINUOUS
10
4.6652560629921256
20
-3.9568118503937009
11
4.6614809448818892
21
-3.9694215748031496
0
LINE
8
BLACK
6
CONTINUOUS
10
4.6614809448818892
20
-3.9694215748031496
11
4.6562674803149608
21
-3.9815077952755904
0
LINE
8
BLACK
6
CONTINUOUS
10
4.6562674803149608
20
-3.9815077952755904
11
4.6496861023622049
21
-3.9929070078740159
0
LINE
8
BLACK
6
CONTINUOUS
10
4.6496861023622049
20
-3.9929070078740159
11
4.6418259055118112
21
-4.0034651181102365
0
LINE
8
BLACK
6
CONTINUOUS
10
4.6418259055118112
20
-4.0034651181102365
11
4.6327931102362205
21
-4.0130393307086614
0
LINE
8
BLACK
6
CONTINUOUS
10
4.6327931102362205
20
-4.0130393307086614
11
4.6227098818897634
21
-4.0215001574803146
0
LINE
8
BLACK
6
CONTINUOUS
10
4.6227098818897634
20
-4.0215001574803146
11
4.6117125984251963
21
-4.0287331889763776
0
LINE
8
BLACK
6
CONTINUOUS
10
4.6117125984251963
20
-4.0287331889763776
11
4.599949960629921
21
-4.0346405905511808
0
LINE
8
BLACK
6
CONTINUOUS
10
4.599949960629921
20
-4.0346405905511808
11
4.5875810629921263
21
-4.039142519685039
0
LINE
8
BLACK
6
CONTINUOUS
10
4.5875810629921263
20
-4.039142519685039
11
4.5747731889763781
21
-4.0421780314960625
0
LINE
8
BLACK
6
CONTINUOUS
10
4.5747731889763781
20
-4.0421780314960625
11
4.5616994488188976
21
-4.043706141732283
0
LINE
8
BLACK
6
CONTINUOUS
10
4.5616994488188976
20
-4.043706141732283
11
4.5485367716535432
21
-4.043706141732283
0
LINE
8
BLACK
6
CONTINUOUS
10
4.5485367716535432
20
-4.043706141732283
11
4.5354630314960627
21
-4.0421780314960625
0
LINE
8
BLACK
6
CONTINUOUS
10
4.5354630314960627
20
-4.0421780314960625
11
4.5226551574803144
21
-4.039142519685039
0
LINE
8
BLACK
6
CONTINUOUS
10
4.5226551574803144
20
-4.039142519685039
11
4.5102862598425197
21
-4.0346405905511808
0
LINE
8
BLACK
6
CONTINUOUS
10
4.5102862598425197
20
-4.0346405905511808
11
4.4985236220472444
21
-4.0287331889763776
0
LINE
8
BLACK
6
CONTINUOUS
10
4.4985236220472444
20
-4.0287331889763776
11
4.4875263385826774
21
-4.0215001574803146
0
LINE
8
BLACK
6
CONTINUOUS
10
4.4875263385826774
20
-4.0215001574803146
11
4.4774431102362202
21
-4.0130393307086614
0
LINE
8
BLACK
6
CONTINUOUS
10
4.4774431102362202
20
-4.0130393307086614
11
4.4684103149606296
21
-4.0034651181102365
0
LINE
8
BLACK
6
CONTINUOUS
10
4.4684103149606296
20
-4.0034651181102365
11
4.4605501181102358
21
-3.9929070078740159
0
LINE
8
BLACK
6
CONTINUOUS
10
4.4605501181102358
20
-3.9929070078740159
11
4.4539687401574799
21
-3.9815077952755904
0
LINE
8
BLACK
6
CONTINUOUS
10
4.4539687401574799
20
-3.9815077952755904
11
4.4487552755905515
21
-3.9694215748031496
0
LINE
8
BLACK
6
CONTINUOUS
10
4.4487552755905515
20
-3.9694215748031496
11
4.4449801574803152
21
-3.9568118503937009
0
LINE
8
BLACK
6
CONTINUOUS
10
4.4449801574803152
20
-3.9568118503937009
11
4.4426944881889767
21
-3.943849094488189
0
LINE
8
BLACK
6
CONTINUOUS
10
4.4426944881889767
20
-3.943849094488189
11
4.4419291338582676
21
-3.9307086614173228
0
LINE
8
BLACK
6
CONTINUOUS
10
4.4419291338582676
20
-3.9307086614173228
11
4.4426944881889767
21
-3.9175682283464566
0
LINE
8
BLACK
6
CONTINUOUS
10
4.4426944881889767
20
-3.9175682283464566
11
4.4449801574803152
21
-3.9046054724409447
0
LINE
8
BLACK
6
CONTINUOUS
10
4.4449801574803152
20
-3.9046054724409447
11
4.4487552755905515
21
-3.8919957480314959
0
LINE
8
BLACK
6
CONTINUOUS
10
4.4487552755905515
20
-3.8919957480314959
11
4.4539687401574799
21
-3.8799095275590552
0
LINE
8
BLACK
6
CONTINUOUS
10
4.4539687401574799
20
-3.8799095275590552
11
4.4605501181102358
21
-3.8685103149606297
0
LINE
8
BLACK
6
CONTINUOUS
10
4.4605501181102358
20
-3.8685103149606297
11
4.4684103149606296
21
-3.8579522047244095
0
LINE
8
BLACK
6
CONTINUOUS
10
4.4684103149606296
20
-3.8579522047244095
11
4.4774431102362202
21
-3.8483779921259842
0
LINE
8
BLACK
6
CONTINUOUS
10
4.4774431102362202
20
-3.8483779921259842
11
4.4875263385826774
21
-3.8399171653543305
0
LINE
8
BLACK
6
CONTINUOUS
10
4.4875263385826774
20
-3.8399171653543305
11
4.4985236220472444
21
-3.8326841338582676
0
LINE
8
BLACK
6
CONTINUOUS
10
4.4985236220472444
20
-3.8326841338582676
11
4.5102862598425197
21
-3.8267767322834643
0
LINE
8
BLACK
6
CONTINUOUS
10
4.5102862598425197
20
-3.8267767322834643
11
4.5226551574803144
21
-3.8222748031496061
0
LINE
8
BLACK
6
CONTINUOUS
10
4.5226551574803144
20
-3.8222748031496061
11
4.5354630314960627
21
-3.8192392913385826
0
LINE
8
BLACK
6
CONTINUOUS
10
4.5354630314960627
20
-3.8192392913385826
11
4.5485367716535432
21
-3.8177111811023621
0
LINE
8
BLACK
6
CONTINUOUS
10
4.5485367716535432
20
-3.8177111811023621
11
4.5616994488188976
21
-3.8177111811023621
0
LINE
8
BLACK
6
CONTINUOUS
10
4.5616994488188976
20
-3.8177111811023621
11
4.5747731889763781
21
-3.8192392913385826
0
LINE
8
BLACK
6
CONTINUOUS
10
4.4484222047244097
20
-3.9436638976377951
11
4.4507616929133853
21
-3.9564301968503934
0
LINE
8
BLACK
6
CONTINUOUS
10
4.4507616929133853
20
-3.9564301968503934
11
4.4546229527559058
21
-3.9688214566929134
0
LINE
8
BLACK
6
CONTINUOUS
10
4.4546229527559058
20
-3.9688214566929134
11
4.4599496850393701
21
-3.9806568897637793
0
LINE
8
BLACK
6
CONTINUOUS
10
4.4599496850393701
20
-3.9806568897637793
11
4.4666641732283461
21
-3.9917640157480312
0
LINE
8
BLACK
6
CONTINUOUS
10
4.4666641732283461
20
-3.9917640157480312
11
4.474668503937008
21
-4.0019807874015747
0
LINE
8
BLACK
6
CONTINUOUS
10
4.474668503937008
20
-4.0019807874015747
11
4.4838459842519685
21
-4.0111582677165352
0
LINE
8
BLACK
6
CONTINUOUS
10
4.4838459842519685
20
-4.0111582677165352
11
4.494062755905512
21
-4.0191625984251971
0
LINE
8
BLACK
6
CONTINUOUS
10
4.494062755905512
20
-4.0191625984251971
11
4.5051698818897634
21
-4.0258770866141731
0
LINE
8
BLACK
6
CONTINUOUS
10
4.5051698818897634
20
-4.0258770866141731
11
4.5170053149606302
21
-4.0312038188976373
0
LINE
8
BLACK
6
CONTINUOUS
10
4.5170053149606302
20
-4.0312038188976373
11
4.5293965748031493
21
-4.035065078740157
0
LINE
8
BLACK
6
CONTINUOUS
10
4.5293965748031493
20
-4.035065078740157
11
4.542162874015748
21
-4.0374045669291334
0
LINE
8
BLACK
6
CONTINUOUS
10
4.542162874015748
20
-4.0374045669291334
11
4.5551181102362204
21
-4.0381882283464563
0
LINE
8
BLACK
6
CONTINUOUS
10
4.5551181102362204
20
-4.0381882283464563
11
4.5680733464566927
21
-4.0374045669291334
0
LINE
8
BLACK
6
CONTINUOUS
10
4.5680733464566927
20
-4.0374045669291334
11
4.5808396456692915
21
-4.035065078740157
0
LINE
8
BLACK
6
CONTINUOUS
10
4.5808396456692915
20
-4.035065078740157
11
4.5932309055118106
21
-4.0312038188976373
0
LINE
8
BLACK
6
CONTINUOUS
10
4.5932309055118106
20
-4.0312038188976373
11
4.6050663385826773
21
-4.0258770866141731
0
LINE
8
BLACK
6
CONTINUOUS
10
4.6050663385826773
20
-4.0258770866141731
11
4.6161734645669288
21
-4.0191625984251971
0
LINE
8
BLACK
6
CONTINUOUS
10
4.6161734645669288
20
-4.0191625984251971
11
4.6263902362204723
21
-4.0111582677165352
0
LINE
8
BLACK
6
CONTINUOUS
10
4.6263902362204723
20
-4.0111582677165352
11
4.6355677165354328
21
-4.0019807874015747
0
LINE
8
BLACK
6
CONTINUOUS
10
4.6355677165354328
20
-4.0019807874015747
11
4.6435720472440947
21
-3.9917640157480312
0
LINE
8
BLACK
6
CONTINUOUS
10
4.6435720472440947
20
-3.9917640157480312
11
4.6502865354330707
21
-3.9806568897637793
0
LINE
8
BLACK
6
CONTINUOUS
10
4.6502865354330707
20
-3.9806568897637793
11
4.6556132677165349
21
-3.9688214566929134
0
LINE
8
BLACK
6
CONTINUOUS
10
4.6556132677165349
20
-3.9688214566929134
11
4.6594745275590554
21
-3.9564301968503934
0
LINE
8
BLACK
6
CONTINUOUS
10
4.6594745275590554
20
-3.9564301968503934
11
4.661814015748031
21
-3.9436638976377951
0
LINE
8
BLACK
6
CONTINUOUS
10
4.661814015748031
20
-3.9436638976377951
11
4.6625976771653539
21
-3.9307086614173228
0
LINE
8
BLACK
6
CONTINUOUS
10
4.6625976771653539
20
-3.9307086614173228
11
4.661814015748031
21
-3.9177534251968504
0
LINE
8
BLACK
6
CONTINUOUS
10
4.661814015748031
20
-3.9177534251968504
11
4.6594745275590554
21
-3.9049871259842517
0
LINE
8
BLACK
6
CONTINUOUS
10
4.6594745275590554
20
-3.9049871259842517
11
4.6556132677165349
21
-3.8925958661417321
0
LINE
8
BLACK
6
CONTINUOUS
10
4.6556132677165349
20
-3.8925958661417321
11
4.6502865354330707
21
-3.8807604330708663
0
LINE
8
BLACK
6
CONTINUOUS
10
4.6502865354330707
20
-3.8807604330708663
11
4.6435720472440947
21
-3.8696533070866139
0
LINE
8
BLACK
6
CONTINUOUS
10
4.6435720472440947
20
-3.8696533070866139
11
4.6355677165354328
21
-3.8594365354330709
0
LINE
8
BLACK
6
CONTINUOUS
10
4.6355677165354328
20
-3.8594365354330709
11
4.6263902362204723
21
-3.85025905511811
0
LINE
8
BLACK
6
CONTINUOUS
10
4.6263902362204723
20
-3.85025905511811
11
4.6161734645669288
21
-3.8422547244094489
0
LINE
8
BLACK
6
CONTINUOUS
10
4.6161734645669288
20
-3.8422547244094489
11
4.6050663385826773
21
-3.8355402362204725
0
LINE
8
BLACK
6
CONTINUOUS
10
4.6050663385826773
20
-3.8355402362204725
11
4.5932309055118106
21
-3.8302135039370078
0
LINE
8
BLACK
6
CONTINUOUS
10
4.5932309055118106
20
-3.8302135039370078
11
4.5808396456692915
21
-3.8263522440944882
0
LINE
8
BLACK
6
CONTINUOUS
10
4.5808396456692915
20
-3.8263522440944882
11
4.5680733464566927
21
-3.8240127559055117
0
LINE
8
BLACK
6
CONTINUOUS
10
4.5680733464566927
20
-3.8240127559055117
11
4.5551181102362204
21
-3.8232290944881888
0
LINE
8
BLACK
6
CONTINUOUS
10
4.5551181102362204
20
-3.8232290944881888
11
4.542162874015748
21
-3.8240127559055117
0
LINE
8
BLACK
6
CONTINUOUS
10
4.542162874015748
20
-3.8240127559055117
11
4.5293965748031493
21
-3.8263522440944882
0
LINE
8
BLACK
6
CONTINUOUS
10
4.5293965748031493
20
-3.8263522440944882
11
4.5170053149606302
21
-3.8302135039370078
0
LINE
8
BLACK
6
CONTINUOUS
10
4.5170053149606302
20
-3.8302135039370078
11
4.5051698818897634
21
-3.8355402362204725
0
LINE
8
BLACK
6
CONTINUOUS
10
4.5051698818897634
20
-3.8355402362204725
11
4.494062755905512
21
-3.8422547244094489
0
LINE
8
BLACK
6
CONTINUOUS
10
4.494062755905512
20
-3.8422547244094489
11
4.4838459842519685
21
-3.85025905511811
0
LINE
8
BLACK
6
CONTINUOUS
10
4.4838459842519685
20
-3.85025905511811
11
4.474668503937008
21
-3.8594365354330709
0
LINE
8
BLACK
6
CONTINUOUS
10
4.474668503937008
20
-3.8594365354330709
11
4.4666641732283461
21
-3.8696533070866139
0
LINE
8
BLACK
6
CONTINUOUS
10
4.4666641732283461
20
-3.8696533070866139
11
4.4599496850393701
21
-3.8807604330708663
0
LINE
8
BLACK
6
CONTINUOUS
10
4.4599496850393701
20
-3.8807604330708663
11
4.4546229527559058
21
-3.8925958661417321
0
LINE
8
BLACK
6
CONTINUOUS
10
4.4546229527559058
20
-3.8925958661417321
11
4.4507616929133853
21
-3.9049871259842517
0
LINE
8
BLACK
6
CONTINUOUS
10
4.4507616929133853
20
-3.9049871259842517
11
4.4484222047244097
21
-3.9177534251968504
0
LINE
8
BLACK
6
CONTINUOUS
10
4.4484222047244097
20
-3.9177534251968504
11
4.4476385433070869
21
-3.9307086614173228
0
LINE
8
BLACK
6
CONTINUOUS
10
4.4476385433070869
20
-3.9307086614173228
11
4.4484222047244097
21
-3.9436638976377951
0
LINE
8
BLACK
6
CONTINUOUS
10
6.1747731889763777
20
-3.8192392913385826
11
6.187581062992126
21
-3.8222748031496061
0
LINE
8
BLACK
6
CONTINUOUS
10
6.187581062992126
20
-3.8222748031496061
11
6.1999499606299215
21
-3.8267767322834643
0
LINE
8
BLACK
6
CONTINUOUS
10
6.1999499606299215
20
-3.8267767322834643
11
6.2117125984251969
21
-3.8326841338582676
0
LINE
8
BLACK
6
CONTINUOUS
10
6.2117125984251969
20
-3.8326841338582676
11
6.2227098818897639
21
-3.8399171653543305
0
LINE
8
BLACK
6
CONTINUOUS
10
6.2227098818897639
20
-3.8399171653543305
11
6.2327931102362202
21
-3.8483779921259842
0
LINE
8
BLACK
6
CONTINUOUS
10
6.2327931102362202
20
-3.8483779921259842
11
6.2418259055118108
21
-3.8579522047244095
0
LINE
8
BLACK
6
CONTINUOUS
10
6.2418259055118108
20
-3.8579522047244095
11
6.2496861023622046
21
-3.8685103149606297
0
LINE
8
BLACK
6
CONTINUOUS
10
6.2496861023622046
20
-3.8685103149606297
11
6.2562674803149605
21
-3.8799095275590552
0
LINE
8
BLACK
6
CONTINUOUS
10
6.2562674803149605
20
-3.8799095275590552
11
6.2614809448818898
21
-3.8919957480314959
0
LINE
8
BLACK
6
CONTINUOUS
10
6.2614809448818898
20
-3.8919957480314959
11
6.2652560629921261
21
-3.9046054724409447
0
LINE
8
BLACK
6
CONTINUOUS
10
6.2652560629921261
20
-3.9046054724409447
11
6.2675417322834646
21
-3.9175682283464566
0
LINE
8
BLACK
6
CONTINUOUS
10
6.2675417322834646
20
-3.9175682283464566
11
6.2683070866141728
21
-3.9307086614173228
0
LINE
8
BLACK
6
CONTINUOUS
10
6.2683070866141728
20
-3.9307086614173228
11
6.2675417322834646
21
-3.943849094488189
0
LINE
8
BLACK
6
CONTINUOUS
10
6.2675417322834646
20
-3.943849094488189
11
6.2652560629921261
21
-3.9568118503937009
0
LINE
8
BLACK
6
CONTINUOUS
10
6.2652560629921261
20
-3.9568118503937009
11
6.2614809448818898
21
-3.9694215748031496
0
LINE
8
BLACK
6
CONTINUOUS
10
6.2614809448818898
20
-3.9694215748031496
11
6.2562674803149605
21
-3.9815077952755904
0
LINE
8
BLACK
6
CONTINUOUS
10
6.2562674803149605
20
-3.9815077952755904
11
6.2496861023622046
21
-3.9929070078740159
0
LINE
8
BLACK
6
CONTINUOUS
10
6.2496861023622046
20
-3.9929070078740159
11
6.2418259055118108
21
-4.0034651181102365
0
LINE
8
BLACK
6
CONTINUOUS
10
6.2418259055118108
20
-4.0034651181102365
11
6.2327931102362202
21
-4.0130393307086614
0
LINE
8
BLACK
6
CONTINUOUS
10
6.2327931102362202
20
-4.0130393307086614
11
6.2227098818897639
21
-4.0215001574803146
0
LINE
8
BLACK
6
CONTINUOUS
10
6.2227098818897639
20
-4.0215001574803146
11
6.2117125984251969
21
-4.0287331889763776
0
LINE
8
BLACK
6
CONTINUOUS
10
6.2117125984251969
20
-4.0287331889763776
11
6.1999499606299215
21
-4.0346405905511808
0
LINE
8
BLACK
6
CONTINUOUS
10
6.1999499606299215
20
-4.0346405905511808
11
6.187581062992126
21
-4.039142519685039
0
LINE
8
BLACK
6
CONTINUOUS
10
6.187581062992126
20
-4.039142519685039
11
6.1747731889763777
21
-4.0421780314960625
0
LINE
8
BLACK
6
CONTINUOUS
10
6.1747731889763777
20
-4.0421780314960625
11
6.1616994488188972
21
-4.043706141732283
0
LINE
8
BLACK
6
CONTINUOUS
10
6.1616994488188972
20
-4.043706141732283
11
6.1485367716535428
21
-4.043706141732283
0
LINE
8
BLACK
6
CONTINUOUS
10
6.1485367716535428
20
-4.043706141732283
11
6.1354630314960632
21
-4.0421780314960625
0
LINE
8
BLACK
6
CONTINUOUS
10
6.1354630314960632
20
-4.0421780314960625
11
6.122655157480315
21
-4.039142519685039
0
LINE
8
BLACK
6
CONTINUOUS
10
6.122655157480315
20
-4.039142519685039
11
6.1102862598425194
21
-4.0346405905511808
0
LINE
8
BLACK
6
CONTINUOUS
10
6.1102862598425194
20
-4.0346405905511808
11
6.0985236220472441
21
-4.0287331889763776
0
LINE
8
BLACK
6
CONTINUOUS
10
6.0985236220472441
20
-4.0287331889763776
11
6.087526338582677
21
-4.0215001574803146
0
LINE
8
BLACK
6
CONTINUOUS
10
6.087526338582677
20
-4.0215001574803146
11
6.0774431102362207
21
-4.0130393307086614
0
LINE
8
BLACK
6
CONTINUOUS
10
6.0774431102362207
20
-4.0130393307086614
11
6.0684103149606301
21
-4.0034651181102365
0
LINE
8
BLACK
6
CONTINUOUS
10
6.0684103149606301
20
-4.0034651181102365
11
6.0605501181102364
21
-3.9929070078740159
0
LINE
8
BLACK
6
CONTINUOUS
10
6.0605501181102364
20
-3.9929070078740159
11
6.0539687401574804
21
-3.9815077952755904
0
LINE
8
BLACK
6
CONTINUOUS
10
6.0539687401574804
20
-3.9815077952755904
11
6.0487552755905512
21
-3.9694215748031496
0
LINE
8
BLACK
6
CONTINUOUS
10
6.0487552755905512
20
-3.9694215748031496
11
6.0449801574803148
21
-3.9568118503937009
0
LINE
8
BLACK
6
CONTINUOUS
10
6.0449801574803148
20
-3.9568118503937009
11
6.0426944881889764
21
-3.943849094488189
0
LINE
8
BLACK
6
CONTINUOUS
10
6.0426944881889764
20
-3.943849094488189
11
6.0419291338582672
21
-3.9307086614173228
0
LINE
8
BLACK
6
CONTINUOUS
10
6.0419291338582672
20
-3.9307086614173228
11
6.0426944881889764
21
-3.9175682283464566
0
LINE
8
BLACK
6
CONTINUOUS
10
6.0426944881889764
20
-3.9175682283464566
11
6.0449801574803148
21
-3.9046054724409447
0
LINE
8
BLACK
6
CONTINUOUS
10
6.0449801574803148
20
-3.9046054724409447
11
6.0487552755905512
21
-3.8919957480314959
0
LINE
8
BLACK
6
CONTINUOUS
10
6.0487552755905512
20
-3.8919957480314959
11
6.0539687401574804
21
-3.8799095275590552
0
LINE
8
BLACK
6
CONTINUOUS
10
6.0539687401574804
20
-3.8799095275590552
11
6.0605501181102364
21
-3.8685103149606297
0
LINE
8
BLACK
6
CONTINUOUS
10
6.0605501181102364
20
-3.8685103149606297
11
6.0684103149606301
21
-3.8579522047244095
0
LINE
8
BLACK
6
CONTINUOUS
10
6.0684103149606301
20
-3.8579522047244095
11
6.0774431102362207
21
-3.8483779921259842
0
LINE
8
BLACK
6
CONTINUOUS
10
6.0774431102362207
20
-3.8483779921259842
11
6.087526338582677
21
-3.8399171653543305
0
LINE
8
BLACK
6
CONTINUOUS
10
6.087526338582677
20
-3.8399171653543305
11
6.0985236220472441
21
-3.8326841338582676
0
LINE
8
BLACK
6
CONTINUOUS
10
6.0985236220472441
20
-3.8326841338582676
11
6.1102862598425194
21
-3.8267767322834643
0
LINE
8
BLACK
6
CONTINUOUS
10
6.1102862598425194
20
-3.8267767322834643
11
6.122655157480315
21
-3.8222748031496061
0
LINE
8
BLACK
6
CONTINUOUS
10
6.122655157480315
20
-3.8222748031496061
11
6.1354630314960632
21
-3.8192392913385826
0
LINE
8
BLACK
6
CONTINUOUS
10
6.1354630314960632
20
-3.8192392913385826
11
6.1485367716535428
21
-3.8177111811023621
0
LINE
8
BLACK
6
CONTINUOUS
10
6.1485367716535428
20
-3.8177111811023621
11
6.1616994488188972
21
-3.8177111811023621
0
LINE
8
BLACK
6
CONTINUOUS
10
6.1616994488188972
20
-3.8177111811023621
11
6.1747731889763777
21
-3.8192392913385826
0
LINE
8
BLACK
6
CONTINUOUS
10
6.0484222047244094
20
-3.9436638976377951
11
6.0507616929133858
21
-3.9564301968503934
0
LINE
8
BLACK
6
CONTINUOUS
10
6.0507616929133858
20
-3.9564301968503934
11
6.0546229527559055
21
-3.9688214566929134
0
LINE
8
BLACK
6
CONTINUOUS
10
6.0546229527559055
20
-3.9688214566929134
11
6.0599496850393697
21
-3.9806568897637793
0
LINE
8
BLACK
6
CONTINUOUS
10
6.0599496850393697
20
-3.9806568897637793
11
6.0666641732283466
21
-3.9917640157480312
0
LINE
8
BLACK
6
CONTINUOUS
10
6.0666641732283466
20
-3.9917640157480312
11
6.0746685039370076
21
-4.0019807874015747
0
LINE
8
BLACK
6
CONTINUOUS
10
6.0746685039370076
20
-4.0019807874015747
11
6.0838459842519681
21
-4.0111582677165352
0
LINE
8
BLACK
6
CONTINUOUS
10
6.0838459842519681
20
-4.0111582677165352
11
6.0940627559055116
21
-4.0191625984251971
0
LINE
8
BLACK
6
CONTINUOUS
10
6.0940627559055116
20
-4.0191625984251971
11
6.1051698818897639
21
-4.0258770866141731
0
LINE
8
BLACK
6
CONTINUOUS
10
6.1051698818897639
20
-4.0258770866141731
11
6.1170053149606298
21
-4.0312038188976373
0
LINE
8
BLACK
6
CONTINUOUS
10
6.1170053149606298
20
-4.0312038188976373
11
6.1293965748031498
21
-4.035065078740157
0
LINE
8
BLACK
6
CONTINUOUS
10
6.1293965748031498
20
-4.035065078740157
11
6.1421628740157477
21
-4.0374045669291334
0
LINE
8
BLACK
6
CONTINUOUS
10
6.1421628740157477
20
-4.0374045669291334
11
6.15511811023622
21
-4.0381882283464563
0
LINE
8
BLACK
6
CONTINUOUS
10
6.15511811023622
20
-4.0381882283464563
11
6.1680733464566924
21
-4.0374045669291334
0
LINE
8
BLACK
6
CONTINUOUS
10
6.1680733464566924
20
-4.0374045669291334
11
6.1808396456692911
21
-4.035065078740157
0
LINE
8
BLACK
6
CONTINUOUS
10
6.1808396456692911
20
-4.035065078740157
11
6.1932309055118111
21
-4.0312038188976373
0
LINE
8
BLACK
6
CONTINUOUS
10
6.1932309055118111
20
-4.0312038188976373
11
6.205066338582677
21
-4.0258770866141731
0
LINE
8
BLACK
6
CONTINUOUS
10
6.205066338582677
20
-4.0258770866141731
11
6.2161734645669293
21
-4.0191625984251971
0
LINE
8
BLACK
6
CONTINUOUS
10
6.2161734645669293
20
-4.0191625984251971
11
6.2263902362204719
21
-4.0111582677165352
0
LINE
8
BLACK
6
CONTINUOUS
10
6.2263902362204719
20
-4.0111582677165352
11
6.2355677165354333
21
-4.0019807874015747
0
LINE
8
BLACK
6
CONTINUOUS
10
6.2355677165354333
20
-4.0019807874015747
11
6.2435720472440943
21
-3.9917640157480312
0
LINE
8
BLACK
6
CONTINUOUS
10
6.2435720472440943
20
-3.9917640157480312
11
6.2502865354330703
21
-3.9806568897637793
0
LINE
8
BLACK
6
CONTINUOUS
10
6.2502865354330703
20
-3.9806568897637793
11
6.2556132677165355
21
-3.9688214566929134
0
LINE
8
BLACK
6
CONTINUOUS
10
6.2556132677165355
20
-3.9688214566929134
11
6.2594745275590551
21
-3.9564301968503934
0
LINE
8
BLACK
6
CONTINUOUS
10
6.2594745275590551
20
-3.9564301968503934
11
6.2618140157480315
21
-3.9436638976377951
0
LINE
8
BLACK
6
CONTINUOUS
10
6.2618140157480315
20
-3.9436638976377951
11
6.2625976771653544
21
-3.9307086614173228
0
LINE
8
BLACK
6
CONTINUOUS
10
6.2625976771653544
20
-3.9307086614173228
11
6.2618140157480315
21
-3.9177534251968504
0
LINE
8
BLACK
6
CONTINUOUS
10
6.2618140157480315
20
-3.9177534251968504
11
6.2594745275590551
21
-3.9049871259842517
0
LINE
8
BLACK
6
CONTINUOUS
10
6.2594745275590551
20
-3.9049871259842517
11
6.2556132677165355
21
-3.8925958661417321
0
LINE
8
BLACK
6
CONTINUOUS
10
6.2556132677165355
20
-3.8925958661417321
11
6.2502865354330703
21
-3.8807604330708663
0
LINE
8
BLACK
6
CONTINUOUS
10
6.2502865354330703
20
-3.8807604330708663
11
6.2435720472440943
21
-3.8696533070866139
0
LINE
8
BLACK
6
CONTINUOUS
10
6.2435720472440943
20
-3.8696533070866139
11
6.2355677165354333
21
-3.8594365354330709
0
LINE
8
BLACK
6
CONTINUOUS
10
6.2355677165354333
20
-3.8594365354330709
11
6.2263902362204719
21
-3.85025905511811
0
LINE
8
BLACK
6
CONTINUOUS
10
6.2263902362204719
20
-3.85025905511811
11
6.2161734645669293
21
-3.8422547244094489
0
LINE
8
BLACK
6
CONTINUOUS
10
6.2161734645669293
20
-3.8422547244094489
11
6.205066338582677
21
-3.8355402362204725
0
LINE
8
BLACK
6
CONTINUOUS
10
6.205066338582677
20
-3.8355402362204725
11
6.1932309055118111
21
-3.8302135039370078
0
LINE
8
BLACK
6
CONTINUOUS
10
6.1932309055118111
20
-3.8302135039370078
11
6.1808396456692911
21
-3.8263522440944882
0
LINE
8
BLACK
6
CONTINUOUS
10
6.1808396456692911
20
-3.8263522440944882
11
6.1680733464566924
21
-3.8240127559055117
0
LINE
8
BLACK
6
CONTINUOUS
10
6.1680733464566924
20
-3.8240127559055117
11
6.15511811023622
21
-3.8232290944881888
0
LINE
8
BLACK
6
CONTINUOUS
10
6.15511811023622
20
-3.8232290944881888
11
6.1421628740157477
21
-3.8240127559055117
0
LINE
8
BLACK
6
CONTINUOUS
10
6.1421628740157477
20
-3.8240127559055117
11
6.1293965748031498
21
-3.8263522440944882
0
LINE
8
BLACK
6
CONTINUOUS
10
6.1293965748031498
20
-3.8263522440944882
11
6.1170053149606298
21
-3.8302135039370078
0
LINE
8
BLACK
6
CONTINUOUS
10
6.1170053149606298
20
-3.8302135039370078
11
6.1051698818897639
21
-3.8355402362204725
0
LINE
8
BLACK
6
CONTINUOUS
10
6.1051698818897639
20
-3.8355402362204725
11
6.0940627559055116
21
-3.8422547244094489
0
LINE
8
BLACK
6
CONTINUOUS
10
6.0940627559055116
20
-3.8422547244094489
11
6.0838459842519681
21
-3.85025905511811
0
LINE
8
BLACK
6
CONTINUOUS
10
6.0838459842519681
20
-3.85025905511811
11
6.0746685039370076
21
-3.8594365354330709
0
LINE
8
BLACK
6
CONTINUOUS
10
6.0746685039370076
20
-3.8594365354330709
11
6.0666641732283466
21
-3.8696533070866139
0
LINE
8
BLACK
6
CONTINUOUS
10
6.0666641732283466
20
-3.8696533070866139
11
6.0599496850393697
21
-3.8807604330708663
0
LINE
8
BLACK
6
CONTINUOUS
10
6.0599496850393697
20
-3.8807604330708663
11
6.0546229527559055
21
-3.8925958661417321
0
LINE
8
BLACK
6
CONTINUOUS
10
6.0546229527559055
20
-3.8925958661417321
11
6.0507616929133858
21
-3.9049871259842517
0
LINE
8
BLACK
6
CONTINUOUS
10
6.0507616929133858
20
-3.9049871259842517
11
6.0484222047244094
21
-3.9177534251968504
0
LINE
8
BLACK
6
CONTINUOUS
10
6.0484222047244094
20
-3.9177534251968504
11
6.0476385433070865
21
-3.9307086614173228
0
LINE
8
BLACK
6
CONTINUOUS
10
6.0476385433070865
20
-3.9307086614173228
11
6.0484222047244094
21
-3.9436638976377951
0
CIRCLE
8
BLACK
10
6.15511811023622
20
-3.9307086614173228
40
0.0068897637795276
0
CIRCLE
8
BLACK
10
4.5551181102362204
20
-3.9307086614173228
40
0.0068897637795276
0
CIRCLE
8
BLACK
10
4.5551181102362204
20
-4.7307086614173226
40
0.0068897637795276
0
CIRCLE
8
BLACK
10
6.15511811023622
20
-4.7307086614173226
40
0.0068897637795276
  0
ENDSEC
  0
EOF
