  0
SECTION
  2
HEADER
  9
$ANGBASE
  50
0.0
  9
$ANGDIR
  70
1
  9
$MEASUREMENT
  70
0
  0
ENDSEC
  0
SECTION
  2
TABLES
  0
TABLE
  2
LTYPE
  70
4
  0
LTYPE
  5
40F
  2
CONTINUOUS
  70
0
  3
Solid line
  72
65
  73
0
  40
0.0
  0
LTYPE
  5
410
  2
DASHDOT
 70
0
  3
Dash Dot ____ _ ____ _
 72
65
 73
4
 40
2.0
 49
1.25
 49
-0.25
 49
0.25
 49
-0.25
  0
LTYPE
  5
411
  2
DASHED
 70
0
  3
Dashed __ __ __ __ __
 72
65
 73
2
 40
0.75
 49
0.5
 49
-0.25
  0
LTYPE
  5
43B
  2
DOTTED
 70
0
  3
Dotted .  .  .  .
 72
65
 73
2
 40
0.2
 49
0.0
 49
-0.2
  0
ENDTAB
  0
TABLE
  2
STYLE
  70
4
  0
STYLE
  2
KICAD
  70
0
  40
0
  41
1
  42
1
  50
0
  71
0
  3
isocp.shx
  0
STYLE
  2
KICADB
  70
0
  40
0
  41
1
  42
1
  50
0
  71
0
  3
isocp.shx
  0
STYLE
  2
KICADI
  70
0
  40
0
  41
1
  42
1
  50
15
  71
0
  3
isocp.shx
  0
STYLE
  2
KICADBI
  70
0
  40
0
  41
1
  42
1
  50
15
  71
0
  3
isocp.shx
  0
ENDTAB
  0
TABLE
  2
LAYER
  70
1
  0
LAYER
  2
BLACK
  70
0
  62
7
  6
CONTINUOUS
  0
ENDTAB
  0
ENDSEC
  0
SECTION
  2
ENTITIES
0
LINE
8
BLACK
6
CONTINUOUS
10
4.5747731889763781
20
-5.0192392913385824
11
4.5875810629921263
21
-5.0222748031496058
0
LINE
8
BLACK
6
CONTINUOUS
10
4.5875810629921263
20
-5.0222748031496058
11
4.599949960629921
21
-5.0267767322834649
0
LINE
8
BLACK
6
CONTINUOUS
10
4.599949960629921
20
-5.0267767322834649
11
4.6117125984251963
21
-5.0326841338582673
0
LINE
8
BLACK
6
CONTINUOUS
10
4.6117125984251963
20
-5.0326841338582673
11
4.6227098818897634
21
-5.0399171653543302
0
LINE
8
BLACK
6
CONTINUOUS
10
4.6227098818897634
20
-5.0399171653543302
11
4.6327931102362205
21
-5.0483779921259844
0
LINE
8
BLACK
6
CONTINUOUS
10
4.6327931102362205
20
-5.0483779921259844
11
4.6418259055118112
21
-5.0579522047244092
0
LINE
8
BLACK
6
CONTINUOUS
10
4.6418259055118112
20
-5.0579522047244092
11
4.6496861023622049
21
-5.0685103149606299
0
LINE
8
BLACK
6
CONTINUOUS
10
4.6496861023622049
20
-5.0685103149606299
11
4.6562674803149608
21
-5.0799095275590549
0
LINE
8
BLACK
6
CONTINUOUS
10
4.6562674803149608
20
-5.0799095275590549
11
4.6614809448818892
21
-5.0919957480314961
0
LINE
8
BLACK
6
CONTINUOUS
10
4.6614809448818892
20
-5.0919957480314961
11
4.6652560629921256
21
-5.1046054724409444
0
LINE
8
BLACK
6
CONTINUOUS
10
4.6652560629921256
20
-5.1046054724409444
11
4.667541732283464
21
-5.1175682283464567
0
LINE
8
BLACK
6
CONTINUOUS
10
4.667541732283464
20
-5.1175682283464567
11
4.6683070866141732
21
-5.130708661417323
0
LINE
8
BLACK
6
CONTINUOUS
10
4.6683070866141732
20
-5.130708661417323
11
4.667541732283464
21
-5.1438490944881892
0
LINE
8
BLACK
6
CONTINUOUS
10
4.667541732283464
20
-5.1438490944881892
11
4.6652560629921256
21
-5.1568118503937006
0
LINE
8
BLACK
6
CONTINUOUS
10
4.6652560629921256
20
-5.1568118503937006
11
4.6614809448818892
21
-5.1694215748031498
0
LINE
8
BLACK
6
CONTINUOUS
10
4.6614809448818892
20
-5.1694215748031498
11
4.6562674803149608
21
-5.1815077952755901
0
LINE
8
BLACK
6
CONTINUOUS
10
4.6562674803149608
20
-5.1815077952755901
11
4.6496861023622049
21
-5.192907007874016
0
LINE
8
BLACK
6
CONTINUOUS
10
4.6496861023622049
20
-5.192907007874016
11
4.6418259055118112
21
-5.2034651181102358
0
LINE
8
BLACK
6
CONTINUOUS
10
4.6418259055118112
20
-5.2034651181102358
11
4.6327931102362205
21
-5.2130393307086615
0
LINE
8
BLACK
6
CONTINUOUS
10
4.6327931102362205
20
-5.2130393307086615
11
4.6227098818897634
21
-5.2215001574803148
0
LINE
8
BLACK
6
CONTINUOUS
10
4.6227098818897634
20
-5.2215001574803148
11
4.6117125984251963
21
-5.2287331889763777
0
LINE
8
BLACK
6
CONTINUOUS
10
4.6117125984251963
20
-5.2287331889763777
11
4.599949960629921
21
-5.234640590551181
0
LINE
8
BLACK
6
CONTINUOUS
10
4.599949960629921
20
-5.234640590551181
11
4.5875810629921263
21
-5.2391425196850392
0
LINE
8
BLACK
6
CONTINUOUS
10
4.5875810629921263
20
-5.2391425196850392
11
4.5747731889763781
21
-5.2421780314960627
0
LINE
8
BLACK
6
CONTINUOUS
10
4.5747731889763781
20
-5.2421780314960627
11
4.5616994488188976
21
-5.2437061417322832
0
LINE
8
BLACK
6
CONTINUOUS
10
4.5616994488188976
20
-5.2437061417322832
11
4.5485367716535432
21
-5.2437061417322832
0
LINE
8
BLACK
6
CONTINUOUS
10
4.5485367716535432
20
-5.2437061417322832
11
4.5354630314960627
21
-5.2421780314960627
0
LINE
8
BLACK
6
CONTINUOUS
10
4.5354630314960627
20
-5.2421780314960627
11
4.5226551574803144
21
-5.2391425196850392
0
LINE
8
BLACK
6
CONTINUOUS
10
4.5226551574803144
20
-5.2391425196850392
11
4.5102862598425197
21
-5.234640590551181
0
LINE
8
BLACK
6
CONTINUOUS
10
4.5102862598425197
20
-5.234640590551181
11
4.4985236220472444
21
-5.2287331889763777
0
LINE
8
BLACK
6
CONTINUOUS
10
4.4985236220472444
20
-5.2287331889763777
11
4.4875263385826774
21
-5.2215001574803148
0
LINE
8
BLACK
6
CONTINUOUS
10
4.4875263385826774
20
-5.2215001574803148
11
4.4774431102362202
21
-5.2130393307086615
0
LINE
8
BLACK
6
CONTINUOUS
10
4.4774431102362202
20
-5.2130393307086615
11
4.4684103149606296
21
-5.2034651181102358
0
LINE
8
BLACK
6
CONTINUOUS
10
4.4684103149606296
20
-5.2034651181102358
11
4.4605501181102358
21
-5.192907007874016
0
LINE
8
BLACK
6
CONTINUOUS
10
4.4605501181102358
20
-5.192907007874016
11
4.4539687401574799
21
-5.1815077952755901
0
LINE
8
BLACK
6
CONTINUOUS
10
4.4539687401574799
20
-5.1815077952755901
11
4.4487552755905515
21
-5.1694215748031498
0
LINE
8
BLACK
6
CONTINUOUS
10
4.4487552755905515
20
-5.1694215748031498
11
4.4449801574803152
21
-5.1568118503937006
0
LINE
8
BLACK
6
CONTINUOUS
10
4.4449801574803152
20
-5.1568118503937006
11
4.4426944881889767
21
-5.1438490944881892
0
LINE
8
BLACK
6
CONTINUOUS
10
4.4426944881889767
20
-5.1438490944881892
11
4.4419291338582676
21
-5.130708661417323
0
LINE
8
BLACK
6
CONTINUOUS
10
4.4419291338582676
20
-5.130708661417323
11
4.4426944881889767
21
-5.1175682283464567
0
LINE
8
BLACK
6
CONTINUOUS
10
4.4426944881889767
20
-5.1175682283464567
11
4.4449801574803152
21
-5.1046054724409444
0
LINE
8
BLACK
6
CONTINUOUS
10
4.4449801574803152
20
-5.1046054724409444
11
4.4487552755905515
21
-5.0919957480314961
0
LINE
8
BLACK
6
CONTINUOUS
10
4.4487552755905515
20
-5.0919957480314961
11
4.4539687401574799
21
-5.0799095275590549
0
LINE
8
BLACK
6
CONTINUOUS
10
4.4539687401574799
20
-5.0799095275590549
11
4.4605501181102358
21
-5.0685103149606299
0
LINE
8
BLACK
6
CONTINUOUS
10
4.4605501181102358
20
-5.0685103149606299
11
4.4684103149606296
21
-5.0579522047244092
0
LINE
8
BLACK
6
CONTINUOUS
10
4.4684103149606296
20
-5.0579522047244092
11
4.4774431102362202
21
-5.0483779921259844
0
LINE
8
BLACK
6
CONTINUOUS
10
4.4774431102362202
20
-5.0483779921259844
11
4.4875263385826774
21
-5.0399171653543302
0
LINE
8
BLACK
6
CONTINUOUS
10
4.4875263385826774
20
-5.0399171653543302
11
4.4985236220472444
21
-5.0326841338582673
0
LINE
8
BLACK
6
CONTINUOUS
10
4.4985236220472444
20
-5.0326841338582673
11
4.5102862598425197
21
-5.0267767322834649
0
LINE
8
BLACK
6
CONTINUOUS
10
4.5102862598425197
20
-5.0267767322834649
11
4.5226551574803144
21
-5.0222748031496058
0
LINE
8
BLACK
6
CONTINUOUS
10
4.5226551574803144
20
-5.0222748031496058
11
4.5354630314960627
21
-5.0192392913385824
0
LINE
8
BLACK
6
CONTINUOUS
10
4.5354630314960627
20
-5.0192392913385824
11
4.5485367716535432
21
-5.0177111811023618
0
LINE
8
BLACK
6
CONTINUOUS
10
4.5485367716535432
20
-5.0177111811023618
11
4.5616994488188976
21
-5.0177111811023618
0
LINE
8
BLACK
6
CONTINUOUS
10
4.5616994488188976
20
-5.0177111811023618
11
4.5747731889763781
21
-5.0192392913385824
0
LINE
8
BLACK
6
CONTINUOUS
10
4.4484222047244097
20
-5.1436638976377953
11
4.4507616929133853
21
-5.1564301968503932
0
LINE
8
BLACK
6
CONTINUOUS
10
4.4507616929133853
20
-5.1564301968503932
11
4.4546229527559058
21
-5.1688214566929132
0
LINE
8
BLACK
6
CONTINUOUS
10
4.4546229527559058
20
-5.1688214566929132
11
4.4599496850393701
21
-5.180656889763779
0
LINE
8
BLACK
6
CONTINUOUS
10
4.4599496850393701
20
-5.180656889763779
11
4.4666641732283461
21
-5.1917640157480314
0
LINE
8
BLACK
6
CONTINUOUS
10
4.4666641732283461
20
-5.1917640157480314
11
4.474668503937008
21
-5.2019807874015749
0
LINE
8
BLACK
6
CONTINUOUS
10
4.474668503937008
20
-5.2019807874015749
11
4.4838459842519685
21
-5.2111582677165353
0
LINE
8
BLACK
6
CONTINUOUS
10
4.4838459842519685
20
-5.2111582677165353
11
4.494062755905512
21
-5.2191625984251964
0
LINE
8
BLACK
6
CONTINUOUS
10
4.494062755905512
20
-5.2191625984251964
11
4.5051698818897634
21
-5.2258770866141733
0
LINE
8
BLACK
6
CONTINUOUS
10
4.5051698818897634
20
-5.2258770866141733
11
4.5170053149606302
21
-5.2312038188976375
0
LINE
8
BLACK
6
CONTINUOUS
10
4.5170053149606302
20
-5.2312038188976375
11
4.5293965748031493
21
-5.2350650787401571
0
LINE
8
BLACK
6
CONTINUOUS
10
4.5293965748031493
20
-5.2350650787401571
11
4.542162874015748
21
-5.2374045669291336
0
LINE
8
BLACK
6
CONTINUOUS
10
4.542162874015748
20
-5.2374045669291336
11
4.5551181102362204
21
-5.2381882283464565
0
LINE
8
BLACK
6
CONTINUOUS
10
4.5551181102362204
20
-5.2381882283464565
11
4.5680733464566927
21
-5.2374045669291336
0
LINE
8
BLACK
6
CONTINUOUS
10
4.5680733464566927
20
-5.2374045669291336
11
4.5808396456692915
21
-5.2350650787401571
0
LINE
8
BLACK
6
CONTINUOUS
10
4.5808396456692915
20
-5.2350650787401571
11
4.5932309055118106
21
-5.2312038188976375
0
LINE
8
BLACK
6
CONTINUOUS
10
4.5932309055118106
20
-5.2312038188976375
11
4.6050663385826773
21
-5.2258770866141733
0
LINE
8
BLACK
6
CONTINUOUS
10
4.6050663385826773
20
-5.2258770866141733
11
4.6161734645669288
21
-5.2191625984251964
0
LINE
8
BLACK
6
CONTINUOUS
10
4.6161734645669288
20
-5.2191625984251964
11
4.6263902362204723
21
-5.2111582677165353
0
LINE
8
BLACK
6
CONTINUOUS
10
4.6263902362204723
20
-5.2111582677165353
11
4.6355677165354328
21
-5.2019807874015749
0
LINE
8
BLACK
6
CONTINUOUS
10
4.6355677165354328
20
-5.2019807874015749
11
4.6435720472440947
21
-5.1917640157480314
0
LINE
8
BLACK
6
CONTINUOUS
10
4.6435720472440947
20
-5.1917640157480314
11
4.6502865354330707
21
-5.180656889763779
0
LINE
8
BLACK
6
CONTINUOUS
10
4.6502865354330707
20
-5.180656889763779
11
4.6556132677165349
21
-5.1688214566929132
0
LINE
8
BLACK
6
CONTINUOUS
10
4.6556132677165349
20
-5.1688214566929132
11
4.6594745275590554
21
-5.1564301968503932
0
LINE
8
BLACK
6
CONTINUOUS
10
4.6594745275590554
20
-5.1564301968503932
11
4.661814015748031
21
-5.1436638976377953
0
LINE
8
BLACK
6
CONTINUOUS
10
4.661814015748031
20
-5.1436638976377953
11
4.6625976771653539
21
-5.130708661417323
0
LINE
8
BLACK
6
CONTINUOUS
10
4.6625976771653539
20
-5.130708661417323
11
4.661814015748031
21
-5.1177534251968506
0
LINE
8
BLACK
6
CONTINUOUS
10
4.661814015748031
20
-5.1177534251968506
11
4.6594745275590554
21
-5.1049871259842519
0
LINE
8
BLACK
6
CONTINUOUS
10
4.6594745275590554
20
-5.1049871259842519
11
4.6556132677165349
21
-5.0925958661417319
0
LINE
8
BLACK
6
CONTINUOUS
10
4.6556132677165349
20
-5.0925958661417319
11
4.6502865354330707
21
-5.080760433070866
0
LINE
8
BLACK
6
CONTINUOUS
10
4.6502865354330707
20
-5.080760433070866
11
4.6435720472440947
21
-5.0696533070866137
0
LINE
8
BLACK
6
CONTINUOUS
10
4.6435720472440947
20
-5.0696533070866137
11
4.6355677165354328
21
-5.059436535433071
0
LINE
8
BLACK
6
CONTINUOUS
10
4.6355677165354328
20
-5.059436535433071
11
4.6263902362204723
21
-5.0502590551181097
0
LINE
8
BLACK
6
CONTINUOUS
10
4.6263902362204723
20
-5.0502590551181097
11
4.6161734645669288
21
-5.0422547244094487
0
LINE
8
BLACK
6
CONTINUOUS
10
4.6161734645669288
20
-5.0422547244094487
11
4.6050663385826773
21
-5.0355402362204726
0
LINE
8
BLACK
6
CONTINUOUS
10
4.6050663385826773
20
-5.0355402362204726
11
4.5932309055118106
21
-5.0302135039370075
0
LINE
8
BLACK
6
CONTINUOUS
10
4.5932309055118106
20
-5.0302135039370075
11
4.5808396456692915
21
-5.0263522440944879
0
LINE
8
BLACK
6
CONTINUOUS
10
4.5808396456692915
20
-5.0263522440944879
11
4.5680733464566927
21
-5.0240127559055114
0
LINE
8
BLACK
6
CONTINUOUS
10
4.5680733464566927
20
-5.0240127559055114
11
4.5551181102362204
21
-5.0232290944881886
0
LINE
8
BLACK
6
CONTINUOUS
10
4.5551181102362204
20
-5.0232290944881886
11
4.542162874015748
21
-5.0240127559055114
0
LINE
8
BLACK
6
CONTINUOUS
10
4.542162874015748
20
-5.0240127559055114
11
4.5293965748031493
21
-5.0263522440944879
0
LINE
8
BLACK
6
CONTINUOUS
10
4.5293965748031493
20
-5.0263522440944879
11
4.5170053149606302
21
-5.0302135039370075
0
LINE
8
BLACK
6
CONTINUOUS
10
4.5170053149606302
20
-5.0302135039370075
11
4.5051698818897634
21
-5.0355402362204726
0
LINE
8
BLACK
6
CONTINUOUS
10
4.5051698818897634
20
-5.0355402362204726
11
4.494062755905512
21
-5.0422547244094487
0
LINE
8
BLACK
6
CONTINUOUS
10
4.494062755905512
20
-5.0422547244094487
11
4.4838459842519685
21
-5.0502590551181097
0
LINE
8
BLACK
6
CONTINUOUS
10
4.4838459842519685
20
-5.0502590551181097
11
4.474668503937008
21
-5.059436535433071
0
LINE
8
BLACK
6
CONTINUOUS
10
4.474668503937008
20
-5.059436535433071
11
4.4666641732283461
21
-5.0696533070866137
0
LINE
8
BLACK
6
CONTINUOUS
10
4.4666641732283461
20
-5.0696533070866137
11
4.4599496850393701
21
-5.080760433070866
0
LINE
8
BLACK
6
CONTINUOUS
10
4.4599496850393701
20
-5.080760433070866
11
4.4546229527559058
21
-5.0925958661417319
0
LINE
8
BLACK
6
CONTINUOUS
10
4.4546229527559058
20
-5.0925958661417319
11
4.4507616929133853
21
-5.1049871259842519
0
LINE
8
BLACK
6
CONTINUOUS
10
4.4507616929133853
20
-5.1049871259842519
11
4.4484222047244097
21
-5.1177534251968506
0
LINE
8
BLACK
6
CONTINUOUS
10
4.4484222047244097
20
-5.1177534251968506
11
4.4476385433070869
21
-5.130708661417323
0
LINE
8
BLACK
6
CONTINUOUS
10
4.4476385433070869
20
-5.130708661417323
11
4.4484222047244097
21
-5.1436638976377953
0
LINE
8
BLACK
6
CONTINUOUS
10
6.1747731889763777
20
-5.0192392913385824
11
6.187581062992126
21
-5.0222748031496058
0
LINE
8
BLACK
6
CONTINUOUS
10
6.187581062992126
20
-5.0222748031496058
11
6.1999499606299215
21
-5.0267767322834649
0
LINE
8
BLACK
6
CONTINUOUS
10
6.1999499606299215
20
-5.0267767322834649
11
6.2117125984251969
21
-5.0326841338582673
0
LINE
8
BLACK
6
CONTINUOUS
10
6.2117125984251969
20
-5.0326841338582673
11
6.2227098818897639
21
-5.0399171653543302
0
LINE
8
BLACK
6
CONTINUOUS
10
6.2227098818897639
20
-5.0399171653543302
11
6.2327931102362202
21
-5.0483779921259844
0
LINE
8
BLACK
6
CONTINUOUS
10
6.2327931102362202
20
-5.0483779921259844
11
6.2418259055118108
21
-5.0579522047244092
0
LINE
8
BLACK
6
CONTINUOUS
10
6.2418259055118108
20
-5.0579522047244092
11
6.2496861023622046
21
-5.0685103149606299
0
LINE
8
BLACK
6
CONTINUOUS
10
6.2496861023622046
20
-5.0685103149606299
11
6.2562674803149605
21
-5.0799095275590549
0
LINE
8
BLACK
6
CONTINUOUS
10
6.2562674803149605
20
-5.0799095275590549
11
6.2614809448818898
21
-5.0919957480314961
0
LINE
8
BLACK
6
CONTINUOUS
10
6.2614809448818898
20
-5.0919957480314961
11
6.2652560629921261
21
-5.1046054724409444
0
LINE
8
BLACK
6
CONTINUOUS
10
6.2652560629921261
20
-5.1046054724409444
11
6.2675417322834646
21
-5.1175682283464567
0
LINE
8
BLACK
6
CONTINUOUS
10
6.2675417322834646
20
-5.1175682283464567
11
6.2683070866141728
21
-5.130708661417323
0
LINE
8
BLACK
6
CONTINUOUS
10
6.2683070866141728
20
-5.130708661417323
11
6.2675417322834646
21
-5.1438490944881892
0
LINE
8
BLACK
6
CONTINUOUS
10
6.2675417322834646
20
-5.1438490944881892
11
6.2652560629921261
21
-5.1568118503937006
0
LINE
8
BLACK
6
CONTINUOUS
10
6.2652560629921261
20
-5.1568118503937006
11
6.2614809448818898
21
-5.1694215748031498
0
LINE
8
BLACK
6
CONTINUOUS
10
6.2614809448818898
20
-5.1694215748031498
11
6.2562674803149605
21
-5.1815077952755901
0
LINE
8
BLACK
6
CONTINUOUS
10
6.2562674803149605
20
-5.1815077952755901
11
6.2496861023622046
21
-5.192907007874016
0
LINE
8
BLACK
6
CONTINUOUS
10
6.2496861023622046
20
-5.192907007874016
11
6.2418259055118108
21
-5.2034651181102358
0
LINE
8
BLACK
6
CONTINUOUS
10
6.2418259055118108
20
-5.2034651181102358
11
6.2327931102362202
21
-5.2130393307086615
0
LINE
8
BLACK
6
CONTINUOUS
10
6.2327931102362202
20
-5.2130393307086615
11
6.2227098818897639
21
-5.2215001574803148
0
LINE
8
BLACK
6
CONTINUOUS
10
6.2227098818897639
20
-5.2215001574803148
11
6.2117125984251969
21
-5.2287331889763777
0
LINE
8
BLACK
6
CONTINUOUS
10
6.2117125984251969
20
-5.2287331889763777
11
6.1999499606299215
21
-5.234640590551181
0
LINE
8
BLACK
6
CONTINUOUS
10
6.1999499606299215
20
-5.234640590551181
11
6.187581062992126
21
-5.2391425196850392
0
LINE
8
BLACK
6
CONTINUOUS
10
6.187581062992126
20
-5.2391425196850392
11
6.1747731889763777
21
-5.2421780314960627
0
LINE
8
BLACK
6
CONTINUOUS
10
6.1747731889763777
20
-5.2421780314960627
11
6.1616994488188972
21
-5.2437061417322832
0
LINE
8
BLACK
6
CONTINUOUS
10
6.1616994488188972
20
-5.2437061417322832
11
6.1485367716535428
21
-5.2437061417322832
0
LINE
8
BLACK
6
CONTINUOUS
10
6.1485367716535428
20
-5.2437061417322832
11
6.1354630314960632
21
-5.2421780314960627
0
LINE
8
BLACK
6
CONTINUOUS
10
6.1354630314960632
20
-5.2421780314960627
11
6.122655157480315
21
-5.2391425196850392
0
LINE
8
BLACK
6
CONTINUOUS
10
6.122655157480315
20
-5.2391425196850392
11
6.1102862598425194
21
-5.234640590551181
0
LINE
8
BLACK
6
CONTINUOUS
10
6.1102862598425194
20
-5.234640590551181
11
6.0985236220472441
21
-5.2287331889763777
0
LINE
8
BLACK
6
CONTINUOUS
10
6.0985236220472441
20
-5.2287331889763777
11
6.087526338582677
21
-5.2215001574803148
0
LINE
8
BLACK
6
CONTINUOUS
10
6.087526338582677
20
-5.2215001574803148
11
6.0774431102362207
21
-5.2130393307086615
0
LINE
8
BLACK
6
CONTINUOUS
10
6.0774431102362207
20
-5.2130393307086615
11
6.0684103149606301
21
-5.2034651181102358
0
LINE
8
BLACK
6
CONTINUOUS
10
6.0684103149606301
20
-5.2034651181102358
11
6.0605501181102364
21
-5.192907007874016
0
LINE
8
BLACK
6
CONTINUOUS
10
6.0605501181102364
20
-5.192907007874016
11
6.0539687401574804
21
-5.1815077952755901
0
LINE
8
BLACK
6
CONTINUOUS
10
6.0539687401574804
20
-5.1815077952755901
11
6.0487552755905512
21
-5.1694215748031498
0
LINE
8
BLACK
6
CONTINUOUS
10
6.0487552755905512
20
-5.1694215748031498
11
6.0449801574803148
21
-5.1568118503937006
0
LINE
8
BLACK
6
CONTINUOUS
10
6.0449801574803148
20
-5.1568118503937006
11
6.0426944881889764
21
-5.1438490944881892
0
LINE
8
BLACK
6
CONTINUOUS
10
6.0426944881889764
20
-5.1438490944881892
11
6.0419291338582672
21
-5.130708661417323
0
LINE
8
BLACK
6
CONTINUOUS
10
6.0419291338582672
20
-5.130708661417323
11
6.0426944881889764
21
-5.1175682283464567
0
LINE
8
BLACK
6
CONTINUOUS
10
6.0426944881889764
20
-5.1175682283464567
11
6.0449801574803148
21
-5.1046054724409444
0
LINE
8
BLACK
6
CONTINUOUS
10
6.0449801574803148
20
-5.1046054724409444
11
6.0487552755905512
21
-5.0919957480314961
0
LINE
8
BLACK
6
CONTINUOUS
10
6.0487552755905512
20
-5.0919957480314961
11
6.0539687401574804
21
-5.0799095275590549
0
LINE
8
BLACK
6
CONTINUOUS
10
6.0539687401574804
20
-5.0799095275590549
11
6.0605501181102364
21
-5.0685103149606299
0
LINE
8
BLACK
6
CONTINUOUS
10
6.0605501181102364
20
-5.0685103149606299
11
6.0684103149606301
21
-5.0579522047244092
0
LINE
8
BLACK
6
CONTINUOUS
10
6.0684103149606301
20
-5.0579522047244092
11
6.0774431102362207
21
-5.0483779921259844
0
LINE
8
BLACK
6
CONTINUOUS
10
6.0774431102362207
20
-5.0483779921259844
11
6.087526338582677
21
-5.0399171653543302
0
LINE
8
BLACK
6
CONTINUOUS
10
6.087526338582677
20
-5.0399171653543302
11
6.0985236220472441
21
-5.0326841338582673
0
LINE
8
BLACK
6
CONTINUOUS
10
6.0985236220472441
20
-5.0326841338582673
11
6.1102862598425194
21
-5.0267767322834649
0
LINE
8
BLACK
6
CONTINUOUS
10
6.1102862598425194
20
-5.0267767322834649
11
6.122655157480315
21
-5.0222748031496058
0
LINE
8
BLACK
6
CONTINUOUS
10
6.122655157480315
20
-5.0222748031496058
11
6.1354630314960632
21
-5.0192392913385824
0
LINE
8
BLACK
6
CONTINUOUS
10
6.1354630314960632
20
-5.0192392913385824
11
6.1485367716535428
21
-5.0177111811023618
0
LINE
8
BLACK
6
CONTINUOUS
10
6.1485367716535428
20
-5.0177111811023618
11
6.1616994488188972
21
-5.0177111811023618
0
LINE
8
BLACK
6
CONTINUOUS
10
6.1616994488188972
20
-5.0177111811023618
11
6.1747731889763777
21
-5.0192392913385824
0
LINE
8
BLACK
6
CONTINUOUS
10
6.0484222047244094
20
-5.1436638976377953
11
6.0507616929133858
21
-5.1564301968503932
0
LINE
8
BLACK
6
CONTINUOUS
10
6.0507616929133858
20
-5.1564301968503932
11
6.0546229527559055
21
-5.1688214566929132
0
LINE
8
BLACK
6
CONTINUOUS
10
6.0546229527559055
20
-5.1688214566929132
11
6.0599496850393697
21
-5.180656889763779
0
LINE
8
BLACK
6
CONTINUOUS
10
6.0599496850393697
20
-5.180656889763779
11
6.0666641732283466
21
-5.1917640157480314
0
LINE
8
BLACK
6
CONTINUOUS
10
6.0666641732283466
20
-5.1917640157480314
11
6.0746685039370076
21
-5.2019807874015749
0
LINE
8
BLACK
6
CONTINUOUS
10
6.0746685039370076
20
-5.2019807874015749
11
6.0838459842519681
21
-5.2111582677165353
0
LINE
8
BLACK
6
CONTINUOUS
10
6.0838459842519681
20
-5.2111582677165353
11
6.0940627559055116
21
-5.2191625984251964
0
LINE
8
BLACK
6
CONTINUOUS
10
6.0940627559055116
20
-5.2191625984251964
11
6.1051698818897639
21
-5.2258770866141733
0
LINE
8
BLACK
6
CONTINUOUS
10
6.1051698818897639
20
-5.2258770866141733
11
6.1170053149606298
21
-5.2312038188976375
0
LINE
8
BLACK
6
CONTINUOUS
10
6.1170053149606298
20
-5.2312038188976375
11
6.1293965748031498
21
-5.2350650787401571
0
LINE
8
BLACK
6
CONTINUOUS
10
6.1293965748031498
20
-5.2350650787401571
11
6.1421628740157477
21
-5.2374045669291336
0
LINE
8
BLACK
6
CONTINUOUS
10
6.1421628740157477
20
-5.2374045669291336
11
6.15511811023622
21
-5.2381882283464565
0
LINE
8
BLACK
6
CONTINUOUS
10
6.15511811023622
20
-5.2381882283464565
11
6.1680733464566924
21
-5.2374045669291336
0
LINE
8
BLACK
6
CONTINUOUS
10
6.1680733464566924
20
-5.2374045669291336
11
6.1808396456692911
21
-5.2350650787401571
0
LINE
8
BLACK
6
CONTINUOUS
10
6.1808396456692911
20
-5.2350650787401571
11
6.1932309055118111
21
-5.2312038188976375
0
LINE
8
BLACK
6
CONTINUOUS
10
6.1932309055118111
20
-5.2312038188976375
11
6.205066338582677
21
-5.2258770866141733
0
LINE
8
BLACK
6
CONTINUOUS
10
6.205066338582677
20
-5.2258770866141733
11
6.2161734645669293
21
-5.2191625984251964
0
LINE
8
BLACK
6
CONTINUOUS
10
6.2161734645669293
20
-5.2191625984251964
11
6.2263902362204719
21
-5.2111582677165353
0
LINE
8
BLACK
6
CONTINUOUS
10
6.2263902362204719
20
-5.2111582677165353
11
6.2355677165354333
21
-5.2019807874015749
0
LINE
8
BLACK
6
CONTINUOUS
10
6.2355677165354333
20
-5.2019807874015749
11
6.2435720472440943
21
-5.1917640157480314
0
LINE
8
BLACK
6
CONTINUOUS
10
6.2435720472440943
20
-5.1917640157480314
11
6.2502865354330703
21
-5.180656889763779
0
LINE
8
BLACK
6
CONTINUOUS
10
6.2502865354330703
20
-5.180656889763779
11
6.2556132677165355
21
-5.1688214566929132
0
LINE
8
BLACK
6
CONTINUOUS
10
6.2556132677165355
20
-5.1688214566929132
11
6.2594745275590551
21
-5.1564301968503932
0
LINE
8
BLACK
6
CONTINUOUS
10
6.2594745275590551
20
-5.1564301968503932
11
6.2618140157480315
21
-5.1436638976377953
0
LINE
8
BLACK
6
CONTINUOUS
10
6.2618140157480315
20
-5.1436638976377953
11
6.2625976771653544
21
-5.130708661417323
0
LINE
8
BLACK
6
CONTINUOUS
10
6.2625976771653544
20
-5.130708661417323
11
6.2618140157480315
21
-5.1177534251968506
0
LINE
8
BLACK
6
CONTINUOUS
10
6.2618140157480315
20
-5.1177534251968506
11
6.2594745275590551
21
-5.1049871259842519
0
LINE
8
BLACK
6
CONTINUOUS
10
6.2594745275590551
20
-5.1049871259842519
11
6.2556132677165355
21
-5.0925958661417319
0
LINE
8
BLACK
6
CONTINUOUS
10
6.2556132677165355
20
-5.0925958661417319
11
6.2502865354330703
21
-5.080760433070866
0
LINE
8
BLACK
6
CONTINUOUS
10
6.2502865354330703
20
-5.080760433070866
11
6.2435720472440943
21
-5.0696533070866137
0
LINE
8
BLACK
6
CONTINUOUS
10
6.2435720472440943
20
-5.0696533070866137
11
6.2355677165354333
21
-5.059436535433071
0
LINE
8
BLACK
6
CONTINUOUS
10
6.2355677165354333
20
-5.059436535433071
11
6.2263902362204719
21
-5.0502590551181097
0
LINE
8
BLACK
6
CONTINUOUS
10
6.2263902362204719
20
-5.0502590551181097
11
6.2161734645669293
21
-5.0422547244094487
0
LINE
8
BLACK
6
CONTINUOUS
10
6.2161734645669293
20
-5.0422547244094487
11
6.205066338582677
21
-5.0355402362204726
0
LINE
8
BLACK
6
CONTINUOUS
10
6.205066338582677
20
-5.0355402362204726
11
6.1932309055118111
21
-5.0302135039370075
0
LINE
8
BLACK
6
CONTINUOUS
10
6.1932309055118111
20
-5.0302135039370075
11
6.1808396456692911
21
-5.0263522440944879
0
LINE
8
BLACK
6
CONTINUOUS
10
6.1808396456692911
20
-5.0263522440944879
11
6.1680733464566924
21
-5.0240127559055114
0
LINE
8
BLACK
6
CONTINUOUS
10
6.1680733464566924
20
-5.0240127559055114
11
6.15511811023622
21
-5.0232290944881886
0
LINE
8
BLACK
6
CONTINUOUS
10
6.15511811023622
20
-5.0232290944881886
11
6.1421628740157477
21
-5.0240127559055114
0
LINE
8
BLACK
6
CONTINUOUS
10
6.1421628740157477
20
-5.0240127559055114
11
6.1293965748031498
21
-5.0263522440944879
0
LINE
8
BLACK
6
CONTINUOUS
10
6.1293965748031498
20
-5.0263522440944879
11
6.1170053149606298
21
-5.0302135039370075
0
LINE
8
BLACK
6
CONTINUOUS
10
6.1170053149606298
20
-5.0302135039370075
11
6.1051698818897639
21
-5.0355402362204726
0
LINE
8
BLACK
6
CONTINUOUS
10
6.1051698818897639
20
-5.0355402362204726
11
6.0940627559055116
21
-5.0422547244094487
0
LINE
8
BLACK
6
CONTINUOUS
10
6.0940627559055116
20
-5.0422547244094487
11
6.0838459842519681
21
-5.0502590551181097
0
LINE
8
BLACK
6
CONTINUOUS
10
6.0838459842519681
20
-5.0502590551181097
11
6.0746685039370076
21
-5.059436535433071
0
LINE
8
BLACK
6
CONTINUOUS
10
6.0746685039370076
20
-5.059436535433071
11
6.0666641732283466
21
-5.0696533070866137
0
LINE
8
BLACK
6
CONTINUOUS
10
6.0666641732283466
20
-5.0696533070866137
11
6.0599496850393697
21
-5.080760433070866
0
LINE
8
BLACK
6
CONTINUOUS
10
6.0599496850393697
20
-5.080760433070866
11
6.0546229527559055
21
-5.0925958661417319
0
LINE
8
BLACK
6
CONTINUOUS
10
6.0546229527559055
20
-5.0925958661417319
11
6.0507616929133858
21
-5.1049871259842519
0
LINE
8
BLACK
6
CONTINUOUS
10
6.0507616929133858
20
-5.1049871259842519
11
6.0484222047244094
21
-5.1177534251968506
0
LINE
8
BLACK
6
CONTINUOUS
10
6.0484222047244094
20
-5.1177534251968506
11
6.0476385433070865
21
-5.130708661417323
0
LINE
8
BLACK
6
CONTINUOUS
10
6.0476385433070865
20
-5.130708661417323
11
6.0484222047244094
21
-5.1436638976377953
0
LINE
8
BLACK
6
CONTINUOUS
10
4.5747731889763781
20
-3.4192392913385827
11
4.5875810629921263
21
-3.4222748031496062
0
LINE
8
BLACK
6
CONTINUOUS
10
4.5875810629921263
20
-3.4222748031496062
11
4.599949960629921
21
-3.4267767322834644
0
LINE
8
BLACK
6
CONTINUOUS
10
4.599949960629921
20
-3.4267767322834644
11
4.6117125984251963
21
-3.4326841338582676
0
LINE
8
BLACK
6
CONTINUOUS
10
4.6117125984251963
20
-3.4326841338582676
11
4.6227098818897634
21
-3.4399171653543306
0
LINE
8
BLACK
6
CONTINUOUS
10
4.6227098818897634
20
-3.4399171653543306
11
4.6327931102362205
21
-3.4483779921259843
0
LINE
8
BLACK
6
CONTINUOUS
10
4.6327931102362205
20
-3.4483779921259843
11
4.6418259055118112
21
-3.4579522047244096
0
LINE
8
BLACK
6
CONTINUOUS
10
4.6418259055118112
20
-3.4579522047244096
11
4.6496861023622049
21
-3.4685103149606298
0
LINE
8
BLACK
6
CONTINUOUS
10
4.6496861023622049
20
-3.4685103149606298
11
4.6562674803149608
21
-3.4799095275590552
0
LINE
8
BLACK
6
CONTINUOUS
10
4.6562674803149608
20
-3.4799095275590552
11
4.6614809448818892
21
-3.491995748031496
0
LINE
8
BLACK
6
CONTINUOUS
10
4.6614809448818892
20
-3.491995748031496
11
4.6652560629921256
21
-3.5046054724409448
0
LINE
8
BLACK
6
CONTINUOUS
10
4.6652560629921256
20
-3.5046054724409448
11
4.667541732283464
21
-3.5175682283464567
0
LINE
8
BLACK
6
CONTINUOUS
10
4.667541732283464
20
-3.5175682283464567
11
4.6683070866141732
21
-3.5307086614173229
0
LINE
8
BLACK
6
CONTINUOUS
10
4.6683070866141732
20
-3.5307086614173229
11
4.667541732283464
21
-3.5438490944881891
0
LINE
8
BLACK
6
CONTINUOUS
10
4.667541732283464
20
-3.5438490944881891
11
4.6652560629921256
21
-3.5568118503937005
0
LINE
8
BLACK
6
CONTINUOUS
10
4.6652560629921256
20
-3.5568118503937005
11
4.6614809448818892
21
-3.5694215748031497
0
LINE
8
BLACK
6
CONTINUOUS
10
4.6614809448818892
20
-3.5694215748031497
11
4.6562674803149608
21
-3.5815077952755905
0
LINE
8
BLACK
6
CONTINUOUS
10
4.6562674803149608
20
-3.5815077952755905
11
4.6496861023622049
21
-3.5929070078740155
0
LINE
8
BLACK
6
CONTINUOUS
10
4.6496861023622049
20
-3.5929070078740155
11
4.6418259055118112
21
-3.6034651181102362
0
LINE
8
BLACK
6
CONTINUOUS
10
4.6418259055118112
20
-3.6034651181102362
11
4.6327931102362205
21
-3.6130393307086615
0
LINE
8
BLACK
6
CONTINUOUS
10
4.6327931102362205
20
-3.6130393307086615
11
4.6227098818897634
21
-3.6215001574803147
0
LINE
8
BLACK
6
CONTINUOUS
10
4.6227098818897634
20
-3.6215001574803147
11
4.6117125984251963
21
-3.6287331889763781
0
LINE
8
BLACK
6
CONTINUOUS
10
4.6117125984251963
20
-3.6287331889763781
11
4.599949960629921
21
-3.6346405905511809
0
LINE
8
BLACK
6
CONTINUOUS
10
4.599949960629921
20
-3.6346405905511809
11
4.5875810629921263
21
-3.6391425196850391
0
LINE
8
BLACK
6
CONTINUOUS
10
4.5875810629921263
20
-3.6391425196850391
11
4.5747731889763781
21
-3.642178031496063
0
LINE
8
BLACK
6
CONTINUOUS
10
4.5747731889763781
20
-3.642178031496063
11
4.5616994488188976
21
-3.6437061417322836
0
LINE
8
BLACK
6
CONTINUOUS
10
4.5616994488188976
20
-3.6437061417322836
11
4.5485367716535432
21
-3.6437061417322836
0
LINE
8
BLACK
6
CONTINUOUS
10
4.5485367716535432
20
-3.6437061417322836
11
4.5354630314960627
21
-3.642178031496063
0
LINE
8
BLACK
6
CONTINUOUS
10
4.5354630314960627
20
-3.642178031496063
11
4.5226551574803144
21
-3.6391425196850391
0
LINE
8
BLACK
6
CONTINUOUS
10
4.5226551574803144
20
-3.6391425196850391
11
4.5102862598425197
21
-3.6346405905511809
0
LINE
8
BLACK
6
CONTINUOUS
10
4.5102862598425197
20
-3.6346405905511809
11
4.4985236220472444
21
-3.6287331889763781
0
LINE
8
BLACK
6
CONTINUOUS
10
4.4985236220472444
20
-3.6287331889763781
11
4.4875263385826774
21
-3.6215001574803147
0
LINE
8
BLACK
6
CONTINUOUS
10
4.4875263385826774
20
-3.6215001574803147
11
4.4774431102362202
21
-3.6130393307086615
0
LINE
8
BLACK
6
CONTINUOUS
10
4.4774431102362202
20
-3.6130393307086615
11
4.4684103149606296
21
-3.6034651181102362
0
LINE
8
BLACK
6
CONTINUOUS
10
4.4684103149606296
20
-3.6034651181102362
11
4.4605501181102358
21
-3.5929070078740155
0
LINE
8
BLACK
6
CONTINUOUS
10
4.4605501181102358
20
-3.5929070078740155
11
4.4539687401574799
21
-3.5815077952755905
0
LINE
8
BLACK
6
CONTINUOUS
10
4.4539687401574799
20
-3.5815077952755905
11
4.4487552755905515
21
-3.5694215748031497
0
LINE
8
BLACK
6
CONTINUOUS
10
4.4487552755905515
20
-3.5694215748031497
11
4.4449801574803152
21
-3.5568118503937005
0
LINE
8
BLACK
6
CONTINUOUS
10
4.4449801574803152
20
-3.5568118503937005
11
4.4426944881889767
21
-3.5438490944881891
0
LINE
8
BLACK
6
CONTINUOUS
10
4.4426944881889767
20
-3.5438490944881891
11
4.4419291338582676
21
-3.5307086614173229
0
LINE
8
BLACK
6
CONTINUOUS
10
4.4419291338582676
20
-3.5307086614173229
11
4.4426944881889767
21
-3.5175682283464567
0
LINE
8
BLACK
6
CONTINUOUS
10
4.4426944881889767
20
-3.5175682283464567
11
4.4449801574803152
21
-3.5046054724409448
0
LINE
8
BLACK
6
CONTINUOUS
10
4.4449801574803152
20
-3.5046054724409448
11
4.4487552755905515
21
-3.491995748031496
0
LINE
8
BLACK
6
CONTINUOUS
10
4.4487552755905515
20
-3.491995748031496
11
4.4539687401574799
21
-3.4799095275590552
0
LINE
8
BLACK
6
CONTINUOUS
10
4.4539687401574799
20
-3.4799095275590552
11
4.4605501181102358
21
-3.4685103149606298
0
LINE
8
BLACK
6
CONTINUOUS
10
4.4605501181102358
20
-3.4685103149606298
11
4.4684103149606296
21
-3.4579522047244096
0
LINE
8
BLACK
6
CONTINUOUS
10
4.4684103149606296
20
-3.4579522047244096
11
4.4774431102362202
21
-3.4483779921259843
0
LINE
8
BLACK
6
CONTINUOUS
10
4.4774431102362202
20
-3.4483779921259843
11
4.4875263385826774
21
-3.4399171653543306
0
LINE
8
BLACK
6
CONTINUOUS
10
4.4875263385826774
20
-3.4399171653543306
11
4.4985236220472444
21
-3.4326841338582676
0
LINE
8
BLACK
6
CONTINUOUS
10
4.4985236220472444
20
-3.4326841338582676
11
4.5102862598425197
21
-3.4267767322834644
0
LINE
8
BLACK
6
CONTINUOUS
10
4.5102862598425197
20
-3.4267767322834644
11
4.5226551574803144
21
-3.4222748031496062
0
LINE
8
BLACK
6
CONTINUOUS
10
4.5226551574803144
20
-3.4222748031496062
11
4.5354630314960627
21
-3.4192392913385827
0
LINE
8
BLACK
6
CONTINUOUS
10
4.5354630314960627
20
-3.4192392913385827
11
4.5485367716535432
21
-3.4177111811023622
0
LINE
8
BLACK
6
CONTINUOUS
10
4.5485367716535432
20
-3.4177111811023622
11
4.5616994488188976
21
-3.4177111811023622
0
LINE
8
BLACK
6
CONTINUOUS
10
4.5616994488188976
20
-3.4177111811023622
11
4.5747731889763781
21
-3.4192392913385827
0
LINE
8
BLACK
6
CONTINUOUS
10
4.4484222047244097
20
-3.5436638976377952
11
4.4507616929133853
21
-3.5564301968503935
0
LINE
8
BLACK
6
CONTINUOUS
10
4.4507616929133853
20
-3.5564301968503935
11
4.4546229527559058
21
-3.5688214566929135
0
LINE
8
BLACK
6
CONTINUOUS
10
4.4546229527559058
20
-3.5688214566929135
11
4.4599496850393701
21
-3.5806568897637794
0
LINE
8
BLACK
6
CONTINUOUS
10
4.4599496850393701
20
-3.5806568897637794
11
4.4666641732283461
21
-3.5917640157480313
0
LINE
8
BLACK
6
CONTINUOUS
10
4.4666641732283461
20
-3.5917640157480313
11
4.474668503937008
21
-3.6019807874015748
0
LINE
8
BLACK
6
CONTINUOUS
10
4.474668503937008
20
-3.6019807874015748
11
4.4838459842519685
21
-3.6111582677165353
0
LINE
8
BLACK
6
CONTINUOUS
10
4.4838459842519685
20
-3.6111582677165353
11
4.494062755905512
21
-3.6191625984251967
0
LINE
8
BLACK
6
CONTINUOUS
10
4.494062755905512
20
-3.6191625984251967
11
4.5051698818897634
21
-3.6258770866141732
0
LINE
8
BLACK
6
CONTINUOUS
10
4.5051698818897634
20
-3.6258770866141732
11
4.5170053149606302
21
-3.6312038188976379
0
LINE
8
BLACK
6
CONTINUOUS
10
4.5170053149606302
20
-3.6312038188976379
11
4.5293965748031493
21
-3.6350650787401575
0
LINE
8
BLACK
6
CONTINUOUS
10
4.5293965748031493
20
-3.6350650787401575
11
4.542162874015748
21
-3.6374045669291339
0
LINE
8
BLACK
6
CONTINUOUS
10
4.542162874015748
20
-3.6374045669291339
11
4.5551181102362204
21
-3.6381882283464568
0
LINE
8
BLACK
6
CONTINUOUS
10
4.5551181102362204
20
-3.6381882283464568
11
4.5680733464566927
21
-3.6374045669291339
0
LINE
8
BLACK
6
CONTINUOUS
10
4.5680733464566927
20
-3.6374045669291339
11
4.5808396456692915
21
-3.6350650787401575
0
LINE
8
BLACK
6
CONTINUOUS
10
4.5808396456692915
20
-3.6350650787401575
11
4.5932309055118106
21
-3.6312038188976379
0
LINE
8
BLACK
6
CONTINUOUS
10
4.5932309055118106
20
-3.6312038188976379
11
4.6050663385826773
21
-3.6258770866141732
0
LINE
8
BLACK
6
CONTINUOUS
10
4.6050663385826773
20
-3.6258770866141732
11
4.6161734645669288
21
-3.6191625984251967
0
LINE
8
BLACK
6
CONTINUOUS
10
4.6161734645669288
20
-3.6191625984251967
11
4.6263902362204723
21
-3.6111582677165353
0
LINE
8
BLACK
6
CONTINUOUS
10
4.6263902362204723
20
-3.6111582677165353
11
4.6355677165354328
21
-3.6019807874015748
0
LINE
8
BLACK
6
CONTINUOUS
10
4.6355677165354328
20
-3.6019807874015748
11
4.6435720472440947
21
-3.5917640157480313
0
LINE
8
BLACK
6
CONTINUOUS
10
4.6435720472440947
20
-3.5917640157480313
11
4.6502865354330707
21
-3.5806568897637794
0
LINE
8
BLACK
6
CONTINUOUS
10
4.6502865354330707
20
-3.5806568897637794
11
4.6556132677165349
21
-3.5688214566929135
0
LINE
8
BLACK
6
CONTINUOUS
10
4.6556132677165349
20
-3.5688214566929135
11
4.6594745275590554
21
-3.5564301968503935
0
LINE
8
BLACK
6
CONTINUOUS
10
4.6594745275590554
20
-3.5564301968503935
11
4.661814015748031
21
-3.5436638976377952
0
LINE
8
BLACK
6
CONTINUOUS
10
4.661814015748031
20
-3.5436638976377952
11
4.6625976771653539
21
-3.5307086614173229
0
LINE
8
BLACK
6
CONTINUOUS
10
4.6625976771653539
20
-3.5307086614173229
11
4.661814015748031
21
-3.5177534251968505
0
LINE
8
BLACK
6
CONTINUOUS
10
4.661814015748031
20
-3.5177534251968505
11
4.6594745275590554
21
-3.5049871259842518
0
LINE
8
BLACK
6
CONTINUOUS
10
4.6594745275590554
20
-3.5049871259842518
11
4.6556132677165349
21
-3.4925958661417322
0
LINE
8
BLACK
6
CONTINUOUS
10
4.6556132677165349
20
-3.4925958661417322
11
4.6502865354330707
21
-3.4807604330708659
0
LINE
8
BLACK
6
CONTINUOUS
10
4.6502865354330707
20
-3.4807604330708659
11
4.6435720472440947
21
-3.469653307086614
0
LINE
8
BLACK
6
CONTINUOUS
10
4.6435720472440947
20
-3.469653307086614
11
4.6355677165354328
21
-3.4594365354330709
0
LINE
8
BLACK
6
CONTINUOUS
10
4.6355677165354328
20
-3.4594365354330709
11
4.6263902362204723
21
-3.45025905511811
0
LINE
8
BLACK
6
CONTINUOUS
10
4.6263902362204723
20
-3.45025905511811
11
4.6161734645669288
21
-3.4422547244094486
0
LINE
8
BLACK
6
CONTINUOUS
10
4.6161734645669288
20
-3.4422547244094486
11
4.6050663385826773
21
-3.4355402362204726
0
LINE
8
BLACK
6
CONTINUOUS
10
4.6050663385826773
20
-3.4355402362204726
11
4.5932309055118106
21
-3.4302135039370079
0
LINE
8
BLACK
6
CONTINUOUS
10
4.5932309055118106
20
-3.4302135039370079
11
4.5808396456692915
21
-3.4263522440944882
0
LINE
8
BLACK
6
CONTINUOUS
10
4.5808396456692915
20
-3.4263522440944882
11
4.5680733464566927
21
-3.4240127559055118
0
LINE
8
BLACK
6
CONTINUOUS
10
4.5680733464566927
20
-3.4240127559055118
11
4.5551181102362204
21
-3.4232290944881889
0
LINE
8
BLACK
6
CONTINUOUS
10
4.5551181102362204
20
-3.4232290944881889
11
4.542162874015748
21
-3.4240127559055118
0
LINE
8
BLACK
6
CONTINUOUS
10
4.542162874015748
20
-3.4240127559055118
11
4.5293965748031493
21
-3.4263522440944882
0
LINE
8
BLACK
6
CONTINUOUS
10
4.5293965748031493
20
-3.4263522440944882
11
4.5170053149606302
21
-3.4302135039370079
0
LINE
8
BLACK
6
CONTINUOUS
10
4.5170053149606302
20
-3.4302135039370079
11
4.5051698818897634
21
-3.4355402362204726
0
LINE
8
BLACK
6
CONTINUOUS
10
4.5051698818897634
20
-3.4355402362204726
11
4.494062755905512
21
-3.4422547244094486
0
LINE
8
BLACK
6
CONTINUOUS
10
4.494062755905512
20
-3.4422547244094486
11
4.4838459842519685
21
-3.45025905511811
0
LINE
8
BLACK
6
CONTINUOUS
10
4.4838459842519685
20
-3.45025905511811
11
4.474668503937008
21
-3.4594365354330709
0
LINE
8
BLACK
6
CONTINUOUS
10
4.474668503937008
20
-3.4594365354330709
11
4.4666641732283461
21
-3.469653307086614
0
LINE
8
BLACK
6
CONTINUOUS
10
4.4666641732283461
20
-3.469653307086614
11
4.4599496850393701
21
-3.4807604330708659
0
LINE
8
BLACK
6
CONTINUOUS
10
4.4599496850393701
20
-3.4807604330708659
11
4.4546229527559058
21
-3.4925958661417322
0
LINE
8
BLACK
6
CONTINUOUS
10
4.4546229527559058
20
-3.4925958661417322
11
4.4507616929133853
21
-3.5049871259842518
0
LINE
8
BLACK
6
CONTINUOUS
10
4.4507616929133853
20
-3.5049871259842518
11
4.4484222047244097
21
-3.5177534251968505
0
LINE
8
BLACK
6
CONTINUOUS
10
4.4484222047244097
20
-3.5177534251968505
11
4.4476385433070869
21
-3.5307086614173229
0
LINE
8
BLACK
6
CONTINUOUS
10
4.4476385433070869
20
-3.5307086614173229
11
4.4484222047244097
21
-3.5436638976377952
0
LINE
8
BLACK
6
CONTINUOUS
10
6.1747731889763777
20
-3.4192392913385827
11
6.187581062992126
21
-3.4222748031496062
0
LINE
8
BLACK
6
CONTINUOUS
10
6.187581062992126
20
-3.4222748031496062
11
6.1999499606299215
21
-3.4267767322834644
0
LINE
8
BLACK
6
CONTINUOUS
10
6.1999499606299215
20
-3.4267767322834644
11
6.2117125984251969
21
-3.4326841338582676
0
LINE
8
BLACK
6
CONTINUOUS
10
6.2117125984251969
20
-3.4326841338582676
11
6.2227098818897639
21
-3.4399171653543306
0
LINE
8
BLACK
6
CONTINUOUS
10
6.2227098818897639
20
-3.4399171653543306
11
6.2327931102362202
21
-3.4483779921259843
0
LINE
8
BLACK
6
CONTINUOUS
10
6.2327931102362202
20
-3.4483779921259843
11
6.2418259055118108
21
-3.4579522047244096
0
LINE
8
BLACK
6
CONTINUOUS
10
6.2418259055118108
20
-3.4579522047244096
11
6.2496861023622046
21
-3.4685103149606298
0
LINE
8
BLACK
6
CONTINUOUS
10
6.2496861023622046
20
-3.4685103149606298
11
6.2562674803149605
21
-3.4799095275590552
0
LINE
8
BLACK
6
CONTINUOUS
10
6.2562674803149605
20
-3.4799095275590552
11
6.2614809448818898
21
-3.491995748031496
0
LINE
8
BLACK
6
CONTINUOUS
10
6.2614809448818898
20
-3.491995748031496
11
6.2652560629921261
21
-3.5046054724409448
0
LINE
8
BLACK
6
CONTINUOUS
10
6.2652560629921261
20
-3.5046054724409448
11
6.2675417322834646
21
-3.5175682283464567
0
LINE
8
BLACK
6
CONTINUOUS
10
6.2675417322834646
20
-3.5175682283464567
11
6.2683070866141728
21
-3.5307086614173229
0
LINE
8
BLACK
6
CONTINUOUS
10
6.2683070866141728
20
-3.5307086614173229
11
6.2675417322834646
21
-3.5438490944881891
0
LINE
8
BLACK
6
CONTINUOUS
10
6.2675417322834646
20
-3.5438490944881891
11
6.2652560629921261
21
-3.5568118503937005
0
LINE
8
BLACK
6
CONTINUOUS
10
6.2652560629921261
20
-3.5568118503937005
11
6.2614809448818898
21
-3.5694215748031497
0
LINE
8
BLACK
6
CONTINUOUS
10
6.2614809448818898
20
-3.5694215748031497
11
6.2562674803149605
21
-3.5815077952755905
0
LINE
8
BLACK
6
CONTINUOUS
10
6.2562674803149605
20
-3.5815077952755905
11
6.2496861023622046
21
-3.5929070078740155
0
LINE
8
BLACK
6
CONTINUOUS
10
6.2496861023622046
20
-3.5929070078740155
11
6.2418259055118108
21
-3.6034651181102362
0
LINE
8
BLACK
6
CONTINUOUS
10
6.2418259055118108
20
-3.6034651181102362
11
6.2327931102362202
21
-3.6130393307086615
0
LINE
8
BLACK
6
CONTINUOUS
10
6.2327931102362202
20
-3.6130393307086615
11
6.2227098818897639
21
-3.6215001574803147
0
LINE
8
BLACK
6
CONTINUOUS
10
6.2227098818897639
20
-3.6215001574803147
11
6.2117125984251969
21
-3.6287331889763781
0
LINE
8
BLACK
6
CONTINUOUS
10
6.2117125984251969
20
-3.6287331889763781
11
6.1999499606299215
21
-3.6346405905511809
0
LINE
8
BLACK
6
CONTINUOUS
10
6.1999499606299215
20
-3.6346405905511809
11
6.187581062992126
21
-3.6391425196850391
0
LINE
8
BLACK
6
CONTINUOUS
10
6.187581062992126
20
-3.6391425196850391
11
6.1747731889763777
21
-3.642178031496063
0
LINE
8
BLACK
6
CONTINUOUS
10
6.1747731889763777
20
-3.642178031496063
11
6.1616994488188972
21
-3.6437061417322836
0
LINE
8
BLACK
6
CONTINUOUS
10
6.1616994488188972
20
-3.6437061417322836
11
6.1485367716535428
21
-3.6437061417322836
0
LINE
8
BLACK
6
CONTINUOUS
10
6.1485367716535428
20
-3.6437061417322836
11
6.1354630314960632
21
-3.642178031496063
0
LINE
8
BLACK
6
CONTINUOUS
10
6.1354630314960632
20
-3.642178031496063
11
6.122655157480315
21
-3.6391425196850391
0
LINE
8
BLACK
6
CONTINUOUS
10
6.122655157480315
20
-3.6391425196850391
11
6.1102862598425194
21
-3.6346405905511809
0
LINE
8
BLACK
6
CONTINUOUS
10
6.1102862598425194
20
-3.6346405905511809
11
6.0985236220472441
21
-3.6287331889763781
0
LINE
8
BLACK
6
CONTINUOUS
10
6.0985236220472441
20
-3.6287331889763781
11
6.087526338582677
21
-3.6215001574803147
0
LINE
8
BLACK
6
CONTINUOUS
10
6.087526338582677
20
-3.6215001574803147
11
6.0774431102362207
21
-3.6130393307086615
0
LINE
8
BLACK
6
CONTINUOUS
10
6.0774431102362207
20
-3.6130393307086615
11
6.0684103149606301
21
-3.6034651181102362
0
LINE
8
BLACK
6
CONTINUOUS
10
6.0684103149606301
20
-3.6034651181102362
11
6.0605501181102364
21
-3.5929070078740155
0
LINE
8
BLACK
6
CONTINUOUS
10
6.0605501181102364
20
-3.5929070078740155
11
6.0539687401574804
21
-3.5815077952755905
0
LINE
8
BLACK
6
CONTINUOUS
10
6.0539687401574804
20
-3.5815077952755905
11
6.0487552755905512
21
-3.5694215748031497
0
LINE
8
BLACK
6
CONTINUOUS
10
6.0487552755905512
20
-3.5694215748031497
11
6.0449801574803148
21
-3.5568118503937005
0
LINE
8
BLACK
6
CONTINUOUS
10
6.0449801574803148
20
-3.5568118503937005
11
6.0426944881889764
21
-3.5438490944881891
0
LINE
8
BLACK
6
CONTINUOUS
10
6.0426944881889764
20
-3.5438490944881891
11
6.0419291338582672
21
-3.5307086614173229
0
LINE
8
BLACK
6
CONTINUOUS
10
6.0419291338582672
20
-3.5307086614173229
11
6.0426944881889764
21
-3.5175682283464567
0
LINE
8
BLACK
6
CONTINUOUS
10
6.0426944881889764
20
-3.5175682283464567
11
6.0449801574803148
21
-3.5046054724409448
0
LINE
8
BLACK
6
CONTINUOUS
10
6.0449801574803148
20
-3.5046054724409448
11
6.0487552755905512
21
-3.491995748031496
0
LINE
8
BLACK
6
CONTINUOUS
10
6.0487552755905512
20
-3.491995748031496
11
6.0539687401574804
21
-3.4799095275590552
0
LINE
8
BLACK
6
CONTINUOUS
10
6.0539687401574804
20
-3.4799095275590552
11
6.0605501181102364
21
-3.4685103149606298
0
LINE
8
BLACK
6
CONTINUOUS
10
6.0605501181102364
20
-3.4685103149606298
11
6.0684103149606301
21
-3.4579522047244096
0
LINE
8
BLACK
6
CONTINUOUS
10
6.0684103149606301
20
-3.4579522047244096
11
6.0774431102362207
21
-3.4483779921259843
0
LINE
8
BLACK
6
CONTINUOUS
10
6.0774431102362207
20
-3.4483779921259843
11
6.087526338582677
21
-3.4399171653543306
0
LINE
8
BLACK
6
CONTINUOUS
10
6.087526338582677
20
-3.4399171653543306
11
6.0985236220472441
21
-3.4326841338582676
0
LINE
8
BLACK
6
CONTINUOUS
10
6.0985236220472441
20
-3.4326841338582676
11
6.1102862598425194
21
-3.4267767322834644
0
LINE
8
BLACK
6
CONTINUOUS
10
6.1102862598425194
20
-3.4267767322834644
11
6.122655157480315
21
-3.4222748031496062
0
LINE
8
BLACK
6
CONTINUOUS
10
6.122655157480315
20
-3.4222748031496062
11
6.1354630314960632
21
-3.4192392913385827
0
LINE
8
BLACK
6
CONTINUOUS
10
6.1354630314960632
20
-3.4192392913385827
11
6.1485367716535428
21
-3.4177111811023622
0
LINE
8
BLACK
6
CONTINUOUS
10
6.1485367716535428
20
-3.4177111811023622
11
6.1616994488188972
21
-3.4177111811023622
0
LINE
8
BLACK
6
CONTINUOUS
10
6.1616994488188972
20
-3.4177111811023622
11
6.1747731889763777
21
-3.4192392913385827
0
LINE
8
BLACK
6
CONTINUOUS
10
6.0484222047244094
20
-3.5436638976377952
11
6.0507616929133858
21
-3.5564301968503935
0
LINE
8
BLACK
6
CONTINUOUS
10
6.0507616929133858
20
-3.5564301968503935
11
6.0546229527559055
21
-3.5688214566929135
0
LINE
8
BLACK
6
CONTINUOUS
10
6.0546229527559055
20
-3.5688214566929135
11
6.0599496850393697
21
-3.5806568897637794
0
LINE
8
BLACK
6
CONTINUOUS
10
6.0599496850393697
20
-3.5806568897637794
11
6.0666641732283466
21
-3.5917640157480313
0
LINE
8
BLACK
6
CONTINUOUS
10
6.0666641732283466
20
-3.5917640157480313
11
6.0746685039370076
21
-3.6019807874015748
0
LINE
8
BLACK
6
CONTINUOUS
10
6.0746685039370076
20
-3.6019807874015748
11
6.0838459842519681
21
-3.6111582677165353
0
LINE
8
BLACK
6
CONTINUOUS
10
6.0838459842519681
20
-3.6111582677165353
11
6.0940627559055116
21
-3.6191625984251967
0
LINE
8
BLACK
6
CONTINUOUS
10
6.0940627559055116
20
-3.6191625984251967
11
6.1051698818897639
21
-3.6258770866141732
0
LINE
8
BLACK
6
CONTINUOUS
10
6.1051698818897639
20
-3.6258770866141732
11
6.1170053149606298
21
-3.6312038188976379
0
LINE
8
BLACK
6
CONTINUOUS
10
6.1170053149606298
20
-3.6312038188976379
11
6.1293965748031498
21
-3.6350650787401575
0
LINE
8
BLACK
6
CONTINUOUS
10
6.1293965748031498
20
-3.6350650787401575
11
6.1421628740157477
21
-3.6374045669291339
0
LINE
8
BLACK
6
CONTINUOUS
10
6.1421628740157477
20
-3.6374045669291339
11
6.15511811023622
21
-3.6381882283464568
0
LINE
8
BLACK
6
CONTINUOUS
10
6.15511811023622
20
-3.6381882283464568
11
6.1680733464566924
21
-3.6374045669291339
0
LINE
8
BLACK
6
CONTINUOUS
10
6.1680733464566924
20
-3.6374045669291339
11
6.1808396456692911
21
-3.6350650787401575
0
LINE
8
BLACK
6
CONTINUOUS
10
6.1808396456692911
20
-3.6350650787401575
11
6.1932309055118111
21
-3.6312038188976379
0
LINE
8
BLACK
6
CONTINUOUS
10
6.1932309055118111
20
-3.6312038188976379
11
6.205066338582677
21
-3.6258770866141732
0
LINE
8
BLACK
6
CONTINUOUS
10
6.205066338582677
20
-3.6258770866141732
11
6.2161734645669293
21
-3.6191625984251967
0
LINE
8
BLACK
6
CONTINUOUS
10
6.2161734645669293
20
-3.6191625984251967
11
6.2263902362204719
21
-3.6111582677165353
0
LINE
8
BLACK
6
CONTINUOUS
10
6.2263902362204719
20
-3.6111582677165353
11
6.2355677165354333
21
-3.6019807874015748
0
LINE
8
BLACK
6
CONTINUOUS
10
6.2355677165354333
20
-3.6019807874015748
11
6.2435720472440943
21
-3.5917640157480313
0
LINE
8
BLACK
6
CONTINUOUS
10
6.2435720472440943
20
-3.5917640157480313
11
6.2502865354330703
21
-3.5806568897637794
0
LINE
8
BLACK
6
CONTINUOUS
10
6.2502865354330703
20
-3.5806568897637794
11
6.2556132677165355
21
-3.5688214566929135
0
LINE
8
BLACK
6
CONTINUOUS
10
6.2556132677165355
20
-3.5688214566929135
11
6.2594745275590551
21
-3.5564301968503935
0
LINE
8
BLACK
6
CONTINUOUS
10
6.2594745275590551
20
-3.5564301968503935
11
6.2618140157480315
21
-3.5436638976377952
0
LINE
8
BLACK
6
CONTINUOUS
10
6.2618140157480315
20
-3.5436638976377952
11
6.2625976771653544
21
-3.5307086614173229
0
LINE
8
BLACK
6
CONTINUOUS
10
6.2625976771653544
20
-3.5307086614173229
11
6.2618140157480315
21
-3.5177534251968505
0
LINE
8
BLACK
6
CONTINUOUS
10
6.2618140157480315
20
-3.5177534251968505
11
6.2594745275590551
21
-3.5049871259842518
0
LINE
8
BLACK
6
CONTINUOUS
10
6.2594745275590551
20
-3.5049871259842518
11
6.2556132677165355
21
-3.4925958661417322
0
LINE
8
BLACK
6
CONTINUOUS
10
6.2556132677165355
20
-3.4925958661417322
11
6.2502865354330703
21
-3.4807604330708659
0
LINE
8
BLACK
6
CONTINUOUS
10
6.2502865354330703
20
-3.4807604330708659
11
6.2435720472440943
21
-3.469653307086614
0
LINE
8
BLACK
6
CONTINUOUS
10
6.2435720472440943
20
-3.469653307086614
11
6.2355677165354333
21
-3.4594365354330709
0
LINE
8
BLACK
6
CONTINUOUS
10
6.2355677165354333
20
-3.4594365354330709
11
6.2263902362204719
21
-3.45025905511811
0
LINE
8
BLACK
6
CONTINUOUS
10
6.2263902362204719
20
-3.45025905511811
11
6.2161734645669293
21
-3.4422547244094486
0
LINE
8
BLACK
6
CONTINUOUS
10
6.2161734645669293
20
-3.4422547244094486
11
6.205066338582677
21
-3.4355402362204726
0
LINE
8
BLACK
6
CONTINUOUS
10
6.205066338582677
20
-3.4355402362204726
11
6.1932309055118111
21
-3.4302135039370079
0
LINE
8
BLACK
6
CONTINUOUS
10
6.1932309055118111
20
-3.4302135039370079
11
6.1808396456692911
21
-3.4263522440944882
0
LINE
8
BLACK
6
CONTINUOUS
10
6.1808396456692911
20
-3.4263522440944882
11
6.1680733464566924
21
-3.4240127559055118
0
LINE
8
BLACK
6
CONTINUOUS
10
6.1680733464566924
20
-3.4240127559055118
11
6.15511811023622
21
-3.4232290944881889
0
LINE
8
BLACK
6
CONTINUOUS
10
6.15511811023622
20
-3.4232290944881889
11
6.1421628740157477
21
-3.4240127559055118
0
LINE
8
BLACK
6
CONTINUOUS
10
6.1421628740157477
20
-3.4240127559055118
11
6.1293965748031498
21
-3.4263522440944882
0
LINE
8
BLACK
6
CONTINUOUS
10
6.1293965748031498
20
-3.4263522440944882
11
6.1170053149606298
21
-3.4302135039370079
0
LINE
8
BLACK
6
CONTINUOUS
10
6.1170053149606298
20
-3.4302135039370079
11
6.1051698818897639
21
-3.4355402362204726
0
LINE
8
BLACK
6
CONTINUOUS
10
6.1051698818897639
20
-3.4355402362204726
11
6.0940627559055116
21
-3.4422547244094486
0
LINE
8
BLACK
6
CONTINUOUS
10
6.0940627559055116
20
-3.4422547244094486
11
6.0838459842519681
21
-3.45025905511811
0
LINE
8
BLACK
6
CONTINUOUS
10
6.0838459842519681
20
-3.45025905511811
11
6.0746685039370076
21
-3.4594365354330709
0
LINE
8
BLACK
6
CONTINUOUS
10
6.0746685039370076
20
-3.4594365354330709
11
6.0666641732283466
21
-3.469653307086614
0
LINE
8
BLACK
6
CONTINUOUS
10
6.0666641732283466
20
-3.469653307086614
11
6.0599496850393697
21
-3.4807604330708659
0
LINE
8
BLACK
6
CONTINUOUS
10
6.0599496850393697
20
-3.4807604330708659
11
6.0546229527559055
21
-3.4925958661417322
0
LINE
8
BLACK
6
CONTINUOUS
10
6.0546229527559055
20
-3.4925958661417322
11
6.0507616929133858
21
-3.5049871259842518
0
LINE
8
BLACK
6
CONTINUOUS
10
6.0507616929133858
20
-3.5049871259842518
11
6.0484222047244094
21
-3.5177534251968505
0
LINE
8
BLACK
6
CONTINUOUS
10
6.0484222047244094
20
-3.5177534251968505
11
6.0476385433070865
21
-3.5307086614173229
0
LINE
8
BLACK
6
CONTINUOUS
10
6.0476385433070865
20
-3.5307086614173229
11
6.0484222047244094
21
-3.5436638976377952
0
CIRCLE
8
BLACK
10
6.15511811023622
20
-5.130708661417323
40
0.0068897637795276
0
CIRCLE
8
BLACK
10
4.5551181102362204
20
-3.5307086614173229
40
0.0068897637795276
0
CIRCLE
8
BLACK
10
4.5551181102362204
20
-5.130708661417323
40
0.0068897637795276
0
CIRCLE
8
BLACK
10
6.15511811023622
20
-3.5307086614173229
40
0.0068897637795276
  0
ENDSEC
  0
EOF
