  0
SECTION
  2
HEADER
  9
$ANGBASE
  50
0.0
  9
$ANGDIR
  70
1
  9
$MEASUREMENT
  70
0
  0
ENDSEC
  0
SECTION
  2
TABLES
  0
TABLE
  2
LTYPE
  70
4
  0
LTYPE
  5
40F
  2
CONTINUOUS
  70
0
  3
Solid line
  72
65
  73
0
  40
0.0
  0
LTYPE
  5
410
  2
DASHDOT
 70
0
  3
Dash Dot ____ _ ____ _
 72
65
 73
4
 40
2.0
 49
1.25
 49
-0.25
 49
0.25
 49
-0.25
  0
LTYPE
  5
411
  2
DASHED
 70
0
  3
Dashed __ __ __ __ __
 72
65
 73
2
 40
0.75
 49
0.5
 49
-0.25
  0
LTYPE
  5
43B
  2
DOTTED
 70
0
  3
Dotted .  .  .  .
 72
65
 73
2
 40
0.2
 49
0.0
 49
-0.2
  0
ENDTAB
  0
TABLE
  2
STYLE
  70
4
  0
STYLE
  2
KICAD
  70
0
  40
0
  41
1
  42
1
  50
0
  71
0
  3
isocp.shx
  0
STYLE
  2
KICADB
  70
0
  40
0
  41
1
  42
1
  50
0
  71
0
  3
isocp.shx
  0
STYLE
  2
KICADI
  70
0
  40
0
  41
1
  42
1
  50
15
  71
0
  3
isocp.shx
  0
STYLE
  2
KICADBI
  70
0
  40
0
  41
1
  42
1
  50
15
  71
0
  3
isocp.shx
  0
ENDTAB
  0
TABLE
  2
LAYER
  70
1
  0
LAYER
  2
BLACK
  70
0
  62
7
  6
CONTINUOUS
  0
ENDTAB
  0
ENDSEC
  0
SECTION
  2
ENTITIES
0
LINE
8
BLACK
6
CONTINUOUS
10
4.574260433070866
20
-5.0221471653543306
11
4.586734212598425
21
-5.0251035039370073
0
LINE
8
BLACK
6
CONTINUOUS
10
4.586734212598425
20
-5.0251035039370073
11
4.5987804330708659
21
-5.0294879921259845
0
LINE
8
BLACK
6
CONTINUOUS
10
4.5987804330708659
20
-5.0294879921259845
11
4.6102362204724407
21
-5.0352412992125979
0
LINE
8
BLACK
6
CONTINUOUS
10
4.6102362204724407
20
-5.0352412992125979
11
4.6209466141732278
21
-5.0422856299212597
0
LINE
8
BLACK
6
CONTINUOUS
10
4.6209466141732278
20
-5.0422856299212597
11
4.630766811023622
21
-5.0505257480314958
0
LINE
8
BLACK
6
CONTINUOUS
10
4.630766811023622
20
-5.0505257480314958
11
4.6395639370078738
21
-5.0598501968503937
0
LINE
8
BLACK
6
CONTINUOUS
10
4.6395639370078738
20
-5.0598501968503937
11
4.6472191338582673
21
-5.0701328740157479
0
LINE
8
BLACK
6
CONTINUOUS
10
4.6472191338582673
20
-5.0701328740157479
11
4.6536287795275593
21
-5.0812347244094491
0
LINE
8
BLACK
6
CONTINUOUS
10
4.6536287795275593
20
-5.0812347244094491
11
4.6587062598425195
21
-5.0930056692913386
0
LINE
8
BLACK
6
CONTINUOUS
10
4.6587062598425195
20
-5.0930056692913386
11
4.6623829133858266
21
-5.1052864566929133
0
LINE
8
BLACK
6
CONTINUOUS
10
4.6623829133858266
20
-5.1052864566929133
11
4.6646089370078743
21
-5.1179110236220469
0
LINE
8
BLACK
6
CONTINUOUS
10
4.6646089370078743
20
-5.1179110236220469
11
4.6653543307086611
21
-5.130708661417323
0
LINE
8
BLACK
6
CONTINUOUS
10
4.6653543307086611
20
-5.130708661417323
11
4.6646089370078743
21
-5.1435062992125982
0
LINE
8
BLACK
6
CONTINUOUS
10
4.6646089370078743
20
-5.1435062992125982
11
4.6623829133858266
21
-5.1561308661417318
0
LINE
8
BLACK
6
CONTINUOUS
10
4.6623829133858266
20
-5.1561308661417318
11
4.6587062598425195
21
-5.1684116535433073
0
LINE
8
BLACK
6
CONTINUOUS
10
4.6587062598425195
20
-5.1684116535433073
11
4.6536287795275593
21
-5.1801825984251968
0
LINE
8
BLACK
6
CONTINUOUS
10
4.6536287795275593
20
-5.1801825984251968
11
4.6472191338582673
21
-5.1912844488188972
0
LINE
8
BLACK
6
CONTINUOUS
10
4.6472191338582673
20
-5.1912844488188972
11
4.6395639370078738
21
-5.2015671259842522
0
LINE
8
BLACK
6
CONTINUOUS
10
4.6395639370078738
20
-5.2015671259842522
11
4.630766811023622
21
-5.2108915748031492
0
LINE
8
BLACK
6
CONTINUOUS
10
4.630766811023622
20
-5.2108915748031492
11
4.6209466141732278
21
-5.2191316929133853
0
LINE
8
BLACK
6
CONTINUOUS
10
4.6209466141732278
20
-5.2191316929133853
11
4.6102362204724407
21
-5.2261760236220471
0
LINE
8
BLACK
6
CONTINUOUS
10
4.6102362204724407
20
-5.2261760236220471
11
4.5987804330708659
21
-5.2319293307086614
0
LINE
8
BLACK
6
CONTINUOUS
10
4.5987804330708659
20
-5.2319293307086614
11
4.586734212598425
21
-5.2363138188976377
0
LINE
8
BLACK
6
CONTINUOUS
10
4.586734212598425
20
-5.2363138188976377
11
4.574260433070866
21
-5.2392701574803144
0
LINE
8
BLACK
6
CONTINUOUS
10
4.574260433070866
20
-5.2392701574803144
11
4.5615277952755902
21
-5.2407583858267719
0
LINE
8
BLACK
6
CONTINUOUS
10
4.5615277952755902
20
-5.2407583858267719
11
4.5487084251968506
21
-5.2407583858267719
0
LINE
8
BLACK
6
CONTINUOUS
10
4.5487084251968506
20
-5.2407583858267719
11
4.5359757874015747
21
-5.2392701574803144
0
LINE
8
BLACK
6
CONTINUOUS
10
4.5359757874015747
20
-5.2392701574803144
11
4.5235020078740158
21
-5.2363138188976377
0
LINE
8
BLACK
6
CONTINUOUS
10
4.5235020078740158
20
-5.2363138188976377
11
4.5114557874015748
21
-5.2319293307086614
0
LINE
8
BLACK
6
CONTINUOUS
10
4.5114557874015748
20
-5.2319293307086614
11
4.5
21
-5.2261760236220471
0
LINE
8
BLACK
6
CONTINUOUS
10
4.5
20
-5.2261760236220471
11
4.4892896062992129
21
-5.2191316929133853
0
LINE
8
BLACK
6
CONTINUOUS
10
4.4892896062992129
20
-5.2191316929133853
11
4.4794694094488188
21
-5.2108915748031492
0
LINE
8
BLACK
6
CONTINUOUS
10
4.4794694094488188
20
-5.2108915748031492
11
4.4706722834645669
21
-5.2015671259842522
0
LINE
8
BLACK
6
CONTINUOUS
10
4.4706722834645669
20
-5.2015671259842522
11
4.4630170866141734
21
-5.1912844488188972
0
LINE
8
BLACK
6
CONTINUOUS
10
4.4630170866141734
20
-5.1912844488188972
11
4.4566074409448815
21
-5.1801825984251968
0
LINE
8
BLACK
6
CONTINUOUS
10
4.4566074409448815
20
-5.1801825984251968
11
4.4515299606299212
21
-5.1684116535433073
0
LINE
8
BLACK
6
CONTINUOUS
10
4.4515299606299212
20
-5.1684116535433073
11
4.4478533070866142
21
-5.1561308661417318
0
LINE
8
BLACK
6
CONTINUOUS
10
4.4478533070866142
20
-5.1561308661417318
11
4.4456272834645665
21
-5.1435062992125982
0
LINE
8
BLACK
6
CONTINUOUS
10
4.4456272834645665
20
-5.1435062992125982
11
4.4448818897637796
21
-5.130708661417323
0
LINE
8
BLACK
6
CONTINUOUS
10
4.4448818897637796
20
-5.130708661417323
11
4.4456272834645665
21
-5.1179110236220469
0
LINE
8
BLACK
6
CONTINUOUS
10
4.4456272834645665
20
-5.1179110236220469
11
4.4478533070866142
21
-5.1052864566929133
0
LINE
8
BLACK
6
CONTINUOUS
10
4.4478533070866142
20
-5.1052864566929133
11
4.4515299606299212
21
-5.0930056692913386
0
LINE
8
BLACK
6
CONTINUOUS
10
4.4515299606299212
20
-5.0930056692913386
11
4.4566074409448815
21
-5.0812347244094491
0
LINE
8
BLACK
6
CONTINUOUS
10
4.4566074409448815
20
-5.0812347244094491
11
4.4630170866141734
21
-5.0701328740157479
0
LINE
8
BLACK
6
CONTINUOUS
10
4.4630170866141734
20
-5.0701328740157479
11
4.4706722834645669
21
-5.0598501968503937
0
LINE
8
BLACK
6
CONTINUOUS
10
4.4706722834645669
20
-5.0598501968503937
11
4.4794694094488188
21
-5.0505257480314958
0
LINE
8
BLACK
6
CONTINUOUS
10
4.4794694094488188
20
-5.0505257480314958
11
4.4892896062992129
21
-5.0422856299212597
0
LINE
8
BLACK
6
CONTINUOUS
10
4.4892896062992129
20
-5.0422856299212597
11
4.5
21
-5.0352412992125979
0
LINE
8
BLACK
6
CONTINUOUS
10
4.5
20
-5.0352412992125979
11
4.5114557874015748
21
-5.0294879921259845
0
LINE
8
BLACK
6
CONTINUOUS
10
4.5114557874015748
20
-5.0294879921259845
11
4.5235020078740158
21
-5.0251035039370073
0
LINE
8
BLACK
6
CONTINUOUS
10
4.5235020078740158
20
-5.0251035039370073
11
4.5359757874015747
21
-5.0221471653543306
0
LINE
8
BLACK
6
CONTINUOUS
10
4.5359757874015747
20
-5.0221471653543306
11
4.5487084251968506
21
-5.020658937007874
0
LINE
8
BLACK
6
CONTINUOUS
10
4.5487084251968506
20
-5.020658937007874
11
4.5615277952755902
21
-5.020658937007874
0
LINE
8
BLACK
6
CONTINUOUS
10
4.5615277952755902
20
-5.020658937007874
11
4.574260433070866
21
-5.0221471653543306
0
LINE
8
BLACK
6
CONTINUOUS
10
6.1742604330708657
20
-5.0221471653543306
11
6.1867342125984255
21
-5.0251035039370073
0
LINE
8
BLACK
6
CONTINUOUS
10
6.1867342125984255
20
-5.0251035039370073
11
6.1987804330708656
21
-5.0294879921259845
0
LINE
8
BLACK
6
CONTINUOUS
10
6.1987804330708656
20
-5.0294879921259845
11
6.2102362204724404
21
-5.0352412992125979
0
LINE
8
BLACK
6
CONTINUOUS
10
6.2102362204724404
20
-5.0352412992125979
11
6.2209466141732284
21
-5.0422856299212597
0
LINE
8
BLACK
6
CONTINUOUS
10
6.2209466141732284
20
-5.0422856299212597
11
6.2307668110236216
21
-5.0505257480314958
0
LINE
8
BLACK
6
CONTINUOUS
10
6.2307668110236216
20
-5.0505257480314958
11
6.2395639370078735
21
-5.0598501968503937
0
LINE
8
BLACK
6
CONTINUOUS
10
6.2395639370078735
20
-5.0598501968503937
11
6.2472191338582679
21
-5.0701328740157479
0
LINE
8
BLACK
6
CONTINUOUS
10
6.2472191338582679
20
-5.0701328740157479
11
6.2536287795275589
21
-5.0812347244094491
0
LINE
8
BLACK
6
CONTINUOUS
10
6.2536287795275589
20
-5.0812347244094491
11
6.2587062598425192
21
-5.0930056692913386
0
LINE
8
BLACK
6
CONTINUOUS
10
6.2587062598425192
20
-5.0930056692913386
11
6.2623829133858262
21
-5.1052864566929133
0
LINE
8
BLACK
6
CONTINUOUS
10
6.2623829133858262
20
-5.1052864566929133
11
6.2646089370078739
21
-5.1179110236220469
0
LINE
8
BLACK
6
CONTINUOUS
10
6.2646089370078739
20
-5.1179110236220469
11
6.2653543307086617
21
-5.130708661417323
0
LINE
8
BLACK
6
CONTINUOUS
10
6.2653543307086617
20
-5.130708661417323
11
6.2646089370078739
21
-5.1435062992125982
0
LINE
8
BLACK
6
CONTINUOUS
10
6.2646089370078739
20
-5.1435062992125982
11
6.2623829133858262
21
-5.1561308661417318
0
LINE
8
BLACK
6
CONTINUOUS
10
6.2623829133858262
20
-5.1561308661417318
11
6.2587062598425192
21
-5.1684116535433073
0
LINE
8
BLACK
6
CONTINUOUS
10
6.2587062598425192
20
-5.1684116535433073
11
6.2536287795275589
21
-5.1801825984251968
0
LINE
8
BLACK
6
CONTINUOUS
10
6.2536287795275589
20
-5.1801825984251968
11
6.2472191338582679
21
-5.1912844488188972
0
LINE
8
BLACK
6
CONTINUOUS
10
6.2472191338582679
20
-5.1912844488188972
11
6.2395639370078735
21
-5.2015671259842522
0
LINE
8
BLACK
6
CONTINUOUS
10
6.2395639370078735
20
-5.2015671259842522
11
6.2307668110236216
21
-5.2108915748031492
0
LINE
8
BLACK
6
CONTINUOUS
10
6.2307668110236216
20
-5.2108915748031492
11
6.2209466141732284
21
-5.2191316929133853
0
LINE
8
BLACK
6
CONTINUOUS
10
6.2209466141732284
20
-5.2191316929133853
11
6.2102362204724404
21
-5.2261760236220471
0
LINE
8
BLACK
6
CONTINUOUS
10
6.2102362204724404
20
-5.2261760236220471
11
6.1987804330708656
21
-5.2319293307086614
0
LINE
8
BLACK
6
CONTINUOUS
10
6.1987804330708656
20
-5.2319293307086614
11
6.1867342125984255
21
-5.2363138188976377
0
LINE
8
BLACK
6
CONTINUOUS
10
6.1867342125984255
20
-5.2363138188976377
11
6.1742604330708657
21
-5.2392701574803144
0
LINE
8
BLACK
6
CONTINUOUS
10
6.1742604330708657
20
-5.2392701574803144
11
6.1615277952755907
21
-5.2407583858267719
0
LINE
8
BLACK
6
CONTINUOUS
10
6.1615277952755907
20
-5.2407583858267719
11
6.1487084251968502
21
-5.2407583858267719
0
LINE
8
BLACK
6
CONTINUOUS
10
6.1487084251968502
20
-5.2407583858267719
11
6.1359757874015743
21
-5.2392701574803144
0
LINE
8
BLACK
6
CONTINUOUS
10
6.1359757874015743
20
-5.2392701574803144
11
6.1235020078740154
21
-5.2363138188976377
0
LINE
8
BLACK
6
CONTINUOUS
10
6.1235020078740154
20
-5.2363138188976377
11
6.1114557874015745
21
-5.2319293307086614
0
LINE
8
BLACK
6
CONTINUOUS
10
6.1114557874015745
20
-5.2319293307086614
11
6.0999999999999996
21
-5.2261760236220471
0
LINE
8
BLACK
6
CONTINUOUS
10
6.0999999999999996
20
-5.2261760236220471
11
6.0892896062992126
21
-5.2191316929133853
0
LINE
8
BLACK
6
CONTINUOUS
10
6.0892896062992126
20
-5.2191316929133853
11
6.0794694094488184
21
-5.2108915748031492
0
LINE
8
BLACK
6
CONTINUOUS
10
6.0794694094488184
20
-5.2108915748031492
11
6.0706722834645666
21
-5.2015671259842522
0
LINE
8
BLACK
6
CONTINUOUS
10
6.0706722834645666
20
-5.2015671259842522
11
6.063017086614173
21
-5.1912844488188972
0
LINE
8
BLACK
6
CONTINUOUS
10
6.063017086614173
20
-5.1912844488188972
11
6.056607440944882
21
-5.1801825984251968
0
LINE
8
BLACK
6
CONTINUOUS
10
6.056607440944882
20
-5.1801825984251968
11
6.0515299606299209
21
-5.1684116535433073
0
LINE
8
BLACK
6
CONTINUOUS
10
6.0515299606299209
20
-5.1684116535433073
11
6.0478533070866138
21
-5.1561308661417318
0
LINE
8
BLACK
6
CONTINUOUS
10
6.0478533070866138
20
-5.1561308661417318
11
6.045627283464567
21
-5.1435062992125982
0
LINE
8
BLACK
6
CONTINUOUS
10
6.045627283464567
20
-5.1435062992125982
11
6.0448818897637793
21
-5.130708661417323
0
LINE
8
BLACK
6
CONTINUOUS
10
6.0448818897637793
20
-5.130708661417323
11
6.045627283464567
21
-5.1179110236220469
0
LINE
8
BLACK
6
CONTINUOUS
10
6.045627283464567
20
-5.1179110236220469
11
6.0478533070866138
21
-5.1052864566929133
0
LINE
8
BLACK
6
CONTINUOUS
10
6.0478533070866138
20
-5.1052864566929133
11
6.0515299606299209
21
-5.0930056692913386
0
LINE
8
BLACK
6
CONTINUOUS
10
6.0515299606299209
20
-5.0930056692913386
11
6.056607440944882
21
-5.0812347244094491
0
LINE
8
BLACK
6
CONTINUOUS
10
6.056607440944882
20
-5.0812347244094491
11
6.063017086614173
21
-5.0701328740157479
0
LINE
8
BLACK
6
CONTINUOUS
10
6.063017086614173
20
-5.0701328740157479
11
6.0706722834645666
21
-5.0598501968503937
0
LINE
8
BLACK
6
CONTINUOUS
10
6.0706722834645666
20
-5.0598501968503937
11
6.0794694094488184
21
-5.0505257480314958
0
LINE
8
BLACK
6
CONTINUOUS
10
6.0794694094488184
20
-5.0505257480314958
11
6.0892896062992126
21
-5.0422856299212597
0
LINE
8
BLACK
6
CONTINUOUS
10
6.0892896062992126
20
-5.0422856299212597
11
6.0999999999999996
21
-5.0352412992125979
0
LINE
8
BLACK
6
CONTINUOUS
10
6.0999999999999996
20
-5.0352412992125979
11
6.1114557874015745
21
-5.0294879921259845
0
LINE
8
BLACK
6
CONTINUOUS
10
6.1114557874015745
20
-5.0294879921259845
11
6.1235020078740154
21
-5.0251035039370073
0
LINE
8
BLACK
6
CONTINUOUS
10
6.1235020078740154
20
-5.0251035039370073
11
6.1359757874015743
21
-5.0221471653543306
0
LINE
8
BLACK
6
CONTINUOUS
10
6.1359757874015743
20
-5.0221471653543306
11
6.1487084251968502
21
-5.020658937007874
0
LINE
8
BLACK
6
CONTINUOUS
10
6.1487084251968502
20
-5.020658937007874
11
6.1615277952755907
21
-5.020658937007874
0
LINE
8
BLACK
6
CONTINUOUS
10
6.1615277952755907
20
-5.020658937007874
11
6.1742604330708657
21
-5.0221471653543306
0
LINE
8
BLACK
6
CONTINUOUS
10
5.420892559055118
20
-4.8086232283464563
11
5.4240857086614174
21
-4.8107568110236221
0
LINE
8
BLACK
6
CONTINUOUS
10
5.4240857086614174
20
-4.8107568110236221
11
5.4262192913385823
21
-4.8139499606299214
0
LINE
8
BLACK
6
CONTINUOUS
10
5.4262192913385823
20
-4.8139499606299214
11
5.4269685039370081
21
-4.8177165354330711
0
LINE
8
BLACK
6
CONTINUOUS
10
5.4269685039370081
20
-4.8177165354330711
11
5.4269685039370081
21
-4.9043307086614174
0
LINE
8
BLACK
6
CONTINUOUS
10
5.4269685039370081
20
-4.9043307086614174
11
5.4262192913385823
21
-4.9080972834645671
0
LINE
8
BLACK
6
CONTINUOUS
10
5.4262192913385823
20
-4.9080972834645671
11
5.4240857086614174
21
-4.9112904330708664
0
LINE
8
BLACK
6
CONTINUOUS
10
5.4240857086614174
20
-4.9112904330708664
11
5.420892559055118
21
-4.9134240157480313
0
LINE
8
BLACK
6
CONTINUOUS
10
5.420892559055118
20
-4.9134240157480313
11
5.4171259842519683
21
-4.9141732283464563
0
LINE
8
BLACK
6
CONTINUOUS
10
5.4171259842519683
20
-4.9141732283464563
11
5.3974409448818896
21
-4.9141732283464563
0
LINE
8
BLACK
6
CONTINUOUS
10
5.3974409448818896
20
-4.9141732283464563
11
5.39367437007874
21
-4.9134240157480313
0
LINE
8
BLACK
6
CONTINUOUS
10
5.39367437007874
20
-4.9134240157480313
11
5.3904812204724406
21
-4.9112904330708664
0
LINE
8
BLACK
6
CONTINUOUS
10
5.3904812204724406
20
-4.9112904330708664
11
5.3883476377952757
21
-4.9080972834645671
0
LINE
8
BLACK
6
CONTINUOUS
10
5.3883476377952757
20
-4.9080972834645671
11
5.3875984251968498
21
-4.9043307086614174
0
LINE
8
BLACK
6
CONTINUOUS
10
5.3875984251968498
20
-4.9043307086614174
11
5.3875984251968498
21
-4.8177165354330711
0
LINE
8
BLACK
6
CONTINUOUS
10
5.3875984251968498
20
-4.8177165354330711
11
5.3883476377952757
21
-4.8139499606299214
0
LINE
8
BLACK
6
CONTINUOUS
10
5.3883476377952757
20
-4.8139499606299214
11
5.3904812204724406
21
-4.8107568110236221
0
LINE
8
BLACK
6
CONTINUOUS
10
5.3904812204724406
20
-4.8107568110236221
11
5.39367437007874
21
-4.8086232283464563
0
LINE
8
BLACK
6
CONTINUOUS
10
5.39367437007874
20
-4.8086232283464563
11
5.3974409448818896
21
-4.8078740157480313
0
LINE
8
BLACK
6
CONTINUOUS
10
5.3974409448818896
20
-4.8078740157480313
11
5.4171259842519683
21
-4.8078740157480313
0
LINE
8
BLACK
6
CONTINUOUS
10
5.4171259842519683
20
-4.8078740157480313
11
5.420892559055118
21
-4.8086232283464563
0
LINE
8
BLACK
6
CONTINUOUS
10
5.7141996456692912
20
-4.8086232283464563
11
5.7173927952755905
21
-4.8107568110236221
0
LINE
8
BLACK
6
CONTINUOUS
10
5.7173927952755905
20
-4.8107568110236221
11
5.7195263779527554
21
-4.8139499606299214
0
LINE
8
BLACK
6
CONTINUOUS
10
5.7195263779527554
20
-4.8139499606299214
11
5.7202755905511813
21
-4.8177165354330711
0
LINE
8
BLACK
6
CONTINUOUS
10
5.7202755905511813
20
-4.8177165354330711
11
5.7202755905511813
21
-4.9043307086614174
0
LINE
8
BLACK
6
CONTINUOUS
10
5.7202755905511813
20
-4.9043307086614174
11
5.7195263779527554
21
-4.9080972834645671
0
LINE
8
BLACK
6
CONTINUOUS
10
5.7195263779527554
20
-4.9080972834645671
11
5.7173927952755905
21
-4.9112904330708664
0
LINE
8
BLACK
6
CONTINUOUS
10
5.7173927952755905
20
-4.9112904330708664
11
5.7141996456692912
21
-4.9134240157480313
0
LINE
8
BLACK
6
CONTINUOUS
10
5.7141996456692912
20
-4.9134240157480313
11
5.7104330708661415
21
-4.9141732283464563
0
LINE
8
BLACK
6
CONTINUOUS
10
5.7104330708661415
20
-4.9141732283464563
11
5.6907480314960628
21
-4.9141732283464563
0
LINE
8
BLACK
6
CONTINUOUS
10
5.6907480314960628
20
-4.9141732283464563
11
5.6869814566929131
21
-4.9134240157480313
0
LINE
8
BLACK
6
CONTINUOUS
10
5.6869814566929131
20
-4.9134240157480313
11
5.6837883070866138
21
-4.9112904330708664
0
LINE
8
BLACK
6
CONTINUOUS
10
5.6837883070866138
20
-4.9112904330708664
11
5.6816547244094489
21
-4.9080972834645671
0
LINE
8
BLACK
6
CONTINUOUS
10
5.6816547244094489
20
-4.9080972834645671
11
5.6809055118110239
21
-4.9043307086614174
0
LINE
8
BLACK
6
CONTINUOUS
10
5.6809055118110239
20
-4.9043307086614174
11
5.6809055118110239
21
-4.8177165354330711
0
LINE
8
BLACK
6
CONTINUOUS
10
5.6809055118110239
20
-4.8177165354330711
11
5.6816547244094489
21
-4.8139499606299214
0
LINE
8
BLACK
6
CONTINUOUS
10
5.6816547244094489
20
-4.8139499606299214
11
5.6837883070866138
21
-4.8107568110236221
0
LINE
8
BLACK
6
CONTINUOUS
10
5.6837883070866138
20
-4.8107568110236221
11
5.6869814566929131
21
-4.8086232283464563
0
LINE
8
BLACK
6
CONTINUOUS
10
5.6869814566929131
20
-4.8086232283464563
11
5.6907480314960628
21
-4.8078740157480313
0
LINE
8
BLACK
6
CONTINUOUS
10
5.6907480314960628
20
-4.8078740157480313
11
5.7104330708661415
21
-4.8078740157480313
0
LINE
8
BLACK
6
CONTINUOUS
10
5.7104330708661415
20
-4.8078740157480313
11
5.7141996456692912
21
-4.8086232283464563
0
LINE
8
BLACK
6
CONTINUOUS
10
4.9019949212598428
20
-4.8070484251968502
11
4.9051880708661413
21
-4.809182007874016
0
LINE
8
BLACK
6
CONTINUOUS
10
4.9051880708661413
20
-4.809182007874016
11
4.9073216535433071
21
-4.8123751574803144
0
LINE
8
BLACK
6
CONTINUOUS
10
4.9073216535433071
20
-4.8123751574803144
11
4.908070866141732
21
-4.8161417322834641
0
LINE
8
BLACK
6
CONTINUOUS
10
4.908070866141732
20
-4.8161417322834641
11
4.908070866141732
21
-4.9027559055118113
0
LINE
8
BLACK
6
CONTINUOUS
10
4.908070866141732
20
-4.9027559055118113
11
4.9073216535433071
21
-4.9065224803149601
0
LINE
8
BLACK
6
CONTINUOUS
10
4.9073216535433071
20
-4.9065224803149601
11
4.9051880708661413
21
-4.9097156299212594
0
LINE
8
BLACK
6
CONTINUOUS
10
4.9051880708661413
20
-4.9097156299212594
11
4.9019949212598428
21
-4.9118492125984252
0
LINE
8
BLACK
6
CONTINUOUS
10
4.9019949212598428
20
-4.9118492125984252
11
4.8982283464566931
21
-4.9125984251968502
0
LINE
8
BLACK
6
CONTINUOUS
10
4.8982283464566931
20
-4.9125984251968502
11
4.8785433070866144
21
-4.9125984251968502
0
LINE
8
BLACK
6
CONTINUOUS
10
4.8785433070866144
20
-4.9125984251968502
11
4.8747767322834648
21
-4.9118492125984252
0
LINE
8
BLACK
6
CONTINUOUS
10
4.8747767322834648
20
-4.9118492125984252
11
4.8715835826771654
21
-4.9097156299212594
0
LINE
8
BLACK
6
CONTINUOUS
10
4.8715835826771654
20
-4.9097156299212594
11
4.8694499999999996
21
-4.9065224803149601
0
LINE
8
BLACK
6
CONTINUOUS
10
4.8694499999999996
20
-4.9065224803149601
11
4.8687007874015746
21
-4.9027559055118113
0
LINE
8
BLACK
6
CONTINUOUS
10
4.8687007874015746
20
-4.9027559055118113
11
4.8687007874015746
21
-4.8161417322834641
0
LINE
8
BLACK
6
CONTINUOUS
10
4.8687007874015746
20
-4.8161417322834641
11
4.8694499999999996
21
-4.8123751574803144
0
LINE
8
BLACK
6
CONTINUOUS
10
4.8694499999999996
20
-4.8123751574803144
11
4.8715835826771654
21
-4.809182007874016
0
LINE
8
BLACK
6
CONTINUOUS
10
4.8715835826771654
20
-4.809182007874016
11
4.8747767322834648
21
-4.8070484251968502
0
LINE
8
BLACK
6
CONTINUOUS
10
4.8747767322834648
20
-4.8070484251968502
11
4.8785433070866144
21
-4.8062992125984252
0
LINE
8
BLACK
6
CONTINUOUS
10
4.8785433070866144
20
-4.8062992125984252
11
4.8982283464566931
21
-4.8062992125984252
0
LINE
8
BLACK
6
CONTINUOUS
10
4.8982283464566931
20
-4.8062992125984252
11
4.9019949212598428
21
-4.8070484251968502
0
LINE
8
BLACK
6
CONTINUOUS
10
5.2937272047244095
20
-4.8070484251968502
11
5.2969203543307088
21
-4.809182007874016
0
LINE
8
BLACK
6
CONTINUOUS
10
5.2969203543307088
20
-4.809182007874016
11
5.2990539370078737
21
-4.8123751574803144
0
LINE
8
BLACK
6
CONTINUOUS
10
5.2990539370078737
20
-4.8123751574803144
11
5.2998031496062987
21
-4.8161417322834641
0
LINE
8
BLACK
6
CONTINUOUS
10
5.2998031496062987
20
-4.8161417322834641
11
5.2998031496062987
21
-4.9027559055118113
0
LINE
8
BLACK
6
CONTINUOUS
10
5.2998031496062987
20
-4.9027559055118113
11
5.2990539370078737
21
-4.9065224803149601
0
LINE
8
BLACK
6
CONTINUOUS
10
5.2990539370078737
20
-4.9065224803149601
11
5.2969203543307088
21
-4.9097156299212594
0
LINE
8
BLACK
6
CONTINUOUS
10
5.2969203543307088
20
-4.9097156299212594
11
5.2937272047244095
21
-4.9118492125984252
0
LINE
8
BLACK
6
CONTINUOUS
10
5.2937272047244095
20
-4.9118492125984252
11
5.2899606299212598
21
-4.9125984251968502
0
LINE
8
BLACK
6
CONTINUOUS
10
5.2899606299212598
20
-4.9125984251968502
11
5.2702755905511811
21
-4.9125984251968502
0
LINE
8
BLACK
6
CONTINUOUS
10
5.2702755905511811
20
-4.9125984251968502
11
5.2665090157480314
21
-4.9118492125984252
0
LINE
8
BLACK
6
CONTINUOUS
10
5.2665090157480314
20
-4.9118492125984252
11
5.2633158661417321
21
-4.9097156299212594
0
LINE
8
BLACK
6
CONTINUOUS
10
5.2633158661417321
20
-4.9097156299212594
11
5.2611822834645672
21
-4.9065224803149601
0
LINE
8
BLACK
6
CONTINUOUS
10
5.2611822834645672
20
-4.9065224803149601
11
5.2604330708661413
21
-4.9027559055118113
0
LINE
8
BLACK
6
CONTINUOUS
10
5.2604330708661413
20
-4.9027559055118113
11
5.2604330708661413
21
-4.8161417322834641
0
LINE
8
BLACK
6
CONTINUOUS
10
5.2604330708661413
20
-4.8161417322834641
11
5.2611822834645672
21
-4.8123751574803144
0
LINE
8
BLACK
6
CONTINUOUS
10
5.2611822834645672
20
-4.8123751574803144
11
5.2633158661417321
21
-4.809182007874016
0
LINE
8
BLACK
6
CONTINUOUS
10
5.2633158661417321
20
-4.809182007874016
11
5.2665090157480314
21
-4.8070484251968502
0
LINE
8
BLACK
6
CONTINUOUS
10
5.2665090157480314
20
-4.8070484251968502
11
5.2702755905511811
21
-4.8062992125984252
0
LINE
8
BLACK
6
CONTINUOUS
10
5.2702755905511811
20
-4.8062992125984252
11
5.2899606299212598
21
-4.8062992125984252
0
LINE
8
BLACK
6
CONTINUOUS
10
5.2899606299212598
20
-4.8062992125984252
11
5.2937272047244095
21
-4.8070484251968502
0
LINE
8
BLACK
6
CONTINUOUS
10
5.4882835826771652
20
-4.7020243307086611
11
5.4901994488188972
21
-4.7033044881889765
0
LINE
8
BLACK
6
CONTINUOUS
10
5.4901994488188972
20
-4.7033044881889765
11
5.4914796062992126
21
-4.7052203543307085
0
LINE
8
BLACK
6
CONTINUOUS
10
5.4914796062992126
20
-4.7052203543307085
11
5.4919291338582674
21
-4.7074803149606295
0
LINE
8
BLACK
6
CONTINUOUS
10
5.4919291338582674
20
-4.7074803149606295
11
5.4919291338582674
21
-4.7625984251968507
0
LINE
8
BLACK
6
CONTINUOUS
10
5.4919291338582674
20
-4.7625984251968507
11
5.4914796062992126
21
-4.7648583858267717
0
LINE
8
BLACK
6
CONTINUOUS
10
5.4914796062992126
20
-4.7648583858267717
11
5.4901994488188972
21
-4.7667742519685037
0
LINE
8
BLACK
6
CONTINUOUS
10
5.4901994488188972
20
-4.7667742519685037
11
5.4882835826771652
21
-4.7680544094488191
0
LINE
8
BLACK
6
CONTINUOUS
10
5.4882835826771652
20
-4.7680544094488191
11
5.4860236220472443
21
-4.7685039370078739
0
LINE
8
BLACK
6
CONTINUOUS
10
5.4860236220472443
20
-4.7685039370078739
11
5.474212598425197
21
-4.7685039370078739
0
LINE
8
BLACK
6
CONTINUOUS
10
5.474212598425197
20
-4.7685039370078739
11
5.4719526377952752
21
-4.7680544094488191
0
LINE
8
BLACK
6
CONTINUOUS
10
5.4719526377952752
20
-4.7680544094488191
11
5.4700367716535432
21
-4.7667742519685037
0
LINE
8
BLACK
6
CONTINUOUS
10
5.4700367716535432
20
-4.7667742519685037
11
5.4687566141732278
21
-4.7648583858267717
0
LINE
8
BLACK
6
CONTINUOUS
10
5.4687566141732278
20
-4.7648583858267717
11
5.468307086614173
21
-4.7625984251968507
0
LINE
8
BLACK
6
CONTINUOUS
10
5.468307086614173
20
-4.7625984251968507
11
5.468307086614173
21
-4.7074803149606295
0
LINE
8
BLACK
6
CONTINUOUS
10
5.468307086614173
20
-4.7074803149606295
11
5.4687566141732278
21
-4.7052203543307085
0
LINE
8
BLACK
6
CONTINUOUS
10
5.4687566141732278
20
-4.7052203543307085
11
5.4700367716535432
21
-4.7033044881889765
0
LINE
8
BLACK
6
CONTINUOUS
10
5.4700367716535432
20
-4.7033044881889765
11
5.4719526377952752
21
-4.7020243307086611
0
LINE
8
BLACK
6
CONTINUOUS
10
5.4719526377952752
20
-4.7020243307086611
11
5.474212598425197
21
-4.7015748031496063
0
LINE
8
BLACK
6
CONTINUOUS
10
5.474212598425197
20
-4.7015748031496063
11
5.4860236220472443
21
-4.7015748031496063
0
LINE
8
BLACK
6
CONTINUOUS
10
5.4860236220472443
20
-4.7015748031496063
11
5.4882835826771652
21
-4.7020243307086611
0
LINE
8
BLACK
6
CONTINUOUS
10
5.5374961811023624
20
-4.7020243307086611
11
5.5394120472440944
21
-4.7033044881889765
0
LINE
8
BLACK
6
CONTINUOUS
10
5.5394120472440944
20
-4.7033044881889765
11
5.5406922047244089
21
-4.7052203543307085
0
LINE
8
BLACK
6
CONTINUOUS
10
5.5406922047244089
20
-4.7052203543307085
11
5.5411417322834646
21
-4.7074803149606295
0
LINE
8
BLACK
6
CONTINUOUS
10
5.5411417322834646
20
-4.7074803149606295
11
5.5411417322834646
21
-4.7625984251968507
0
LINE
8
BLACK
6
CONTINUOUS
10
5.5411417322834646
20
-4.7625984251968507
11
5.5406922047244089
21
-4.7648583858267717
0
LINE
8
BLACK
6
CONTINUOUS
10
5.5406922047244089
20
-4.7648583858267717
11
5.5394120472440944
21
-4.7667742519685037
0
LINE
8
BLACK
6
CONTINUOUS
10
5.5394120472440944
20
-4.7667742519685037
11
5.5374961811023624
21
-4.7680544094488191
0
LINE
8
BLACK
6
CONTINUOUS
10
5.5374961811023624
20
-4.7680544094488191
11
5.5352362204724406
21
-4.7685039370078739
0
LINE
8
BLACK
6
CONTINUOUS
10
5.5352362204724406
20
-4.7685039370078739
11
5.5234251968503933
21
-4.7685039370078739
0
LINE
8
BLACK
6
CONTINUOUS
10
5.5234251968503933
20
-4.7685039370078739
11
5.5211652362204724
21
-4.7680544094488191
0
LINE
8
BLACK
6
CONTINUOUS
10
5.5211652362204724
20
-4.7680544094488191
11
5.5192493700787404
21
-4.7667742519685037
0
LINE
8
BLACK
6
CONTINUOUS
10
5.5192493700787404
20
-4.7667742519685037
11
5.517969212598425
21
-4.7648583858267717
0
LINE
8
BLACK
6
CONTINUOUS
10
5.517969212598425
20
-4.7648583858267717
11
5.5175196850393702
21
-4.7625984251968507
0
LINE
8
BLACK
6
CONTINUOUS
10
5.5175196850393702
20
-4.7625984251968507
11
5.5175196850393702
21
-4.7074803149606295
0
LINE
8
BLACK
6
CONTINUOUS
10
5.5175196850393702
20
-4.7074803149606295
11
5.517969212598425
21
-4.7052203543307085
0
LINE
8
BLACK
6
CONTINUOUS
10
5.517969212598425
20
-4.7052203543307085
11
5.5192493700787404
21
-4.7033044881889765
0
LINE
8
BLACK
6
CONTINUOUS
10
5.5192493700787404
20
-4.7033044881889765
11
5.5211652362204724
21
-4.7020243307086611
0
LINE
8
BLACK
6
CONTINUOUS
10
5.5211652362204724
20
-4.7020243307086611
11
5.5234251968503933
21
-4.7015748031496063
0
LINE
8
BLACK
6
CONTINUOUS
10
5.5234251968503933
20
-4.7015748031496063
11
5.5352362204724406
21
-4.7015748031496063
0
LINE
8
BLACK
6
CONTINUOUS
10
5.5352362204724406
20
-4.7015748031496063
11
5.5374961811023624
21
-4.7020243307086611
0
LINE
8
BLACK
6
CONTINUOUS
10
5.5867087795275587
20
-4.7020243307086611
11
5.5886246456692916
21
-4.7033044881889765
0
LINE
8
BLACK
6
CONTINUOUS
10
5.5886246456692916
20
-4.7033044881889765
11
5.5899048031496061
21
-4.7052203543307085
0
LINE
8
BLACK
6
CONTINUOUS
10
5.5899048031496061
20
-4.7052203543307085
11
5.5903543307086609
21
-4.7074803149606295
0
LINE
8
BLACK
6
CONTINUOUS
10
5.5903543307086609
20
-4.7074803149606295
11
5.5903543307086609
21
-4.7625984251968507
0
LINE
8
BLACK
6
CONTINUOUS
10
5.5903543307086609
20
-4.7625984251968507
11
5.5899048031496061
21
-4.7648583858267717
0
LINE
8
BLACK
6
CONTINUOUS
10
5.5899048031496061
20
-4.7648583858267717
11
5.5886246456692916
21
-4.7667742519685037
0
LINE
8
BLACK
6
CONTINUOUS
10
5.5886246456692916
20
-4.7667742519685037
11
5.5867087795275587
21
-4.7680544094488191
0
LINE
8
BLACK
6
CONTINUOUS
10
5.5867087795275587
20
-4.7680544094488191
11
5.5844488188976378
21
-4.7685039370078739
0
LINE
8
BLACK
6
CONTINUOUS
10
5.5844488188976378
20
-4.7685039370078739
11
5.5726377952755906
21
-4.7685039370078739
0
LINE
8
BLACK
6
CONTINUOUS
10
5.5726377952755906
20
-4.7685039370078739
11
5.5703778346456696
21
-4.7680544094488191
0
LINE
8
BLACK
6
CONTINUOUS
10
5.5703778346456696
20
-4.7680544094488191
11
5.5684619685039367
21
-4.7667742519685037
0
LINE
8
BLACK
6
CONTINUOUS
10
5.5684619685039367
20
-4.7667742519685037
11
5.5671818110236222
21
-4.7648583858267717
0
LINE
8
BLACK
6
CONTINUOUS
10
5.5671818110236222
20
-4.7648583858267717
11
5.5667322834645665
21
-4.7625984251968507
0
LINE
8
BLACK
6
CONTINUOUS
10
5.5667322834645665
20
-4.7625984251968507
11
5.5667322834645665
21
-4.7074803149606295
0
LINE
8
BLACK
6
CONTINUOUS
10
5.5667322834645665
20
-4.7074803149606295
11
5.5671818110236222
21
-4.7052203543307085
0
LINE
8
BLACK
6
CONTINUOUS
10
5.5671818110236222
20
-4.7052203543307085
11
5.5684619685039367
21
-4.7033044881889765
0
LINE
8
BLACK
6
CONTINUOUS
10
5.5684619685039367
20
-4.7033044881889765
11
5.5703778346456696
21
-4.7020243307086611
0
LINE
8
BLACK
6
CONTINUOUS
10
5.5703778346456696
20
-4.7020243307086611
11
5.5726377952755906
21
-4.7015748031496063
0
LINE
8
BLACK
6
CONTINUOUS
10
5.5726377952755906
20
-4.7015748031496063
11
5.5844488188976378
21
-4.7015748031496063
0
LINE
8
BLACK
6
CONTINUOUS
10
5.5844488188976378
20
-4.7015748031496063
11
5.5867087795275587
21
-4.7020243307086611
0
LINE
8
BLACK
6
CONTINUOUS
10
5.6359213779527559
20
-4.7020243307086611
11
5.6378372440944879
21
-4.7033044881889765
0
LINE
8
BLACK
6
CONTINUOUS
10
5.6378372440944879
20
-4.7033044881889765
11
5.6391174015748033
21
-4.7052203543307085
0
LINE
8
BLACK
6
CONTINUOUS
10
5.6391174015748033
20
-4.7052203543307085
11
5.6395669291338582
21
-4.7074803149606295
0
LINE
8
BLACK
6
CONTINUOUS
10
5.6395669291338582
20
-4.7074803149606295
11
5.6395669291338582
21
-4.7625984251968507
0
LINE
8
BLACK
6
CONTINUOUS
10
5.6395669291338582
20
-4.7625984251968507
11
5.6391174015748033
21
-4.7648583858267717
0
LINE
8
BLACK
6
CONTINUOUS
10
5.6391174015748033
20
-4.7648583858267717
11
5.6378372440944879
21
-4.7667742519685037
0
LINE
8
BLACK
6
CONTINUOUS
10
5.6378372440944879
20
-4.7667742519685037
11
5.6359213779527559
21
-4.7680544094488191
0
LINE
8
BLACK
6
CONTINUOUS
10
5.6359213779527559
20
-4.7680544094488191
11
5.6336614173228341
21
-4.7685039370078739
0
LINE
8
BLACK
6
CONTINUOUS
10
5.6336614173228341
20
-4.7685039370078739
11
5.6218503937007869
21
-4.7685039370078739
0
LINE
8
BLACK
6
CONTINUOUS
10
5.6218503937007869
20
-4.7685039370078739
11
5.6195904330708659
21
-4.7680544094488191
0
LINE
8
BLACK
6
CONTINUOUS
10
5.6195904330708659
20
-4.7680544094488191
11
5.6176745669291339
21
-4.7667742519685037
0
LINE
8
BLACK
6
CONTINUOUS
10
5.6176745669291339
20
-4.7667742519685037
11
5.6163944094488185
21
-4.7648583858267717
0
LINE
8
BLACK
6
CONTINUOUS
10
5.6163944094488185
20
-4.7648583858267717
11
5.6159448818897637
21
-4.7625984251968507
0
LINE
8
BLACK
6
CONTINUOUS
10
5.6159448818897637
20
-4.7625984251968507
11
5.6159448818897637
21
-4.7074803149606295
0
LINE
8
BLACK
6
CONTINUOUS
10
5.6159448818897637
20
-4.7074803149606295
11
5.6163944094488185
21
-4.7052203543307085
0
LINE
8
BLACK
6
CONTINUOUS
10
5.6163944094488185
20
-4.7052203543307085
11
5.6176745669291339
21
-4.7033044881889765
0
LINE
8
BLACK
6
CONTINUOUS
10
5.6176745669291339
20
-4.7033044881889765
11
5.6195904330708659
21
-4.7020243307086611
0
LINE
8
BLACK
6
CONTINUOUS
10
5.6195904330708659
20
-4.7020243307086611
11
5.6218503937007869
21
-4.7015748031496063
0
LINE
8
BLACK
6
CONTINUOUS
10
5.6218503937007869
20
-4.7015748031496063
11
5.6336614173228341
21
-4.7015748031496063
0
LINE
8
BLACK
6
CONTINUOUS
10
5.6336614173228341
20
-4.7015748031496063
11
5.6359213779527559
21
-4.7020243307086611
0
LINE
8
BLACK
6
CONTINUOUS
10
4.96938594488189
20
-4.700449527559055
11
4.971301811023622
21
-4.7017296850393704
0
LINE
8
BLACK
6
CONTINUOUS
10
4.971301811023622
20
-4.7017296850393704
11
4.9725819685039365
21
-4.7036455511811024
0
LINE
8
BLACK
6
CONTINUOUS
10
4.9725819685039365
20
-4.7036455511811024
11
4.9730314960629922
21
-4.7059055118110233
0
LINE
8
BLACK
6
CONTINUOUS
10
4.9730314960629922
20
-4.7059055118110233
11
4.9730314960629922
21
-4.7610236220472437
0
LINE
8
BLACK
6
CONTINUOUS
10
4.9730314960629922
20
-4.7610236220472437
11
4.9725819685039365
21
-4.7632835826771656
0
LINE
8
BLACK
6
CONTINUOUS
10
4.9725819685039365
20
-4.7632835826771656
11
4.971301811023622
21
-4.7651994488188976
0
LINE
8
BLACK
6
CONTINUOUS
10
4.971301811023622
20
-4.7651994488188976
11
4.96938594488189
21
-4.7664796062992121
0
LINE
8
BLACK
6
CONTINUOUS
10
4.96938594488189
20
-4.7664796062992121
11
4.9671259842519682
21
-4.7669291338582678
0
LINE
8
BLACK
6
CONTINUOUS
10
4.9671259842519682
20
-4.7669291338582678
11
4.9553149606299209
21
-4.7669291338582678
0
LINE
8
BLACK
6
CONTINUOUS
10
4.9553149606299209
20
-4.7669291338582678
11
4.953055
21
-4.7664796062992121
0
LINE
8
BLACK
6
CONTINUOUS
10
4.953055
20
-4.7664796062992121
11
4.951139133858268
21
-4.7651994488188976
0
LINE
8
BLACK
6
CONTINUOUS
10
4.951139133858268
20
-4.7651994488188976
11
4.9498589763779526
21
-4.7632835826771656
0
LINE
8
BLACK
6
CONTINUOUS
10
4.9498589763779526
20
-4.7632835826771656
11
4.9494094488188978
21
-4.7610236220472437
0
LINE
8
BLACK
6
CONTINUOUS
10
4.9494094488188978
20
-4.7610236220472437
11
4.9494094488188978
21
-4.7059055118110233
0
LINE
8
BLACK
6
CONTINUOUS
10
4.9494094488188978
20
-4.7059055118110233
11
4.9498589763779526
21
-4.7036455511811024
0
LINE
8
BLACK
6
CONTINUOUS
10
4.9498589763779526
20
-4.7036455511811024
11
4.951139133858268
21
-4.7017296850393704
0
LINE
8
BLACK
6
CONTINUOUS
10
4.951139133858268
20
-4.7017296850393704
11
4.953055
21
-4.700449527559055
0
LINE
8
BLACK
6
CONTINUOUS
10
4.953055
20
-4.700449527559055
11
4.9553149606299209
21
-4.7000000000000002
0
LINE
8
BLACK
6
CONTINUOUS
10
4.9553149606299209
20
-4.7000000000000002
11
4.9671259842519682
21
-4.7000000000000002
0
LINE
8
BLACK
6
CONTINUOUS
10
4.9671259842519682
20
-4.7000000000000002
11
4.96938594488189
21
-4.700449527559055
0
LINE
8
BLACK
6
CONTINUOUS
10
5.0185985433070863
20
-4.700449527559055
11
5.0205144094488192
21
-4.7017296850393704
0
LINE
8
BLACK
6
CONTINUOUS
10
5.0205144094488192
20
-4.7017296850393704
11
5.0217945669291337
21
-4.7036455511811024
0
LINE
8
BLACK
6
CONTINUOUS
10
5.0217945669291337
20
-4.7036455511811024
11
5.0222440944881885
21
-4.7059055118110233
0
LINE
8
BLACK
6
CONTINUOUS
10
5.0222440944881885
20
-4.7059055118110233
11
5.0222440944881885
21
-4.7610236220472437
0
LINE
8
BLACK
6
CONTINUOUS
10
5.0222440944881885
20
-4.7610236220472437
11
5.0217945669291337
21
-4.7632835826771656
0
LINE
8
BLACK
6
CONTINUOUS
10
5.0217945669291337
20
-4.7632835826771656
11
5.0205144094488192
21
-4.7651994488188976
0
LINE
8
BLACK
6
CONTINUOUS
10
5.0205144094488192
20
-4.7651994488188976
11
5.0185985433070863
21
-4.7664796062992121
0
LINE
8
BLACK
6
CONTINUOUS
10
5.0185985433070863
20
-4.7664796062992121
11
5.0163385826771654
21
-4.7669291338582678
0
LINE
8
BLACK
6
CONTINUOUS
10
5.0163385826771654
20
-4.7669291338582678
11
5.0045275590551181
21
-4.7669291338582678
0
LINE
8
BLACK
6
CONTINUOUS
10
5.0045275590551181
20
-4.7669291338582678
11
5.0022675984251963
21
-4.7664796062992121
0
LINE
8
BLACK
6
CONTINUOUS
10
5.0022675984251963
20
-4.7664796062992121
11
5.0003517322834643
21
-4.7651994488188976
0
LINE
8
BLACK
6
CONTINUOUS
10
5.0003517322834643
20
-4.7651994488188976
11
4.9990715748031498
21
-4.7632835826771656
0
LINE
8
BLACK
6
CONTINUOUS
10
4.9990715748031498
20
-4.7632835826771656
11
4.9986220472440941
21
-4.7610236220472437
0
LINE
8
BLACK
6
CONTINUOUS
10
4.9986220472440941
20
-4.7610236220472437
11
4.9986220472440941
21
-4.7059055118110233
0
LINE
8
BLACK
6
CONTINUOUS
10
4.9986220472440941
20
-4.7059055118110233
11
4.9990715748031498
21
-4.7036455511811024
0
LINE
8
BLACK
6
CONTINUOUS
10
4.9990715748031498
20
-4.7036455511811024
11
5.0003517322834643
21
-4.7017296850393704
0
LINE
8
BLACK
6
CONTINUOUS
10
5.0003517322834643
20
-4.7017296850393704
11
5.0022675984251963
21
-4.700449527559055
0
LINE
8
BLACK
6
CONTINUOUS
10
5.0022675984251963
20
-4.700449527559055
11
5.0045275590551181
21
-4.7000000000000002
0
LINE
8
BLACK
6
CONTINUOUS
10
5.0045275590551181
20
-4.7000000000000002
11
5.0163385826771654
21
-4.7000000000000002
0
LINE
8
BLACK
6
CONTINUOUS
10
5.0163385826771654
20
-4.7000000000000002
11
5.0185985433070863
21
-4.700449527559055
0
LINE
8
BLACK
6
CONTINUOUS
10
5.0678111417322835
20
-4.700449527559055
11
5.0697270078740155
21
-4.7017296850393704
0
LINE
8
BLACK
6
CONTINUOUS
10
5.0697270078740155
20
-4.7017296850393704
11
5.0710071653543309
21
-4.7036455511811024
0
LINE
8
BLACK
6
CONTINUOUS
10
5.0710071653543309
20
-4.7036455511811024
11
5.0714566929133857
21
-4.7059055118110233
0
LINE
8
BLACK
6
CONTINUOUS
10
5.0714566929133857
20
-4.7059055118110233
11
5.0714566929133857
21
-4.7610236220472437
0
LINE
8
BLACK
6
CONTINUOUS
10
5.0714566929133857
20
-4.7610236220472437
11
5.0710071653543309
21
-4.7632835826771656
0
LINE
8
BLACK
6
CONTINUOUS
10
5.0710071653543309
20
-4.7632835826771656
11
5.0697270078740155
21
-4.7651994488188976
0
LINE
8
BLACK
6
CONTINUOUS
10
5.0697270078740155
20
-4.7651994488188976
11
5.0678111417322835
21
-4.7664796062992121
0
LINE
8
BLACK
6
CONTINUOUS
10
5.0678111417322835
20
-4.7664796062992121
11
5.0655511811023617
21
-4.7669291338582678
0
LINE
8
BLACK
6
CONTINUOUS
10
5.0655511811023617
20
-4.7669291338582678
11
5.0537401574803145
21
-4.7669291338582678
0
LINE
8
BLACK
6
CONTINUOUS
10
5.0537401574803145
20
-4.7669291338582678
11
5.0514801968503935
21
-4.7664796062992121
0
LINE
8
BLACK
6
CONTINUOUS
10
5.0514801968503935
20
-4.7664796062992121
11
5.0495643307086615
21
-4.7651994488188976
0
LINE
8
BLACK
6
CONTINUOUS
10
5.0495643307086615
20
-4.7651994488188976
11
5.0482841732283461
21
-4.7632835826771656
0
LINE
8
BLACK
6
CONTINUOUS
10
5.0482841732283461
20
-4.7632835826771656
11
5.0478346456692913
21
-4.7610236220472437
0
LINE
8
BLACK
6
CONTINUOUS
10
5.0478346456692913
20
-4.7610236220472437
11
5.0478346456692913
21
-4.7059055118110233
0
LINE
8
BLACK
6
CONTINUOUS
10
5.0478346456692913
20
-4.7059055118110233
11
5.0482841732283461
21
-4.7036455511811024
0
LINE
8
BLACK
6
CONTINUOUS
10
5.0482841732283461
20
-4.7036455511811024
11
5.0495643307086615
21
-4.7017296850393704
0
LINE
8
BLACK
6
CONTINUOUS
10
5.0495643307086615
20
-4.7017296850393704
11
5.0514801968503935
21
-4.700449527559055
0
LINE
8
BLACK
6
CONTINUOUS
10
5.0514801968503935
20
-4.700449527559055
11
5.0537401574803145
21
-4.7000000000000002
0
LINE
8
BLACK
6
CONTINUOUS
10
5.0537401574803145
20
-4.7000000000000002
11
5.0655511811023617
21
-4.7000000000000002
0
LINE
8
BLACK
6
CONTINUOUS
10
5.0655511811023617
20
-4.7000000000000002
11
5.0678111417322835
21
-4.700449527559055
0
LINE
8
BLACK
6
CONTINUOUS
10
5.1170237401574798
20
-4.700449527559055
11
5.1189396062992127
21
-4.7017296850393704
0
LINE
8
BLACK
6
CONTINUOUS
10
5.1189396062992127
20
-4.7017296850393704
11
5.1202197637795273
21
-4.7036455511811024
0
LINE
8
BLACK
6
CONTINUOUS
10
5.1202197637795273
20
-4.7036455511811024
11
5.120669291338583
21
-4.7059055118110233
0
LINE
8
BLACK
6
CONTINUOUS
10
5.120669291338583
20
-4.7059055118110233
11
5.120669291338583
21
-4.7610236220472437
0
LINE
8
BLACK
6
CONTINUOUS
10
5.120669291338583
20
-4.7610236220472437
11
5.1202197637795273
21
-4.7632835826771656
0
LINE
8
BLACK
6
CONTINUOUS
10
5.1202197637795273
20
-4.7632835826771656
11
5.1189396062992127
21
-4.7651994488188976
0
LINE
8
BLACK
6
CONTINUOUS
10
5.1189396062992127
20
-4.7651994488188976
11
5.1170237401574798
21
-4.7664796062992121
0
LINE
8
BLACK
6
CONTINUOUS
10
5.1170237401574798
20
-4.7664796062992121
11
5.1147637795275589
21
-4.7669291338582678
0
LINE
8
BLACK
6
CONTINUOUS
10
5.1147637795275589
20
-4.7669291338582678
11
5.1029527559055117
21
-4.7669291338582678
0
LINE
8
BLACK
6
CONTINUOUS
10
5.1029527559055117
20
-4.7669291338582678
11
5.1006927952755907
21
-4.7664796062992121
0
LINE
8
BLACK
6
CONTINUOUS
10
5.1006927952755907
20
-4.7664796062992121
11
5.0987769291338578
21
-4.7651994488188976
0
LINE
8
BLACK
6
CONTINUOUS
10
5.0987769291338578
20
-4.7651994488188976
11
5.0974967716535433
21
-4.7632835826771656
0
LINE
8
BLACK
6
CONTINUOUS
10
5.0974967716535433
20
-4.7632835826771656
11
5.0970472440944885
21
-4.7610236220472437
0
LINE
8
BLACK
6
CONTINUOUS
10
5.0970472440944885
20
-4.7610236220472437
11
5.0970472440944885
21
-4.7059055118110233
0
LINE
8
BLACK
6
CONTINUOUS
10
5.0970472440944885
20
-4.7059055118110233
11
5.0974967716535433
21
-4.7036455511811024
0
LINE
8
BLACK
6
CONTINUOUS
10
5.0974967716535433
20
-4.7036455511811024
11
5.0987769291338578
21
-4.7017296850393704
0
LINE
8
BLACK
6
CONTINUOUS
10
5.0987769291338578
20
-4.7017296850393704
11
5.1006927952755907
21
-4.700449527559055
0
LINE
8
BLACK
6
CONTINUOUS
10
5.1006927952755907
20
-4.700449527559055
11
5.1029527559055117
21
-4.7000000000000002
0
LINE
8
BLACK
6
CONTINUOUS
10
5.1029527559055117
20
-4.7000000000000002
11
5.1147637795275589
21
-4.7000000000000002
0
LINE
8
BLACK
6
CONTINUOUS
10
5.1147637795275589
20
-4.7000000000000002
11
5.1170237401574798
21
-4.700449527559055
0
LINE
8
BLACK
6
CONTINUOUS
10
5.1662363385826771
20
-4.700449527559055
11
5.1681522047244091
21
-4.7017296850393704
0
LINE
8
BLACK
6
CONTINUOUS
10
5.1681522047244091
20
-4.7017296850393704
11
5.1694323622047245
21
-4.7036455511811024
0
LINE
8
BLACK
6
CONTINUOUS
10
5.1694323622047245
20
-4.7036455511811024
11
5.1698818897637793
21
-4.7059055118110233
0
LINE
8
BLACK
6
CONTINUOUS
10
5.1698818897637793
20
-4.7059055118110233
11
5.1698818897637793
21
-4.7610236220472437
0
LINE
8
BLACK
6
CONTINUOUS
10
5.1698818897637793
20
-4.7610236220472437
11
5.1694323622047245
21
-4.7632835826771656
0
LINE
8
BLACK
6
CONTINUOUS
10
5.1694323622047245
20
-4.7632835826771656
11
5.1681522047244091
21
-4.7651994488188976
0
LINE
8
BLACK
6
CONTINUOUS
10
5.1681522047244091
20
-4.7651994488188976
11
5.1662363385826771
21
-4.7664796062992121
0
LINE
8
BLACK
6
CONTINUOUS
10
5.1662363385826771
20
-4.7664796062992121
11
5.1639763779527561
21
-4.7669291338582678
0
LINE
8
BLACK
6
CONTINUOUS
10
5.1639763779527561
20
-4.7669291338582678
11
5.1521653543307089
21
-4.7669291338582678
0
LINE
8
BLACK
6
CONTINUOUS
10
5.1521653543307089
20
-4.7669291338582678
11
5.149905393700787
21
-4.7664796062992121
0
LINE
8
BLACK
6
CONTINUOUS
10
5.149905393700787
20
-4.7664796062992121
11
5.147989527559055
21
-4.7651994488188976
0
LINE
8
BLACK
6
CONTINUOUS
10
5.147989527559055
20
-4.7651994488188976
11
5.1467093700787396
21
-4.7632835826771656
0
LINE
8
BLACK
6
CONTINUOUS
10
5.1467093700787396
20
-4.7632835826771656
11
5.1462598425196848
21
-4.7610236220472437
0
LINE
8
BLACK
6
CONTINUOUS
10
5.1462598425196848
20
-4.7610236220472437
11
5.1462598425196848
21
-4.7059055118110233
0
LINE
8
BLACK
6
CONTINUOUS
10
5.1462598425196848
20
-4.7059055118110233
11
5.1467093700787396
21
-4.7036455511811024
0
LINE
8
BLACK
6
CONTINUOUS
10
5.1467093700787396
20
-4.7036455511811024
11
5.147989527559055
21
-4.7017296850393704
0
LINE
8
BLACK
6
CONTINUOUS
10
5.147989527559055
20
-4.7017296850393704
11
5.149905393700787
21
-4.700449527559055
0
LINE
8
BLACK
6
CONTINUOUS
10
5.149905393700787
20
-4.700449527559055
11
5.1521653543307089
21
-4.7000000000000002
0
LINE
8
BLACK
6
CONTINUOUS
10
5.1521653543307089
20
-4.7000000000000002
11
5.1639763779527561
21
-4.7000000000000002
0
LINE
8
BLACK
6
CONTINUOUS
10
5.1639763779527561
20
-4.7000000000000002
11
5.1662363385826771
21
-4.700449527559055
0
LINE
8
BLACK
6
CONTINUOUS
10
5.2154489370078743
20
-4.700449527559055
11
5.2173648031496063
21
-4.7017296850393704
0
LINE
8
BLACK
6
CONTINUOUS
10
5.2173648031496063
20
-4.7017296850393704
11
5.2186449606299208
21
-4.7036455511811024
0
LINE
8
BLACK
6
CONTINUOUS
10
5.2186449606299208
20
-4.7036455511811024
11
5.2190944881889765
21
-4.7059055118110233
0
LINE
8
BLACK
6
CONTINUOUS
10
5.2190944881889765
20
-4.7059055118110233
11
5.2190944881889765
21
-4.7610236220472437
0
LINE
8
BLACK
6
CONTINUOUS
10
5.2190944881889765
20
-4.7610236220472437
11
5.2186449606299208
21
-4.7632835826771656
0
LINE
8
BLACK
6
CONTINUOUS
10
5.2186449606299208
20
-4.7632835826771656
11
5.2173648031496063
21
-4.7651994488188976
0
LINE
8
BLACK
6
CONTINUOUS
10
5.2173648031496063
20
-4.7651994488188976
11
5.2154489370078743
21
-4.7664796062992121
0
LINE
8
BLACK
6
CONTINUOUS
10
5.2154489370078743
20
-4.7664796062992121
11
5.2131889763779524
21
-4.7669291338582678
0
LINE
8
BLACK
6
CONTINUOUS
10
5.2131889763779524
20
-4.7669291338582678
11
5.2013779527559052
21
-4.7669291338582678
0
LINE
8
BLACK
6
CONTINUOUS
10
5.2013779527559052
20
-4.7669291338582678
11
5.1991179921259842
21
-4.7664796062992121
0
LINE
8
BLACK
6
CONTINUOUS
10
5.1991179921259842
20
-4.7664796062992121
11
5.1972021259842522
21
-4.7651994488188976
0
LINE
8
BLACK
6
CONTINUOUS
10
5.1972021259842522
20
-4.7651994488188976
11
5.1959219685039368
21
-4.7632835826771656
0
LINE
8
BLACK
6
CONTINUOUS
10
5.1959219685039368
20
-4.7632835826771656
11
5.195472440944882
21
-4.7610236220472437
0
LINE
8
BLACK
6
CONTINUOUS
10
5.195472440944882
20
-4.7610236220472437
11
5.195472440944882
21
-4.7059055118110233
0
LINE
8
BLACK
6
CONTINUOUS
10
5.195472440944882
20
-4.7059055118110233
11
5.1959219685039368
21
-4.7036455511811024
0
LINE
8
BLACK
6
CONTINUOUS
10
5.1959219685039368
20
-4.7036455511811024
11
5.1972021259842522
21
-4.7017296850393704
0
LINE
8
BLACK
6
CONTINUOUS
10
5.1972021259842522
20
-4.7017296850393704
11
5.1991179921259842
21
-4.700449527559055
0
LINE
8
BLACK
6
CONTINUOUS
10
5.1991179921259842
20
-4.700449527559055
11
5.2013779527559052
21
-4.7000000000000002
0
LINE
8
BLACK
6
CONTINUOUS
10
5.2013779527559052
20
-4.7000000000000002
11
5.2131889763779524
21
-4.7000000000000002
0
LINE
8
BLACK
6
CONTINUOUS
10
5.2131889763779524
20
-4.7000000000000002
11
5.2154489370078743
21
-4.700449527559055
0
LINE
8
BLACK
6
CONTINUOUS
10
5.7566209055118112
20
-4.5968122047244098
11
5.7598140551181105
21
-4.5989457874015747
0
LINE
8
BLACK
6
CONTINUOUS
10
5.7598140551181105
20
-4.5989457874015747
11
5.7619476377952754
21
-4.602138937007874
0
LINE
8
BLACK
6
CONTINUOUS
10
5.7619476377952754
20
-4.602138937007874
11
5.7626968503937004
21
-4.6059055118110237
0
LINE
8
BLACK
6
CONTINUOUS
10
5.7626968503937004
20
-4.6059055118110237
11
5.7626968503937004
21
-4.6433070866141728
0
LINE
8
BLACK
6
CONTINUOUS
10
5.7626968503937004
20
-4.6433070866141728
11
5.7619476377952754
21
-4.6470736614173225
0
LINE
8
BLACK
6
CONTINUOUS
10
5.7619476377952754
20
-4.6470736614173225
11
5.7598140551181105
21
-4.6502668110236218
0
LINE
8
BLACK
6
CONTINUOUS
10
5.7598140551181105
20
-4.6502668110236218
11
5.7566209055118112
21
-4.6524003937007876
0
LINE
8
BLACK
6
CONTINUOUS
10
5.7566209055118112
20
-4.6524003937007876
11
5.7528543307086615
21
-4.6531496062992126
0
LINE
8
BLACK
6
CONTINUOUS
10
5.7528543307086615
20
-4.6531496062992126
11
5.7331692913385828
21
-4.6531496062992126
0
LINE
8
BLACK
6
CONTINUOUS
10
5.7331692913385828
20
-4.6531496062992126
11
5.7294027165354331
21
-4.6524003937007876
0
LINE
8
BLACK
6
CONTINUOUS
10
5.7294027165354331
20
-4.6524003937007876
11
5.7262095669291337
21
-4.6502668110236218
0
LINE
8
BLACK
6
CONTINUOUS
10
5.7262095669291337
20
-4.6502668110236218
11
5.724075984251968
21
-4.6470736614173225
0
LINE
8
BLACK
6
CONTINUOUS
10
5.724075984251968
20
-4.6470736614173225
11
5.723326771653543
21
-4.6433070866141728
0
LINE
8
BLACK
6
CONTINUOUS
10
5.723326771653543
20
-4.6433070866141728
11
5.723326771653543
21
-4.6059055118110237
0
LINE
8
BLACK
6
CONTINUOUS
10
5.723326771653543
20
-4.6059055118110237
11
5.724075984251968
21
-4.602138937007874
0
LINE
8
BLACK
6
CONTINUOUS
10
5.724075984251968
20
-4.602138937007874
11
5.7262095669291337
21
-4.5989457874015747
0
LINE
8
BLACK
6
CONTINUOUS
10
5.7262095669291337
20
-4.5989457874015747
11
5.7294027165354331
21
-4.5968122047244098
0
LINE
8
BLACK
6
CONTINUOUS
10
5.7294027165354331
20
-4.5968122047244098
11
5.7331692913385828
21
-4.5960629921259839
0
LINE
8
BLACK
6
CONTINUOUS
10
5.7331692913385828
20
-4.5960629921259839
11
5.7528543307086615
21
-4.5960629921259839
0
LINE
8
BLACK
6
CONTINUOUS
10
5.7528543307086615
20
-4.5960629921259839
11
5.7566209055118112
21
-4.5968122047244098
0
LINE
8
BLACK
6
CONTINUOUS
10
5.8314240551181102
20
-4.5968122047244098
11
5.8346172047244096
21
-4.5989457874015747
0
LINE
8
BLACK
6
CONTINUOUS
10
5.8346172047244096
20
-4.5989457874015747
11
5.8367507874015745
21
-4.602138937007874
0
LINE
8
BLACK
6
CONTINUOUS
10
5.8367507874015745
20
-4.602138937007874
11
5.8374999999999995
21
-4.6059055118110237
0
LINE
8
BLACK
6
CONTINUOUS
10
5.8374999999999995
20
-4.6059055118110237
11
5.8374999999999995
21
-4.6433070866141728
0
LINE
8
BLACK
6
CONTINUOUS
10
5.8374999999999995
20
-4.6433070866141728
11
5.8367507874015745
21
-4.6470736614173225
0
LINE
8
BLACK
6
CONTINUOUS
10
5.8367507874015745
20
-4.6470736614173225
11
5.8346172047244096
21
-4.6502668110236218
0
LINE
8
BLACK
6
CONTINUOUS
10
5.8346172047244096
20
-4.6502668110236218
11
5.8314240551181102
21
-4.6524003937007876
0
LINE
8
BLACK
6
CONTINUOUS
10
5.8314240551181102
20
-4.6524003937007876
11
5.8276574803149606
21
-4.6531496062992126
0
LINE
8
BLACK
6
CONTINUOUS
10
5.8276574803149606
20
-4.6531496062992126
11
5.8079724409448819
21
-4.6531496062992126
0
LINE
8
BLACK
6
CONTINUOUS
10
5.8079724409448819
20
-4.6531496062992126
11
5.8042058661417322
21
-4.6524003937007876
0
LINE
8
BLACK
6
CONTINUOUS
10
5.8042058661417322
20
-4.6524003937007876
11
5.8010127165354328
21
-4.6502668110236218
0
LINE
8
BLACK
6
CONTINUOUS
10
5.8010127165354328
20
-4.6502668110236218
11
5.7988791338582679
21
-4.6470736614173225
0
LINE
8
BLACK
6
CONTINUOUS
10
5.7988791338582679
20
-4.6470736614173225
11
5.7981299212598421
21
-4.6433070866141728
0
LINE
8
BLACK
6
CONTINUOUS
10
5.7981299212598421
20
-4.6433070866141728
11
5.7981299212598421
21
-4.6059055118110237
0
LINE
8
BLACK
6
CONTINUOUS
10
5.7981299212598421
20
-4.6059055118110237
11
5.7988791338582679
21
-4.602138937007874
0
LINE
8
BLACK
6
CONTINUOUS
10
5.7988791338582679
20
-4.602138937007874
11
5.8010127165354328
21
-4.5989457874015747
0
LINE
8
BLACK
6
CONTINUOUS
10
5.8010127165354328
20
-4.5989457874015747
11
5.8042058661417322
21
-4.5968122047244098
0
LINE
8
BLACK
6
CONTINUOUS
10
5.8042058661417322
20
-4.5968122047244098
11
5.8079724409448819
21
-4.5960629921259839
0
LINE
8
BLACK
6
CONTINUOUS
10
5.8079724409448819
20
-4.5960629921259839
11
5.8276574803149606
21
-4.5960629921259839
0
LINE
8
BLACK
6
CONTINUOUS
10
5.8276574803149606
20
-4.5960629921259839
11
5.8314240551181102
21
-4.5968122047244098
0
LINE
8
BLACK
6
CONTINUOUS
10
4.9498295669291341
20
-4.5743712598425192
11
4.9530227165354326
21
-4.576504842519685
0
LINE
8
BLACK
6
CONTINUOUS
10
4.9530227165354326
20
-4.576504842519685
11
4.9551562992125984
21
-4.5796979921259844
0
LINE
8
BLACK
6
CONTINUOUS
10
4.9551562992125984
20
-4.5796979921259844
11
4.9559055118110233
21
-4.5834645669291341
0
LINE
8
BLACK
6
CONTINUOUS
10
4.9559055118110233
20
-4.5834645669291341
11
4.9559055118110233
21
-4.6188976377952757
0
LINE
8
BLACK
6
CONTINUOUS
10
4.9559055118110233
20
-4.6188976377952757
11
4.9551562992125984
21
-4.6226642125984254
0
LINE
8
BLACK
6
CONTINUOUS
10
4.9551562992125984
20
-4.6226642125984254
11
4.9530227165354326
21
-4.6258573622047239
0
LINE
8
BLACK
6
CONTINUOUS
10
4.9530227165354326
20
-4.6258573622047239
11
4.9498295669291341
21
-4.6279909448818897
0
LINE
8
BLACK
6
CONTINUOUS
10
4.9498295669291341
20
-4.6279909448818897
11
4.9460629921259844
21
-4.6287401574803146
0
LINE
8
BLACK
6
CONTINUOUS
10
4.9460629921259844
20
-4.6287401574803146
11
4.9253937007874011
21
-4.6287401574803146
0
LINE
8
BLACK
6
CONTINUOUS
10
4.9253937007874011
20
-4.6287401574803146
11
4.9216271259842514
21
-4.6279909448818897
0
LINE
8
BLACK
6
CONTINUOUS
10
4.9216271259842514
20
-4.6279909448818897
11
4.918433976377953
21
-4.6258573622047239
0
LINE
8
BLACK
6
CONTINUOUS
10
4.918433976377953
20
-4.6258573622047239
11
4.9163003937007872
21
-4.6226642125984254
0
LINE
8
BLACK
6
CONTINUOUS
10
4.9163003937007872
20
-4.6226642125984254
11
4.9155511811023622
21
-4.6188976377952757
0
LINE
8
BLACK
6
CONTINUOUS
10
4.9155511811023622
20
-4.6188976377952757
11
4.9155511811023622
21
-4.5834645669291341
0
LINE
8
BLACK
6
CONTINUOUS
10
4.9155511811023622
20
-4.5834645669291341
11
4.9163003937007872
21
-4.5796979921259844
0
LINE
8
BLACK
6
CONTINUOUS
10
4.9163003937007872
20
-4.5796979921259844
11
4.918433976377953
21
-4.576504842519685
0
LINE
8
BLACK
6
CONTINUOUS
10
4.918433976377953
20
-4.576504842519685
11
4.9216271259842514
21
-4.5743712598425192
0
LINE
8
BLACK
6
CONTINUOUS
10
4.9216271259842514
20
-4.5743712598425192
11
4.9253937007874011
21
-4.5736220472440943
0
LINE
8
BLACK
6
CONTINUOUS
10
4.9253937007874011
20
-4.5736220472440943
11
4.9460629921259844
21
-4.5736220472440943
0
LINE
8
BLACK
6
CONTINUOUS
10
4.9460629921259844
20
-4.5736220472440943
11
4.9498295669291341
21
-4.5743712598425192
0
LINE
8
BLACK
6
CONTINUOUS
10
5.0216799606299212
20
-4.5743712598425192
11
5.0248731102362205
21
-4.576504842519685
0
LINE
8
BLACK
6
CONTINUOUS
10
5.0248731102362205
20
-4.576504842519685
11
5.0270066929133854
21
-4.5796979921259844
0
LINE
8
BLACK
6
CONTINUOUS
10
5.0270066929133854
20
-4.5796979921259844
11
5.0277559055118113
21
-4.5834645669291341
0
LINE
8
BLACK
6
CONTINUOUS
10
5.0277559055118113
20
-4.5834645669291341
11
5.0277559055118113
21
-4.6188976377952757
0
LINE
8
BLACK
6
CONTINUOUS
10
5.0277559055118113
20
-4.6188976377952757
11
5.0270066929133854
21
-4.6226642125984254
0
LINE
8
BLACK
6
CONTINUOUS
10
5.0270066929133854
20
-4.6226642125984254
11
5.0248731102362205
21
-4.6258573622047239
0
LINE
8
BLACK
6
CONTINUOUS
10
5.0248731102362205
20
-4.6258573622047239
11
5.0216799606299212
21
-4.6279909448818897
0
LINE
8
BLACK
6
CONTINUOUS
10
5.0216799606299212
20
-4.6279909448818897
11
5.0179133858267715
21
-4.6287401574803146
0
LINE
8
BLACK
6
CONTINUOUS
10
5.0179133858267715
20
-4.6287401574803146
11
4.9972440944881891
21
-4.6287401574803146
0
LINE
8
BLACK
6
CONTINUOUS
10
4.9972440944881891
20
-4.6287401574803146
11
4.9934775196850394
21
-4.6279909448818897
0
LINE
8
BLACK
6
CONTINUOUS
10
4.9934775196850394
20
-4.6279909448818897
11
4.99028437007874
21
-4.6258573622047239
0
LINE
8
BLACK
6
CONTINUOUS
10
4.99028437007874
20
-4.6258573622047239
11
4.9881507874015742
21
-4.6226642125984254
0
LINE
8
BLACK
6
CONTINUOUS
10
4.9881507874015742
20
-4.6226642125984254
11
4.9874015748031493
21
-4.6188976377952757
0
LINE
8
BLACK
6
CONTINUOUS
10
4.9874015748031493
20
-4.6188976377952757
11
4.9874015748031493
21
-4.5834645669291341
0
LINE
8
BLACK
6
CONTINUOUS
10
4.9874015748031493
20
-4.5834645669291341
11
4.9881507874015742
21
-4.5796979921259844
0
LINE
8
BLACK
6
CONTINUOUS
10
4.9881507874015742
20
-4.5796979921259844
11
4.99028437007874
21
-4.576504842519685
0
LINE
8
BLACK
6
CONTINUOUS
10
4.99028437007874
20
-4.576504842519685
11
4.9934775196850394
21
-4.5743712598425192
0
LINE
8
BLACK
6
CONTINUOUS
10
4.9934775196850394
20
-4.5743712598425192
11
4.9972440944881891
21
-4.5736220472440943
0
LINE
8
BLACK
6
CONTINUOUS
10
4.9972440944881891
20
-4.5736220472440943
11
5.0179133858267715
21
-4.5736220472440943
0
LINE
8
BLACK
6
CONTINUOUS
10
5.0179133858267715
20
-4.5736220472440943
11
5.0216799606299212
21
-4.5743712598425192
0
LINE
8
BLACK
6
CONTINUOUS
10
5.2878216929133854
20
-4.5850011811023625
11
5.2910148425196848
21
-4.5871347637795274
0
LINE
8
BLACK
6
CONTINUOUS
10
5.2910148425196848
20
-4.5871347637795274
11
5.2931484251968506
21
-4.5903279133858268
0
LINE
8
BLACK
6
CONTINUOUS
10
5.2931484251968506
20
-4.5903279133858268
11
5.2938976377952756
21
-4.5940944881889765
0
LINE
8
BLACK
6
CONTINUOUS
10
5.2938976377952756
20
-4.5940944881889765
11
5.2938976377952756
21
-4.6137795275590552
0
LINE
8
BLACK
6
CONTINUOUS
10
5.2938976377952756
20
-4.6137795275590552
11
5.2931484251968506
21
-4.6175461023622049
0
LINE
8
BLACK
6
CONTINUOUS
10
5.2931484251968506
20
-4.6175461023622049
11
5.2910148425196848
21
-4.6207392519685042
0
LINE
8
BLACK
6
CONTINUOUS
10
5.2910148425196848
20
-4.6207392519685042
11
5.2878216929133854
21
-4.6228728346456691
0
LINE
8
BLACK
6
CONTINUOUS
10
5.2878216929133854
20
-4.6228728346456691
11
5.2840551181102358
21
-4.6236220472440941
0
LINE
8
BLACK
6
CONTINUOUS
10
5.2840551181102358
20
-4.6236220472440941
11
5.2466535433070867
21
-4.6236220472440941
0
LINE
8
BLACK
6
CONTINUOUS
10
5.2466535433070867
20
-4.6236220472440941
11
5.242886968503937
21
-4.6228728346456691
0
LINE
8
BLACK
6
CONTINUOUS
10
5.242886968503937
20
-4.6228728346456691
11
5.2396938188976376
21
-4.6207392519685042
0
LINE
8
BLACK
6
CONTINUOUS
10
5.2396938188976376
20
-4.6207392519685042
11
5.2375602362204727
21
-4.6175461023622049
0
LINE
8
BLACK
6
CONTINUOUS
10
5.2375602362204727
20
-4.6175461023622049
11
5.2368110236220469
21
-4.6137795275590552
0
LINE
8
BLACK
6
CONTINUOUS
10
5.2368110236220469
20
-4.6137795275590552
11
5.2368110236220469
21
-4.5940944881889765
0
LINE
8
BLACK
6
CONTINUOUS
10
5.2368110236220469
20
-4.5940944881889765
11
5.2375602362204727
21
-4.5903279133858268
0
LINE
8
BLACK
6
CONTINUOUS
10
5.2375602362204727
20
-4.5903279133858268
11
5.2396938188976376
21
-4.5871347637795274
0
LINE
8
BLACK
6
CONTINUOUS
10
5.2396938188976376
20
-4.5871347637795274
11
5.242886968503937
21
-4.5850011811023625
0
LINE
8
BLACK
6
CONTINUOUS
10
5.242886968503937
20
-4.5850011811023625
11
5.2466535433070867
21
-4.5842519685039367
0
LINE
8
BLACK
6
CONTINUOUS
10
5.2466535433070867
20
-4.5842519685039367
11
5.2840551181102358
21
-4.5842519685039367
0
LINE
8
BLACK
6
CONTINUOUS
10
5.2840551181102358
20
-4.5842519685039367
11
5.2878216929133854
21
-4.5850011811023625
0
LINE
8
BLACK
6
CONTINUOUS
10
5.1242390157480315
20
-4.5826389763779529
11
5.1274321653543309
21
-4.5847725590551178
0
LINE
8
BLACK
6
CONTINUOUS
10
5.1274321653543309
20
-4.5847725590551178
11
5.1295657480314958
21
-4.5879657086614172
0
LINE
8
BLACK
6
CONTINUOUS
10
5.1295657480314958
20
-4.5879657086614172
11
5.1303149606299208
21
-4.5917322834645669
0
LINE
8
BLACK
6
CONTINUOUS
10
5.1303149606299208
20
-4.5917322834645669
11
5.1303149606299208
21
-4.6124015748031493
0
LINE
8
BLACK
6
CONTINUOUS
10
5.1303149606299208
20
-4.6124015748031493
11
5.1295657480314958
21
-4.616168149606299
0
LINE
8
BLACK
6
CONTINUOUS
10
5.1295657480314958
20
-4.616168149606299
11
5.1274321653543309
21
-4.6193612992125983
0
LINE
8
BLACK
6
CONTINUOUS
10
5.1274321653543309
20
-4.6193612992125983
11
5.1242390157480315
21
-4.6214948818897641
0
LINE
8
BLACK
6
CONTINUOUS
10
5.1242390157480315
20
-4.6214948818897641
11
5.1204724409448819
21
-4.6222440944881891
0
LINE
8
BLACK
6
CONTINUOUS
10
5.1204724409448819
20
-4.6222440944881891
11
5.0850393700787402
21
-4.6222440944881891
0
LINE
8
BLACK
6
CONTINUOUS
10
5.0850393700787402
20
-4.6222440944881891
11
5.0812727952755905
21
-4.6214948818897641
0
LINE
8
BLACK
6
CONTINUOUS
10
5.0812727952755905
20
-4.6214948818897641
11
5.0780796456692912
21
-4.6193612992125983
0
LINE
8
BLACK
6
CONTINUOUS
10
5.0780796456692912
20
-4.6193612992125983
11
5.0759460629921263
21
-4.616168149606299
0
LINE
8
BLACK
6
CONTINUOUS
10
5.0759460629921263
20
-4.616168149606299
11
5.0751968503937004
21
-4.6124015748031493
0
LINE
8
BLACK
6
CONTINUOUS
10
5.0751968503937004
20
-4.6124015748031493
11
5.0751968503937004
21
-4.5917322834645669
0
LINE
8
BLACK
6
CONTINUOUS
10
5.0751968503937004
20
-4.5917322834645669
11
5.0759460629921263
21
-4.5879657086614172
0
LINE
8
BLACK
6
CONTINUOUS
10
5.0759460629921263
20
-4.5879657086614172
11
5.0780796456692912
21
-4.5847725590551178
0
LINE
8
BLACK
6
CONTINUOUS
10
5.0780796456692912
20
-4.5847725590551178
11
5.0812727952755905
21
-4.5826389763779529
0
LINE
8
BLACK
6
CONTINUOUS
10
5.0812727952755905
20
-4.5826389763779529
11
5.0850393700787402
21
-4.5818897637795271
0
LINE
8
BLACK
6
CONTINUOUS
10
5.0850393700787402
20
-4.5818897637795271
11
5.1204724409448819
21
-4.5818897637795271
0
LINE
8
BLACK
6
CONTINUOUS
10
5.1204724409448819
20
-4.5818897637795271
11
5.1242390157480315
21
-4.5826389763779529
0
LINE
8
BLACK
6
CONTINUOUS
10
5.2033728740157477
20
-4.5826389763779529
11
5.206566023622047
21
-4.5847725590551178
0
LINE
8
BLACK
6
CONTINUOUS
10
5.206566023622047
20
-4.5847725590551178
11
5.2086996062992128
21
-4.5879657086614172
0
LINE
8
BLACK
6
CONTINUOUS
10
5.2086996062992128
20
-4.5879657086614172
11
5.2094488188976378
21
-4.5917322834645669
0
LINE
8
BLACK
6
CONTINUOUS
10
5.2094488188976378
20
-4.5917322834645669
11
5.2094488188976378
21
-4.6124015748031493
0
LINE
8
BLACK
6
CONTINUOUS
10
5.2094488188976378
20
-4.6124015748031493
11
5.2086996062992128
21
-4.616168149606299
0
LINE
8
BLACK
6
CONTINUOUS
10
5.2086996062992128
20
-4.616168149606299
11
5.206566023622047
21
-4.6193612992125983
0
LINE
8
BLACK
6
CONTINUOUS
10
5.206566023622047
20
-4.6193612992125983
11
5.2033728740157477
21
-4.6214948818897641
0
LINE
8
BLACK
6
CONTINUOUS
10
5.2033728740157477
20
-4.6214948818897641
11
5.199606299212598
21
-4.6222440944881891
0
LINE
8
BLACK
6
CONTINUOUS
10
5.199606299212598
20
-4.6222440944881891
11
5.1641732283464563
21
-4.6222440944881891
0
LINE
8
BLACK
6
CONTINUOUS
10
5.1641732283464563
20
-4.6222440944881891
11
5.1604066535433066
21
-4.6214948818897641
0
LINE
8
BLACK
6
CONTINUOUS
10
5.1604066535433066
20
-4.6214948818897641
11
5.1572135039370082
21
-4.6193612992125983
0
LINE
8
BLACK
6
CONTINUOUS
10
5.1572135039370082
20
-4.6193612992125983
11
5.1550799212598424
21
-4.616168149606299
0
LINE
8
BLACK
6
CONTINUOUS
10
5.1550799212598424
20
-4.616168149606299
11
5.1543307086614174
21
-4.6124015748031493
0
LINE
8
BLACK
6
CONTINUOUS
10
5.1543307086614174
20
-4.6124015748031493
11
5.1543307086614174
21
-4.5917322834645669
0
LINE
8
BLACK
6
CONTINUOUS
10
5.1543307086614174
20
-4.5917322834645669
11
5.1550799212598424
21
-4.5879657086614172
0
LINE
8
BLACK
6
CONTINUOUS
10
5.1550799212598424
20
-4.5879657086614172
11
5.1572135039370082
21
-4.5847725590551178
0
LINE
8
BLACK
6
CONTINUOUS
10
5.1572135039370082
20
-4.5847725590551178
11
5.1604066535433066
21
-4.5826389763779529
0
LINE
8
BLACK
6
CONTINUOUS
10
5.1604066535433066
20
-4.5826389763779529
11
5.1641732283464563
21
-4.5818897637795271
0
LINE
8
BLACK
6
CONTINUOUS
10
5.1641732283464563
20
-4.5818897637795271
11
5.199606299212598
21
-4.5818897637795271
0
LINE
8
BLACK
6
CONTINUOUS
10
5.199606299212598
20
-4.5818897637795271
11
5.2033728740157477
21
-4.5826389763779529
0
LINE
8
BLACK
6
CONTINUOUS
10
5.4470736614173223
20
-4.5823437007874013
11
5.4502668110236216
21
-4.5844772834645671
0
LINE
8
BLACK
6
CONTINUOUS
10
5.4502668110236216
20
-4.5844772834645671
11
5.4524003937007874
21
-4.5876704330708664
0
LINE
8
BLACK
6
CONTINUOUS
10
5.4524003937007874
20
-4.5876704330708664
11
5.4531496062992124
21
-4.5914370078740152
0
LINE
8
BLACK
6
CONTINUOUS
10
5.4531496062992124
20
-4.5914370078740152
11
5.4531496062992124
21
-4.6121062992125985
0
LINE
8
BLACK
6
CONTINUOUS
10
5.4531496062992124
20
-4.6121062992125985
11
5.4524003937007874
21
-4.6158728740157482
0
LINE
8
BLACK
6
CONTINUOUS
10
5.4524003937007874
20
-4.6158728740157482
11
5.4502668110236216
21
-4.6190660236220475
0
LINE
8
BLACK
6
CONTINUOUS
10
5.4502668110236216
20
-4.6190660236220475
11
5.4470736614173223
21
-4.6211996062992124
0
LINE
8
BLACK
6
CONTINUOUS
10
5.4470736614173223
20
-4.6211996062992124
11
5.4433070866141735
21
-4.6219488188976374
0
LINE
8
BLACK
6
CONTINUOUS
10
5.4433070866141735
20
-4.6219488188976374
11
5.4078740157480309
21
-4.6219488188976374
0
LINE
8
BLACK
6
CONTINUOUS
10
5.4078740157480309
20
-4.6219488188976374
11
5.4041074409448822
21
-4.6211996062992124
0
LINE
8
BLACK
6
CONTINUOUS
10
5.4041074409448822
20
-4.6211996062992124
11
5.4009142913385828
21
-4.6190660236220475
0
LINE
8
BLACK
6
CONTINUOUS
10
5.4009142913385828
20
-4.6190660236220475
11
5.398780708661417
21
-4.6158728740157482
0
LINE
8
BLACK
6
CONTINUOUS
10
5.398780708661417
20
-4.6158728740157482
11
5.398031496062992
21
-4.6121062992125985
0
LINE
8
BLACK
6
CONTINUOUS
10
5.398031496062992
20
-4.6121062992125985
11
5.398031496062992
21
-4.5914370078740152
0
LINE
8
BLACK
6
CONTINUOUS
10
5.398031496062992
20
-4.5914370078740152
11
5.398780708661417
21
-4.5876704330708664
0
LINE
8
BLACK
6
CONTINUOUS
10
5.398780708661417
20
-4.5876704330708664
11
5.4009142913385828
21
-4.5844772834645671
0
LINE
8
BLACK
6
CONTINUOUS
10
5.4009142913385828
20
-4.5844772834645671
11
5.4041074409448822
21
-4.5823437007874013
0
LINE
8
BLACK
6
CONTINUOUS
10
5.4041074409448822
20
-4.5823437007874013
11
5.4078740157480309
21
-4.5815944881889763
0
LINE
8
BLACK
6
CONTINUOUS
10
5.4078740157480309
20
-4.5815944881889763
11
5.4433070866141735
21
-4.5815944881889763
0
LINE
8
BLACK
6
CONTINUOUS
10
5.4433070866141735
20
-4.5815944881889763
11
5.4470736614173223
21
-4.5823437007874013
0
LINE
8
BLACK
6
CONTINUOUS
10
5.5269949212598428
20
-4.5821468503937011
11
5.5301880708661413
21
-4.584280433070866
0
LINE
8
BLACK
6
CONTINUOUS
10
5.5301880708661413
20
-4.584280433070866
11
5.5323216535433071
21
-4.5874735826771653
0
LINE
8
BLACK
6
CONTINUOUS
10
5.5323216535433071
20
-4.5874735826771653
11
5.533070866141732
21
-4.591240157480315
0
LINE
8
BLACK
6
CONTINUOUS
10
5.533070866141732
20
-4.591240157480315
11
5.533070866141732
21
-4.6119094488188974
0
LINE
8
BLACK
6
CONTINUOUS
10
5.533070866141732
20
-4.6119094488188974
11
5.5323216535433071
21
-4.6156760236220471
0
LINE
8
BLACK
6
CONTINUOUS
10
5.5323216535433071
20
-4.6156760236220471
11
5.5301880708661413
21
-4.6188691732283464
0
LINE
8
BLACK
6
CONTINUOUS
10
5.5301880708661413
20
-4.6188691732283464
11
5.5269949212598428
21
-4.6210027559055113
0
LINE
8
BLACK
6
CONTINUOUS
10
5.5269949212598428
20
-4.6210027559055113
11
5.5232283464566931
21
-4.6217519685039372
0
LINE
8
BLACK
6
CONTINUOUS
10
5.5232283464566931
20
-4.6217519685039372
11
5.4877952755905515
21
-4.6217519685039372
0
LINE
8
BLACK
6
CONTINUOUS
10
5.4877952755905515
20
-4.6217519685039372
11
5.4840287007874018
21
-4.6210027559055113
0
LINE
8
BLACK
6
CONTINUOUS
10
5.4840287007874018
20
-4.6210027559055113
11
5.4808355511811024
21
-4.6188691732283464
0
LINE
8
BLACK
6
CONTINUOUS
10
5.4808355511811024
20
-4.6188691732283464
11
5.4787019685039366
21
-4.6156760236220471
0
LINE
8
BLACK
6
CONTINUOUS
10
5.4787019685039366
20
-4.6156760236220471
11
5.4779527559055117
21
-4.6119094488188974
0
LINE
8
BLACK
6
CONTINUOUS
10
5.4779527559055117
20
-4.6119094488188974
11
5.4779527559055117
21
-4.591240157480315
0
LINE
8
BLACK
6
CONTINUOUS
10
5.4779527559055117
20
-4.591240157480315
11
5.4787019685039366
21
-4.5874735826771653
0
LINE
8
BLACK
6
CONTINUOUS
10
5.4787019685039366
20
-4.5874735826771653
11
5.4808355511811024
21
-4.584280433070866
0
LINE
8
BLACK
6
CONTINUOUS
10
5.4808355511811024
20
-4.584280433070866
11
5.4840287007874018
21
-4.5821468503937011
0
LINE
8
BLACK
6
CONTINUOUS
10
5.4840287007874018
20
-4.5821468503937011
11
5.4877952755905515
21
-4.5813976377952752
0
LINE
8
BLACK
6
CONTINUOUS
10
5.4877952755905515
20
-4.5813976377952752
11
5.5232283464566931
21
-4.5813976377952752
0
LINE
8
BLACK
6
CONTINUOUS
10
5.5232283464566931
20
-4.5813976377952752
11
5.5269949212598428
21
-4.5821468503937011
0
LINE
8
BLACK
6
CONTINUOUS
10
5.7720434251968502
20
-4.5154101574803152
11
5.7739592913385822
21
-4.5166903149606297
0
LINE
8
BLACK
6
CONTINUOUS
10
5.7739592913385822
20
-4.5166903149606297
11
5.7752394488188976
21
-4.5186061811023617
0
LINE
8
BLACK
6
CONTINUOUS
10
5.7752394488188976
20
-4.5186061811023617
11
5.7756889763779524
21
-4.5208661417322835
0
LINE
8
BLACK
6
CONTINUOUS
10
5.7756889763779524
20
-4.5208661417322835
11
5.7756889763779524
21
-4.5612204724409446
0
LINE
8
BLACK
6
CONTINUOUS
10
5.7756889763779524
20
-4.5612204724409446
11
5.7752394488188976
21
-4.5634804330708656
0
LINE
8
BLACK
6
CONTINUOUS
10
5.7752394488188976
20
-4.5634804330708656
11
5.7739592913385822
21
-4.5653962992125985
0
LINE
8
BLACK
6
CONTINUOUS
10
5.7739592913385822
20
-4.5653962992125985
11
5.7720434251968502
21
-4.566676456692913
0
LINE
8
BLACK
6
CONTINUOUS
10
5.7720434251968502
20
-4.566676456692913
11
5.7697834645669293
21
-4.5671259842519687
0
LINE
8
BLACK
6
CONTINUOUS
10
5.7697834645669293
20
-4.5671259842519687
11
5.757972440944882
21
-4.5671259842519687
0
LINE
8
BLACK
6
CONTINUOUS
10
5.757972440944882
20
-4.5671259842519687
11
5.7557124803149602
21
-4.566676456692913
0
LINE
8
BLACK
6
CONTINUOUS
10
5.7557124803149602
20
-4.566676456692913
11
5.7537966141732282
21
-4.5653962992125985
0
LINE
8
BLACK
6
CONTINUOUS
10
5.7537966141732282
20
-4.5653962992125985
11
5.7525164566929137
21
-4.5634804330708656
0
LINE
8
BLACK
6
CONTINUOUS
10
5.7525164566929137
20
-4.5634804330708656
11
5.752066929133858
21
-4.5612204724409446
0
LINE
8
BLACK
6
CONTINUOUS
10
5.752066929133858
20
-4.5612204724409446
11
5.752066929133858
21
-4.5208661417322835
0
LINE
8
BLACK
6
CONTINUOUS
10
5.752066929133858
20
-4.5208661417322835
11
5.7525164566929137
21
-4.5186061811023617
0
LINE
8
BLACK
6
CONTINUOUS
10
5.7525164566929137
20
-4.5186061811023617
11
5.7537966141732282
21
-4.5166903149606297
0
LINE
8
BLACK
6
CONTINUOUS
10
5.7537966141732282
20
-4.5166903149606297
11
5.7557124803149602
21
-4.5154101574803152
0
LINE
8
BLACK
6
CONTINUOUS
10
5.7557124803149602
20
-4.5154101574803152
11
5.757972440944882
21
-4.5149606299212595
0
LINE
8
BLACK
6
CONTINUOUS
10
5.757972440944882
20
-4.5149606299212595
11
5.7697834645669293
21
-4.5149606299212595
0
LINE
8
BLACK
6
CONTINUOUS
10
5.7697834645669293
20
-4.5149606299212595
11
5.7720434251968502
21
-4.5154101574803152
0
LINE
8
BLACK
6
CONTINUOUS
10
5.8094450000000002
20
-4.5154101574803152
11
5.8113608661417322
21
-4.5166903149606297
0
LINE
8
BLACK
6
CONTINUOUS
10
5.8113608661417322
20
-4.5166903149606297
11
5.8126410236220467
21
-4.5186061811023617
0
LINE
8
BLACK
6
CONTINUOUS
10
5.8126410236220467
20
-4.5186061811023617
11
5.8130905511811024
21
-4.5208661417322835
0
LINE
8
BLACK
6
CONTINUOUS
10
5.8130905511811024
20
-4.5208661417322835
11
5.8130905511811024
21
-4.5612204724409446
0
LINE
8
BLACK
6
CONTINUOUS
10
5.8130905511811024
20
-4.5612204724409446
11
5.8126410236220467
21
-4.5634804330708656
0
LINE
8
BLACK
6
CONTINUOUS
10
5.8126410236220467
20
-4.5634804330708656
11
5.8113608661417322
21
-4.5653962992125985
0
LINE
8
BLACK
6
CONTINUOUS
10
5.8113608661417322
20
-4.5653962992125985
11
5.8094450000000002
21
-4.566676456692913
0
LINE
8
BLACK
6
CONTINUOUS
10
5.8094450000000002
20
-4.566676456692913
11
5.8071850393700783
21
-4.5671259842519687
0
LINE
8
BLACK
6
CONTINUOUS
10
5.8071850393700783
20
-4.5671259842519687
11
5.7953740157480311
21
-4.5671259842519687
0
LINE
8
BLACK
6
CONTINUOUS
10
5.7953740157480311
20
-4.5671259842519687
11
5.7931140551181102
21
-4.566676456692913
0
LINE
8
BLACK
6
CONTINUOUS
10
5.7931140551181102
20
-4.566676456692913
11
5.7911981889763782
21
-4.5653962992125985
0
LINE
8
BLACK
6
CONTINUOUS
10
5.7911981889763782
20
-4.5653962992125985
11
5.7899180314960628
21
-4.5634804330708656
0
LINE
8
BLACK
6
CONTINUOUS
10
5.7899180314960628
20
-4.5634804330708656
11
5.789468503937008
21
-4.5612204724409446
0
LINE
8
BLACK
6
CONTINUOUS
10
5.789468503937008
20
-4.5612204724409446
11
5.789468503937008
21
-4.5208661417322835
0
LINE
8
BLACK
6
CONTINUOUS
10
5.789468503937008
20
-4.5208661417322835
11
5.7899180314960628
21
-4.5186061811023617
0
LINE
8
BLACK
6
CONTINUOUS
10
5.7899180314960628
20
-4.5186061811023617
11
5.7911981889763782
21
-4.5166903149606297
0
LINE
8
BLACK
6
CONTINUOUS
10
5.7911981889763782
20
-4.5166903149606297
11
5.7931140551181102
21
-4.5154101574803152
0
LINE
8
BLACK
6
CONTINUOUS
10
5.7931140551181102
20
-4.5154101574803152
11
5.7953740157480311
21
-4.5149606299212595
0
LINE
8
BLACK
6
CONTINUOUS
10
5.7953740157480311
20
-4.5149606299212595
11
5.8071850393700783
21
-4.5149606299212595
0
LINE
8
BLACK
6
CONTINUOUS
10
5.8071850393700783
20
-4.5149606299212595
11
5.8094450000000002
21
-4.5154101574803152
0
LINE
8
BLACK
6
CONTINUOUS
10
5.8468465748031493
20
-4.5154101574803152
11
5.8487624409448822
21
-4.5166903149606297
0
LINE
8
BLACK
6
CONTINUOUS
10
5.8487624409448822
20
-4.5166903149606297
11
5.8500425984251967
21
-4.5186061811023617
0
LINE
8
BLACK
6
CONTINUOUS
10
5.8500425984251967
20
-4.5186061811023617
11
5.8504921259842515
21
-4.5208661417322835
0
LINE
8
BLACK
6
CONTINUOUS
10
5.8504921259842515
20
-4.5208661417322835
11
5.8504921259842515
21
-4.5612204724409446
0
LINE
8
BLACK
6
CONTINUOUS
10
5.8504921259842515
20
-4.5612204724409446
11
5.8500425984251967
21
-4.5634804330708656
0
LINE
8
BLACK
6
CONTINUOUS
10
5.8500425984251967
20
-4.5634804330708656
11
5.8487624409448822
21
-4.5653962992125985
0
LINE
8
BLACK
6
CONTINUOUS
10
5.8487624409448822
20
-4.5653962992125985
11
5.8468465748031493
21
-4.566676456692913
0
LINE
8
BLACK
6
CONTINUOUS
10
5.8468465748031493
20
-4.566676456692913
11
5.8445866141732283
21
-4.5671259842519687
0
LINE
8
BLACK
6
CONTINUOUS
10
5.8445866141732283
20
-4.5671259842519687
11
5.8327755905511811
21
-4.5671259842519687
0
LINE
8
BLACK
6
CONTINUOUS
10
5.8327755905511811
20
-4.5671259842519687
11
5.8305156299212593
21
-4.566676456692913
0
LINE
8
BLACK
6
CONTINUOUS
10
5.8305156299212593
20
-4.566676456692913
11
5.8285997637795273
21
-4.5653962992125985
0
LINE
8
BLACK
6
CONTINUOUS
10
5.8285997637795273
20
-4.5653962992125985
11
5.8273196062992128
21
-4.5634804330708656
0
LINE
8
BLACK
6
CONTINUOUS
10
5.8273196062992128
20
-4.5634804330708656
11
5.8268700787401571
21
-4.5612204724409446
0
LINE
8
BLACK
6
CONTINUOUS
10
5.8268700787401571
20
-4.5612204724409446
11
5.8268700787401571
21
-4.5208661417322835
0
LINE
8
BLACK
6
CONTINUOUS
10
5.8268700787401571
20
-4.5208661417322835
11
5.8273196062992128
21
-4.5186061811023617
0
LINE
8
BLACK
6
CONTINUOUS
10
5.8273196062992128
20
-4.5186061811023617
11
5.8285997637795273
21
-4.5166903149606297
0
LINE
8
BLACK
6
CONTINUOUS
10
5.8285997637795273
20
-4.5166903149606297
11
5.8305156299212593
21
-4.5154101574803152
0
LINE
8
BLACK
6
CONTINUOUS
10
5.8305156299212593
20
-4.5154101574803152
11
5.8327755905511811
21
-4.5149606299212595
0
LINE
8
BLACK
6
CONTINUOUS
10
5.8327755905511811
20
-4.5149606299212595
11
5.8445866141732283
21
-4.5149606299212595
0
LINE
8
BLACK
6
CONTINUOUS
10
5.8445866141732283
20
-4.5149606299212595
11
5.8468465748031493
21
-4.5154101574803152
0
LINE
8
BLACK
6
CONTINUOUS
10
5.1242390157480315
20
-4.510788582677165
11
5.1274321653543309
21
-4.5129221653543308
0
LINE
8
BLACK
6
CONTINUOUS
10
5.1274321653543309
20
-4.5129221653543308
11
5.1295657480314958
21
-4.5161153149606301
0
LINE
8
BLACK
6
CONTINUOUS
10
5.1295657480314958
20
-4.5161153149606301
11
5.1303149606299208
21
-4.5198818897637798
0
LINE
8
BLACK
6
CONTINUOUS
10
5.1303149606299208
20
-4.5198818897637798
11
5.1303149606299208
21
-4.5405511811023622
0
LINE
8
BLACK
6
CONTINUOUS
10
5.1303149606299208
20
-4.5405511811023622
11
5.1295657480314958
21
-4.5443177559055119
0
LINE
8
BLACK
6
CONTINUOUS
10
5.1295657480314958
20
-4.5443177559055119
11
5.1274321653543309
21
-4.5475109055118113
0
LINE
8
BLACK
6
CONTINUOUS
10
5.1274321653543309
20
-4.5475109055118113
11
5.1242390157480315
21
-4.5496444881889762
0
LINE
8
BLACK
6
CONTINUOUS
10
5.1242390157480315
20
-4.5496444881889762
11
5.1204724409448819
21
-4.5503937007874011
0
LINE
8
BLACK
6
CONTINUOUS
10
5.1204724409448819
20
-4.5503937007874011
11
5.0850393700787402
21
-4.5503937007874011
0
LINE
8
BLACK
6
CONTINUOUS
10
5.0850393700787402
20
-4.5503937007874011
11
5.0812727952755905
21
-4.5496444881889762
0
LINE
8
BLACK
6
CONTINUOUS
10
5.0812727952755905
20
-4.5496444881889762
11
5.0780796456692912
21
-4.5475109055118113
0
LINE
8
BLACK
6
CONTINUOUS
10
5.0780796456692912
20
-4.5475109055118113
11
5.0759460629921263
21
-4.5443177559055119
0
LINE
8
BLACK
6
CONTINUOUS
10
5.0759460629921263
20
-4.5443177559055119
11
5.0751968503937004
21
-4.5405511811023622
0
LINE
8
BLACK
6
CONTINUOUS
10
5.0751968503937004
20
-4.5405511811023622
11
5.0751968503937004
21
-4.5198818897637798
0
LINE
8
BLACK
6
CONTINUOUS
10
5.0751968503937004
20
-4.5198818897637798
11
5.0759460629921263
21
-4.5161153149606301
0
LINE
8
BLACK
6
CONTINUOUS
10
5.0759460629921263
20
-4.5161153149606301
11
5.0780796456692912
21
-4.5129221653543308
0
LINE
8
BLACK
6
CONTINUOUS
10
5.0780796456692912
20
-4.5129221653543308
11
5.0812727952755905
21
-4.510788582677165
0
LINE
8
BLACK
6
CONTINUOUS
10
5.0812727952755905
20
-4.510788582677165
11
5.0850393700787402
21
-4.51003937007874
0
LINE
8
BLACK
6
CONTINUOUS
10
5.0850393700787402
20
-4.51003937007874
11
5.1204724409448819
21
-4.51003937007874
0
LINE
8
BLACK
6
CONTINUOUS
10
5.1204724409448819
20
-4.51003937007874
11
5.1242390157480315
21
-4.510788582677165
0
LINE
8
BLACK
6
CONTINUOUS
10
5.2033728740157477
20
-4.510788582677165
11
5.206566023622047
21
-4.5129221653543308
0
LINE
8
BLACK
6
CONTINUOUS
10
5.206566023622047
20
-4.5129221653543308
11
5.2086996062992128
21
-4.5161153149606301
0
LINE
8
BLACK
6
CONTINUOUS
10
5.2086996062992128
20
-4.5161153149606301
11
5.2094488188976378
21
-4.5198818897637798
0
LINE
8
BLACK
6
CONTINUOUS
10
5.2094488188976378
20
-4.5198818897637798
11
5.2094488188976378
21
-4.5405511811023622
0
LINE
8
BLACK
6
CONTINUOUS
10
5.2094488188976378
20
-4.5405511811023622
11
5.2086996062992128
21
-4.5443177559055119
0
LINE
8
BLACK
6
CONTINUOUS
10
5.2086996062992128
20
-4.5443177559055119
11
5.206566023622047
21
-4.5475109055118113
0
LINE
8
BLACK
6
CONTINUOUS
10
5.206566023622047
20
-4.5475109055118113
11
5.2033728740157477
21
-4.5496444881889762
0
LINE
8
BLACK
6
CONTINUOUS
10
5.2033728740157477
20
-4.5496444881889762
11
5.199606299212598
21
-4.5503937007874011
0
LINE
8
BLACK
6
CONTINUOUS
10
5.199606299212598
20
-4.5503937007874011
11
5.1641732283464563
21
-4.5503937007874011
0
LINE
8
BLACK
6
CONTINUOUS
10
5.1641732283464563
20
-4.5503937007874011
11
5.1604066535433066
21
-4.5496444881889762
0
LINE
8
BLACK
6
CONTINUOUS
10
5.1604066535433066
20
-4.5496444881889762
11
5.1572135039370082
21
-4.5475109055118113
0
LINE
8
BLACK
6
CONTINUOUS
10
5.1572135039370082
20
-4.5475109055118113
11
5.1550799212598424
21
-4.5443177559055119
0
LINE
8
BLACK
6
CONTINUOUS
10
5.1550799212598424
20
-4.5443177559055119
11
5.1543307086614174
21
-4.5405511811023622
0
LINE
8
BLACK
6
CONTINUOUS
10
5.1543307086614174
20
-4.5405511811023622
11
5.1543307086614174
21
-4.5198818897637798
0
LINE
8
BLACK
6
CONTINUOUS
10
5.1543307086614174
20
-4.5198818897637798
11
5.1550799212598424
21
-4.5161153149606301
0
LINE
8
BLACK
6
CONTINUOUS
10
5.1550799212598424
20
-4.5161153149606301
11
5.1572135039370082
21
-4.5129221653543308
0
LINE
8
BLACK
6
CONTINUOUS
10
5.1572135039370082
20
-4.5129221653543308
11
5.1604066535433066
21
-4.510788582677165
0
LINE
8
BLACK
6
CONTINUOUS
10
5.1604066535433066
20
-4.510788582677165
11
5.1641732283464563
21
-4.51003937007874
0
LINE
8
BLACK
6
CONTINUOUS
10
5.1641732283464563
20
-4.51003937007874
11
5.199606299212598
21
-4.51003937007874
0
LINE
8
BLACK
6
CONTINUOUS
10
5.199606299212598
20
-4.51003937007874
11
5.2033728740157477
21
-4.510788582677165
0
LINE
8
BLACK
6
CONTINUOUS
10
5.4470736614173223
20
-4.5104933070866142
11
5.4502668110236216
21
-4.5126268897637791
0
LINE
8
BLACK
6
CONTINUOUS
10
5.4502668110236216
20
-4.5126268897637791
11
5.4524003937007874
21
-4.5158200393700785
0
LINE
8
BLACK
6
CONTINUOUS
10
5.4524003937007874
20
-4.5158200393700785
11
5.4531496062992124
21
-4.5195866141732282
0
LINE
8
BLACK
6
CONTINUOUS
10
5.4531496062992124
20
-4.5195866141732282
11
5.4531496062992124
21
-4.5402559055118106
0
LINE
8
BLACK
6
CONTINUOUS
10
5.4531496062992124
20
-4.5402559055118106
11
5.4524003937007874
21
-4.5440224803149603
0
LINE
8
BLACK
6
CONTINUOUS
10
5.4524003937007874
20
-4.5440224803149603
11
5.4502668110236216
21
-4.5472156299212596
0
LINE
8
BLACK
6
CONTINUOUS
10
5.4502668110236216
20
-4.5472156299212596
11
5.4470736614173223
21
-4.5493492125984254
0
LINE
8
BLACK
6
CONTINUOUS
10
5.4470736614173223
20
-4.5493492125984254
11
5.4433070866141735
21
-4.5500984251968504
0
LINE
8
BLACK
6
CONTINUOUS
10
5.4433070866141735
20
-4.5500984251968504
11
5.4078740157480309
21
-4.5500984251968504
0
LINE
8
BLACK
6
CONTINUOUS
10
5.4078740157480309
20
-4.5500984251968504
11
5.4041074409448822
21
-4.5493492125984254
0
LINE
8
BLACK
6
CONTINUOUS
10
5.4041074409448822
20
-4.5493492125984254
11
5.4009142913385828
21
-4.5472156299212596
0
LINE
8
BLACK
6
CONTINUOUS
10
5.4009142913385828
20
-4.5472156299212596
11
5.398780708661417
21
-4.5440224803149603
0
LINE
8
BLACK
6
CONTINUOUS
10
5.398780708661417
20
-4.5440224803149603
11
5.398031496062992
21
-4.5402559055118106
0
LINE
8
BLACK
6
CONTINUOUS
10
5.398031496062992
20
-4.5402559055118106
11
5.398031496062992
21
-4.5195866141732282
0
LINE
8
BLACK
6
CONTINUOUS
10
5.398031496062992
20
-4.5195866141732282
11
5.398780708661417
21
-4.5158200393700785
0
LINE
8
BLACK
6
CONTINUOUS
10
5.398780708661417
20
-4.5158200393700785
11
5.4009142913385828
21
-4.5126268897637791
0
LINE
8
BLACK
6
CONTINUOUS
10
5.4009142913385828
20
-4.5126268897637791
11
5.4041074409448822
21
-4.5104933070866142
0
LINE
8
BLACK
6
CONTINUOUS
10
5.4041074409448822
20
-4.5104933070866142
11
5.4078740157480309
21
-4.5097440944881892
0
LINE
8
BLACK
6
CONTINUOUS
10
5.4078740157480309
20
-4.5097440944881892
11
5.4433070866141735
21
-4.5097440944881892
0
LINE
8
BLACK
6
CONTINUOUS
10
5.4433070866141735
20
-4.5097440944881892
11
5.4470736614173223
21
-4.5104933070866142
0
LINE
8
BLACK
6
CONTINUOUS
10
4.9502232677165354
20
-4.4956311023622044
11
4.9534164173228348
21
-4.4977646850393702
0
LINE
8
BLACK
6
CONTINUOUS
10
4.9534164173228348
20
-4.4977646850393702
11
4.9555499999999997
21
-4.5009578346456696
0
LINE
8
BLACK
6
CONTINUOUS
10
4.9555499999999997
20
-4.5009578346456696
11
4.9562992125984247
21
-4.5047244094488184
0
LINE
8
BLACK
6
CONTINUOUS
10
4.9562992125984247
20
-4.5047244094488184
11
4.9562992125984247
21
-4.5401574803149609
0
LINE
8
BLACK
6
CONTINUOUS
10
4.9562992125984247
20
-4.5401574803149609
11
4.9555499999999997
21
-4.5439240551181097
0
LINE
8
BLACK
6
CONTINUOUS
10
4.9555499999999997
20
-4.5439240551181097
11
4.9534164173228348
21
-4.5471172047244091
0
LINE
8
BLACK
6
CONTINUOUS
10
4.9534164173228348
20
-4.5471172047244091
11
4.9502232677165354
21
-4.5492507874015748
0
LINE
8
BLACK
6
CONTINUOUS
10
4.9502232677165354
20
-4.5492507874015748
11
4.9464566929133857
21
-4.5499999999999998
0
LINE
8
BLACK
6
CONTINUOUS
10
4.9464566929133857
20
-4.5499999999999998
11
4.9257874015748033
21
-4.5499999999999998
0
LINE
8
BLACK
6
CONTINUOUS
10
4.9257874015748033
20
-4.5499999999999998
11
4.9220208267716536
21
-4.5492507874015748
0
LINE
8
BLACK
6
CONTINUOUS
10
4.9220208267716536
20
-4.5492507874015748
11
4.9188276771653543
21
-4.5471172047244091
0
LINE
8
BLACK
6
CONTINUOUS
10
4.9188276771653543
20
-4.5471172047244091
11
4.9166940944881885
21
-4.5439240551181097
0
LINE
8
BLACK
6
CONTINUOUS
10
4.9166940944881885
20
-4.5439240551181097
11
4.9159448818897635
21
-4.5401574803149609
0
LINE
8
BLACK
6
CONTINUOUS
10
4.9159448818897635
20
-4.5401574803149609
11
4.9159448818897635
21
-4.5047244094488184
0
LINE
8
BLACK
6
CONTINUOUS
10
4.9159448818897635
20
-4.5047244094488184
11
4.9166940944881885
21
-4.5009578346456696
0
LINE
8
BLACK
6
CONTINUOUS
10
4.9166940944881885
20
-4.5009578346456696
11
4.9188276771653543
21
-4.4977646850393702
0
LINE
8
BLACK
6
CONTINUOUS
10
4.9188276771653543
20
-4.4977646850393702
11
4.9220208267716536
21
-4.4956311023622044
0
LINE
8
BLACK
6
CONTINUOUS
10
4.9220208267716536
20
-4.4956311023622044
11
4.9257874015748033
21
-4.4948818897637794
0
LINE
8
BLACK
6
CONTINUOUS
10
4.9257874015748033
20
-4.4948818897637794
11
4.9464566929133857
21
-4.4948818897637794
0
LINE
8
BLACK
6
CONTINUOUS
10
4.9464566929133857
20
-4.4948818897637794
11
4.9502232677165354
21
-4.4956311023622044
0
LINE
8
BLACK
6
CONTINUOUS
10
5.0220736614173225
20
-4.4956311023622044
11
5.0252668110236218
21
-4.4977646850393702
0
LINE
8
BLACK
6
CONTINUOUS
10
5.0252668110236218
20
-4.4977646850393702
11
5.0274003937007876
21
-4.5009578346456696
0
LINE
8
BLACK
6
CONTINUOUS
10
5.0274003937007876
20
-4.5009578346456696
11
5.0281496062992126
21
-4.5047244094488184
0
LINE
8
BLACK
6
CONTINUOUS
10
5.0281496062992126
20
-4.5047244094488184
11
5.0281496062992126
21
-4.5401574803149609
0
LINE
8
BLACK
6
CONTINUOUS
10
5.0281496062992126
20
-4.5401574803149609
11
5.0274003937007876
21
-4.5439240551181097
0
LINE
8
BLACK
6
CONTINUOUS
10
5.0274003937007876
20
-4.5439240551181097
11
5.0252668110236218
21
-4.5471172047244091
0
LINE
8
BLACK
6
CONTINUOUS
10
5.0252668110236218
20
-4.5471172047244091
11
5.0220736614173225
21
-4.5492507874015748
0
LINE
8
BLACK
6
CONTINUOUS
10
5.0220736614173225
20
-4.5492507874015748
11
5.0183070866141728
21
-4.5499999999999998
0
LINE
8
BLACK
6
CONTINUOUS
10
5.0183070866141728
20
-4.5499999999999998
11
4.9976377952755904
21
-4.5499999999999998
0
LINE
8
BLACK
6
CONTINUOUS
10
4.9976377952755904
20
-4.5499999999999998
11
4.9938712204724407
21
-4.5492507874015748
0
LINE
8
BLACK
6
CONTINUOUS
10
4.9938712204724407
20
-4.5492507874015748
11
4.9906780708661413
21
-4.5471172047244091
0
LINE
8
BLACK
6
CONTINUOUS
10
4.9906780708661413
20
-4.5471172047244091
11
4.9885444881889764
21
-4.5439240551181097
0
LINE
8
BLACK
6
CONTINUOUS
10
4.9885444881889764
20
-4.5439240551181097
11
4.9877952755905515
21
-4.5401574803149609
0
LINE
8
BLACK
6
CONTINUOUS
10
4.9877952755905515
20
-4.5401574803149609
11
4.9877952755905515
21
-4.5047244094488184
0
LINE
8
BLACK
6
CONTINUOUS
10
4.9877952755905515
20
-4.5047244094488184
11
4.9885444881889764
21
-4.5009578346456696
0
LINE
8
BLACK
6
CONTINUOUS
10
4.9885444881889764
20
-4.5009578346456696
11
4.9906780708661413
21
-4.4977646850393702
0
LINE
8
BLACK
6
CONTINUOUS
10
4.9906780708661413
20
-4.4977646850393702
11
4.9938712204724407
21
-4.4956311023622044
0
LINE
8
BLACK
6
CONTINUOUS
10
4.9938712204724407
20
-4.4956311023622044
11
4.9976377952755904
21
-4.4948818897637794
0
LINE
8
BLACK
6
CONTINUOUS
10
4.9976377952755904
20
-4.4948818897637794
11
5.0183070866141728
21
-4.4948818897637794
0
LINE
8
BLACK
6
CONTINUOUS
10
5.0183070866141728
20
-4.4948818897637794
11
5.0220736614173225
21
-4.4956311023622044
0
LINE
8
BLACK
6
CONTINUOUS
10
5.5269949212598428
20
-4.5102964566929131
11
5.5301880708661413
21
-4.5124300393700789
0
LINE
8
BLACK
6
CONTINUOUS
10
5.5301880708661413
20
-4.5124300393700789
11
5.5323216535433071
21
-4.5156231889763783
0
LINE
8
BLACK
6
CONTINUOUS
10
5.5323216535433071
20
-4.5156231889763783
11
5.533070866141732
21
-4.5193897637795271
0
LINE
8
BLACK
6
CONTINUOUS
10
5.533070866141732
20
-4.5193897637795271
11
5.533070866141732
21
-4.5400590551181104
0
LINE
8
BLACK
6
CONTINUOUS
10
5.533070866141732
20
-4.5400590551181104
11
5.5323216535433071
21
-4.54382562992126
0
LINE
8
BLACK
6
CONTINUOUS
10
5.5323216535433071
20
-4.54382562992126
11
5.5301880708661413
21
-4.5470187795275594
0
LINE
8
BLACK
6
CONTINUOUS
10
5.5301880708661413
20
-4.5470187795275594
11
5.5269949212598428
21
-4.5491523622047243
0
LINE
8
BLACK
6
CONTINUOUS
10
5.5269949212598428
20
-4.5491523622047243
11
5.5232283464566931
21
-4.5499015748031493
0
LINE
8
BLACK
6
CONTINUOUS
10
5.5232283464566931
20
-4.5499015748031493
11
5.4877952755905515
21
-4.5499015748031493
0
LINE
8
BLACK
6
CONTINUOUS
10
5.4877952755905515
20
-4.5499015748031493
11
5.4840287007874018
21
-4.5491523622047243
0
LINE
8
BLACK
6
CONTINUOUS
10
5.4840287007874018
20
-4.5491523622047243
11
5.4808355511811024
21
-4.5470187795275594
0
LINE
8
BLACK
6
CONTINUOUS
10
5.4808355511811024
20
-4.5470187795275594
11
5.4787019685039366
21
-4.54382562992126
0
LINE
8
BLACK
6
CONTINUOUS
10
5.4787019685039366
20
-4.54382562992126
11
5.4779527559055117
21
-4.5400590551181104
0
LINE
8
BLACK
6
CONTINUOUS
10
5.4779527559055117
20
-4.5400590551181104
11
5.4779527559055117
21
-4.5193897637795271
0
LINE
8
BLACK
6
CONTINUOUS
10
5.4779527559055117
20
-4.5193897637795271
11
5.4787019685039366
21
-4.5156231889763783
0
LINE
8
BLACK
6
CONTINUOUS
10
5.4787019685039366
20
-4.5156231889763783
11
5.4808355511811024
21
-4.5124300393700789
0
LINE
8
BLACK
6
CONTINUOUS
10
5.4808355511811024
20
-4.5124300393700789
11
5.4840287007874018
21
-4.5102964566929131
0
LINE
8
BLACK
6
CONTINUOUS
10
5.4840287007874018
20
-4.5102964566929131
11
5.4877952755905515
21
-4.5095472440944881
0
LINE
8
BLACK
6
CONTINUOUS
10
5.4877952755905515
20
-4.5095472440944881
11
5.5232283464566931
21
-4.5095472440944881
0
LINE
8
BLACK
6
CONTINUOUS
10
5.5232283464566931
20
-4.5095472440944881
11
5.5269949212598428
21
-4.5102964566929131
0
LINE
8
BLACK
6
CONTINUOUS
10
5.2878216929133854
20
-4.5101980314960626
11
5.2910148425196848
21
-4.5123316141732284
0
LINE
8
BLACK
6
CONTINUOUS
10
5.2910148425196848
20
-4.5123316141732284
11
5.2931484251968506
21
-4.5155247637795277
0
LINE
8
BLACK
6
CONTINUOUS
10
5.2931484251968506
20
-4.5155247637795277
11
5.2938976377952756
21
-4.5192913385826774
0
LINE
8
BLACK
6
CONTINUOUS
10
5.2938976377952756
20
-4.5192913385826774
11
5.2938976377952756
21
-4.5389763779527561
0
LINE
8
BLACK
6
CONTINUOUS
10
5.2938976377952756
20
-4.5389763779527561
11
5.2931484251968506
21
-4.5427429527559058
0
LINE
8
BLACK
6
CONTINUOUS
10
5.2931484251968506
20
-4.5427429527559058
11
5.2910148425196848
21
-4.5459361023622042
0
LINE
8
BLACK
6
CONTINUOUS
10
5.2910148425196848
20
-4.5459361023622042
11
5.2878216929133854
21
-4.54806968503937
0
LINE
8
BLACK
6
CONTINUOUS
10
5.2878216929133854
20
-4.54806968503937
11
5.2840551181102358
21
-4.548818897637795
0
LINE
8
BLACK
6
CONTINUOUS
10
5.2840551181102358
20
-4.548818897637795
11
5.2466535433070867
21
-4.548818897637795
0
LINE
8
BLACK
6
CONTINUOUS
10
5.2466535433070867
20
-4.548818897637795
11
5.242886968503937
21
-4.54806968503937
0
LINE
8
BLACK
6
CONTINUOUS
10
5.242886968503937
20
-4.54806968503937
11
5.2396938188976376
21
-4.5459361023622042
0
LINE
8
BLACK
6
CONTINUOUS
10
5.2396938188976376
20
-4.5459361023622042
11
5.2375602362204727
21
-4.5427429527559058
0
LINE
8
BLACK
6
CONTINUOUS
10
5.2375602362204727
20
-4.5427429527559058
11
5.2368110236220469
21
-4.5389763779527561
0
LINE
8
BLACK
6
CONTINUOUS
10
5.2368110236220469
20
-4.5389763779527561
11
5.2368110236220469
21
-4.5192913385826774
0
LINE
8
BLACK
6
CONTINUOUS
10
5.2368110236220469
20
-4.5192913385826774
11
5.2375602362204727
21
-4.5155247637795277
0
LINE
8
BLACK
6
CONTINUOUS
10
5.2375602362204727
20
-4.5155247637795277
11
5.2396938188976376
21
-4.5123316141732284
0
LINE
8
BLACK
6
CONTINUOUS
10
5.2396938188976376
20
-4.5123316141732284
11
5.242886968503937
21
-4.5101980314960626
0
LINE
8
BLACK
6
CONTINUOUS
10
5.242886968503937
20
-4.5101980314960626
11
5.2466535433070867
21
-4.5094488188976376
0
LINE
8
BLACK
6
CONTINUOUS
10
5.2466535433070867
20
-4.5094488188976376
11
5.2840551181102358
21
-4.5094488188976376
0
LINE
8
BLACK
6
CONTINUOUS
10
5.2840551181102358
20
-4.5094488188976376
11
5.2878216929133854
21
-4.5101980314960626
0
LINE
8
BLACK
6
CONTINUOUS
10
5.7720434251968502
20
-4.4258432283464568
11
5.7739592913385822
21
-4.4271233858267713
0
LINE
8
BLACK
6
CONTINUOUS
10
5.7739592913385822
20
-4.4271233858267713
11
5.7752394488188976
21
-4.4290392519685042
0
LINE
8
BLACK
6
CONTINUOUS
10
5.7752394488188976
20
-4.4290392519685042
11
5.7756889763779524
21
-4.4312992125984252
0
LINE
8
BLACK
6
CONTINUOUS
10
5.7756889763779524
20
-4.4312992125984252
11
5.7756889763779524
21
-4.4716535433070863
0
LINE
8
BLACK
6
CONTINUOUS
10
5.7756889763779524
20
-4.4716535433070863
11
5.7752394488188976
21
-4.4739135039370082
0
LINE
8
BLACK
6
CONTINUOUS
10
5.7752394488188976
20
-4.4739135039370082
11
5.7739592913385822
21
-4.4758293700787402
0
LINE
8
BLACK
6
CONTINUOUS
10
5.7739592913385822
20
-4.4758293700787402
11
5.7720434251968502
21
-4.4771095275590547
0
LINE
8
BLACK
6
CONTINUOUS
10
5.7720434251968502
20
-4.4771095275590547
11
5.7697834645669293
21
-4.4775590551181104
0
LINE
8
BLACK
6
CONTINUOUS
10
5.7697834645669293
20
-4.4775590551181104
11
5.757972440944882
21
-4.4775590551181104
0
LINE
8
BLACK
6
CONTINUOUS
10
5.757972440944882
20
-4.4775590551181104
11
5.7557124803149602
21
-4.4771095275590547
0
LINE
8
BLACK
6
CONTINUOUS
10
5.7557124803149602
20
-4.4771095275590547
11
5.7537966141732282
21
-4.4758293700787402
0
LINE
8
BLACK
6
CONTINUOUS
10
5.7537966141732282
20
-4.4758293700787402
11
5.7525164566929137
21
-4.4739135039370082
0
LINE
8
BLACK
6
CONTINUOUS
10
5.7525164566929137
20
-4.4739135039370082
11
5.752066929133858
21
-4.4716535433070863
0
LINE
8
BLACK
6
CONTINUOUS
10
5.752066929133858
20
-4.4716535433070863
11
5.752066929133858
21
-4.4312992125984252
0
LINE
8
BLACK
6
CONTINUOUS
10
5.752066929133858
20
-4.4312992125984252
11
5.7525164566929137
21
-4.4290392519685042
0
LINE
8
BLACK
6
CONTINUOUS
10
5.7525164566929137
20
-4.4290392519685042
11
5.7537966141732282
21
-4.4271233858267713
0
LINE
8
BLACK
6
CONTINUOUS
10
5.7537966141732282
20
-4.4271233858267713
11
5.7557124803149602
21
-4.4258432283464568
0
LINE
8
BLACK
6
CONTINUOUS
10
5.7557124803149602
20
-4.4258432283464568
11
5.757972440944882
21
-4.4253937007874011
0
LINE
8
BLACK
6
CONTINUOUS
10
5.757972440944882
20
-4.4253937007874011
11
5.7697834645669293
21
-4.4253937007874011
0
LINE
8
BLACK
6
CONTINUOUS
10
5.7697834645669293
20
-4.4253937007874011
11
5.7720434251968502
21
-4.4258432283464568
0
LINE
8
BLACK
6
CONTINUOUS
10
5.8468465748031493
20
-4.4258432283464568
11
5.8487624409448822
21
-4.4271233858267713
0
LINE
8
BLACK
6
CONTINUOUS
10
5.8487624409448822
20
-4.4271233858267713
11
5.8500425984251967
21
-4.4290392519685042
0
LINE
8
BLACK
6
CONTINUOUS
10
5.8500425984251967
20
-4.4290392519685042
11
5.8504921259842515
21
-4.4312992125984252
0
LINE
8
BLACK
6
CONTINUOUS
10
5.8504921259842515
20
-4.4312992125984252
11
5.8504921259842515
21
-4.4716535433070863
0
LINE
8
BLACK
6
CONTINUOUS
10
5.8504921259842515
20
-4.4716535433070863
11
5.8500425984251967
21
-4.4739135039370082
0
LINE
8
BLACK
6
CONTINUOUS
10
5.8500425984251967
20
-4.4739135039370082
11
5.8487624409448822
21
-4.4758293700787402
0
LINE
8
BLACK
6
CONTINUOUS
10
5.8487624409448822
20
-4.4758293700787402
11
5.8468465748031493
21
-4.4771095275590547
0
LINE
8
BLACK
6
CONTINUOUS
10
5.8468465748031493
20
-4.4771095275590547
11
5.8445866141732283
21
-4.4775590551181104
0
LINE
8
BLACK
6
CONTINUOUS
10
5.8445866141732283
20
-4.4775590551181104
11
5.8327755905511811
21
-4.4775590551181104
0
LINE
8
BLACK
6
CONTINUOUS
10
5.8327755905511811
20
-4.4775590551181104
11
5.8305156299212593
21
-4.4771095275590547
0
LINE
8
BLACK
6
CONTINUOUS
10
5.8305156299212593
20
-4.4771095275590547
11
5.8285997637795273
21
-4.4758293700787402
0
LINE
8
BLACK
6
CONTINUOUS
10
5.8285997637795273
20
-4.4758293700787402
11
5.8273196062992128
21
-4.4739135039370082
0
LINE
8
BLACK
6
CONTINUOUS
10
5.8273196062992128
20
-4.4739135039370082
11
5.8268700787401571
21
-4.4716535433070863
0
LINE
8
BLACK
6
CONTINUOUS
10
5.8268700787401571
20
-4.4716535433070863
11
5.8268700787401571
21
-4.4312992125984252
0
LINE
8
BLACK
6
CONTINUOUS
10
5.8268700787401571
20
-4.4312992125984252
11
5.8273196062992128
21
-4.4290392519685042
0
LINE
8
BLACK
6
CONTINUOUS
10
5.8273196062992128
20
-4.4290392519685042
11
5.8285997637795273
21
-4.4271233858267713
0
LINE
8
BLACK
6
CONTINUOUS
10
5.8285997637795273
20
-4.4271233858267713
11
5.8305156299212593
21
-4.4258432283464568
0
LINE
8
BLACK
6
CONTINUOUS
10
5.8305156299212593
20
-4.4258432283464568
11
5.8327755905511811
21
-4.4253937007874011
0
LINE
8
BLACK
6
CONTINUOUS
10
5.8327755905511811
20
-4.4253937007874011
11
5.8445866141732283
21
-4.4253937007874011
0
LINE
8
BLACK
6
CONTINUOUS
10
5.8445866141732283
20
-4.4253937007874011
11
5.8468465748031493
21
-4.4258432283464568
0
LINE
8
BLACK
6
CONTINUOUS
10
5.0362468897637793
20
-4.4338200787401574
11
5.0394400393700787
21
-4.4359536614173232
0
LINE
8
BLACK
6
CONTINUOUS
10
5.0394400393700787
20
-4.4359536614173232
11
5.0415736220472436
21
-4.4391468110236216
0
LINE
8
BLACK
6
CONTINUOUS
10
5.0415736220472436
20
-4.4391468110236216
11
5.0423228346456694
21
-4.4429133858267713
0
LINE
8
BLACK
6
CONTINUOUS
10
5.0423228346456694
20
-4.4429133858267713
11
5.0423228346456694
21
-4.46259842519685
0
LINE
8
BLACK
6
CONTINUOUS
10
5.0423228346456694
20
-4.46259842519685
11
5.0415736220472436
21
-4.4663649999999997
0
LINE
8
BLACK
6
CONTINUOUS
10
5.0415736220472436
20
-4.4663649999999997
11
5.0394400393700787
21
-4.469558149606299
0
LINE
8
BLACK
6
CONTINUOUS
10
5.0394400393700787
20
-4.469558149606299
11
5.0362468897637793
21
-4.4716917322834648
0
LINE
8
BLACK
6
CONTINUOUS
10
5.0362468897637793
20
-4.4716917322834648
11
5.0324803149606296
21
-4.4724409448818898
0
LINE
8
BLACK
6
CONTINUOUS
10
5.0324803149606296
20
-4.4724409448818898
11
4.9950787401574805
21
-4.4724409448818898
0
LINE
8
BLACK
6
CONTINUOUS
10
4.9950787401574805
20
-4.4724409448818898
11
4.9913121653543309
21
-4.4716917322834648
0
LINE
8
BLACK
6
CONTINUOUS
10
4.9913121653543309
20
-4.4716917322834648
11
4.9881190157480315
21
-4.469558149606299
0
LINE
8
BLACK
6
CONTINUOUS
10
4.9881190157480315
20
-4.469558149606299
11
4.9859854330708657
21
-4.4663649999999997
0
LINE
8
BLACK
6
CONTINUOUS
10
4.9859854330708657
20
-4.4663649999999997
11
4.9852362204724407
21
-4.46259842519685
0
LINE
8
BLACK
6
CONTINUOUS
10
4.9852362204724407
20
-4.46259842519685
11
4.9852362204724407
21
-4.4429133858267713
0
LINE
8
BLACK
6
CONTINUOUS
10
4.9852362204724407
20
-4.4429133858267713
11
4.9859854330708657
21
-4.4391468110236216
0
LINE
8
BLACK
6
CONTINUOUS
10
4.9859854330708657
20
-4.4391468110236216
11
4.9881190157480315
21
-4.4359536614173232
0
LINE
8
BLACK
6
CONTINUOUS
10
4.9881190157480315
20
-4.4359536614173232
11
4.9913121653543309
21
-4.4338200787401574
0
LINE
8
BLACK
6
CONTINUOUS
10
4.9913121653543309
20
-4.4338200787401574
11
4.9950787401574805
21
-4.4330708661417324
0
LINE
8
BLACK
6
CONTINUOUS
10
4.9950787401574805
20
-4.4330708661417324
11
5.0324803149606296
21
-4.4330708661417324
0
LINE
8
BLACK
6
CONTINUOUS
10
5.0324803149606296
20
-4.4330708661417324
11
5.0362468897637793
21
-4.4338200787401574
0
LINE
8
BLACK
6
CONTINUOUS
10
5.8126248425196847
20
-4.3627570866141729
11
5.815817992125984
21
-4.3648906692913387
0
LINE
8
BLACK
6
CONTINUOUS
10
5.815817992125984
20
-4.3648906692913387
11
5.8179515748031498
21
-4.3680838188976381
0
LINE
8
BLACK
6
CONTINUOUS
10
5.8179515748031498
20
-4.3680838188976381
11
5.8187007874015748
21
-4.3718503937007869
0
LINE
8
BLACK
6
CONTINUOUS
10
5.8187007874015748
20
-4.3718503937007869
11
5.8187007874015748
21
-4.3915354330708665
0
LINE
8
BLACK
6
CONTINUOUS
10
5.8187007874015748
20
-4.3915354330708665
11
5.8179515748031498
21
-4.3953020078740153
0
LINE
8
BLACK
6
CONTINUOUS
10
5.8179515748031498
20
-4.3953020078740153
11
5.815817992125984
21
-4.3984951574803146
0
LINE
8
BLACK
6
CONTINUOUS
10
5.815817992125984
20
-4.3984951574803146
11
5.8126248425196847
21
-4.4006287401574804
0
LINE
8
BLACK
6
CONTINUOUS
10
5.8126248425196847
20
-4.4006287401574804
11
5.808858267716535
21
-4.4013779527559054
0
LINE
8
BLACK
6
CONTINUOUS
10
5.808858267716535
20
-4.4013779527559054
11
5.7714566929133859
21
-4.4013779527559054
0
LINE
8
BLACK
6
CONTINUOUS
10
5.7714566929133859
20
-4.4013779527559054
11
5.7676901181102362
21
-4.4006287401574804
0
LINE
8
BLACK
6
CONTINUOUS
10
5.7676901181102362
20
-4.4006287401574804
11
5.7644969685039369
21
-4.3984951574803146
0
LINE
8
BLACK
6
CONTINUOUS
10
5.7644969685039369
20
-4.3984951574803146
11
5.7623633858267711
21
-4.3953020078740153
0
LINE
8
BLACK
6
CONTINUOUS
10
5.7623633858267711
20
-4.3953020078740153
11
5.7616141732283461
21
-4.3915354330708665
0
LINE
8
BLACK
6
CONTINUOUS
10
5.7616141732283461
20
-4.3915354330708665
11
5.7616141732283461
21
-4.3718503937007869
0
LINE
8
BLACK
6
CONTINUOUS
10
5.7616141732283461
20
-4.3718503937007869
11
5.7623633858267711
21
-4.3680838188976381
0
LINE
8
BLACK
6
CONTINUOUS
10
5.7623633858267711
20
-4.3680838188976381
11
5.7644969685039369
21
-4.3648906692913387
0
LINE
8
BLACK
6
CONTINUOUS
10
5.7644969685039369
20
-4.3648906692913387
11
5.7676901181102362
21
-4.3627570866141729
0
LINE
8
BLACK
6
CONTINUOUS
10
5.7676901181102362
20
-4.3627570866141729
11
5.7714566929133859
21
-4.362007874015748
0
LINE
8
BLACK
6
CONTINUOUS
10
5.7714566929133859
20
-4.362007874015748
11
5.808858267716535
21
-4.362007874015748
0
LINE
8
BLACK
6
CONTINUOUS
10
5.808858267716535
20
-4.362007874015748
11
5.8126248425196847
21
-4.3627570866141729
0
LINE
8
BLACK
6
CONTINUOUS
10
5.8911681496062993
20
-4.3615759842519681
11
5.8943612992125987
21
-4.3637095669291339
0
LINE
8
BLACK
6
CONTINUOUS
10
5.8943612992125987
20
-4.3637095669291339
11
5.8964948818897636
21
-4.3669027165354333
0
LINE
8
BLACK
6
CONTINUOUS
10
5.8964948818897636
20
-4.3669027165354333
11
5.8972440944881885
21
-4.370669291338583
0
LINE
8
BLACK
6
CONTINUOUS
10
5.8972440944881885
20
-4.370669291338583
11
5.8972440944881885
21
-4.3913385826771654
0
LINE
8
BLACK
6
CONTINUOUS
10
5.8972440944881885
20
-4.3913385826771654
11
5.8964948818897636
21
-4.3951051574803151
0
LINE
8
BLACK
6
CONTINUOUS
10
5.8964948818897636
20
-4.3951051574803151
11
5.8943612992125987
21
-4.3982983070866144
0
LINE
8
BLACK
6
CONTINUOUS
10
5.8943612992125987
20
-4.3982983070866144
11
5.8911681496062993
21
-4.4004318897637793
0
LINE
8
BLACK
6
CONTINUOUS
10
5.8911681496062993
20
-4.4004318897637793
11
5.8874015748031496
21
-4.4011811023622043
0
LINE
8
BLACK
6
CONTINUOUS
10
5.8874015748031496
20
-4.4011811023622043
11
5.851968503937008
21
-4.4011811023622043
0
LINE
8
BLACK
6
CONTINUOUS
10
5.851968503937008
20
-4.4011811023622043
11
5.8482019291338583
21
-4.4004318897637793
0
LINE
8
BLACK
6
CONTINUOUS
10
5.8482019291338583
20
-4.4004318897637793
11
5.8450087795275589
21
-4.3982983070866144
0
LINE
8
BLACK
6
CONTINUOUS
10
5.8450087795275589
20
-4.3982983070866144
11
5.8428751968503931
21
-4.3951051574803151
0
LINE
8
BLACK
6
CONTINUOUS
10
5.8428751968503931
20
-4.3951051574803151
11
5.8421259842519682
21
-4.3913385826771654
0
LINE
8
BLACK
6
CONTINUOUS
10
5.8421259842519682
20
-4.3913385826771654
11
5.8421259842519682
21
-4.370669291338583
0
LINE
8
BLACK
6
CONTINUOUS
10
5.8421259842519682
20
-4.370669291338583
11
5.8428751968503931
21
-4.3669027165354333
0
LINE
8
BLACK
6
CONTINUOUS
10
5.8428751968503931
20
-4.3669027165354333
11
5.8450087795275589
21
-4.3637095669291339
0
LINE
8
BLACK
6
CONTINUOUS
10
5.8450087795275589
20
-4.3637095669291339
11
5.8482019291338583
21
-4.3615759842519681
0
LINE
8
BLACK
6
CONTINUOUS
10
5.8482019291338583
20
-4.3615759842519681
11
5.851968503937008
21
-4.3608267716535432
0
LINE
8
BLACK
6
CONTINUOUS
10
5.851968503937008
20
-4.3608267716535432
11
5.8874015748031496
21
-4.3608267716535432
0
LINE
8
BLACK
6
CONTINUOUS
10
5.8874015748031496
20
-4.3608267716535432
11
5.8911681496062993
21
-4.3615759842519681
0
LINE
8
BLACK
6
CONTINUOUS
10
5.0362468897637793
20
-4.3590169291338583
11
5.0394400393700787
21
-4.3611505118110232
0
LINE
8
BLACK
6
CONTINUOUS
10
5.0394400393700787
20
-4.3611505118110232
11
5.0415736220472436
21
-4.3643436614173226
0
LINE
8
BLACK
6
CONTINUOUS
10
5.0415736220472436
20
-4.3643436614173226
11
5.0423228346456694
21
-4.3681102362204722
0
LINE
8
BLACK
6
CONTINUOUS
10
5.0423228346456694
20
-4.3681102362204722
11
5.0423228346456694
21
-4.3877952755905509
0
LINE
8
BLACK
6
CONTINUOUS
10
5.0423228346456694
20
-4.3877952755905509
11
5.0415736220472436
21
-4.3915618503937006
0
LINE
8
BLACK
6
CONTINUOUS
10
5.0415736220472436
20
-4.3915618503937006
11
5.0394400393700787
21
-4.394755
0
LINE
8
BLACK
6
CONTINUOUS
10
5.0394400393700787
20
-4.394755
11
5.0362468897637793
21
-4.3968885826771649
0
LINE
8
BLACK
6
CONTINUOUS
10
5.0362468897637793
20
-4.3968885826771649
11
5.0324803149606296
21
-4.3976377952755907
0
LINE
8
BLACK
6
CONTINUOUS
10
5.0324803149606296
20
-4.3976377952755907
11
4.9950787401574805
21
-4.3976377952755907
0
LINE
8
BLACK
6
CONTINUOUS
10
4.9950787401574805
20
-4.3976377952755907
11
4.9913121653543309
21
-4.3968885826771649
0
LINE
8
BLACK
6
CONTINUOUS
10
4.9913121653543309
20
-4.3968885826771649
11
4.9881190157480315
21
-4.394755
0
LINE
8
BLACK
6
CONTINUOUS
10
4.9881190157480315
20
-4.394755
11
4.9859854330708657
21
-4.3915618503937006
0
LINE
8
BLACK
6
CONTINUOUS
10
4.9859854330708657
20
-4.3915618503937006
11
4.9852362204724407
21
-4.3877952755905509
0
LINE
8
BLACK
6
CONTINUOUS
10
4.9852362204724407
20
-4.3877952755905509
11
4.9852362204724407
21
-4.3681102362204722
0
LINE
8
BLACK
6
CONTINUOUS
10
4.9852362204724407
20
-4.3681102362204722
11
4.9859854330708657
21
-4.3643436614173226
0
LINE
8
BLACK
6
CONTINUOUS
10
4.9859854330708657
20
-4.3643436614173226
11
4.9881190157480315
21
-4.3611505118110232
0
LINE
8
BLACK
6
CONTINUOUS
10
4.9881190157480315
20
-4.3611505118110232
11
4.9913121653543309
21
-4.3590169291338583
0
LINE
8
BLACK
6
CONTINUOUS
10
4.9913121653543309
20
-4.3590169291338583
11
4.9950787401574805
21
-4.3582677165354333
0
LINE
8
BLACK
6
CONTINUOUS
10
4.9950787401574805
20
-4.3582677165354333
11
5.0324803149606296
21
-4.3582677165354333
0
LINE
8
BLACK
6
CONTINUOUS
10
5.0324803149606296
20
-4.3582677165354333
11
5.0362468897637793
21
-4.3590169291338583
0
LINE
8
BLACK
6
CONTINUOUS
10
5.8911681496062993
20
-4.2897255905511811
11
5.8943612992125987
21
-4.291859173228346
0
LINE
8
BLACK
6
CONTINUOUS
10
5.8943612992125987
20
-4.291859173228346
11
5.8964948818897636
21
-4.2950523228346453
0
LINE
8
BLACK
6
CONTINUOUS
10
5.8964948818897636
20
-4.2950523228346453
11
5.8972440944881885
21
-4.298818897637795
0
LINE
8
BLACK
6
CONTINUOUS
10
5.8972440944881885
20
-4.298818897637795
11
5.8972440944881885
21
-4.3194881889763774
0
LINE
8
BLACK
6
CONTINUOUS
10
5.8972440944881885
20
-4.3194881889763774
11
5.8964948818897636
21
-4.3232547637795271
0
LINE
8
BLACK
6
CONTINUOUS
10
5.8964948818897636
20
-4.3232547637795271
11
5.8943612992125987
21
-4.3264479133858265
0
LINE
8
BLACK
6
CONTINUOUS
10
5.8943612992125987
20
-4.3264479133858265
11
5.8911681496062993
21
-4.3285814960629923
0
LINE
8
BLACK
6
CONTINUOUS
10
5.8911681496062993
20
-4.3285814960629923
11
5.8874015748031496
21
-4.3293307086614172
0
LINE
8
BLACK
6
CONTINUOUS
10
5.8874015748031496
20
-4.3293307086614172
11
5.851968503937008
21
-4.3293307086614172
0
LINE
8
BLACK
6
CONTINUOUS
10
5.851968503937008
20
-4.3293307086614172
11
5.8482019291338583
21
-4.3285814960629923
0
LINE
8
BLACK
6
CONTINUOUS
10
5.8482019291338583
20
-4.3285814960629923
11
5.8450087795275589
21
-4.3264479133858265
0
LINE
8
BLACK
6
CONTINUOUS
10
5.8450087795275589
20
-4.3264479133858265
11
5.8428751968503931
21
-4.3232547637795271
0
LINE
8
BLACK
6
CONTINUOUS
10
5.8428751968503931
20
-4.3232547637795271
11
5.8421259842519682
21
-4.3194881889763774
0
LINE
8
BLACK
6
CONTINUOUS
10
5.8421259842519682
20
-4.3194881889763774
11
5.8421259842519682
21
-4.298818897637795
0
LINE
8
BLACK
6
CONTINUOUS
10
5.8421259842519682
20
-4.298818897637795
11
5.8428751968503931
21
-4.2950523228346453
0
LINE
8
BLACK
6
CONTINUOUS
10
5.8428751968503931
20
-4.2950523228346453
11
5.8450087795275589
21
-4.291859173228346
0
LINE
8
BLACK
6
CONTINUOUS
10
5.8450087795275589
20
-4.291859173228346
11
5.8482019291338583
21
-4.2897255905511811
0
LINE
8
BLACK
6
CONTINUOUS
10
5.8482019291338583
20
-4.2897255905511811
11
5.851968503937008
21
-4.2889763779527561
0
LINE
8
BLACK
6
CONTINUOUS
10
5.851968503937008
20
-4.2889763779527561
11
5.8874015748031496
21
-4.2889763779527561
0
LINE
8
BLACK
6
CONTINUOUS
10
5.8874015748031496
20
-4.2889763779527561
11
5.8911681496062993
21
-4.2897255905511811
0
LINE
8
BLACK
6
CONTINUOUS
10
5.8126248425196847
20
-4.2879539370078739
11
5.815817992125984
21
-4.2900875196850397
0
LINE
8
BLACK
6
CONTINUOUS
10
5.815817992125984
20
-4.2900875196850397
11
5.8179515748031498
21
-4.2932806692913381
0
LINE
8
BLACK
6
CONTINUOUS
10
5.8179515748031498
20
-4.2932806692913381
11
5.8187007874015748
21
-4.2970472440944878
0
LINE
8
BLACK
6
CONTINUOUS
10
5.8187007874015748
20
-4.2970472440944878
11
5.8187007874015748
21
-4.3167322834645665
0
LINE
8
BLACK
6
CONTINUOUS
10
5.8187007874015748
20
-4.3167322834645665
11
5.8179515748031498
21
-4.3204988582677162
0
LINE
8
BLACK
6
CONTINUOUS
10
5.8179515748031498
20
-4.3204988582677162
11
5.815817992125984
21
-4.3236920078740155
0
LINE
8
BLACK
6
CONTINUOUS
10
5.815817992125984
20
-4.3236920078740155
11
5.8126248425196847
21
-4.3258255905511813
0
LINE
8
BLACK
6
CONTINUOUS
10
5.8126248425196847
20
-4.3258255905511813
11
5.808858267716535
21
-4.3265748031496063
0
LINE
8
BLACK
6
CONTINUOUS
10
5.808858267716535
20
-4.3265748031496063
11
5.7714566929133859
21
-4.3265748031496063
0
LINE
8
BLACK
6
CONTINUOUS
10
5.7714566929133859
20
-4.3265748031496063
11
5.7676901181102362
21
-4.3258255905511813
0
LINE
8
BLACK
6
CONTINUOUS
10
5.7676901181102362
20
-4.3258255905511813
11
5.7644969685039369
21
-4.3236920078740155
0
LINE
8
BLACK
6
CONTINUOUS
10
5.7644969685039369
20
-4.3236920078740155
11
5.7623633858267711
21
-4.3204988582677162
0
LINE
8
BLACK
6
CONTINUOUS
10
5.7623633858267711
20
-4.3204988582677162
11
5.7616141732283461
21
-4.3167322834645665
0
LINE
8
BLACK
6
CONTINUOUS
10
5.7616141732283461
20
-4.3167322834645665
11
5.7616141732283461
21
-4.2970472440944878
0
LINE
8
BLACK
6
CONTINUOUS
10
5.7616141732283461
20
-4.2970472440944878
11
5.7623633858267711
21
-4.2932806692913381
0
LINE
8
BLACK
6
CONTINUOUS
10
5.7623633858267711
20
-4.2932806692913381
11
5.7644969685039369
21
-4.2900875196850397
0
LINE
8
BLACK
6
CONTINUOUS
10
5.7644969685039369
20
-4.2900875196850397
11
5.7676901181102362
21
-4.2879539370078739
0
LINE
8
BLACK
6
CONTINUOUS
10
5.7676901181102362
20
-4.2879539370078739
11
5.7714566929133859
21
-4.2872047244094489
0
LINE
8
BLACK
6
CONTINUOUS
10
5.7714566929133859
20
-4.2872047244094489
11
5.808858267716535
21
-4.2872047244094489
0
LINE
8
BLACK
6
CONTINUOUS
10
5.808858267716535
20
-4.2872047244094489
11
5.8126248425196847
21
-4.2879539370078739
0
LINE
8
BLACK
6
CONTINUOUS
10
4.9529791732283464
20
-4.2227964566929135
11
4.9561723228346457
21
-4.2249300393700784
0
LINE
8
BLACK
6
CONTINUOUS
10
4.9561723228346457
20
-4.2249300393700784
11
4.9583059055118106
21
-4.2281231889763777
0
LINE
8
BLACK
6
CONTINUOUS
10
4.9583059055118106
20
-4.2281231889763777
11
4.9590551181102365
21
-4.2318897637795274
0
LINE
8
BLACK
6
CONTINUOUS
10
4.9590551181102365
20
-4.2318897637795274
11
4.9590551181102365
21
-4.2673228346456691
0
LINE
8
BLACK
6
CONTINUOUS
10
4.9590551181102365
20
-4.2673228346456691
11
4.9583059055118106
21
-4.2710894094488188
0
LINE
8
BLACK
6
CONTINUOUS
10
4.9583059055118106
20
-4.2710894094488188
11
4.9561723228346457
21
-4.2742825590551181
0
LINE
8
BLACK
6
CONTINUOUS
10
4.9561723228346457
20
-4.2742825590551181
11
4.9529791732283464
21
-4.276416141732283
0
LINE
8
BLACK
6
CONTINUOUS
10
4.9529791732283464
20
-4.276416141732283
11
4.9492125984251967
21
-4.2771653543307089
0
LINE
8
BLACK
6
CONTINUOUS
10
4.9492125984251967
20
-4.2771653543307089
11
4.9285433070866143
21
-4.2771653543307089
0
LINE
8
BLACK
6
CONTINUOUS
10
4.9285433070866143
20
-4.2771653543307089
11
4.9247767322834646
21
-4.276416141732283
0
LINE
8
BLACK
6
CONTINUOUS
10
4.9247767322834646
20
-4.276416141732283
11
4.9215835826771652
21
-4.2742825590551181
0
LINE
8
BLACK
6
CONTINUOUS
10
4.9215835826771652
20
-4.2742825590551181
11
4.9194500000000003
21
-4.2710894094488188
0
LINE
8
BLACK
6
CONTINUOUS
10
4.9194500000000003
20
-4.2710894094488188
11
4.9187007874015745
21
-4.2673228346456691
0
LINE
8
BLACK
6
CONTINUOUS
10
4.9187007874015745
20
-4.2673228346456691
11
4.9187007874015745
21
-4.2318897637795274
0
LINE
8
BLACK
6
CONTINUOUS
10
4.9187007874015745
20
-4.2318897637795274
11
4.9194500000000003
21
-4.2281231889763777
0
LINE
8
BLACK
6
CONTINUOUS
10
4.9194500000000003
20
-4.2281231889763777
11
4.9215835826771652
21
-4.2249300393700784
0
LINE
8
BLACK
6
CONTINUOUS
10
4.9215835826771652
20
-4.2249300393700784
11
4.9247767322834646
21
-4.2227964566929135
0
LINE
8
BLACK
6
CONTINUOUS
10
4.9247767322834646
20
-4.2227964566929135
11
4.9285433070866143
21
-4.2220472440944885
0
LINE
8
BLACK
6
CONTINUOUS
10
4.9285433070866143
20
-4.2220472440944885
11
4.9492125984251967
21
-4.2220472440944885
0
LINE
8
BLACK
6
CONTINUOUS
10
4.9492125984251967
20
-4.2220472440944885
11
4.9529791732283464
21
-4.2227964566929135
0
LINE
8
BLACK
6
CONTINUOUS
10
5.0248295669291334
20
-4.2227964566929135
11
5.0280227165354328
21
-4.2249300393700784
0
LINE
8
BLACK
6
CONTINUOUS
10
5.0280227165354328
20
-4.2249300393700784
11
5.0301562992125985
21
-4.2281231889763777
0
LINE
8
BLACK
6
CONTINUOUS
10
5.0301562992125985
20
-4.2281231889763777
11
5.0309055118110235
21
-4.2318897637795274
0
LINE
8
BLACK
6
CONTINUOUS
10
5.0309055118110235
20
-4.2318897637795274
11
5.0309055118110235
21
-4.2673228346456691
0
LINE
8
BLACK
6
CONTINUOUS
10
5.0309055118110235
20
-4.2673228346456691
11
5.0301562992125985
21
-4.2710894094488188
0
LINE
8
BLACK
6
CONTINUOUS
10
5.0301562992125985
20
-4.2710894094488188
11
5.0280227165354328
21
-4.2742825590551181
0
LINE
8
BLACK
6
CONTINUOUS
10
5.0280227165354328
20
-4.2742825590551181
11
5.0248295669291334
21
-4.276416141732283
0
LINE
8
BLACK
6
CONTINUOUS
10
5.0248295669291334
20
-4.276416141732283
11
5.0210629921259837
21
-4.2771653543307089
0
LINE
8
BLACK
6
CONTINUOUS
10
5.0210629921259837
20
-4.2771653543307089
11
5.0003937007874013
21
-4.2771653543307089
0
LINE
8
BLACK
6
CONTINUOUS
10
5.0003937007874013
20
-4.2771653543307089
11
4.9966271259842516
21
-4.276416141732283
0
LINE
8
BLACK
6
CONTINUOUS
10
4.9966271259842516
20
-4.276416141732283
11
4.9934339763779523
21
-4.2742825590551181
0
LINE
8
BLACK
6
CONTINUOUS
10
4.9934339763779523
20
-4.2742825590551181
11
4.9913003937007874
21
-4.2710894094488188
0
LINE
8
BLACK
6
CONTINUOUS
10
4.9913003937007874
20
-4.2710894094488188
11
4.9905511811023624
21
-4.2673228346456691
0
LINE
8
BLACK
6
CONTINUOUS
10
4.9905511811023624
20
-4.2673228346456691
11
4.9905511811023624
21
-4.2318897637795274
0
LINE
8
BLACK
6
CONTINUOUS
10
4.9905511811023624
20
-4.2318897637795274
11
4.9913003937007874
21
-4.2281231889763777
0
LINE
8
BLACK
6
CONTINUOUS
10
4.9913003937007874
20
-4.2281231889763777
11
4.9934339763779523
21
-4.2249300393700784
0
LINE
8
BLACK
6
CONTINUOUS
10
4.9934339763779523
20
-4.2249300393700784
11
4.9966271259842516
21
-4.2227964566929135
0
LINE
8
BLACK
6
CONTINUOUS
10
4.9966271259842516
20
-4.2227964566929135
11
5.0003937007874013
21
-4.2220472440944885
0
LINE
8
BLACK
6
CONTINUOUS
10
5.0003937007874013
20
-4.2220472440944885
11
5.0210629921259837
21
-4.2220472440944885
0
LINE
8
BLACK
6
CONTINUOUS
10
5.0210629921259837
20
-4.2220472440944885
11
5.0248295669291334
21
-4.2227964566929135
0
LINE
8
BLACK
6
CONTINUOUS
10
4.952585472440945
20
-4.1475996062992122
11
4.9557786220472444
21
-4.149733188976378
0
LINE
8
BLACK
6
CONTINUOUS
10
4.9557786220472444
20
-4.149733188976378
11
4.9579122047244093
21
-4.1529263385826773
0
LINE
8
BLACK
6
CONTINUOUS
10
4.9579122047244093
20
-4.1529263385826773
11
4.9586614173228343
21
-4.156692913385827
0
LINE
8
BLACK
6
CONTINUOUS
10
4.9586614173228343
20
-4.156692913385827
11
4.9586614173228343
21
-4.1921259842519687
0
LINE
8
BLACK
6
CONTINUOUS
10
4.9586614173228343
20
-4.1921259842519687
11
4.9579122047244093
21
-4.1958925590551184
0
LINE
8
BLACK
6
CONTINUOUS
10
4.9579122047244093
20
-4.1958925590551184
11
4.9557786220472444
21
-4.1990857086614168
0
LINE
8
BLACK
6
CONTINUOUS
10
4.9557786220472444
20
-4.1990857086614168
11
4.952585472440945
21
-4.2012192913385826
0
LINE
8
BLACK
6
CONTINUOUS
10
4.952585472440945
20
-4.2012192913385826
11
4.9488188976377954
21
-4.2019685039370076
0
LINE
8
BLACK
6
CONTINUOUS
10
4.9488188976377954
20
-4.2019685039370076
11
4.9281496062992121
21
-4.2019685039370076
0
LINE
8
BLACK
6
CONTINUOUS
10
4.9281496062992121
20
-4.2019685039370076
11
4.9243830314960633
21
-4.2012192913385826
0
LINE
8
BLACK
6
CONTINUOUS
10
4.9243830314960633
20
-4.2012192913385826
11
4.9211898818897639
21
-4.1990857086614168
0
LINE
8
BLACK
6
CONTINUOUS
10
4.9211898818897639
20
-4.1990857086614168
11
4.9190562992125981
21
-4.1958925590551184
0
LINE
8
BLACK
6
CONTINUOUS
10
4.9190562992125981
20
-4.1958925590551184
11
4.9183070866141732
21
-4.1921259842519687
0
LINE
8
BLACK
6
CONTINUOUS
10
4.9183070866141732
20
-4.1921259842519687
11
4.9183070866141732
21
-4.156692913385827
0
LINE
8
BLACK
6
CONTINUOUS
10
4.9183070866141732
20
-4.156692913385827
11
4.9190562992125981
21
-4.1529263385826773
0
LINE
8
BLACK
6
CONTINUOUS
10
4.9190562992125981
20
-4.1529263385826773
11
4.9211898818897639
21
-4.149733188976378
0
LINE
8
BLACK
6
CONTINUOUS
10
4.9211898818897639
20
-4.149733188976378
11
4.9243830314960633
21
-4.1475996062992122
0
LINE
8
BLACK
6
CONTINUOUS
10
4.9243830314960633
20
-4.1475996062992122
11
4.9281496062992121
21
-4.1468503937007872
0
LINE
8
BLACK
6
CONTINUOUS
10
4.9281496062992121
20
-4.1468503937007872
11
4.9488188976377954
21
-4.1468503937007872
0
LINE
8
BLACK
6
CONTINUOUS
10
4.9488188976377954
20
-4.1468503937007872
11
4.952585472440945
21
-4.1475996062992122
0
LINE
8
BLACK
6
CONTINUOUS
10
5.0244358661417321
20
-4.1475996062992122
11
5.0276290157480314
21
-4.149733188976378
0
LINE
8
BLACK
6
CONTINUOUS
10
5.0276290157480314
20
-4.149733188976378
11
5.0297625984251964
21
-4.1529263385826773
0
LINE
8
BLACK
6
CONTINUOUS
10
5.0297625984251964
20
-4.1529263385826773
11
5.0305118110236222
21
-4.156692913385827
0
LINE
8
BLACK
6
CONTINUOUS
10
5.0305118110236222
20
-4.156692913385827
11
5.0305118110236222
21
-4.1921259842519687
0
LINE
8
BLACK
6
CONTINUOUS
10
5.0305118110236222
20
-4.1921259842519687
11
5.0297625984251964
21
-4.1958925590551184
0
LINE
8
BLACK
6
CONTINUOUS
10
5.0297625984251964
20
-4.1958925590551184
11
5.0276290157480314
21
-4.1990857086614168
0
LINE
8
BLACK
6
CONTINUOUS
10
5.0276290157480314
20
-4.1990857086614168
11
5.0244358661417321
21
-4.2012192913385826
0
LINE
8
BLACK
6
CONTINUOUS
10
5.0244358661417321
20
-4.2012192913385826
11
5.0206692913385824
21
-4.2019685039370076
0
LINE
8
BLACK
6
CONTINUOUS
10
5.0206692913385824
20
-4.2019685039370076
11
5.
21
-4.2019685039370076
0
LINE
8
BLACK
6
CONTINUOUS
10
5.
20
-4.2019685039370076
11
4.9962334251968503
21
-4.2012192913385826
0
LINE
8
BLACK
6
CONTINUOUS
10
4.9962334251968503
20
-4.2012192913385826
11
4.993040275590551
21
-4.1990857086614168
0
LINE
8
BLACK
6
CONTINUOUS
10
4.993040275590551
20
-4.1990857086614168
11
4.9909066929133861
21
-4.1958925590551184
0
LINE
8
BLACK
6
CONTINUOUS
10
4.9909066929133861
20
-4.1958925590551184
11
4.9901574803149602
21
-4.1921259842519687
0
LINE
8
BLACK
6
CONTINUOUS
10
4.9901574803149602
20
-4.1921259842519687
11
4.9901574803149602
21
-4.156692913385827
0
LINE
8
BLACK
6
CONTINUOUS
10
4.9901574803149602
20
-4.156692913385827
11
4.9909066929133861
21
-4.1529263385826773
0
LINE
8
BLACK
6
CONTINUOUS
10
4.9909066929133861
20
-4.1529263385826773
11
4.993040275590551
21
-4.149733188976378
0
LINE
8
BLACK
6
CONTINUOUS
10
4.993040275590551
20
-4.149733188976378
11
4.9962334251968503
21
-4.1475996062992122
0
LINE
8
BLACK
6
CONTINUOUS
10
4.9962334251968503
20
-4.1475996062992122
11
5.
21
-4.1468503937007872
0
LINE
8
BLACK
6
CONTINUOUS
10
5.
20
-4.1468503937007872
11
5.0206692913385824
21
-4.1468503937007872
0
LINE
8
BLACK
6
CONTINUOUS
10
5.0206692913385824
20
-4.1468503937007872
11
5.0244358661417321
21
-4.1475996062992122
0
LINE
8
BLACK
6
CONTINUOUS
10
5.7390027952755904
20
-4.1511429133858266
11
5.7421959448818898
21
-4.1532764960629924
0
LINE
8
BLACK
6
CONTINUOUS
10
5.7421959448818898
20
-4.1532764960629924
11
5.7443295275590547
21
-4.1564696456692909
0
LINE
8
BLACK
6
CONTINUOUS
10
5.7443295275590547
20
-4.1564696456692909
11
5.7450787401574805
21
-4.1602362204724406
0
LINE
8
BLACK
6
CONTINUOUS
10
5.7450787401574805
20
-4.1602362204724406
11
5.7450787401574805
21
-4.1848425196850396
0
LINE
8
BLACK
6
CONTINUOUS
10
5.7450787401574805
20
-4.1848425196850396
11
5.7443295275590547
21
-4.1886090944881893
0
LINE
8
BLACK
6
CONTINUOUS
10
5.7443295275590547
20
-4.1886090944881893
11
5.7421959448818898
21
-4.1918022440944878
0
LINE
8
BLACK
6
CONTINUOUS
10
5.7421959448818898
20
-4.1918022440944878
11
5.7390027952755904
21
-4.1939358267716536
0
LINE
8
BLACK
6
CONTINUOUS
10
5.7390027952755904
20
-4.1939358267716536
11
5.7352362204724407
21
-4.1946850393700785
0
LINE
8
BLACK
6
CONTINUOUS
10
5.7352362204724407
20
-4.1946850393700785
11
5.6860236220472435
21
-4.1946850393700785
0
LINE
8
BLACK
6
CONTINUOUS
10
5.6860236220472435
20
-4.1946850393700785
11
5.6822570472440947
21
-4.1939358267716536
0
LINE
8
BLACK
6
CONTINUOUS
10
5.6822570472440947
20
-4.1939358267716536
11
5.6790638976377954
21
-4.1918022440944878
0
LINE
8
BLACK
6
CONTINUOUS
10
5.6790638976377954
20
-4.1918022440944878
11
5.6769303149606296
21
-4.1886090944881893
0
LINE
8
BLACK
6
CONTINUOUS
10
5.6769303149606296
20
-4.1886090944881893
11
5.6761811023622046
21
-4.1848425196850396
0
LINE
8
BLACK
6
CONTINUOUS
10
5.6761811023622046
20
-4.1848425196850396
11
5.6761811023622046
21
-4.1602362204724406
0
LINE
8
BLACK
6
CONTINUOUS
10
5.6761811023622046
20
-4.1602362204724406
11
5.6769303149606296
21
-4.1564696456692909
0
LINE
8
BLACK
6
CONTINUOUS
10
5.6769303149606296
20
-4.1564696456692909
11
5.6790638976377954
21
-4.1532764960629924
0
LINE
8
BLACK
6
CONTINUOUS
10
5.6790638976377954
20
-4.1532764960629924
11
5.6822570472440947
21
-4.1511429133858266
0
LINE
8
BLACK
6
CONTINUOUS
10
5.6822570472440947
20
-4.1511429133858266
11
5.6860236220472435
21
-4.1503937007874017
0
LINE
8
BLACK
6
CONTINUOUS
10
5.6860236220472435
20
-4.1503937007874017
11
5.7352362204724407
21
-4.1503937007874017
0
LINE
8
BLACK
6
CONTINUOUS
10
5.7352362204724407
20
-4.1503937007874017
11
5.7390027952755904
21
-4.1511429133858266
0
LINE
8
BLACK
6
CONTINUOUS
10
5.8773886220472438
20
-4.1515366141732279
11
5.8805817716535431
21
-4.1536701968503937
0
LINE
8
BLACK
6
CONTINUOUS
10
5.8805817716535431
20
-4.1536701968503937
11
5.8827153543307089
21
-4.1568633464566931
0
LINE
8
BLACK
6
CONTINUOUS
10
5.8827153543307089
20
-4.1568633464566931
11
5.8834645669291339
21
-4.1606299212598428
0
LINE
8
BLACK
6
CONTINUOUS
10
5.8834645669291339
20
-4.1606299212598428
11
5.8834645669291339
21
-4.1812992125984252
0
LINE
8
BLACK
6
CONTINUOUS
10
5.8834645669291339
20
-4.1812992125984252
11
5.8827153543307089
21
-4.1850657874015749
0
LINE
8
BLACK
6
CONTINUOUS
10
5.8827153543307089
20
-4.1850657874015749
11
5.8805817716535431
21
-4.1882589370078742
0
LINE
8
BLACK
6
CONTINUOUS
10
5.8805817716535431
20
-4.1882589370078742
11
5.8773886220472438
21
-4.1903925196850391
0
LINE
8
BLACK
6
CONTINUOUS
10
5.8773886220472438
20
-4.1903925196850391
11
5.8736220472440941
21
-4.1911417322834641
0
LINE
8
BLACK
6
CONTINUOUS
10
5.8736220472440941
20
-4.1911417322834641
11
5.8381889763779524
21
-4.1911417322834641
0
LINE
8
BLACK
6
CONTINUOUS
10
5.8381889763779524
20
-4.1911417322834641
11
5.8344224015748027
21
-4.1903925196850391
0
LINE
8
BLACK
6
CONTINUOUS
10
5.8344224015748027
20
-4.1903925196850391
11
5.8312292519685034
21
-4.1882589370078742
0
LINE
8
BLACK
6
CONTINUOUS
10
5.8312292519685034
20
-4.1882589370078742
11
5.8290956692913385
21
-4.1850657874015749
0
LINE
8
BLACK
6
CONTINUOUS
10
5.8290956692913385
20
-4.1850657874015749
11
5.8283464566929135
21
-4.1812992125984252
0
LINE
8
BLACK
6
CONTINUOUS
10
5.8283464566929135
20
-4.1812992125984252
11
5.8283464566929135
21
-4.1606299212598428
0
LINE
8
BLACK
6
CONTINUOUS
10
5.8283464566929135
20
-4.1606299212598428
11
5.8290956692913385
21
-4.1568633464566931
0
LINE
8
BLACK
6
CONTINUOUS
10
5.8290956692913385
20
-4.1568633464566931
11
5.8312292519685034
21
-4.1536701968503937
0
LINE
8
BLACK
6
CONTINUOUS
10
5.8312292519685034
20
-4.1536701968503937
11
5.8344224015748027
21
-4.1515366141732279
0
LINE
8
BLACK
6
CONTINUOUS
10
5.8344224015748027
20
-4.1515366141732279
11
5.8381889763779524
21
-4.150787401574803
0
LINE
8
BLACK
6
CONTINUOUS
10
5.8381889763779524
20
-4.150787401574803
11
5.8736220472440941
21
-4.150787401574803
0
LINE
8
BLACK
6
CONTINUOUS
10
5.8736220472440941
20
-4.150787401574803
11
5.8773886220472438
21
-4.1515366141732279
0
LINE
8
BLACK
6
CONTINUOUS
10
5.7955670472440941
20
-4.1410007086614176
11
5.797482913385827
21
-4.1422808661417321
0
LINE
8
BLACK
6
CONTINUOUS
10
5.797482913385827
20
-4.1422808661417321
11
5.7987630708661415
21
-4.1441967322834641
0
LINE
8
BLACK
6
CONTINUOUS
10
5.7987630708661415
20
-4.1441967322834641
11
5.7992125984251963
21
-4.1464566929133859
0
LINE
8
BLACK
6
CONTINUOUS
10
5.7992125984251963
20
-4.1464566929133859
11
5.7992125984251963
21
-4.1582677165354331
0
LINE
8
BLACK
6
CONTINUOUS
10
5.7992125984251963
20
-4.1582677165354331
11
5.7987630708661415
21
-4.1605276771653541
0
LINE
8
BLACK
6
CONTINUOUS
10
5.7987630708661415
20
-4.1605276771653541
11
5.797482913385827
21
-4.1624435433070861
0
LINE
8
BLACK
6
CONTINUOUS
10
5.797482913385827
20
-4.1624435433070861
11
5.7955670472440941
21
-4.1637237007874015
0
LINE
8
BLACK
6
CONTINUOUS
10
5.7955670472440941
20
-4.1637237007874015
11
5.7933070866141732
21
-4.1641732283464563
0
LINE
8
BLACK
6
CONTINUOUS
10
5.7933070866141732
20
-4.1641732283464563
11
5.7775590551181102
21
-4.1641732283464563
0
LINE
8
BLACK
6
CONTINUOUS
10
5.7775590551181102
20
-4.1641732283464563
11
5.7752990944881892
21
-4.1637237007874015
0
LINE
8
BLACK
6
CONTINUOUS
10
5.7752990944881892
20
-4.1637237007874015
11
5.7733832283464563
21
-4.1624435433070861
0
LINE
8
BLACK
6
CONTINUOUS
10
5.7733832283464563
20
-4.1624435433070861
11
5.7721030708661418
21
-4.1605276771653541
0
LINE
8
BLACK
6
CONTINUOUS
10
5.7721030708661418
20
-4.1605276771653541
11
5.7716535433070861
21
-4.1582677165354331
0
LINE
8
BLACK
6
CONTINUOUS
10
5.7716535433070861
20
-4.1582677165354331
11
5.7716535433070861
21
-4.1464566929133859
0
LINE
8
BLACK
6
CONTINUOUS
10
5.7716535433070861
20
-4.1464566929133859
11
5.7721030708661418
21
-4.1441967322834641
0
LINE
8
BLACK
6
CONTINUOUS
10
5.7721030708661418
20
-4.1441967322834641
11
5.7733832283464563
21
-4.1422808661417321
0
LINE
8
BLACK
6
CONTINUOUS
10
5.7733832283464563
20
-4.1422808661417321
11
5.7752990944881892
21
-4.1410007086614176
0
LINE
8
BLACK
6
CONTINUOUS
10
5.7752990944881892
20
-4.1410007086614176
11
5.7775590551181102
21
-4.1405511811023619
0
LINE
8
BLACK
6
CONTINUOUS
10
5.7775590551181102
20
-4.1405511811023619
11
5.7933070866141732
21
-4.1405511811023619
0
LINE
8
BLACK
6
CONTINUOUS
10
5.7933070866141732
20
-4.1405511811023619
11
5.7955670472440941
21
-4.1410007086614176
0
LINE
8
BLACK
6
CONTINUOUS
10
5.8773886220472438
20
-4.0796862204724409
11
5.8805817716535431
21
-4.0818198031496058
0
LINE
8
BLACK
6
CONTINUOUS
10
5.8805817716535431
20
-4.0818198031496058
11
5.8827153543307089
21
-4.0850129527559051
0
LINE
8
BLACK
6
CONTINUOUS
10
5.8827153543307089
20
-4.0850129527559051
11
5.8834645669291339
21
-4.0887795275590548
0
LINE
8
BLACK
6
CONTINUOUS
10
5.8834645669291339
20
-4.0887795275590548
11
5.8834645669291339
21
-4.1094488188976381
0
LINE
8
BLACK
6
CONTINUOUS
10
5.8834645669291339
20
-4.1094488188976381
11
5.8827153543307089
21
-4.1132153937007869
0
LINE
8
BLACK
6
CONTINUOUS
10
5.8827153543307089
20
-4.1132153937007869
11
5.8805817716535431
21
-4.1164085433070863
0
LINE
8
BLACK
6
CONTINUOUS
10
5.8805817716535431
20
-4.1164085433070863
11
5.8773886220472438
21
-4.1185421259842521
0
LINE
8
BLACK
6
CONTINUOUS
10
5.8773886220472438
20
-4.1185421259842521
11
5.8736220472440941
21
-4.119291338582677
0
LINE
8
BLACK
6
CONTINUOUS
10
5.8736220472440941
20
-4.119291338582677
11
5.8381889763779524
21
-4.119291338582677
0
LINE
8
BLACK
6
CONTINUOUS
10
5.8381889763779524
20
-4.119291338582677
11
5.8344224015748027
21
-4.1185421259842521
0
LINE
8
BLACK
6
CONTINUOUS
10
5.8344224015748027
20
-4.1185421259842521
11
5.8312292519685034
21
-4.1164085433070863
0
LINE
8
BLACK
6
CONTINUOUS
10
5.8312292519685034
20
-4.1164085433070863
11
5.8290956692913385
21
-4.1132153937007869
0
LINE
8
BLACK
6
CONTINUOUS
10
5.8290956692913385
20
-4.1132153937007869
11
5.8283464566929135
21
-4.1094488188976381
0
LINE
8
BLACK
6
CONTINUOUS
10
5.8283464566929135
20
-4.1094488188976381
11
5.8283464566929135
21
-4.0887795275590548
0
LINE
8
BLACK
6
CONTINUOUS
10
5.8283464566929135
20
-4.0887795275590548
11
5.8290956692913385
21
-4.0850129527559051
0
LINE
8
BLACK
6
CONTINUOUS
10
5.8290956692913385
20
-4.0850129527559051
11
5.8312292519685034
21
-4.0818198031496058
0
LINE
8
BLACK
6
CONTINUOUS
10
5.8312292519685034
20
-4.0818198031496058
11
5.8344224015748027
21
-4.0796862204724409
0
LINE
8
BLACK
6
CONTINUOUS
10
5.8344224015748027
20
-4.0796862204724409
11
5.8381889763779524
21
-4.0789370078740159
0
LINE
8
BLACK
6
CONTINUOUS
10
5.8381889763779524
20
-4.0789370078740159
11
5.8736220472440941
21
-4.0789370078740159
0
LINE
8
BLACK
6
CONTINUOUS
10
5.8736220472440941
20
-4.0789370078740159
11
5.8773886220472438
21
-4.0796862204724409
0
LINE
8
BLACK
6
CONTINUOUS
10
5.7955670472440941
20
-4.0858825984251972
11
5.797482913385827
21
-4.0871627559055117
0
LINE
8
BLACK
6
CONTINUOUS
10
5.797482913385827
20
-4.0871627559055117
11
5.7987630708661415
21
-4.0890786220472437
0
LINE
8
BLACK
6
CONTINUOUS
10
5.7987630708661415
20
-4.0890786220472437
11
5.7992125984251963
21
-4.0913385826771655
0
LINE
8
BLACK
6
CONTINUOUS
10
5.7992125984251963
20
-4.0913385826771655
11
5.7992125984251963
21
-4.1031496062992128
0
LINE
8
BLACK
6
CONTINUOUS
10
5.7992125984251963
20
-4.1031496062992128
11
5.7987630708661415
21
-4.1054095669291337
0
LINE
8
BLACK
6
CONTINUOUS
10
5.7987630708661415
20
-4.1054095669291337
11
5.797482913385827
21
-4.1073254330708657
0
LINE
8
BLACK
6
CONTINUOUS
10
5.797482913385827
20
-4.1073254330708657
11
5.7955670472440941
21
-4.1086055905511811
0
LINE
8
BLACK
6
CONTINUOUS
10
5.7955670472440941
20
-4.1086055905511811
11
5.7933070866141732
21
-4.1090551181102359
0
LINE
8
BLACK
6
CONTINUOUS
10
5.7933070866141732
20
-4.1090551181102359
11
5.7775590551181102
21
-4.1090551181102359
0
LINE
8
BLACK
6
CONTINUOUS
10
5.7775590551181102
20
-4.1090551181102359
11
5.7752990944881892
21
-4.1086055905511811
0
LINE
8
BLACK
6
CONTINUOUS
10
5.7752990944881892
20
-4.1086055905511811
11
5.7733832283464563
21
-4.1073254330708657
0
LINE
8
BLACK
6
CONTINUOUS
10
5.7733832283464563
20
-4.1073254330708657
11
5.7721030708661418
21
-4.1054095669291337
0
LINE
8
BLACK
6
CONTINUOUS
10
5.7721030708661418
20
-4.1054095669291337
11
5.7716535433070861
21
-4.1031496062992128
0
LINE
8
BLACK
6
CONTINUOUS
10
5.7716535433070861
20
-4.1031496062992128
11
5.7716535433070861
21
-4.0913385826771655
0
LINE
8
BLACK
6
CONTINUOUS
10
5.7716535433070861
20
-4.0913385826771655
11
5.7721030708661418
21
-4.0890786220472437
0
LINE
8
BLACK
6
CONTINUOUS
10
5.7721030708661418
20
-4.0890786220472437
11
5.7733832283464563
21
-4.0871627559055117
0
LINE
8
BLACK
6
CONTINUOUS
10
5.7733832283464563
20
-4.0871627559055117
11
5.7752990944881892
21
-4.0858825984251972
0
LINE
8
BLACK
6
CONTINUOUS
10
5.7752990944881892
20
-4.0858825984251972
11
5.7775590551181102
21
-4.0854330708661415
0
LINE
8
BLACK
6
CONTINUOUS
10
5.7775590551181102
20
-4.0854330708661415
11
5.7933070866141732
21
-4.0854330708661415
0
LINE
8
BLACK
6
CONTINUOUS
10
5.7933070866141732
20
-4.0854330708661415
11
5.7955670472440941
21
-4.0858825984251972
0
LINE
8
BLACK
6
CONTINUOUS
10
5.7390027952755904
20
-4.0359854330708664
11
5.7421959448818898
21
-4.0381190157480313
0
LINE
8
BLACK
6
CONTINUOUS
10
5.7421959448818898
20
-4.0381190157480313
11
5.7443295275590547
21
-4.0413121653543307
0
LINE
8
BLACK
6
CONTINUOUS
10
5.7443295275590547
20
-4.0413121653543307
11
5.7450787401574805
21
-4.0450787401574804
0
LINE
8
BLACK
6
CONTINUOUS
10
5.7450787401574805
20
-4.0450787401574804
11
5.7450787401574805
21
-4.0696850393700785
0
LINE
8
BLACK
6
CONTINUOUS
10
5.7450787401574805
20
-4.0696850393700785
11
5.7443295275590547
21
-4.0734516141732282
0
LINE
8
BLACK
6
CONTINUOUS
10
5.7443295275590547
20
-4.0734516141732282
11
5.7421959448818898
21
-4.0766447637795276
0
LINE
8
BLACK
6
CONTINUOUS
10
5.7421959448818898
20
-4.0766447637795276
11
5.7390027952755904
21
-4.0787783464566925
0
LINE
8
BLACK
6
CONTINUOUS
10
5.7390027952755904
20
-4.0787783464566925
11
5.7352362204724407
21
-4.0795275590551183
0
LINE
8
BLACK
6
CONTINUOUS
10
5.7352362204724407
20
-4.0795275590551183
11
5.6860236220472435
21
-4.0795275590551183
0
LINE
8
BLACK
6
CONTINUOUS
10
5.6860236220472435
20
-4.0795275590551183
11
5.6822570472440947
21
-4.0787783464566925
0
LINE
8
BLACK
6
CONTINUOUS
10
5.6822570472440947
20
-4.0787783464566925
11
5.6790638976377954
21
-4.0766447637795276
0
LINE
8
BLACK
6
CONTINUOUS
10
5.6790638976377954
20
-4.0766447637795276
11
5.6769303149606296
21
-4.0734516141732282
0
LINE
8
BLACK
6
CONTINUOUS
10
5.6769303149606296
20
-4.0734516141732282
11
5.6761811023622046
21
-4.0696850393700785
0
LINE
8
BLACK
6
CONTINUOUS
10
5.6761811023622046
20
-4.0696850393700785
11
5.6761811023622046
21
-4.0450787401574804
0
LINE
8
BLACK
6
CONTINUOUS
10
5.6761811023622046
20
-4.0450787401574804
11
5.6769303149606296
21
-4.0413121653543307
0
LINE
8
BLACK
6
CONTINUOUS
10
5.6769303149606296
20
-4.0413121653543307
11
5.6790638976377954
21
-4.0381190157480313
0
LINE
8
BLACK
6
CONTINUOUS
10
5.6790638976377954
20
-4.0381190157480313
11
5.6822570472440947
21
-4.0359854330708664
0
LINE
8
BLACK
6
CONTINUOUS
10
5.6822570472440947
20
-4.0359854330708664
11
5.6860236220472435
21
-4.0352362204724406
0
LINE
8
BLACK
6
CONTINUOUS
10
5.6860236220472435
20
-4.0352362204724406
11
5.7352362204724407
21
-4.0352362204724406
0
LINE
8
BLACK
6
CONTINUOUS
10
5.7352362204724407
20
-4.0352362204724406
11
5.7390027952755904
21
-4.0359854330708664
0
LINE
8
BLACK
6
CONTINUOUS
10
5.369120905511811
20
-3.9393318897637792
11
5.3723140551181103
21
-3.9414654724409446
0
LINE
8
BLACK
6
CONTINUOUS
10
5.3723140551181103
20
-3.9414654724409446
11
5.3744476377952752
21
-3.9446586220472439
0
LINE
8
BLACK
6
CONTINUOUS
10
5.3744476377952752
20
-3.9446586220472439
11
5.3751968503937011
21
-3.9484251968503936
0
LINE
8
BLACK
6
CONTINUOUS
10
5.3751968503937011
20
-3.9484251968503936
11
5.3751968503937011
21
-3.9838582677165353
0
LINE
8
BLACK
6
CONTINUOUS
10
5.3751968503937011
20
-3.9838582677165353
11
5.3744476377952752
21
-3.987624842519685
0
LINE
8
BLACK
6
CONTINUOUS
10
5.3744476377952752
20
-3.987624842519685
11
5.3723140551181103
21
-3.9908179921259843
0
LINE
8
BLACK
6
CONTINUOUS
10
5.3723140551181103
20
-3.9908179921259843
11
5.369120905511811
21
-3.9929515748031497
0
LINE
8
BLACK
6
CONTINUOUS
10
5.369120905511811
20
-3.9929515748031497
11
5.3653543307086613
21
-3.9937007874015746
0
LINE
8
BLACK
6
CONTINUOUS
10
5.3653543307086613
20
-3.9937007874015746
11
5.3446850393700789
21
-3.9937007874015746
0
LINE
8
BLACK
6
CONTINUOUS
10
5.3446850393700789
20
-3.9937007874015746
11
5.3409184645669292
21
-3.9929515748031497
0
LINE
8
BLACK
6
CONTINUOUS
10
5.3409184645669292
20
-3.9929515748031497
11
5.3377253149606299
21
-3.9908179921259843
0
LINE
8
BLACK
6
CONTINUOUS
10
5.3377253149606299
20
-3.9908179921259843
11
5.3355917322834641
21
-3.987624842519685
0
LINE
8
BLACK
6
CONTINUOUS
10
5.3355917322834641
20
-3.987624842519685
11
5.3348425196850391
21
-3.9838582677165353
0
LINE
8
BLACK
6
CONTINUOUS
10
5.3348425196850391
20
-3.9838582677165353
11
5.3348425196850391
21
-3.9484251968503936
0
LINE
8
BLACK
6
CONTINUOUS
10
5.3348425196850391
20
-3.9484251968503936
11
5.3355917322834641
21
-3.9446586220472439
0
LINE
8
BLACK
6
CONTINUOUS
10
5.3355917322834641
20
-3.9446586220472439
11
5.3377253149606299
21
-3.9414654724409446
0
LINE
8
BLACK
6
CONTINUOUS
10
5.3377253149606299
20
-3.9414654724409446
11
5.3409184645669292
21
-3.9393318897637792
0
LINE
8
BLACK
6
CONTINUOUS
10
5.3409184645669292
20
-3.9393318897637792
11
5.3446850393700789
21
-3.9385826771653543
0
LINE
8
BLACK
6
CONTINUOUS
10
5.3446850393700789
20
-3.9385826771653543
11
5.3653543307086613
21
-3.9385826771653543
0
LINE
8
BLACK
6
CONTINUOUS
10
5.3653543307086613
20
-3.9385826771653543
11
5.369120905511811
21
-3.9393318897637792
0
LINE
8
BLACK
6
CONTINUOUS
10
5.440971299212598
20
-3.9393318897637792
11
5.4441644488188974
21
-3.9414654724409446
0
LINE
8
BLACK
6
CONTINUOUS
10
5.4441644488188974
20
-3.9414654724409446
11
5.4462980314960632
21
-3.9446586220472439
0
LINE
8
BLACK
6
CONTINUOUS
10
5.4462980314960632
20
-3.9446586220472439
11
5.4470472440944881
21
-3.9484251968503936
0
LINE
8
BLACK
6
CONTINUOUS
10
5.4470472440944881
20
-3.9484251968503936
11
5.4470472440944881
21
-3.9838582677165353
0
LINE
8
BLACK
6
CONTINUOUS
10
5.4470472440944881
20
-3.9838582677165353
11
5.4462980314960632
21
-3.987624842519685
0
LINE
8
BLACK
6
CONTINUOUS
10
5.4462980314960632
20
-3.987624842519685
11
5.4441644488188974
21
-3.9908179921259843
0
LINE
8
BLACK
6
CONTINUOUS
10
5.4441644488188974
20
-3.9908179921259843
11
5.440971299212598
21
-3.9929515748031497
0
LINE
8
BLACK
6
CONTINUOUS
10
5.440971299212598
20
-3.9929515748031497
11
5.4372047244094484
21
-3.9937007874015746
0
LINE
8
BLACK
6
CONTINUOUS
10
5.4372047244094484
20
-3.9937007874015746
11
5.4165354330708659
21
-3.9937007874015746
0
LINE
8
BLACK
6
CONTINUOUS
10
5.4165354330708659
20
-3.9937007874015746
11
5.4127688582677163
21
-3.9929515748031497
0
LINE
8
BLACK
6
CONTINUOUS
10
5.4127688582677163
20
-3.9929515748031497
11
5.4095757086614169
21
-3.9908179921259843
0
LINE
8
BLACK
6
CONTINUOUS
10
5.4095757086614169
20
-3.9908179921259843
11
5.407442125984252
21
-3.987624842519685
0
LINE
8
BLACK
6
CONTINUOUS
10
5.407442125984252
20
-3.987624842519685
11
5.406692913385827
21
-3.9838582677165353
0
LINE
8
BLACK
6
CONTINUOUS
10
5.406692913385827
20
-3.9838582677165353
11
5.406692913385827
21
-3.9484251968503936
0
LINE
8
BLACK
6
CONTINUOUS
10
5.406692913385827
20
-3.9484251968503936
11
5.407442125984252
21
-3.9446586220472439
0
LINE
8
BLACK
6
CONTINUOUS
10
5.407442125984252
20
-3.9446586220472439
11
5.4095757086614169
21
-3.9414654724409446
0
LINE
8
BLACK
6
CONTINUOUS
10
5.4095757086614169
20
-3.9414654724409446
11
5.4127688582677163
21
-3.9393318897637792
0
LINE
8
BLACK
6
CONTINUOUS
10
5.4127688582677163
20
-3.9393318897637792
11
5.4165354330708659
21
-3.9385826771653543
0
LINE
8
BLACK
6
CONTINUOUS
10
5.4165354330708659
20
-3.9385826771653543
11
5.4372047244094484
21
-3.9385826771653543
0
LINE
8
BLACK
6
CONTINUOUS
10
5.4372047244094484
20
-3.9385826771653543
11
5.440971299212598
21
-3.9393318897637792
0
LINE
8
BLACK
6
CONTINUOUS
10
4.574260433070866
20
-3.4221471653543305
11
4.586734212598425
21
-3.4251035039370077
0
LINE
8
BLACK
6
CONTINUOUS
10
4.586734212598425
20
-3.4251035039370077
11
4.5987804330708659
21
-3.429487992125984
0
LINE
8
BLACK
6
CONTINUOUS
10
4.5987804330708659
20
-3.429487992125984
11
4.6102362204724407
21
-3.4352412992125982
0
LINE
8
BLACK
6
CONTINUOUS
10
4.6102362204724407
20
-3.4352412992125982
11
4.6209466141732278
21
-3.4422856299212596
0
LINE
8
BLACK
6
CONTINUOUS
10
4.6209466141732278
20
-3.4422856299212596
11
4.630766811023622
21
-3.4505257480314961
0
LINE
8
BLACK
6
CONTINUOUS
10
4.630766811023622
20
-3.4505257480314961
11
4.6395639370078738
21
-3.4598501968503936
0
LINE
8
BLACK
6
CONTINUOUS
10
4.6395639370078738
20
-3.4598501968503936
11
4.6472191338582673
21
-3.4701328740157478
0
LINE
8
BLACK
6
CONTINUOUS
10
4.6472191338582673
20
-3.4701328740157478
11
4.6536287795275593
21
-3.4812347244094486
0
LINE
8
BLACK
6
CONTINUOUS
10
4.6536287795275593
20
-3.4812347244094486
11
4.6587062598425195
21
-3.4930056692913385
0
LINE
8
BLACK
6
CONTINUOUS
10
4.6587062598425195
20
-3.4930056692913385
11
4.6623829133858266
21
-3.5052864566929132
0
LINE
8
BLACK
6
CONTINUOUS
10
4.6623829133858266
20
-3.5052864566929132
11
4.6646089370078743
21
-3.5179110236220472
0
LINE
8
BLACK
6
CONTINUOUS
10
4.6646089370078743
20
-3.5179110236220472
11
4.6653543307086611
21
-3.5307086614173229
0
LINE
8
BLACK
6
CONTINUOUS
10
4.6653543307086611
20
-3.5307086614173229
11
4.6646089370078743
21
-3.5435062992125985
0
LINE
8
BLACK
6
CONTINUOUS
10
4.6646089370078743
20
-3.5435062992125985
11
4.6623829133858266
21
-3.5561308661417321
0
LINE
8
BLACK
6
CONTINUOUS
10
4.6623829133858266
20
-3.5561308661417321
11
4.6587062598425195
21
-3.5684116535433068
0
LINE
8
BLACK
6
CONTINUOUS
10
4.6587062598425195
20
-3.5684116535433068
11
4.6536287795275593
21
-3.5801825984251967
0
LINE
8
BLACK
6
CONTINUOUS
10
4.6536287795275593
20
-3.5801825984251967
11
4.6472191338582673
21
-3.5912844488188975
0
LINE
8
BLACK
6
CONTINUOUS
10
4.6472191338582673
20
-3.5912844488188975
11
4.6395639370078738
21
-3.6015671259842521
0
LINE
8
BLACK
6
CONTINUOUS
10
4.6395639370078738
20
-3.6015671259842521
11
4.630766811023622
21
-3.6108915748031496
0
LINE
8
BLACK
6
CONTINUOUS
10
4.630766811023622
20
-3.6108915748031496
11
4.6209466141732278
21
-3.6191316929133857
0
LINE
8
BLACK
6
CONTINUOUS
10
4.6209466141732278
20
-3.6191316929133857
11
4.6102362204724407
21
-3.6261760236220471
0
LINE
8
BLACK
6
CONTINUOUS
10
4.6102362204724407
20
-3.6261760236220471
11
4.5987804330708659
21
-3.6319293307086613
0
LINE
8
BLACK
6
CONTINUOUS
10
4.5987804330708659
20
-3.6319293307086613
11
4.586734212598425
21
-3.6363138188976376
0
LINE
8
BLACK
6
CONTINUOUS
10
4.586734212598425
20
-3.6363138188976376
11
4.574260433070866
21
-3.6392701574803148
0
LINE
8
BLACK
6
CONTINUOUS
10
4.574260433070866
20
-3.6392701574803148
11
4.5615277952755902
21
-3.6407583858267714
0
LINE
8
BLACK
6
CONTINUOUS
10
4.5615277952755902
20
-3.6407583858267714
11
4.5487084251968506
21
-3.6407583858267714
0
LINE
8
BLACK
6
CONTINUOUS
10
4.5487084251968506
20
-3.6407583858267714
11
4.5359757874015747
21
-3.6392701574803148
0
LINE
8
BLACK
6
CONTINUOUS
10
4.5359757874015747
20
-3.6392701574803148
11
4.5235020078740158
21
-3.6363138188976376
0
LINE
8
BLACK
6
CONTINUOUS
10
4.5235020078740158
20
-3.6363138188976376
11
4.5114557874015748
21
-3.6319293307086613
0
LINE
8
BLACK
6
CONTINUOUS
10
4.5114557874015748
20
-3.6319293307086613
11
4.5
21
-3.6261760236220471
0
LINE
8
BLACK
6
CONTINUOUS
10
4.5
20
-3.6261760236220471
11
4.4892896062992129
21
-3.6191316929133857
0
LINE
8
BLACK
6
CONTINUOUS
10
4.4892896062992129
20
-3.6191316929133857
11
4.4794694094488188
21
-3.6108915748031496
0
LINE
8
BLACK
6
CONTINUOUS
10
4.4794694094488188
20
-3.6108915748031496
11
4.4706722834645669
21
-3.6015671259842521
0
LINE
8
BLACK
6
CONTINUOUS
10
4.4706722834645669
20
-3.6015671259842521
11
4.4630170866141734
21
-3.5912844488188975
0
LINE
8
BLACK
6
CONTINUOUS
10
4.4630170866141734
20
-3.5912844488188975
11
4.4566074409448815
21
-3.5801825984251967
0
LINE
8
BLACK
6
CONTINUOUS
10
4.4566074409448815
20
-3.5801825984251967
11
4.4515299606299212
21
-3.5684116535433068
0
LINE
8
BLACK
6
CONTINUOUS
10
4.4515299606299212
20
-3.5684116535433068
11
4.4478533070866142
21
-3.5561308661417321
0
LINE
8
BLACK
6
CONTINUOUS
10
4.4478533070866142
20
-3.5561308661417321
11
4.4456272834645665
21
-3.5435062992125985
0
LINE
8
BLACK
6
CONTINUOUS
10
4.4456272834645665
20
-3.5435062992125985
11
4.4448818897637796
21
-3.5307086614173229
0
LINE
8
BLACK
6
CONTINUOUS
10
4.4448818897637796
20
-3.5307086614173229
11
4.4456272834645665
21
-3.5179110236220472
0
LINE
8
BLACK
6
CONTINUOUS
10
4.4456272834645665
20
-3.5179110236220472
11
4.4478533070866142
21
-3.5052864566929132
0
LINE
8
BLACK
6
CONTINUOUS
10
4.4478533070866142
20
-3.5052864566929132
11
4.4515299606299212
21
-3.4930056692913385
0
LINE
8
BLACK
6
CONTINUOUS
10
4.4515299606299212
20
-3.4930056692913385
11
4.4566074409448815
21
-3.4812347244094486
0
LINE
8
BLACK
6
CONTINUOUS
10
4.4566074409448815
20
-3.4812347244094486
11
4.4630170866141734
21
-3.4701328740157478
0
LINE
8
BLACK
6
CONTINUOUS
10
4.4630170866141734
20
-3.4701328740157478
11
4.4706722834645669
21
-3.4598501968503936
0
LINE
8
BLACK
6
CONTINUOUS
10
4.4706722834645669
20
-3.4598501968503936
11
4.4794694094488188
21
-3.4505257480314961
0
LINE
8
BLACK
6
CONTINUOUS
10
4.4794694094488188
20
-3.4505257480314961
11
4.4892896062992129
21
-3.4422856299212596
0
LINE
8
BLACK
6
CONTINUOUS
10
4.4892896062992129
20
-3.4422856299212596
11
4.5
21
-3.4352412992125982
0
LINE
8
BLACK
6
CONTINUOUS
10
4.5
20
-3.4352412992125982
11
4.5114557874015748
21
-3.429487992125984
0
LINE
8
BLACK
6
CONTINUOUS
10
4.5114557874015748
20
-3.429487992125984
11
4.5235020078740158
21
-3.4251035039370077
0
LINE
8
BLACK
6
CONTINUOUS
10
4.5235020078740158
20
-3.4251035039370077
11
4.5359757874015747
21
-3.4221471653543305
0
LINE
8
BLACK
6
CONTINUOUS
10
4.5359757874015747
20
-3.4221471653543305
11
4.5487084251968506
21
-3.4206589370078739
0
LINE
8
BLACK
6
CONTINUOUS
10
4.5487084251968506
20
-3.4206589370078739
11
4.5615277952755902
21
-3.4206589370078739
0
LINE
8
BLACK
6
CONTINUOUS
10
4.5615277952755902
20
-3.4206589370078739
11
4.574260433070866
21
-3.4221471653543305
0
LINE
8
BLACK
6
CONTINUOUS
10
6.1742604330708657
20
-3.4221471653543305
11
6.1867342125984255
21
-3.4251035039370077
0
LINE
8
BLACK
6
CONTINUOUS
10
6.1867342125984255
20
-3.4251035039370077
11
6.1987804330708656
21
-3.429487992125984
0
LINE
8
BLACK
6
CONTINUOUS
10
6.1987804330708656
20
-3.429487992125984
11
6.2102362204724404
21
-3.4352412992125982
0
LINE
8
BLACK
6
CONTINUOUS
10
6.2102362204724404
20
-3.4352412992125982
11
6.2209466141732284
21
-3.4422856299212596
0
LINE
8
BLACK
6
CONTINUOUS
10
6.2209466141732284
20
-3.4422856299212596
11
6.2307668110236216
21
-3.4505257480314961
0
LINE
8
BLACK
6
CONTINUOUS
10
6.2307668110236216
20
-3.4505257480314961
11
6.2395639370078735
21
-3.4598501968503936
0
LINE
8
BLACK
6
CONTINUOUS
10
6.2395639370078735
20
-3.4598501968503936
11
6.2472191338582679
21
-3.4701328740157478
0
LINE
8
BLACK
6
CONTINUOUS
10
6.2472191338582679
20
-3.4701328740157478
11
6.2536287795275589
21
-3.4812347244094486
0
LINE
8
BLACK
6
CONTINUOUS
10
6.2536287795275589
20
-3.4812347244094486
11
6.2587062598425192
21
-3.4930056692913385
0
LINE
8
BLACK
6
CONTINUOUS
10
6.2587062598425192
20
-3.4930056692913385
11
6.2623829133858262
21
-3.5052864566929132
0
LINE
8
BLACK
6
CONTINUOUS
10
6.2623829133858262
20
-3.5052864566929132
11
6.2646089370078739
21
-3.5179110236220472
0
LINE
8
BLACK
6
CONTINUOUS
10
6.2646089370078739
20
-3.5179110236220472
11
6.2653543307086617
21
-3.5307086614173229
0
LINE
8
BLACK
6
CONTINUOUS
10
6.2653543307086617
20
-3.5307086614173229
11
6.2646089370078739
21
-3.5435062992125985
0
LINE
8
BLACK
6
CONTINUOUS
10
6.2646089370078739
20
-3.5435062992125985
11
6.2623829133858262
21
-3.5561308661417321
0
LINE
8
BLACK
6
CONTINUOUS
10
6.2623829133858262
20
-3.5561308661417321
11
6.2587062598425192
21
-3.5684116535433068
0
LINE
8
BLACK
6
CONTINUOUS
10
6.2587062598425192
20
-3.5684116535433068
11
6.2536287795275589
21
-3.5801825984251967
0
LINE
8
BLACK
6
CONTINUOUS
10
6.2536287795275589
20
-3.5801825984251967
11
6.2472191338582679
21
-3.5912844488188975
0
LINE
8
BLACK
6
CONTINUOUS
10
6.2472191338582679
20
-3.5912844488188975
11
6.2395639370078735
21
-3.6015671259842521
0
LINE
8
BLACK
6
CONTINUOUS
10
6.2395639370078735
20
-3.6015671259842521
11
6.2307668110236216
21
-3.6108915748031496
0
LINE
8
BLACK
6
CONTINUOUS
10
6.2307668110236216
20
-3.6108915748031496
11
6.2209466141732284
21
-3.6191316929133857
0
LINE
8
BLACK
6
CONTINUOUS
10
6.2209466141732284
20
-3.6191316929133857
11
6.2102362204724404
21
-3.6261760236220471
0
LINE
8
BLACK
6
CONTINUOUS
10
6.2102362204724404
20
-3.6261760236220471
11
6.1987804330708656
21
-3.6319293307086613
0
LINE
8
BLACK
6
CONTINUOUS
10
6.1987804330708656
20
-3.6319293307086613
11
6.1867342125984255
21
-3.6363138188976376
0
LINE
8
BLACK
6
CONTINUOUS
10
6.1867342125984255
20
-3.6363138188976376
11
6.1742604330708657
21
-3.6392701574803148
0
LINE
8
BLACK
6
CONTINUOUS
10
6.1742604330708657
20
-3.6392701574803148
11
6.1615277952755907
21
-3.6407583858267714
0
LINE
8
BLACK
6
CONTINUOUS
10
6.1615277952755907
20
-3.6407583858267714
11
6.1487084251968502
21
-3.6407583858267714
0
LINE
8
BLACK
6
CONTINUOUS
10
6.1487084251968502
20
-3.6407583858267714
11
6.1359757874015743
21
-3.6392701574803148
0
LINE
8
BLACK
6
CONTINUOUS
10
6.1359757874015743
20
-3.6392701574803148
11
6.1235020078740154
21
-3.6363138188976376
0
LINE
8
BLACK
6
CONTINUOUS
10
6.1235020078740154
20
-3.6363138188976376
11
6.1114557874015745
21
-3.6319293307086613
0
LINE
8
BLACK
6
CONTINUOUS
10
6.1114557874015745
20
-3.6319293307086613
11
6.0999999999999996
21
-3.6261760236220471
0
LINE
8
BLACK
6
CONTINUOUS
10
6.0999999999999996
20
-3.6261760236220471
11
6.0892896062992126
21
-3.6191316929133857
0
LINE
8
BLACK
6
CONTINUOUS
10
6.0892896062992126
20
-3.6191316929133857
11
6.0794694094488184
21
-3.6108915748031496
0
LINE
8
BLACK
6
CONTINUOUS
10
6.0794694094488184
20
-3.6108915748031496
11
6.0706722834645666
21
-3.6015671259842521
0
LINE
8
BLACK
6
CONTINUOUS
10
6.0706722834645666
20
-3.6015671259842521
11
6.063017086614173
21
-3.5912844488188975
0
LINE
8
BLACK
6
CONTINUOUS
10
6.063017086614173
20
-3.5912844488188975
11
6.056607440944882
21
-3.5801825984251967
0
LINE
8
BLACK
6
CONTINUOUS
10
6.056607440944882
20
-3.5801825984251967
11
6.0515299606299209
21
-3.5684116535433068
0
LINE
8
BLACK
6
CONTINUOUS
10
6.0515299606299209
20
-3.5684116535433068
11
6.0478533070866138
21
-3.5561308661417321
0
LINE
8
BLACK
6
CONTINUOUS
10
6.0478533070866138
20
-3.5561308661417321
11
6.045627283464567
21
-3.5435062992125985
0
LINE
8
BLACK
6
CONTINUOUS
10
6.045627283464567
20
-3.5435062992125985
11
6.0448818897637793
21
-3.5307086614173229
0
LINE
8
BLACK
6
CONTINUOUS
10
6.0448818897637793
20
-3.5307086614173229
11
6.045627283464567
21
-3.5179110236220472
0
LINE
8
BLACK
6
CONTINUOUS
10
6.045627283464567
20
-3.5179110236220472
11
6.0478533070866138
21
-3.5052864566929132
0
LINE
8
BLACK
6
CONTINUOUS
10
6.0478533070866138
20
-3.5052864566929132
11
6.0515299606299209
21
-3.4930056692913385
0
LINE
8
BLACK
6
CONTINUOUS
10
6.0515299606299209
20
-3.4930056692913385
11
6.056607440944882
21
-3.4812347244094486
0
LINE
8
BLACK
6
CONTINUOUS
10
6.056607440944882
20
-3.4812347244094486
11
6.063017086614173
21
-3.4701328740157478
0
LINE
8
BLACK
6
CONTINUOUS
10
6.063017086614173
20
-3.4701328740157478
11
6.0706722834645666
21
-3.4598501968503936
0
LINE
8
BLACK
6
CONTINUOUS
10
6.0706722834645666
20
-3.4598501968503936
11
6.0794694094488184
21
-3.4505257480314961
0
LINE
8
BLACK
6
CONTINUOUS
10
6.0794694094488184
20
-3.4505257480314961
11
6.0892896062992126
21
-3.4422856299212596
0
LINE
8
BLACK
6
CONTINUOUS
10
6.0892896062992126
20
-3.4422856299212596
11
6.0999999999999996
21
-3.4352412992125982
0
LINE
8
BLACK
6
CONTINUOUS
10
6.0999999999999996
20
-3.4352412992125982
11
6.1114557874015745
21
-3.429487992125984
0
LINE
8
BLACK
6
CONTINUOUS
10
6.1114557874015745
20
-3.429487992125984
11
6.1235020078740154
21
-3.4251035039370077
0
LINE
8
BLACK
6
CONTINUOUS
10
6.1235020078740154
20
-3.4251035039370077
11
6.1359757874015743
21
-3.4221471653543305
0
LINE
8
BLACK
6
CONTINUOUS
10
6.1359757874015743
20
-3.4221471653543305
11
6.1487084251968502
21
-3.4206589370078739
0
LINE
8
BLACK
6
CONTINUOUS
10
6.1487084251968502
20
-3.4206589370078739
11
6.1615277952755907
21
-3.4206589370078739
0
LINE
8
BLACK
6
CONTINUOUS
10
6.1615277952755907
20
-3.4206589370078739
11
6.1742604330708657
21
-3.4221471653543305
  0
ENDSEC
  0
EOF
