  0
SECTION
  2
HEADER
  9
$ANGBASE
  50
0.0
  9
$ANGDIR
  70
1
  9
$MEASUREMENT
  70
0
  0
ENDSEC
  0
SECTION
  2
TABLES
  0
TABLE
  2
LTYPE
  70
4
  0
LTYPE
  5
40F
  2
CONTINUOUS
  70
0
  3
Solid line
  72
65
  73
0
  40
0.0
  0
LTYPE
  5
410
  2
DASHDOT
 70
0
  3
Dash Dot ____ _ ____ _
 72
65
 73
4
 40
2.0
 49
1.25
 49
-0.25
 49
0.25
 49
-0.25
  0
LTYPE
  5
411
  2
DASHED
 70
0
  3
Dashed __ __ __ __ __
 72
65
 73
2
 40
0.75
 49
0.5
 49
-0.25
  0
LTYPE
  5
43B
  2
DOTTED
 70
0
  3
Dotted .  .  .  .
 72
65
 73
2
 40
0.2
 49
0.0
 49
-0.2
  0
ENDTAB
  0
TABLE
  2
STYLE
  70
4
  0
STYLE
  2
KICAD
  70
0
  40
0
  41
1
  42
1
  50
0
  71
0
  3
isocp.shx
  0
STYLE
  2
KICADB
  70
0
  40
0
  41
1
  42
1
  50
0
  71
0
  3
isocp.shx
  0
STYLE
  2
KICADI
  70
0
  40
0
  41
1
  42
1
  50
15
  71
0
  3
isocp.shx
  0
STYLE
  2
KICADBI
  70
0
  40
0
  41
1
  42
1
  50
15
  71
0
  3
isocp.shx
  0
ENDTAB
  0
TABLE
  2
LAYER
  70
1
  0
LAYER
  2
BLACK
  70
0
  62
7
  6
CONTINUOUS
  0
ENDTAB
  0
ENDSEC
  0
SECTION
  2
ENTITIES
0
LINE
8
BLACK
6
CONTINUOUS
10
5.5433055905511806
20
-4.58018311023622
11
5.5460996062992125
21
-4.5820499999999997
0
LINE
8
BLACK
6
CONTINUOUS
10
5.5460996062992125
20
-4.5820499999999997
11
5.5479664960629922
21
-4.5848440157480317
0
LINE
8
BLACK
6
CONTINUOUS
10
5.5479664960629922
20
-4.5848440157480317
11
5.5486220472440948
21
-4.5881397637795276
0
LINE
8
BLACK
6
CONTINUOUS
10
5.5486220472440948
20
-4.5881397637795276
11
5.5486220472440948
21
-4.6053641732283461
0
LINE
8
BLACK
6
CONTINUOUS
10
5.5486220472440948
20
-4.6053641732283461
11
5.5479664960629922
21
-4.608659921259842
0
LINE
8
BLACK
6
CONTINUOUS
10
5.5479664960629922
20
-4.608659921259842
11
5.5460996062992125
21
-4.611453937007874
0
LINE
8
BLACK
6
CONTINUOUS
10
5.5460996062992125
20
-4.611453937007874
11
5.5433055905511806
21
-4.6133208267716537
0
LINE
8
BLACK
6
CONTINUOUS
10
5.5433055905511806
20
-4.6133208267716537
11
5.5400098425196846
21
-4.6139763779527554
0
LINE
8
BLACK
6
CONTINUOUS
10
5.5400098425196846
20
-4.6139763779527554
11
5.5198326771653541
21
-4.6139763779527554
0
LINE
8
BLACK
6
CONTINUOUS
10
5.5198326771653541
20
-4.6139763779527554
11
5.5165369291338582
21
-4.6133208267716537
0
LINE
8
BLACK
6
CONTINUOUS
10
5.5165369291338582
20
-4.6133208267716537
11
5.5137429133858262
21
-4.611453937007874
0
LINE
8
BLACK
6
CONTINUOUS
10
5.5137429133858262
20
-4.611453937007874
11
5.5118760236220474
21
-4.608659921259842
0
LINE
8
BLACK
6
CONTINUOUS
10
5.5118760236220474
20
-4.608659921259842
11
5.5112204724409448
21
-4.6053641732283461
0
LINE
8
BLACK
6
CONTINUOUS
10
5.5112204724409448
20
-4.6053641732283461
11
5.5112204724409448
21
-4.5881397637795276
0
LINE
8
BLACK
6
CONTINUOUS
10
5.5112204724409448
20
-4.5881397637795276
11
5.5118760236220474
21
-4.5848440157480317
0
LINE
8
BLACK
6
CONTINUOUS
10
5.5118760236220474
20
-4.5848440157480317
11
5.5137429133858262
21
-4.5820499999999997
0
LINE
8
BLACK
6
CONTINUOUS
10
5.5137429133858262
20
-4.5820499999999997
11
5.5165369291338582
21
-4.58018311023622
0
LINE
8
BLACK
6
CONTINUOUS
10
5.5165369291338582
20
-4.58018311023622
11
5.5198326771653541
21
-4.5795275590551183
0
LINE
8
BLACK
6
CONTINUOUS
10
5.5198326771653541
20
-4.5795275590551183
11
5.5400098425196846
21
-4.5795275590551183
0
LINE
8
BLACK
6
CONTINUOUS
10
5.5400098425196846
20
-4.5795275590551183
11
5.5433055905511806
21
-4.58018311023622
0
LINE
8
BLACK
6
CONTINUOUS
10
5.9590536220472439
20
-4.58018311023622
11
5.9618476377952758
21
-4.5820499999999997
0
LINE
8
BLACK
6
CONTINUOUS
10
5.9618476377952758
20
-4.5820499999999997
11
5.9637145275590546
21
-4.5848440157480317
0
LINE
8
BLACK
6
CONTINUOUS
10
5.9637145275590546
20
-4.5848440157480317
11
5.9643700787401572
21
-4.5881397637795276
0
LINE
8
BLACK
6
CONTINUOUS
10
5.9643700787401572
20
-4.5881397637795276
11
5.9643700787401572
21
-4.6053641732283461
0
LINE
8
BLACK
6
CONTINUOUS
10
5.9643700787401572
20
-4.6053641732283461
11
5.9637145275590546
21
-4.608659921259842
0
LINE
8
BLACK
6
CONTINUOUS
10
5.9637145275590546
20
-4.608659921259842
11
5.9618476377952758
21
-4.611453937007874
0
LINE
8
BLACK
6
CONTINUOUS
10
5.9618476377952758
20
-4.611453937007874
11
5.9590536220472439
21
-4.6133208267716537
0
LINE
8
BLACK
6
CONTINUOUS
10
5.9590536220472439
20
-4.6133208267716537
11
5.955757874015748
21
-4.6139763779527554
0
LINE
8
BLACK
6
CONTINUOUS
10
5.955757874015748
20
-4.6139763779527554
11
5.9355807086614174
21
-4.6139763779527554
0
LINE
8
BLACK
6
CONTINUOUS
10
5.9355807086614174
20
-4.6139763779527554
11
5.9322849606299215
21
-4.6133208267716537
0
LINE
8
BLACK
6
CONTINUOUS
10
5.9322849606299215
20
-4.6133208267716537
11
5.9294909448818895
21
-4.611453937007874
0
LINE
8
BLACK
6
CONTINUOUS
10
5.9294909448818895
20
-4.611453937007874
11
5.9276240551181099
21
-4.608659921259842
0
LINE
8
BLACK
6
CONTINUOUS
10
5.9276240551181099
20
-4.608659921259842
11
5.9269685039370081
21
-4.6053641732283461
0
LINE
8
BLACK
6
CONTINUOUS
10
5.9269685039370081
20
-4.6053641732283461
11
5.9269685039370081
21
-4.5881397637795276
0
LINE
8
BLACK
6
CONTINUOUS
10
5.9269685039370081
20
-4.5881397637795276
11
5.9276240551181099
21
-4.5848440157480317
0
LINE
8
BLACK
6
CONTINUOUS
10
5.9276240551181099
20
-4.5848440157480317
11
5.9294909448818895
21
-4.5820499999999997
0
LINE
8
BLACK
6
CONTINUOUS
10
5.9294909448818895
20
-4.5820499999999997
11
5.9322849606299215
21
-4.58018311023622
0
LINE
8
BLACK
6
CONTINUOUS
10
5.9322849606299215
20
-4.58018311023622
11
5.9355807086614174
21
-4.5795275590551183
0
LINE
8
BLACK
6
CONTINUOUS
10
5.9355807086614174
20
-4.5795275590551183
11
5.955757874015748
21
-4.5795275590551183
0
LINE
8
BLACK
6
CONTINUOUS
10
5.955757874015748
20
-4.5795275590551183
11
5.9590536220472439
21
-4.58018311023622
0
LINE
8
BLACK
6
CONTINUOUS
10
5.5433055905511806
20
-4.5181752362204719
11
5.5460996062992125
21
-4.5200421259842516
0
LINE
8
BLACK
6
CONTINUOUS
10
5.5460996062992125
20
-4.5200421259842516
11
5.5479664960629922
21
-4.5228361417322835
0
LINE
8
BLACK
6
CONTINUOUS
10
5.5479664960629922
20
-4.5228361417322835
11
5.5486220472440948
21
-4.5261318897637794
0
LINE
8
BLACK
6
CONTINUOUS
10
5.5486220472440948
20
-4.5261318897637794
11
5.5486220472440948
21
-4.543356299212598
0
LINE
8
BLACK
6
CONTINUOUS
10
5.5486220472440948
20
-4.543356299212598
11
5.5479664960629922
21
-4.5466520472440948
0
LINE
8
BLACK
6
CONTINUOUS
10
5.5479664960629922
20
-4.5466520472440948
11
5.5460996062992125
21
-4.5494460629921258
0
LINE
8
BLACK
6
CONTINUOUS
10
5.5460996062992125
20
-4.5494460629921258
11
5.5433055905511806
21
-4.5513129527559055
0
LINE
8
BLACK
6
CONTINUOUS
10
5.5433055905511806
20
-4.5513129527559055
11
5.5400098425196846
21
-4.5519685039370081
0
LINE
8
BLACK
6
CONTINUOUS
10
5.5400098425196846
20
-4.5519685039370081
11
5.5198326771653541
21
-4.5519685039370081
0
LINE
8
BLACK
6
CONTINUOUS
10
5.5198326771653541
20
-4.5519685039370081
11
5.5165369291338582
21
-4.5513129527559055
0
LINE
8
BLACK
6
CONTINUOUS
10
5.5165369291338582
20
-4.5513129527559055
11
5.5137429133858262
21
-4.5494460629921258
0
LINE
8
BLACK
6
CONTINUOUS
10
5.5137429133858262
20
-4.5494460629921258
11
5.5118760236220474
21
-4.5466520472440948
0
LINE
8
BLACK
6
CONTINUOUS
10
5.5118760236220474
20
-4.5466520472440948
11
5.5112204724409448
21
-4.543356299212598
0
LINE
8
BLACK
6
CONTINUOUS
10
5.5112204724409448
20
-4.543356299212598
11
5.5112204724409448
21
-4.5261318897637794
0
LINE
8
BLACK
6
CONTINUOUS
10
5.5112204724409448
20
-4.5261318897637794
11
5.5118760236220474
21
-4.5228361417322835
0
LINE
8
BLACK
6
CONTINUOUS
10
5.5118760236220474
20
-4.5228361417322835
11
5.5137429133858262
21
-4.5200421259842516
0
LINE
8
BLACK
6
CONTINUOUS
10
5.5137429133858262
20
-4.5200421259842516
11
5.5165369291338582
21
-4.5181752362204719
0
LINE
8
BLACK
6
CONTINUOUS
10
5.5165369291338582
20
-4.5181752362204719
11
5.5198326771653541
21
-4.5175196850393702
0
LINE
8
BLACK
6
CONTINUOUS
10
5.5198326771653541
20
-4.5175196850393702
11
5.5400098425196846
21
-4.5175196850393702
0
LINE
8
BLACK
6
CONTINUOUS
10
5.5400098425196846
20
-4.5175196850393702
11
5.5433055905511806
21
-4.5181752362204719
0
LINE
8
BLACK
6
CONTINUOUS
10
5.9590536220472439
20
-4.5181752362204719
11
5.9618476377952758
21
-4.5200421259842516
0
LINE
8
BLACK
6
CONTINUOUS
10
5.9618476377952758
20
-4.5200421259842516
11
5.9637145275590546
21
-4.5228361417322835
0
LINE
8
BLACK
6
CONTINUOUS
10
5.9637145275590546
20
-4.5228361417322835
11
5.9643700787401572
21
-4.5261318897637794
0
LINE
8
BLACK
6
CONTINUOUS
10
5.9643700787401572
20
-4.5261318897637794
11
5.9643700787401572
21
-4.543356299212598
0
LINE
8
BLACK
6
CONTINUOUS
10
5.9643700787401572
20
-4.543356299212598
11
5.9637145275590546
21
-4.5466520472440948
0
LINE
8
BLACK
6
CONTINUOUS
10
5.9637145275590546
20
-4.5466520472440948
11
5.9618476377952758
21
-4.5494460629921258
0
LINE
8
BLACK
6
CONTINUOUS
10
5.9618476377952758
20
-4.5494460629921258
11
5.9590536220472439
21
-4.5513129527559055
0
LINE
8
BLACK
6
CONTINUOUS
10
5.9590536220472439
20
-4.5513129527559055
11
5.955757874015748
21
-4.5519685039370081
0
LINE
8
BLACK
6
CONTINUOUS
10
5.955757874015748
20
-4.5519685039370081
11
5.9355807086614174
21
-4.5519685039370081
0
LINE
8
BLACK
6
CONTINUOUS
10
5.9355807086614174
20
-4.5519685039370081
11
5.9322849606299215
21
-4.5513129527559055
0
LINE
8
BLACK
6
CONTINUOUS
10
5.9322849606299215
20
-4.5513129527559055
11
5.9294909448818895
21
-4.5494460629921258
0
LINE
8
BLACK
6
CONTINUOUS
10
5.9294909448818895
20
-4.5494460629921258
11
5.9276240551181099
21
-4.5466520472440948
0
LINE
8
BLACK
6
CONTINUOUS
10
5.9276240551181099
20
-4.5466520472440948
11
5.9269685039370081
21
-4.543356299212598
0
LINE
8
BLACK
6
CONTINUOUS
10
5.9269685039370081
20
-4.543356299212598
11
5.9269685039370081
21
-4.5261318897637794
0
LINE
8
BLACK
6
CONTINUOUS
10
5.9269685039370081
20
-4.5261318897637794
11
5.9276240551181099
21
-4.5228361417322835
0
LINE
8
BLACK
6
CONTINUOUS
10
5.9276240551181099
20
-4.5228361417322835
11
5.9294909448818895
21
-4.5200421259842516
0
LINE
8
BLACK
6
CONTINUOUS
10
5.9294909448818895
20
-4.5200421259842516
11
5.9322849606299215
21
-4.5181752362204719
0
LINE
8
BLACK
6
CONTINUOUS
10
5.9322849606299215
20
-4.5181752362204719
11
5.9355807086614174
21
-4.5175196850393702
0
LINE
8
BLACK
6
CONTINUOUS
10
5.9355807086614174
20
-4.5175196850393702
11
5.955757874015748
21
-4.5175196850393702
0
LINE
8
BLACK
6
CONTINUOUS
10
5.955757874015748
20
-4.5175196850393702
11
5.9590536220472439
21
-4.5181752362204719
0
LINE
8
BLACK
6
CONTINUOUS
10
5.2899015748031495
20
-3.9246062992125985
11
5.2623425196850393
21
-3.9246062992125985
0
LINE
8
BLACK
6
CONTINUOUS
10
5.2623425196850393
20
-3.9246062992125985
11
5.2623425196850393
21
-3.865551181102362
0
LINE
8
BLACK
6
CONTINUOUS
10
5.2623425196850393
20
-3.865551181102362
11
5.2899015748031495
21
-3.865551181102362
0
LINE
8
BLACK
6
CONTINUOUS
10
5.2899015748031495
20
-3.865551181102362
11
5.2899015748031495
21
-3.9246062992125985
0
LINE
8
BLACK
6
CONTINUOUS
10
5.3292716535433069
20
-3.9246062992125985
11
5.3017125984251967
21
-3.9246062992125985
0
LINE
8
BLACK
6
CONTINUOUS
10
5.3017125984251967
20
-3.9246062992125985
11
5.3017125984251967
21
-3.865551181102362
0
LINE
8
BLACK
6
CONTINUOUS
10
5.3017125984251967
20
-3.865551181102362
11
5.3292716535433069
21
-3.865551181102362
0
LINE
8
BLACK
6
CONTINUOUS
10
5.3292716535433069
20
-3.865551181102362
11
5.3292716535433069
21
-3.9246062992125985
0
LINE
8
BLACK
6
CONTINUOUS
10
5.3686417322834643
20
-3.9246062992125985
11
5.3410826771653541
21
-3.9246062992125985
0
LINE
8
BLACK
6
CONTINUOUS
10
5.3410826771653541
20
-3.9246062992125985
11
5.3410826771653541
21
-3.865551181102362
0
LINE
8
BLACK
6
CONTINUOUS
10
5.3410826771653541
20
-3.865551181102362
11
5.3686417322834643
21
-3.865551181102362
0
LINE
8
BLACK
6
CONTINUOUS
10
5.3686417322834643
20
-3.865551181102362
11
5.3686417322834643
21
-3.9246062992125985
0
LINE
8
BLACK
6
CONTINUOUS
10
5.4080118110236217
20
-3.9246062992125985
11
5.3804527559055115
21
-3.9246062992125985
0
LINE
8
BLACK
6
CONTINUOUS
10
5.3804527559055115
20
-3.9246062992125985
11
5.3804527559055115
21
-3.865551181102362
0
LINE
8
BLACK
6
CONTINUOUS
10
5.3804527559055115
20
-3.865551181102362
11
5.4080118110236217
21
-3.865551181102362
0
LINE
8
BLACK
6
CONTINUOUS
10
5.4080118110236217
20
-3.865551181102362
11
5.4080118110236217
21
-3.9246062992125985
0
LINE
8
BLACK
6
CONTINUOUS
10
5.4473818897637791
20
-3.9246062992125985
11
5.4198228346456689
21
-3.9246062992125985
0
LINE
8
BLACK
6
CONTINUOUS
10
5.4198228346456689
20
-3.9246062992125985
11
5.4198228346456689
21
-3.865551181102362
0
LINE
8
BLACK
6
CONTINUOUS
10
5.4198228346456689
20
-3.865551181102362
11
5.4473818897637791
21
-3.865551181102362
0
LINE
8
BLACK
6
CONTINUOUS
10
5.4473818897637791
20
-3.865551181102362
11
5.4473818897637791
21
-3.9246062992125985
0
LINE
8
BLACK
6
CONTINUOUS
10
5.2111614173228347
20
-3.8931102362204721
11
5.1521062992125986
21
-3.8931102362204721
0
LINE
8
BLACK
6
CONTINUOUS
10
5.1521062992125986
20
-3.8931102362204721
11
5.1521062992125986
21
-3.865551181102362
0
LINE
8
BLACK
6
CONTINUOUS
10
5.1521062992125986
20
-3.865551181102362
11
5.2111614173228347
21
-3.865551181102362
0
LINE
8
BLACK
6
CONTINUOUS
10
5.2111614173228347
20
-3.865551181102362
11
5.2111614173228347
21
-3.8931102362204721
0
LINE
8
BLACK
6
CONTINUOUS
10
5.5576181102362208
20
-3.8931102362204721
11
5.4985629921259838
21
-3.8931102362204721
0
LINE
8
BLACK
6
CONTINUOUS
10
5.4985629921259838
20
-3.8931102362204721
11
5.4985629921259838
21
-3.865551181102362
0
LINE
8
BLACK
6
CONTINUOUS
10
5.4985629921259838
20
-3.865551181102362
11
5.5576181102362208
21
-3.865551181102362
0
LINE
8
BLACK
6
CONTINUOUS
10
5.5576181102362208
20
-3.865551181102362
11
5.5576181102362208
21
-3.8931102362204721
0
LINE
8
BLACK
6
CONTINUOUS
10
5.2111614173228347
20
-3.8537401574803147
11
5.1521062992125986
21
-3.8537401574803147
0
LINE
8
BLACK
6
CONTINUOUS
10
5.1521062992125986
20
-3.8537401574803147
11
5.1521062992125986
21
-3.8261811023622045
0
LINE
8
BLACK
6
CONTINUOUS
10
5.1521062992125986
20
-3.8261811023622045
11
5.2111614173228347
21
-3.8261811023622045
0
LINE
8
BLACK
6
CONTINUOUS
10
5.2111614173228347
20
-3.8261811023622045
11
5.2111614173228347
21
-3.8537401574803147
0
LINE
8
BLACK
6
CONTINUOUS
10
5.5576181102362208
20
-3.8537401574803147
11
5.4985629921259838
21
-3.8537401574803147
0
LINE
8
BLACK
6
CONTINUOUS
10
5.4985629921259838
20
-3.8537401574803147
11
5.4985629921259838
21
-3.8261811023622045
0
LINE
8
BLACK
6
CONTINUOUS
10
5.4985629921259838
20
-3.8261811023622045
11
5.5576181102362208
21
-3.8261811023622045
0
LINE
8
BLACK
6
CONTINUOUS
10
5.5576181102362208
20
-3.8261811023622045
11
5.5576181102362208
21
-3.8537401574803147
0
LINE
8
BLACK
6
CONTINUOUS
10
5.2111614173228347
20
-3.8143700787401573
11
5.1521062992125986
21
-3.8143700787401573
0
LINE
8
BLACK
6
CONTINUOUS
10
5.1521062992125986
20
-3.8143700787401573
11
5.1521062992125986
21
-3.7868110236220471
0
LINE
8
BLACK
6
CONTINUOUS
10
5.1521062992125986
20
-3.7868110236220471
11
5.2111614173228347
21
-3.7868110236220471
0
LINE
8
BLACK
6
CONTINUOUS
10
5.2111614173228347
20
-3.7868110236220471
11
5.2111614173228347
21
-3.8143700787401573
0
LINE
8
BLACK
6
CONTINUOUS
10
5.5576181102362208
20
-3.8143700787401573
11
5.4985629921259838
21
-3.8143700787401573
0
LINE
8
BLACK
6
CONTINUOUS
10
5.4985629921259838
20
-3.8143700787401573
11
5.4985629921259838
21
-3.7868110236220471
0
LINE
8
BLACK
6
CONTINUOUS
10
5.4985629921259838
20
-3.7868110236220471
11
5.5576181102362208
21
-3.7868110236220471
0
LINE
8
BLACK
6
CONTINUOUS
10
5.5576181102362208
20
-3.7868110236220471
11
5.5576181102362208
21
-3.8143700787401573
0
LINE
8
BLACK
6
CONTINUOUS
10
5.2111614173228347
20
-3.7749999999999999
11
5.1521062992125986
21
-3.7749999999999999
0
LINE
8
BLACK
6
CONTINUOUS
10
5.1521062992125986
20
-3.7749999999999999
11
5.1521062992125986
21
-3.7474409448818897
0
LINE
8
BLACK
6
CONTINUOUS
10
5.1521062992125986
20
-3.7474409448818897
11
5.2111614173228347
21
-3.7474409448818897
0
LINE
8
BLACK
6
CONTINUOUS
10
5.2111614173228347
20
-3.7474409448818897
11
5.2111614173228347
21
-3.7749999999999999
0
LINE
8
BLACK
6
CONTINUOUS
10
5.5576181102362208
20
-3.7749999999999999
11
5.4985629921259838
21
-3.7749999999999999
0
LINE
8
BLACK
6
CONTINUOUS
10
5.4985629921259838
20
-3.7749999999999999
11
5.4985629921259838
21
-3.7474409448818897
0
LINE
8
BLACK
6
CONTINUOUS
10
5.4985629921259838
20
-3.7474409448818897
11
5.5576181102362208
21
-3.7474409448818897
0
LINE
8
BLACK
6
CONTINUOUS
10
5.5576181102362208
20
-3.7474409448818897
11
5.5576181102362208
21
-3.7749999999999999
0
LINE
8
BLACK
6
CONTINUOUS
10
5.2111614173228347
20
-3.7356299212598425
11
5.1521062992125986
21
-3.7356299212598425
0
LINE
8
BLACK
6
CONTINUOUS
10
5.1521062992125986
20
-3.7356299212598425
11
5.1521062992125986
21
-3.7080708661417323
0
LINE
8
BLACK
6
CONTINUOUS
10
5.1521062992125986
20
-3.7080708661417323
11
5.2111614173228347
21
-3.7080708661417323
0
LINE
8
BLACK
6
CONTINUOUS
10
5.2111614173228347
20
-3.7080708661417323
11
5.2111614173228347
21
-3.7356299212598425
0
LINE
8
BLACK
6
CONTINUOUS
10
5.5576181102362208
20
-3.7356299212598425
11
5.4985629921259838
21
-3.7356299212598425
0
LINE
8
BLACK
6
CONTINUOUS
10
5.4985629921259838
20
-3.7356299212598425
11
5.4985629921259838
21
-3.7080708661417323
0
LINE
8
BLACK
6
CONTINUOUS
10
5.4985629921259838
20
-3.7080708661417323
11
5.5576181102362208
21
-3.7080708661417323
0
LINE
8
BLACK
6
CONTINUOUS
10
5.5576181102362208
20
-3.7080708661417323
11
5.5576181102362208
21
-3.7356299212598425
0
LINE
8
BLACK
6
CONTINUOUS
10
5.2111614173228347
20
-3.6962598425196851
11
5.1521062992125986
21
-3.6962598425196851
0
LINE
8
BLACK
6
CONTINUOUS
10
5.1521062992125986
20
-3.6962598425196851
11
5.1521062992125986
21
-3.6687007874015749
0
LINE
8
BLACK
6
CONTINUOUS
10
5.1521062992125986
20
-3.6687007874015749
11
5.2111614173228347
21
-3.6687007874015749
0
LINE
8
BLACK
6
CONTINUOUS
10
5.2111614173228347
20
-3.6687007874015749
11
5.2111614173228347
21
-3.6962598425196851
0
LINE
8
BLACK
6
CONTINUOUS
10
5.5576181102362208
20
-3.6962598425196851
11
5.4985629921259838
21
-3.6962598425196851
0
LINE
8
BLACK
6
CONTINUOUS
10
5.4985629921259838
20
-3.6962598425196851
11
5.4985629921259838
21
-3.6687007874015749
0
LINE
8
BLACK
6
CONTINUOUS
10
5.4985629921259838
20
-3.6687007874015749
11
5.5576181102362208
21
-3.6687007874015749
0
LINE
8
BLACK
6
CONTINUOUS
10
5.5576181102362208
20
-3.6687007874015749
11
5.5576181102362208
21
-3.6962598425196851
0
LINE
8
BLACK
6
CONTINUOUS
10
5.2111614173228347
20
-3.6568897637795277
11
5.1521062992125986
21
-3.6568897637795277
0
LINE
8
BLACK
6
CONTINUOUS
10
5.1521062992125986
20
-3.6568897637795277
11
5.1521062992125986
21
-3.629330708661417
0
LINE
8
BLACK
6
CONTINUOUS
10
5.1521062992125986
20
-3.629330708661417
11
5.2111614173228347
21
-3.629330708661417
0
LINE
8
BLACK
6
CONTINUOUS
10
5.2111614173228347
20
-3.629330708661417
11
5.2111614173228347
21
-3.6568897637795277
0
LINE
8
BLACK
6
CONTINUOUS
10
5.5576181102362208
20
-3.6568897637795277
11
5.4985629921259838
21
-3.6568897637795277
0
LINE
8
BLACK
6
CONTINUOUS
10
5.4985629921259838
20
-3.6568897637795277
11
5.4985629921259838
21
-3.629330708661417
0
LINE
8
BLACK
6
CONTINUOUS
10
5.4985629921259838
20
-3.629330708661417
11
5.5576181102362208
21
-3.629330708661417
0
LINE
8
BLACK
6
CONTINUOUS
10
5.5576181102362208
20
-3.629330708661417
11
5.5576181102362208
21
-3.6568897637795277
0
LINE
8
BLACK
6
CONTINUOUS
10
5.2111614173228347
20
-3.6175196850393698
11
5.1521062992125986
21
-3.6175196850393698
0
LINE
8
BLACK
6
CONTINUOUS
10
5.1521062992125986
20
-3.6175196850393698
11
5.1521062992125986
21
-3.5899606299212596
0
LINE
8
BLACK
6
CONTINUOUS
10
5.1521062992125986
20
-3.5899606299212596
11
5.2111614173228347
21
-3.5899606299212596
0
LINE
8
BLACK
6
CONTINUOUS
10
5.2111614173228347
20
-3.5899606299212596
11
5.2111614173228347
21
-3.6175196850393698
0
LINE
8
BLACK
6
CONTINUOUS
10
5.5576181102362208
20
-3.6175196850393698
11
5.4985629921259838
21
-3.6175196850393698
0
LINE
8
BLACK
6
CONTINUOUS
10
5.4985629921259838
20
-3.6175196850393698
11
5.4985629921259838
21
-3.5899606299212596
0
LINE
8
BLACK
6
CONTINUOUS
10
5.4985629921259838
20
-3.5899606299212596
11
5.5576181102362208
21
-3.5899606299212596
0
LINE
8
BLACK
6
CONTINUOUS
10
5.5576181102362208
20
-3.5899606299212596
11
5.5576181102362208
21
-3.6175196850393698
0
LINE
8
BLACK
6
CONTINUOUS
10
5.2111614173228347
20
-3.5781496062992124
11
5.1521062992125986
21
-3.5781496062992124
0
LINE
8
BLACK
6
CONTINUOUS
10
5.1521062992125986
20
-3.5781496062992124
11
5.1521062992125986
21
-3.5505905511811022
0
LINE
8
BLACK
6
CONTINUOUS
10
5.1521062992125986
20
-3.5505905511811022
11
5.2111614173228347
21
-3.5505905511811022
0
LINE
8
BLACK
6
CONTINUOUS
10
5.2111614173228347
20
-3.5505905511811022
11
5.2111614173228347
21
-3.5781496062992124
0
LINE
8
BLACK
6
CONTINUOUS
10
5.5576181102362208
20
-3.5781496062992124
11
5.4985629921259838
21
-3.5781496062992124
0
LINE
8
BLACK
6
CONTINUOUS
10
5.4985629921259838
20
-3.5781496062992124
11
5.4985629921259838
21
-3.5505905511811022
0
LINE
8
BLACK
6
CONTINUOUS
10
5.4985629921259838
20
-3.5505905511811022
11
5.5576181102362208
21
-3.5505905511811022
0
LINE
8
BLACK
6
CONTINUOUS
10
5.5576181102362208
20
-3.5505905511811022
11
5.5576181102362208
21
-3.5781496062992124
0
LINE
8
BLACK
6
CONTINUOUS
10
5.2111614173228347
20
-3.538779527559055
11
5.1521062992125986
21
-3.538779527559055
0
LINE
8
BLACK
6
CONTINUOUS
10
5.1521062992125986
20
-3.538779527559055
11
5.1521062992125986
21
-3.5112204724409448
0
LINE
8
BLACK
6
CONTINUOUS
10
5.1521062992125986
20
-3.5112204724409448
11
5.2111614173228347
21
-3.5112204724409448
0
LINE
8
BLACK
6
CONTINUOUS
10
5.2111614173228347
20
-3.5112204724409448
11
5.2111614173228347
21
-3.538779527559055
0
LINE
8
BLACK
6
CONTINUOUS
10
5.5576181102362208
20
-3.538779527559055
11
5.4985629921259838
21
-3.538779527559055
0
LINE
8
BLACK
6
CONTINUOUS
10
5.4985629921259838
20
-3.538779527559055
11
5.4985629921259838
21
-3.5112204724409448
0
LINE
8
BLACK
6
CONTINUOUS
10
5.4985629921259838
20
-3.5112204724409448
11
5.5576181102362208
21
-3.5112204724409448
0
LINE
8
BLACK
6
CONTINUOUS
10
5.5576181102362208
20
-3.5112204724409448
11
5.5576181102362208
21
-3.538779527559055
0
LINE
8
BLACK
6
CONTINUOUS
10
5.2111614173228347
20
-3.4994094488188976
11
5.1521062992125986
21
-3.4994094488188976
0
LINE
8
BLACK
6
CONTINUOUS
10
5.1521062992125986
20
-3.4994094488188976
11
5.1521062992125986
21
-3.4718503937007874
0
LINE
8
BLACK
6
CONTINUOUS
10
5.1521062992125986
20
-3.4718503937007874
11
5.2111614173228347
21
-3.4718503937007874
0
LINE
8
BLACK
6
CONTINUOUS
10
5.2111614173228347
20
-3.4718503937007874
11
5.2111614173228347
21
-3.4994094488188976
0
LINE
8
BLACK
6
CONTINUOUS
10
5.5576181102362208
20
-3.4994094488188976
11
5.4985629921259838
21
-3.4994094488188976
0
LINE
8
BLACK
6
CONTINUOUS
10
5.4985629921259838
20
-3.4994094488188976
11
5.4985629921259838
21
-3.4718503937007874
0
LINE
8
BLACK
6
CONTINUOUS
10
5.4985629921259838
20
-3.4718503937007874
11
5.5576181102362208
21
-3.4718503937007874
0
LINE
8
BLACK
6
CONTINUOUS
10
5.5576181102362208
20
-3.4718503937007874
11
5.5576181102362208
21
-3.4994094488188976
0
LINE
8
BLACK
6
CONTINUOUS
10
5.2111614173228347
20
-3.4600393700787402
11
5.1521062992125986
21
-3.4600393700787402
0
LINE
8
BLACK
6
CONTINUOUS
10
5.1521062992125986
20
-3.4600393700787402
11
5.1521062992125986
21
-3.43248031496063
0
LINE
8
BLACK
6
CONTINUOUS
10
5.1521062992125986
20
-3.43248031496063
11
5.2111614173228347
21
-3.43248031496063
0
LINE
8
BLACK
6
CONTINUOUS
10
5.2111614173228347
20
-3.43248031496063
11
5.2111614173228347
21
-3.4600393700787402
0
LINE
8
BLACK
6
CONTINUOUS
10
5.5576181102362208
20
-3.4600393700787402
11
5.4985629921259838
21
-3.4600393700787402
0
LINE
8
BLACK
6
CONTINUOUS
10
5.4985629921259838
20
-3.4600393700787402
11
5.4985629921259838
21
-3.43248031496063
0
LINE
8
BLACK
6
CONTINUOUS
10
5.4985629921259838
20
-3.43248031496063
11
5.5576181102362208
21
-3.43248031496063
0
LINE
8
BLACK
6
CONTINUOUS
10
5.5576181102362208
20
-3.43248031496063
11
5.5576181102362208
21
-3.4600393700787402
0
LINE
8
BLACK
6
CONTINUOUS
10
5.2111614173228347
20
-3.4206692913385828
11
5.1521062992125986
21
-3.4206692913385828
0
LINE
8
BLACK
6
CONTINUOUS
10
5.1521062992125986
20
-3.4206692913385828
11
5.1521062992125986
21
-3.3812992125984249
0
LINE
8
BLACK
6
CONTINUOUS
10
5.1521062992125986
20
-3.3812992125984249
11
5.2111614173228347
21
-3.3812992125984249
0
LINE
8
BLACK
6
CONTINUOUS
10
5.2111614173228347
20
-3.3812992125984249
11
5.2111614173228347
21
-3.4206692913385828
0
LINE
8
BLACK
6
CONTINUOUS
10
5.5576181102362208
20
-3.4206692913385828
11
5.4985629921259838
21
-3.4206692913385828
0
LINE
8
BLACK
6
CONTINUOUS
10
5.4985629921259838
20
-3.4206692913385828
11
5.4985629921259838
21
-3.3812992125984249
0
LINE
8
BLACK
6
CONTINUOUS
10
5.4985629921259838
20
-3.3812992125984249
11
5.5576181102362208
21
-3.3812992125984249
0
LINE
8
BLACK
6
CONTINUOUS
10
5.5576181102362208
20
-3.3812992125984249
11
5.5576181102362208
21
-3.4206692913385828
  0
ENDSEC
  0
EOF
