  0
SECTION
  2
HEADER
  9
$ANGBASE
  50
0.0
  9
$ANGDIR
  70
1
  9
$MEASUREMENT
  70
0
  0
ENDSEC
  0
SECTION
  2
TABLES
  0
TABLE
  2
LTYPE
  70
4
  0
LTYPE
  5
40F
  2
CONTINUOUS
  70
0
  3
Solid line
  72
65
  73
0
  40
0.0
  0
LTYPE
  5
410
  2
DASHDOT
 70
0
  3
Dash Dot ____ _ ____ _
 72
65
 73
4
 40
2.0
 49
1.25
 49
-0.25
 49
0.25
 49
-0.25
  0
LTYPE
  5
411
  2
DASHED
 70
0
  3
Dashed __ __ __ __ __
 72
65
 73
2
 40
0.75
 49
0.5
 49
-0.25
  0
LTYPE
  5
43B
  2
DOTTED
 70
0
  3
Dotted .  .  .  .
 72
65
 73
2
 40
0.2
 49
0.0
 49
-0.2
  0
ENDTAB
  0
TABLE
  2
STYLE
  70
4
  0
STYLE
  2
KICAD
  70
0
  40
0
  41
1
  42
1
  50
0
  71
0
  3
isocp.shx
  0
STYLE
  2
KICADB
  70
0
  40
0
  41
1
  42
1
  50
0
  71
0
  3
isocp.shx
  0
STYLE
  2
KICADI
  70
0
  40
0
  41
1
  42
1
  50
15
  71
0
  3
isocp.shx
  0
STYLE
  2
KICADBI
  70
0
  40
0
  41
1
  42
1
  50
15
  71
0
  3
isocp.shx
  0
ENDTAB
  0
TABLE
  2
LAYER
  70
1
  0
LAYER
  2
BLACK
  70
0
  62
7
  6
CONTINUOUS
  0
ENDTAB
  0
ENDSEC
  0
SECTION
  2
ENTITIES
0
LINE
8
BLACK
6
CONTINUOUS
10
5.1998031496062991
20
-4.6242125984251965
11
5.1769685039370081
21
-4.6242125984251965
0
LINE
8
BLACK
6
CONTINUOUS
10
5.1769685039370081
20
-4.6242125984251965
11
5.1769685039370081
21
-4.5958661417322837
0
LINE
8
BLACK
6
CONTINUOUS
10
5.1769685039370081
20
-4.5958661417322837
11
5.1998031496062991
21
-4.5958661417322837
0
LINE
8
BLACK
6
CONTINUOUS
10
5.1998031496062991
20
-4.5958661417322837
11
5.1998031496062991
21
-4.6242125984251965
0
LINE
8
BLACK
6
CONTINUOUS
10
5.2332677165354333
20
-4.6242125984251965
11
5.2104330708661415
21
-4.6242125984251965
0
LINE
8
BLACK
6
CONTINUOUS
10
5.2104330708661415
20
-4.6242125984251965
11
5.2104330708661415
21
-4.5958661417322837
0
LINE
8
BLACK
6
CONTINUOUS
10
5.2104330708661415
20
-4.5958661417322837
11
5.2332677165354333
21
-4.5958661417322837
0
LINE
8
BLACK
6
CONTINUOUS
10
5.2332677165354333
20
-4.5958661417322837
11
5.2332677165354333
21
-4.6242125984251965
0
LINE
8
BLACK
6
CONTINUOUS
10
5.2746062992125982
20
-4.6242125984251965
11
5.2517716535433072
21
-4.6242125984251965
0
LINE
8
BLACK
6
CONTINUOUS
10
5.2517716535433072
20
-4.6242125984251965
11
5.2517716535433072
21
-4.5958661417322837
0
LINE
8
BLACK
6
CONTINUOUS
10
5.2517716535433072
20
-4.5958661417322837
11
5.2746062992125982
21
-4.5958661417322837
0
LINE
8
BLACK
6
CONTINUOUS
10
5.2746062992125982
20
-4.5958661417322837
11
5.2746062992125982
21
-4.6242125984251965
0
LINE
8
BLACK
6
CONTINUOUS
10
5.3080708661417324
20
-4.6242125984251965
11
5.2852362204724406
21
-4.6242125984251965
0
LINE
8
BLACK
6
CONTINUOUS
10
5.2852362204724406
20
-4.6242125984251965
11
5.2852362204724406
21
-4.5958661417322837
0
LINE
8
BLACK
6
CONTINUOUS
10
5.2852362204724406
20
-4.5958661417322837
11
5.3080708661417324
21
-4.5958661417322837
0
LINE
8
BLACK
6
CONTINUOUS
10
5.3080708661417324
20
-4.5958661417322837
11
5.3080708661417324
21
-4.6242125984251965
0
LINE
8
BLACK
6
CONTINUOUS
10
5.3494094488188972
20
-4.6242125984251965
11
5.3265748031496063
21
-4.6242125984251965
0
LINE
8
BLACK
6
CONTINUOUS
10
5.3265748031496063
20
-4.6242125984251965
11
5.3265748031496063
21
-4.5958661417322837
0
LINE
8
BLACK
6
CONTINUOUS
10
5.3265748031496063
20
-4.5958661417322837
11
5.3494094488188972
21
-4.5958661417322837
0
LINE
8
BLACK
6
CONTINUOUS
10
5.3494094488188972
20
-4.5958661417322837
11
5.3494094488188972
21
-4.6242125984251965
0
LINE
8
BLACK
6
CONTINUOUS
10
5.3828740157480315
20
-4.6242125984251965
11
5.3600393700787397
21
-4.6242125984251965
0
LINE
8
BLACK
6
CONTINUOUS
10
5.3600393700787397
20
-4.6242125984251965
11
5.3600393700787397
21
-4.5958661417322837
0
LINE
8
BLACK
6
CONTINUOUS
10
5.3600393700787397
20
-4.5958661417322837
11
5.3828740157480315
21
-4.5958661417322837
0
LINE
8
BLACK
6
CONTINUOUS
10
5.3828740157480315
20
-4.5958661417322837
11
5.3828740157480315
21
-4.6242125984251965
0
LINE
8
BLACK
6
CONTINUOUS
10
5.4242125984251963
20
-4.6242125984251965
11
5.4013779527559054
21
-4.6242125984251965
0
LINE
8
BLACK
6
CONTINUOUS
10
5.4013779527559054
20
-4.6242125984251965
11
5.4013779527559054
21
-4.5958661417322837
0
LINE
8
BLACK
6
CONTINUOUS
10
5.4013779527559054
20
-4.5958661417322837
11
5.4242125984251963
21
-4.5958661417322837
0
LINE
8
BLACK
6
CONTINUOUS
10
5.4242125984251963
20
-4.5958661417322837
11
5.4242125984251963
21
-4.6242125984251965
0
LINE
8
BLACK
6
CONTINUOUS
10
5.4576771653543306
20
-4.6242125984251965
11
5.4348425196850396
21
-4.6242125984251965
0
LINE
8
BLACK
6
CONTINUOUS
10
5.4348425196850396
20
-4.6242125984251965
11
5.4348425196850396
21
-4.5958661417322837
0
LINE
8
BLACK
6
CONTINUOUS
10
5.4348425196850396
20
-4.5958661417322837
11
5.4576771653543306
21
-4.5958661417322837
0
LINE
8
BLACK
6
CONTINUOUS
10
5.4576771653543306
20
-4.5958661417322837
11
5.4576771653543306
21
-4.6242125984251965
0
LINE
8
BLACK
6
CONTINUOUS
10
5.4990157480314963
20
-4.6242125984251965
11
5.4761811023622045
21
-4.6242125984251965
0
LINE
8
BLACK
6
CONTINUOUS
10
5.4761811023622045
20
-4.6242125984251965
11
5.4761811023622045
21
-4.5958661417322837
0
LINE
8
BLACK
6
CONTINUOUS
10
5.4761811023622045
20
-4.5958661417322837
11
5.4990157480314963
21
-4.5958661417322837
0
LINE
8
BLACK
6
CONTINUOUS
10
5.4990157480314963
20
-4.5958661417322837
11
5.4990157480314963
21
-4.6242125984251965
0
LINE
8
BLACK
6
CONTINUOUS
10
5.5324803149606296
20
-4.6242125984251965
11
5.5096456692913387
21
-4.6242125984251965
0
LINE
8
BLACK
6
CONTINUOUS
10
5.5096456692913387
20
-4.6242125984251965
11
5.5096456692913387
21
-4.5958661417322837
0
LINE
8
BLACK
6
CONTINUOUS
10
5.5096456692913387
20
-4.5958661417322837
11
5.5324803149606296
21
-4.5958661417322837
0
LINE
8
BLACK
6
CONTINUOUS
10
5.5324803149606296
20
-4.5958661417322837
11
5.5324803149606296
21
-4.6242125984251965
0
LINE
8
BLACK
6
CONTINUOUS
10
5.1998031496062991
20
-4.5848425196850391
11
5.1769685039370081
21
-4.5848425196850391
0
LINE
8
BLACK
6
CONTINUOUS
10
5.1769685039370081
20
-4.5848425196850391
11
5.1769685039370081
21
-4.5564960629921263
0
LINE
8
BLACK
6
CONTINUOUS
10
5.1769685039370081
20
-4.5564960629921263
11
5.1998031496062991
21
-4.5564960629921263
0
LINE
8
BLACK
6
CONTINUOUS
10
5.1998031496062991
20
-4.5564960629921263
11
5.1998031496062991
21
-4.5848425196850391
0
LINE
8
BLACK
6
CONTINUOUS
10
5.2332677165354333
20
-4.5848425196850391
11
5.2104330708661415
21
-4.5848425196850391
0
LINE
8
BLACK
6
CONTINUOUS
10
5.2104330708661415
20
-4.5848425196850391
11
5.2104330708661415
21
-4.5564960629921263
0
LINE
8
BLACK
6
CONTINUOUS
10
5.2104330708661415
20
-4.5564960629921263
11
5.2332677165354333
21
-4.5564960629921263
0
LINE
8
BLACK
6
CONTINUOUS
10
5.2332677165354333
20
-4.5564960629921263
11
5.2332677165354333
21
-4.5848425196850391
0
LINE
8
BLACK
6
CONTINUOUS
10
5.2746062992125982
20
-4.5848425196850391
11
5.2517716535433072
21
-4.5848425196850391
0
LINE
8
BLACK
6
CONTINUOUS
10
5.2517716535433072
20
-4.5848425196850391
11
5.2517716535433072
21
-4.5564960629921263
0
LINE
8
BLACK
6
CONTINUOUS
10
5.2517716535433072
20
-4.5564960629921263
11
5.2746062992125982
21
-4.5564960629921263
0
LINE
8
BLACK
6
CONTINUOUS
10
5.2746062992125982
20
-4.5564960629921263
11
5.2746062992125982
21
-4.5848425196850391
0
LINE
8
BLACK
6
CONTINUOUS
10
5.3080708661417324
20
-4.5848425196850391
11
5.2852362204724406
21
-4.5848425196850391
0
LINE
8
BLACK
6
CONTINUOUS
10
5.2852362204724406
20
-4.5848425196850391
11
5.2852362204724406
21
-4.5564960629921263
0
LINE
8
BLACK
6
CONTINUOUS
10
5.2852362204724406
20
-4.5564960629921263
11
5.3080708661417324
21
-4.5564960629921263
0
LINE
8
BLACK
6
CONTINUOUS
10
5.3080708661417324
20
-4.5564960629921263
11
5.3080708661417324
21
-4.5848425196850391
0
LINE
8
BLACK
6
CONTINUOUS
10
5.3494094488188972
20
-4.5848425196850391
11
5.3265748031496063
21
-4.5848425196850391
0
LINE
8
BLACK
6
CONTINUOUS
10
5.3265748031496063
20
-4.5848425196850391
11
5.3265748031496063
21
-4.5564960629921263
0
LINE
8
BLACK
6
CONTINUOUS
10
5.3265748031496063
20
-4.5564960629921263
11
5.3494094488188972
21
-4.5564960629921263
0
LINE
8
BLACK
6
CONTINUOUS
10
5.3494094488188972
20
-4.5564960629921263
11
5.3494094488188972
21
-4.5848425196850391
0
LINE
8
BLACK
6
CONTINUOUS
10
5.3828740157480315
20
-4.5848425196850391
11
5.3600393700787397
21
-4.5848425196850391
0
LINE
8
BLACK
6
CONTINUOUS
10
5.3600393700787397
20
-4.5848425196850391
11
5.3600393700787397
21
-4.5564960629921263
0
LINE
8
BLACK
6
CONTINUOUS
10
5.3600393700787397
20
-4.5564960629921263
11
5.3828740157480315
21
-4.5564960629921263
0
LINE
8
BLACK
6
CONTINUOUS
10
5.3828740157480315
20
-4.5564960629921263
11
5.3828740157480315
21
-4.5848425196850391
0
LINE
8
BLACK
6
CONTINUOUS
10
5.4242125984251963
20
-4.5848425196850391
11
5.4013779527559054
21
-4.5848425196850391
0
LINE
8
BLACK
6
CONTINUOUS
10
5.4013779527559054
20
-4.5848425196850391
11
5.4013779527559054
21
-4.5564960629921263
0
LINE
8
BLACK
6
CONTINUOUS
10
5.4013779527559054
20
-4.5564960629921263
11
5.4242125984251963
21
-4.5564960629921263
0
LINE
8
BLACK
6
CONTINUOUS
10
5.4242125984251963
20
-4.5564960629921263
11
5.4242125984251963
21
-4.5848425196850391
0
LINE
8
BLACK
6
CONTINUOUS
10
5.4576771653543306
20
-4.5848425196850391
11
5.4348425196850396
21
-4.5848425196850391
0
LINE
8
BLACK
6
CONTINUOUS
10
5.4348425196850396
20
-4.5848425196850391
11
5.4348425196850396
21
-4.5564960629921263
0
LINE
8
BLACK
6
CONTINUOUS
10
5.4348425196850396
20
-4.5564960629921263
11
5.4576771653543306
21
-4.5564960629921263
0
LINE
8
BLACK
6
CONTINUOUS
10
5.4576771653543306
20
-4.5564960629921263
11
5.4576771653543306
21
-4.5848425196850391
0
LINE
8
BLACK
6
CONTINUOUS
10
5.4990157480314963
20
-4.5848425196850391
11
5.4761811023622045
21
-4.5848425196850391
0
LINE
8
BLACK
6
CONTINUOUS
10
5.4761811023622045
20
-4.5848425196850391
11
5.4761811023622045
21
-4.5564960629921263
0
LINE
8
BLACK
6
CONTINUOUS
10
5.4761811023622045
20
-4.5564960629921263
11
5.4990157480314963
21
-4.5564960629921263
0
LINE
8
BLACK
6
CONTINUOUS
10
5.4990157480314963
20
-4.5564960629921263
11
5.4990157480314963
21
-4.5848425196850391
0
LINE
8
BLACK
6
CONTINUOUS
10
5.5324803149606296
20
-4.5848425196850391
11
5.5096456692913387
21
-4.5848425196850391
0
LINE
8
BLACK
6
CONTINUOUS
10
5.5096456692913387
20
-4.5848425196850391
11
5.5096456692913387
21
-4.5564960629921263
0
LINE
8
BLACK
6
CONTINUOUS
10
5.5096456692913387
20
-4.5564960629921263
11
5.5324803149606296
21
-4.5564960629921263
0
LINE
8
BLACK
6
CONTINUOUS
10
5.5324803149606296
20
-4.5564960629921263
11
5.5324803149606296
21
-4.5848425196850391
0
LINE
8
BLACK
6
CONTINUOUS
10
5.0893700787401572
20
-4.5082677165354328
11
5.0610236220472435
21
-4.5082677165354328
0
LINE
8
BLACK
6
CONTINUOUS
10
5.0610236220472435
20
-4.5082677165354328
11
5.0610236220472435
21
-4.4854330708661418
0
LINE
8
BLACK
6
CONTINUOUS
10
5.0610236220472435
20
-4.4854330708661418
11
5.0893700787401572
21
-4.4854330708661418
0
LINE
8
BLACK
6
CONTINUOUS
10
5.0893700787401572
20
-4.4854330708661418
11
5.0893700787401572
21
-4.5082677165354328
0
LINE
8
BLACK
6
CONTINUOUS
10
5.1287401574803146
20
-4.5082677165354328
11
5.1003937007874018
21
-4.5082677165354328
0
LINE
8
BLACK
6
CONTINUOUS
10
5.1003937007874018
20
-4.5082677165354328
11
5.1003937007874018
21
-4.4854330708661418
0
LINE
8
BLACK
6
CONTINUOUS
10
5.1003937007874018
20
-4.4854330708661418
11
5.1287401574803146
21
-4.4854330708661418
0
LINE
8
BLACK
6
CONTINUOUS
10
5.1287401574803146
20
-4.4854330708661418
11
5.1287401574803146
21
-4.5082677165354328
0
LINE
8
BLACK
6
CONTINUOUS
10
5.6090551181102359
20
-4.5082677165354328
11
5.5807086614173231
21
-4.5082677165354328
0
LINE
8
BLACK
6
CONTINUOUS
10
5.5807086614173231
20
-4.5082677165354328
11
5.5807086614173231
21
-4.4854330708661418
0
LINE
8
BLACK
6
CONTINUOUS
10
5.5807086614173231
20
-4.4854330708661418
11
5.6090551181102359
21
-4.4854330708661418
0
LINE
8
BLACK
6
CONTINUOUS
10
5.6090551181102359
20
-4.4854330708661418
11
5.6090551181102359
21
-4.5082677165354328
0
LINE
8
BLACK
6
CONTINUOUS
10
5.6484251968503933
20
-4.5082677165354328
11
5.6200787401574805
21
-4.5082677165354328
0
LINE
8
BLACK
6
CONTINUOUS
10
5.6200787401574805
20
-4.5082677165354328
11
5.6200787401574805
21
-4.4854330708661418
0
LINE
8
BLACK
6
CONTINUOUS
10
5.6200787401574805
20
-4.4854330708661418
11
5.6484251968503933
21
-4.4854330708661418
0
LINE
8
BLACK
6
CONTINUOUS
10
5.6484251968503933
20
-4.4854330708661418
11
5.6484251968503933
21
-4.5082677165354328
0
LINE
8
BLACK
6
CONTINUOUS
10
5.0893700787401572
20
-4.4748031496062994
11
5.0610236220472435
21
-4.4748031496062994
0
LINE
8
BLACK
6
CONTINUOUS
10
5.0610236220472435
20
-4.4748031496062994
11
5.0610236220472435
21
-4.4519685039370076
0
LINE
8
BLACK
6
CONTINUOUS
10
5.0610236220472435
20
-4.4519685039370076
11
5.0893700787401572
21
-4.4519685039370076
0
LINE
8
BLACK
6
CONTINUOUS
10
5.0893700787401572
20
-4.4519685039370076
11
5.0893700787401572
21
-4.4748031496062994
0
LINE
8
BLACK
6
CONTINUOUS
10
5.1287401574803146
20
-4.4748031496062994
11
5.1003937007874018
21
-4.4748031496062994
0
LINE
8
BLACK
6
CONTINUOUS
10
5.1003937007874018
20
-4.4748031496062994
11
5.1003937007874018
21
-4.4519685039370076
0
LINE
8
BLACK
6
CONTINUOUS
10
5.1003937007874018
20
-4.4519685039370076
11
5.1287401574803146
21
-4.4519685039370076
0
LINE
8
BLACK
6
CONTINUOUS
10
5.1287401574803146
20
-4.4519685039370076
11
5.1287401574803146
21
-4.4748031496062994
0
LINE
8
BLACK
6
CONTINUOUS
10
5.6090551181102359
20
-4.4748031496062994
11
5.5807086614173231
21
-4.4748031496062994
0
LINE
8
BLACK
6
CONTINUOUS
10
5.5807086614173231
20
-4.4748031496062994
11
5.5807086614173231
21
-4.4519685039370076
0
LINE
8
BLACK
6
CONTINUOUS
10
5.5807086614173231
20
-4.4519685039370076
11
5.6090551181102359
21
-4.4519685039370076
0
LINE
8
BLACK
6
CONTINUOUS
10
5.6090551181102359
20
-4.4519685039370076
11
5.6090551181102359
21
-4.4748031496062994
0
LINE
8
BLACK
6
CONTINUOUS
10
5.6484251968503933
20
-4.4748031496062994
11
5.6200787401574805
21
-4.4748031496062994
0
LINE
8
BLACK
6
CONTINUOUS
10
5.6200787401574805
20
-4.4748031496062994
11
5.6200787401574805
21
-4.4519685039370076
0
LINE
8
BLACK
6
CONTINUOUS
10
5.6200787401574805
20
-4.4519685039370076
11
5.6484251968503933
21
-4.4519685039370076
0
LINE
8
BLACK
6
CONTINUOUS
10
5.6484251968503933
20
-4.4519685039370076
11
5.6484251968503933
21
-4.4748031496062994
0
LINE
8
BLACK
6
CONTINUOUS
10
5.0893700787401572
20
-4.4334645669291337
11
5.0610236220472435
21
-4.4334645669291337
0
LINE
8
BLACK
6
CONTINUOUS
10
5.0610236220472435
20
-4.4334645669291337
11
5.0610236220472435
21
-4.4106299212598428
0
LINE
8
BLACK
6
CONTINUOUS
10
5.0610236220472435
20
-4.4106299212598428
11
5.0893700787401572
21
-4.4106299212598428
0
LINE
8
BLACK
6
CONTINUOUS
10
5.0893700787401572
20
-4.4106299212598428
11
5.0893700787401572
21
-4.4334645669291337
0
LINE
8
BLACK
6
CONTINUOUS
10
5.1287401574803146
20
-4.4334645669291337
11
5.1003937007874018
21
-4.4334645669291337
0
LINE
8
BLACK
6
CONTINUOUS
10
5.1003937007874018
20
-4.4334645669291337
11
5.1003937007874018
21
-4.4106299212598428
0
LINE
8
BLACK
6
CONTINUOUS
10
5.1003937007874018
20
-4.4106299212598428
11
5.1287401574803146
21
-4.4106299212598428
0
LINE
8
BLACK
6
CONTINUOUS
10
5.1287401574803146
20
-4.4106299212598428
11
5.1287401574803146
21
-4.4334645669291337
0
LINE
8
BLACK
6
CONTINUOUS
10
5.6090551181102359
20
-4.4334645669291337
11
5.5807086614173231
21
-4.4334645669291337
0
LINE
8
BLACK
6
CONTINUOUS
10
5.5807086614173231
20
-4.4334645669291337
11
5.5807086614173231
21
-4.4106299212598428
0
LINE
8
BLACK
6
CONTINUOUS
10
5.5807086614173231
20
-4.4106299212598428
11
5.6090551181102359
21
-4.4106299212598428
0
LINE
8
BLACK
6
CONTINUOUS
10
5.6090551181102359
20
-4.4106299212598428
11
5.6090551181102359
21
-4.4334645669291337
0
LINE
8
BLACK
6
CONTINUOUS
10
5.6484251968503933
20
-4.4334645669291337
11
5.6200787401574805
21
-4.4334645669291337
0
LINE
8
BLACK
6
CONTINUOUS
10
5.6200787401574805
20
-4.4334645669291337
11
5.6200787401574805
21
-4.4106299212598428
0
LINE
8
BLACK
6
CONTINUOUS
10
5.6200787401574805
20
-4.4106299212598428
11
5.6484251968503933
21
-4.4106299212598428
0
LINE
8
BLACK
6
CONTINUOUS
10
5.6484251968503933
20
-4.4106299212598428
11
5.6484251968503933
21
-4.4334645669291337
0
LINE
8
BLACK
6
CONTINUOUS
10
5.0893700787401572
20
-4.3999999999999995
11
5.0610236220472435
21
-4.3999999999999995
0
LINE
8
BLACK
6
CONTINUOUS
10
5.0610236220472435
20
-4.3999999999999995
11
5.0610236220472435
21
-4.3771653543307085
0
LINE
8
BLACK
6
CONTINUOUS
10
5.0610236220472435
20
-4.3771653543307085
11
5.0893700787401572
21
-4.3771653543307085
0
LINE
8
BLACK
6
CONTINUOUS
10
5.0893700787401572
20
-4.3771653543307085
11
5.0893700787401572
21
-4.3999999999999995
0
LINE
8
BLACK
6
CONTINUOUS
10
5.1287401574803146
20
-4.3999999999999995
11
5.1003937007874018
21
-4.3999999999999995
0
LINE
8
BLACK
6
CONTINUOUS
10
5.1003937007874018
20
-4.3999999999999995
11
5.1003937007874018
21
-4.3771653543307085
0
LINE
8
BLACK
6
CONTINUOUS
10
5.1003937007874018
20
-4.3771653543307085
11
5.1287401574803146
21
-4.3771653543307085
0
LINE
8
BLACK
6
CONTINUOUS
10
5.1287401574803146
20
-4.3771653543307085
11
5.1287401574803146
21
-4.3999999999999995
0
LINE
8
BLACK
6
CONTINUOUS
10
5.6090551181102359
20
-4.3999999999999995
11
5.5807086614173231
21
-4.3999999999999995
0
LINE
8
BLACK
6
CONTINUOUS
10
5.5807086614173231
20
-4.3999999999999995
11
5.5807086614173231
21
-4.3771653543307085
0
LINE
8
BLACK
6
CONTINUOUS
10
5.5807086614173231
20
-4.3771653543307085
11
5.6090551181102359
21
-4.3771653543307085
0
LINE
8
BLACK
6
CONTINUOUS
10
5.6090551181102359
20
-4.3771653543307085
11
5.6090551181102359
21
-4.3999999999999995
0
LINE
8
BLACK
6
CONTINUOUS
10
5.6484251968503933
20
-4.3999999999999995
11
5.6200787401574805
21
-4.3999999999999995
0
LINE
8
BLACK
6
CONTINUOUS
10
5.6200787401574805
20
-4.3999999999999995
11
5.6200787401574805
21
-4.3771653543307085
0
LINE
8
BLACK
6
CONTINUOUS
10
5.6200787401574805
20
-4.3771653543307085
11
5.6484251968503933
21
-4.3771653543307085
0
LINE
8
BLACK
6
CONTINUOUS
10
5.6484251968503933
20
-4.3771653543307085
11
5.6484251968503933
21
-4.3999999999999995
0
LINE
8
BLACK
6
CONTINUOUS
10
5.0893700787401572
20
-4.3586614173228346
11
5.0610236220472435
21
-4.3586614173228346
0
LINE
8
BLACK
6
CONTINUOUS
10
5.0610236220472435
20
-4.3586614173228346
11
5.0610236220472435
21
-4.3358267716535428
0
LINE
8
BLACK
6
CONTINUOUS
10
5.0610236220472435
20
-4.3358267716535428
11
5.0893700787401572
21
-4.3358267716535428
0
LINE
8
BLACK
6
CONTINUOUS
10
5.0893700787401572
20
-4.3358267716535428
11
5.0893700787401572
21
-4.3586614173228346
0
LINE
8
BLACK
6
CONTINUOUS
10
5.1287401574803146
20
-4.3586614173228346
11
5.1003937007874018
21
-4.3586614173228346
0
LINE
8
BLACK
6
CONTINUOUS
10
5.1003937007874018
20
-4.3586614173228346
11
5.1003937007874018
21
-4.3358267716535428
0
LINE
8
BLACK
6
CONTINUOUS
10
5.1003937007874018
20
-4.3358267716535428
11
5.1287401574803146
21
-4.3358267716535428
0
LINE
8
BLACK
6
CONTINUOUS
10
5.1287401574803146
20
-4.3358267716535428
11
5.1287401574803146
21
-4.3586614173228346
0
LINE
8
BLACK
6
CONTINUOUS
10
5.6090551181102359
20
-4.3586614173228346
11
5.5807086614173231
21
-4.3586614173228346
0
LINE
8
BLACK
6
CONTINUOUS
10
5.5807086614173231
20
-4.3586614173228346
11
5.5807086614173231
21
-4.3358267716535428
0
LINE
8
BLACK
6
CONTINUOUS
10
5.5807086614173231
20
-4.3358267716535428
11
5.6090551181102359
21
-4.3358267716535428
0
LINE
8
BLACK
6
CONTINUOUS
10
5.6090551181102359
20
-4.3358267716535428
11
5.6090551181102359
21
-4.3586614173228346
0
LINE
8
BLACK
6
CONTINUOUS
10
5.6484251968503933
20
-4.3586614173228346
11
5.6200787401574805
21
-4.3586614173228346
0
LINE
8
BLACK
6
CONTINUOUS
10
5.6200787401574805
20
-4.3586614173228346
11
5.6200787401574805
21
-4.3358267716535428
0
LINE
8
BLACK
6
CONTINUOUS
10
5.6200787401574805
20
-4.3358267716535428
11
5.6484251968503933
21
-4.3358267716535428
0
LINE
8
BLACK
6
CONTINUOUS
10
5.6484251968503933
20
-4.3358267716535428
11
5.6484251968503933
21
-4.3586614173228346
0
LINE
8
BLACK
6
CONTINUOUS
10
5.0893700787401572
20
-4.3251968503937004
11
5.0610236220472435
21
-4.3251968503937004
0
LINE
8
BLACK
6
CONTINUOUS
10
5.0610236220472435
20
-4.3251968503937004
11
5.0610236220472435
21
-4.3023622047244094
0
LINE
8
BLACK
6
CONTINUOUS
10
5.0610236220472435
20
-4.3023622047244094
11
5.0893700787401572
21
-4.3023622047244094
0
LINE
8
BLACK
6
CONTINUOUS
10
5.0893700787401572
20
-4.3023622047244094
11
5.0893700787401572
21
-4.3251968503937004
0
LINE
8
BLACK
6
CONTINUOUS
10
5.1287401574803146
20
-4.3251968503937004
11
5.1003937007874018
21
-4.3251968503937004
0
LINE
8
BLACK
6
CONTINUOUS
10
5.1003937007874018
20
-4.3251968503937004
11
5.1003937007874018
21
-4.3023622047244094
0
LINE
8
BLACK
6
CONTINUOUS
10
5.1003937007874018
20
-4.3023622047244094
11
5.1287401574803146
21
-4.3023622047244094
0
LINE
8
BLACK
6
CONTINUOUS
10
5.1287401574803146
20
-4.3023622047244094
11
5.1287401574803146
21
-4.3251968503937004
0
LINE
8
BLACK
6
CONTINUOUS
10
5.6090551181102359
20
-4.3251968503937004
11
5.5807086614173231
21
-4.3251968503937004
0
LINE
8
BLACK
6
CONTINUOUS
10
5.5807086614173231
20
-4.3251968503937004
11
5.5807086614173231
21
-4.3023622047244094
0
LINE
8
BLACK
6
CONTINUOUS
10
5.5807086614173231
20
-4.3023622047244094
11
5.6090551181102359
21
-4.3023622047244094
0
LINE
8
BLACK
6
CONTINUOUS
10
5.6090551181102359
20
-4.3023622047244094
11
5.6090551181102359
21
-4.3251968503937004
0
LINE
8
BLACK
6
CONTINUOUS
10
5.6484251968503933
20
-4.3251968503937004
11
5.6200787401574805
21
-4.3251968503937004
0
LINE
8
BLACK
6
CONTINUOUS
10
5.6200787401574805
20
-4.3251968503937004
11
5.6200787401574805
21
-4.3023622047244094
0
LINE
8
BLACK
6
CONTINUOUS
10
5.6200787401574805
20
-4.3023622047244094
11
5.6484251968503933
21
-4.3023622047244094
0
LINE
8
BLACK
6
CONTINUOUS
10
5.6484251968503933
20
-4.3023622047244094
11
5.6484251968503933
21
-4.3251968503937004
0
LINE
8
BLACK
6
CONTINUOUS
10
5.0893700787401572
20
-4.2838582677165356
11
5.0610236220472435
21
-4.2838582677165356
0
LINE
8
BLACK
6
CONTINUOUS
10
5.0610236220472435
20
-4.2838582677165356
11
5.0610236220472435
21
-4.2610236220472437
0
LINE
8
BLACK
6
CONTINUOUS
10
5.0610236220472435
20
-4.2610236220472437
11
5.0893700787401572
21
-4.2610236220472437
0
LINE
8
BLACK
6
CONTINUOUS
10
5.0893700787401572
20
-4.2610236220472437
11
5.0893700787401572
21
-4.2838582677165356
0
LINE
8
BLACK
6
CONTINUOUS
10
5.1287401574803146
20
-4.2838582677165356
11
5.1003937007874018
21
-4.2838582677165356
0
LINE
8
BLACK
6
CONTINUOUS
10
5.1003937007874018
20
-4.2838582677165356
11
5.1003937007874018
21
-4.2610236220472437
0
LINE
8
BLACK
6
CONTINUOUS
10
5.1003937007874018
20
-4.2610236220472437
11
5.1287401574803146
21
-4.2610236220472437
0
LINE
8
BLACK
6
CONTINUOUS
10
5.1287401574803146
20
-4.2610236220472437
11
5.1287401574803146
21
-4.2838582677165356
0
LINE
8
BLACK
6
CONTINUOUS
10
5.6090551181102359
20
-4.2838582677165356
11
5.5807086614173231
21
-4.2838582677165356
0
LINE
8
BLACK
6
CONTINUOUS
10
5.5807086614173231
20
-4.2838582677165356
11
5.5807086614173231
21
-4.2610236220472437
0
LINE
8
BLACK
6
CONTINUOUS
10
5.5807086614173231
20
-4.2610236220472437
11
5.6090551181102359
21
-4.2610236220472437
0
LINE
8
BLACK
6
CONTINUOUS
10
5.6090551181102359
20
-4.2610236220472437
11
5.6090551181102359
21
-4.2838582677165356
0
LINE
8
BLACK
6
CONTINUOUS
10
5.6484251968503933
20
-4.2838582677165356
11
5.6200787401574805
21
-4.2838582677165356
0
LINE
8
BLACK
6
CONTINUOUS
10
5.6200787401574805
20
-4.2838582677165356
11
5.6200787401574805
21
-4.2610236220472437
0
LINE
8
BLACK
6
CONTINUOUS
10
5.6200787401574805
20
-4.2610236220472437
11
5.6484251968503933
21
-4.2610236220472437
0
LINE
8
BLACK
6
CONTINUOUS
10
5.6484251968503933
20
-4.2610236220472437
11
5.6484251968503933
21
-4.2838582677165356
0
LINE
8
BLACK
6
CONTINUOUS
10
5.0893700787401572
20
-4.2503937007874013
11
5.0610236220472435
21
-4.2503937007874013
0
LINE
8
BLACK
6
CONTINUOUS
10
5.0610236220472435
20
-4.2503937007874013
11
5.0610236220472435
21
-4.2275590551181104
0
LINE
8
BLACK
6
CONTINUOUS
10
5.0610236220472435
20
-4.2275590551181104
11
5.0893700787401572
21
-4.2275590551181104
0
LINE
8
BLACK
6
CONTINUOUS
10
5.0893700787401572
20
-4.2275590551181104
11
5.0893700787401572
21
-4.2503937007874013
0
LINE
8
BLACK
6
CONTINUOUS
10
5.1287401574803146
20
-4.2503937007874013
11
5.1003937007874018
21
-4.2503937007874013
0
LINE
8
BLACK
6
CONTINUOUS
10
5.1003937007874018
20
-4.2503937007874013
11
5.1003937007874018
21
-4.2275590551181104
0
LINE
8
BLACK
6
CONTINUOUS
10
5.1003937007874018
20
-4.2275590551181104
11
5.1287401574803146
21
-4.2275590551181104
0
LINE
8
BLACK
6
CONTINUOUS
10
5.1287401574803146
20
-4.2275590551181104
11
5.1287401574803146
21
-4.2503937007874013
0
LINE
8
BLACK
6
CONTINUOUS
10
5.6090551181102359
20
-4.2503937007874013
11
5.5807086614173231
21
-4.2503937007874013
0
LINE
8
BLACK
6
CONTINUOUS
10
5.5807086614173231
20
-4.2503937007874013
11
5.5807086614173231
21
-4.2275590551181104
0
LINE
8
BLACK
6
CONTINUOUS
10
5.5807086614173231
20
-4.2275590551181104
11
5.6090551181102359
21
-4.2275590551181104
0
LINE
8
BLACK
6
CONTINUOUS
10
5.6090551181102359
20
-4.2275590551181104
11
5.6090551181102359
21
-4.2503937007874013
0
LINE
8
BLACK
6
CONTINUOUS
10
5.6484251968503933
20
-4.2503937007874013
11
5.6200787401574805
21
-4.2503937007874013
0
LINE
8
BLACK
6
CONTINUOUS
10
5.6200787401574805
20
-4.2503937007874013
11
5.6200787401574805
21
-4.2275590551181104
0
LINE
8
BLACK
6
CONTINUOUS
10
5.6200787401574805
20
-4.2275590551181104
11
5.6484251968503933
21
-4.2275590551181104
0
LINE
8
BLACK
6
CONTINUOUS
10
5.6484251968503933
20
-4.2275590551181104
11
5.6484251968503933
21
-4.2503937007874013
0
LINE
8
BLACK
6
CONTINUOUS
10
5.0893700787401572
20
-4.2090551181102365
11
5.0610236220472435
21
-4.2090551181102365
0
LINE
8
BLACK
6
CONTINUOUS
10
5.0610236220472435
20
-4.2090551181102365
11
5.0610236220472435
21
-4.1862204724409446
0
LINE
8
BLACK
6
CONTINUOUS
10
5.0610236220472435
20
-4.1862204724409446
11
5.0893700787401572
21
-4.1862204724409446
0
LINE
8
BLACK
6
CONTINUOUS
10
5.0893700787401572
20
-4.1862204724409446
11
5.0893700787401572
21
-4.2090551181102365
0
LINE
8
BLACK
6
CONTINUOUS
10
5.1287401574803146
20
-4.2090551181102365
11
5.1003937007874018
21
-4.2090551181102365
0
LINE
8
BLACK
6
CONTINUOUS
10
5.1003937007874018
20
-4.2090551181102365
11
5.1003937007874018
21
-4.1862204724409446
0
LINE
8
BLACK
6
CONTINUOUS
10
5.1003937007874018
20
-4.1862204724409446
11
5.1287401574803146
21
-4.1862204724409446
0
LINE
8
BLACK
6
CONTINUOUS
10
5.1287401574803146
20
-4.1862204724409446
11
5.1287401574803146
21
-4.2090551181102365
0
LINE
8
BLACK
6
CONTINUOUS
10
5.6090551181102359
20
-4.2090551181102365
11
5.5807086614173231
21
-4.2090551181102365
0
LINE
8
BLACK
6
CONTINUOUS
10
5.5807086614173231
20
-4.2090551181102365
11
5.5807086614173231
21
-4.1862204724409446
0
LINE
8
BLACK
6
CONTINUOUS
10
5.5807086614173231
20
-4.1862204724409446
11
5.6090551181102359
21
-4.1862204724409446
0
LINE
8
BLACK
6
CONTINUOUS
10
5.6090551181102359
20
-4.1862204724409446
11
5.6090551181102359
21
-4.2090551181102365
0
LINE
8
BLACK
6
CONTINUOUS
10
5.6484251968503933
20
-4.2090551181102365
11
5.6200787401574805
21
-4.2090551181102365
0
LINE
8
BLACK
6
CONTINUOUS
10
5.6200787401574805
20
-4.2090551181102365
11
5.6200787401574805
21
-4.1862204724409446
0
LINE
8
BLACK
6
CONTINUOUS
10
5.6200787401574805
20
-4.1862204724409446
11
5.6484251968503933
21
-4.1862204724409446
0
LINE
8
BLACK
6
CONTINUOUS
10
5.6484251968503933
20
-4.1862204724409446
11
5.6484251968503933
21
-4.2090551181102365
0
LINE
8
BLACK
6
CONTINUOUS
10
5.0893700787401572
20
-4.1755905511811022
11
5.0610236220472435
21
-4.1755905511811022
0
LINE
8
BLACK
6
CONTINUOUS
10
5.0610236220472435
20
-4.1755905511811022
11
5.0610236220472435
21
-4.1527559055118113
0
LINE
8
BLACK
6
CONTINUOUS
10
5.0610236220472435
20
-4.1527559055118113
11
5.0893700787401572
21
-4.1527559055118113
0
LINE
8
BLACK
6
CONTINUOUS
10
5.0893700787401572
20
-4.1527559055118113
11
5.0893700787401572
21
-4.1755905511811022
0
LINE
8
BLACK
6
CONTINUOUS
10
5.1287401574803146
20
-4.1755905511811022
11
5.1003937007874018
21
-4.1755905511811022
0
LINE
8
BLACK
6
CONTINUOUS
10
5.1003937007874018
20
-4.1755905511811022
11
5.1003937007874018
21
-4.1527559055118113
0
LINE
8
BLACK
6
CONTINUOUS
10
5.1003937007874018
20
-4.1527559055118113
11
5.1287401574803146
21
-4.1527559055118113
0
LINE
8
BLACK
6
CONTINUOUS
10
5.1287401574803146
20
-4.1527559055118113
11
5.1287401574803146
21
-4.1755905511811022
0
LINE
8
BLACK
6
CONTINUOUS
10
5.6090551181102359
20
-4.1755905511811022
11
5.5807086614173231
21
-4.1755905511811022
0
LINE
8
BLACK
6
CONTINUOUS
10
5.5807086614173231
20
-4.1755905511811022
11
5.5807086614173231
21
-4.1527559055118113
0
LINE
8
BLACK
6
CONTINUOUS
10
5.5807086614173231
20
-4.1527559055118113
11
5.6090551181102359
21
-4.1527559055118113
0
LINE
8
BLACK
6
CONTINUOUS
10
5.6090551181102359
20
-4.1527559055118113
11
5.6090551181102359
21
-4.1755905511811022
0
LINE
8
BLACK
6
CONTINUOUS
10
5.6484251968503933
20
-4.1755905511811022
11
5.6200787401574805
21
-4.1755905511811022
0
LINE
8
BLACK
6
CONTINUOUS
10
5.6200787401574805
20
-4.1755905511811022
11
5.6200787401574805
21
-4.1527559055118113
0
LINE
8
BLACK
6
CONTINUOUS
10
5.6200787401574805
20
-4.1527559055118113
11
5.6484251968503933
21
-4.1527559055118113
0
LINE
8
BLACK
6
CONTINUOUS
10
5.6484251968503933
20
-4.1527559055118113
11
5.6484251968503933
21
-4.1755905511811022
0
LINE
8
BLACK
6
CONTINUOUS
10
5.1998031496062991
20
-4.1045275590551178
11
5.1769685039370081
21
-4.1045275590551178
0
LINE
8
BLACK
6
CONTINUOUS
10
5.1769685039370081
20
-4.1045275590551178
11
5.1769685039370081
21
-4.076181102362205
0
LINE
8
BLACK
6
CONTINUOUS
10
5.1769685039370081
20
-4.076181102362205
11
5.1998031496062991
21
-4.076181102362205
0
LINE
8
BLACK
6
CONTINUOUS
10
5.1998031496062991
20
-4.076181102362205
11
5.1998031496062991
21
-4.1045275590551178
0
LINE
8
BLACK
6
CONTINUOUS
10
5.2332677165354333
20
-4.1045275590551178
11
5.2104330708661415
21
-4.1045275590551178
0
LINE
8
BLACK
6
CONTINUOUS
10
5.2104330708661415
20
-4.1045275590551178
11
5.2104330708661415
21
-4.076181102362205
0
LINE
8
BLACK
6
CONTINUOUS
10
5.2104330708661415
20
-4.076181102362205
11
5.2332677165354333
21
-4.076181102362205
0
LINE
8
BLACK
6
CONTINUOUS
10
5.2332677165354333
20
-4.076181102362205
11
5.2332677165354333
21
-4.1045275590551178
0
LINE
8
BLACK
6
CONTINUOUS
10
5.2746062992125982
20
-4.1045275590551178
11
5.2517716535433072
21
-4.1045275590551178
0
LINE
8
BLACK
6
CONTINUOUS
10
5.2517716535433072
20
-4.1045275590551178
11
5.2517716535433072
21
-4.076181102362205
0
LINE
8
BLACK
6
CONTINUOUS
10
5.2517716535433072
20
-4.076181102362205
11
5.2746062992125982
21
-4.076181102362205
0
LINE
8
BLACK
6
CONTINUOUS
10
5.2746062992125982
20
-4.076181102362205
11
5.2746062992125982
21
-4.1045275590551178
0
LINE
8
BLACK
6
CONTINUOUS
10
5.3080708661417324
20
-4.1045275590551178
11
5.2852362204724406
21
-4.1045275590551178
0
LINE
8
BLACK
6
CONTINUOUS
10
5.2852362204724406
20
-4.1045275590551178
11
5.2852362204724406
21
-4.076181102362205
0
LINE
8
BLACK
6
CONTINUOUS
10
5.2852362204724406
20
-4.076181102362205
11
5.3080708661417324
21
-4.076181102362205
0
LINE
8
BLACK
6
CONTINUOUS
10
5.3080708661417324
20
-4.076181102362205
11
5.3080708661417324
21
-4.1045275590551178
0
LINE
8
BLACK
6
CONTINUOUS
10
5.3494094488188972
20
-4.1045275590551178
11
5.3265748031496063
21
-4.1045275590551178
0
LINE
8
BLACK
6
CONTINUOUS
10
5.3265748031496063
20
-4.1045275590551178
11
5.3265748031496063
21
-4.076181102362205
0
LINE
8
BLACK
6
CONTINUOUS
10
5.3265748031496063
20
-4.076181102362205
11
5.3494094488188972
21
-4.076181102362205
0
LINE
8
BLACK
6
CONTINUOUS
10
5.3494094488188972
20
-4.076181102362205
11
5.3494094488188972
21
-4.1045275590551178
0
LINE
8
BLACK
6
CONTINUOUS
10
5.3828740157480315
20
-4.1045275590551178
11
5.3600393700787397
21
-4.1045275590551178
0
LINE
8
BLACK
6
CONTINUOUS
10
5.3600393700787397
20
-4.1045275590551178
11
5.3600393700787397
21
-4.076181102362205
0
LINE
8
BLACK
6
CONTINUOUS
10
5.3600393700787397
20
-4.076181102362205
11
5.3828740157480315
21
-4.076181102362205
0
LINE
8
BLACK
6
CONTINUOUS
10
5.3828740157480315
20
-4.076181102362205
11
5.3828740157480315
21
-4.1045275590551178
0
LINE
8
BLACK
6
CONTINUOUS
10
5.4242125984251963
20
-4.1045275590551178
11
5.4013779527559054
21
-4.1045275590551178
0
LINE
8
BLACK
6
CONTINUOUS
10
5.4013779527559054
20
-4.1045275590551178
11
5.4013779527559054
21
-4.076181102362205
0
LINE
8
BLACK
6
CONTINUOUS
10
5.4013779527559054
20
-4.076181102362205
11
5.4242125984251963
21
-4.076181102362205
0
LINE
8
BLACK
6
CONTINUOUS
10
5.4242125984251963
20
-4.076181102362205
11
5.4242125984251963
21
-4.1045275590551178
0
LINE
8
BLACK
6
CONTINUOUS
10
5.4576771653543306
20
-4.1045275590551178
11
5.4348425196850396
21
-4.1045275590551178
0
LINE
8
BLACK
6
CONTINUOUS
10
5.4348425196850396
20
-4.1045275590551178
11
5.4348425196850396
21
-4.076181102362205
0
LINE
8
BLACK
6
CONTINUOUS
10
5.4348425196850396
20
-4.076181102362205
11
5.4576771653543306
21
-4.076181102362205
0
LINE
8
BLACK
6
CONTINUOUS
10
5.4576771653543306
20
-4.076181102362205
11
5.4576771653543306
21
-4.1045275590551178
0
LINE
8
BLACK
6
CONTINUOUS
10
5.4990157480314963
20
-4.1045275590551178
11
5.4761811023622045
21
-4.1045275590551178
0
LINE
8
BLACK
6
CONTINUOUS
10
5.4761811023622045
20
-4.1045275590551178
11
5.4761811023622045
21
-4.076181102362205
0
LINE
8
BLACK
6
CONTINUOUS
10
5.4761811023622045
20
-4.076181102362205
11
5.4990157480314963
21
-4.076181102362205
0
LINE
8
BLACK
6
CONTINUOUS
10
5.4990157480314963
20
-4.076181102362205
11
5.4990157480314963
21
-4.1045275590551178
0
LINE
8
BLACK
6
CONTINUOUS
10
5.5324803149606296
20
-4.1045275590551178
11
5.5096456692913387
21
-4.1045275590551178
0
LINE
8
BLACK
6
CONTINUOUS
10
5.5096456692913387
20
-4.1045275590551178
11
5.5096456692913387
21
-4.076181102362205
0
LINE
8
BLACK
6
CONTINUOUS
10
5.5096456692913387
20
-4.076181102362205
11
5.5324803149606296
21
-4.076181102362205
0
LINE
8
BLACK
6
CONTINUOUS
10
5.5324803149606296
20
-4.076181102362205
11
5.5324803149606296
21
-4.1045275590551178
0
LINE
8
BLACK
6
CONTINUOUS
10
5.1998031496062991
20
-4.0651574803149604
11
5.1769685039370081
21
-4.0651574803149604
0
LINE
8
BLACK
6
CONTINUOUS
10
5.1769685039370081
20
-4.0651574803149604
11
5.1769685039370081
21
-4.0368110236220476
0
LINE
8
BLACK
6
CONTINUOUS
10
5.1769685039370081
20
-4.0368110236220476
11
5.1998031496062991
21
-4.0368110236220476
0
LINE
8
BLACK
6
CONTINUOUS
10
5.1998031496062991
20
-4.0368110236220476
11
5.1998031496062991
21
-4.0651574803149604
0
LINE
8
BLACK
6
CONTINUOUS
10
5.2332677165354333
20
-4.0651574803149604
11
5.2104330708661415
21
-4.0651574803149604
0
LINE
8
BLACK
6
CONTINUOUS
10
5.2104330708661415
20
-4.0651574803149604
11
5.2104330708661415
21
-4.0368110236220476
0
LINE
8
BLACK
6
CONTINUOUS
10
5.2104330708661415
20
-4.0368110236220476
11
5.2332677165354333
21
-4.0368110236220476
0
LINE
8
BLACK
6
CONTINUOUS
10
5.2332677165354333
20
-4.0368110236220476
11
5.2332677165354333
21
-4.0651574803149604
0
LINE
8
BLACK
6
CONTINUOUS
10
5.2746062992125982
20
-4.0651574803149604
11
5.2517716535433072
21
-4.0651574803149604
0
LINE
8
BLACK
6
CONTINUOUS
10
5.2517716535433072
20
-4.0651574803149604
11
5.2517716535433072
21
-4.0368110236220476
0
LINE
8
BLACK
6
CONTINUOUS
10
5.2517716535433072
20
-4.0368110236220476
11
5.2746062992125982
21
-4.0368110236220476
0
LINE
8
BLACK
6
CONTINUOUS
10
5.2746062992125982
20
-4.0368110236220476
11
5.2746062992125982
21
-4.0651574803149604
0
LINE
8
BLACK
6
CONTINUOUS
10
5.3080708661417324
20
-4.0651574803149604
11
5.2852362204724406
21
-4.0651574803149604
0
LINE
8
BLACK
6
CONTINUOUS
10
5.2852362204724406
20
-4.0651574803149604
11
5.2852362204724406
21
-4.0368110236220476
0
LINE
8
BLACK
6
CONTINUOUS
10
5.2852362204724406
20
-4.0368110236220476
11
5.3080708661417324
21
-4.0368110236220476
0
LINE
8
BLACK
6
CONTINUOUS
10
5.3080708661417324
20
-4.0368110236220476
11
5.3080708661417324
21
-4.0651574803149604
0
LINE
8
BLACK
6
CONTINUOUS
10
5.3494094488188972
20
-4.0651574803149604
11
5.3265748031496063
21
-4.0651574803149604
0
LINE
8
BLACK
6
CONTINUOUS
10
5.3265748031496063
20
-4.0651574803149604
11
5.3265748031496063
21
-4.0368110236220476
0
LINE
8
BLACK
6
CONTINUOUS
10
5.3265748031496063
20
-4.0368110236220476
11
5.3494094488188972
21
-4.0368110236220476
0
LINE
8
BLACK
6
CONTINUOUS
10
5.3494094488188972
20
-4.0368110236220476
11
5.3494094488188972
21
-4.0651574803149604
0
LINE
8
BLACK
6
CONTINUOUS
10
5.3828740157480315
20
-4.0651574803149604
11
5.3600393700787397
21
-4.0651574803149604
0
LINE
8
BLACK
6
CONTINUOUS
10
5.3600393700787397
20
-4.0651574803149604
11
5.3600393700787397
21
-4.0368110236220476
0
LINE
8
BLACK
6
CONTINUOUS
10
5.3600393700787397
20
-4.0368110236220476
11
5.3828740157480315
21
-4.0368110236220476
0
LINE
8
BLACK
6
CONTINUOUS
10
5.3828740157480315
20
-4.0368110236220476
11
5.3828740157480315
21
-4.0651574803149604
0
LINE
8
BLACK
6
CONTINUOUS
10
5.4242125984251963
20
-4.0651574803149604
11
5.4013779527559054
21
-4.0651574803149604
0
LINE
8
BLACK
6
CONTINUOUS
10
5.4013779527559054
20
-4.0651574803149604
11
5.4013779527559054
21
-4.0368110236220476
0
LINE
8
BLACK
6
CONTINUOUS
10
5.4013779527559054
20
-4.0368110236220476
11
5.4242125984251963
21
-4.0368110236220476
0
LINE
8
BLACK
6
CONTINUOUS
10
5.4242125984251963
20
-4.0368110236220476
11
5.4242125984251963
21
-4.0651574803149604
0
LINE
8
BLACK
6
CONTINUOUS
10
5.4576771653543306
20
-4.0651574803149604
11
5.4348425196850396
21
-4.0651574803149604
0
LINE
8
BLACK
6
CONTINUOUS
10
5.4348425196850396
20
-4.0651574803149604
11
5.4348425196850396
21
-4.0368110236220476
0
LINE
8
BLACK
6
CONTINUOUS
10
5.4348425196850396
20
-4.0368110236220476
11
5.4576771653543306
21
-4.0368110236220476
0
LINE
8
BLACK
6
CONTINUOUS
10
5.4576771653543306
20
-4.0368110236220476
11
5.4576771653543306
21
-4.0651574803149604
0
LINE
8
BLACK
6
CONTINUOUS
10
5.4990157480314963
20
-4.0651574803149604
11
5.4761811023622045
21
-4.0651574803149604
0
LINE
8
BLACK
6
CONTINUOUS
10
5.4761811023622045
20
-4.0651574803149604
11
5.4761811023622045
21
-4.0368110236220476
0
LINE
8
BLACK
6
CONTINUOUS
10
5.4761811023622045
20
-4.0368110236220476
11
5.4990157480314963
21
-4.0368110236220476
0
LINE
8
BLACK
6
CONTINUOUS
10
5.4990157480314963
20
-4.0368110236220476
11
5.4990157480314963
21
-4.0651574803149604
0
LINE
8
BLACK
6
CONTINUOUS
10
5.5324803149606296
20
-4.0651574803149604
11
5.5096456692913387
21
-4.0651574803149604
0
LINE
8
BLACK
6
CONTINUOUS
10
5.5096456692913387
20
-4.0651574803149604
11
5.5096456692913387
21
-4.0368110236220476
0
LINE
8
BLACK
6
CONTINUOUS
10
5.5096456692913387
20
-4.0368110236220476
11
5.5324803149606296
21
-4.0368110236220476
0
LINE
8
BLACK
6
CONTINUOUS
10
5.5324803149606296
20
-4.0368110236220476
11
5.5324803149606296
21
-4.0651574803149604
0
LINE
8
BLACK
6
CONTINUOUS
10
5.5811992913385824
20
-3.9248681496062989
11
5.5839933070866143
21
-3.9267350393700786
0
LINE
8
BLACK
6
CONTINUOUS
10
5.5839933070866143
20
-3.9267350393700786
11
5.5858601968503931
21
-3.9295290551181101
0
LINE
8
BLACK
6
CONTINUOUS
10
5.5858601968503931
20
-3.9295290551181101
11
5.5865157480314958
21
-3.932824803149606
0
LINE
8
BLACK
6
CONTINUOUS
10
5.5865157480314958
20
-3.932824803149606
11
5.5865157480314958
21
-3.953001968503937
0
LINE
8
BLACK
6
CONTINUOUS
10
5.5865157480314958
20
-3.953001968503937
11
5.5858601968503931
21
-3.9562977165354329
0
LINE
8
BLACK
6
CONTINUOUS
10
5.5858601968503931
20
-3.9562977165354329
11
5.5839933070866143
21
-3.9590917322834644
0
LINE
8
BLACK
6
CONTINUOUS
10
5.5839933070866143
20
-3.9590917322834644
11
5.5811992913385824
21
-3.9609586220472441
0
LINE
8
BLACK
6
CONTINUOUS
10
5.5811992913385824
20
-3.9609586220472441
11
5.5779035433070865
21
-3.9616141732283463
0
LINE
8
BLACK
6
CONTINUOUS
10
5.5779035433070865
20
-3.9616141732283463
11
5.560679133858268
21
-3.9616141732283463
0
LINE
8
BLACK
6
CONTINUOUS
10
5.560679133858268
20
-3.9616141732283463
11
5.5573833858267712
21
-3.9609586220472441
0
LINE
8
BLACK
6
CONTINUOUS
10
5.5573833858267712
20
-3.9609586220472441
11
5.5545893700787401
21
-3.9590917322834644
0
LINE
8
BLACK
6
CONTINUOUS
10
5.5545893700787401
20
-3.9590917322834644
11
5.5527224803149604
21
-3.9562977165354329
0
LINE
8
BLACK
6
CONTINUOUS
10
5.5527224803149604
20
-3.9562977165354329
11
5.5520669291338578
21
-3.953001968503937
0
LINE
8
BLACK
6
CONTINUOUS
10
5.5520669291338578
20
-3.953001968503937
11
5.5520669291338578
21
-3.932824803149606
0
LINE
8
BLACK
6
CONTINUOUS
10
5.5520669291338578
20
-3.932824803149606
11
5.5527224803149604
21
-3.9295290551181101
0
LINE
8
BLACK
6
CONTINUOUS
10
5.5527224803149604
20
-3.9295290551181101
11
5.5545893700787401
21
-3.9267350393700786
0
LINE
8
BLACK
6
CONTINUOUS
10
5.5545893700787401
20
-3.9267350393700786
11
5.5573833858267712
21
-3.9248681496062989
0
LINE
8
BLACK
6
CONTINUOUS
10
5.5573833858267712
20
-3.9248681496062989
11
5.560679133858268
21
-3.9242125984251968
0
LINE
8
BLACK
6
CONTINUOUS
10
5.560679133858268
20
-3.9242125984251968
11
5.5779035433070865
21
-3.9242125984251968
0
LINE
8
BLACK
6
CONTINUOUS
10
5.5779035433070865
20
-3.9242125984251968
11
5.5811992913385824
21
-3.9248681496062989
0
LINE
8
BLACK
6
CONTINUOUS
10
5.6432071653543305
20
-3.9248681496062989
11
5.6460011811023625
21
-3.9267350393700786
0
LINE
8
BLACK
6
CONTINUOUS
10
5.6460011811023625
20
-3.9267350393700786
11
5.6478680708661413
21
-3.9295290551181101
0
LINE
8
BLACK
6
CONTINUOUS
10
5.6478680708661413
20
-3.9295290551181101
11
5.6485236220472439
21
-3.932824803149606
0
LINE
8
BLACK
6
CONTINUOUS
10
5.6485236220472439
20
-3.932824803149606
11
5.6485236220472439
21
-3.953001968503937
0
LINE
8
BLACK
6
CONTINUOUS
10
5.6485236220472439
20
-3.953001968503937
11
5.6478680708661413
21
-3.9562977165354329
0
LINE
8
BLACK
6
CONTINUOUS
10
5.6478680708661413
20
-3.9562977165354329
11
5.6460011811023625
21
-3.9590917322834644
0
LINE
8
BLACK
6
CONTINUOUS
10
5.6460011811023625
20
-3.9590917322834644
11
5.6432071653543305
21
-3.9609586220472441
0
LINE
8
BLACK
6
CONTINUOUS
10
5.6432071653543305
20
-3.9609586220472441
11
5.6399114173228346
21
-3.9616141732283463
0
LINE
8
BLACK
6
CONTINUOUS
10
5.6399114173228346
20
-3.9616141732283463
11
5.6226870078740152
21
-3.9616141732283463
0
LINE
8
BLACK
6
CONTINUOUS
10
5.6226870078740152
20
-3.9616141732283463
11
5.6193912598425193
21
-3.9609586220472441
0
LINE
8
BLACK
6
CONTINUOUS
10
5.6193912598425193
20
-3.9609586220472441
11
5.6165972440944882
21
-3.9590917322834644
0
LINE
8
BLACK
6
CONTINUOUS
10
5.6165972440944882
20
-3.9590917322834644
11
5.6147303543307086
21
-3.9562977165354329
0
LINE
8
BLACK
6
CONTINUOUS
10
5.6147303543307086
20
-3.9562977165354329
11
5.6140748031496059
21
-3.953001968503937
0
LINE
8
BLACK
6
CONTINUOUS
10
5.6140748031496059
20
-3.953001968503937
11
5.6140748031496059
21
-3.932824803149606
0
LINE
8
BLACK
6
CONTINUOUS
10
5.6140748031496059
20
-3.932824803149606
11
5.6147303543307086
21
-3.9295290551181101
0
LINE
8
BLACK
6
CONTINUOUS
10
5.6147303543307086
20
-3.9295290551181101
11
5.6165972440944882
21
-3.9267350393700786
0
LINE
8
BLACK
6
CONTINUOUS
10
5.6165972440944882
20
-3.9267350393700786
11
5.6193912598425193
21
-3.9248681496062989
0
LINE
8
BLACK
6
CONTINUOUS
10
5.6193912598425193
20
-3.9248681496062989
11
5.6226870078740152
21
-3.9242125984251968
0
LINE
8
BLACK
6
CONTINUOUS
10
5.6226870078740152
20
-3.9242125984251968
11
5.6399114173228346
21
-3.9242125984251968
0
LINE
8
BLACK
6
CONTINUOUS
10
5.6399114173228346
20
-3.9242125984251968
11
5.6432071653543305
21
-3.9248681496062989
0
LINE
8
BLACK
6
CONTINUOUS
10
5.089270157480315
20
-3.9236870472440946
11
5.092064173228346
21
-3.9255539370078738
0
LINE
8
BLACK
6
CONTINUOUS
10
5.092064173228346
20
-3.9255539370078738
11
5.0939310629921257
21
-3.9283479527559053
0
LINE
8
BLACK
6
CONTINUOUS
10
5.0939310629921257
20
-3.9283479527559053
11
5.0945866141732283
21
-3.9316437007874017
0
LINE
8
BLACK
6
CONTINUOUS
10
5.0945866141732283
20
-3.9316437007874017
11
5.0945866141732283
21
-3.9518208661417322
0
LINE
8
BLACK
6
CONTINUOUS
10
5.0945866141732283
20
-3.9518208661417322
11
5.0939310629921257
21
-3.9551166141732281
0
LINE
8
BLACK
6
CONTINUOUS
10
5.0939310629921257
20
-3.9551166141732281
11
5.092064173228346
21
-3.9579106299212596
0
LINE
8
BLACK
6
CONTINUOUS
10
5.092064173228346
20
-3.9579106299212596
11
5.089270157480315
21
-3.9597775196850393
0
LINE
8
BLACK
6
CONTINUOUS
10
5.089270157480315
20
-3.9597775196850393
11
5.0859744094488191
21
-3.9604330708661415
0
LINE
8
BLACK
6
CONTINUOUS
10
5.0859744094488191
20
-3.9604330708661415
11
5.0687499999999996
21
-3.9604330708661415
0
LINE
8
BLACK
6
CONTINUOUS
10
5.0687499999999996
20
-3.9604330708661415
11
5.0654542519685037
21
-3.9597775196850393
0
LINE
8
BLACK
6
CONTINUOUS
10
5.0654542519685037
20
-3.9597775196850393
11
5.0626602362204727
21
-3.9579106299212596
0
LINE
8
BLACK
6
CONTINUOUS
10
5.0626602362204727
20
-3.9579106299212596
11
5.060793346456693
21
-3.9551166141732281
0
LINE
8
BLACK
6
CONTINUOUS
10
5.060793346456693
20
-3.9551166141732281
11
5.0601377952755904
21
-3.9518208661417322
0
LINE
8
BLACK
6
CONTINUOUS
10
5.0601377952755904
20
-3.9518208661417322
11
5.0601377952755904
21
-3.9316437007874017
0
LINE
8
BLACK
6
CONTINUOUS
10
5.0601377952755904
20
-3.9316437007874017
11
5.060793346456693
21
-3.9283479527559053
0
LINE
8
BLACK
6
CONTINUOUS
10
5.060793346456693
20
-3.9283479527559053
11
5.0626602362204727
21
-3.9255539370078738
0
LINE
8
BLACK
6
CONTINUOUS
10
5.0626602362204727
20
-3.9255539370078738
11
5.0654542519685037
21
-3.9236870472440946
0
LINE
8
BLACK
6
CONTINUOUS
10
5.0654542519685037
20
-3.9236870472440946
11
5.0687499999999996
21
-3.923031496062992
0
LINE
8
BLACK
6
CONTINUOUS
10
5.0687499999999996
20
-3.923031496062992
11
5.0859744094488191
21
-3.923031496062992
0
LINE
8
BLACK
6
CONTINUOUS
10
5.0859744094488191
20
-3.923031496062992
11
5.089270157480315
21
-3.9236870472440946
0
LINE
8
BLACK
6
CONTINUOUS
10
5.1512780314960631
20
-3.9236870472440946
11
5.1540720472440942
21
-3.9255539370078738
0
LINE
8
BLACK
6
CONTINUOUS
10
5.1540720472440942
20
-3.9255539370078738
11
5.1559389370078739
21
-3.9283479527559053
0
LINE
8
BLACK
6
CONTINUOUS
10
5.1559389370078739
20
-3.9283479527559053
11
5.1565944881889765
21
-3.9316437007874017
0
LINE
8
BLACK
6
CONTINUOUS
10
5.1565944881889765
20
-3.9316437007874017
11
5.1565944881889765
21
-3.9518208661417322
0
LINE
8
BLACK
6
CONTINUOUS
10
5.1565944881889765
20
-3.9518208661417322
11
5.1559389370078739
21
-3.9551166141732281
0
LINE
8
BLACK
6
CONTINUOUS
10
5.1559389370078739
20
-3.9551166141732281
11
5.1540720472440942
21
-3.9579106299212596
0
LINE
8
BLACK
6
CONTINUOUS
10
5.1540720472440942
20
-3.9579106299212596
11
5.1512780314960631
21
-3.9597775196850393
0
LINE
8
BLACK
6
CONTINUOUS
10
5.1512780314960631
20
-3.9597775196850393
11
5.1479822834645672
21
-3.9604330708661415
0
LINE
8
BLACK
6
CONTINUOUS
10
5.1479822834645672
20
-3.9604330708661415
11
5.1307578740157478
21
-3.9604330708661415
0
LINE
8
BLACK
6
CONTINUOUS
10
5.1307578740157478
20
-3.9604330708661415
11
5.1274621259842519
21
-3.9597775196850393
0
LINE
8
BLACK
6
CONTINUOUS
10
5.1274621259842519
20
-3.9597775196850393
11
5.1246681102362199
21
-3.9579106299212596
0
LINE
8
BLACK
6
CONTINUOUS
10
5.1246681102362199
20
-3.9579106299212596
11
5.1228012204724411
21
-3.9551166141732281
0
LINE
8
BLACK
6
CONTINUOUS
10
5.1228012204724411
20
-3.9551166141732281
11
5.1221456692913385
21
-3.9518208661417322
0
LINE
8
BLACK
6
CONTINUOUS
10
5.1221456692913385
20
-3.9518208661417322
11
5.1221456692913385
21
-3.9316437007874017
0
LINE
8
BLACK
6
CONTINUOUS
10
5.1221456692913385
20
-3.9316437007874017
11
5.1228012204724411
21
-3.9283479527559053
0
LINE
8
BLACK
6
CONTINUOUS
10
5.1228012204724411
20
-3.9283479527559053
11
5.1246681102362199
21
-3.9255539370078738
0
LINE
8
BLACK
6
CONTINUOUS
10
5.1246681102362199
20
-3.9255539370078738
11
5.1274621259842519
21
-3.9236870472440946
0
LINE
8
BLACK
6
CONTINUOUS
10
5.1274621259842519
20
-3.9236870472440946
11
5.1307578740157478
21
-3.923031496062992
0
LINE
8
BLACK
6
CONTINUOUS
10
5.1307578740157478
20
-3.923031496062992
11
5.1479822834645672
21
-3.923031496062992
0
LINE
8
BLACK
6
CONTINUOUS
10
5.1479822834645672
20
-3.923031496062992
11
5.1512780314960631
21
-3.9236870472440946
  0
ENDSEC
  0
EOF
