  0
SECTION
  2
HEADER
  9
$ANGBASE
  50
0.0
  9
$ANGDIR
  70
1
  9
$MEASUREMENT
  70
0
  0
ENDSEC
  0
SECTION
  2
TABLES
  0
TABLE
  2
LTYPE
  70
4
  0
LTYPE
  5
40F
  2
CONTINUOUS
  70
0
  3
Solid line
  72
65
  73
0
  40
0.0
  0
LTYPE
  5
410
  2
DASHDOT
 70
0
  3
Dash Dot ____ _ ____ _
 72
65
 73
4
 40
2.0
 49
1.25
 49
-0.25
 49
0.25
 49
-0.25
  0
LTYPE
  5
411
  2
DASHED
 70
0
  3
Dashed __ __ __ __ __
 72
65
 73
2
 40
0.75
 49
0.5
 49
-0.25
  0
LTYPE
  5
43B
  2
DOTTED
 70
0
  3
Dotted .  .  .  .
 72
65
 73
2
 40
0.2
 49
0.0
 49
-0.2
  0
ENDTAB
  0
TABLE
  2
STYLE
  70
4
  0
STYLE
  2
KICAD
  70
0
  40
0
  41
1
  42
1
  50
0
  71
0
  3
isocp.shx
  0
STYLE
  2
KICADB
  70
0
  40
0
  41
1
  42
1
  50
0
  71
0
  3
isocp.shx
  0
STYLE
  2
KICADI
  70
0
  40
0
  41
1
  42
1
  50
15
  71
0
  3
isocp.shx
  0
STYLE
  2
KICADBI
  70
0
  40
0
  41
1
  42
1
  50
15
  71
0
  3
isocp.shx
  0
ENDTAB
  0
TABLE
  2
LAYER
  70
1
  0
LAYER
  2
BLACK
  70
0
  62
7
  6
CONTINUOUS
  0
ENDTAB
  0
ENDSEC
  0
SECTION
  2
ENTITIES
0
LINE
8
BLACK
6
CONTINUOUS
10
5.7401404330708656
20
-4.6809804330708662
11
5.7406731102362203
21
-4.68151311023622
0
LINE
8
BLACK
6
CONTINUOUS
10
5.7406731102362203
20
-4.68151311023622
11
5.7407480314960626
21
-4.6818897637795276
0
LINE
8
BLACK
6
CONTINUOUS
10
5.7407480314960626
20
-4.6818897637795276
11
5.7407480314960626
21
-4.933858267716535
0
LINE
8
BLACK
6
CONTINUOUS
10
5.7407480314960626
20
-4.933858267716535
11
5.7406731102362203
21
-4.9342349212598426
0
LINE
8
BLACK
6
CONTINUOUS
10
5.7406731102362203
20
-4.9342349212598426
11
5.7401404330708656
21
-4.9347675984251964
0
LINE
8
BLACK
6
CONTINUOUS
10
5.7401404330708656
20
-4.9347675984251964
11
5.7397637795275589
21
-4.9348425196850396
0
LINE
8
BLACK
6
CONTINUOUS
10
5.7397637795275589
20
-4.9348425196850396
11
5.3681102362204722
21
-4.9348425196850396
0
LINE
8
BLACK
6
CONTINUOUS
10
5.3681102362204722
20
-4.9348425196850396
11
5.3677335826771655
21
-4.9347675984251964
0
LINE
8
BLACK
6
CONTINUOUS
10
5.3677335826771655
20
-4.9347675984251964
11
5.3672009055118108
21
-4.9342349212598426
0
LINE
8
BLACK
6
CONTINUOUS
10
5.3672009055118108
20
-4.9342349212598426
11
5.3671259842519685
21
-4.933858267716535
0
LINE
8
BLACK
6
CONTINUOUS
10
5.3671259842519685
20
-4.933858267716535
11
5.3671259842519685
21
-4.6818897637795276
0
LINE
8
BLACK
6
CONTINUOUS
10
5.3671259842519685
20
-4.6818897637795276
11
5.3672009055118108
21
-4.68151311023622
0
LINE
8
BLACK
6
CONTINUOUS
10
5.3672009055118108
20
-4.68151311023622
11
5.3677335826771655
21
-4.6809804330708662
0
LINE
8
BLACK
6
CONTINUOUS
10
5.3677335826771655
20
-4.6809804330708662
11
5.3681102362204722
21
-4.6809055118110239
0
LINE
8
BLACK
6
CONTINUOUS
10
5.3681102362204722
20
-4.6809055118110239
11
5.7397637795275589
21
-4.6809055118110239
0
LINE
8
BLACK
6
CONTINUOUS
10
5.7397637795275589
20
-4.6809055118110239
11
5.7401404330708656
21
-4.6809804330708662
0
LINE
8
BLACK
6
CONTINUOUS
10
5.3690944881889759
20
-4.6828740157480313
11
5.3690944881889759
21
-4.9328740157480313
0
LINE
8
BLACK
6
CONTINUOUS
10
5.3690944881889759
20
-4.9328740157480313
11
5.7387795275590552
21
-4.9328740157480313
0
LINE
8
BLACK
6
CONTINUOUS
10
5.7387795275590552
20
-4.9328740157480313
11
5.7387795275590552
21
-4.6828740157480313
0
LINE
8
BLACK
6
CONTINUOUS
10
5.7387795275590552
20
-4.6828740157480313
11
5.3690944881889759
21
-4.6828740157480313
0
LINE
8
BLACK
6
CONTINUOUS
10
5.3200616929133853
20
-4.6794056299212601
11
5.3205943700787399
21
-4.6799383070866138
0
LINE
8
BLACK
6
CONTINUOUS
10
5.3205943700787399
20
-4.6799383070866138
11
5.3206692913385822
21
-4.6803149606299215
0
LINE
8
BLACK
6
CONTINUOUS
10
5.3206692913385822
20
-4.6803149606299215
11
5.3206692913385822
21
-4.9322834645669289
0
LINE
8
BLACK
6
CONTINUOUS
10
5.3206692913385822
20
-4.9322834645669289
11
5.3205943700787399
21
-4.9326601181102365
0
LINE
8
BLACK
6
CONTINUOUS
10
5.3205943700787399
20
-4.9326601181102365
11
5.3200616929133853
21
-4.9331927952755903
0
LINE
8
BLACK
6
CONTINUOUS
10
5.3200616929133853
20
-4.9331927952755903
11
5.3196850393700785
21
-4.9332677165354326
0
LINE
8
BLACK
6
CONTINUOUS
10
5.3196850393700785
20
-4.9332677165354326
11
4.8488188976377948
21
-4.9332677165354326
0
LINE
8
BLACK
6
CONTINUOUS
10
4.8488188976377948
20
-4.9332677165354326
11
4.8484422440944881
21
-4.9331927952755903
0
LINE
8
BLACK
6
CONTINUOUS
10
4.8484422440944881
20
-4.9331927952755903
11
4.8479095669291334
21
-4.9326601181102365
0
LINE
8
BLACK
6
CONTINUOUS
10
4.8479095669291334
20
-4.9326601181102365
11
4.8478346456692911
21
-4.9322834645669289
0
LINE
8
BLACK
6
CONTINUOUS
10
4.8478346456692911
20
-4.9322834645669289
11
4.8478346456692911
21
-4.6803149606299215
0
LINE
8
BLACK
6
CONTINUOUS
10
4.8478346456692911
20
-4.6803149606299215
11
4.8479095669291334
21
-4.6799383070866138
0
LINE
8
BLACK
6
CONTINUOUS
10
4.8479095669291334
20
-4.6799383070866138
11
4.8484422440944881
21
-4.6794056299212601
0
LINE
8
BLACK
6
CONTINUOUS
10
4.8484422440944881
20
-4.6794056299212601
11
4.8488188976377948
21
-4.6793307086614169
0
LINE
8
BLACK
6
CONTINUOUS
10
4.8488188976377948
20
-4.6793307086614169
11
5.3196850393700785
21
-4.6793307086614169
0
LINE
8
BLACK
6
CONTINUOUS
10
5.3196850393700785
20
-4.6793307086614169
11
5.3200616929133853
21
-4.6794056299212601
0
LINE
8
BLACK
6
CONTINUOUS
10
4.8498031496062994
20
-4.6812992125984252
11
4.8498031496062994
21
-4.9312992125984252
0
LINE
8
BLACK
6
CONTINUOUS
10
4.8498031496062994
20
-4.9312992125984252
11
5.3187007874015748
21
-4.9312992125984252
0
LINE
8
BLACK
6
CONTINUOUS
10
5.3187007874015748
20
-4.9312992125984252
11
5.3187007874015748
21
-4.6812992125984252
0
LINE
8
BLACK
6
CONTINUOUS
10
5.3187007874015748
20
-4.6812992125984252
11
4.8498031496062994
21
-4.6812992125984252
0
LINE
8
BLACK
6
CONTINUOUS
10
5.847719173228346
20
-4.5851142913385825
11
5.8482518503937007
21
-4.5856469685039372
0
LINE
8
BLACK
6
CONTINUOUS
10
5.8482518503937007
20
-4.5856469685039372
11
5.848326771653543
21
-4.5860236220472439
0
LINE
8
BLACK
6
CONTINUOUS
10
5.848326771653543
20
-4.5860236220472439
11
5.848326771653543
21
-4.6631889763779526
0
LINE
8
BLACK
6
CONTINUOUS
10
5.848326771653543
20
-4.6631889763779526
11
5.8482518503937007
21
-4.6635656299212593
0
LINE
8
BLACK
6
CONTINUOUS
10
5.8482518503937007
20
-4.6635656299212593
11
5.847719173228346
21
-4.664098307086614
0
LINE
8
BLACK
6
CONTINUOUS
10
5.847719173228346
20
-4.664098307086614
11
5.8473425196850393
21
-4.6641732283464563
0
LINE
8
BLACK
6
CONTINUOUS
10
5.8473425196850393
20
-4.6641732283464563
11
5.7134842519685041
21
-4.6641732283464563
0
LINE
8
BLACK
6
CONTINUOUS
10
5.7134842519685041
20
-4.6641732283464563
11
5.7131075984251964
21
-4.664098307086614
0
LINE
8
BLACK
6
CONTINUOUS
10
5.7131075984251964
20
-4.664098307086614
11
5.7125749212598427
21
-4.6635656299212593
0
LINE
8
BLACK
6
CONTINUOUS
10
5.7125749212598427
20
-4.6635656299212593
11
5.7124999999999995
21
-4.6631889763779526
0
LINE
8
BLACK
6
CONTINUOUS
10
5.7124999999999995
20
-4.6631889763779526
11
5.7124999999999995
21
-4.5860236220472439
0
LINE
8
BLACK
6
CONTINUOUS
10
5.7124999999999995
20
-4.5860236220472439
11
5.7125749212598427
21
-4.5856469685039372
0
LINE
8
BLACK
6
CONTINUOUS
10
5.7125749212598427
20
-4.5856469685039372
11
5.7131075984251964
21
-4.5851142913385825
0
LINE
8
BLACK
6
CONTINUOUS
10
5.7131075984251964
20
-4.5851142913385825
11
5.7134842519685041
21
-4.5850393700787402
0
LINE
8
BLACK
6
CONTINUOUS
10
5.7134842519685041
20
-4.5850393700787402
11
5.8473425196850393
21
-4.5850393700787402
0
LINE
8
BLACK
6
CONTINUOUS
10
5.8473425196850393
20
-4.5850393700787402
11
5.847719173228346
21
-4.5851142913385825
0
LINE
8
BLACK
6
CONTINUOUS
10
5.7144685039370078
20
-4.5870078740157476
11
5.7144685039370078
21
-4.6622047244094489
0
LINE
8
BLACK
6
CONTINUOUS
10
5.7144685039370078
20
-4.6622047244094489
11
5.8463582677165356
21
-4.6622047244094489
0
LINE
8
BLACK
6
CONTINUOUS
10
5.8463582677165356
20
-4.6622047244094489
11
5.8463582677165356
21
-4.5870078740157476
0
LINE
8
BLACK
6
CONTINUOUS
10
5.8463582677165356
20
-4.5870078740157476
11
5.7144685039370078
21
-4.5870078740157476
0
LINE
8
BLACK
6
CONTINUOUS
10
5.038171929133858
20
-4.562870196850394
11
5.0387046062992127
21
-4.5634028740157477
0
LINE
8
BLACK
6
CONTINUOUS
10
5.0387046062992127
20
-4.5634028740157477
11
5.038779527559055
21
-4.5637795275590554
0
LINE
8
BLACK
6
CONTINUOUS
10
5.038779527559055
20
-4.5637795275590554
11
5.038779527559055
21
-4.6385826771653544
0
LINE
8
BLACK
6
CONTINUOUS
10
5.038779527559055
20
-4.6385826771653544
11
5.0387046062992127
21
-4.6389593307086612
0
LINE
8
BLACK
6
CONTINUOUS
10
5.0387046062992127
20
-4.6389593307086612
11
5.038171929133858
21
-4.6394920078740158
0
LINE
8
BLACK
6
CONTINUOUS
10
5.038171929133858
20
-4.6394920078740158
11
5.0377952755905513
21
-4.6395669291338582
0
LINE
8
BLACK
6
CONTINUOUS
10
5.0377952755905513
20
-4.6395669291338582
11
4.9055118110236222
21
-4.6395669291338582
0
LINE
8
BLACK
6
CONTINUOUS
10
4.9055118110236222
20
-4.6395669291338582
11
4.9051351574803146
21
-4.6394920078740158
0
LINE
8
BLACK
6
CONTINUOUS
10
4.9051351574803146
20
-4.6394920078740158
11
4.9046024803149608
21
-4.6389593307086612
0
LINE
8
BLACK
6
CONTINUOUS
10
4.9046024803149608
20
-4.6389593307086612
11
4.9045275590551176
21
-4.6385826771653544
0
LINE
8
BLACK
6
CONTINUOUS
10
4.9045275590551176
20
-4.6385826771653544
11
4.9045275590551176
21
-4.5637795275590554
0
LINE
8
BLACK
6
CONTINUOUS
10
4.9045275590551176
20
-4.5637795275590554
11
4.9046024803149608
21
-4.5634028740157477
0
LINE
8
BLACK
6
CONTINUOUS
10
4.9046024803149608
20
-4.5634028740157477
11
4.9051351574803146
21
-4.562870196850394
0
LINE
8
BLACK
6
CONTINUOUS
10
4.9051351574803146
20
-4.562870196850394
11
4.9055118110236222
21
-4.5627952755905508
0
LINE
8
BLACK
6
CONTINUOUS
10
4.9055118110236222
20
-4.5627952755905508
11
5.0377952755905513
21
-4.5627952755905508
0
LINE
8
BLACK
6
CONTINUOUS
10
5.0377952755905513
20
-4.5627952755905508
11
5.038171929133858
21
-4.562870196850394
0
LINE
8
BLACK
6
CONTINUOUS
10
4.9064960629921259
20
-4.5647637795275591
11
4.9064960629921259
21
-4.6375984251968507
0
LINE
8
BLACK
6
CONTINUOUS
10
4.9064960629921259
20
-4.6375984251968507
11
5.0368110236220467
21
-4.6375984251968507
0
LINE
8
BLACK
6
CONTINUOUS
10
5.0368110236220467
20
-4.6375984251968507
11
5.0368110236220467
21
-4.5647637795275591
0
LINE
8
BLACK
6
CONTINUOUS
10
5.0368110236220467
20
-4.5647637795275591
11
4.9064960629921259
21
-4.5647637795275591
0
LINE
8
BLACK
6
CONTINUOUS
10
5.3043136614173223
20
-4.4986969685039373
11
5.304846338582677
21
-4.4992296456692911
0
LINE
8
BLACK
6
CONTINUOUS
10
5.304846338582677
20
-4.4992296456692911
11
5.3049212598425193
21
-4.4996062992125987
0
LINE
8
BLACK
6
CONTINUOUS
10
5.3049212598425193
20
-4.4996062992125987
11
5.3049212598425193
21
-4.6334645669291339
0
LINE
8
BLACK
6
CONTINUOUS
10
5.3049212598425193
20
-4.6334645669291339
11
5.304846338582677
21
-4.6338412204724406
0
LINE
8
BLACK
6
CONTINUOUS
10
5.304846338582677
20
-4.6338412204724406
11
5.3043136614173223
21
-4.6343738976377953
0
LINE
8
BLACK
6
CONTINUOUS
10
5.3043136614173223
20
-4.6343738976377953
11
5.3039370078740156
21
-4.6344488188976376
0
LINE
8
BLACK
6
CONTINUOUS
10
5.3039370078740156
20
-4.6344488188976376
11
5.2267716535433069
21
-4.6344488188976376
0
LINE
8
BLACK
6
CONTINUOUS
10
5.2267716535433069
20
-4.6344488188976376
11
5.2263950000000001
21
-4.6343738976377953
0
LINE
8
BLACK
6
CONTINUOUS
10
5.2263950000000001
20
-4.6343738976377953
11
5.2258623228346455
21
-4.6338412204724406
0
LINE
8
BLACK
6
CONTINUOUS
10
5.2258623228346455
20
-4.6338412204724406
11
5.2257874015748031
21
-4.6334645669291339
0
LINE
8
BLACK
6
CONTINUOUS
10
5.2257874015748031
20
-4.6334645669291339
11
5.2257874015748031
21
-4.4996062992125987
0
LINE
8
BLACK
6
CONTINUOUS
10
5.2257874015748031
20
-4.4996062992125987
11
5.2258623228346455
21
-4.4992296456692911
0
LINE
8
BLACK
6
CONTINUOUS
10
5.2258623228346455
20
-4.4992296456692911
11
5.2263950000000001
21
-4.4986969685039373
0
LINE
8
BLACK
6
CONTINUOUS
10
5.2263950000000001
20
-4.4986969685039373
11
5.2267716535433069
21
-4.4986220472440941
0
LINE
8
BLACK
6
CONTINUOUS
10
5.2267716535433069
20
-4.4986220472440941
11
5.3039370078740156
21
-4.4986220472440941
0
LINE
8
BLACK
6
CONTINUOUS
10
5.3039370078740156
20
-4.4986220472440941
11
5.3043136614173223
21
-4.4986969685039373
0
LINE
8
BLACK
6
CONTINUOUS
10
5.2277559055118106
20
-4.5005905511811024
11
5.2277559055118106
21
-4.6324803149606302
0
LINE
8
BLACK
6
CONTINUOUS
10
5.2277559055118106
20
-4.6324803149606302
11
5.3029527559055119
21
-4.6324803149606302
0
LINE
8
BLACK
6
CONTINUOUS
10
5.3029527559055119
20
-4.6324803149606302
11
5.3029527559055119
21
-4.5005905511811024
0
LINE
8
BLACK
6
CONTINUOUS
10
5.3029527559055119
20
-4.5005905511811024
11
5.2277559055118106
21
-4.5005905511811024
0
LINE
8
BLACK
6
CONTINUOUS
10
5.1405341338582673
20
-4.4990906692913386
11
5.141066811023622
21
-4.4996233464566924
0
LINE
8
BLACK
6
CONTINUOUS
10
5.141066811023622
20
-4.4996233464566924
11
5.1411417322834643
21
-4.5
0
LINE
8
BLACK
6
CONTINUOUS
10
5.1411417322834643
20
-4.5
11
5.1411417322834643
21
-4.6322834645669291
0
LINE
8
BLACK
6
CONTINUOUS
10
5.1411417322834643
20
-4.6322834645669291
11
5.141066811023622
21
-4.6326601181102358
0
LINE
8
BLACK
6
CONTINUOUS
10
5.141066811023622
20
-4.6326601181102358
11
5.1405341338582673
21
-4.6331927952755905
0
LINE
8
BLACK
6
CONTINUOUS
10
5.1405341338582673
20
-4.6331927952755905
11
5.1401574803149606
21
-4.6332677165354328
0
LINE
8
BLACK
6
CONTINUOUS
10
5.1401574803149606
20
-4.6332677165354328
11
5.0653543307086615
21
-4.6332677165354328
0
LINE
8
BLACK
6
CONTINUOUS
10
5.0653543307086615
20
-4.6332677165354328
11
5.0649776771653539
21
-4.6331927952755905
0
LINE
8
BLACK
6
CONTINUOUS
10
5.0649776771653539
20
-4.6331927952755905
11
5.0644450000000001
21
-4.6326601181102358
0
LINE
8
BLACK
6
CONTINUOUS
10
5.0644450000000001
20
-4.6326601181102358
11
5.0643700787401578
21
-4.6322834645669291
0
LINE
8
BLACK
6
CONTINUOUS
10
5.0643700787401578
20
-4.6322834645669291
11
5.0643700787401578
21
-4.5
0
LINE
8
BLACK
6
CONTINUOUS
10
5.0643700787401578
20
-4.5
11
5.0644450000000001
21
-4.4996233464566924
0
LINE
8
BLACK
6
CONTINUOUS
10
5.0644450000000001
20
-4.4996233464566924
11
5.0649776771653539
21
-4.4990906692913386
0
LINE
8
BLACK
6
CONTINUOUS
10
5.0649776771653539
20
-4.4990906692913386
11
5.0653543307086615
21
-4.4990157480314963
0
LINE
8
BLACK
6
CONTINUOUS
10
5.0653543307086615
20
-4.4990157480314963
11
5.1401574803149606
21
-4.4990157480314963
0
LINE
8
BLACK
6
CONTINUOUS
10
5.1401574803149606
20
-4.4990157480314963
11
5.1405341338582673
21
-4.4990906692913386
0
LINE
8
BLACK
6
CONTINUOUS
10
5.0663385826771652
20
-4.5009842519685037
11
5.0663385826771652
21
-4.6312992125984254
0
LINE
8
BLACK
6
CONTINUOUS
10
5.0663385826771652
20
-4.6312992125984254
11
5.1391732283464568
21
-4.6312992125984254
0
LINE
8
BLACK
6
CONTINUOUS
10
5.1391732283464568
20
-4.6312992125984254
11
5.1391732283464568
21
-4.5009842519685037
0
LINE
8
BLACK
6
CONTINUOUS
10
5.1391732283464568
20
-4.5009842519685037
11
5.0663385826771652
21
-4.5009842519685037
0
LINE
8
BLACK
6
CONTINUOUS
10
5.2196679921259843
20
-4.4990906692913386
11
5.2202006692913381
21
-4.4996233464566924
0
LINE
8
BLACK
6
CONTINUOUS
10
5.2202006692913381
20
-4.4996233464566924
11
5.2202755905511813
21
-4.5
0
LINE
8
BLACK
6
CONTINUOUS
10
5.2202755905511813
20
-4.5
11
5.2202755905511813
21
-4.6322834645669291
0
LINE
8
BLACK
6
CONTINUOUS
10
5.2202755905511813
20
-4.6322834645669291
11
5.2202006692913381
21
-4.6326601181102358
0
LINE
8
BLACK
6
CONTINUOUS
10
5.2202006692913381
20
-4.6326601181102358
11
5.2196679921259843
21
-4.6331927952755905
0
LINE
8
BLACK
6
CONTINUOUS
10
5.2196679921259843
20
-4.6331927952755905
11
5.2192913385826767
21
-4.6332677165354328
0
LINE
8
BLACK
6
CONTINUOUS
10
5.2192913385826767
20
-4.6332677165354328
11
5.1444881889763776
21
-4.6332677165354328
0
LINE
8
BLACK
6
CONTINUOUS
10
5.1444881889763776
20
-4.6332677165354328
11
5.1441115354330709
21
-4.6331927952755905
0
LINE
8
BLACK
6
CONTINUOUS
10
5.1441115354330709
20
-4.6331927952755905
11
5.1435788582677162
21
-4.6326601181102358
0
LINE
8
BLACK
6
CONTINUOUS
10
5.1435788582677162
20
-4.6326601181102358
11
5.1435039370078739
21
-4.6322834645669291
0
LINE
8
BLACK
6
CONTINUOUS
10
5.1435039370078739
20
-4.6322834645669291
11
5.1435039370078739
21
-4.5
0
LINE
8
BLACK
6
CONTINUOUS
10
5.1435039370078739
20
-4.5
11
5.1435788582677162
21
-4.4996233464566924
0
LINE
8
BLACK
6
CONTINUOUS
10
5.1435788582677162
20
-4.4996233464566924
11
5.1441115354330709
21
-4.4990906692913386
0
LINE
8
BLACK
6
CONTINUOUS
10
5.1441115354330709
20
-4.4990906692913386
11
5.1444881889763776
21
-4.4990157480314963
0
LINE
8
BLACK
6
CONTINUOUS
10
5.1444881889763776
20
-4.4990157480314963
11
5.2192913385826767
21
-4.4990157480314963
0
LINE
8
BLACK
6
CONTINUOUS
10
5.2192913385826767
20
-4.4990157480314963
11
5.2196679921259843
21
-4.4990906692913386
0
LINE
8
BLACK
6
CONTINUOUS
10
5.1454724409448822
20
-4.5009842519685037
11
5.1454724409448822
21
-4.6312992125984254
0
LINE
8
BLACK
6
CONTINUOUS
10
5.1454724409448822
20
-4.6312992125984254
11
5.218307086614173
21
-4.6312992125984254
0
LINE
8
BLACK
6
CONTINUOUS
10
5.218307086614173
20
-4.6312992125984254
11
5.218307086614173
21
-4.5009842519685037
0
LINE
8
BLACK
6
CONTINUOUS
10
5.218307086614173
20
-4.5009842519685037
11
5.1454724409448822
21
-4.5009842519685037
0
LINE
8
BLACK
6
CONTINUOUS
10
5.4633687795275589
20
-4.498795393700787
11
5.4639014566929136
21
-4.4993280708661416
0
LINE
8
BLACK
6
CONTINUOUS
10
5.4639014566929136
20
-4.4993280708661416
11
5.4639763779527559
21
-4.4997047244094484
0
LINE
8
BLACK
6
CONTINUOUS
10
5.4639763779527559
20
-4.4997047244094484
11
5.4639763779527559
21
-4.6319881889763774
0
LINE
8
BLACK
6
CONTINUOUS
10
5.4639763779527559
20
-4.6319881889763774
11
5.4639014566929136
21
-4.6323648425196851
0
LINE
8
BLACK
6
CONTINUOUS
10
5.4639014566929136
20
-4.6323648425196851
11
5.4633687795275589
21
-4.6328975196850388
0
LINE
8
BLACK
6
CONTINUOUS
10
5.4633687795275589
20
-4.6328975196850388
11
5.4629921259842522
21
-4.632972440944882
0
LINE
8
BLACK
6
CONTINUOUS
10
5.4629921259842522
20
-4.632972440944882
11
5.3881889763779522
21
-4.632972440944882
0
LINE
8
BLACK
6
CONTINUOUS
10
5.3881889763779522
20
-4.632972440944882
11
5.3878123228346455
21
-4.6328975196850388
0
LINE
8
BLACK
6
CONTINUOUS
10
5.3878123228346455
20
-4.6328975196850388
11
5.3872796456692909
21
-4.6323648425196851
0
LINE
8
BLACK
6
CONTINUOUS
10
5.3872796456692909
20
-4.6323648425196851
11
5.3872047244094485
21
-4.6319881889763774
0
LINE
8
BLACK
6
CONTINUOUS
10
5.3872047244094485
20
-4.6319881889763774
11
5.3872047244094485
21
-4.4997047244094484
0
LINE
8
BLACK
6
CONTINUOUS
10
5.3872047244094485
20
-4.4997047244094484
11
5.3872796456692909
21
-4.4993280708661416
0
LINE
8
BLACK
6
CONTINUOUS
10
5.3872796456692909
20
-4.4993280708661416
11
5.3878123228346455
21
-4.498795393700787
0
LINE
8
BLACK
6
CONTINUOUS
10
5.3878123228346455
20
-4.498795393700787
11
5.3881889763779522
21
-4.4987204724409446
0
LINE
8
BLACK
6
CONTINUOUS
10
5.3881889763779522
20
-4.4987204724409446
11
5.4629921259842522
21
-4.4987204724409446
0
LINE
8
BLACK
6
CONTINUOUS
10
5.4629921259842522
20
-4.4987204724409446
11
5.4633687795275589
21
-4.498795393700787
0
LINE
8
BLACK
6
CONTINUOUS
10
5.3891732283464568
20
-4.500688976377953
11
5.3891732283464568
21
-4.6310039370078737
0
LINE
8
BLACK
6
CONTINUOUS
10
5.3891732283464568
20
-4.6310039370078737
11
5.4620078740157476
21
-4.6310039370078737
0
LINE
8
BLACK
6
CONTINUOUS
10
5.4620078740157476
20
-4.6310039370078737
11
5.4620078740157476
21
-4.500688976377953
0
LINE
8
BLACK
6
CONTINUOUS
10
5.4620078740157476
20
-4.500688976377953
11
5.3891732283464568
21
-4.500688976377953
0
LINE
8
BLACK
6
CONTINUOUS
10
5.5432900393700786
20
-4.4985985433070868
11
5.5438227165354332
21
-4.4991312204724405
0
LINE
8
BLACK
6
CONTINUOUS
10
5.5438227165354332
20
-4.4991312204724405
11
5.5438976377952756
21
-4.4995078740157481
0
LINE
8
BLACK
6
CONTINUOUS
10
5.5438976377952756
20
-4.4995078740157481
11
5.5438976377952756
21
-4.6317913385826772
0
LINE
8
BLACK
6
CONTINUOUS
10
5.5438976377952756
20
-4.6317913385826772
11
5.5438227165354332
21
-4.632167992125984
0
LINE
8
BLACK
6
CONTINUOUS
10
5.5438227165354332
20
-4.632167992125984
11
5.5432900393700786
21
-4.6327006692913386
0
LINE
8
BLACK
6
CONTINUOUS
10
5.5432900393700786
20
-4.6327006692913386
11
5.5429133858267718
21
-4.6327755905511809
0
LINE
8
BLACK
6
CONTINUOUS
10
5.5429133858267718
20
-4.6327755905511809
11
5.4681102362204719
21
-4.6327755905511809
0
LINE
8
BLACK
6
CONTINUOUS
10
5.4681102362204719
20
-4.6327755905511809
11
5.4677335826771651
21
-4.6327006692913386
0
LINE
8
BLACK
6
CONTINUOUS
10
5.4677335826771651
20
-4.6327006692913386
11
5.4672009055118105
21
-4.632167992125984
0
LINE
8
BLACK
6
CONTINUOUS
10
5.4672009055118105
20
-4.632167992125984
11
5.4671259842519682
21
-4.6317913385826772
0
LINE
8
BLACK
6
CONTINUOUS
10
5.4671259842519682
20
-4.6317913385826772
11
5.4671259842519682
21
-4.4995078740157481
0
LINE
8
BLACK
6
CONTINUOUS
10
5.4671259842519682
20
-4.4995078740157481
11
5.4672009055118105
21
-4.4991312204724405
0
LINE
8
BLACK
6
CONTINUOUS
10
5.4672009055118105
20
-4.4991312204724405
11
5.4677335826771651
21
-4.4985985433070868
0
LINE
8
BLACK
6
CONTINUOUS
10
5.4677335826771651
20
-4.4985985433070868
11
5.4681102362204719
21
-4.4985236220472444
0
LINE
8
BLACK
6
CONTINUOUS
10
5.4681102362204719
20
-4.4985236220472444
11
5.5429133858267718
21
-4.4985236220472444
0
LINE
8
BLACK
6
CONTINUOUS
10
5.5429133858267718
20
-4.4985236220472444
11
5.5432900393700786
21
-4.4985985433070868
0
LINE
8
BLACK
6
CONTINUOUS
10
5.4690944881889765
20
-4.5004921259842519
11
5.4690944881889765
21
-4.6308070866141735
0
LINE
8
BLACK
6
CONTINUOUS
10
5.4690944881889765
20
-4.6308070866141735
11
5.5419291338582672
21
-4.6308070866141735
0
LINE
8
BLACK
6
CONTINUOUS
10
5.5419291338582672
20
-4.6308070866141735
11
5.5419291338582672
21
-4.5004921259842519
0
LINE
8
BLACK
6
CONTINUOUS
10
5.5419291338582672
20
-4.5004921259842519
11
5.4690944881889765
21
-4.5004921259842519
0
LINE
8
BLACK
6
CONTINUOUS
10
5.8685853149606295
20
-4.4146418503937008
11
5.8691179921259842
21
-4.4151745275590546
0
LINE
8
BLACK
6
CONTINUOUS
10
5.8691179921259842
20
-4.4151745275590546
11
5.8691929133858265
21
-4.4155511811023622
0
LINE
8
BLACK
6
CONTINUOUS
10
5.8691929133858265
20
-4.4155511811023622
11
5.8691929133858265
21
-4.5769685039370076
0
LINE
8
BLACK
6
CONTINUOUS
10
5.8691929133858265
20
-4.5769685039370076
11
5.8691179921259842
21
-4.5773451574803152
0
LINE
8
BLACK
6
CONTINUOUS
10
5.8691179921259842
20
-4.5773451574803152
11
5.8685853149606295
21
-4.577877834645669
0
LINE
8
BLACK
6
CONTINUOUS
10
5.8685853149606295
20
-4.577877834645669
11
5.8682086614173228
21
-4.5779527559055113
0
LINE
8
BLACK
6
CONTINUOUS
10
5.8682086614173228
20
-4.5779527559055113
11
5.7343503937007876
21
-4.5779527559055113
0
LINE
8
BLACK
6
CONTINUOUS
10
5.7343503937007876
20
-4.5779527559055113
11
5.73397374015748
21
-4.577877834645669
0
LINE
8
BLACK
6
CONTINUOUS
10
5.73397374015748
20
-4.577877834645669
11
5.7334410629921262
21
-4.5773451574803152
0
LINE
8
BLACK
6
CONTINUOUS
10
5.7334410629921262
20
-4.5773451574803152
11
5.733366141732283
21
-4.5769685039370076
0
LINE
8
BLACK
6
CONTINUOUS
10
5.733366141732283
20
-4.5769685039370076
11
5.733366141732283
21
-4.4155511811023622
0
LINE
8
BLACK
6
CONTINUOUS
10
5.733366141732283
20
-4.4155511811023622
11
5.7334410629921262
21
-4.4151745275590546
0
LINE
8
BLACK
6
CONTINUOUS
10
5.7334410629921262
20
-4.4151745275590546
11
5.73397374015748
21
-4.4146418503937008
0
LINE
8
BLACK
6
CONTINUOUS
10
5.73397374015748
20
-4.4146418503937008
11
5.7343503937007876
21
-4.4145669291338585
0
LINE
8
BLACK
6
CONTINUOUS
10
5.7343503937007876
20
-4.4145669291338585
11
5.8682086614173228
21
-4.4145669291338585
0
LINE
8
BLACK
6
CONTINUOUS
10
5.8682086614173228
20
-4.4145669291338585
11
5.8685853149606295
21
-4.4146418503937008
0
LINE
8
BLACK
6
CONTINUOUS
10
5.7353346456692913
20
-4.4165354330708659
11
5.7353346456692913
21
-4.5759842519685039
0
LINE
8
BLACK
6
CONTINUOUS
10
5.7353346456692913
20
-4.5759842519685039
11
5.8672244094488191
21
-4.5759842519685039
0
LINE
8
BLACK
6
CONTINUOUS
10
5.8672244094488191
20
-4.5759842519685039
11
5.8672244094488191
21
-4.4165354330708659
0
LINE
8
BLACK
6
CONTINUOUS
10
5.8672244094488191
20
-4.4165354330708659
11
5.7353346456692913
21
-4.4165354330708659
0
LINE
8
BLACK
6
CONTINUOUS
10
5.0385656299212593
20
-4.4841300393700783
11
5.039098307086614
21
-4.4846627165354329
0
LINE
8
BLACK
6
CONTINUOUS
10
5.039098307086614
20
-4.4846627165354329
11
5.0391732283464563
21
-4.4850393700787397
0
LINE
8
BLACK
6
CONTINUOUS
10
5.0391732283464563
20
-4.4850393700787397
11
5.0391732283464563
21
-4.5598425196850396
0
LINE
8
BLACK
6
CONTINUOUS
10
5.0391732283464563
20
-4.5598425196850396
11
5.039098307086614
21
-4.5602191732283464
0
LINE
8
BLACK
6
CONTINUOUS
10
5.039098307086614
20
-4.5602191732283464
11
5.0385656299212593
21
-4.560751850393701
0
LINE
8
BLACK
6
CONTINUOUS
10
5.0385656299212593
20
-4.560751850393701
11
5.0381889763779526
21
-4.5608267716535433
0
LINE
8
BLACK
6
CONTINUOUS
10
5.0381889763779526
20
-4.5608267716535433
11
4.9059055118110235
21
-4.5608267716535433
0
LINE
8
BLACK
6
CONTINUOUS
10
4.9059055118110235
20
-4.5608267716535433
11
4.9055288582677168
21
-4.560751850393701
0
LINE
8
BLACK
6
CONTINUOUS
10
4.9055288582677168
20
-4.560751850393701
11
4.9049961811023621
21
-4.5602191732283464
0
LINE
8
BLACK
6
CONTINUOUS
10
4.9049961811023621
20
-4.5602191732283464
11
4.9049212598425198
21
-4.5598425196850396
0
LINE
8
BLACK
6
CONTINUOUS
10
4.9049212598425198
20
-4.5598425196850396
11
4.9049212598425198
21
-4.4850393700787397
0
LINE
8
BLACK
6
CONTINUOUS
10
4.9049212598425198
20
-4.4850393700787397
11
4.9049961811023621
21
-4.4846627165354329
0
LINE
8
BLACK
6
CONTINUOUS
10
4.9049961811023621
20
-4.4846627165354329
11
4.9055288582677168
21
-4.4841300393700783
0
LINE
8
BLACK
6
CONTINUOUS
10
4.9055288582677168
20
-4.4841300393700783
11
4.9059055118110235
21
-4.4840551181102359
0
LINE
8
BLACK
6
CONTINUOUS
10
4.9059055118110235
20
-4.4840551181102359
11
5.0381889763779526
21
-4.4840551181102359
0
LINE
8
BLACK
6
CONTINUOUS
10
5.0381889763779526
20
-4.4840551181102359
11
5.0385656299212593
21
-4.4841300393700783
0
LINE
8
BLACK
6
CONTINUOUS
10
4.9068897637795272
20
-4.4860236220472443
11
4.9068897637795272
21
-4.558858267716535
0
LINE
8
BLACK
6
CONTINUOUS
10
4.9068897637795272
20
-4.558858267716535
11
5.0372047244094489
21
-4.558858267716535
0
LINE
8
BLACK
6
CONTINUOUS
10
5.0372047244094489
20
-4.558858267716535
11
5.0372047244094489
21
-4.4860236220472443
0
LINE
8
BLACK
6
CONTINUOUS
10
5.0372047244094489
20
-4.4860236220472443
11
4.9068897637795272
21
-4.4860236220472443
0
LINE
8
BLACK
6
CONTINUOUS
10
5.0527388582677162
20
-4.3475158661417321
11
5.0532715354330708
21
-4.3480485433070868
0
LINE
8
BLACK
6
CONTINUOUS
10
5.0532715354330708
20
-4.3480485433070868
11
5.0533464566929132
21
-4.3484251968503935
0
LINE
8
BLACK
6
CONTINUOUS
10
5.0533464566929132
20
-4.3484251968503935
11
5.0533464566929132
21
-4.4822834645669287
0
LINE
8
BLACK
6
CONTINUOUS
10
5.0533464566929132
20
-4.4822834645669287
11
5.0532715354330708
21
-4.4826601181102363
0
LINE
8
BLACK
6
CONTINUOUS
10
5.0532715354330708
20
-4.4826601181102363
11
5.0527388582677162
21
-4.4831927952755901
0
LINE
8
BLACK
6
CONTINUOUS
10
5.0527388582677162
20
-4.4831927952755901
11
5.0523622047244094
21
-4.4832677165354333
0
LINE
8
BLACK
6
CONTINUOUS
10
5.0523622047244094
20
-4.4832677165354333
11
4.9751968503937007
21
-4.4832677165354333
0
LINE
8
BLACK
6
CONTINUOUS
10
4.9751968503937007
20
-4.4832677165354333
11
4.974820196850394
21
-4.4831927952755901
0
LINE
8
BLACK
6
CONTINUOUS
10
4.974820196850394
20
-4.4831927952755901
11
4.9742875196850393
21
-4.4826601181102363
0
LINE
8
BLACK
6
CONTINUOUS
10
4.9742875196850393
20
-4.4826601181102363
11
4.974212598425197
21
-4.4822834645669287
0
LINE
8
BLACK
6
CONTINUOUS
10
4.974212598425197
20
-4.4822834645669287
11
4.974212598425197
21
-4.3484251968503935
0
LINE
8
BLACK
6
CONTINUOUS
10
4.974212598425197
20
-4.3484251968503935
11
4.9742875196850393
21
-4.3480485433070868
0
LINE
8
BLACK
6
CONTINUOUS
10
4.9742875196850393
20
-4.3480485433070868
11
4.974820196850394
21
-4.3475158661417321
0
LINE
8
BLACK
6
CONTINUOUS
10
4.974820196850394
20
-4.3475158661417321
11
4.9751968503937007
21
-4.3474409448818898
0
LINE
8
BLACK
6
CONTINUOUS
10
4.9751968503937007
20
-4.3474409448818898
11
5.0523622047244094
21
-4.3474409448818898
0
LINE
8
BLACK
6
CONTINUOUS
10
5.0523622047244094
20
-4.3474409448818898
11
5.0527388582677162
21
-4.3475158661417321
0
LINE
8
BLACK
6
CONTINUOUS
10
4.9761811023622045
20
-4.3494094488188972
11
4.9761811023622045
21
-4.481299212598425
0
LINE
8
BLACK
6
CONTINUOUS
10
4.9761811023622045
20
-4.481299212598425
11
5.0513779527559057
21
-4.481299212598425
0
LINE
8
BLACK
6
CONTINUOUS
10
5.0513779527559057
20
-4.481299212598425
11
5.0513779527559057
21
-4.3494094488188972
0
LINE
8
BLACK
6
CONTINUOUS
10
5.0513779527559057
20
-4.3494094488188972
11
4.9761811023622045
21
-4.3494094488188972
0
LINE
8
BLACK
6
CONTINUOUS
10
5.8291168110236216
20
-4.2764528740157477
11
5.8296494881889762
21
-4.2769855511811024
0
LINE
8
BLACK
6
CONTINUOUS
10
5.8296494881889762
20
-4.2769855511811024
11
5.8297244094488185
21
-4.2773622047244091
0
LINE
8
BLACK
6
CONTINUOUS
10
5.8297244094488185
20
-4.2773622047244091
11
5.8297244094488185
21
-4.4112204724409452
0
LINE
8
BLACK
6
CONTINUOUS
10
5.8297244094488185
20
-4.4112204724409452
11
5.8296494881889762
21
-4.4115971259842519
0
LINE
8
BLACK
6
CONTINUOUS
10
5.8296494881889762
20
-4.4115971259842519
11
5.8291168110236216
21
-4.4121298031496066
0
LINE
8
BLACK
6
CONTINUOUS
10
5.8291168110236216
20
-4.4121298031496066
11
5.8287401574803148
21
-4.4122047244094489
0
LINE
8
BLACK
6
CONTINUOUS
10
5.8287401574803148
20
-4.4122047244094489
11
5.7515748031496061
21
-4.4122047244094489
0
LINE
8
BLACK
6
CONTINUOUS
10
5.7515748031496061
20
-4.4122047244094489
11
5.7511981496062994
21
-4.4121298031496066
0
LINE
8
BLACK
6
CONTINUOUS
10
5.7511981496062994
20
-4.4121298031496066
11
5.7506654724409447
21
-4.4115971259842519
0
LINE
8
BLACK
6
CONTINUOUS
10
5.7506654724409447
20
-4.4115971259842519
11
5.7505905511811024
21
-4.4112204724409452
0
LINE
8
BLACK
6
CONTINUOUS
10
5.7505905511811024
20
-4.4112204724409452
11
5.7505905511811024
21
-4.2773622047244091
0
LINE
8
BLACK
6
CONTINUOUS
10
5.7505905511811024
20
-4.2773622047244091
11
5.7506654724409447
21
-4.2769855511811024
0
LINE
8
BLACK
6
CONTINUOUS
10
5.7506654724409447
20
-4.2769855511811024
11
5.7511981496062994
21
-4.2764528740157477
0
LINE
8
BLACK
6
CONTINUOUS
10
5.7511981496062994
20
-4.2764528740157477
11
5.7515748031496061
21
-4.2763779527559054
0
LINE
8
BLACK
6
CONTINUOUS
10
5.7515748031496061
20
-4.2763779527559054
11
5.8287401574803148
21
-4.2763779527559054
0
LINE
8
BLACK
6
CONTINUOUS
10
5.8287401574803148
20
-4.2763779527559054
11
5.8291168110236216
21
-4.2764528740157477
0
LINE
8
BLACK
6
CONTINUOUS
10
5.7525590551181098
20
-4.2783464566929137
11
5.7525590551181098
21
-4.4102362204724406
0
LINE
8
BLACK
6
CONTINUOUS
10
5.7525590551181098
20
-4.4102362204724406
11
5.8277559055118111
21
-4.4102362204724406
0
LINE
8
BLACK
6
CONTINUOUS
10
5.8277559055118111
20
-4.4102362204724406
11
5.8277559055118111
21
-4.2783464566929137
0
LINE
8
BLACK
6
CONTINUOUS
10
5.8277559055118111
20
-4.2783464566929137
11
5.7525590551181098
21
-4.2783464566929137
0
LINE
8
BLACK
6
CONTINUOUS
10
5.9074632677165351
20
-4.2780276771653538
11
5.9079959448818897
21
-4.2785603543307085
0
LINE
8
BLACK
6
CONTINUOUS
10
5.9079959448818897
20
-4.2785603543307085
11
5.908070866141732
21
-4.2789370078740152
0
LINE
8
BLACK
6
CONTINUOUS
10
5.908070866141732
20
-4.2789370078740152
11
5.908070866141732
21
-4.4112204724409452
0
LINE
8
BLACK
6
CONTINUOUS
10
5.908070866141732
20
-4.4112204724409452
11
5.9079959448818897
21
-4.4115971259842519
0
LINE
8
BLACK
6
CONTINUOUS
10
5.9079959448818897
20
-4.4115971259842519
11
5.9074632677165351
21
-4.4121298031496066
0
LINE
8
BLACK
6
CONTINUOUS
10
5.9074632677165351
20
-4.4121298031496066
11
5.9070866141732283
21
-4.4122047244094489
0
LINE
8
BLACK
6
CONTINUOUS
10
5.9070866141732283
20
-4.4122047244094489
11
5.8322834645669293
21
-4.4122047244094489
0
LINE
8
BLACK
6
CONTINUOUS
10
5.8322834645669293
20
-4.4122047244094489
11
5.8319068110236216
21
-4.4121298031496066
0
LINE
8
BLACK
6
CONTINUOUS
10
5.8319068110236216
20
-4.4121298031496066
11
5.8313741338582679
21
-4.4115971259842519
0
LINE
8
BLACK
6
CONTINUOUS
10
5.8313741338582679
20
-4.4115971259842519
11
5.8312992125984247
21
-4.4112204724409452
0
LINE
8
BLACK
6
CONTINUOUS
10
5.8312992125984247
20
-4.4112204724409452
11
5.8312992125984247
21
-4.2789370078740152
0
LINE
8
BLACK
6
CONTINUOUS
10
5.8312992125984247
20
-4.2789370078740152
11
5.8313741338582679
21
-4.2785603543307085
0
LINE
8
BLACK
6
CONTINUOUS
10
5.8313741338582679
20
-4.2785603543307085
11
5.8319068110236216
21
-4.2780276771653538
0
LINE
8
BLACK
6
CONTINUOUS
10
5.8319068110236216
20
-4.2780276771653538
11
5.8322834645669293
21
-4.2779527559055115
0
LINE
8
BLACK
6
CONTINUOUS
10
5.8322834645669293
20
-4.2779527559055115
11
5.9070866141732283
21
-4.2779527559055115
0
LINE
8
BLACK
6
CONTINUOUS
10
5.9070866141732283
20
-4.2779527559055115
11
5.9074632677165351
21
-4.2780276771653538
0
LINE
8
BLACK
6
CONTINUOUS
10
5.833267716535433
20
-4.2799212598425198
11
5.833267716535433
21
-4.4102362204724406
0
LINE
8
BLACK
6
CONTINUOUS
10
5.833267716535433
20
-4.4102362204724406
11
5.9061023622047246
21
-4.4102362204724406
0
LINE
8
BLACK
6
CONTINUOUS
10
5.9061023622047246
20
-4.4102362204724406
11
5.9061023622047246
21
-4.2799212598425198
0
LINE
8
BLACK
6
CONTINUOUS
10
5.9061023622047246
20
-4.2799212598425198
11
5.833267716535433
21
-4.2799212598425198
0
LINE
8
BLACK
6
CONTINUOUS
10
5.040927834645669
20
-4.1360985433070869
11
5.0414605118110236
21
-4.1366312204724407
0
LINE
8
BLACK
6
CONTINUOUS
10
5.0414605118110236
20
-4.1366312204724407
11
5.0415354330708659
21
-4.1370078740157483
0
LINE
8
BLACK
6
CONTINUOUS
10
5.0415354330708659
20
-4.1370078740157483
11
5.0415354330708659
21
-4.211509291338583
0
LINE
8
BLACK
6
CONTINUOUS
10
5.0415354330708659
20
-4.211509291338583
11
5.0418542125984249
21
-4.211828070866142
0
LINE
8
BLACK
6
CONTINUOUS
10
5.0418542125984249
20
-4.211828070866142
11
5.0419291338582672
21
-4.2122047244094487
0
LINE
8
BLACK
6
CONTINUOUS
10
5.0419291338582672
20
-4.2122047244094487
11
5.0419291338582672
21
-4.2870078740157478
0
LINE
8
BLACK
6
CONTINUOUS
10
5.0419291338582672
20
-4.2870078740157478
11
5.0418542125984249
21
-4.2873845275590554
0
LINE
8
BLACK
6
CONTINUOUS
10
5.0418542125984249
20
-4.2873845275590554
11
5.0413215354330712
21
-4.2879172047244092
0
LINE
8
BLACK
6
CONTINUOUS
10
5.0413215354330712
20
-4.2879172047244092
11
5.0409448818897635
21
-4.2879921259842515
0
LINE
8
BLACK
6
CONTINUOUS
10
5.0409448818897635
20
-4.2879921259842515
11
4.9086614173228345
21
-4.2879921259842515
0
LINE
8
BLACK
6
CONTINUOUS
10
4.9086614173228345
20
-4.2879921259842515
11
4.9082847637795277
21
-4.2879172047244092
0
LINE
8
BLACK
6
CONTINUOUS
10
4.9082847637795277
20
-4.2879172047244092
11
4.9077520866141731
21
-4.2873845275590554
0
LINE
8
BLACK
6
CONTINUOUS
10
4.9077520866141731
20
-4.2873845275590554
11
4.9076771653543307
21
-4.2870078740157478
0
LINE
8
BLACK
6
CONTINUOUS
10
4.9076771653543307
20
-4.2870078740157478
11
4.9076771653543307
21
-4.2125064566929131
0
LINE
8
BLACK
6
CONTINUOUS
10
4.9076771653543307
20
-4.2125064566929131
11
4.9073583858267718
21
-4.2121876771653541
0
LINE
8
BLACK
6
CONTINUOUS
10
4.9073583858267718
20
-4.2121876771653541
11
4.9072834645669294
21
-4.2118110236220474
0
LINE
8
BLACK
6
CONTINUOUS
10
4.9072834645669294
20
-4.2118110236220474
11
4.9072834645669294
21
-4.1370078740157483
0
LINE
8
BLACK
6
CONTINUOUS
10
4.9072834645669294
20
-4.1370078740157483
11
4.9073583858267718
21
-4.1366312204724407
0
LINE
8
BLACK
6
CONTINUOUS
10
4.9073583858267718
20
-4.1366312204724407
11
4.9078910629921255
21
-4.1360985433070869
0
LINE
8
BLACK
6
CONTINUOUS
10
4.9078910629921255
20
-4.1360985433070869
11
4.9082677165354331
21
-4.1360236220472437
0
LINE
8
BLACK
6
CONTINUOUS
10
4.9082677165354331
20
-4.1360236220472437
11
5.0405511811023622
21
-4.1360236220472437
0
LINE
8
BLACK
6
CONTINUOUS
10
5.0405511811023622
20
-4.1360236220472437
11
5.040927834645669
21
-4.1360985433070869
0
LINE
8
BLACK
6
CONTINUOUS
10
4.9096456692913382
20
-4.2131889763779524
11
4.9096456692913382
21
-4.2860236220472441
0
LINE
8
BLACK
6
CONTINUOUS
10
4.9096456692913382
20
-4.2860236220472441
11
5.0399606299212598
21
-4.2860236220472441
0
LINE
8
BLACK
6
CONTINUOUS
10
5.0399606299212598
20
-4.2860236220472441
11
5.0399606299212598
21
-4.2131889763779524
0
LINE
8
BLACK
6
CONTINUOUS
10
5.0399606299212598
20
-4.2131889763779524
11
4.9096456692913382
21
-4.2131889763779524
0
LINE
8
BLACK
6
CONTINUOUS
10
4.9092519685039369
20
-4.137992125984252
11
4.9092519685039369
21
-4.2108267716535428
0
LINE
8
BLACK
6
CONTINUOUS
10
4.9092519685039369
20
-4.2108267716535428
11
5.0395669291338585
21
-4.2108267716535428
0
LINE
8
BLACK
6
CONTINUOUS
10
5.0395669291338585
20
-4.2108267716535428
11
5.0395669291338585
21
-4.137992125984252
0
LINE
8
BLACK
6
CONTINUOUS
10
5.0395669291338585
20
-4.137992125984252
11
4.9092519685039369
21
-4.137992125984252
0
LINE
8
BLACK
6
CONTINUOUS
10
5.755101062992126
20
-4.0242875196850392
11
5.7556337401574797
21
-4.0248201968503938
0
LINE
8
BLACK
6
CONTINUOUS
10
5.7556337401574797
20
-4.0248201968503938
11
5.755708661417323
21
-4.0251968503937006
0
LINE
8
BLACK
6
CONTINUOUS
10
5.755708661417323
20
-4.0251968503937006
11
5.755708661417323
21
-4.2047244094488185
0
LINE
8
BLACK
6
CONTINUOUS
10
5.755708661417323
20
-4.2047244094488185
11
5.7556337401574797
21
-4.2051010629921262
0
LINE
8
BLACK
6
CONTINUOUS
10
5.7556337401574797
20
-4.2051010629921262
11
5.755101062992126
21
-4.2056337401574799
0
LINE
8
BLACK
6
CONTINUOUS
10
5.755101062992126
20
-4.2056337401574799
11
5.7547244094488184
21
-4.2057086614173231
0
LINE
8
BLACK
6
CONTINUOUS
10
5.7547244094488184
20
-4.2057086614173231
11
5.6665354330708659
21
-4.2057086614173231
0
LINE
8
BLACK
6
CONTINUOUS
10
5.6665354330708659
20
-4.2057086614173231
11
5.6661587795275592
21
-4.2056337401574799
0
LINE
8
BLACK
6
CONTINUOUS
10
5.6661587795275592
20
-4.2056337401574799
11
5.6656261023622045
21
-4.2051010629921262
0
LINE
8
BLACK
6
CONTINUOUS
10
5.6656261023622045
20
-4.2051010629921262
11
5.6655511811023622
21
-4.2047244094488185
0
LINE
8
BLACK
6
CONTINUOUS
10
5.6655511811023622
20
-4.2047244094488185
11
5.6655511811023622
21
-4.0251968503937006
0
LINE
8
BLACK
6
CONTINUOUS
10
5.6655511811023622
20
-4.0251968503937006
11
5.6656261023622045
21
-4.0248201968503938
0
LINE
8
BLACK
6
CONTINUOUS
10
5.6656261023622045
20
-4.0248201968503938
11
5.6661587795275592
21
-4.0242875196850392
0
LINE
8
BLACK
6
CONTINUOUS
10
5.6661587795275592
20
-4.0242875196850392
11
5.6665354330708659
21
-4.0242125984251969
0
LINE
8
BLACK
6
CONTINUOUS
10
5.6665354330708659
20
-4.0242125984251969
11
5.7547244094488184
21
-4.0242125984251969
0
LINE
8
BLACK
6
CONTINUOUS
10
5.7547244094488184
20
-4.0242125984251969
11
5.755101062992126
21
-4.0242875196850392
0
LINE
8
BLACK
6
CONTINUOUS
10
5.6675196850393696
20
-4.0261811023622043
11
5.6675196850393696
21
-4.2037401574803148
0
LINE
8
BLACK
6
CONTINUOUS
10
5.6675196850393696
20
-4.2037401574803148
11
5.7537401574803146
21
-4.2037401574803148
0
LINE
8
BLACK
6
CONTINUOUS
10
5.7537401574803146
20
-4.2037401574803148
11
5.7537401574803146
21
-4.0261811023622043
0
LINE
8
BLACK
6
CONTINUOUS
10
5.7537401574803146
20
-4.0261811023622043
11
5.6675196850393696
21
-4.0261811023622043
0
LINE
8
BLACK
6
CONTINUOUS
10
5.8936837401574804
20
-4.0679883070866145
11
5.8942164173228342
21
-4.0685209842519683
0
LINE
8
BLACK
6
CONTINUOUS
10
5.8942164173228342
20
-4.0685209842519683
11
5.8942913385826774
21
-4.0688976377952759
0
LINE
8
BLACK
6
CONTINUOUS
10
5.8942913385826774
20
-4.0688976377952759
11
5.8942913385826774
21
-4.201181102362205
0
LINE
8
BLACK
6
CONTINUOUS
10
5.8942913385826774
20
-4.201181102362205
11
5.8942164173228342
21
-4.2015577559055117
0
LINE
8
BLACK
6
CONTINUOUS
10
5.8942164173228342
20
-4.2015577559055117
11
5.8936837401574804
21
-4.2020904330708664
0
LINE
8
BLACK
6
CONTINUOUS
10
5.8936837401574804
20
-4.2020904330708664
11
5.8933070866141728
21
-4.2021653543307087
0
LINE
8
BLACK
6
CONTINUOUS
10
5.8933070866141728
20
-4.2021653543307087
11
5.8185039370078737
21
-4.2021653543307087
0
LINE
8
BLACK
6
CONTINUOUS
10
5.8185039370078737
20
-4.2021653543307087
11
5.818127283464567
21
-4.2020904330708664
0
LINE
8
BLACK
6
CONTINUOUS
10
5.818127283464567
20
-4.2020904330708664
11
5.8175946062992123
21
-4.2015577559055117
0
LINE
8
BLACK
6
CONTINUOUS
10
5.8175946062992123
20
-4.2015577559055117
11
5.81751968503937
21
-4.201181102362205
0
LINE
8
BLACK
6
CONTINUOUS
10
5.81751968503937
20
-4.201181102362205
11
5.81751968503937
21
-4.0688976377952759
0
LINE
8
BLACK
6
CONTINUOUS
10
5.81751968503937
20
-4.0688976377952759
11
5.8175946062992123
21
-4.0685209842519683
0
LINE
8
BLACK
6
CONTINUOUS
10
5.8175946062992123
20
-4.0685209842519683
11
5.818127283464567
21
-4.0679883070866145
0
LINE
8
BLACK
6
CONTINUOUS
10
5.818127283464567
20
-4.0679883070866145
11
5.8185039370078737
21
-4.0679133858267713
0
LINE
8
BLACK
6
CONTINUOUS
10
5.8185039370078737
20
-4.0679133858267713
11
5.8933070866141728
21
-4.0679133858267713
0
LINE
8
BLACK
6
CONTINUOUS
10
5.8933070866141728
20
-4.0679133858267713
11
5.8936837401574804
21
-4.0679883070866145
0
LINE
8
BLACK
6
CONTINUOUS
10
5.8194881889763774
20
-4.0698818897637796
11
5.8194881889763774
21
-4.2001968503937004
0
LINE
8
BLACK
6
CONTINUOUS
10
5.8194881889763774
20
-4.2001968503937004
11
5.8923228346456691
21
-4.2001968503937004
0
LINE
8
BLACK
6
CONTINUOUS
10
5.8923228346456691
20
-4.2001968503937004
11
5.8923228346456691
21
-4.0698818897637796
0
LINE
8
BLACK
6
CONTINUOUS
10
5.8923228346456691
20
-4.0698818897637796
11
5.8194881889763774
21
-4.0698818897637796
0
LINE
8
BLACK
6
CONTINUOUS
10
5.8133687795275586
20
-4.0746812204724412
11
5.8139014566929132
21
-4.075213897637795
0
LINE
8
BLACK
6
CONTINUOUS
10
5.8139014566929132
20
-4.075213897637795
11
5.8139763779527556
21
-4.0755905511811026
0
LINE
8
BLACK
6
CONTINUOUS
10
5.8139763779527556
20
-4.0755905511811026
11
5.8139763779527556
21
-4.1740157480314961
0
LINE
8
BLACK
6
CONTINUOUS
10
5.8139763779527556
20
-4.1740157480314961
11
5.8139014566929132
21
-4.1743924015748028
0
LINE
8
BLACK
6
CONTINUOUS
10
5.8139014566929132
20
-4.1743924015748028
11
5.8133687795275586
21
-4.1749250787401575
0
LINE
8
BLACK
6
CONTINUOUS
10
5.8133687795275586
20
-4.1749250787401575
11
5.8129921259842519
21
-4.1749999999999998
0
LINE
8
BLACK
6
CONTINUOUS
10
5.8129921259842519
20
-4.1749999999999998
11
5.7578740157480315
21
-4.1749999999999998
0
LINE
8
BLACK
6
CONTINUOUS
10
5.7578740157480315
20
-4.1749999999999998
11
5.7574973622047239
21
-4.1749250787401575
0
LINE
8
BLACK
6
CONTINUOUS
10
5.7574973622047239
20
-4.1749250787401575
11
5.7569646850393701
21
-4.1743924015748028
0
LINE
8
BLACK
6
CONTINUOUS
10
5.7569646850393701
20
-4.1743924015748028
11
5.7568897637795278
21
-4.1740157480314961
0
LINE
8
BLACK
6
CONTINUOUS
10
5.7568897637795278
20
-4.1740157480314961
11
5.7568897637795278
21
-4.0755905511811026
0
LINE
8
BLACK
6
CONTINUOUS
10
5.7568897637795278
20
-4.0755905511811026
11
5.7569646850393701
21
-4.075213897637795
0
LINE
8
BLACK
6
CONTINUOUS
10
5.7569646850393701
20
-4.075213897637795
11
5.7574973622047239
21
-4.0746812204724412
0
LINE
8
BLACK
6
CONTINUOUS
10
5.7574973622047239
20
-4.0746812204724412
11
5.7578740157480315
21
-4.074606299212598
0
LINE
8
BLACK
6
CONTINUOUS
10
5.7578740157480315
20
-4.074606299212598
11
5.8129921259842519
21
-4.074606299212598
0
LINE
8
BLACK
6
CONTINUOUS
10
5.8129921259842519
20
-4.074606299212598
11
5.8133687795275586
21
-4.0746812204724412
0
LINE
8
BLACK
6
CONTINUOUS
10
5.7588582677165352
20
-4.0765748031496063
11
5.7588582677165352
21
-4.1730314960629924
0
LINE
8
BLACK
6
CONTINUOUS
10
5.7588582677165352
20
-4.1730314960629924
11
5.8120078740157481
21
-4.1730314960629924
0
LINE
8
BLACK
6
CONTINUOUS
10
5.8120078740157481
20
-4.1730314960629924
11
5.8120078740157481
21
-4.0765748031496063
0
LINE
8
BLACK
6
CONTINUOUS
10
5.8120078740157481
20
-4.0765748031496063
11
5.7588582677165352
21
-4.0765748031496063
0
LINE
8
BLACK
6
CONTINUOUS
10
5.4574632677165349
20
-3.9278308267716535
11
5.4579959448818895
21
-3.9283635039370077
0
LINE
8
BLACK
6
CONTINUOUS
10
5.4579959448818895
20
-3.9283635039370077
11
5.4580708661417319
21
-3.9287401574803149
0
LINE
8
BLACK
6
CONTINUOUS
10
5.4580708661417319
20
-3.9287401574803149
11
5.4580708661417319
21
-4.0035433070866144
0
LINE
8
BLACK
6
CONTINUOUS
10
5.4580708661417319
20
-4.0035433070866144
11
5.4579959448818895
21
-4.0039199606299212
0
LINE
8
BLACK
6
CONTINUOUS
10
5.4579959448818895
20
-4.0039199606299212
11
5.4574632677165349
21
-4.0044526377952758
0
LINE
8
BLACK
6
CONTINUOUS
10
5.4574632677165349
20
-4.0044526377952758
11
5.4570866141732282
21
-4.0045275590551181
0
LINE
8
BLACK
6
CONTINUOUS
10
5.4570866141732282
20
-4.0045275590551181
11
5.3248031496062991
21
-4.0045275590551181
0
LINE
8
BLACK
6
CONTINUOUS
10
5.3248031496062991
20
-4.0045275590551181
11
5.3244264960629923
21
-4.0044526377952758
0
LINE
8
BLACK
6
CONTINUOUS
10
5.3244264960629923
20
-4.0044526377952758
11
5.3238938188976377
21
-4.0039199606299212
0
LINE
8
BLACK
6
CONTINUOUS
10
5.3238938188976377
20
-4.0039199606299212
11
5.3238188976377954
21
-4.0035433070866144
0
LINE
8
BLACK
6
CONTINUOUS
10
5.3238188976377954
20
-4.0035433070866144
11
5.3238188976377954
21
-3.9287401574803149
0
LINE
8
BLACK
6
CONTINUOUS
10
5.3238188976377954
20
-3.9287401574803149
11
5.3238938188976377
21
-3.9283635039370077
0
LINE
8
BLACK
6
CONTINUOUS
10
5.3238938188976377
20
-3.9283635039370077
11
5.3244264960629923
21
-3.9278308267716535
0
LINE
8
BLACK
6
CONTINUOUS
10
5.3244264960629923
20
-3.9278308267716535
11
5.3248031496062991
21
-3.9277559055118108
0
LINE
8
BLACK
6
CONTINUOUS
10
5.3248031496062991
20
-3.9277559055118108
11
5.4570866141732282
21
-3.9277559055118108
0
LINE
8
BLACK
6
CONTINUOUS
10
5.4570866141732282
20
-3.9277559055118108
11
5.4574632677165349
21
-3.9278308267716535
0
LINE
8
BLACK
6
CONTINUOUS
10
5.3257874015748028
20
-3.9297244094488186
11
5.3257874015748028
21
-4.0025590551181098
0
LINE
8
BLACK
6
CONTINUOUS
10
5.3257874015748028
20
-4.0025590551181098
11
5.4561023622047244
21
-4.0025590551181098
0
LINE
8
BLACK
6
CONTINUOUS
10
5.4561023622047244
20
-4.0025590551181098
11
5.4561023622047244
21
-3.9297244094488186
0
LINE
8
BLACK
6
CONTINUOUS
10
5.4561023622047244
20
-3.9297244094488186
11
5.3257874015748028
21
-3.9297244094488186
0
CIRCLE
8
BLACK
10
6.15511811023622
20
-5.130708661417323
40
0.0068897637795276
0
CIRCLE
8
BLACK
10
4.5551181102362204
20
-3.5307086614173229
40
0.0068897637795276
0
CIRCLE
8
BLACK
10
4.5551181102362204
20
-5.130708661417323
40
0.0068897637795276
0
CIRCLE
8
BLACK
10
6.15511811023622
20
-3.5307086614173229
40
0.0068897637795276
  0
ENDSEC
  0
EOF
