<?xml version='1.0' encoding='ASCII' standalone='yes'?>
<svg xmlns:svg="http://www.w3.org/2000/svg" xmlns="http://www.w3.org/2000/svg" xmlns:xlink="http://www.w3.org/1999/xlink" version="1.1" width="297.0022mm" height="210.0072mm" viewBox="0.0000 0.0000 297.0022 210.0072">
<title>SVG Image created as TFGPSLITE02-F_Fab0.svg date 2025/01/01 23:10:22 </title>
  <desc>Image generated by PCBNEW </desc>
<g style="fill:#848484; fill-opacity:1.0000;stroke:#848484; stroke-opacity:1.0000; stroke-linecap:round; stroke-linejoin:round;" transform="translate(0 0) scale(1 1)">
</g>
<g style="fill:none;  stroke:#848484; stroke-width:0.6294; stroke-opacity:1;  stroke-linecap:round; stroke-linejoin:round;">
<text x="233.7598" y="208.3043" textLength="17.0330" font-size="5.5944" lengthAdjust="spacingAndGlyphs" text-anchor="middle" opacity="0" stroke-opacity="0">HOLE</text>
<g class="stroked-text"><desc>HOLE</desc>
<path d="M226.7668 208.1147 L226.7668 203.9189 "/>
<path d="M226.7668 205.9169 L229.1644 205.9169 "/>
<path d="M229.1644 208.1147 L229.1644 203.9189 "/>
<path d="M231.9616 203.9189 L232.7608 203.9189 "/>
<path d="M232.7608 203.9189 L233.1604 204.1187 "/>
<path d="M233.1604 204.1187 L233.5600 204.5183 "/>
<path d="M233.5600 204.5183 L233.7598 205.3175 "/>
<path d="M233.7598 205.3175 L233.7598 206.7161 "/>
<path d="M233.7598 206.7161 L233.5600 207.5153 "/>
<path d="M233.5600 207.5153 L233.1604 207.9149 "/>
<path d="M233.1604 207.9149 L232.7608 208.1147 "/>
<path d="M232.7608 208.1147 L231.9616 208.1147 "/>
<path d="M231.9616 208.1147 L231.5620 207.9149 "/>
<path d="M231.5620 207.9149 L231.1624 207.5153 "/>
<path d="M231.1624 207.5153 L230.9626 206.7161 "/>
<path d="M230.9626 206.7161 L230.9626 205.3175 "/>
<path d="M230.9626 205.3175 L231.1624 204.5183 "/>
<path d="M231.1624 204.5183 L231.5620 204.1187 "/>
<path d="M231.5620 204.1187 L231.9616 203.9189 "/>
<path d="M237.5560 208.1147 L235.5580 208.1147 "/>
<path d="M235.5580 208.1147 L235.5580 203.9189 "/>
<path d="M238.9546 205.9169 L240.3532 205.9169 "/>
<path d="M240.9526 208.1147 L238.9546 208.1147 "/>
<path d="M238.9546 208.1147 L238.9546 203.9189 "/>
<path d="M238.9546 203.9189 L240.9526 203.9189 "/>
</g><text x="233.7598" y="192.3602" textLength="9.8402" font-size="5.5944" lengthAdjust="spacingAndGlyphs" text-anchor="middle" opacity="0" stroke-opacity="0">M4</text>
<g class="stroked-text"><desc>M4</desc>
<path d="M230.3632 192.1707 L230.3632 187.9749 "/>
<path d="M230.3632 187.9749 L231.7618 190.9719 "/>
<path d="M231.7618 190.9719 L233.1604 187.9749 "/>
<path d="M233.1604 187.9749 L233.1604 192.1707 "/>
<path d="M236.9566 189.3735 L236.9566 192.1707 "/>
<path d="M235.9576 187.7751 L234.9586 190.7721 "/>
<path d="M234.9586 190.7721 L237.5560 190.7721 "/>
</g><text x="148.4591" y="70.3672" textLength="31.8182" font-size="5.5944" lengthAdjust="spacingAndGlyphs" text-anchor="middle" opacity="0" stroke-opacity="0">SAM-M8Q</text>
<g class="stroked-text"><desc>SAM-M8Q</desc>
<path d="M133.8737 69.9779 L134.4731 70.1777 "/>
<path d="M134.4731 70.1777 L135.4721 70.1777 "/>
<path d="M135.4721 70.1777 L135.8717 69.9779 "/>
<path d="M135.8717 69.9779 L136.0715 69.7781 "/>
<path d="M136.0715 69.7781 L136.2713 69.3785 "/>
<path d="M136.2713 69.3785 L136.2713 68.9789 "/>
<path d="M136.2713 68.9789 L136.0715 68.5793 "/>
<path d="M136.0715 68.5793 L135.8717 68.3795 "/>
<path d="M135.8717 68.3795 L135.4721 68.1797 "/>
<path d="M135.4721 68.1797 L134.6729 67.9799 "/>
<path d="M134.6729 67.9799 L134.2733 67.7801 "/>
<path d="M134.2733 67.7801 L134.0735 67.5803 "/>
<path d="M134.0735 67.5803 L133.8737 67.1807 "/>
<path d="M133.8737 67.1807 L133.8737 66.7811 "/>
<path d="M133.8737 66.7811 L134.0735 66.3815 "/>
<path d="M134.0735 66.3815 L134.2733 66.1817 "/>
<path d="M134.2733 66.1817 L134.6729 65.9819 "/>
<path d="M134.6729 65.9819 L135.6719 65.9819 "/>
<path d="M135.6719 65.9819 L136.2713 66.1817 "/>
<path d="M137.8697 68.9789 L139.8677 68.9789 "/>
<path d="M137.4701 70.1777 L138.8687 65.9819 "/>
<path d="M138.8687 65.9819 L140.2673 70.1777 "/>
<path d="M141.6659 70.1777 L141.6659 65.9819 "/>
<path d="M141.6659 65.9819 L143.0645 68.9789 "/>
<path d="M143.0645 68.9789 L144.4631 65.9819 "/>
<path d="M144.4631 65.9819 L144.4631 70.1777 "/>
<path d="M146.4611 68.5793 L149.6579 68.5793 "/>
<path d="M151.6559 70.1777 L151.6559 65.9819 "/>
<path d="M151.6559 65.9819 L153.0545 68.9789 "/>
<path d="M153.0545 68.9789 L154.4531 65.9819 "/>
<path d="M154.4531 65.9819 L154.4531 70.1777 "/>
<path d="M157.0505 67.7801 L156.6509 67.5803 "/>
<path d="M156.6509 67.5803 L156.4511 67.3805 "/>
<path d="M156.4511 67.3805 L156.2513 66.9809 "/>
<path d="M156.2513 66.9809 L156.2513 66.7811 "/>
<path d="M156.2513 66.7811 L156.4511 66.3815 "/>
<path d="M156.4511 66.3815 L156.6509 66.1817 "/>
<path d="M156.6509 66.1817 L157.0505 65.9819 "/>
<path d="M157.0505 65.9819 L157.8497 65.9819 "/>
<path d="M157.8497 65.9819 L158.2493 66.1817 "/>
<path d="M158.2493 66.1817 L158.4491 66.3815 "/>
<path d="M158.4491 66.3815 L158.6489 66.7811 "/>
<path d="M158.6489 66.7811 L158.6489 66.9809 "/>
<path d="M158.6489 66.9809 L158.4491 67.3805 "/>
<path d="M158.4491 67.3805 L158.2493 67.5803 "/>
<path d="M158.2493 67.5803 L157.8497 67.7801 "/>
<path d="M157.8497 67.7801 L157.0505 67.7801 "/>
<path d="M157.0505 67.7801 L156.6509 67.9799 "/>
<path d="M156.6509 67.9799 L156.4511 68.1797 "/>
<path d="M156.4511 68.1797 L156.2513 68.5793 "/>
<path d="M156.2513 68.5793 L156.2513 69.3785 "/>
<path d="M156.2513 69.3785 L156.4511 69.7781 "/>
<path d="M156.4511 69.7781 L156.6509 69.9779 "/>
<path d="M156.6509 69.9779 L157.0505 70.1777 "/>
<path d="M157.0505 70.1777 L157.8497 70.1777 "/>
<path d="M157.8497 70.1777 L158.2493 69.9779 "/>
<path d="M158.2493 69.9779 L158.4491 69.7781 "/>
<path d="M158.4491 69.7781 L158.6489 69.3785 "/>
<path d="M158.6489 69.3785 L158.6489 68.5793 "/>
<path d="M158.6489 68.5793 L158.4491 68.1797 "/>
<path d="M158.4491 68.1797 L158.2493 67.9799 "/>
<path d="M158.2493 67.9799 L157.8497 67.7801 "/>
<path d="M163.2444 70.5773 L162.8448 70.3775 "/>
<path d="M162.8448 70.3775 L162.4452 69.9779 "/>
<path d="M162.4452 69.9779 L161.8458 69.3785 "/>
<path d="M161.8458 69.3785 L161.4462 69.1787 "/>
<path d="M161.4462 69.1787 L161.0466 69.1787 "/>
<path d="M161.2464 70.1777 L160.8468 69.9779 "/>
<path d="M160.8468 69.9779 L160.4472 69.5783 "/>
<path d="M160.4472 69.5783 L160.2474 68.7791 "/>
<path d="M160.2474 68.7791 L160.2474 67.3805 "/>
<path d="M160.2474 67.3805 L160.4472 66.5813 "/>
<path d="M160.4472 66.5813 L160.8468 66.1817 "/>
<path d="M160.8468 66.1817 L161.2464 65.9819 "/>
<path d="M161.2464 65.9819 L162.0456 65.9819 "/>
<path d="M162.0456 65.9819 L162.4452 66.1817 "/>
<path d="M162.4452 66.1817 L162.8448 66.5813 "/>
<path d="M162.8448 66.5813 L163.0446 67.3805 "/>
<path d="M163.0446 67.3805 L163.0446 68.7791 "/>
<path d="M163.0446 68.7791 L162.8448 69.5783 "/>
<path d="M162.8448 69.5783 L162.4452 69.9779 "/>
<path d="M162.4452 69.9779 L162.0456 70.1777 "/>
<path d="M162.0456 70.1777 L161.2464 70.1777 "/>
</g><text x="148.4591" y="107.0805" textLength="9.4406" font-size="5.5944" lengthAdjust="spacingAndGlyphs" text-anchor="middle" opacity="0" stroke-opacity="0">U2</text>
<g class="stroked-text"><desc>U2</desc>
<path d="M145.2623 102.6951 L145.2623 106.0917 "/>
<path d="M145.2623 106.0917 L145.4621 106.4913 "/>
<path d="M145.4621 106.4913 L145.6619 106.6912 "/>
<path d="M145.6619 106.6912 L146.0615 106.8910 "/>
<path d="M146.0615 106.8910 L146.8607 106.8910 "/>
<path d="M146.8607 106.8910 L147.2603 106.6912 "/>
<path d="M147.2603 106.6912 L147.4601 106.4913 "/>
<path d="M147.4601 106.4913 L147.6599 106.0917 "/>
<path d="M147.6599 106.0917 L147.6599 102.6951 "/>
<path d="M149.4581 103.0947 L149.6579 102.8949 "/>
<path d="M149.6579 102.8949 L150.0575 102.6951 "/>
<path d="M150.0575 102.6951 L151.0565 102.6951 "/>
<path d="M151.0565 102.6951 L151.4561 102.8949 "/>
<path d="M151.4561 102.8949 L151.6559 103.0947 "/>
<path d="M151.6559 103.0947 L151.8557 103.4943 "/>
<path d="M151.8557 103.4943 L151.8557 103.8939 "/>
<path d="M151.8557 103.8939 L151.6559 104.4933 "/>
<path d="M151.6559 104.4933 L149.2583 106.8910 "/>
<path d="M149.2583 106.8910 L151.8557 106.8910 "/>
</g><text x="174.6305" y="71.7728" textLength="21.4286" font-size="5.5944" lengthAdjust="spacingAndGlyphs" text-anchor="middle" opacity="0" stroke-opacity="0">GREEN</text>
<g class="stroked-text"><desc>GREEN</desc>
<path d="M167.6375 67.5873 L167.2379 67.3875 "/>
<path d="M167.2379 67.3875 L166.6385 67.3875 "/>
<path d="M166.6385 67.3875 L166.0391 67.5873 "/>
<path d="M166.0391 67.5873 L165.6395 67.9869 "/>
<path d="M165.6395 67.9869 L165.4397 68.3865 "/>
<path d="M165.4397 68.3865 L165.2399 69.1857 "/>
<path d="M165.2399 69.1857 L165.2399 69.7851 "/>
<path d="M165.2399 69.7851 L165.4397 70.5843 "/>
<path d="M165.4397 70.5843 L165.6395 70.9839 "/>
<path d="M165.6395 70.9839 L166.0391 71.3835 "/>
<path d="M166.0391 71.3835 L166.6385 71.5833 "/>
<path d="M166.6385 71.5833 L167.0381 71.5833 "/>
<path d="M167.0381 71.5833 L167.6375 71.3835 "/>
<path d="M167.6375 71.3835 L167.8373 71.1837 "/>
<path d="M167.8373 71.1837 L167.8373 69.7851 "/>
<path d="M167.8373 69.7851 L167.0381 69.7851 "/>
<path d="M172.0331 71.5833 L170.6345 69.5853 "/>
<path d="M169.6355 71.5833 L169.6355 67.3875 "/>
<path d="M169.6355 67.3875 L171.2339 67.3875 "/>
<path d="M171.2339 67.3875 L171.6335 67.5873 "/>
<path d="M171.6335 67.5873 L171.8333 67.7871 "/>
<path d="M171.8333 67.7871 L172.0331 68.1867 "/>
<path d="M172.0331 68.1867 L172.0331 68.7861 "/>
<path d="M172.0331 68.7861 L171.8333 69.1857 "/>
<path d="M171.8333 69.1857 L171.6335 69.3855 "/>
<path d="M171.6335 69.3855 L171.2339 69.5853 "/>
<path d="M171.2339 69.5853 L169.6355 69.5853 "/>
<path d="M173.8313 69.3855 L175.2299 69.3855 "/>
<path d="M175.8293 71.5833 L173.8313 71.5833 "/>
<path d="M173.8313 71.5833 L173.8313 67.3875 "/>
<path d="M173.8313 67.3875 L175.8293 67.3875 "/>
<path d="M177.6275 69.3855 L179.0261 69.3855 "/>
<path d="M179.6255 71.5833 L177.6275 71.5833 "/>
<path d="M177.6275 71.5833 L177.6275 67.3875 "/>
<path d="M177.6275 67.3875 L179.6255 67.3875 "/>
<path d="M181.4237 71.5833 L181.4237 67.3875 "/>
<path d="M181.4237 67.3875 L183.8213 71.5833 "/>
<path d="M183.8213 71.5833 L183.8213 67.3875 "/>
</g></g>
<g style="fill:none;  stroke:#848484; stroke-width:0.2517; stroke-opacity:1;  stroke-linecap:round; stroke-linejoin:round;">
<text x="174.6305" y="64.5141" textLength="3.6963" font-size="2.2378" lengthAdjust="spacingAndGlyphs" text-anchor="middle" opacity="0" stroke-opacity="0">D3</text>
<g class="stroked-text"><desc>D3</desc>
<path d="M173.3917 64.4383 L173.3917 62.7599 "/>
<path d="M173.3917 62.7599 L173.7913 62.7599 "/>
<path d="M173.7913 62.7599 L174.0311 62.8399 "/>
<path d="M174.0311 62.8399 L174.1909 62.9997 "/>
<path d="M174.1909 62.9997 L174.2708 63.1595 "/>
<path d="M174.2708 63.1595 L174.3507 63.4792 "/>
<path d="M174.3507 63.4792 L174.3507 63.7190 "/>
<path d="M174.3507 63.7190 L174.2708 64.0387 "/>
<path d="M174.2708 64.0387 L174.1909 64.1985 "/>
<path d="M174.1909 64.1985 L174.0311 64.3583 "/>
<path d="M174.0311 64.3583 L173.7913 64.4383 "/>
<path d="M173.7913 64.4383 L173.3917 64.4383 "/>
<path d="M174.9102 62.7599 L175.9491 62.7599 "/>
<path d="M175.9491 62.7599 L175.3897 63.3993 "/>
<path d="M175.3897 63.3993 L175.6295 63.3993 "/>
<path d="M175.6295 63.3993 L175.7893 63.4792 "/>
<path d="M175.7893 63.4792 L175.8692 63.5591 "/>
<path d="M175.8692 63.5591 L175.9491 63.7190 "/>
<path d="M175.9491 63.7190 L175.9491 64.1186 "/>
<path d="M175.9491 64.1186 L175.8692 64.2784 "/>
<path d="M175.8692 64.2784 L175.7893 64.3583 "/>
<path d="M175.7893 64.3583 L175.6295 64.4383 "/>
<path d="M175.6295 64.4383 L175.1499 64.4383 "/>
<path d="M175.1499 64.4383 L174.9901 64.3583 "/>
<path d="M174.9901 64.3583 L174.9102 64.2784 "/>
</g></g>
<g style="fill:none;  stroke:#848484; stroke-width:0.6294; stroke-opacity:1;  stroke-linecap:round; stroke-linejoin:round;">
<text x="63.2424" y="37.7868" textLength="17.0330" font-size="5.5944" lengthAdjust="spacingAndGlyphs" text-anchor="middle" opacity="0" stroke-opacity="0">HOLE</text>
<g class="stroked-text"><desc>HOLE</desc>
<path d="M56.2493 37.5972 L56.2493 33.4014 "/>
<path d="M56.2493 35.3994 L58.6469 35.3994 "/>
<path d="M58.6469 37.5972 L58.6469 33.4014 "/>
<path d="M61.4442 33.4014 L62.2434 33.4014 "/>
<path d="M62.2434 33.4014 L62.6430 33.6012 "/>
<path d="M62.6430 33.6012 L63.0426 34.0008 "/>
<path d="M63.0426 34.0008 L63.2424 34.8000 "/>
<path d="M63.2424 34.8000 L63.2424 36.1986 "/>
<path d="M63.2424 36.1986 L63.0426 36.9978 "/>
<path d="M63.0426 36.9978 L62.6430 37.3974 "/>
<path d="M62.6430 37.3974 L62.2434 37.5972 "/>
<path d="M62.2434 37.5972 L61.4442 37.5972 "/>
<path d="M61.4442 37.5972 L61.0446 37.3974 "/>
<path d="M61.0446 37.3974 L60.6450 36.9978 "/>
<path d="M60.6450 36.9978 L60.4452 36.1986 "/>
<path d="M60.4452 36.1986 L60.4452 34.8000 "/>
<path d="M60.4452 34.8000 L60.6450 34.0008 "/>
<path d="M60.6450 34.0008 L61.0446 33.6012 "/>
<path d="M61.0446 33.6012 L61.4442 33.4014 "/>
<path d="M67.0386 37.5972 L65.0406 37.5972 "/>
<path d="M65.0406 37.5972 L65.0406 33.4014 "/>
<path d="M68.4372 35.3994 L69.8358 35.3994 "/>
<path d="M70.4352 37.5972 L68.4372 37.5972 "/>
<path d="M68.4372 37.5972 L68.4372 33.4014 "/>
<path d="M68.4372 33.4014 L70.4352 33.4014 "/>
</g><text x="63.2424" y="21.8428" textLength="9.8402" font-size="5.5944" lengthAdjust="spacingAndGlyphs" text-anchor="middle" opacity="0" stroke-opacity="0">M1</text>
<g class="stroked-text"><desc>M1</desc>
<path d="M59.8458 21.6532 L59.8458 17.4574 "/>
<path d="M59.8458 17.4574 L61.2444 20.4544 "/>
<path d="M61.2444 20.4544 L62.6430 17.4574 "/>
<path d="M62.6430 17.4574 L62.6430 21.6532 "/>
<path d="M66.8388 21.6532 L64.4412 21.6532 "/>
<path d="M65.6400 21.6532 L65.6400 17.4574 "/>
<path d="M65.6400 17.4574 L65.2404 18.0568 "/>
<path d="M65.2404 18.0568 L64.8408 18.4564 "/>
<path d="M64.8408 18.4564 L64.4412 18.6562 "/>
</g><text x="63.2424" y="208.3043" textLength="17.0330" font-size="5.5944" lengthAdjust="spacingAndGlyphs" text-anchor="middle" opacity="0" stroke-opacity="0">HOLE</text>
<g class="stroked-text"><desc>HOLE</desc>
<path d="M56.2493 208.1147 L56.2493 203.9189 "/>
<path d="M56.2493 205.9169 L58.6469 205.9169 "/>
<path d="M58.6469 208.1147 L58.6469 203.9189 "/>
<path d="M61.4442 203.9189 L62.2434 203.9189 "/>
<path d="M62.2434 203.9189 L62.6430 204.1187 "/>
<path d="M62.6430 204.1187 L63.0426 204.5183 "/>
<path d="M63.0426 204.5183 L63.2424 205.3175 "/>
<path d="M63.2424 205.3175 L63.2424 206.7161 "/>
<path d="M63.2424 206.7161 L63.0426 207.5153 "/>
<path d="M63.0426 207.5153 L62.6430 207.9149 "/>
<path d="M62.6430 207.9149 L62.2434 208.1147 "/>
<path d="M62.2434 208.1147 L61.4442 208.1147 "/>
<path d="M61.4442 208.1147 L61.0446 207.9149 "/>
<path d="M61.0446 207.9149 L60.6450 207.5153 "/>
<path d="M60.6450 207.5153 L60.4452 206.7161 "/>
<path d="M60.4452 206.7161 L60.4452 205.3175 "/>
<path d="M60.4452 205.3175 L60.6450 204.5183 "/>
<path d="M60.6450 204.5183 L61.0446 204.1187 "/>
<path d="M61.0446 204.1187 L61.4442 203.9189 "/>
<path d="M67.0386 208.1147 L65.0406 208.1147 "/>
<path d="M65.0406 208.1147 L65.0406 203.9189 "/>
<path d="M68.4372 205.9169 L69.8358 205.9169 "/>
<path d="M70.4352 208.1147 L68.4372 208.1147 "/>
<path d="M68.4372 208.1147 L68.4372 203.9189 "/>
<path d="M68.4372 203.9189 L70.4352 203.9189 "/>
</g><text x="63.2424" y="192.3602" textLength="9.8402" font-size="5.5944" lengthAdjust="spacingAndGlyphs" text-anchor="middle" opacity="0" stroke-opacity="0">M3</text>
<g class="stroked-text"><desc>M3</desc>
<path d="M59.8458 192.1707 L59.8458 187.9749 "/>
<path d="M59.8458 187.9749 L61.2444 190.9719 "/>
<path d="M61.2444 190.9719 L62.6430 187.9749 "/>
<path d="M62.6430 187.9749 L62.6430 192.1707 "/>
<path d="M64.2414 187.9749 L66.8388 187.9749 "/>
<path d="M66.8388 187.9749 L65.4402 189.5733 "/>
<path d="M65.4402 189.5733 L66.0396 189.5733 "/>
<path d="M66.0396 189.5733 L66.4392 189.7731 "/>
<path d="M66.4392 189.7731 L66.6390 189.9729 "/>
<path d="M66.6390 189.9729 L66.8388 190.3725 "/>
<path d="M66.8388 190.3725 L66.8388 191.3715 "/>
<path d="M66.8388 191.3715 L66.6390 191.7711 "/>
<path d="M66.6390 191.7711 L66.4392 191.9709 "/>
<path d="M66.4392 191.9709 L66.0396 192.1707 "/>
<path d="M66.0396 192.1707 L64.8408 192.1707 "/>
<path d="M64.8408 192.1707 L64.4412 191.9709 "/>
<path d="M64.4412 191.9709 L64.2414 191.7711 "/>
</g><text x="122.2039" y="71.6470" textLength="13.2368" font-size="5.5944" lengthAdjust="spacingAndGlyphs" text-anchor="middle" opacity="0" stroke-opacity="0">RED</text>
<g class="stroked-text"><desc>RED</desc>
<path d="M119.5066 71.4574 L118.1080 69.4594 "/>
<path d="M117.1090 71.4574 L117.1090 67.2616 "/>
<path d="M117.1090 67.2616 L118.7074 67.2616 "/>
<path d="M118.7074 67.2616 L119.1070 67.4614 "/>
<path d="M119.1070 67.4614 L119.3068 67.6612 "/>
<path d="M119.3068 67.6612 L119.5066 68.0608 "/>
<path d="M119.5066 68.0608 L119.5066 68.6602 "/>
<path d="M119.5066 68.6602 L119.3068 69.0598 "/>
<path d="M119.3068 69.0598 L119.1070 69.2596 "/>
<path d="M119.1070 69.2596 L118.7074 69.4594 "/>
<path d="M118.7074 69.4594 L117.1090 69.4594 "/>
<path d="M121.3048 69.2596 L122.7034 69.2596 "/>
<path d="M123.3028 71.4574 L121.3048 71.4574 "/>
<path d="M121.3048 71.4574 L121.3048 67.2616 "/>
<path d="M121.3048 67.2616 L123.3028 67.2616 "/>
<path d="M125.1010 71.4574 L125.1010 67.2616 "/>
<path d="M125.1010 67.2616 L126.1000 67.2616 "/>
<path d="M126.1000 67.2616 L126.6994 67.4614 "/>
<path d="M126.6994 67.4614 L127.0990 67.8610 "/>
<path d="M127.0990 67.8610 L127.2988 68.2606 "/>
<path d="M127.2988 68.2606 L127.4986 69.0598 "/>
<path d="M127.4986 69.0598 L127.4986 69.6592 "/>
<path d="M127.4986 69.6592 L127.2988 70.4584 "/>
<path d="M127.2988 70.4584 L127.0990 70.8580 "/>
<path d="M127.0990 70.8580 L126.6994 71.2576 "/>
<path d="M126.6994 71.2576 L126.1000 71.4574 "/>
<path d="M126.1000 71.4574 L125.1010 71.4574 "/>
</g></g>
<g style="fill:none;  stroke:#848484; stroke-width:0.2517; stroke-opacity:1;  stroke-linecap:round; stroke-linejoin:round;">
<text x="122.2039" y="64.3882" textLength="3.6963" font-size="2.2378" lengthAdjust="spacingAndGlyphs" text-anchor="middle" opacity="0" stroke-opacity="0">D2</text>
<g class="stroked-text"><desc>D2</desc>
<path d="M120.9651 64.3124 L120.9651 62.6341 "/>
<path d="M120.9651 62.6341 L121.3647 62.6341 "/>
<path d="M121.3647 62.6341 L121.6045 62.7140 "/>
<path d="M121.6045 62.7140 L121.7643 62.8738 "/>
<path d="M121.7643 62.8738 L121.8443 63.0337 "/>
<path d="M121.8443 63.0337 L121.9242 63.3533 "/>
<path d="M121.9242 63.3533 L121.9242 63.5931 "/>
<path d="M121.9242 63.5931 L121.8443 63.9128 "/>
<path d="M121.8443 63.9128 L121.7643 64.0726 "/>
<path d="M121.7643 64.0726 L121.6045 64.2325 "/>
<path d="M121.6045 64.2325 L121.3647 64.3124 "/>
<path d="M121.3647 64.3124 L120.9651 64.3124 "/>
<path d="M122.5635 62.7939 L122.6435 62.7140 "/>
<path d="M122.6435 62.7140 L122.8033 62.6341 "/>
<path d="M122.8033 62.6341 L123.2029 62.6341 "/>
<path d="M123.2029 62.6341 L123.3627 62.7140 "/>
<path d="M123.3627 62.7140 L123.4427 62.7939 "/>
<path d="M123.4427 62.7939 L123.5226 62.9537 "/>
<path d="M123.5226 62.9537 L123.5226 63.1136 "/>
<path d="M123.5226 63.1136 L123.4427 63.3533 "/>
<path d="M123.4427 63.3533 L122.4836 64.3124 "/>
<path d="M122.4836 64.3124 L123.5226 64.3124 "/>
</g></g>
<g style="fill:none;  stroke:#848484; stroke-width:0.6294; stroke-opacity:1;  stroke-linecap:round; stroke-linejoin:round;">
<text x="233.7598" y="37.7868" textLength="17.0330" font-size="5.5944" lengthAdjust="spacingAndGlyphs" text-anchor="middle" opacity="0" stroke-opacity="0">HOLE</text>
<g class="stroked-text"><desc>HOLE</desc>
<path d="M226.7668 37.5972 L226.7668 33.4014 "/>
<path d="M226.7668 35.3994 L229.1644 35.3994 "/>
<path d="M229.1644 37.5972 L229.1644 33.4014 "/>
<path d="M231.9616 33.4014 L232.7608 33.4014 "/>
<path d="M232.7608 33.4014 L233.1604 33.6012 "/>
<path d="M233.1604 33.6012 L233.5600 34.0008 "/>
<path d="M233.5600 34.0008 L233.7598 34.8000 "/>
<path d="M233.7598 34.8000 L233.7598 36.1986 "/>
<path d="M233.7598 36.1986 L233.5600 36.9978 "/>
<path d="M233.5600 36.9978 L233.1604 37.3974 "/>
<path d="M233.1604 37.3974 L232.7608 37.5972 "/>
<path d="M232.7608 37.5972 L231.9616 37.5972 "/>
<path d="M231.9616 37.5972 L231.5620 37.3974 "/>
<path d="M231.5620 37.3974 L231.1624 36.9978 "/>
<path d="M231.1624 36.9978 L230.9626 36.1986 "/>
<path d="M230.9626 36.1986 L230.9626 34.8000 "/>
<path d="M230.9626 34.8000 L231.1624 34.0008 "/>
<path d="M231.1624 34.0008 L231.5620 33.6012 "/>
<path d="M231.5620 33.6012 L231.9616 33.4014 "/>
<path d="M237.5560 37.5972 L235.5580 37.5972 "/>
<path d="M235.5580 37.5972 L235.5580 33.4014 "/>
<path d="M238.9546 35.3994 L240.3532 35.3994 "/>
<path d="M240.9526 37.5972 L238.9546 37.5972 "/>
<path d="M238.9546 37.5972 L238.9546 33.4014 "/>
<path d="M238.9546 33.4014 L240.9526 33.4014 "/>
</g><text x="233.7598" y="21.8428" textLength="9.8402" font-size="5.5944" lengthAdjust="spacingAndGlyphs" text-anchor="middle" opacity="0" stroke-opacity="0">M2</text>
<g class="stroked-text"><desc>M2</desc>
<path d="M230.3632 21.6532 L230.3632 17.4574 "/>
<path d="M230.3632 17.4574 L231.7618 20.4544 "/>
<path d="M231.7618 20.4544 L233.1604 17.4574 "/>
<path d="M233.1604 17.4574 L233.1604 21.6532 "/>
<path d="M234.9586 17.8570 L235.1584 17.6572 "/>
<path d="M235.1584 17.6572 L235.5580 17.4574 "/>
<path d="M235.5580 17.4574 L236.5570 17.4574 "/>
<path d="M236.5570 17.4574 L236.9566 17.6572 "/>
<path d="M236.9566 17.6572 L237.1564 17.8570 "/>
<path d="M237.1564 17.8570 L237.3562 18.2566 "/>
<path d="M237.3562 18.2566 L237.3562 18.6562 "/>
<path d="M237.3562 18.6562 L237.1564 19.2556 "/>
<path d="M237.1564 19.2556 L234.7588 21.6532 "/>
<path d="M234.7588 21.6532 L237.3562 21.6532 "/>
</g></g>
<g style="fill:none;  stroke:#848484; stroke-width:0.4196; stroke-opacity:1;  stroke-linecap:round; stroke-linejoin:round;">
<path d="M115.9417 72.4651 L115.9417 137.5001 "/>
<path d="M115.9417 137.5001 L180.9766 137.5001 "/>
<path d="M125.3822 86.1015 L125.3822 123.8637 "/>
<path d="M129.5780 128.0595 L167.3403 128.0595 "/>
<path d="M167.3403 81.9057 L129.5780 81.9057 "/>
<path d="M171.5361 123.8637 L171.5361 86.1015 "/>
<path d="M173.6340 120.9267 L180.9766 117.9896 "/>
<path d="M173.6340 120.9267 L180.9766 123.8637 "/>
<path d="M180.9766 72.4651 L115.9417 72.4651 "/>
<path d="M180.9766 137.5001 L180.9766 72.4651 "/>
<path d="M129.5780 81.9057 A4.1958 4.1958 0.0 0 0 125.3822 86.1015"/>
<path d="M125.3822 123.8637 A4.1958 4.1958 0.0 0 0 129.5780 128.0595"/>
<path d="M171.5361 86.1015 A4.1958 4.1958 0.0 0 0 167.3403 81.9057"/>
<path d="M167.3403 128.0595 A4.1958 4.1958 0.0 0 0 171.5361 123.8637"/>
<path d="M171.2738 63.2553 L171.2738 65.3533 "/>
<path d="M171.2738 65.3533 L177.9871 65.3533 "/>
<path d="M172.5326 61.9966 L171.2738 63.2553 "/>
<path d="M177.9871 61.9966 L172.5326 61.9966 "/>
<path d="M177.9871 65.3533 L177.9871 61.9966 "/>
<path d="M118.8473 63.1295 L118.8473 65.2274 "/>
<path d="M118.8473 65.2274 L125.5605 65.2274 "/>
<path d="M120.1060 61.8707 L118.8473 63.1295 "/>
<path d="M125.5605 61.8707 L120.1060 61.8707 "/>
<path d="M125.5605 65.2274 L125.5605 61.8707 "/>
</g>
<g style="fill:none;  stroke:#848484; stroke-width:0.0890; stroke-opacity:1;  stroke-linecap:round; stroke-linejoin:round;">
<circle cx="233.7598" cy="190.2623" r="11.7483"/> 
<path style="fill:none;  stroke:#848484; stroke-width:0.0890; stroke-opacity:1;  stroke-linecap:round; stroke-linejoin:round;fill:none" d="M 179.9277,117.7798 179.9277,124.0735 172.3752,124.0735 172.3752,117.7798 Z"/> 
<path style="fill:none;  stroke:#848484; stroke-width:0.0890; stroke-opacity:1;  stroke-linecap:round; stroke-linejoin:round;fill:none" d="M 179.9277,109.8078 179.9277,116.1015 172.3752,116.1015 172.3752,109.8078 Z"/> 
<path style="fill:none;  stroke:#848484; stroke-width:0.0890; stroke-opacity:1;  stroke-linecap:round; stroke-linejoin:round;fill:none" d="M 179.9277,101.8358 179.9277,108.1295 172.3752,108.1295 172.3752,101.8358 Z"/> 
<path style="fill:none;  stroke:#848484; stroke-width:0.0890; stroke-opacity:1;  stroke-linecap:round; stroke-linejoin:round;fill:none" d="M 179.9277,93.8637 179.9277,100.1574 172.3752,100.1574 172.3752,93.8637 Z"/> 
<path style="fill:none;  stroke:#848484; stroke-width:0.0890; stroke-opacity:1;  stroke-linecap:round; stroke-linejoin:round;fill:none" d="M 179.9277,85.8917 179.9277,92.1854 172.3752,92.1854 172.3752,85.8917 Z"/> 
<path style="fill:none;  stroke:#848484; stroke-width:0.0890; stroke-opacity:1;  stroke-linecap:round; stroke-linejoin:round;fill:none" d="M 167.5501,73.5141 167.5501,81.0665 161.2563,81.0665 161.2563,73.5141 Z"/> 
<path style="fill:none;  stroke:#848484; stroke-width:0.0890; stroke-opacity:1;  stroke-linecap:round; stroke-linejoin:round;fill:none" d="M 159.5780,73.5141 159.5780,81.0665 153.2843,81.0665 153.2843,73.5141 Z"/> 
<path style="fill:none;  stroke:#848484; stroke-width:0.0890; stroke-opacity:1;  stroke-linecap:round; stroke-linejoin:round;fill:none" d="M 151.6060,73.5141 151.6060,81.0665 145.3123,81.0665 145.3123,73.5141 Z"/> 
<path style="fill:none;  stroke:#848484; stroke-width:0.0890; stroke-opacity:1;  stroke-linecap:round; stroke-linejoin:round;fill:none" d="M 143.6340,73.5141 143.6340,81.0665 137.3403,81.0665 137.3403,73.5141 Z"/> 
<path style="fill:none;  stroke:#848484; stroke-width:0.0890; stroke-opacity:1;  stroke-linecap:round; stroke-linejoin:round;fill:none" d="M 135.6619,73.5141 135.6619,81.0665 129.3682,81.0665 129.3682,73.5141 Z"/> 
<path style="fill:none;  stroke:#848484; stroke-width:0.0890; stroke-opacity:1;  stroke-linecap:round; stroke-linejoin:round;fill:none" d="M 124.5431,85.8917 124.5431,92.1854 116.9906,92.1854 116.9906,85.8917 Z"/> 
<path style="fill:none;  stroke:#848484; stroke-width:0.0890; stroke-opacity:1;  stroke-linecap:round; stroke-linejoin:round;fill:none" d="M 124.5431,93.8637 124.5431,100.1574 116.9906,100.1574 116.9906,93.8637 Z"/> 
<path style="fill:none;  stroke:#848484; stroke-width:0.0890; stroke-opacity:1;  stroke-linecap:round; stroke-linejoin:round;fill:none" d="M 124.5431,101.8358 124.5431,108.1295 116.9906,108.1295 116.9906,101.8358 Z"/> 
<path style="fill:none;  stroke:#848484; stroke-width:0.0890; stroke-opacity:1;  stroke-linecap:round; stroke-linejoin:round;fill:none" d="M 124.5431,109.8078 124.5431,116.1015 116.9906,116.1015 116.9906,109.8078 Z"/> 
<path style="fill:none;  stroke:#848484; stroke-width:0.0890; stroke-opacity:1;  stroke-linecap:round; stroke-linejoin:round;fill:none" d="M 124.5431,117.7798 124.5431,124.0735 116.9906,124.0735 116.9906,117.7798 Z"/> 
<path style="fill:none;  stroke:#848484; stroke-width:0.0890; stroke-opacity:1;  stroke-linecap:round; stroke-linejoin:round;fill:none" d="M 135.6619,128.8987 135.6619,136.4512 129.3682,136.4512 129.3682,128.8987 Z"/> 
<path style="fill:none;  stroke:#848484; stroke-width:0.0890; stroke-opacity:1;  stroke-linecap:round; stroke-linejoin:round;fill:none" d="M 143.6340,128.8987 143.6340,136.4512 137.3403,136.4512 137.3403,128.8987 Z"/> 
<path style="fill:none;  stroke:#848484; stroke-width:0.0890; stroke-opacity:1;  stroke-linecap:round; stroke-linejoin:round;fill:none" d="M 151.6060,128.8987 151.6060,136.4512 145.3123,136.4512 145.3123,128.8987 Z"/> 
<path style="fill:none;  stroke:#848484; stroke-width:0.0890; stroke-opacity:1;  stroke-linecap:round; stroke-linejoin:round;fill:none" d="M 159.5780,128.8987 159.5780,136.4512 153.2843,136.4512 153.2843,128.8987 Z"/> 
<path style="fill:none;  stroke:#848484; stroke-width:0.0890; stroke-opacity:1;  stroke-linecap:round; stroke-linejoin:round;fill:none" d="M 167.5501,128.8987 167.5501,136.4512 161.2563,136.4512 161.2563,128.8987 Z"/> 
<path style="fill:none;  stroke:#848484; stroke-width:0.0890; stroke-opacity:1;  stroke-linecap:round; stroke-linejoin:round;fill:none" d="M 169.4906,62.5998 169.5605,62.2485 169.7594,61.9507 170.0572,61.7518 170.4084,61.6819 172.2441,61.6819 172.5953,61.7518 172.8931,61.9507 173.0921,62.2485 173.1619,62.5998 173.1619,64.7501 173.0921,65.1013 172.8931,65.3991 172.5953,65.5981 172.2441,65.6679 170.4084,65.6679 170.0572,65.5981 169.7594,65.3991 169.5605,65.1013 169.4906,64.7501 Z"/> 
<path style="fill:none;  stroke:#848484; stroke-width:0.0890; stroke-opacity:1;  stroke-linecap:round; stroke-linejoin:round;fill:none" d="M 176.0990,62.5998 176.1689,62.2485 176.3678,61.9507 176.6656,61.7518 177.0168,61.6819 178.8525,61.6819 179.2037,61.7518 179.5015,61.9507 179.7005,62.2485 179.7703,62.5998 179.7703,64.7501 179.7005,65.1013 179.5015,65.3991 179.2037,65.5981 178.8525,65.6679 177.0168,65.6679 176.6656,65.5981 176.3678,65.3991 176.1689,65.1013 176.0990,64.7501 Z"/> 
</g>
<g style="fill:none;  stroke:#848484; stroke-width:0.0890; stroke-opacity:1;  stroke-linecap:round; stroke-linejoin:round;">
<circle cx="63.2424" cy="19.7449" r="11.7483"/> 
</g>
<g style="fill:none;  stroke:#848484; stroke-width:0.0890; stroke-opacity:1;  stroke-linecap:round; stroke-linejoin:round;">
<circle cx="63.2424" cy="190.2623" r="11.7483"/> 
<path style="fill:none;  stroke:#848484; stroke-width:0.0890; stroke-opacity:1;  stroke-linecap:round; stroke-linejoin:round;fill:none" d="M 117.0640,62.4739 117.1339,62.1226 117.3329,61.8249 117.6306,61.6259 117.9819,61.5560 119.8175,61.5560 120.1688,61.6259 120.4665,61.8249 120.6655,62.1226 120.7354,62.4739 120.7354,64.6242 120.6655,64.9755 120.4665,65.2732 120.1688,65.4722 119.8175,65.5421 117.9819,65.5421 117.6306,65.4722 117.3329,65.2732 117.1339,64.9755 117.0640,64.6242 Z"/> 
<path style="fill:none;  stroke:#848484; stroke-width:0.0890; stroke-opacity:1;  stroke-linecap:round; stroke-linejoin:round;fill:none" d="M 123.6724,62.4739 123.7423,62.1226 123.9413,61.8249 124.2390,61.6259 124.5903,61.5560 126.4259,61.5560 126.7772,61.6259 127.0749,61.8249 127.2739,62.1226 127.3438,62.4739 127.3438,64.6242 127.2739,64.9755 127.0749,65.2732 126.7772,65.4722 126.4259,65.5421 124.5903,65.5421 124.2390,65.4722 123.9413,65.2732 123.7423,64.9755 123.6724,64.6242 Z"/> 
</g>
<g style="fill:none;  stroke:#848484; stroke-width:0.0890; stroke-opacity:1;  stroke-linecap:round; stroke-linejoin:round;">
<circle cx="233.7598" cy="19.7449" r="11.7483"/> 
</g> 
<svg:g><svg:g><svg:title>SVG Image created as TFGPSLITE02-Edge_Cuts1.svg date 2025/01/01 23:10:22 </svg:title>
  <svg:desc>Image generated by PCBNEW </svg:desc>
<svg:g style="fill:#C2C200; fill-opacity:1.0000;stroke:#C2C200; stroke-opacity:1.0000; stroke-linecap:round; stroke-linejoin:round;" transform="translate(0 0) scale(1 1)">
<svg:path style="fill:none;  stroke:#C2C200; stroke-width:0.2098; stroke-opacity:1;  stroke-linecap:round; stroke-linejoin:round;fill:none" d="M 43.6060,0.1085 253.3962,0.1085 253.3962,209.8987 43.6060,209.8987 Z"/> 
</svg:g> 
</svg:g></svg:g></svg>
