<?xml version='1.0' encoding='ASCII' standalone='yes'?>
<svg xmlns:svg="http://www.w3.org/2000/svg" xmlns="http://www.w3.org/2000/svg" xmlns:xlink="http://www.w3.org/1999/xlink" version="1.1" width="297.0022mm" height="210.0072mm" viewBox="0.0000 0.0000 297.0022 210.0072">
<title>SVG Image created as TFGPSLITE01-F_Fab.svg date 2024/10/18 12:56:07 </title>
  <desc>Image generated by PCBNEW </desc>
<g style="fill:#848484; fill-opacity:1.0000;stroke:#848484; stroke-opacity:1.0000; stroke-linecap:round; stroke-linejoin:round;" transform="translate(0 0) scale(1 1)">
</g>
<g style="fill:none;  stroke:#848484; stroke-width:0.7937; stroke-opacity:1;  stroke-linecap:round; stroke-linejoin:round;">
<text x="256.0143" y="100.8766" textLength="21.4790" font-size="7.0547" lengthAdjust="spacingAndGlyphs" text-anchor="middle" opacity="0" stroke-opacity="0">HOLE</text>
<g class="stroked-text"><desc>HOLE</desc>
<path d="M247.1960 100.6376 L247.1960 95.3466 "/>
<path d="M247.1960 97.8661 L250.2194 97.8661 "/>
<path d="M250.2194 100.6376 L250.2194 95.3466 "/>
<path d="M253.7468 95.3466 L254.7546 95.3466 "/>
<path d="M254.7546 95.3466 L255.2585 95.5985 "/>
<path d="M255.2585 95.5985 L255.7624 96.1024 "/>
<path d="M255.7624 96.1024 L256.0143 97.1102 "/>
<path d="M256.0143 97.1102 L256.0143 98.8739 "/>
<path d="M256.0143 98.8739 L255.7624 99.8817 "/>
<path d="M255.7624 99.8817 L255.2585 100.3856 "/>
<path d="M255.2585 100.3856 L254.7546 100.6376 "/>
<path d="M254.7546 100.6376 L253.7468 100.6376 "/>
<path d="M253.7468 100.6376 L253.2428 100.3856 "/>
<path d="M253.2428 100.3856 L252.7389 99.8817 "/>
<path d="M252.7389 99.8817 L252.4870 98.8739 "/>
<path d="M252.4870 98.8739 L252.4870 97.1102 "/>
<path d="M252.4870 97.1102 L252.7389 96.1024 "/>
<path d="M252.7389 96.1024 L253.2428 95.5985 "/>
<path d="M253.2428 95.5985 L253.7468 95.3466 "/>
<path d="M260.8014 100.6376 L258.2819 100.6376 "/>
<path d="M258.2819 100.6376 L258.2819 95.3466 "/>
<path d="M262.5651 97.8661 L264.3288 97.8661 "/>
<path d="M265.0846 100.6376 L262.5651 100.6376 "/>
<path d="M262.5651 100.6376 L262.5651 95.3466 "/>
<path d="M262.5651 95.3466 L265.0846 95.3466 "/>
</g><text x="256.0143" y="80.7708" textLength="12.4087" font-size="7.0547" lengthAdjust="spacingAndGlyphs" text-anchor="middle" opacity="0" stroke-opacity="0">M4</text>
<g class="stroked-text"><desc>M4</desc>
<path d="M251.7311 80.5317 L251.7311 75.2407 "/>
<path d="M251.7311 75.2407 L253.4948 79.0200 "/>
<path d="M253.4948 79.0200 L255.2585 75.2407 "/>
<path d="M255.2585 75.2407 L255.2585 80.5317 "/>
<path d="M260.0456 77.0044 L260.0456 80.5317 "/>
<path d="M258.7858 74.9888 L257.5260 78.7681 "/>
<path d="M257.5260 78.7681 L260.8014 78.7681 "/>
</g><g transform="rotate(-90.000000 220.3000 163.4692)">
<text x="220.3000" y="166.1147" textLength="27.0219" font-size="7.0547" lengthAdjust="spacingAndGlyphs" text-anchor="middle" opacity="0" stroke-opacity="0">GREEN</text>
</g>
<g class="stroked-text"><desc>GREEN</desc>
<path d="M217.6674 172.2875 L217.4155 172.7914 "/>
<path d="M217.4155 172.7914 L217.4155 173.5473 "/>
<path d="M217.4155 173.5473 L217.6674 174.3032 "/>
<path d="M217.6674 174.3032 L218.1713 174.8071 "/>
<path d="M218.1713 174.8071 L218.6752 175.0590 "/>
<path d="M218.6752 175.0590 L219.6831 175.3110 "/>
<path d="M219.6831 175.3110 L220.4389 175.3110 "/>
<path d="M220.4389 175.3110 L221.4467 175.0590 "/>
<path d="M221.4467 175.0590 L221.9506 174.8071 "/>
<path d="M221.9506 174.8071 L222.4545 174.3032 "/>
<path d="M222.4545 174.3032 L222.7065 173.5473 "/>
<path d="M222.7065 173.5473 L222.7065 173.0434 "/>
<path d="M222.7065 173.0434 L222.4545 172.2875 "/>
<path d="M222.4545 172.2875 L222.2026 172.0356 "/>
<path d="M222.2026 172.0356 L220.4389 172.0356 "/>
<path d="M220.4389 172.0356 L220.4389 173.0434 "/>
<path d="M222.7065 166.7446 L220.1870 168.5083 "/>
<path d="M222.7065 169.7680 L217.4155 169.7680 "/>
<path d="M217.4155 169.7680 L217.4155 167.7524 "/>
<path d="M217.4155 167.7524 L217.6674 167.2485 "/>
<path d="M217.6674 167.2485 L217.9194 166.9965 "/>
<path d="M217.9194 166.9965 L218.4233 166.7446 "/>
<path d="M218.4233 166.7446 L219.1792 166.7446 "/>
<path d="M219.1792 166.7446 L219.6831 166.9965 "/>
<path d="M219.6831 166.9965 L219.9350 167.2485 "/>
<path d="M219.9350 167.2485 L220.1870 167.7524 "/>
<path d="M220.1870 167.7524 L220.1870 169.7680 "/>
<path d="M219.9350 164.4770 L219.9350 162.7133 "/>
<path d="M222.7065 161.9575 L222.7065 164.4770 "/>
<path d="M222.7065 164.4770 L217.4155 164.4770 "/>
<path d="M217.4155 164.4770 L217.4155 161.9575 "/>
<path d="M219.9350 159.6899 L219.9350 157.9262 "/>
<path d="M222.7065 157.1704 L222.7065 159.6899 "/>
<path d="M222.7065 159.6899 L217.4155 159.6899 "/>
<path d="M217.4155 159.6899 L217.4155 157.1704 "/>
<path d="M222.7065 154.9028 L217.4155 154.9028 "/>
<path d="M217.4155 154.9028 L222.7065 151.8794 "/>
<path d="M222.7065 151.8794 L217.4155 151.8794 "/>
</g></g>
<g style="fill:none;  stroke:#848484; stroke-width:0.3175; stroke-opacity:1;  stroke-linecap:round; stroke-linejoin:round;">
<g transform="rotate(-90.000000 227.8662 163.4692)">
<text x="227.8662" y="164.5274" textLength="4.6611" font-size="2.8219" lengthAdjust="spacingAndGlyphs" text-anchor="middle" opacity="0" stroke-opacity="0">D3</text>
</g>
<g class="stroked-text"><desc>D3</desc>
<path d="M228.8288 165.0313 L226.7124 165.0313 "/>
<path d="M226.7124 165.0313 L226.7124 164.5274 "/>
<path d="M226.7124 164.5274 L226.8131 164.2251 "/>
<path d="M226.8131 164.2251 L227.0147 164.0235 "/>
<path d="M227.0147 164.0235 L227.2163 163.9227 "/>
<path d="M227.2163 163.9227 L227.6194 163.8219 "/>
<path d="M227.6194 163.8219 L227.9217 163.8219 "/>
<path d="M227.9217 163.8219 L228.3249 163.9227 "/>
<path d="M228.3249 163.9227 L228.5264 164.0235 "/>
<path d="M228.5264 164.0235 L228.7280 164.2251 "/>
<path d="M228.7280 164.2251 L228.8288 164.5274 "/>
<path d="M228.8288 164.5274 L228.8288 165.0313 "/>
<path d="M226.7124 163.1165 L226.7124 161.8063 "/>
<path d="M226.7124 161.8063 L227.5186 162.5118 "/>
<path d="M227.5186 162.5118 L227.5186 162.2094 "/>
<path d="M227.5186 162.2094 L227.6194 162.0079 "/>
<path d="M227.6194 162.0079 L227.7202 161.9071 "/>
<path d="M227.7202 161.9071 L227.9217 161.8063 "/>
<path d="M227.9217 161.8063 L228.4256 161.8063 "/>
<path d="M228.4256 161.8063 L228.6272 161.9071 "/>
<path d="M228.6272 161.9071 L228.7280 162.0079 "/>
<path d="M228.7280 162.0079 L228.8288 162.2094 "/>
<path d="M228.8288 162.2094 L228.8288 162.8141 "/>
<path d="M228.8288 162.8141 L228.7280 163.0157 "/>
<path d="M228.7280 163.0157 L228.6272 163.1165 "/>
</g></g>
<g style="fill:none;  stroke:#848484; stroke-width:0.7937; stroke-opacity:1;  stroke-linecap:round; stroke-linejoin:round;">
<g transform="rotate(-90.000000 161.1651 49.5274)">
<text x="161.1651" y="52.1729" textLength="30.5493" font-size="7.0547" lengthAdjust="spacingAndGlyphs" text-anchor="middle" opacity="0" stroke-opacity="0">U-Blox</text>
</g>
<g class="stroked-text"><desc>U-Blox</desc>
<path d="M158.2806 62.8809 L162.5638 62.8809 "/>
<path d="M162.5638 62.8809 L163.0677 62.6289 "/>
<path d="M163.0677 62.6289 L163.3196 62.3770 "/>
<path d="M163.3196 62.3770 L163.5716 61.8731 "/>
<path d="M163.5716 61.8731 L163.5716 60.8653 "/>
<path d="M163.5716 60.8653 L163.3196 60.3614 "/>
<path d="M163.3196 60.3614 L163.0677 60.1094 "/>
<path d="M163.0677 60.1094 L162.5638 59.8575 "/>
<path d="M162.5638 59.8575 L158.2806 59.8575 "/>
<path d="M161.5559 57.3379 L161.5559 53.3067 "/>
<path d="M160.8001 49.0235 L161.0520 48.2676 "/>
<path d="M161.0520 48.2676 L161.3040 48.0157 "/>
<path d="M161.3040 48.0157 L161.8079 47.7637 "/>
<path d="M161.8079 47.7637 L162.5638 47.7637 "/>
<path d="M162.5638 47.7637 L163.0677 48.0157 "/>
<path d="M163.0677 48.0157 L163.3196 48.2676 "/>
<path d="M163.3196 48.2676 L163.5716 48.7716 "/>
<path d="M163.5716 48.7716 L163.5716 50.7872 "/>
<path d="M163.5716 50.7872 L158.2806 50.7872 "/>
<path d="M158.2806 50.7872 L158.2806 49.0235 "/>
<path d="M158.2806 49.0235 L158.5325 48.5196 "/>
<path d="M158.5325 48.5196 L158.7845 48.2676 "/>
<path d="M158.7845 48.2676 L159.2884 48.0157 "/>
<path d="M159.2884 48.0157 L159.7923 48.0157 "/>
<path d="M159.7923 48.0157 L160.2962 48.2676 "/>
<path d="M160.2962 48.2676 L160.5481 48.5196 "/>
<path d="M160.5481 48.5196 L160.8001 49.0235 "/>
<path d="M160.8001 49.0235 L160.8001 50.7872 "/>
<path d="M163.5716 44.7403 L163.3196 45.2442 "/>
<path d="M163.3196 45.2442 L162.8157 45.4962 "/>
<path d="M162.8157 45.4962 L158.2806 45.4962 "/>
<path d="M163.5716 41.9688 L163.3196 42.4727 "/>
<path d="M163.3196 42.4727 L163.0677 42.7247 "/>
<path d="M163.0677 42.7247 L162.5638 42.9766 "/>
<path d="M162.5638 42.9766 L161.0520 42.9766 "/>
<path d="M161.0520 42.9766 L160.5481 42.7247 "/>
<path d="M160.5481 42.7247 L160.2962 42.4727 "/>
<path d="M160.2962 42.4727 L160.0442 41.9688 "/>
<path d="M160.0442 41.9688 L160.0442 41.2130 "/>
<path d="M160.0442 41.2130 L160.2962 40.7091 "/>
<path d="M160.2962 40.7091 L160.5481 40.4571 "/>
<path d="M160.5481 40.4571 L161.0520 40.2052 "/>
<path d="M161.0520 40.2052 L162.5638 40.2052 "/>
<path d="M162.5638 40.2052 L163.0677 40.4571 "/>
<path d="M163.0677 40.4571 L163.3196 40.7091 "/>
<path d="M163.3196 40.7091 L163.5716 41.2130 "/>
<path d="M163.5716 41.2130 L163.5716 41.9688 "/>
<path d="M163.5716 38.4415 L160.0442 35.6700 "/>
<path d="M160.0442 38.4415 L163.5716 35.6700 "/>
</g><g transform="rotate(-90.000000 152.6995 44.7655)">
<text x="152.6995" y="47.4110" textLength="40.3754" font-size="7.0547" lengthAdjust="spacingAndGlyphs" text-anchor="middle" opacity="0" stroke-opacity="0">CAM-M8Q</text>
</g>
<g class="stroked-text"><desc>CAM-M8Q</desc>
<path d="M154.6021 60.0086 L154.8540 60.2606 "/>
<path d="M154.8540 60.2606 L155.1060 61.0164 "/>
<path d="M155.1060 61.0164 L155.1060 61.5203 "/>
<path d="M155.1060 61.5203 L154.8540 62.2762 "/>
<path d="M154.8540 62.2762 L154.3501 62.7801 "/>
<path d="M154.3501 62.7801 L153.8462 63.0321 "/>
<path d="M153.8462 63.0321 L152.8384 63.2840 "/>
<path d="M152.8384 63.2840 L152.0825 63.2840 "/>
<path d="M152.0825 63.2840 L151.0747 63.0321 "/>
<path d="M151.0747 63.0321 L150.5708 62.7801 "/>
<path d="M150.5708 62.7801 L150.0669 62.2762 "/>
<path d="M150.0669 62.2762 L149.8150 61.5203 "/>
<path d="M149.8150 61.5203 L149.8150 61.0164 "/>
<path d="M149.8150 61.0164 L150.0669 60.2606 "/>
<path d="M150.0669 60.2606 L150.3189 60.0086 "/>
<path d="M153.5942 57.9930 L153.5942 55.4735 "/>
<path d="M155.1060 58.4969 L149.8150 56.7332 "/>
<path d="M149.8150 56.7332 L155.1060 54.9696 "/>
<path d="M155.1060 53.2059 L149.8150 53.2059 "/>
<path d="M149.8150 53.2059 L153.5942 51.4422 "/>
<path d="M153.5942 51.4422 L149.8150 49.6786 "/>
<path d="M149.8150 49.6786 L155.1060 49.6786 "/>
<path d="M153.0903 47.1590 L153.0903 43.1278 "/>
<path d="M155.1060 40.6083 L149.8150 40.6083 "/>
<path d="M149.8150 40.6083 L153.5942 38.8446 "/>
<path d="M153.5942 38.8446 L149.8150 37.0809 "/>
<path d="M149.8150 37.0809 L155.1060 37.0809 "/>
<path d="M152.0825 33.8056 L151.8306 34.3095 "/>
<path d="M151.8306 34.3095 L151.5786 34.5614 "/>
<path d="M151.5786 34.5614 L151.0747 34.8134 "/>
<path d="M151.0747 34.8134 L150.8228 34.8134 "/>
<path d="M150.8228 34.8134 L150.3189 34.5614 "/>
<path d="M150.3189 34.5614 L150.0669 34.3095 "/>
<path d="M150.0669 34.3095 L149.8150 33.8056 "/>
<path d="M149.8150 33.8056 L149.8150 32.7978 "/>
<path d="M149.8150 32.7978 L150.0669 32.2938 "/>
<path d="M150.0669 32.2938 L150.3189 32.0419 "/>
<path d="M150.3189 32.0419 L150.8228 31.7899 "/>
<path d="M150.8228 31.7899 L151.0747 31.7899 "/>
<path d="M151.0747 31.7899 L151.5786 32.0419 "/>
<path d="M151.5786 32.0419 L151.8306 32.2938 "/>
<path d="M151.8306 32.2938 L152.0825 32.7978 "/>
<path d="M152.0825 32.7978 L152.0825 33.8056 "/>
<path d="M152.0825 33.8056 L152.3345 34.3095 "/>
<path d="M152.3345 34.3095 L152.5864 34.5614 "/>
<path d="M152.5864 34.5614 L153.0903 34.8134 "/>
<path d="M153.0903 34.8134 L154.0981 34.8134 "/>
<path d="M154.0981 34.8134 L154.6021 34.5614 "/>
<path d="M154.6021 34.5614 L154.8540 34.3095 "/>
<path d="M154.8540 34.3095 L155.1060 33.8056 "/>
<path d="M155.1060 33.8056 L155.1060 32.7978 "/>
<path d="M155.1060 32.7978 L154.8540 32.2938 "/>
<path d="M154.8540 32.2938 L154.6021 32.0419 "/>
<path d="M154.6021 32.0419 L154.0981 31.7899 "/>
<path d="M154.0981 31.7899 L153.0903 31.7899 "/>
<path d="M153.0903 31.7899 L152.5864 32.0419 "/>
<path d="M152.5864 32.0419 L152.3345 32.2938 "/>
<path d="M152.3345 32.2938 L152.0825 32.7978 "/>
<path d="M155.6099 25.9950 L155.3579 26.4989 "/>
<path d="M155.3579 26.4989 L154.8540 27.0028 "/>
<path d="M154.8540 27.0028 L154.0981 27.7587 "/>
<path d="M154.0981 27.7587 L153.8462 28.2626 "/>
<path d="M153.8462 28.2626 L153.8462 28.7665 "/>
<path d="M155.1060 28.5146 L154.8540 29.0185 "/>
<path d="M154.8540 29.0185 L154.3501 29.5224 "/>
<path d="M154.3501 29.5224 L153.3423 29.7743 "/>
<path d="M153.3423 29.7743 L151.5786 29.7743 "/>
<path d="M151.5786 29.7743 L150.5708 29.5224 "/>
<path d="M150.5708 29.5224 L150.0669 29.0185 "/>
<path d="M150.0669 29.0185 L149.8150 28.5146 "/>
<path d="M149.8150 28.5146 L149.8150 27.5067 "/>
<path d="M149.8150 27.5067 L150.0669 27.0028 "/>
<path d="M150.0669 27.0028 L150.5708 26.4989 "/>
<path d="M150.5708 26.4989 L151.5786 26.2470 "/>
<path d="M151.5786 26.2470 L153.3423 26.2470 "/>
<path d="M153.3423 26.2470 L154.3501 26.4989 "/>
<path d="M154.3501 26.4989 L154.8540 27.0028 "/>
<path d="M154.8540 27.0028 L155.1060 27.5067 "/>
<path d="M155.1060 27.5067 L155.1060 28.5146 "/>
</g></g>
<g style="fill:none;  stroke:#848484; stroke-width:0.5291; stroke-opacity:1;  stroke-linecap:round; stroke-linejoin:round;">
<g transform="rotate(-90.000000 140.5302 27.8343)">
<text x="140.5302" y="29.9507" textLength="11.0204" font-size="5.6437" lengthAdjust="spacingAndGlyphs" text-anchor="middle" opacity="0" stroke-opacity="0">IC1</text>
</g>
<g class="stroked-text"><desc>IC1</desc>
<path d="M142.4609 31.9663 L138.2281 31.9663 "/>
<path d="M142.0577 27.5319 L142.2593 27.7335 "/>
<path d="M142.2593 27.7335 L142.4609 28.3382 "/>
<path d="M142.4609 28.3382 L142.4609 28.7413 "/>
<path d="M142.4609 28.7413 L142.2593 29.3460 "/>
<path d="M142.2593 29.3460 L141.8562 29.7491 "/>
<path d="M141.8562 29.7491 L141.4531 29.9507 "/>
<path d="M141.4531 29.9507 L140.6468 30.1522 "/>
<path d="M140.6468 30.1522 L140.0421 30.1522 "/>
<path d="M140.0421 30.1522 L139.2359 29.9507 "/>
<path d="M139.2359 29.9507 L138.8327 29.7491 "/>
<path d="M138.8327 29.7491 L138.4296 29.3460 "/>
<path d="M138.4296 29.3460 L138.2281 28.7413 "/>
<path d="M138.2281 28.7413 L138.2281 28.3382 "/>
<path d="M138.2281 28.3382 L138.4296 27.7335 "/>
<path d="M138.4296 27.7335 L138.6312 27.5319 "/>
<path d="M142.4609 23.5007 L142.4609 25.9194 "/>
<path d="M142.4609 24.7101 L138.2281 24.7101 "/>
<path d="M138.2281 24.7101 L138.8327 25.1132 "/>
<path d="M138.8327 25.1132 L139.2359 25.5163 "/>
<path d="M139.2359 25.5163 L139.4374 25.9194 "/>
</g></g>
<g style="fill:none;  stroke:#848484; stroke-width:0.7937; stroke-opacity:1;  stroke-linecap:round; stroke-linejoin:round;">
<text x="40.9879" y="100.8766" textLength="21.4790" font-size="7.0547" lengthAdjust="spacingAndGlyphs" text-anchor="middle" opacity="0" stroke-opacity="0">HOLE</text>
<g class="stroked-text"><desc>HOLE</desc>
<path d="M32.1695 100.6376 L32.1695 95.3466 "/>
<path d="M32.1695 97.8661 L35.1930 97.8661 "/>
<path d="M35.1930 100.6376 L35.1930 95.3466 "/>
<path d="M38.7203 95.3466 L39.7281 95.3466 "/>
<path d="M39.7281 95.3466 L40.2320 95.5985 "/>
<path d="M40.2320 95.5985 L40.7359 96.1024 "/>
<path d="M40.7359 96.1024 L40.9879 97.1102 "/>
<path d="M40.9879 97.1102 L40.9879 98.8739 "/>
<path d="M40.9879 98.8739 L40.7359 99.8817 "/>
<path d="M40.7359 99.8817 L40.2320 100.3856 "/>
<path d="M40.2320 100.3856 L39.7281 100.6376 "/>
<path d="M39.7281 100.6376 L38.7203 100.6376 "/>
<path d="M38.7203 100.6376 L38.2164 100.3856 "/>
<path d="M38.2164 100.3856 L37.7125 99.8817 "/>
<path d="M37.7125 99.8817 L37.4605 98.8739 "/>
<path d="M37.4605 98.8739 L37.4605 97.1102 "/>
<path d="M37.4605 97.1102 L37.7125 96.1024 "/>
<path d="M37.7125 96.1024 L38.2164 95.5985 "/>
<path d="M38.2164 95.5985 L38.7203 95.3466 "/>
<path d="M45.7750 100.6376 L43.2554 100.6376 "/>
<path d="M43.2554 100.6376 L43.2554 95.3466 "/>
<path d="M47.5386 97.8661 L49.3023 97.8661 "/>
<path d="M50.0582 100.6376 L47.5386 100.6376 "/>
<path d="M47.5386 100.6376 L47.5386 95.3466 "/>
<path d="M47.5386 95.3466 L50.0582 95.3466 "/>
</g><text x="40.9879" y="80.7708" textLength="12.4087" font-size="7.0547" lengthAdjust="spacingAndGlyphs" text-anchor="middle" opacity="0" stroke-opacity="0">M1</text>
<g class="stroked-text"><desc>M1</desc>
<path d="M36.7047 80.5317 L36.7047 75.2407 "/>
<path d="M36.7047 75.2407 L38.4683 79.0200 "/>
<path d="M38.4683 79.0200 L40.2320 75.2407 "/>
<path d="M40.2320 75.2407 L40.2320 80.5317 "/>
<path d="M45.5230 80.5317 L42.4996 80.5317 "/>
<path d="M44.0113 80.5317 L44.0113 75.2407 "/>
<path d="M44.0113 75.2407 L43.5074 75.9966 "/>
<path d="M43.5074 75.9966 L43.0035 76.5005 "/>
<path d="M43.0035 76.5005 L42.4996 76.7524 "/>
</g><text x="40.9879" y="208.3898" textLength="21.4790" font-size="7.0547" lengthAdjust="spacingAndGlyphs" text-anchor="middle" opacity="0" stroke-opacity="0">HOLE</text>
<g class="stroked-text"><desc>HOLE</desc>
<path d="M32.1695 208.1508 L32.1695 202.8598 "/>
<path d="M32.1695 205.3793 L35.1930 205.3793 "/>
<path d="M35.1930 208.1508 L35.1930 202.8598 "/>
<path d="M38.7203 202.8598 L39.7281 202.8598 "/>
<path d="M39.7281 202.8598 L40.2320 203.1117 "/>
<path d="M40.2320 203.1117 L40.7359 203.6156 "/>
<path d="M40.7359 203.6156 L40.9879 204.6234 "/>
<path d="M40.9879 204.6234 L40.9879 206.3871 "/>
<path d="M40.9879 206.3871 L40.7359 207.3949 "/>
<path d="M40.7359 207.3949 L40.2320 207.8988 "/>
<path d="M40.2320 207.8988 L39.7281 208.1508 "/>
<path d="M39.7281 208.1508 L38.7203 208.1508 "/>
<path d="M38.7203 208.1508 L38.2164 207.8988 "/>
<path d="M38.2164 207.8988 L37.7125 207.3949 "/>
<path d="M37.7125 207.3949 L37.4605 206.3871 "/>
<path d="M37.4605 206.3871 L37.4605 204.6234 "/>
<path d="M37.4605 204.6234 L37.7125 203.6156 "/>
<path d="M37.7125 203.6156 L38.2164 203.1117 "/>
<path d="M38.2164 203.1117 L38.7203 202.8598 "/>
<path d="M45.7750 208.1508 L43.2554 208.1508 "/>
<path d="M43.2554 208.1508 L43.2554 202.8598 "/>
<path d="M47.5386 205.3793 L49.3023 205.3793 "/>
<path d="M50.0582 208.1508 L47.5386 208.1508 "/>
<path d="M47.5386 208.1508 L47.5386 202.8598 "/>
<path d="M47.5386 202.8598 L50.0582 202.8598 "/>
</g><text x="40.9879" y="188.2840" textLength="12.4087" font-size="7.0547" lengthAdjust="spacingAndGlyphs" text-anchor="middle" opacity="0" stroke-opacity="0">M3</text>
<g class="stroked-text"><desc>M3</desc>
<path d="M36.7047 188.0450 L36.7047 182.7540 "/>
<path d="M36.7047 182.7540 L38.4683 186.5332 "/>
<path d="M38.4683 186.5332 L40.2320 182.7540 "/>
<path d="M40.2320 182.7540 L40.2320 188.0450 "/>
<path d="M42.2476 182.7540 L45.5230 182.7540 "/>
<path d="M45.5230 182.7540 L43.7593 184.7696 "/>
<path d="M43.7593 184.7696 L44.5152 184.7696 "/>
<path d="M44.5152 184.7696 L45.0191 185.0215 "/>
<path d="M45.0191 185.0215 L45.2711 185.2735 "/>
<path d="M45.2711 185.2735 L45.5230 185.7774 "/>
<path d="M45.5230 185.7774 L45.5230 187.0372 "/>
<path d="M45.5230 187.0372 L45.2711 187.5411 "/>
<path d="M45.2711 187.5411 L45.0191 187.7930 "/>
<path d="M45.0191 187.7930 L44.5152 188.0450 "/>
<path d="M44.5152 188.0450 L43.0035 188.0450 "/>
<path d="M43.0035 188.0450 L42.4996 187.7930 "/>
<path d="M42.4996 187.7930 L42.2476 187.5411 "/>
</g><g transform="rotate(-90.000000 164.4270 163.4692)">
<text x="164.4270" y="166.1147" textLength="16.6919" font-size="7.0547" lengthAdjust="spacingAndGlyphs" text-anchor="middle" opacity="0" stroke-opacity="0">RED</text>
</g>
<g class="stroked-text"><desc>RED</desc>
<path d="M166.8335 166.8706 L164.3139 168.6342 "/>
<path d="M166.8335 169.8940 L161.5425 169.8940 "/>
<path d="M161.5425 169.8940 L161.5425 167.8784 "/>
<path d="M161.5425 167.8784 L161.7944 167.3745 "/>
<path d="M161.7944 167.3745 L162.0464 167.1225 "/>
<path d="M162.0464 167.1225 L162.5503 166.8706 "/>
<path d="M162.5503 166.8706 L163.3061 166.8706 "/>
<path d="M163.3061 166.8706 L163.8100 167.1225 "/>
<path d="M163.8100 167.1225 L164.0620 167.3745 "/>
<path d="M164.0620 167.3745 L164.3139 167.8784 "/>
<path d="M164.3139 167.8784 L164.3139 169.8940 "/>
<path d="M164.0620 164.6030 L164.0620 162.8393 "/>
<path d="M166.8335 162.0835 L166.8335 164.6030 "/>
<path d="M166.8335 164.6030 L161.5425 164.6030 "/>
<path d="M161.5425 164.6030 L161.5425 162.0835 "/>
<path d="M166.8335 159.8159 L161.5425 159.8159 "/>
<path d="M161.5425 159.8159 L161.5425 158.5561 "/>
<path d="M161.5425 158.5561 L161.7944 157.8003 "/>
<path d="M161.7944 157.8003 L162.2983 157.2964 "/>
<path d="M162.2983 157.2964 L162.8022 157.0444 "/>
<path d="M162.8022 157.0444 L163.8100 156.7925 "/>
<path d="M163.8100 156.7925 L164.5659 156.7925 "/>
<path d="M164.5659 156.7925 L165.5737 157.0444 "/>
<path d="M165.5737 157.0444 L166.0776 157.2964 "/>
<path d="M166.0776 157.2964 L166.5815 157.8003 "/>
<path d="M166.5815 157.8003 L166.8335 158.5561 "/>
<path d="M166.8335 158.5561 L166.8335 159.8159 "/>
</g></g>
<g style="fill:none;  stroke:#848484; stroke-width:0.3175; stroke-opacity:1;  stroke-linecap:round; stroke-linejoin:round;">
<g transform="rotate(-90.000000 171.9932 163.4692)">
<text x="171.9932" y="164.5274" textLength="4.6611" font-size="2.8219" lengthAdjust="spacingAndGlyphs" text-anchor="middle" opacity="0" stroke-opacity="0">D2</text>
</g>
<g class="stroked-text"><desc>D2</desc>
<path d="M172.9557 165.0313 L170.8393 165.0313 "/>
<path d="M170.8393 165.0313 L170.8393 164.5274 "/>
<path d="M170.8393 164.5274 L170.9401 164.2251 "/>
<path d="M170.9401 164.2251 L171.1417 164.0235 "/>
<path d="M171.1417 164.0235 L171.3432 163.9227 "/>
<path d="M171.3432 163.9227 L171.7464 163.8219 "/>
<path d="M171.7464 163.8219 L172.0487 163.8219 "/>
<path d="M172.0487 163.8219 L172.4518 163.9227 "/>
<path d="M172.4518 163.9227 L172.6534 164.0235 "/>
<path d="M172.6534 164.0235 L172.8550 164.2251 "/>
<path d="M172.8550 164.2251 L172.9557 164.5274 "/>
<path d="M172.9557 164.5274 L172.9557 165.0313 "/>
<path d="M171.0409 163.0157 L170.9401 162.9149 "/>
<path d="M170.9401 162.9149 L170.8393 162.7133 "/>
<path d="M170.8393 162.7133 L170.8393 162.2094 "/>
<path d="M170.8393 162.2094 L170.9401 162.0079 "/>
<path d="M170.9401 162.0079 L171.0409 161.9071 "/>
<path d="M171.0409 161.9071 L171.2425 161.8063 "/>
<path d="M171.2425 161.8063 L171.4440 161.8063 "/>
<path d="M171.4440 161.8063 L171.7464 161.9071 "/>
<path d="M171.7464 161.9071 L172.9557 163.1165 "/>
<path d="M172.9557 163.1165 L172.9557 161.8063 "/>
</g></g>
<g style="fill:none;  stroke:#848484; stroke-width:0.7937; stroke-opacity:1;  stroke-linecap:round; stroke-linejoin:round;">
<text x="256.0143" y="208.3898" textLength="21.4790" font-size="7.0547" lengthAdjust="spacingAndGlyphs" text-anchor="middle" opacity="0" stroke-opacity="0">HOLE</text>
<g class="stroked-text"><desc>HOLE</desc>
<path d="M247.1960 208.1508 L247.1960 202.8598 "/>
<path d="M247.1960 205.3793 L250.2194 205.3793 "/>
<path d="M250.2194 208.1508 L250.2194 202.8598 "/>
<path d="M253.7468 202.8598 L254.7546 202.8598 "/>
<path d="M254.7546 202.8598 L255.2585 203.1117 "/>
<path d="M255.2585 203.1117 L255.7624 203.6156 "/>
<path d="M255.7624 203.6156 L256.0143 204.6234 "/>
<path d="M256.0143 204.6234 L256.0143 206.3871 "/>
<path d="M256.0143 206.3871 L255.7624 207.3949 "/>
<path d="M255.7624 207.3949 L255.2585 207.8988 "/>
<path d="M255.2585 207.8988 L254.7546 208.1508 "/>
<path d="M254.7546 208.1508 L253.7468 208.1508 "/>
<path d="M253.7468 208.1508 L253.2428 207.8988 "/>
<path d="M253.2428 207.8988 L252.7389 207.3949 "/>
<path d="M252.7389 207.3949 L252.4870 206.3871 "/>
<path d="M252.4870 206.3871 L252.4870 204.6234 "/>
<path d="M252.4870 204.6234 L252.7389 203.6156 "/>
<path d="M252.7389 203.6156 L253.2428 203.1117 "/>
<path d="M253.2428 203.1117 L253.7468 202.8598 "/>
<path d="M260.8014 208.1508 L258.2819 208.1508 "/>
<path d="M258.2819 208.1508 L258.2819 202.8598 "/>
<path d="M262.5651 205.3793 L264.3288 205.3793 "/>
<path d="M265.0846 208.1508 L262.5651 208.1508 "/>
<path d="M262.5651 208.1508 L262.5651 202.8598 "/>
<path d="M262.5651 202.8598 L265.0846 202.8598 "/>
</g><text x="256.0143" y="188.2840" textLength="12.4087" font-size="7.0547" lengthAdjust="spacingAndGlyphs" text-anchor="middle" opacity="0" stroke-opacity="0">M2</text>
<g class="stroked-text"><desc>M2</desc>
<path d="M251.7311 188.0450 L251.7311 182.7540 "/>
<path d="M251.7311 182.7540 L253.4948 186.5332 "/>
<path d="M253.4948 186.5332 L255.2585 182.7540 "/>
<path d="M255.2585 182.7540 L255.2585 188.0450 "/>
<path d="M257.5260 183.2579 L257.7780 183.0059 "/>
<path d="M257.7780 183.0059 L258.2819 182.7540 "/>
<path d="M258.2819 182.7540 L259.5417 182.7540 "/>
<path d="M259.5417 182.7540 L260.0456 183.0059 "/>
<path d="M260.0456 183.0059 L260.2975 183.2579 "/>
<path d="M260.2975 183.2579 L260.5495 183.7618 "/>
<path d="M260.5495 183.7618 L260.5495 184.2657 "/>
<path d="M260.5495 184.2657 L260.2975 185.0215 "/>
<path d="M260.2975 185.0215 L257.2741 188.0450 "/>
<path d="M257.2741 188.0450 L260.5495 188.0450 "/>
</g></g>
<g style="fill:none;  stroke:#848484; stroke-width:0.5291; stroke-opacity:1;  stroke-linecap:round; stroke-linejoin:round;">
<path d="M225.7498 159.2364 L225.7498 167.7020 "/>
<path d="M225.7498 167.7020 L229.9826 167.7020 "/>
<path d="M228.3953 159.2364 L225.7498 159.2364 "/>
<path d="M229.9826 160.8237 L228.3953 159.2364 "/>
<path d="M229.9826 167.7020 L229.9826 160.8237 "/>
<path d="M123.0699 1.3793 L173.8635 1.3793 "/>
<path d="M123.0699 75.4533 L123.0699 1.3793 "/>
<path d="M173.8635 1.3793 L173.8635 75.4533 "/>
<path d="M173.8635 75.4533 L123.0699 75.4533 "/>
<path d="M169.8768 159.2364 L169.8768 167.7020 "/>
<path d="M169.8768 167.7020 L174.1096 167.7020 "/>
<path d="M172.5223 159.2364 L169.8768 159.2364 "/>
<path d="M174.1096 160.8237 L172.5223 159.2364 "/>
<path d="M174.1096 167.7020 L174.1096 160.8237 "/>
</g> 
<svg:g><svg:g><svg:title>SVG Image created as TFGPSLITE01-Edge_Cuts.svg date 2024/10/18 12:56:07 </svg:title>
  <svg:desc>Image generated by PCBNEW </svg:desc>
<svg:g style="fill:#C2C200; fill-opacity:1.0000;stroke:#C2C200; stroke-opacity:1.0000; stroke-linecap:round; stroke-linejoin:round;" transform="translate(0 0) scale(1 1)">
<svg:path style="fill:none;  stroke:#C2C200; stroke-width:0.2646; stroke-opacity:1;  stroke-linecap:round; stroke-linejoin:round;fill:none" d="M 16.7551,0.1359 280.2471,0.1359 280.2471,209.8713 16.7551,209.8713 Z"/> 
</svg:g> 
</svg:g></svg:g></svg>
