%TF.GenerationSoftware,KiCad,Pcbnew,8.0.6+1*%
%TF.CreationDate,2025-01-01T23:09:40+00:00*%
%TF.ProjectId,TFGPSLITE02,54464750-534c-4495-9445-30322e6b6963,rev?*%
%TF.SameCoordinates,Original*%
%TF.FileFunction,Paste,Bot*%
%TF.FilePolarity,Positive*%
%FSLAX46Y46*%
G04 Gerber Fmt 4.6, Leading zero omitted, Abs format (unit mm)*
G04 Created by KiCad (PCBNEW 8.0.6+1) date 2025-01-01 23:09:40*
%MOMM*%
%LPD*%
G01*
G04 APERTURE LIST*
G04 Aperture macros list*
%AMRoundRect*
0 Rectangle with rounded corners*
0 $1 Rounding radius*
0 $2 $3 $4 $5 $6 $7 $8 $9 X,Y pos of 4 corners*
0 Add a 4 corners polygon primitive as box body*
4,1,4,$2,$3,$4,$5,$6,$7,$8,$9,$2,$3,0*
0 Add four circle primitives for the rounded corners*
1,1,$1+$1,$2,$3*
1,1,$1+$1,$4,$5*
1,1,$1+$1,$6,$7*
1,1,$1+$1,$8,$9*
0 Add four rect primitives between the rounded corners*
20,1,$1+$1,$2,$3,$4,$5,0*
20,1,$1+$1,$4,$5,$6,$7,0*
20,1,$1+$1,$6,$7,$8,$9,0*
20,1,$1+$1,$8,$9,$2,$3,0*%
G04 Aperture macros list end*
%ADD10RoundRect,0.250000X-0.450000X0.262500X-0.450000X-0.262500X0.450000X-0.262500X0.450000X0.262500X0*%
%ADD11RoundRect,0.250000X-0.475000X0.250000X-0.475000X-0.250000X0.475000X-0.250000X0.475000X0.250000X0*%
%ADD12RoundRect,0.250000X0.450000X-0.262500X0.450000X0.262500X-0.450000X0.262500X-0.450000X-0.262500X0*%
%ADD13RoundRect,0.250000X-0.262500X-0.450000X0.262500X-0.450000X0.262500X0.450000X-0.262500X0.450000X0*%
%ADD14RoundRect,0.150000X0.150000X-0.512500X0.150000X0.512500X-0.150000X0.512500X-0.150000X-0.512500X0*%
%ADD15RoundRect,0.250000X0.475000X-0.250000X0.475000X0.250000X-0.475000X0.250000X-0.475000X-0.250000X0*%
%ADD16RoundRect,0.250000X0.262500X0.450000X-0.262500X0.450000X-0.262500X-0.450000X0.262500X-0.450000X0*%
%ADD17RoundRect,0.150000X-0.200000X0.150000X-0.200000X-0.150000X0.200000X-0.150000X0.200000X0.150000X0*%
%ADD18RoundRect,0.250000X-0.250000X-0.475000X0.250000X-0.475000X0.250000X0.475000X-0.250000X0.475000X0*%
%ADD19RoundRect,0.150000X0.150000X0.700000X-0.150000X0.700000X-0.150000X-0.700000X0.150000X-0.700000X0*%
%ADD20RoundRect,0.250000X0.250000X1.100000X-0.250000X1.100000X-0.250000X-1.100000X0.250000X-1.100000X0*%
%ADD21RoundRect,0.250000X0.625000X-0.312500X0.625000X0.312500X-0.625000X0.312500X-0.625000X-0.312500X0*%
G04 APERTURE END LIST*
D10*
%TO.C,R2*%
X129610000Y-115067500D03*
X129610000Y-116892500D03*
%TD*%
D11*
%TO.C,C5*%
X133740000Y-115040000D03*
X133740000Y-116940000D03*
%TD*%
D12*
%TO.C,R9*%
X139840000Y-116880000D03*
X139840000Y-115055000D03*
%TD*%
D13*
%TO.C,R6*%
X125447500Y-107940000D03*
X127272500Y-107940000D03*
%TD*%
%TO.C,R5*%
X125437500Y-106030000D03*
X127262500Y-106030000D03*
%TD*%
D10*
%TO.C,R3*%
X131620000Y-115067500D03*
X131620000Y-116892500D03*
%TD*%
D12*
%TO.C,R1*%
X148740000Y-105942500D03*
X148740000Y-104117500D03*
%TD*%
D14*
%TO.C,U1*%
X148302500Y-115342500D03*
X147352500Y-115342500D03*
X146402500Y-115342500D03*
X146402500Y-113067500D03*
X148302500Y-113067500D03*
%TD*%
D15*
%TO.C,C1*%
X127350000Y-113100000D03*
X127350000Y-111200000D03*
%TD*%
D12*
%TO.C,R10*%
X137810000Y-116885000D03*
X137810000Y-115060000D03*
%TD*%
D16*
%TO.C,R7*%
X127192500Y-116870000D03*
X125367500Y-116870000D03*
%TD*%
%TO.C,R4*%
X137842500Y-100740000D03*
X136017500Y-100740000D03*
%TD*%
D15*
%TO.C,C4*%
X147070000Y-111295000D03*
X147070000Y-109395000D03*
%TD*%
D17*
%TO.C,D1*%
X146950000Y-105470000D03*
X146950000Y-104070000D03*
%TD*%
D18*
%TO.C,C3*%
X145872500Y-117465000D03*
X147772500Y-117465000D03*
%TD*%
D19*
%TO.C,J1*%
X132265000Y-120230000D03*
X131015000Y-120230000D03*
X129765000Y-120230000D03*
X128515000Y-120230000D03*
X127265000Y-120230000D03*
X126015000Y-120230000D03*
D20*
X134115000Y-123430000D03*
X124165000Y-123430000D03*
%TD*%
D16*
%TO.C,R8*%
X127202500Y-114870000D03*
X125377500Y-114870000D03*
%TD*%
D19*
%TO.C,J2*%
X142945000Y-120270000D03*
X141695000Y-120270000D03*
X140445000Y-120270000D03*
X139195000Y-120270000D03*
D20*
X144795000Y-123470000D03*
X137345000Y-123470000D03*
%TD*%
D21*
%TO.C,C2*%
X145050000Y-105982500D03*
X145050000Y-103057500D03*
%TD*%
D12*
%TO.C,R11*%
X149090000Y-111277500D03*
X149090000Y-109452500D03*
%TD*%
M02*
