%TF.GenerationSoftware,KiCad,Pcbnew,8.0.4+1*%
%TF.CreationDate,2024-10-18T12:55:20+00:00*%
%TF.ProjectId,TFGPSLITE01,54464750-534c-4495-9445-30312e6b6963,rev?*%
%TF.SameCoordinates,Original*%
%TF.FileFunction,Legend,Bot*%
%TF.FilePolarity,Positive*%
%FSLAX46Y46*%
G04 Gerber Fmt 4.6, Leading zero omitted, Abs format (unit mm)*
G04 Created by KiCad (PCBNEW 8.0.4+1) date 2024-10-18 12:55:20*
%MOMM*%
%LPD*%
G01*
G04 APERTURE LIST*
%ADD10C,0.150000*%
%ADD11C,0.100000*%
%ADD12C,0.120000*%
G04 APERTURE END LIST*
D10*
X129306666Y-103654819D02*
X129639999Y-103178628D01*
X129878094Y-103654819D02*
X129878094Y-102654819D01*
X129878094Y-102654819D02*
X129497142Y-102654819D01*
X129497142Y-102654819D02*
X129401904Y-102702438D01*
X129401904Y-102702438D02*
X129354285Y-102750057D01*
X129354285Y-102750057D02*
X129306666Y-102845295D01*
X129306666Y-102845295D02*
X129306666Y-102988152D01*
X129306666Y-102988152D02*
X129354285Y-103083390D01*
X129354285Y-103083390D02*
X129401904Y-103131009D01*
X129401904Y-103131009D02*
X129497142Y-103178628D01*
X129497142Y-103178628D02*
X129878094Y-103178628D01*
X128925713Y-102750057D02*
X128878094Y-102702438D01*
X128878094Y-102702438D02*
X128782856Y-102654819D01*
X128782856Y-102654819D02*
X128544761Y-102654819D01*
X128544761Y-102654819D02*
X128449523Y-102702438D01*
X128449523Y-102702438D02*
X128401904Y-102750057D01*
X128401904Y-102750057D02*
X128354285Y-102845295D01*
X128354285Y-102845295D02*
X128354285Y-102940533D01*
X128354285Y-102940533D02*
X128401904Y-103083390D01*
X128401904Y-103083390D02*
X128973332Y-103654819D01*
X128973332Y-103654819D02*
X128354285Y-103654819D01*
X139786666Y-114174819D02*
X140119999Y-113698628D01*
X140358094Y-114174819D02*
X140358094Y-113174819D01*
X140358094Y-113174819D02*
X139977142Y-113174819D01*
X139977142Y-113174819D02*
X139881904Y-113222438D01*
X139881904Y-113222438D02*
X139834285Y-113270057D01*
X139834285Y-113270057D02*
X139786666Y-113365295D01*
X139786666Y-113365295D02*
X139786666Y-113508152D01*
X139786666Y-113508152D02*
X139834285Y-113603390D01*
X139834285Y-113603390D02*
X139881904Y-113651009D01*
X139881904Y-113651009D02*
X139977142Y-113698628D01*
X139977142Y-113698628D02*
X140358094Y-113698628D01*
X139310475Y-114174819D02*
X139119999Y-114174819D01*
X139119999Y-114174819D02*
X139024761Y-114127200D01*
X139024761Y-114127200D02*
X138977142Y-114079580D01*
X138977142Y-114079580D02*
X138881904Y-113936723D01*
X138881904Y-113936723D02*
X138834285Y-113746247D01*
X138834285Y-113746247D02*
X138834285Y-113365295D01*
X138834285Y-113365295D02*
X138881904Y-113270057D01*
X138881904Y-113270057D02*
X138929523Y-113222438D01*
X138929523Y-113222438D02*
X139024761Y-113174819D01*
X139024761Y-113174819D02*
X139215237Y-113174819D01*
X139215237Y-113174819D02*
X139310475Y-113222438D01*
X139310475Y-113222438D02*
X139358094Y-113270057D01*
X139358094Y-113270057D02*
X139405713Y-113365295D01*
X139405713Y-113365295D02*
X139405713Y-113603390D01*
X139405713Y-113603390D02*
X139358094Y-113698628D01*
X139358094Y-113698628D02*
X139310475Y-113746247D01*
X139310475Y-113746247D02*
X139215237Y-113793866D01*
X139215237Y-113793866D02*
X139024761Y-113793866D01*
X139024761Y-113793866D02*
X138929523Y-113746247D01*
X138929523Y-113746247D02*
X138881904Y-113698628D01*
X138881904Y-113698628D02*
X138834285Y-113603390D01*
X143496666Y-104104819D02*
X143829999Y-103628628D01*
X144068094Y-104104819D02*
X144068094Y-103104819D01*
X144068094Y-103104819D02*
X143687142Y-103104819D01*
X143687142Y-103104819D02*
X143591904Y-103152438D01*
X143591904Y-103152438D02*
X143544285Y-103200057D01*
X143544285Y-103200057D02*
X143496666Y-103295295D01*
X143496666Y-103295295D02*
X143496666Y-103438152D01*
X143496666Y-103438152D02*
X143544285Y-103533390D01*
X143544285Y-103533390D02*
X143591904Y-103581009D01*
X143591904Y-103581009D02*
X143687142Y-103628628D01*
X143687142Y-103628628D02*
X144068094Y-103628628D01*
X142639523Y-103104819D02*
X142829999Y-103104819D01*
X142829999Y-103104819D02*
X142925237Y-103152438D01*
X142925237Y-103152438D02*
X142972856Y-103200057D01*
X142972856Y-103200057D02*
X143068094Y-103342914D01*
X143068094Y-103342914D02*
X143115713Y-103533390D01*
X143115713Y-103533390D02*
X143115713Y-103914342D01*
X143115713Y-103914342D02*
X143068094Y-104009580D01*
X143068094Y-104009580D02*
X143020475Y-104057200D01*
X143020475Y-104057200D02*
X142925237Y-104104819D01*
X142925237Y-104104819D02*
X142734761Y-104104819D01*
X142734761Y-104104819D02*
X142639523Y-104057200D01*
X142639523Y-104057200D02*
X142591904Y-104009580D01*
X142591904Y-104009580D02*
X142544285Y-103914342D01*
X142544285Y-103914342D02*
X142544285Y-103676247D01*
X142544285Y-103676247D02*
X142591904Y-103581009D01*
X142591904Y-103581009D02*
X142639523Y-103533390D01*
X142639523Y-103533390D02*
X142734761Y-103485771D01*
X142734761Y-103485771D02*
X142925237Y-103485771D01*
X142925237Y-103485771D02*
X143020475Y-103533390D01*
X143020475Y-103533390D02*
X143068094Y-103581009D01*
X143068094Y-103581009D02*
X143115713Y-103676247D01*
X141006666Y-104094819D02*
X141339999Y-103618628D01*
X141578094Y-104094819D02*
X141578094Y-103094819D01*
X141578094Y-103094819D02*
X141197142Y-103094819D01*
X141197142Y-103094819D02*
X141101904Y-103142438D01*
X141101904Y-103142438D02*
X141054285Y-103190057D01*
X141054285Y-103190057D02*
X141006666Y-103285295D01*
X141006666Y-103285295D02*
X141006666Y-103428152D01*
X141006666Y-103428152D02*
X141054285Y-103523390D01*
X141054285Y-103523390D02*
X141101904Y-103571009D01*
X141101904Y-103571009D02*
X141197142Y-103618628D01*
X141197142Y-103618628D02*
X141578094Y-103618628D01*
X140101904Y-103094819D02*
X140578094Y-103094819D01*
X140578094Y-103094819D02*
X140625713Y-103571009D01*
X140625713Y-103571009D02*
X140578094Y-103523390D01*
X140578094Y-103523390D02*
X140482856Y-103475771D01*
X140482856Y-103475771D02*
X140244761Y-103475771D01*
X140244761Y-103475771D02*
X140149523Y-103523390D01*
X140149523Y-103523390D02*
X140101904Y-103571009D01*
X140101904Y-103571009D02*
X140054285Y-103666247D01*
X140054285Y-103666247D02*
X140054285Y-103904342D01*
X140054285Y-103904342D02*
X140101904Y-103999580D01*
X140101904Y-103999580D02*
X140149523Y-104047200D01*
X140149523Y-104047200D02*
X140244761Y-104094819D01*
X140244761Y-104094819D02*
X140482856Y-104094819D01*
X140482856Y-104094819D02*
X140578094Y-104047200D01*
X140578094Y-104047200D02*
X140625713Y-103999580D01*
X132036666Y-103664819D02*
X132369999Y-103188628D01*
X132608094Y-103664819D02*
X132608094Y-102664819D01*
X132608094Y-102664819D02*
X132227142Y-102664819D01*
X132227142Y-102664819D02*
X132131904Y-102712438D01*
X132131904Y-102712438D02*
X132084285Y-102760057D01*
X132084285Y-102760057D02*
X132036666Y-102855295D01*
X132036666Y-102855295D02*
X132036666Y-102998152D01*
X132036666Y-102998152D02*
X132084285Y-103093390D01*
X132084285Y-103093390D02*
X132131904Y-103141009D01*
X132131904Y-103141009D02*
X132227142Y-103188628D01*
X132227142Y-103188628D02*
X132608094Y-103188628D01*
X131703332Y-102664819D02*
X131084285Y-102664819D01*
X131084285Y-102664819D02*
X131417618Y-103045771D01*
X131417618Y-103045771D02*
X131274761Y-103045771D01*
X131274761Y-103045771D02*
X131179523Y-103093390D01*
X131179523Y-103093390D02*
X131131904Y-103141009D01*
X131131904Y-103141009D02*
X131084285Y-103236247D01*
X131084285Y-103236247D02*
X131084285Y-103474342D01*
X131084285Y-103474342D02*
X131131904Y-103569580D01*
X131131904Y-103569580D02*
X131179523Y-103617200D01*
X131179523Y-103617200D02*
X131274761Y-103664819D01*
X131274761Y-103664819D02*
X131560475Y-103664819D01*
X131560475Y-103664819D02*
X131655713Y-103617200D01*
X131655713Y-103617200D02*
X131703332Y-103569580D01*
X146846666Y-111034819D02*
X147179999Y-110558628D01*
X147418094Y-111034819D02*
X147418094Y-110034819D01*
X147418094Y-110034819D02*
X147037142Y-110034819D01*
X147037142Y-110034819D02*
X146941904Y-110082438D01*
X146941904Y-110082438D02*
X146894285Y-110130057D01*
X146894285Y-110130057D02*
X146846666Y-110225295D01*
X146846666Y-110225295D02*
X146846666Y-110368152D01*
X146846666Y-110368152D02*
X146894285Y-110463390D01*
X146894285Y-110463390D02*
X146941904Y-110511009D01*
X146941904Y-110511009D02*
X147037142Y-110558628D01*
X147037142Y-110558628D02*
X147418094Y-110558628D01*
X145894285Y-111034819D02*
X146465713Y-111034819D01*
X146179999Y-111034819D02*
X146179999Y-110034819D01*
X146179999Y-110034819D02*
X146275237Y-110177676D01*
X146275237Y-110177676D02*
X146370475Y-110272914D01*
X146370475Y-110272914D02*
X146465713Y-110320533D01*
X148491904Y-119304819D02*
X148491904Y-120114342D01*
X148491904Y-120114342D02*
X148444285Y-120209580D01*
X148444285Y-120209580D02*
X148396666Y-120257200D01*
X148396666Y-120257200D02*
X148301428Y-120304819D01*
X148301428Y-120304819D02*
X148110952Y-120304819D01*
X148110952Y-120304819D02*
X148015714Y-120257200D01*
X148015714Y-120257200D02*
X147968095Y-120209580D01*
X147968095Y-120209580D02*
X147920476Y-120114342D01*
X147920476Y-120114342D02*
X147920476Y-119304819D01*
X146920476Y-120304819D02*
X147491904Y-120304819D01*
X147206190Y-120304819D02*
X147206190Y-119304819D01*
X147206190Y-119304819D02*
X147301428Y-119447676D01*
X147301428Y-119447676D02*
X147396666Y-119542914D01*
X147396666Y-119542914D02*
X147491904Y-119590533D01*
X142916666Y-92149580D02*
X142964285Y-92197200D01*
X142964285Y-92197200D02*
X143107142Y-92244819D01*
X143107142Y-92244819D02*
X143202380Y-92244819D01*
X143202380Y-92244819D02*
X143345237Y-92197200D01*
X143345237Y-92197200D02*
X143440475Y-92101961D01*
X143440475Y-92101961D02*
X143488094Y-92006723D01*
X143488094Y-92006723D02*
X143535713Y-91816247D01*
X143535713Y-91816247D02*
X143535713Y-91673390D01*
X143535713Y-91673390D02*
X143488094Y-91482914D01*
X143488094Y-91482914D02*
X143440475Y-91387676D01*
X143440475Y-91387676D02*
X143345237Y-91292438D01*
X143345237Y-91292438D02*
X143202380Y-91244819D01*
X143202380Y-91244819D02*
X143107142Y-91244819D01*
X143107142Y-91244819D02*
X142964285Y-91292438D01*
X142964285Y-91292438D02*
X142916666Y-91340057D01*
X141964285Y-92244819D02*
X142535713Y-92244819D01*
X142249999Y-92244819D02*
X142249999Y-91244819D01*
X142249999Y-91244819D02*
X142345237Y-91387676D01*
X142345237Y-91387676D02*
X142440475Y-91482914D01*
X142440475Y-91482914D02*
X142535713Y-91530533D01*
X137272857Y-113994819D02*
X137606190Y-113518628D01*
X137844285Y-113994819D02*
X137844285Y-112994819D01*
X137844285Y-112994819D02*
X137463333Y-112994819D01*
X137463333Y-112994819D02*
X137368095Y-113042438D01*
X137368095Y-113042438D02*
X137320476Y-113090057D01*
X137320476Y-113090057D02*
X137272857Y-113185295D01*
X137272857Y-113185295D02*
X137272857Y-113328152D01*
X137272857Y-113328152D02*
X137320476Y-113423390D01*
X137320476Y-113423390D02*
X137368095Y-113471009D01*
X137368095Y-113471009D02*
X137463333Y-113518628D01*
X137463333Y-113518628D02*
X137844285Y-113518628D01*
X136320476Y-113994819D02*
X136891904Y-113994819D01*
X136606190Y-113994819D02*
X136606190Y-112994819D01*
X136606190Y-112994819D02*
X136701428Y-113137676D01*
X136701428Y-113137676D02*
X136796666Y-113232914D01*
X136796666Y-113232914D02*
X136891904Y-113280533D01*
X135701428Y-112994819D02*
X135606190Y-112994819D01*
X135606190Y-112994819D02*
X135510952Y-113042438D01*
X135510952Y-113042438D02*
X135463333Y-113090057D01*
X135463333Y-113090057D02*
X135415714Y-113185295D01*
X135415714Y-113185295D02*
X135368095Y-113375771D01*
X135368095Y-113375771D02*
X135368095Y-113613866D01*
X135368095Y-113613866D02*
X135415714Y-113804342D01*
X135415714Y-113804342D02*
X135463333Y-113899580D01*
X135463333Y-113899580D02*
X135510952Y-113947200D01*
X135510952Y-113947200D02*
X135606190Y-113994819D01*
X135606190Y-113994819D02*
X135701428Y-113994819D01*
X135701428Y-113994819D02*
X135796666Y-113947200D01*
X135796666Y-113947200D02*
X135844285Y-113899580D01*
X135844285Y-113899580D02*
X135891904Y-113804342D01*
X135891904Y-113804342D02*
X135939523Y-113613866D01*
X135939523Y-113613866D02*
X135939523Y-113375771D01*
X135939523Y-113375771D02*
X135891904Y-113185295D01*
X135891904Y-113185295D02*
X135844285Y-113090057D01*
X135844285Y-113090057D02*
X135796666Y-113042438D01*
X135796666Y-113042438D02*
X135701428Y-112994819D01*
X126476666Y-117334819D02*
X126809999Y-116858628D01*
X127048094Y-117334819D02*
X127048094Y-116334819D01*
X127048094Y-116334819D02*
X126667142Y-116334819D01*
X126667142Y-116334819D02*
X126571904Y-116382438D01*
X126571904Y-116382438D02*
X126524285Y-116430057D01*
X126524285Y-116430057D02*
X126476666Y-116525295D01*
X126476666Y-116525295D02*
X126476666Y-116668152D01*
X126476666Y-116668152D02*
X126524285Y-116763390D01*
X126524285Y-116763390D02*
X126571904Y-116811009D01*
X126571904Y-116811009D02*
X126667142Y-116858628D01*
X126667142Y-116858628D02*
X127048094Y-116858628D01*
X126143332Y-116334819D02*
X125476666Y-116334819D01*
X125476666Y-116334819D02*
X125905237Y-117334819D01*
X133976666Y-113904819D02*
X134309999Y-113428628D01*
X134548094Y-113904819D02*
X134548094Y-112904819D01*
X134548094Y-112904819D02*
X134167142Y-112904819D01*
X134167142Y-112904819D02*
X134071904Y-112952438D01*
X134071904Y-112952438D02*
X134024285Y-113000057D01*
X134024285Y-113000057D02*
X133976666Y-113095295D01*
X133976666Y-113095295D02*
X133976666Y-113238152D01*
X133976666Y-113238152D02*
X134024285Y-113333390D01*
X134024285Y-113333390D02*
X134071904Y-113381009D01*
X134071904Y-113381009D02*
X134167142Y-113428628D01*
X134167142Y-113428628D02*
X134548094Y-113428628D01*
X133119523Y-113238152D02*
X133119523Y-113904819D01*
X133357618Y-112857200D02*
X133595713Y-113571485D01*
X133595713Y-113571485D02*
X132976666Y-113571485D01*
X154146666Y-115359580D02*
X154194285Y-115407200D01*
X154194285Y-115407200D02*
X154337142Y-115454819D01*
X154337142Y-115454819D02*
X154432380Y-115454819D01*
X154432380Y-115454819D02*
X154575237Y-115407200D01*
X154575237Y-115407200D02*
X154670475Y-115311961D01*
X154670475Y-115311961D02*
X154718094Y-115216723D01*
X154718094Y-115216723D02*
X154765713Y-115026247D01*
X154765713Y-115026247D02*
X154765713Y-114883390D01*
X154765713Y-114883390D02*
X154718094Y-114692914D01*
X154718094Y-114692914D02*
X154670475Y-114597676D01*
X154670475Y-114597676D02*
X154575237Y-114502438D01*
X154575237Y-114502438D02*
X154432380Y-114454819D01*
X154432380Y-114454819D02*
X154337142Y-114454819D01*
X154337142Y-114454819D02*
X154194285Y-114502438D01*
X154194285Y-114502438D02*
X154146666Y-114550057D01*
X153289523Y-114788152D02*
X153289523Y-115454819D01*
X153527618Y-114407200D02*
X153765713Y-115121485D01*
X153765713Y-115121485D02*
X153146666Y-115121485D01*
X144298094Y-111174819D02*
X144298094Y-110174819D01*
X144298094Y-110174819D02*
X144059999Y-110174819D01*
X144059999Y-110174819D02*
X143917142Y-110222438D01*
X143917142Y-110222438D02*
X143821904Y-110317676D01*
X143821904Y-110317676D02*
X143774285Y-110412914D01*
X143774285Y-110412914D02*
X143726666Y-110603390D01*
X143726666Y-110603390D02*
X143726666Y-110746247D01*
X143726666Y-110746247D02*
X143774285Y-110936723D01*
X143774285Y-110936723D02*
X143821904Y-111031961D01*
X143821904Y-111031961D02*
X143917142Y-111127200D01*
X143917142Y-111127200D02*
X144059999Y-111174819D01*
X144059999Y-111174819D02*
X144298094Y-111174819D01*
X142774285Y-111174819D02*
X143345713Y-111174819D01*
X143059999Y-111174819D02*
X143059999Y-110174819D01*
X143059999Y-110174819D02*
X143155237Y-110317676D01*
X143155237Y-110317676D02*
X143250475Y-110412914D01*
X143250475Y-110412914D02*
X143345713Y-110460533D01*
X152746666Y-123389580D02*
X152794285Y-123437200D01*
X152794285Y-123437200D02*
X152937142Y-123484819D01*
X152937142Y-123484819D02*
X153032380Y-123484819D01*
X153032380Y-123484819D02*
X153175237Y-123437200D01*
X153175237Y-123437200D02*
X153270475Y-123341961D01*
X153270475Y-123341961D02*
X153318094Y-123246723D01*
X153318094Y-123246723D02*
X153365713Y-123056247D01*
X153365713Y-123056247D02*
X153365713Y-122913390D01*
X153365713Y-122913390D02*
X153318094Y-122722914D01*
X153318094Y-122722914D02*
X153270475Y-122627676D01*
X153270475Y-122627676D02*
X153175237Y-122532438D01*
X153175237Y-122532438D02*
X153032380Y-122484819D01*
X153032380Y-122484819D02*
X152937142Y-122484819D01*
X152937142Y-122484819D02*
X152794285Y-122532438D01*
X152794285Y-122532438D02*
X152746666Y-122580057D01*
X152413332Y-122484819D02*
X151794285Y-122484819D01*
X151794285Y-122484819D02*
X152127618Y-122865771D01*
X152127618Y-122865771D02*
X151984761Y-122865771D01*
X151984761Y-122865771D02*
X151889523Y-122913390D01*
X151889523Y-122913390D02*
X151841904Y-122961009D01*
X151841904Y-122961009D02*
X151794285Y-123056247D01*
X151794285Y-123056247D02*
X151794285Y-123294342D01*
X151794285Y-123294342D02*
X151841904Y-123389580D01*
X151841904Y-123389580D02*
X151889523Y-123437200D01*
X151889523Y-123437200D02*
X151984761Y-123484819D01*
X151984761Y-123484819D02*
X152270475Y-123484819D01*
X152270475Y-123484819D02*
X152365713Y-123437200D01*
X152365713Y-123437200D02*
X152413332Y-123389580D01*
X129473333Y-117634819D02*
X129473333Y-118349104D01*
X129473333Y-118349104D02*
X129520952Y-118491961D01*
X129520952Y-118491961D02*
X129616190Y-118587200D01*
X129616190Y-118587200D02*
X129759047Y-118634819D01*
X129759047Y-118634819D02*
X129854285Y-118634819D01*
X128473333Y-118634819D02*
X129044761Y-118634819D01*
X128759047Y-118634819D02*
X128759047Y-117634819D01*
X128759047Y-117634819D02*
X128854285Y-117777676D01*
X128854285Y-117777676D02*
X128949523Y-117872914D01*
X128949523Y-117872914D02*
X129044761Y-117920533D01*
X126346666Y-115334819D02*
X126679999Y-114858628D01*
X126918094Y-115334819D02*
X126918094Y-114334819D01*
X126918094Y-114334819D02*
X126537142Y-114334819D01*
X126537142Y-114334819D02*
X126441904Y-114382438D01*
X126441904Y-114382438D02*
X126394285Y-114430057D01*
X126394285Y-114430057D02*
X126346666Y-114525295D01*
X126346666Y-114525295D02*
X126346666Y-114668152D01*
X126346666Y-114668152D02*
X126394285Y-114763390D01*
X126394285Y-114763390D02*
X126441904Y-114811009D01*
X126441904Y-114811009D02*
X126537142Y-114858628D01*
X126537142Y-114858628D02*
X126918094Y-114858628D01*
X125775237Y-114763390D02*
X125870475Y-114715771D01*
X125870475Y-114715771D02*
X125918094Y-114668152D01*
X125918094Y-114668152D02*
X125965713Y-114572914D01*
X125965713Y-114572914D02*
X125965713Y-114525295D01*
X125965713Y-114525295D02*
X125918094Y-114430057D01*
X125918094Y-114430057D02*
X125870475Y-114382438D01*
X125870475Y-114382438D02*
X125775237Y-114334819D01*
X125775237Y-114334819D02*
X125584761Y-114334819D01*
X125584761Y-114334819D02*
X125489523Y-114382438D01*
X125489523Y-114382438D02*
X125441904Y-114430057D01*
X125441904Y-114430057D02*
X125394285Y-114525295D01*
X125394285Y-114525295D02*
X125394285Y-114572914D01*
X125394285Y-114572914D02*
X125441904Y-114668152D01*
X125441904Y-114668152D02*
X125489523Y-114715771D01*
X125489523Y-114715771D02*
X125584761Y-114763390D01*
X125584761Y-114763390D02*
X125775237Y-114763390D01*
X125775237Y-114763390D02*
X125870475Y-114811009D01*
X125870475Y-114811009D02*
X125918094Y-114858628D01*
X125918094Y-114858628D02*
X125965713Y-114953866D01*
X125965713Y-114953866D02*
X125965713Y-115144342D01*
X125965713Y-115144342D02*
X125918094Y-115239580D01*
X125918094Y-115239580D02*
X125870475Y-115287200D01*
X125870475Y-115287200D02*
X125775237Y-115334819D01*
X125775237Y-115334819D02*
X125584761Y-115334819D01*
X125584761Y-115334819D02*
X125489523Y-115287200D01*
X125489523Y-115287200D02*
X125441904Y-115239580D01*
X125441904Y-115239580D02*
X125394285Y-115144342D01*
X125394285Y-115144342D02*
X125394285Y-114953866D01*
X125394285Y-114953866D02*
X125441904Y-114858628D01*
X125441904Y-114858628D02*
X125489523Y-114811009D01*
X125489523Y-114811009D02*
X125584761Y-114763390D01*
D11*
X146746666Y-123354895D02*
X146746666Y-123926323D01*
X146746666Y-123926323D02*
X146784761Y-124040609D01*
X146784761Y-124040609D02*
X146860952Y-124116800D01*
X146860952Y-124116800D02*
X146975237Y-124154895D01*
X146975237Y-124154895D02*
X147051428Y-124154895D01*
X146403809Y-123431085D02*
X146365713Y-123392990D01*
X146365713Y-123392990D02*
X146289523Y-123354895D01*
X146289523Y-123354895D02*
X146099047Y-123354895D01*
X146099047Y-123354895D02*
X146022856Y-123392990D01*
X146022856Y-123392990D02*
X145984761Y-123431085D01*
X145984761Y-123431085D02*
X145946666Y-123507276D01*
X145946666Y-123507276D02*
X145946666Y-123583466D01*
X145946666Y-123583466D02*
X145984761Y-123697752D01*
X145984761Y-123697752D02*
X146441904Y-124154895D01*
X146441904Y-124154895D02*
X145946666Y-124154895D01*
D10*
X144576666Y-116429580D02*
X144624285Y-116477200D01*
X144624285Y-116477200D02*
X144767142Y-116524819D01*
X144767142Y-116524819D02*
X144862380Y-116524819D01*
X144862380Y-116524819D02*
X145005237Y-116477200D01*
X145005237Y-116477200D02*
X145100475Y-116381961D01*
X145100475Y-116381961D02*
X145148094Y-116286723D01*
X145148094Y-116286723D02*
X145195713Y-116096247D01*
X145195713Y-116096247D02*
X145195713Y-115953390D01*
X145195713Y-115953390D02*
X145148094Y-115762914D01*
X145148094Y-115762914D02*
X145100475Y-115667676D01*
X145100475Y-115667676D02*
X145005237Y-115572438D01*
X145005237Y-115572438D02*
X144862380Y-115524819D01*
X144862380Y-115524819D02*
X144767142Y-115524819D01*
X144767142Y-115524819D02*
X144624285Y-115572438D01*
X144624285Y-115572438D02*
X144576666Y-115620057D01*
X144195713Y-115620057D02*
X144148094Y-115572438D01*
X144148094Y-115572438D02*
X144052856Y-115524819D01*
X144052856Y-115524819D02*
X143814761Y-115524819D01*
X143814761Y-115524819D02*
X143719523Y-115572438D01*
X143719523Y-115572438D02*
X143671904Y-115620057D01*
X143671904Y-115620057D02*
X143624285Y-115715295D01*
X143624285Y-115715295D02*
X143624285Y-115810533D01*
X143624285Y-115810533D02*
X143671904Y-115953390D01*
X143671904Y-115953390D02*
X144243332Y-116524819D01*
X144243332Y-116524819D02*
X143624285Y-116524819D01*
X150402857Y-114084819D02*
X150736190Y-113608628D01*
X150974285Y-114084819D02*
X150974285Y-113084819D01*
X150974285Y-113084819D02*
X150593333Y-113084819D01*
X150593333Y-113084819D02*
X150498095Y-113132438D01*
X150498095Y-113132438D02*
X150450476Y-113180057D01*
X150450476Y-113180057D02*
X150402857Y-113275295D01*
X150402857Y-113275295D02*
X150402857Y-113418152D01*
X150402857Y-113418152D02*
X150450476Y-113513390D01*
X150450476Y-113513390D02*
X150498095Y-113561009D01*
X150498095Y-113561009D02*
X150593333Y-113608628D01*
X150593333Y-113608628D02*
X150974285Y-113608628D01*
X149450476Y-114084819D02*
X150021904Y-114084819D01*
X149736190Y-114084819D02*
X149736190Y-113084819D01*
X149736190Y-113084819D02*
X149831428Y-113227676D01*
X149831428Y-113227676D02*
X149926666Y-113322914D01*
X149926666Y-113322914D02*
X150021904Y-113370533D01*
X148498095Y-114084819D02*
X149069523Y-114084819D01*
X148783809Y-114084819D02*
X148783809Y-113084819D01*
X148783809Y-113084819D02*
X148879047Y-113227676D01*
X148879047Y-113227676D02*
X148974285Y-113322914D01*
X148974285Y-113322914D02*
X149069523Y-113370533D01*
D12*
%TO.C,R2*%
X128765000Y-101047064D02*
X128765000Y-100592936D01*
X130235000Y-101047064D02*
X130235000Y-100592936D01*
%TO.C,R9*%
X137955000Y-115752936D02*
X137955000Y-116207064D01*
X139425000Y-115752936D02*
X139425000Y-116207064D01*
%TO.C,R6*%
X142395000Y-101002936D02*
X142395000Y-101457064D01*
X143865000Y-101002936D02*
X143865000Y-101457064D01*
%TO.C,R5*%
X140365000Y-100992936D02*
X140365000Y-101447064D01*
X141835000Y-100992936D02*
X141835000Y-101447064D01*
%TO.C,R3*%
X130775000Y-101047064D02*
X130775000Y-100592936D01*
X132245000Y-101047064D02*
X132245000Y-100592936D01*
%TO.C,R1*%
X146452936Y-111495000D02*
X146907064Y-111495000D01*
X146452936Y-112965000D02*
X146907064Y-112965000D01*
%TO.C,U1*%
X148792500Y-118985000D02*
X148792500Y-119785000D01*
X148792500Y-120585000D02*
X148792500Y-119785000D01*
X151912500Y-118985000D02*
X151912500Y-119785000D01*
X151912500Y-120585000D02*
X151912500Y-119785000D01*
X152192500Y-121325000D02*
X151862500Y-121085000D01*
X152192500Y-120845000D01*
X152192500Y-121325000D01*
G36*
X152192500Y-121325000D02*
G01*
X151862500Y-121085000D01*
X152192500Y-120845000D01*
X152192500Y-121325000D01*
G37*
%TO.C,C1*%
X141405000Y-89118748D02*
X141405000Y-89641252D01*
X142875000Y-89118748D02*
X142875000Y-89641252D01*
%TO.C,R10*%
X135925000Y-115742936D02*
X135925000Y-116197064D01*
X137395000Y-115742936D02*
X137395000Y-116197064D01*
%TO.C,R7*%
X123807064Y-116135000D02*
X123352936Y-116135000D01*
X123807064Y-117605000D02*
X123352936Y-117605000D01*
%TO.C,R4*%
X133885000Y-116167064D02*
X133885000Y-115712936D01*
X135355000Y-116167064D02*
X135355000Y-115712936D01*
%TO.C,C4*%
X151355000Y-115683748D02*
X151355000Y-116206252D01*
X152825000Y-115683748D02*
X152825000Y-116206252D01*
%TO.C,D1*%
X142297500Y-111580000D02*
X142297500Y-112780000D01*
X142297500Y-111580000D02*
X144257500Y-111580000D01*
X142297500Y-112780000D02*
X144257500Y-112780000D01*
%TO.C,C3*%
X150083752Y-122310000D02*
X149561248Y-122310000D01*
X150083752Y-123780000D02*
X149561248Y-123780000D01*
%TO.C,J1*%
X123655000Y-120370000D02*
X123655000Y-121820000D01*
X124925000Y-124640000D02*
X133355000Y-124640000D01*
X125455000Y-120370000D02*
X123655000Y-120370000D01*
X132825000Y-119380000D02*
X132825000Y-120370000D01*
X132825000Y-120370000D02*
X134625000Y-120370000D01*
X134625000Y-120370000D02*
X134625000Y-121820000D01*
%TO.C,R8*%
X123817064Y-114135000D02*
X123362936Y-114135000D01*
X123817064Y-115605000D02*
X123362936Y-115605000D01*
%TO.C,J2*%
X136835000Y-120410000D02*
X136835000Y-121860000D01*
X138105000Y-124680000D02*
X144035000Y-124680000D01*
X138635000Y-120410000D02*
X136835000Y-120410000D01*
X143505000Y-119420000D02*
X143505000Y-120410000D01*
X143505000Y-120410000D02*
X145305000Y-120410000D01*
X145305000Y-120410000D02*
X145305000Y-121860000D01*
%TO.C,C2*%
X141490000Y-116697064D02*
X141490000Y-115242936D01*
X143310000Y-116697064D02*
X143310000Y-115242936D01*
%TO.C,R11*%
X149335000Y-115697936D02*
X149335000Y-116152064D01*
X150805000Y-115697936D02*
X150805000Y-116152064D01*
%TD*%
M02*
