%TF.GenerationSoftware,KiCad,Pcbnew,8.0.6+1*%
%TF.CreationDate,2025-01-01T23:09:40+00:00*%
%TF.ProjectId,TFGPSLITE02,54464750-534c-4495-9445-30322e6b6963,rev?*%
%TF.SameCoordinates,Original*%
%TF.FileFunction,Legend,Bot*%
%TF.FilePolarity,Positive*%
%FSLAX46Y46*%
G04 Gerber Fmt 4.6, Leading zero omitted, Abs format (unit mm)*
G04 Created by KiCad (PCBNEW 8.0.6+1) date 2025-01-01 23:09:40*
%MOMM*%
%LPD*%
G01*
G04 APERTURE LIST*
%ADD10C,0.100000*%
%ADD11C,0.150000*%
%ADD12C,0.120000*%
G04 APERTURE END LIST*
D10*
X121020000Y-95000000D02*
X151020000Y-95000000D01*
X151020000Y-125000000D01*
X121020000Y-125000000D01*
X121020000Y-95000000D01*
D11*
X143350965Y-129948207D02*
X143350965Y-129186303D01*
X142970012Y-129567255D02*
X143731917Y-129567255D01*
X143970012Y-128233922D02*
X143970012Y-128710112D01*
X143970012Y-128710112D02*
X143493822Y-128757731D01*
X143493822Y-128757731D02*
X143541441Y-128710112D01*
X143541441Y-128710112D02*
X143589060Y-128614874D01*
X143589060Y-128614874D02*
X143589060Y-128376779D01*
X143589060Y-128376779D02*
X143541441Y-128281541D01*
X143541441Y-128281541D02*
X143493822Y-128233922D01*
X143493822Y-128233922D02*
X143398584Y-128186303D01*
X143398584Y-128186303D02*
X143160489Y-128186303D01*
X143160489Y-128186303D02*
X143065251Y-128233922D01*
X143065251Y-128233922D02*
X143017632Y-128281541D01*
X143017632Y-128281541D02*
X142970012Y-128376779D01*
X142970012Y-128376779D02*
X142970012Y-128614874D01*
X142970012Y-128614874D02*
X143017632Y-128710112D01*
X143017632Y-128710112D02*
X143065251Y-128757731D01*
X143970012Y-127900588D02*
X142970012Y-127567255D01*
X142970012Y-127567255D02*
X143970012Y-127233922D01*
X141883878Y-131805350D02*
X141883878Y-131472017D01*
X141360068Y-131329160D02*
X141360068Y-131805350D01*
X141360068Y-131805350D02*
X142360068Y-131805350D01*
X142360068Y-131805350D02*
X142360068Y-131329160D01*
X142360068Y-130995826D02*
X141360068Y-130329160D01*
X142360068Y-130329160D02*
X141360068Y-130995826D01*
X142360068Y-130091064D02*
X142360068Y-129519636D01*
X141360068Y-129805350D02*
X142360068Y-129805350D01*
X141360068Y-129186302D02*
X142360068Y-129186302D01*
X141360068Y-128710112D02*
X142360068Y-128710112D01*
X142360068Y-128710112D02*
X141360068Y-128138684D01*
X141360068Y-128138684D02*
X142360068Y-128138684D01*
X142360068Y-127805350D02*
X142360068Y-127233922D01*
X141360068Y-127519636D02*
X142360068Y-127519636D01*
X140750124Y-129614874D02*
X140750124Y-129043446D01*
X139750124Y-129329160D02*
X140750124Y-129329160D01*
X139750124Y-128710112D02*
X140750124Y-128710112D01*
X140750124Y-128710112D02*
X140750124Y-128329160D01*
X140750124Y-128329160D02*
X140702505Y-128233922D01*
X140702505Y-128233922D02*
X140654886Y-128186303D01*
X140654886Y-128186303D02*
X140559648Y-128138684D01*
X140559648Y-128138684D02*
X140416791Y-128138684D01*
X140416791Y-128138684D02*
X140321553Y-128186303D01*
X140321553Y-128186303D02*
X140273934Y-128233922D01*
X140273934Y-128233922D02*
X140226315Y-128329160D01*
X140226315Y-128329160D02*
X140226315Y-128710112D01*
X139750124Y-127233922D02*
X139750124Y-127710112D01*
X139750124Y-127710112D02*
X140750124Y-127710112D01*
X139092561Y-129424398D02*
X139140180Y-129519636D01*
X139140180Y-129519636D02*
X139140180Y-129662493D01*
X139140180Y-129662493D02*
X139092561Y-129805350D01*
X139092561Y-129805350D02*
X138997323Y-129900588D01*
X138997323Y-129900588D02*
X138902085Y-129948207D01*
X138902085Y-129948207D02*
X138711609Y-129995826D01*
X138711609Y-129995826D02*
X138568752Y-129995826D01*
X138568752Y-129995826D02*
X138378276Y-129948207D01*
X138378276Y-129948207D02*
X138283038Y-129900588D01*
X138283038Y-129900588D02*
X138187800Y-129805350D01*
X138187800Y-129805350D02*
X138140180Y-129662493D01*
X138140180Y-129662493D02*
X138140180Y-129567255D01*
X138140180Y-129567255D02*
X138187800Y-129424398D01*
X138187800Y-129424398D02*
X138235419Y-129376779D01*
X138235419Y-129376779D02*
X138568752Y-129376779D01*
X138568752Y-129376779D02*
X138568752Y-129567255D01*
X138140180Y-128948207D02*
X139140180Y-128948207D01*
X139140180Y-128948207D02*
X138140180Y-128376779D01*
X138140180Y-128376779D02*
X139140180Y-128376779D01*
X138140180Y-127900588D02*
X139140180Y-127900588D01*
X139140180Y-127900588D02*
X139140180Y-127662493D01*
X139140180Y-127662493D02*
X139092561Y-127519636D01*
X139092561Y-127519636D02*
X138997323Y-127424398D01*
X138997323Y-127424398D02*
X138902085Y-127376779D01*
X138902085Y-127376779D02*
X138711609Y-127329160D01*
X138711609Y-127329160D02*
X138568752Y-127329160D01*
X138568752Y-127329160D02*
X138378276Y-127376779D01*
X138378276Y-127376779D02*
X138283038Y-127424398D01*
X138283038Y-127424398D02*
X138187800Y-127519636D01*
X138187800Y-127519636D02*
X138140180Y-127662493D01*
X138140180Y-127662493D02*
X138140180Y-127900588D01*
X132890853Y-129848207D02*
X132890853Y-129086303D01*
X132509900Y-129467255D02*
X133271805Y-129467255D01*
X133509900Y-128133922D02*
X133509900Y-128610112D01*
X133509900Y-128610112D02*
X133033710Y-128657731D01*
X133033710Y-128657731D02*
X133081329Y-128610112D01*
X133081329Y-128610112D02*
X133128948Y-128514874D01*
X133128948Y-128514874D02*
X133128948Y-128276779D01*
X133128948Y-128276779D02*
X133081329Y-128181541D01*
X133081329Y-128181541D02*
X133033710Y-128133922D01*
X133033710Y-128133922D02*
X132938472Y-128086303D01*
X132938472Y-128086303D02*
X132700377Y-128086303D01*
X132700377Y-128086303D02*
X132605139Y-128133922D01*
X132605139Y-128133922D02*
X132557520Y-128181541D01*
X132557520Y-128181541D02*
X132509900Y-128276779D01*
X132509900Y-128276779D02*
X132509900Y-128514874D01*
X132509900Y-128514874D02*
X132557520Y-128610112D01*
X132557520Y-128610112D02*
X132605139Y-128657731D01*
X133509900Y-127800588D02*
X132509900Y-127467255D01*
X132509900Y-127467255D02*
X133509900Y-127133922D01*
X130899956Y-128181541D02*
X131376147Y-128514874D01*
X130899956Y-128752969D02*
X131899956Y-128752969D01*
X131899956Y-128752969D02*
X131899956Y-128372017D01*
X131899956Y-128372017D02*
X131852337Y-128276779D01*
X131852337Y-128276779D02*
X131804718Y-128229160D01*
X131804718Y-128229160D02*
X131709480Y-128181541D01*
X131709480Y-128181541D02*
X131566623Y-128181541D01*
X131566623Y-128181541D02*
X131471385Y-128229160D01*
X131471385Y-128229160D02*
X131423766Y-128276779D01*
X131423766Y-128276779D02*
X131376147Y-128372017D01*
X131376147Y-128372017D02*
X131376147Y-128752969D01*
X131899956Y-127848207D02*
X130899956Y-127181541D01*
X131899956Y-127181541D02*
X130899956Y-127848207D01*
X130290012Y-128657731D02*
X130290012Y-128086303D01*
X129290012Y-128372017D02*
X130290012Y-128372017D01*
X130290012Y-127848207D02*
X129290012Y-127181541D01*
X130290012Y-127181541D02*
X129290012Y-127848207D01*
X127727688Y-129610112D02*
X127680068Y-129467255D01*
X127680068Y-129467255D02*
X127680068Y-129229160D01*
X127680068Y-129229160D02*
X127727688Y-129133922D01*
X127727688Y-129133922D02*
X127775307Y-129086303D01*
X127775307Y-129086303D02*
X127870545Y-129038684D01*
X127870545Y-129038684D02*
X127965783Y-129038684D01*
X127965783Y-129038684D02*
X128061021Y-129086303D01*
X128061021Y-129086303D02*
X128108640Y-129133922D01*
X128108640Y-129133922D02*
X128156259Y-129229160D01*
X128156259Y-129229160D02*
X128203878Y-129419636D01*
X128203878Y-129419636D02*
X128251497Y-129514874D01*
X128251497Y-129514874D02*
X128299116Y-129562493D01*
X128299116Y-129562493D02*
X128394354Y-129610112D01*
X128394354Y-129610112D02*
X128489592Y-129610112D01*
X128489592Y-129610112D02*
X128584830Y-129562493D01*
X128584830Y-129562493D02*
X128632449Y-129514874D01*
X128632449Y-129514874D02*
X128680068Y-129419636D01*
X128680068Y-129419636D02*
X128680068Y-129181541D01*
X128680068Y-129181541D02*
X128632449Y-129038684D01*
X127775307Y-128038684D02*
X127727688Y-128086303D01*
X127727688Y-128086303D02*
X127680068Y-128229160D01*
X127680068Y-128229160D02*
X127680068Y-128324398D01*
X127680068Y-128324398D02*
X127727688Y-128467255D01*
X127727688Y-128467255D02*
X127822926Y-128562493D01*
X127822926Y-128562493D02*
X127918164Y-128610112D01*
X127918164Y-128610112D02*
X128108640Y-128657731D01*
X128108640Y-128657731D02*
X128251497Y-128657731D01*
X128251497Y-128657731D02*
X128441973Y-128610112D01*
X128441973Y-128610112D02*
X128537211Y-128562493D01*
X128537211Y-128562493D02*
X128632449Y-128467255D01*
X128632449Y-128467255D02*
X128680068Y-128324398D01*
X128680068Y-128324398D02*
X128680068Y-128229160D01*
X128680068Y-128229160D02*
X128632449Y-128086303D01*
X128632449Y-128086303D02*
X128584830Y-128038684D01*
X127680068Y-127133922D02*
X127680068Y-127610112D01*
X127680068Y-127610112D02*
X128680068Y-127610112D01*
X126117744Y-129657731D02*
X126070124Y-129514874D01*
X126070124Y-129514874D02*
X126070124Y-129276779D01*
X126070124Y-129276779D02*
X126117744Y-129181541D01*
X126117744Y-129181541D02*
X126165363Y-129133922D01*
X126165363Y-129133922D02*
X126260601Y-129086303D01*
X126260601Y-129086303D02*
X126355839Y-129086303D01*
X126355839Y-129086303D02*
X126451077Y-129133922D01*
X126451077Y-129133922D02*
X126498696Y-129181541D01*
X126498696Y-129181541D02*
X126546315Y-129276779D01*
X126546315Y-129276779D02*
X126593934Y-129467255D01*
X126593934Y-129467255D02*
X126641553Y-129562493D01*
X126641553Y-129562493D02*
X126689172Y-129610112D01*
X126689172Y-129610112D02*
X126784410Y-129657731D01*
X126784410Y-129657731D02*
X126879648Y-129657731D01*
X126879648Y-129657731D02*
X126974886Y-129610112D01*
X126974886Y-129610112D02*
X127022505Y-129562493D01*
X127022505Y-129562493D02*
X127070124Y-129467255D01*
X127070124Y-129467255D02*
X127070124Y-129229160D01*
X127070124Y-129229160D02*
X127022505Y-129086303D01*
X126070124Y-128657731D02*
X127070124Y-128657731D01*
X127070124Y-128657731D02*
X127070124Y-128419636D01*
X127070124Y-128419636D02*
X127022505Y-128276779D01*
X127022505Y-128276779D02*
X126927267Y-128181541D01*
X126927267Y-128181541D02*
X126832029Y-128133922D01*
X126832029Y-128133922D02*
X126641553Y-128086303D01*
X126641553Y-128086303D02*
X126498696Y-128086303D01*
X126498696Y-128086303D02*
X126308220Y-128133922D01*
X126308220Y-128133922D02*
X126212982Y-128181541D01*
X126212982Y-128181541D02*
X126117744Y-128276779D01*
X126117744Y-128276779D02*
X126070124Y-128419636D01*
X126070124Y-128419636D02*
X126070124Y-128657731D01*
X126355839Y-127705350D02*
X126355839Y-127229160D01*
X126070124Y-127800588D02*
X127070124Y-127467255D01*
X127070124Y-127467255D02*
X126070124Y-127133922D01*
X125412561Y-129324398D02*
X125460180Y-129419636D01*
X125460180Y-129419636D02*
X125460180Y-129562493D01*
X125460180Y-129562493D02*
X125412561Y-129705350D01*
X125412561Y-129705350D02*
X125317323Y-129800588D01*
X125317323Y-129800588D02*
X125222085Y-129848207D01*
X125222085Y-129848207D02*
X125031609Y-129895826D01*
X125031609Y-129895826D02*
X124888752Y-129895826D01*
X124888752Y-129895826D02*
X124698276Y-129848207D01*
X124698276Y-129848207D02*
X124603038Y-129800588D01*
X124603038Y-129800588D02*
X124507800Y-129705350D01*
X124507800Y-129705350D02*
X124460180Y-129562493D01*
X124460180Y-129562493D02*
X124460180Y-129467255D01*
X124460180Y-129467255D02*
X124507800Y-129324398D01*
X124507800Y-129324398D02*
X124555419Y-129276779D01*
X124555419Y-129276779D02*
X124888752Y-129276779D01*
X124888752Y-129276779D02*
X124888752Y-129467255D01*
X124460180Y-128848207D02*
X125460180Y-128848207D01*
X125460180Y-128848207D02*
X124460180Y-128276779D01*
X124460180Y-128276779D02*
X125460180Y-128276779D01*
X124460180Y-127800588D02*
X125460180Y-127800588D01*
X125460180Y-127800588D02*
X125460180Y-127562493D01*
X125460180Y-127562493D02*
X125412561Y-127419636D01*
X125412561Y-127419636D02*
X125317323Y-127324398D01*
X125317323Y-127324398D02*
X125222085Y-127276779D01*
X125222085Y-127276779D02*
X125031609Y-127229160D01*
X125031609Y-127229160D02*
X124888752Y-127229160D01*
X124888752Y-127229160D02*
X124698276Y-127276779D01*
X124698276Y-127276779D02*
X124603038Y-127324398D01*
X124603038Y-127324398D02*
X124507800Y-127419636D01*
X124507800Y-127419636D02*
X124460180Y-127562493D01*
X124460180Y-127562493D02*
X124460180Y-127800588D01*
X133183220Y-125259819D02*
X133183220Y-126069342D01*
X133183220Y-126069342D02*
X133135601Y-126164580D01*
X133135601Y-126164580D02*
X133087982Y-126212200D01*
X133087982Y-126212200D02*
X132992744Y-126259819D01*
X132992744Y-126259819D02*
X132802268Y-126259819D01*
X132802268Y-126259819D02*
X132707030Y-126212200D01*
X132707030Y-126212200D02*
X132659411Y-126164580D01*
X132659411Y-126164580D02*
X132611792Y-126069342D01*
X132611792Y-126069342D02*
X132611792Y-125259819D01*
X132183220Y-125974104D02*
X131707030Y-125974104D01*
X132278458Y-126259819D02*
X131945125Y-125259819D01*
X131945125Y-125259819D02*
X131611792Y-126259819D01*
X130707030Y-126259819D02*
X131040363Y-125783628D01*
X131278458Y-126259819D02*
X131278458Y-125259819D01*
X131278458Y-125259819D02*
X130897506Y-125259819D01*
X130897506Y-125259819D02*
X130802268Y-125307438D01*
X130802268Y-125307438D02*
X130754649Y-125355057D01*
X130754649Y-125355057D02*
X130707030Y-125450295D01*
X130707030Y-125450295D02*
X130707030Y-125593152D01*
X130707030Y-125593152D02*
X130754649Y-125688390D01*
X130754649Y-125688390D02*
X130802268Y-125736009D01*
X130802268Y-125736009D02*
X130897506Y-125783628D01*
X130897506Y-125783628D02*
X131278458Y-125783628D01*
X130421315Y-125259819D02*
X129849887Y-125259819D01*
X130135601Y-126259819D02*
X130135601Y-125259819D01*
X127945124Y-126259819D02*
X127992744Y-126259819D01*
X127992744Y-126259819D02*
X128087982Y-126212200D01*
X128087982Y-126212200D02*
X128230839Y-126069342D01*
X128230839Y-126069342D02*
X128468934Y-125783628D01*
X128468934Y-125783628D02*
X128564172Y-125640771D01*
X128564172Y-125640771D02*
X128611791Y-125497914D01*
X128611791Y-125497914D02*
X128611791Y-125402676D01*
X128611791Y-125402676D02*
X128564172Y-125307438D01*
X128564172Y-125307438D02*
X128468934Y-125259819D01*
X128468934Y-125259819D02*
X128421315Y-125259819D01*
X128421315Y-125259819D02*
X128326077Y-125307438D01*
X128326077Y-125307438D02*
X128278458Y-125402676D01*
X128278458Y-125402676D02*
X128278458Y-125450295D01*
X128278458Y-125450295D02*
X128326077Y-125545533D01*
X128326077Y-125545533D02*
X128373696Y-125593152D01*
X128373696Y-125593152D02*
X128659410Y-125783628D01*
X128659410Y-125783628D02*
X128707029Y-125831247D01*
X128707029Y-125831247D02*
X128754648Y-125926485D01*
X128754648Y-125926485D02*
X128754648Y-126069342D01*
X128754648Y-126069342D02*
X128707029Y-126164580D01*
X128707029Y-126164580D02*
X128659410Y-126212200D01*
X128659410Y-126212200D02*
X128564172Y-126259819D01*
X128564172Y-126259819D02*
X128421315Y-126259819D01*
X128421315Y-126259819D02*
X128326077Y-126212200D01*
X128326077Y-126212200D02*
X128278458Y-126164580D01*
X128278458Y-126164580D02*
X128135601Y-125974104D01*
X128135601Y-125974104D02*
X128087982Y-125831247D01*
X128087982Y-125831247D02*
X128087982Y-125736009D01*
X126754648Y-126259819D02*
X126754648Y-125259819D01*
X126326077Y-125355057D02*
X126278458Y-125307438D01*
X126278458Y-125307438D02*
X126183220Y-125259819D01*
X126183220Y-125259819D02*
X125945125Y-125259819D01*
X125945125Y-125259819D02*
X125849887Y-125307438D01*
X125849887Y-125307438D02*
X125802268Y-125355057D01*
X125802268Y-125355057D02*
X125754649Y-125450295D01*
X125754649Y-125450295D02*
X125754649Y-125545533D01*
X125754649Y-125545533D02*
X125802268Y-125688390D01*
X125802268Y-125688390D02*
X126373696Y-126259819D01*
X126373696Y-126259819D02*
X125754649Y-126259819D01*
X124897506Y-126212200D02*
X124992744Y-126259819D01*
X124992744Y-126259819D02*
X125183220Y-126259819D01*
X125183220Y-126259819D02*
X125278458Y-126212200D01*
X125278458Y-126212200D02*
X125326077Y-126164580D01*
X125326077Y-126164580D02*
X125373696Y-126069342D01*
X125373696Y-126069342D02*
X125373696Y-125783628D01*
X125373696Y-125783628D02*
X125326077Y-125688390D01*
X125326077Y-125688390D02*
X125278458Y-125640771D01*
X125278458Y-125640771D02*
X125183220Y-125593152D01*
X125183220Y-125593152D02*
X124992744Y-125593152D01*
X124992744Y-125593152D02*
X124897506Y-125640771D01*
X143460839Y-126342200D02*
X143317982Y-126389819D01*
X143317982Y-126389819D02*
X143079887Y-126389819D01*
X143079887Y-126389819D02*
X142984649Y-126342200D01*
X142984649Y-126342200D02*
X142937030Y-126294580D01*
X142937030Y-126294580D02*
X142889411Y-126199342D01*
X142889411Y-126199342D02*
X142889411Y-126104104D01*
X142889411Y-126104104D02*
X142937030Y-126008866D01*
X142937030Y-126008866D02*
X142984649Y-125961247D01*
X142984649Y-125961247D02*
X143079887Y-125913628D01*
X143079887Y-125913628D02*
X143270363Y-125866009D01*
X143270363Y-125866009D02*
X143365601Y-125818390D01*
X143365601Y-125818390D02*
X143413220Y-125770771D01*
X143413220Y-125770771D02*
X143460839Y-125675533D01*
X143460839Y-125675533D02*
X143460839Y-125580295D01*
X143460839Y-125580295D02*
X143413220Y-125485057D01*
X143413220Y-125485057D02*
X143365601Y-125437438D01*
X143365601Y-125437438D02*
X143270363Y-125389819D01*
X143270363Y-125389819D02*
X143032268Y-125389819D01*
X143032268Y-125389819D02*
X142889411Y-125437438D01*
X142460839Y-126389819D02*
X142460839Y-125723152D01*
X142460839Y-125389819D02*
X142508458Y-125437438D01*
X142508458Y-125437438D02*
X142460839Y-125485057D01*
X142460839Y-125485057D02*
X142413220Y-125437438D01*
X142413220Y-125437438D02*
X142460839Y-125389819D01*
X142460839Y-125389819D02*
X142460839Y-125485057D01*
X141556078Y-125723152D02*
X141556078Y-126532676D01*
X141556078Y-126532676D02*
X141603697Y-126627914D01*
X141603697Y-126627914D02*
X141651316Y-126675533D01*
X141651316Y-126675533D02*
X141746554Y-126723152D01*
X141746554Y-126723152D02*
X141889411Y-126723152D01*
X141889411Y-126723152D02*
X141984649Y-126675533D01*
X141556078Y-126342200D02*
X141651316Y-126389819D01*
X141651316Y-126389819D02*
X141841792Y-126389819D01*
X141841792Y-126389819D02*
X141937030Y-126342200D01*
X141937030Y-126342200D02*
X141984649Y-126294580D01*
X141984649Y-126294580D02*
X142032268Y-126199342D01*
X142032268Y-126199342D02*
X142032268Y-125913628D01*
X142032268Y-125913628D02*
X141984649Y-125818390D01*
X141984649Y-125818390D02*
X141937030Y-125770771D01*
X141937030Y-125770771D02*
X141841792Y-125723152D01*
X141841792Y-125723152D02*
X141651316Y-125723152D01*
X141651316Y-125723152D02*
X141556078Y-125770771D01*
X141079887Y-125723152D02*
X141079887Y-126389819D01*
X141079887Y-125818390D02*
X141032268Y-125770771D01*
X141032268Y-125770771D02*
X140937030Y-125723152D01*
X140937030Y-125723152D02*
X140794173Y-125723152D01*
X140794173Y-125723152D02*
X140698935Y-125770771D01*
X140698935Y-125770771D02*
X140651316Y-125866009D01*
X140651316Y-125866009D02*
X140651316Y-126389819D01*
X139746554Y-126389819D02*
X139746554Y-125866009D01*
X139746554Y-125866009D02*
X139794173Y-125770771D01*
X139794173Y-125770771D02*
X139889411Y-125723152D01*
X139889411Y-125723152D02*
X140079887Y-125723152D01*
X140079887Y-125723152D02*
X140175125Y-125770771D01*
X139746554Y-126342200D02*
X139841792Y-126389819D01*
X139841792Y-126389819D02*
X140079887Y-126389819D01*
X140079887Y-126389819D02*
X140175125Y-126342200D01*
X140175125Y-126342200D02*
X140222744Y-126246961D01*
X140222744Y-126246961D02*
X140222744Y-126151723D01*
X140222744Y-126151723D02*
X140175125Y-126056485D01*
X140175125Y-126056485D02*
X140079887Y-126008866D01*
X140079887Y-126008866D02*
X139841792Y-126008866D01*
X139841792Y-126008866D02*
X139746554Y-125961247D01*
X139127506Y-126389819D02*
X139222744Y-126342200D01*
X139222744Y-126342200D02*
X139270363Y-126246961D01*
X139270363Y-126246961D02*
X139270363Y-125389819D01*
X138794172Y-126342200D02*
X138698934Y-126389819D01*
X138698934Y-126389819D02*
X138508458Y-126389819D01*
X138508458Y-126389819D02*
X138413220Y-126342200D01*
X138413220Y-126342200D02*
X138365601Y-126246961D01*
X138365601Y-126246961D02*
X138365601Y-126199342D01*
X138365601Y-126199342D02*
X138413220Y-126104104D01*
X138413220Y-126104104D02*
X138508458Y-126056485D01*
X138508458Y-126056485D02*
X138651315Y-126056485D01*
X138651315Y-126056485D02*
X138746553Y-126008866D01*
X138746553Y-126008866D02*
X138794172Y-125913628D01*
X138794172Y-125913628D02*
X138794172Y-125866009D01*
X138794172Y-125866009D02*
X138746553Y-125770771D01*
X138746553Y-125770771D02*
X138651315Y-125723152D01*
X138651315Y-125723152D02*
X138508458Y-125723152D01*
X138508458Y-125723152D02*
X138413220Y-125770771D01*
X129416666Y-118814819D02*
X129749999Y-118338628D01*
X129988094Y-118814819D02*
X129988094Y-117814819D01*
X129988094Y-117814819D02*
X129607142Y-117814819D01*
X129607142Y-117814819D02*
X129511904Y-117862438D01*
X129511904Y-117862438D02*
X129464285Y-117910057D01*
X129464285Y-117910057D02*
X129416666Y-118005295D01*
X129416666Y-118005295D02*
X129416666Y-118148152D01*
X129416666Y-118148152D02*
X129464285Y-118243390D01*
X129464285Y-118243390D02*
X129511904Y-118291009D01*
X129511904Y-118291009D02*
X129607142Y-118338628D01*
X129607142Y-118338628D02*
X129988094Y-118338628D01*
X129035713Y-117910057D02*
X128988094Y-117862438D01*
X128988094Y-117862438D02*
X128892856Y-117814819D01*
X128892856Y-117814819D02*
X128654761Y-117814819D01*
X128654761Y-117814819D02*
X128559523Y-117862438D01*
X128559523Y-117862438D02*
X128511904Y-117910057D01*
X128511904Y-117910057D02*
X128464285Y-118005295D01*
X128464285Y-118005295D02*
X128464285Y-118100533D01*
X128464285Y-118100533D02*
X128511904Y-118243390D01*
X128511904Y-118243390D02*
X129083332Y-118814819D01*
X129083332Y-118814819D02*
X128464285Y-118814819D01*
X134346666Y-118699580D02*
X134394285Y-118747200D01*
X134394285Y-118747200D02*
X134537142Y-118794819D01*
X134537142Y-118794819D02*
X134632380Y-118794819D01*
X134632380Y-118794819D02*
X134775237Y-118747200D01*
X134775237Y-118747200D02*
X134870475Y-118651961D01*
X134870475Y-118651961D02*
X134918094Y-118556723D01*
X134918094Y-118556723D02*
X134965713Y-118366247D01*
X134965713Y-118366247D02*
X134965713Y-118223390D01*
X134965713Y-118223390D02*
X134918094Y-118032914D01*
X134918094Y-118032914D02*
X134870475Y-117937676D01*
X134870475Y-117937676D02*
X134775237Y-117842438D01*
X134775237Y-117842438D02*
X134632380Y-117794819D01*
X134632380Y-117794819D02*
X134537142Y-117794819D01*
X134537142Y-117794819D02*
X134394285Y-117842438D01*
X134394285Y-117842438D02*
X134346666Y-117890057D01*
X133441904Y-117794819D02*
X133918094Y-117794819D01*
X133918094Y-117794819D02*
X133965713Y-118271009D01*
X133965713Y-118271009D02*
X133918094Y-118223390D01*
X133918094Y-118223390D02*
X133822856Y-118175771D01*
X133822856Y-118175771D02*
X133584761Y-118175771D01*
X133584761Y-118175771D02*
X133489523Y-118223390D01*
X133489523Y-118223390D02*
X133441904Y-118271009D01*
X133441904Y-118271009D02*
X133394285Y-118366247D01*
X133394285Y-118366247D02*
X133394285Y-118604342D01*
X133394285Y-118604342D02*
X133441904Y-118699580D01*
X133441904Y-118699580D02*
X133489523Y-118747200D01*
X133489523Y-118747200D02*
X133584761Y-118794819D01*
X133584761Y-118794819D02*
X133822856Y-118794819D01*
X133822856Y-118794819D02*
X133918094Y-118747200D01*
X133918094Y-118747200D02*
X133965713Y-118699580D01*
X140626666Y-113994819D02*
X140959999Y-113518628D01*
X141198094Y-113994819D02*
X141198094Y-112994819D01*
X141198094Y-112994819D02*
X140817142Y-112994819D01*
X140817142Y-112994819D02*
X140721904Y-113042438D01*
X140721904Y-113042438D02*
X140674285Y-113090057D01*
X140674285Y-113090057D02*
X140626666Y-113185295D01*
X140626666Y-113185295D02*
X140626666Y-113328152D01*
X140626666Y-113328152D02*
X140674285Y-113423390D01*
X140674285Y-113423390D02*
X140721904Y-113471009D01*
X140721904Y-113471009D02*
X140817142Y-113518628D01*
X140817142Y-113518628D02*
X141198094Y-113518628D01*
X140150475Y-113994819D02*
X139959999Y-113994819D01*
X139959999Y-113994819D02*
X139864761Y-113947200D01*
X139864761Y-113947200D02*
X139817142Y-113899580D01*
X139817142Y-113899580D02*
X139721904Y-113756723D01*
X139721904Y-113756723D02*
X139674285Y-113566247D01*
X139674285Y-113566247D02*
X139674285Y-113185295D01*
X139674285Y-113185295D02*
X139721904Y-113090057D01*
X139721904Y-113090057D02*
X139769523Y-113042438D01*
X139769523Y-113042438D02*
X139864761Y-112994819D01*
X139864761Y-112994819D02*
X140055237Y-112994819D01*
X140055237Y-112994819D02*
X140150475Y-113042438D01*
X140150475Y-113042438D02*
X140198094Y-113090057D01*
X140198094Y-113090057D02*
X140245713Y-113185295D01*
X140245713Y-113185295D02*
X140245713Y-113423390D01*
X140245713Y-113423390D02*
X140198094Y-113518628D01*
X140198094Y-113518628D02*
X140150475Y-113566247D01*
X140150475Y-113566247D02*
X140055237Y-113613866D01*
X140055237Y-113613866D02*
X139864761Y-113613866D01*
X139864761Y-113613866D02*
X139769523Y-113566247D01*
X139769523Y-113566247D02*
X139721904Y-113518628D01*
X139721904Y-113518628D02*
X139674285Y-113423390D01*
X124394819Y-107973333D02*
X123918628Y-107640000D01*
X124394819Y-107401905D02*
X123394819Y-107401905D01*
X123394819Y-107401905D02*
X123394819Y-107782857D01*
X123394819Y-107782857D02*
X123442438Y-107878095D01*
X123442438Y-107878095D02*
X123490057Y-107925714D01*
X123490057Y-107925714D02*
X123585295Y-107973333D01*
X123585295Y-107973333D02*
X123728152Y-107973333D01*
X123728152Y-107973333D02*
X123823390Y-107925714D01*
X123823390Y-107925714D02*
X123871009Y-107878095D01*
X123871009Y-107878095D02*
X123918628Y-107782857D01*
X123918628Y-107782857D02*
X123918628Y-107401905D01*
X123394819Y-108830476D02*
X123394819Y-108640000D01*
X123394819Y-108640000D02*
X123442438Y-108544762D01*
X123442438Y-108544762D02*
X123490057Y-108497143D01*
X123490057Y-108497143D02*
X123632914Y-108401905D01*
X123632914Y-108401905D02*
X123823390Y-108354286D01*
X123823390Y-108354286D02*
X124204342Y-108354286D01*
X124204342Y-108354286D02*
X124299580Y-108401905D01*
X124299580Y-108401905D02*
X124347200Y-108449524D01*
X124347200Y-108449524D02*
X124394819Y-108544762D01*
X124394819Y-108544762D02*
X124394819Y-108735238D01*
X124394819Y-108735238D02*
X124347200Y-108830476D01*
X124347200Y-108830476D02*
X124299580Y-108878095D01*
X124299580Y-108878095D02*
X124204342Y-108925714D01*
X124204342Y-108925714D02*
X123966247Y-108925714D01*
X123966247Y-108925714D02*
X123871009Y-108878095D01*
X123871009Y-108878095D02*
X123823390Y-108830476D01*
X123823390Y-108830476D02*
X123775771Y-108735238D01*
X123775771Y-108735238D02*
X123775771Y-108544762D01*
X123775771Y-108544762D02*
X123823390Y-108449524D01*
X123823390Y-108449524D02*
X123871009Y-108401905D01*
X123871009Y-108401905D02*
X123966247Y-108354286D01*
X124384819Y-105603333D02*
X123908628Y-105270000D01*
X124384819Y-105031905D02*
X123384819Y-105031905D01*
X123384819Y-105031905D02*
X123384819Y-105412857D01*
X123384819Y-105412857D02*
X123432438Y-105508095D01*
X123432438Y-105508095D02*
X123480057Y-105555714D01*
X123480057Y-105555714D02*
X123575295Y-105603333D01*
X123575295Y-105603333D02*
X123718152Y-105603333D01*
X123718152Y-105603333D02*
X123813390Y-105555714D01*
X123813390Y-105555714D02*
X123861009Y-105508095D01*
X123861009Y-105508095D02*
X123908628Y-105412857D01*
X123908628Y-105412857D02*
X123908628Y-105031905D01*
X123384819Y-106508095D02*
X123384819Y-106031905D01*
X123384819Y-106031905D02*
X123861009Y-105984286D01*
X123861009Y-105984286D02*
X123813390Y-106031905D01*
X123813390Y-106031905D02*
X123765771Y-106127143D01*
X123765771Y-106127143D02*
X123765771Y-106365238D01*
X123765771Y-106365238D02*
X123813390Y-106460476D01*
X123813390Y-106460476D02*
X123861009Y-106508095D01*
X123861009Y-106508095D02*
X123956247Y-106555714D01*
X123956247Y-106555714D02*
X124194342Y-106555714D01*
X124194342Y-106555714D02*
X124289580Y-106508095D01*
X124289580Y-106508095D02*
X124337200Y-106460476D01*
X124337200Y-106460476D02*
X124384819Y-106365238D01*
X124384819Y-106365238D02*
X124384819Y-106127143D01*
X124384819Y-106127143D02*
X124337200Y-106031905D01*
X124337200Y-106031905D02*
X124289580Y-105984286D01*
X132146666Y-118824819D02*
X132479999Y-118348628D01*
X132718094Y-118824819D02*
X132718094Y-117824819D01*
X132718094Y-117824819D02*
X132337142Y-117824819D01*
X132337142Y-117824819D02*
X132241904Y-117872438D01*
X132241904Y-117872438D02*
X132194285Y-117920057D01*
X132194285Y-117920057D02*
X132146666Y-118015295D01*
X132146666Y-118015295D02*
X132146666Y-118158152D01*
X132146666Y-118158152D02*
X132194285Y-118253390D01*
X132194285Y-118253390D02*
X132241904Y-118301009D01*
X132241904Y-118301009D02*
X132337142Y-118348628D01*
X132337142Y-118348628D02*
X132718094Y-118348628D01*
X131813332Y-117824819D02*
X131194285Y-117824819D01*
X131194285Y-117824819D02*
X131527618Y-118205771D01*
X131527618Y-118205771D02*
X131384761Y-118205771D01*
X131384761Y-118205771D02*
X131289523Y-118253390D01*
X131289523Y-118253390D02*
X131241904Y-118301009D01*
X131241904Y-118301009D02*
X131194285Y-118396247D01*
X131194285Y-118396247D02*
X131194285Y-118634342D01*
X131194285Y-118634342D02*
X131241904Y-118729580D01*
X131241904Y-118729580D02*
X131289523Y-118777200D01*
X131289523Y-118777200D02*
X131384761Y-118824819D01*
X131384761Y-118824819D02*
X131670475Y-118824819D01*
X131670475Y-118824819D02*
X131765713Y-118777200D01*
X131765713Y-118777200D02*
X131813332Y-118729580D01*
X150844819Y-104863333D02*
X150368628Y-104530000D01*
X150844819Y-104291905D02*
X149844819Y-104291905D01*
X149844819Y-104291905D02*
X149844819Y-104672857D01*
X149844819Y-104672857D02*
X149892438Y-104768095D01*
X149892438Y-104768095D02*
X149940057Y-104815714D01*
X149940057Y-104815714D02*
X150035295Y-104863333D01*
X150035295Y-104863333D02*
X150178152Y-104863333D01*
X150178152Y-104863333D02*
X150273390Y-104815714D01*
X150273390Y-104815714D02*
X150321009Y-104768095D01*
X150321009Y-104768095D02*
X150368628Y-104672857D01*
X150368628Y-104672857D02*
X150368628Y-104291905D01*
X150844819Y-105815714D02*
X150844819Y-105244286D01*
X150844819Y-105530000D02*
X149844819Y-105530000D01*
X149844819Y-105530000D02*
X149987676Y-105434762D01*
X149987676Y-105434762D02*
X150082914Y-105339524D01*
X150082914Y-105339524D02*
X150130533Y-105244286D01*
X149204819Y-113488095D02*
X150014342Y-113488095D01*
X150014342Y-113488095D02*
X150109580Y-113535714D01*
X150109580Y-113535714D02*
X150157200Y-113583333D01*
X150157200Y-113583333D02*
X150204819Y-113678571D01*
X150204819Y-113678571D02*
X150204819Y-113869047D01*
X150204819Y-113869047D02*
X150157200Y-113964285D01*
X150157200Y-113964285D02*
X150109580Y-114011904D01*
X150109580Y-114011904D02*
X150014342Y-114059523D01*
X150014342Y-114059523D02*
X149204819Y-114059523D01*
X150204819Y-115059523D02*
X150204819Y-114488095D01*
X150204819Y-114773809D02*
X149204819Y-114773809D01*
X149204819Y-114773809D02*
X149347676Y-114678571D01*
X149347676Y-114678571D02*
X149442914Y-114583333D01*
X149442914Y-114583333D02*
X149490533Y-114488095D01*
X129106666Y-112559580D02*
X129154285Y-112607200D01*
X129154285Y-112607200D02*
X129297142Y-112654819D01*
X129297142Y-112654819D02*
X129392380Y-112654819D01*
X129392380Y-112654819D02*
X129535237Y-112607200D01*
X129535237Y-112607200D02*
X129630475Y-112511961D01*
X129630475Y-112511961D02*
X129678094Y-112416723D01*
X129678094Y-112416723D02*
X129725713Y-112226247D01*
X129725713Y-112226247D02*
X129725713Y-112083390D01*
X129725713Y-112083390D02*
X129678094Y-111892914D01*
X129678094Y-111892914D02*
X129630475Y-111797676D01*
X129630475Y-111797676D02*
X129535237Y-111702438D01*
X129535237Y-111702438D02*
X129392380Y-111654819D01*
X129392380Y-111654819D02*
X129297142Y-111654819D01*
X129297142Y-111654819D02*
X129154285Y-111702438D01*
X129154285Y-111702438D02*
X129106666Y-111750057D01*
X128154285Y-112654819D02*
X128725713Y-112654819D01*
X128439999Y-112654819D02*
X128439999Y-111654819D01*
X128439999Y-111654819D02*
X128535237Y-111797676D01*
X128535237Y-111797676D02*
X128630475Y-111892914D01*
X128630475Y-111892914D02*
X128725713Y-111940533D01*
X138422857Y-113997319D02*
X138756190Y-113521128D01*
X138994285Y-113997319D02*
X138994285Y-112997319D01*
X138994285Y-112997319D02*
X138613333Y-112997319D01*
X138613333Y-112997319D02*
X138518095Y-113044938D01*
X138518095Y-113044938D02*
X138470476Y-113092557D01*
X138470476Y-113092557D02*
X138422857Y-113187795D01*
X138422857Y-113187795D02*
X138422857Y-113330652D01*
X138422857Y-113330652D02*
X138470476Y-113425890D01*
X138470476Y-113425890D02*
X138518095Y-113473509D01*
X138518095Y-113473509D02*
X138613333Y-113521128D01*
X138613333Y-113521128D02*
X138994285Y-113521128D01*
X137470476Y-113997319D02*
X138041904Y-113997319D01*
X137756190Y-113997319D02*
X137756190Y-112997319D01*
X137756190Y-112997319D02*
X137851428Y-113140176D01*
X137851428Y-113140176D02*
X137946666Y-113235414D01*
X137946666Y-113235414D02*
X138041904Y-113283033D01*
X136851428Y-112997319D02*
X136756190Y-112997319D01*
X136756190Y-112997319D02*
X136660952Y-113044938D01*
X136660952Y-113044938D02*
X136613333Y-113092557D01*
X136613333Y-113092557D02*
X136565714Y-113187795D01*
X136565714Y-113187795D02*
X136518095Y-113378271D01*
X136518095Y-113378271D02*
X136518095Y-113616366D01*
X136518095Y-113616366D02*
X136565714Y-113806842D01*
X136565714Y-113806842D02*
X136613333Y-113902080D01*
X136613333Y-113902080D02*
X136660952Y-113949700D01*
X136660952Y-113949700D02*
X136756190Y-113997319D01*
X136756190Y-113997319D02*
X136851428Y-113997319D01*
X136851428Y-113997319D02*
X136946666Y-113949700D01*
X136946666Y-113949700D02*
X136994285Y-113902080D01*
X136994285Y-113902080D02*
X137041904Y-113806842D01*
X137041904Y-113806842D02*
X137089523Y-113616366D01*
X137089523Y-113616366D02*
X137089523Y-113378271D01*
X137089523Y-113378271D02*
X137041904Y-113187795D01*
X137041904Y-113187795D02*
X136994285Y-113092557D01*
X136994285Y-113092557D02*
X136946666Y-113044938D01*
X136946666Y-113044938D02*
X136851428Y-112997319D01*
X123716666Y-117314819D02*
X124049999Y-116838628D01*
X124288094Y-117314819D02*
X124288094Y-116314819D01*
X124288094Y-116314819D02*
X123907142Y-116314819D01*
X123907142Y-116314819D02*
X123811904Y-116362438D01*
X123811904Y-116362438D02*
X123764285Y-116410057D01*
X123764285Y-116410057D02*
X123716666Y-116505295D01*
X123716666Y-116505295D02*
X123716666Y-116648152D01*
X123716666Y-116648152D02*
X123764285Y-116743390D01*
X123764285Y-116743390D02*
X123811904Y-116791009D01*
X123811904Y-116791009D02*
X123907142Y-116838628D01*
X123907142Y-116838628D02*
X124288094Y-116838628D01*
X123383332Y-116314819D02*
X122716666Y-116314819D01*
X122716666Y-116314819D02*
X123145237Y-117314819D01*
X137176666Y-99804819D02*
X137509999Y-99328628D01*
X137748094Y-99804819D02*
X137748094Y-98804819D01*
X137748094Y-98804819D02*
X137367142Y-98804819D01*
X137367142Y-98804819D02*
X137271904Y-98852438D01*
X137271904Y-98852438D02*
X137224285Y-98900057D01*
X137224285Y-98900057D02*
X137176666Y-98995295D01*
X137176666Y-98995295D02*
X137176666Y-99138152D01*
X137176666Y-99138152D02*
X137224285Y-99233390D01*
X137224285Y-99233390D02*
X137271904Y-99281009D01*
X137271904Y-99281009D02*
X137367142Y-99328628D01*
X137367142Y-99328628D02*
X137748094Y-99328628D01*
X136319523Y-99138152D02*
X136319523Y-99804819D01*
X136557618Y-98757200D02*
X136795713Y-99471485D01*
X136795713Y-99471485D02*
X136176666Y-99471485D01*
X146746666Y-108229580D02*
X146794285Y-108277200D01*
X146794285Y-108277200D02*
X146937142Y-108324819D01*
X146937142Y-108324819D02*
X147032380Y-108324819D01*
X147032380Y-108324819D02*
X147175237Y-108277200D01*
X147175237Y-108277200D02*
X147270475Y-108181961D01*
X147270475Y-108181961D02*
X147318094Y-108086723D01*
X147318094Y-108086723D02*
X147365713Y-107896247D01*
X147365713Y-107896247D02*
X147365713Y-107753390D01*
X147365713Y-107753390D02*
X147318094Y-107562914D01*
X147318094Y-107562914D02*
X147270475Y-107467676D01*
X147270475Y-107467676D02*
X147175237Y-107372438D01*
X147175237Y-107372438D02*
X147032380Y-107324819D01*
X147032380Y-107324819D02*
X146937142Y-107324819D01*
X146937142Y-107324819D02*
X146794285Y-107372438D01*
X146794285Y-107372438D02*
X146746666Y-107420057D01*
X145889523Y-107658152D02*
X145889523Y-108324819D01*
X146127618Y-107277200D02*
X146365713Y-107991485D01*
X146365713Y-107991485D02*
X145746666Y-107991485D01*
X147404819Y-101754405D02*
X146404819Y-101754405D01*
X146404819Y-101754405D02*
X146404819Y-101992500D01*
X146404819Y-101992500D02*
X146452438Y-102135357D01*
X146452438Y-102135357D02*
X146547676Y-102230595D01*
X146547676Y-102230595D02*
X146642914Y-102278214D01*
X146642914Y-102278214D02*
X146833390Y-102325833D01*
X146833390Y-102325833D02*
X146976247Y-102325833D01*
X146976247Y-102325833D02*
X147166723Y-102278214D01*
X147166723Y-102278214D02*
X147261961Y-102230595D01*
X147261961Y-102230595D02*
X147357200Y-102135357D01*
X147357200Y-102135357D02*
X147404819Y-101992500D01*
X147404819Y-101992500D02*
X147404819Y-101754405D01*
X147404819Y-103278214D02*
X147404819Y-102706786D01*
X147404819Y-102992500D02*
X146404819Y-102992500D01*
X146404819Y-102992500D02*
X146547676Y-102897262D01*
X146547676Y-102897262D02*
X146642914Y-102802024D01*
X146642914Y-102802024D02*
X146690533Y-102706786D01*
X149746666Y-117809580D02*
X149794285Y-117857200D01*
X149794285Y-117857200D02*
X149937142Y-117904819D01*
X149937142Y-117904819D02*
X150032380Y-117904819D01*
X150032380Y-117904819D02*
X150175237Y-117857200D01*
X150175237Y-117857200D02*
X150270475Y-117761961D01*
X150270475Y-117761961D02*
X150318094Y-117666723D01*
X150318094Y-117666723D02*
X150365713Y-117476247D01*
X150365713Y-117476247D02*
X150365713Y-117333390D01*
X150365713Y-117333390D02*
X150318094Y-117142914D01*
X150318094Y-117142914D02*
X150270475Y-117047676D01*
X150270475Y-117047676D02*
X150175237Y-116952438D01*
X150175237Y-116952438D02*
X150032380Y-116904819D01*
X150032380Y-116904819D02*
X149937142Y-116904819D01*
X149937142Y-116904819D02*
X149794285Y-116952438D01*
X149794285Y-116952438D02*
X149746666Y-117000057D01*
X149413332Y-116904819D02*
X148794285Y-116904819D01*
X148794285Y-116904819D02*
X149127618Y-117285771D01*
X149127618Y-117285771D02*
X148984761Y-117285771D01*
X148984761Y-117285771D02*
X148889523Y-117333390D01*
X148889523Y-117333390D02*
X148841904Y-117381009D01*
X148841904Y-117381009D02*
X148794285Y-117476247D01*
X148794285Y-117476247D02*
X148794285Y-117714342D01*
X148794285Y-117714342D02*
X148841904Y-117809580D01*
X148841904Y-117809580D02*
X148889523Y-117857200D01*
X148889523Y-117857200D02*
X148984761Y-117904819D01*
X148984761Y-117904819D02*
X149270475Y-117904819D01*
X149270475Y-117904819D02*
X149365713Y-117857200D01*
X149365713Y-117857200D02*
X149413332Y-117809580D01*
X129383333Y-121594819D02*
X129383333Y-122309104D01*
X129383333Y-122309104D02*
X129430952Y-122451961D01*
X129430952Y-122451961D02*
X129526190Y-122547200D01*
X129526190Y-122547200D02*
X129669047Y-122594819D01*
X129669047Y-122594819D02*
X129764285Y-122594819D01*
X128383333Y-122594819D02*
X128954761Y-122594819D01*
X128669047Y-122594819D02*
X128669047Y-121594819D01*
X128669047Y-121594819D02*
X128764285Y-121737676D01*
X128764285Y-121737676D02*
X128859523Y-121832914D01*
X128859523Y-121832914D02*
X128954761Y-121880533D01*
X123866666Y-115314819D02*
X124199999Y-114838628D01*
X124438094Y-115314819D02*
X124438094Y-114314819D01*
X124438094Y-114314819D02*
X124057142Y-114314819D01*
X124057142Y-114314819D02*
X123961904Y-114362438D01*
X123961904Y-114362438D02*
X123914285Y-114410057D01*
X123914285Y-114410057D02*
X123866666Y-114505295D01*
X123866666Y-114505295D02*
X123866666Y-114648152D01*
X123866666Y-114648152D02*
X123914285Y-114743390D01*
X123914285Y-114743390D02*
X123961904Y-114791009D01*
X123961904Y-114791009D02*
X124057142Y-114838628D01*
X124057142Y-114838628D02*
X124438094Y-114838628D01*
X123295237Y-114743390D02*
X123390475Y-114695771D01*
X123390475Y-114695771D02*
X123438094Y-114648152D01*
X123438094Y-114648152D02*
X123485713Y-114552914D01*
X123485713Y-114552914D02*
X123485713Y-114505295D01*
X123485713Y-114505295D02*
X123438094Y-114410057D01*
X123438094Y-114410057D02*
X123390475Y-114362438D01*
X123390475Y-114362438D02*
X123295237Y-114314819D01*
X123295237Y-114314819D02*
X123104761Y-114314819D01*
X123104761Y-114314819D02*
X123009523Y-114362438D01*
X123009523Y-114362438D02*
X122961904Y-114410057D01*
X122961904Y-114410057D02*
X122914285Y-114505295D01*
X122914285Y-114505295D02*
X122914285Y-114552914D01*
X122914285Y-114552914D02*
X122961904Y-114648152D01*
X122961904Y-114648152D02*
X123009523Y-114695771D01*
X123009523Y-114695771D02*
X123104761Y-114743390D01*
X123104761Y-114743390D02*
X123295237Y-114743390D01*
X123295237Y-114743390D02*
X123390475Y-114791009D01*
X123390475Y-114791009D02*
X123438094Y-114838628D01*
X123438094Y-114838628D02*
X123485713Y-114933866D01*
X123485713Y-114933866D02*
X123485713Y-115124342D01*
X123485713Y-115124342D02*
X123438094Y-115219580D01*
X123438094Y-115219580D02*
X123390475Y-115267200D01*
X123390475Y-115267200D02*
X123295237Y-115314819D01*
X123295237Y-115314819D02*
X123104761Y-115314819D01*
X123104761Y-115314819D02*
X123009523Y-115267200D01*
X123009523Y-115267200D02*
X122961904Y-115219580D01*
X122961904Y-115219580D02*
X122914285Y-115124342D01*
X122914285Y-115124342D02*
X122914285Y-114933866D01*
X122914285Y-114933866D02*
X122961904Y-114838628D01*
X122961904Y-114838628D02*
X123009523Y-114791009D01*
X123009523Y-114791009D02*
X123104761Y-114743390D01*
D10*
X141176666Y-122574895D02*
X141176666Y-123146323D01*
X141176666Y-123146323D02*
X141214761Y-123260609D01*
X141214761Y-123260609D02*
X141290952Y-123336800D01*
X141290952Y-123336800D02*
X141405237Y-123374895D01*
X141405237Y-123374895D02*
X141481428Y-123374895D01*
X140833809Y-122651085D02*
X140795713Y-122612990D01*
X140795713Y-122612990D02*
X140719523Y-122574895D01*
X140719523Y-122574895D02*
X140529047Y-122574895D01*
X140529047Y-122574895D02*
X140452856Y-122612990D01*
X140452856Y-122612990D02*
X140414761Y-122651085D01*
X140414761Y-122651085D02*
X140376666Y-122727276D01*
X140376666Y-122727276D02*
X140376666Y-122803466D01*
X140376666Y-122803466D02*
X140414761Y-122917752D01*
X140414761Y-122917752D02*
X140871904Y-123374895D01*
X140871904Y-123374895D02*
X140376666Y-123374895D01*
D11*
X143206666Y-104779580D02*
X143254285Y-104827200D01*
X143254285Y-104827200D02*
X143397142Y-104874819D01*
X143397142Y-104874819D02*
X143492380Y-104874819D01*
X143492380Y-104874819D02*
X143635237Y-104827200D01*
X143635237Y-104827200D02*
X143730475Y-104731961D01*
X143730475Y-104731961D02*
X143778094Y-104636723D01*
X143778094Y-104636723D02*
X143825713Y-104446247D01*
X143825713Y-104446247D02*
X143825713Y-104303390D01*
X143825713Y-104303390D02*
X143778094Y-104112914D01*
X143778094Y-104112914D02*
X143730475Y-104017676D01*
X143730475Y-104017676D02*
X143635237Y-103922438D01*
X143635237Y-103922438D02*
X143492380Y-103874819D01*
X143492380Y-103874819D02*
X143397142Y-103874819D01*
X143397142Y-103874819D02*
X143254285Y-103922438D01*
X143254285Y-103922438D02*
X143206666Y-103970057D01*
X142825713Y-103970057D02*
X142778094Y-103922438D01*
X142778094Y-103922438D02*
X142682856Y-103874819D01*
X142682856Y-103874819D02*
X142444761Y-103874819D01*
X142444761Y-103874819D02*
X142349523Y-103922438D01*
X142349523Y-103922438D02*
X142301904Y-103970057D01*
X142301904Y-103970057D02*
X142254285Y-104065295D01*
X142254285Y-104065295D02*
X142254285Y-104160533D01*
X142254285Y-104160533D02*
X142301904Y-104303390D01*
X142301904Y-104303390D02*
X142873332Y-104874819D01*
X142873332Y-104874819D02*
X142254285Y-104874819D01*
X149732857Y-108344819D02*
X150066190Y-107868628D01*
X150304285Y-108344819D02*
X150304285Y-107344819D01*
X150304285Y-107344819D02*
X149923333Y-107344819D01*
X149923333Y-107344819D02*
X149828095Y-107392438D01*
X149828095Y-107392438D02*
X149780476Y-107440057D01*
X149780476Y-107440057D02*
X149732857Y-107535295D01*
X149732857Y-107535295D02*
X149732857Y-107678152D01*
X149732857Y-107678152D02*
X149780476Y-107773390D01*
X149780476Y-107773390D02*
X149828095Y-107821009D01*
X149828095Y-107821009D02*
X149923333Y-107868628D01*
X149923333Y-107868628D02*
X150304285Y-107868628D01*
X148780476Y-108344819D02*
X149351904Y-108344819D01*
X149066190Y-108344819D02*
X149066190Y-107344819D01*
X149066190Y-107344819D02*
X149161428Y-107487676D01*
X149161428Y-107487676D02*
X149256666Y-107582914D01*
X149256666Y-107582914D02*
X149351904Y-107630533D01*
X147828095Y-108344819D02*
X148399523Y-108344819D01*
X148113809Y-108344819D02*
X148113809Y-107344819D01*
X148113809Y-107344819D02*
X148209047Y-107487676D01*
X148209047Y-107487676D02*
X148304285Y-107582914D01*
X148304285Y-107582914D02*
X148399523Y-107630533D01*
D12*
%TO.C,R2*%
X128875000Y-116207064D02*
X128875000Y-115752936D01*
X130345000Y-116207064D02*
X130345000Y-115752936D01*
%TO.C,C5*%
X133005000Y-116251252D02*
X133005000Y-115728748D01*
X134475000Y-116251252D02*
X134475000Y-115728748D01*
%TO.C,R9*%
X139105000Y-115740436D02*
X139105000Y-116194564D01*
X140575000Y-115740436D02*
X140575000Y-116194564D01*
%TO.C,R6*%
X126587064Y-107205000D02*
X126132936Y-107205000D01*
X126587064Y-108675000D02*
X126132936Y-108675000D01*
%TO.C,R5*%
X126577064Y-105295000D02*
X126122936Y-105295000D01*
X126577064Y-106765000D02*
X126122936Y-106765000D01*
%TO.C,R3*%
X130885000Y-116207064D02*
X130885000Y-115752936D01*
X132355000Y-116207064D02*
X132355000Y-115752936D01*
%TO.C,R1*%
X148005000Y-104802936D02*
X148005000Y-105257064D01*
X149475000Y-104802936D02*
X149475000Y-105257064D01*
%TO.C,U1*%
X145792500Y-113405000D02*
X145792500Y-114205000D01*
X145792500Y-115005000D02*
X145792500Y-114205000D01*
X148912500Y-113405000D02*
X148912500Y-114205000D01*
X148912500Y-115005000D02*
X148912500Y-114205000D01*
X149192500Y-115745000D02*
X148862500Y-115505000D01*
X149192500Y-115265000D01*
X149192500Y-115745000D01*
G36*
X149192500Y-115745000D02*
G01*
X148862500Y-115505000D01*
X149192500Y-115265000D01*
X149192500Y-115745000D01*
G37*
%TO.C,C1*%
X126615000Y-111888748D02*
X126615000Y-112411252D01*
X128085000Y-111888748D02*
X128085000Y-112411252D01*
%TO.C,R10*%
X137075000Y-115745436D02*
X137075000Y-116199564D01*
X138545000Y-115745436D02*
X138545000Y-116199564D01*
%TO.C,R7*%
X126052936Y-116135000D02*
X126507064Y-116135000D01*
X126052936Y-117605000D02*
X126507064Y-117605000D01*
%TO.C,R4*%
X136702936Y-100005000D02*
X137157064Y-100005000D01*
X136702936Y-101475000D02*
X137157064Y-101475000D01*
%TO.C,C4*%
X146335000Y-110083748D02*
X146335000Y-110606252D01*
X147805000Y-110083748D02*
X147805000Y-110606252D01*
%TO.C,D1*%
X146350000Y-106030000D02*
X146350000Y-104070000D01*
X146350000Y-106030000D02*
X147550000Y-106030000D01*
X147550000Y-106030000D02*
X147550000Y-104070000D01*
%TO.C,C3*%
X147083752Y-116730000D02*
X146561248Y-116730000D01*
X147083752Y-118200000D02*
X146561248Y-118200000D01*
%TO.C,J1*%
X123655000Y-120370000D02*
X123655000Y-121820000D01*
X124925000Y-124640000D02*
X133355000Y-124640000D01*
X125455000Y-120370000D02*
X123655000Y-120370000D01*
X132825000Y-119380000D02*
X132825000Y-120370000D01*
X132825000Y-120370000D02*
X134625000Y-120370000D01*
X134625000Y-120370000D02*
X134625000Y-121820000D01*
%TO.C,R8*%
X126062936Y-114135000D02*
X126517064Y-114135000D01*
X126062936Y-115605000D02*
X126517064Y-115605000D01*
%TO.C,J2*%
X136835000Y-120410000D02*
X136835000Y-121860000D01*
X138105000Y-124680000D02*
X144035000Y-124680000D01*
X138635000Y-120410000D02*
X136835000Y-120410000D01*
X143505000Y-119420000D02*
X143505000Y-120410000D01*
X143505000Y-120410000D02*
X145305000Y-120410000D01*
X145305000Y-120410000D02*
X145305000Y-121860000D01*
%TO.C,C2*%
X144140000Y-103792936D02*
X144140000Y-105247064D01*
X145960000Y-103792936D02*
X145960000Y-105247064D01*
%TO.C,R11*%
X148355000Y-110137936D02*
X148355000Y-110592064D01*
X149825000Y-110137936D02*
X149825000Y-110592064D01*
%TD*%
M02*
