M48
; DRILL file {KiCad 8.0.6+1} date 2025-01-11T17:58:48+0000
; FORMAT={3:3/ absolute / metric / suppress leading zeros}
; #@! TF.CreationDate,2025-01-11T17:58:48+00:00
; #@! TF.GenerationSoftware,Kicad,Pcbnew,8.0.6+1
; #@! TF.FileFunction,Plated,1,2,PTH
FMAT,2
METRIC,TZ
; #@! TA.AperFunction,Plated,PTH,ViaDrill
T1C0.300
; #@! TA.AperFunction,Plated,PTH,ComponentDrill
T2C3.200
%
G90
G05
T1
X113670Y-87710
X113670Y-92710
X113670Y-97710
X113670Y-102710
X113670Y-107710
X113670Y-112710
X113670Y-117710
X113670Y-122710
X113670Y-127710
X113670Y-132710
X118670Y-87710
X118670Y-92710
X118670Y-97710
X118670Y-102710
X118670Y-107710
X118670Y-112710
X118670Y-117710
X118670Y-122710
X118670Y-127710
X118670Y-132710
X123670Y-87710
X123670Y-92710
X123670Y-97710
X123670Y-102710
X123670Y-107710
X123670Y-112710
X123670Y-122710
X123670Y-127710
X123670Y-132710
X124090Y-119220
X124090Y-122220
X127090Y-122220
X127290Y-115800
X128670Y-87710
X128670Y-92710
X128670Y-97710
X128670Y-102710
X128670Y-122710
X128670Y-127710
X128670Y-132710
X129410Y-107770
X129450Y-110250
X130090Y-122220
X130130Y-111980
X130540Y-100120
X133090Y-122220
X133670Y-87710
X133670Y-92710
X133670Y-97710
X133670Y-107710
X133670Y-112710
X133670Y-122710
X133670Y-127710
X133670Y-132710
X133970Y-115050
X134120Y-103400
X136090Y-113220
X136090Y-119220
X136090Y-122220
X137910Y-103395
X138670Y-87710
X138670Y-92710
X138670Y-97710
X138670Y-122710
X138670Y-127710
X138670Y-132710
X138830Y-112880
X139000Y-107700
X139840Y-115055
X142090Y-122620
X142180Y-109630
X142610Y-111895
X143170Y-100110
X143670Y-87710
X143670Y-92710
X143670Y-97710
X143670Y-102710
X143670Y-107710
X143670Y-117710
X143670Y-122710
X143670Y-127710
X143670Y-132710
X145090Y-116220
X145090Y-122220
X147070Y-109395
X147640Y-108040
X148670Y-87710
X148670Y-92710
X148670Y-97710
X148670Y-102710
X148670Y-107710
X148670Y-117710
X148670Y-122710
X148670Y-127710
X148670Y-132710
X153670Y-87710
X153670Y-92710
X153670Y-97710
X153670Y-102710
X153670Y-107710
X153670Y-112710
X153670Y-117710
X153670Y-122710
X153670Y-127710
X153670Y-132710
X158670Y-87710
X158670Y-92710
X158670Y-97710
X158670Y-102710
X158670Y-107710
X158670Y-112710
X158670Y-117710
X158670Y-122710
X158670Y-127710
X158670Y-132710
T2
X115700Y-89680
X115700Y-130320
X156340Y-89680
X156340Y-130320
M30
