%TF.GenerationSoftware,KiCad,Pcbnew,8.0.4+1*%
%TF.CreationDate,2024-10-18T12:55:20+00:00*%
%TF.ProjectId,TFGPSLITE01,54464750-534c-4495-9445-30312e6b6963,rev?*%
%TF.SameCoordinates,Original*%
%TF.FileFunction,Legend,Top*%
%TF.FilePolarity,Positive*%
%FSLAX46Y46*%
G04 Gerber Fmt 4.6, Leading zero omitted, Abs format (unit mm)*
G04 Created by KiCad (PCBNEW 8.0.4+1) date 2024-10-18 12:55:20*
%MOMM*%
%LPD*%
G01*
G04 APERTURE LIST*
%ADD10C,0.000000*%
%ADD11C,0.100000*%
%ADD12C,0.200000*%
%ADD13C,0.120000*%
G04 APERTURE END LIST*
D10*
G36*
X126240428Y-104431330D02*
G01*
X125481377Y-104431330D01*
X125481377Y-106639387D01*
X124990684Y-106639387D01*
X124990684Y-104431330D01*
X124231662Y-104431330D01*
X124231662Y-103955956D01*
X126240428Y-103955956D01*
X126240428Y-104431330D01*
G37*
G36*
X140513954Y-103956758D02*
G01*
X140565475Y-103959164D01*
X140615578Y-103963173D01*
X140664263Y-103968786D01*
X140711531Y-103976002D01*
X140757378Y-103984821D01*
X140801807Y-103995242D01*
X140844814Y-104007267D01*
X140886400Y-104020894D01*
X140926564Y-104036123D01*
X140965305Y-104052953D01*
X141002623Y-104071386D01*
X141038516Y-104091420D01*
X141072985Y-104113056D01*
X141106028Y-104136293D01*
X141137644Y-104161130D01*
X141167595Y-104187528D01*
X141195612Y-104215469D01*
X141221697Y-104244955D01*
X141245848Y-104275985D01*
X141268067Y-104308558D01*
X141288353Y-104342675D01*
X141306706Y-104378335D01*
X141323127Y-104415538D01*
X141337616Y-104454284D01*
X141350173Y-104494572D01*
X141360797Y-104536402D01*
X141369490Y-104579774D01*
X141376250Y-104624688D01*
X141381079Y-104671143D01*
X141383976Y-104719140D01*
X141384942Y-104768677D01*
X141384477Y-104803265D01*
X141383081Y-104837058D01*
X141380755Y-104870056D01*
X141377499Y-104902261D01*
X141373314Y-104933671D01*
X141368200Y-104964287D01*
X141362157Y-104994110D01*
X141355186Y-105023138D01*
X141347288Y-105051372D01*
X141338462Y-105078813D01*
X141328709Y-105105459D01*
X141318030Y-105131312D01*
X141306425Y-105156371D01*
X141293894Y-105180637D01*
X141280437Y-105204109D01*
X141266056Y-105226788D01*
X141250799Y-105248784D01*
X141234766Y-105270228D01*
X141217957Y-105291119D01*
X141200371Y-105311457D01*
X141182010Y-105331243D01*
X141162871Y-105350474D01*
X141142956Y-105369153D01*
X141122264Y-105387278D01*
X141100795Y-105404848D01*
X141078548Y-105421865D01*
X141055524Y-105438328D01*
X141031722Y-105454236D01*
X141007141Y-105469589D01*
X140981783Y-105484387D01*
X140955646Y-105498631D01*
X140928730Y-105512319D01*
X141534449Y-106639387D01*
X140986163Y-106639387D01*
X140468637Y-105642684D01*
X139970374Y-105642684D01*
X139970374Y-106639387D01*
X139479659Y-106639387D01*
X139479659Y-105232524D01*
X139479659Y-104366151D01*
X139970376Y-104366151D01*
X139970376Y-105232524D01*
X140330631Y-105232524D01*
X140396094Y-105230816D01*
X140457331Y-105225693D01*
X140514344Y-105217154D01*
X140567132Y-105205201D01*
X140591942Y-105197944D01*
X140615696Y-105189834D01*
X140638394Y-105180870D01*
X140660036Y-105171052D01*
X140680622Y-105160382D01*
X140700152Y-105148857D01*
X140718626Y-105136480D01*
X140736044Y-105123249D01*
X140752406Y-105109165D01*
X140767713Y-105094228D01*
X140781964Y-105078437D01*
X140795159Y-105061794D01*
X140807298Y-105044297D01*
X140818381Y-105025947D01*
X140828409Y-105006745D01*
X140837381Y-104986689D01*
X140845298Y-104965781D01*
X140852159Y-104944020D01*
X140857964Y-104921406D01*
X140862714Y-104897939D01*
X140866408Y-104873619D01*
X140869046Y-104848447D01*
X140870630Y-104822422D01*
X140871157Y-104795545D01*
X140870678Y-104769586D01*
X140869239Y-104744420D01*
X140866842Y-104720047D01*
X140863487Y-104696468D01*
X140859173Y-104673681D01*
X140853901Y-104651688D01*
X140847671Y-104630489D01*
X140840484Y-104610083D01*
X140832339Y-104590471D01*
X140823237Y-104571654D01*
X140813178Y-104553630D01*
X140802162Y-104536400D01*
X140790190Y-104519965D01*
X140777261Y-104504325D01*
X140763376Y-104489479D01*
X140748535Y-104475428D01*
X140732602Y-104462196D01*
X140715471Y-104449819D01*
X140697142Y-104438294D01*
X140677614Y-104427623D01*
X140656887Y-104417806D01*
X140634962Y-104408841D01*
X140611839Y-104400731D01*
X140587517Y-104393474D01*
X140561998Y-104387070D01*
X140535280Y-104381521D01*
X140507365Y-104376824D01*
X140478252Y-104372982D01*
X140447942Y-104369994D01*
X140416434Y-104367859D01*
X140383728Y-104366578D01*
X140349825Y-104366151D01*
X139970376Y-104366151D01*
X139479659Y-104366151D01*
X139479659Y-103955956D01*
X140461018Y-103955956D01*
X140513954Y-103956758D01*
G37*
G36*
X143692603Y-104431330D02*
G01*
X142596171Y-104431330D01*
X142492736Y-105002527D01*
X143343780Y-105002527D01*
X143259396Y-105477867D01*
X142408351Y-105477867D01*
X142205223Y-106639387D01*
X141714507Y-106639387D01*
X142186102Y-103955956D01*
X143776917Y-103955956D01*
X143692603Y-104431330D01*
G37*
G36*
X139053366Y-104431330D02*
G01*
X137838186Y-104431330D01*
X137838186Y-105002527D01*
X138781231Y-105002527D01*
X138781231Y-105477867D01*
X137838186Y-105477867D01*
X137838186Y-106164076D01*
X139091818Y-106164076D01*
X139091818Y-106639387D01*
X137336041Y-106639387D01*
X137336041Y-103955956D01*
X139053366Y-103955956D01*
X139053366Y-104431330D01*
G37*
G36*
X133597445Y-105688708D02*
G01*
X133597445Y-103955956D01*
X134088088Y-103955956D01*
X134088088Y-106639387D01*
X133685569Y-106639387D01*
X132458890Y-104799404D01*
X132458890Y-106639387D01*
X131968247Y-106639387D01*
X131968247Y-103955956D01*
X132451200Y-103955956D01*
X133597445Y-105688708D01*
G37*
G36*
X146118583Y-105029317D02*
G01*
X146916001Y-103955956D01*
X147437336Y-103955956D01*
X146279659Y-105451077D01*
X146068699Y-106639387D01*
X145581938Y-106639387D01*
X145788947Y-105451077D01*
X145788949Y-105451077D01*
X145160227Y-103955956D01*
X145681632Y-103955956D01*
X146118583Y-105029317D01*
G37*
G36*
X145492547Y-109959386D02*
G01*
X145001904Y-109959386D01*
X145473426Y-107275932D01*
X145964140Y-107275932D01*
X145492547Y-109959386D01*
G37*
G36*
X143551705Y-109959386D02*
G01*
X143061061Y-109959386D01*
X143532585Y-107275932D01*
X144023300Y-107275932D01*
X143551705Y-109959386D01*
G37*
G36*
X135675064Y-103956585D02*
G01*
X135722013Y-103958473D01*
X135768317Y-103961619D01*
X135813978Y-103966023D01*
X135858995Y-103971686D01*
X135903369Y-103978607D01*
X135947099Y-103986787D01*
X135990187Y-103996225D01*
X136032633Y-104006922D01*
X136074436Y-104018877D01*
X136115597Y-104032090D01*
X136156117Y-104046562D01*
X136195996Y-104062292D01*
X136235234Y-104079281D01*
X136273831Y-104097528D01*
X136311788Y-104117034D01*
X136348882Y-104137710D01*
X136384942Y-104159496D01*
X136419969Y-104182392D01*
X136453963Y-104206396D01*
X136486924Y-104231509D01*
X136518851Y-104257731D01*
X136549746Y-104285061D01*
X136579608Y-104313499D01*
X136608437Y-104343044D01*
X136636234Y-104373697D01*
X136662998Y-104405457D01*
X136688730Y-104438323D01*
X136713429Y-104472296D01*
X136737097Y-104507376D01*
X136759732Y-104543561D01*
X136781335Y-104580851D01*
X136801763Y-104619148D01*
X136820874Y-104658310D01*
X136838666Y-104698340D01*
X136855141Y-104739236D01*
X136870298Y-104781000D01*
X136884136Y-104823631D01*
X136896657Y-104867129D01*
X136907860Y-104911496D01*
X136917744Y-104956730D01*
X136926311Y-105002834D01*
X136933560Y-105049805D01*
X136939491Y-105097646D01*
X136944104Y-105146356D01*
X136947399Y-105195935D01*
X136949376Y-105246384D01*
X136950035Y-105297703D01*
X136949376Y-105349009D01*
X136947399Y-105399450D01*
X136944104Y-105449026D01*
X136939491Y-105497735D01*
X136933560Y-105545577D01*
X136926311Y-105592553D01*
X136917744Y-105638662D01*
X136907860Y-105683903D01*
X136896657Y-105728276D01*
X136884136Y-105771781D01*
X136870298Y-105814417D01*
X136855141Y-105856185D01*
X136838666Y-105897084D01*
X136820874Y-105937113D01*
X136801763Y-105976272D01*
X136781335Y-106014561D01*
X136759732Y-106051869D01*
X136737097Y-106088067D01*
X136713430Y-106123155D01*
X136688731Y-106157133D01*
X136662999Y-106190001D01*
X136636235Y-106221760D01*
X136608438Y-106252410D01*
X136579609Y-106281951D01*
X136549747Y-106310383D01*
X136518852Y-106337706D01*
X136486924Y-106363921D01*
X136453963Y-106389028D01*
X136419969Y-106413027D01*
X136384942Y-106435919D01*
X136348882Y-106457703D01*
X136311788Y-106478379D01*
X136273831Y-106497887D01*
X136235234Y-106516135D01*
X136195996Y-106533122D01*
X136156117Y-106548849D01*
X136115597Y-106563316D01*
X136074436Y-106576523D01*
X136032633Y-106588471D01*
X135990187Y-106599161D01*
X135947099Y-106608591D01*
X135903369Y-106616763D01*
X135858995Y-106623677D01*
X135813978Y-106629333D01*
X135768317Y-106633732D01*
X135722013Y-106636874D01*
X135675064Y-106638758D01*
X135627470Y-106639387D01*
X134623182Y-106639387D01*
X134623182Y-106202387D01*
X134623182Y-104393025D01*
X135113825Y-104393025D01*
X135113825Y-106202387D01*
X135627470Y-106202387D01*
X135674675Y-106201452D01*
X135720458Y-106198646D01*
X135764818Y-106193970D01*
X135807757Y-106187422D01*
X135849273Y-106179003D01*
X135889368Y-106168711D01*
X135928040Y-106156547D01*
X135965290Y-106142510D01*
X136001118Y-106126600D01*
X136035523Y-106108816D01*
X136068507Y-106089159D01*
X136100068Y-106067626D01*
X136130208Y-106044219D01*
X136158925Y-106018937D01*
X136186220Y-105991779D01*
X136212094Y-105962746D01*
X136236457Y-105932081D01*
X136259252Y-105899962D01*
X136280476Y-105866387D01*
X136300130Y-105831358D01*
X136318214Y-105794874D01*
X136334726Y-105756937D01*
X136349668Y-105717547D01*
X136363038Y-105676703D01*
X136374836Y-105634407D01*
X136385062Y-105590659D01*
X136393716Y-105545460D01*
X136400797Y-105498809D01*
X136406305Y-105450708D01*
X136410239Y-105401156D01*
X136412600Y-105350154D01*
X136413387Y-105297703D01*
X136412600Y-105245238D01*
X136410239Y-105194226D01*
X136406305Y-105144666D01*
X136400797Y-105096558D01*
X136393716Y-105049903D01*
X136385062Y-105004700D01*
X136374836Y-104960950D01*
X136363038Y-104918653D01*
X136349668Y-104877808D01*
X136334726Y-104838416D01*
X136318214Y-104800478D01*
X136300130Y-104763992D01*
X136280476Y-104728960D01*
X136259252Y-104695381D01*
X136236457Y-104663255D01*
X136212094Y-104632583D01*
X136186220Y-104603586D01*
X136158925Y-104576457D01*
X136130208Y-104551198D01*
X136100068Y-104527807D01*
X136068507Y-104506286D01*
X136035523Y-104486635D01*
X136001118Y-104468853D01*
X135965290Y-104452942D01*
X135928040Y-104438902D01*
X135889368Y-104426732D01*
X135849273Y-104416434D01*
X135807757Y-104408008D01*
X135764818Y-104401453D01*
X135720458Y-104396771D01*
X135674675Y-104393962D01*
X135627470Y-104393025D01*
X135113825Y-104393025D01*
X134623182Y-104393025D01*
X134623182Y-103955956D01*
X135627470Y-103955956D01*
X135675064Y-103956585D01*
G37*
G36*
X142786105Y-103313899D02*
G01*
X142295461Y-103313899D01*
X142766915Y-100630460D01*
X143257629Y-100630460D01*
X142786105Y-103313899D01*
G37*
G36*
X146651702Y-103313899D02*
G01*
X146161059Y-103313899D01*
X146632511Y-100630460D01*
X147123297Y-100630460D01*
X146651702Y-103313899D01*
G37*
G36*
X141628996Y-109959386D02*
G01*
X141138351Y-109959386D01*
X141609875Y-107275932D01*
X142100520Y-107275932D01*
X141628996Y-109959386D01*
G37*
G36*
X144708462Y-103313899D02*
G01*
X144217747Y-103313899D01*
X144689341Y-100630460D01*
X145179986Y-100630460D01*
X144708462Y-103313899D01*
G37*
G36*
X129724934Y-105362882D02*
G01*
X129725711Y-105431383D01*
X129728044Y-105496944D01*
X129731933Y-105559565D01*
X129737379Y-105619246D01*
X129744381Y-105675987D01*
X129752940Y-105729789D01*
X129763057Y-105780652D01*
X129774732Y-105828577D01*
X129781296Y-105851509D01*
X129788534Y-105873794D01*
X129796447Y-105895432D01*
X129805035Y-105916424D01*
X129814297Y-105936770D01*
X129824234Y-105956471D01*
X129834846Y-105975526D01*
X129846133Y-105993936D01*
X129858094Y-106011703D01*
X129870731Y-106028825D01*
X129884043Y-106045303D01*
X129898030Y-106061138D01*
X129912692Y-106076330D01*
X129928029Y-106090880D01*
X129944042Y-106104788D01*
X129960730Y-106118053D01*
X129978172Y-106130579D01*
X129996499Y-106142297D01*
X130015710Y-106153209D01*
X130035807Y-106163313D01*
X130056788Y-106172611D01*
X130078655Y-106181100D01*
X130101408Y-106188782D01*
X130125045Y-106195656D01*
X130149568Y-106201722D01*
X130174977Y-106206979D01*
X130201272Y-106211429D01*
X130228452Y-106215069D01*
X130256518Y-106217901D01*
X130285471Y-106219924D01*
X130315309Y-106221138D01*
X130346034Y-106221543D01*
X130376710Y-106221138D01*
X130406507Y-106219924D01*
X130435425Y-106217901D01*
X130463464Y-106215069D01*
X130490622Y-106211429D01*
X130516900Y-106206979D01*
X130542296Y-106201722D01*
X130566811Y-106195656D01*
X130590443Y-106188782D01*
X130613193Y-106181100D01*
X130635060Y-106172611D01*
X130656043Y-106163313D01*
X130676141Y-106153209D01*
X130695355Y-106142297D01*
X130713683Y-106130579D01*
X130731126Y-106118053D01*
X130747803Y-106104788D01*
X130763808Y-106090880D01*
X130779141Y-106076331D01*
X130793801Y-106061138D01*
X130807788Y-106045303D01*
X130821102Y-106028825D01*
X130833742Y-106011703D01*
X130845708Y-105993937D01*
X130856999Y-105975526D01*
X130867615Y-105956471D01*
X130877555Y-105936770D01*
X130886819Y-105916424D01*
X130895408Y-105895432D01*
X130903319Y-105873794D01*
X130910553Y-105851509D01*
X130917110Y-105828577D01*
X130928791Y-105780653D01*
X130938913Y-105729789D01*
X130947475Y-105675987D01*
X130954478Y-105619246D01*
X130959924Y-105559565D01*
X130963813Y-105496945D01*
X130966146Y-105431384D01*
X130966923Y-105362882D01*
X130966923Y-103955956D01*
X131457566Y-103955956D01*
X131457566Y-105489388D01*
X131456473Y-105558872D01*
X131453194Y-105626455D01*
X131447730Y-105692137D01*
X131440079Y-105755918D01*
X131430244Y-105817798D01*
X131418223Y-105877777D01*
X131404018Y-105935854D01*
X131387628Y-105992030D01*
X131369053Y-106046305D01*
X131348295Y-106098679D01*
X131325352Y-106149151D01*
X131300225Y-106197722D01*
X131272915Y-106244391D01*
X131243421Y-106289159D01*
X131211744Y-106332025D01*
X131177884Y-106372990D01*
X131141818Y-106411743D01*
X131103629Y-106447996D01*
X131063316Y-106481748D01*
X131020880Y-106513001D01*
X130976321Y-106541754D01*
X130929639Y-106568007D01*
X130880833Y-106591759D01*
X130829904Y-106613012D01*
X130776852Y-106631764D01*
X130721676Y-106648017D01*
X130664377Y-106661769D01*
X130604955Y-106673020D01*
X130543410Y-106681772D01*
X130479741Y-106688023D01*
X130413949Y-106691773D01*
X130346034Y-106693024D01*
X130278081Y-106691773D01*
X130212254Y-106688023D01*
X130148555Y-106681772D01*
X130086983Y-106673020D01*
X130027538Y-106661769D01*
X129970220Y-106648017D01*
X129915030Y-106631764D01*
X129861967Y-106613012D01*
X129811031Y-106591759D01*
X129762223Y-106568007D01*
X129715544Y-106541754D01*
X129670992Y-106513001D01*
X129628567Y-106481748D01*
X129588271Y-106447996D01*
X129550104Y-106411743D01*
X129514064Y-106372990D01*
X129480178Y-106332025D01*
X129448480Y-106289159D01*
X129418968Y-106244391D01*
X129391643Y-106197722D01*
X129366504Y-106149151D01*
X129343553Y-106098679D01*
X129322787Y-106046305D01*
X129304208Y-105992030D01*
X129287815Y-105935854D01*
X129273608Y-105877777D01*
X129261588Y-105817798D01*
X129251753Y-105755918D01*
X129244103Y-105692137D01*
X129238640Y-105626455D01*
X129235362Y-105558872D01*
X129234269Y-105489388D01*
X129234269Y-103955956D01*
X129724934Y-103955956D01*
X129724934Y-105362882D01*
G37*
G36*
X127006259Y-105017823D02*
G01*
X128232902Y-105017823D01*
X128232902Y-103955956D01*
X128723651Y-103955956D01*
X128723651Y-106639387D01*
X128232902Y-106639387D01*
X128232902Y-105477867D01*
X127006259Y-105477867D01*
X127006259Y-106639387D01*
X126515623Y-106639387D01*
X126515623Y-103955956D01*
X127006259Y-103955956D01*
X127006259Y-105017823D01*
G37*
G36*
X144207166Y-106164076D02*
G01*
X145133277Y-106164076D01*
X145048965Y-106639387D01*
X143632211Y-106639387D01*
X144103803Y-103955956D01*
X144594445Y-103955956D01*
X144207166Y-106164076D01*
G37*
D11*
X125113884Y-122892419D02*
X125113884Y-123701942D01*
X125113884Y-123701942D02*
X125161503Y-123797180D01*
X125161503Y-123797180D02*
X125209122Y-123844800D01*
X125209122Y-123844800D02*
X125304360Y-123892419D01*
X125304360Y-123892419D02*
X125494836Y-123892419D01*
X125494836Y-123892419D02*
X125590074Y-123844800D01*
X125590074Y-123844800D02*
X125637693Y-123797180D01*
X125637693Y-123797180D02*
X125685312Y-123701942D01*
X125685312Y-123701942D02*
X125685312Y-122892419D01*
X126113884Y-123606704D02*
X126590074Y-123606704D01*
X126018646Y-123892419D02*
X126351979Y-122892419D01*
X126351979Y-122892419D02*
X126685312Y-123892419D01*
X127590074Y-123892419D02*
X127256741Y-123416228D01*
X127018646Y-123892419D02*
X127018646Y-122892419D01*
X127018646Y-122892419D02*
X127399598Y-122892419D01*
X127399598Y-122892419D02*
X127494836Y-122940038D01*
X127494836Y-122940038D02*
X127542455Y-122987657D01*
X127542455Y-122987657D02*
X127590074Y-123082895D01*
X127590074Y-123082895D02*
X127590074Y-123225752D01*
X127590074Y-123225752D02*
X127542455Y-123320990D01*
X127542455Y-123320990D02*
X127494836Y-123368609D01*
X127494836Y-123368609D02*
X127399598Y-123416228D01*
X127399598Y-123416228D02*
X127018646Y-123416228D01*
X127875789Y-122892419D02*
X128447217Y-122892419D01*
X128161503Y-123892419D02*
X128161503Y-122892419D01*
X130351980Y-123892419D02*
X130304361Y-123892419D01*
X130304361Y-123892419D02*
X130209122Y-123844800D01*
X130209122Y-123844800D02*
X130066265Y-123701942D01*
X130066265Y-123701942D02*
X129828170Y-123416228D01*
X129828170Y-123416228D02*
X129732932Y-123273371D01*
X129732932Y-123273371D02*
X129685313Y-123130514D01*
X129685313Y-123130514D02*
X129685313Y-123035276D01*
X129685313Y-123035276D02*
X129732932Y-122940038D01*
X129732932Y-122940038D02*
X129828170Y-122892419D01*
X129828170Y-122892419D02*
X129875789Y-122892419D01*
X129875789Y-122892419D02*
X129971027Y-122940038D01*
X129971027Y-122940038D02*
X130018646Y-123035276D01*
X130018646Y-123035276D02*
X130018646Y-123082895D01*
X130018646Y-123082895D02*
X129971027Y-123178133D01*
X129971027Y-123178133D02*
X129923408Y-123225752D01*
X129923408Y-123225752D02*
X129637694Y-123416228D01*
X129637694Y-123416228D02*
X129590075Y-123463847D01*
X129590075Y-123463847D02*
X129542456Y-123559085D01*
X129542456Y-123559085D02*
X129542456Y-123701942D01*
X129542456Y-123701942D02*
X129590075Y-123797180D01*
X129590075Y-123797180D02*
X129637694Y-123844800D01*
X129637694Y-123844800D02*
X129732932Y-123892419D01*
X129732932Y-123892419D02*
X129875789Y-123892419D01*
X129875789Y-123892419D02*
X129971027Y-123844800D01*
X129971027Y-123844800D02*
X130018646Y-123797180D01*
X130018646Y-123797180D02*
X130161503Y-123606704D01*
X130161503Y-123606704D02*
X130209122Y-123463847D01*
X130209122Y-123463847D02*
X130209122Y-123368609D01*
X131542456Y-123892419D02*
X131542456Y-122892419D01*
X131971027Y-122987657D02*
X132018646Y-122940038D01*
X132018646Y-122940038D02*
X132113884Y-122892419D01*
X132113884Y-122892419D02*
X132351979Y-122892419D01*
X132351979Y-122892419D02*
X132447217Y-122940038D01*
X132447217Y-122940038D02*
X132494836Y-122987657D01*
X132494836Y-122987657D02*
X132542455Y-123082895D01*
X132542455Y-123082895D02*
X132542455Y-123178133D01*
X132542455Y-123178133D02*
X132494836Y-123320990D01*
X132494836Y-123320990D02*
X131923408Y-123892419D01*
X131923408Y-123892419D02*
X132542455Y-123892419D01*
X133399598Y-123844800D02*
X133304360Y-123892419D01*
X133304360Y-123892419D02*
X133113884Y-123892419D01*
X133113884Y-123892419D02*
X133018646Y-123844800D01*
X133018646Y-123844800D02*
X132971027Y-123797180D01*
X132971027Y-123797180D02*
X132923408Y-123701942D01*
X132923408Y-123701942D02*
X132923408Y-123416228D01*
X132923408Y-123416228D02*
X132971027Y-123320990D01*
X132971027Y-123320990D02*
X133018646Y-123273371D01*
X133018646Y-123273371D02*
X133113884Y-123225752D01*
X133113884Y-123225752D02*
X133304360Y-123225752D01*
X133304360Y-123225752D02*
X133399598Y-123273371D01*
X139269524Y-113052419D02*
X139840952Y-113052419D01*
X139555238Y-114052419D02*
X139555238Y-113052419D01*
X140174286Y-114052419D02*
X140174286Y-113052419D01*
X140174286Y-113052419D02*
X140555238Y-113052419D01*
X140555238Y-113052419D02*
X140650476Y-113100038D01*
X140650476Y-113100038D02*
X140698095Y-113147657D01*
X140698095Y-113147657D02*
X140745714Y-113242895D01*
X140745714Y-113242895D02*
X140745714Y-113385752D01*
X140745714Y-113385752D02*
X140698095Y-113480990D01*
X140698095Y-113480990D02*
X140650476Y-113528609D01*
X140650476Y-113528609D02*
X140555238Y-113576228D01*
X140555238Y-113576228D02*
X140174286Y-113576228D01*
X141650476Y-114052419D02*
X141174286Y-114052419D01*
X141174286Y-114052419D02*
X141174286Y-113052419D01*
D12*
X124584863Y-108277358D02*
X125442006Y-108277358D01*
X125013434Y-109777358D02*
X125013434Y-108277358D01*
X126442005Y-108991644D02*
X125942005Y-108991644D01*
X125942005Y-109777358D02*
X125942005Y-108277358D01*
X125942005Y-108277358D02*
X126656291Y-108277358D01*
X128013434Y-108348787D02*
X127870577Y-108277358D01*
X127870577Y-108277358D02*
X127656291Y-108277358D01*
X127656291Y-108277358D02*
X127442005Y-108348787D01*
X127442005Y-108348787D02*
X127299148Y-108491644D01*
X127299148Y-108491644D02*
X127227719Y-108634501D01*
X127227719Y-108634501D02*
X127156291Y-108920215D01*
X127156291Y-108920215D02*
X127156291Y-109134501D01*
X127156291Y-109134501D02*
X127227719Y-109420215D01*
X127227719Y-109420215D02*
X127299148Y-109563072D01*
X127299148Y-109563072D02*
X127442005Y-109705930D01*
X127442005Y-109705930D02*
X127656291Y-109777358D01*
X127656291Y-109777358D02*
X127799148Y-109777358D01*
X127799148Y-109777358D02*
X128013434Y-109705930D01*
X128013434Y-109705930D02*
X128084862Y-109634501D01*
X128084862Y-109634501D02*
X128084862Y-109134501D01*
X128084862Y-109134501D02*
X127799148Y-109134501D01*
X128727719Y-109777358D02*
X128727719Y-108277358D01*
X128727719Y-108277358D02*
X129299148Y-108277358D01*
X129299148Y-108277358D02*
X129442005Y-108348787D01*
X129442005Y-108348787D02*
X129513434Y-108420215D01*
X129513434Y-108420215D02*
X129584862Y-108563072D01*
X129584862Y-108563072D02*
X129584862Y-108777358D01*
X129584862Y-108777358D02*
X129513434Y-108920215D01*
X129513434Y-108920215D02*
X129442005Y-108991644D01*
X129442005Y-108991644D02*
X129299148Y-109063072D01*
X129299148Y-109063072D02*
X128727719Y-109063072D01*
X130156291Y-109705930D02*
X130370577Y-109777358D01*
X130370577Y-109777358D02*
X130727719Y-109777358D01*
X130727719Y-109777358D02*
X130870577Y-109705930D01*
X130870577Y-109705930D02*
X130942005Y-109634501D01*
X130942005Y-109634501D02*
X131013434Y-109491644D01*
X131013434Y-109491644D02*
X131013434Y-109348787D01*
X131013434Y-109348787D02*
X130942005Y-109205930D01*
X130942005Y-109205930D02*
X130870577Y-109134501D01*
X130870577Y-109134501D02*
X130727719Y-109063072D01*
X130727719Y-109063072D02*
X130442005Y-108991644D01*
X130442005Y-108991644D02*
X130299148Y-108920215D01*
X130299148Y-108920215D02*
X130227719Y-108848787D01*
X130227719Y-108848787D02*
X130156291Y-108705930D01*
X130156291Y-108705930D02*
X130156291Y-108563072D01*
X130156291Y-108563072D02*
X130227719Y-108420215D01*
X130227719Y-108420215D02*
X130299148Y-108348787D01*
X130299148Y-108348787D02*
X130442005Y-108277358D01*
X130442005Y-108277358D02*
X130799148Y-108277358D01*
X130799148Y-108277358D02*
X131013434Y-108348787D01*
X132370576Y-109777358D02*
X131656290Y-109777358D01*
X131656290Y-109777358D02*
X131656290Y-108277358D01*
X132870576Y-109777358D02*
X132870576Y-108277358D01*
X133370577Y-108277358D02*
X134227720Y-108277358D01*
X133799148Y-109777358D02*
X133799148Y-108277358D01*
X134727719Y-108991644D02*
X135227719Y-108991644D01*
X135442005Y-109777358D02*
X134727719Y-109777358D01*
X134727719Y-109777358D02*
X134727719Y-108277358D01*
X134727719Y-108277358D02*
X135442005Y-108277358D01*
X136370577Y-108277358D02*
X136513434Y-108277358D01*
X136513434Y-108277358D02*
X136656291Y-108348787D01*
X136656291Y-108348787D02*
X136727720Y-108420215D01*
X136727720Y-108420215D02*
X136799148Y-108563072D01*
X136799148Y-108563072D02*
X136870577Y-108848787D01*
X136870577Y-108848787D02*
X136870577Y-109205930D01*
X136870577Y-109205930D02*
X136799148Y-109491644D01*
X136799148Y-109491644D02*
X136727720Y-109634501D01*
X136727720Y-109634501D02*
X136656291Y-109705930D01*
X136656291Y-109705930D02*
X136513434Y-109777358D01*
X136513434Y-109777358D02*
X136370577Y-109777358D01*
X136370577Y-109777358D02*
X136227720Y-109705930D01*
X136227720Y-109705930D02*
X136156291Y-109634501D01*
X136156291Y-109634501D02*
X136084862Y-109491644D01*
X136084862Y-109491644D02*
X136013434Y-109205930D01*
X136013434Y-109205930D02*
X136013434Y-108848787D01*
X136013434Y-108848787D02*
X136084862Y-108563072D01*
X136084862Y-108563072D02*
X136156291Y-108420215D01*
X136156291Y-108420215D02*
X136227720Y-108348787D01*
X136227720Y-108348787D02*
X136370577Y-108277358D01*
X138299148Y-109777358D02*
X137442005Y-109777358D01*
X137870576Y-109777358D02*
X137870576Y-108277358D01*
X137870576Y-108277358D02*
X137727719Y-108491644D01*
X137727719Y-108491644D02*
X137584862Y-108634501D01*
X137584862Y-108634501D02*
X137442005Y-108705930D01*
X138870576Y-109348787D02*
X139584862Y-109348787D01*
X138727719Y-109777358D02*
X139227719Y-108277358D01*
X139227719Y-108277358D02*
X139727719Y-109777358D01*
D11*
X112624360Y-87444657D02*
X112795789Y-88044657D01*
X112795789Y-88044657D02*
X112967217Y-87616085D01*
X112967217Y-87616085D02*
X113138646Y-88044657D01*
X113138646Y-88044657D02*
X113310074Y-87444657D01*
X113567217Y-87444657D02*
X113738646Y-88044657D01*
X113738646Y-88044657D02*
X113910074Y-87616085D01*
X113910074Y-87616085D02*
X114081503Y-88044657D01*
X114081503Y-88044657D02*
X114252931Y-87444657D01*
X114510074Y-87444657D02*
X114681503Y-88044657D01*
X114681503Y-88044657D02*
X114852931Y-87616085D01*
X114852931Y-87616085D02*
X115024360Y-88044657D01*
X115024360Y-88044657D02*
X115195788Y-87444657D01*
X115538645Y-87958942D02*
X115581502Y-88001800D01*
X115581502Y-88001800D02*
X115538645Y-88044657D01*
X115538645Y-88044657D02*
X115495788Y-88001800D01*
X115495788Y-88001800D02*
X115538645Y-87958942D01*
X115538645Y-87958942D02*
X115538645Y-88044657D01*
X115838645Y-87444657D02*
X116181502Y-87444657D01*
X115967216Y-87144657D02*
X115967216Y-87916085D01*
X115967216Y-87916085D02*
X116010073Y-88001800D01*
X116010073Y-88001800D02*
X116095788Y-88044657D01*
X116095788Y-88044657D02*
X116181502Y-88044657D01*
X116481502Y-88044657D02*
X116481502Y-87144657D01*
X116867217Y-88044657D02*
X116867217Y-87573228D01*
X116867217Y-87573228D02*
X116824359Y-87487514D01*
X116824359Y-87487514D02*
X116738645Y-87444657D01*
X116738645Y-87444657D02*
X116610074Y-87444657D01*
X116610074Y-87444657D02*
X116524359Y-87487514D01*
X116524359Y-87487514D02*
X116481502Y-87530371D01*
X117681503Y-87444657D02*
X117681503Y-88044657D01*
X117295788Y-87444657D02*
X117295788Y-87916085D01*
X117295788Y-87916085D02*
X117338645Y-88001800D01*
X117338645Y-88001800D02*
X117424360Y-88044657D01*
X117424360Y-88044657D02*
X117552931Y-88044657D01*
X117552931Y-88044657D02*
X117638645Y-88001800D01*
X117638645Y-88001800D02*
X117681503Y-87958942D01*
X118110074Y-87444657D02*
X118110074Y-88044657D01*
X118110074Y-87530371D02*
X118152931Y-87487514D01*
X118152931Y-87487514D02*
X118238646Y-87444657D01*
X118238646Y-87444657D02*
X118367217Y-87444657D01*
X118367217Y-87444657D02*
X118452931Y-87487514D01*
X118452931Y-87487514D02*
X118495789Y-87573228D01*
X118495789Y-87573228D02*
X118495789Y-88044657D01*
X119310075Y-88044657D02*
X119310075Y-87144657D01*
X119310075Y-88001800D02*
X119224360Y-88044657D01*
X119224360Y-88044657D02*
X119052932Y-88044657D01*
X119052932Y-88044657D02*
X118967217Y-88001800D01*
X118967217Y-88001800D02*
X118924360Y-87958942D01*
X118924360Y-87958942D02*
X118881503Y-87873228D01*
X118881503Y-87873228D02*
X118881503Y-87616085D01*
X118881503Y-87616085D02*
X118924360Y-87530371D01*
X118924360Y-87530371D02*
X118967217Y-87487514D01*
X118967217Y-87487514D02*
X119052932Y-87444657D01*
X119052932Y-87444657D02*
X119224360Y-87444657D01*
X119224360Y-87444657D02*
X119310075Y-87487514D01*
X120081503Y-88001800D02*
X119995789Y-88044657D01*
X119995789Y-88044657D02*
X119824361Y-88044657D01*
X119824361Y-88044657D02*
X119738646Y-88001800D01*
X119738646Y-88001800D02*
X119695789Y-87916085D01*
X119695789Y-87916085D02*
X119695789Y-87573228D01*
X119695789Y-87573228D02*
X119738646Y-87487514D01*
X119738646Y-87487514D02*
X119824361Y-87444657D01*
X119824361Y-87444657D02*
X119995789Y-87444657D01*
X119995789Y-87444657D02*
X120081503Y-87487514D01*
X120081503Y-87487514D02*
X120124361Y-87573228D01*
X120124361Y-87573228D02*
X120124361Y-87658942D01*
X120124361Y-87658942D02*
X119695789Y-87744657D01*
X120510075Y-88044657D02*
X120510075Y-87444657D01*
X120510075Y-87616085D02*
X120552932Y-87530371D01*
X120552932Y-87530371D02*
X120595790Y-87487514D01*
X120595790Y-87487514D02*
X120681504Y-87444657D01*
X120681504Y-87444657D02*
X120767218Y-87444657D01*
X120938647Y-87444657D02*
X121281504Y-87444657D01*
X121067218Y-88044657D02*
X121067218Y-87273228D01*
X121067218Y-87273228D02*
X121110075Y-87187514D01*
X121110075Y-87187514D02*
X121195790Y-87144657D01*
X121195790Y-87144657D02*
X121281504Y-87144657D01*
X121710076Y-88044657D02*
X121624361Y-88001800D01*
X121624361Y-88001800D02*
X121581504Y-87916085D01*
X121581504Y-87916085D02*
X121581504Y-87144657D01*
X121967219Y-87444657D02*
X122181505Y-88044657D01*
X122395790Y-87444657D02*
X122181505Y-88044657D01*
X122181505Y-88044657D02*
X122095790Y-88258942D01*
X122095790Y-88258942D02*
X122052933Y-88301800D01*
X122052933Y-88301800D02*
X121967219Y-88344657D01*
X122738647Y-87958942D02*
X122781504Y-88001800D01*
X122781504Y-88001800D02*
X122738647Y-88044657D01*
X122738647Y-88044657D02*
X122695790Y-88001800D01*
X122695790Y-88001800D02*
X122738647Y-87958942D01*
X122738647Y-87958942D02*
X122738647Y-88044657D01*
X123552933Y-88001800D02*
X123467218Y-88044657D01*
X123467218Y-88044657D02*
X123295790Y-88044657D01*
X123295790Y-88044657D02*
X123210075Y-88001800D01*
X123210075Y-88001800D02*
X123167218Y-87958942D01*
X123167218Y-87958942D02*
X123124361Y-87873228D01*
X123124361Y-87873228D02*
X123124361Y-87616085D01*
X123124361Y-87616085D02*
X123167218Y-87530371D01*
X123167218Y-87530371D02*
X123210075Y-87487514D01*
X123210075Y-87487514D02*
X123295790Y-87444657D01*
X123295790Y-87444657D02*
X123467218Y-87444657D01*
X123467218Y-87444657D02*
X123552933Y-87487514D01*
X123852933Y-87444657D02*
X124324362Y-87444657D01*
X124324362Y-87444657D02*
X123852933Y-88044657D01*
X123852933Y-88044657D02*
X124324362Y-88044657D01*
X124710075Y-88001800D02*
X124710075Y-88044657D01*
X124710075Y-88044657D02*
X124667218Y-88130371D01*
X124667218Y-88130371D02*
X124624361Y-88173228D01*
X125738646Y-87230371D02*
X125781503Y-87187514D01*
X125781503Y-87187514D02*
X125867218Y-87144657D01*
X125867218Y-87144657D02*
X126081503Y-87144657D01*
X126081503Y-87144657D02*
X126167218Y-87187514D01*
X126167218Y-87187514D02*
X126210075Y-87230371D01*
X126210075Y-87230371D02*
X126252932Y-87316085D01*
X126252932Y-87316085D02*
X126252932Y-87401800D01*
X126252932Y-87401800D02*
X126210075Y-87530371D01*
X126210075Y-87530371D02*
X125695789Y-88044657D01*
X125695789Y-88044657D02*
X126252932Y-88044657D01*
X126810075Y-87144657D02*
X126895789Y-87144657D01*
X126895789Y-87144657D02*
X126981503Y-87187514D01*
X126981503Y-87187514D02*
X127024361Y-87230371D01*
X127024361Y-87230371D02*
X127067218Y-87316085D01*
X127067218Y-87316085D02*
X127110075Y-87487514D01*
X127110075Y-87487514D02*
X127110075Y-87701800D01*
X127110075Y-87701800D02*
X127067218Y-87873228D01*
X127067218Y-87873228D02*
X127024361Y-87958942D01*
X127024361Y-87958942D02*
X126981503Y-88001800D01*
X126981503Y-88001800D02*
X126895789Y-88044657D01*
X126895789Y-88044657D02*
X126810075Y-88044657D01*
X126810075Y-88044657D02*
X126724361Y-88001800D01*
X126724361Y-88001800D02*
X126681503Y-87958942D01*
X126681503Y-87958942D02*
X126638646Y-87873228D01*
X126638646Y-87873228D02*
X126595789Y-87701800D01*
X126595789Y-87701800D02*
X126595789Y-87487514D01*
X126595789Y-87487514D02*
X126638646Y-87316085D01*
X126638646Y-87316085D02*
X126681503Y-87230371D01*
X126681503Y-87230371D02*
X126724361Y-87187514D01*
X126724361Y-87187514D02*
X126810075Y-87144657D01*
X127452932Y-87230371D02*
X127495789Y-87187514D01*
X127495789Y-87187514D02*
X127581504Y-87144657D01*
X127581504Y-87144657D02*
X127795789Y-87144657D01*
X127795789Y-87144657D02*
X127881504Y-87187514D01*
X127881504Y-87187514D02*
X127924361Y-87230371D01*
X127924361Y-87230371D02*
X127967218Y-87316085D01*
X127967218Y-87316085D02*
X127967218Y-87401800D01*
X127967218Y-87401800D02*
X127924361Y-87530371D01*
X127924361Y-87530371D02*
X127410075Y-88044657D01*
X127410075Y-88044657D02*
X127967218Y-88044657D01*
X128738647Y-87444657D02*
X128738647Y-88044657D01*
X128524361Y-87101800D02*
X128310075Y-87744657D01*
X128310075Y-87744657D02*
X128867218Y-87744657D01*
X149686667Y-114052419D02*
X149686667Y-113052419D01*
X149686667Y-113052419D02*
X150067619Y-113052419D01*
X150067619Y-113052419D02*
X150162857Y-113100038D01*
X150162857Y-113100038D02*
X150210476Y-113147657D01*
X150210476Y-113147657D02*
X150258095Y-113242895D01*
X150258095Y-113242895D02*
X150258095Y-113385752D01*
X150258095Y-113385752D02*
X150210476Y-113480990D01*
X150210476Y-113480990D02*
X150162857Y-113528609D01*
X150162857Y-113528609D02*
X150067619Y-113576228D01*
X150067619Y-113576228D02*
X149686667Y-113576228D01*
X150591429Y-113052419D02*
X150829524Y-114052419D01*
X150829524Y-114052419D02*
X151020000Y-113338133D01*
X151020000Y-113338133D02*
X151210476Y-114052419D01*
X151210476Y-114052419D02*
X151448572Y-113052419D01*
X152400952Y-114052419D02*
X152067619Y-113576228D01*
X151829524Y-114052419D02*
X151829524Y-113052419D01*
X151829524Y-113052419D02*
X152210476Y-113052419D01*
X152210476Y-113052419D02*
X152305714Y-113100038D01*
X152305714Y-113100038D02*
X152353333Y-113147657D01*
X152353333Y-113147657D02*
X152400952Y-113242895D01*
X152400952Y-113242895D02*
X152400952Y-113385752D01*
X152400952Y-113385752D02*
X152353333Y-113480990D01*
X152353333Y-113480990D02*
X152305714Y-113528609D01*
X152305714Y-113528609D02*
X152210476Y-113576228D01*
X152210476Y-113576228D02*
X151829524Y-113576228D01*
X138546265Y-123864800D02*
X138689122Y-123912419D01*
X138689122Y-123912419D02*
X138927217Y-123912419D01*
X138927217Y-123912419D02*
X139022455Y-123864800D01*
X139022455Y-123864800D02*
X139070074Y-123817180D01*
X139070074Y-123817180D02*
X139117693Y-123721942D01*
X139117693Y-123721942D02*
X139117693Y-123626704D01*
X139117693Y-123626704D02*
X139070074Y-123531466D01*
X139070074Y-123531466D02*
X139022455Y-123483847D01*
X139022455Y-123483847D02*
X138927217Y-123436228D01*
X138927217Y-123436228D02*
X138736741Y-123388609D01*
X138736741Y-123388609D02*
X138641503Y-123340990D01*
X138641503Y-123340990D02*
X138593884Y-123293371D01*
X138593884Y-123293371D02*
X138546265Y-123198133D01*
X138546265Y-123198133D02*
X138546265Y-123102895D01*
X138546265Y-123102895D02*
X138593884Y-123007657D01*
X138593884Y-123007657D02*
X138641503Y-122960038D01*
X138641503Y-122960038D02*
X138736741Y-122912419D01*
X138736741Y-122912419D02*
X138974836Y-122912419D01*
X138974836Y-122912419D02*
X139117693Y-122960038D01*
X139546265Y-123912419D02*
X139546265Y-123245752D01*
X139546265Y-122912419D02*
X139498646Y-122960038D01*
X139498646Y-122960038D02*
X139546265Y-123007657D01*
X139546265Y-123007657D02*
X139593884Y-122960038D01*
X139593884Y-122960038D02*
X139546265Y-122912419D01*
X139546265Y-122912419D02*
X139546265Y-123007657D01*
X140451026Y-123245752D02*
X140451026Y-124055276D01*
X140451026Y-124055276D02*
X140403407Y-124150514D01*
X140403407Y-124150514D02*
X140355788Y-124198133D01*
X140355788Y-124198133D02*
X140260550Y-124245752D01*
X140260550Y-124245752D02*
X140117693Y-124245752D01*
X140117693Y-124245752D02*
X140022455Y-124198133D01*
X140451026Y-123864800D02*
X140355788Y-123912419D01*
X140355788Y-123912419D02*
X140165312Y-123912419D01*
X140165312Y-123912419D02*
X140070074Y-123864800D01*
X140070074Y-123864800D02*
X140022455Y-123817180D01*
X140022455Y-123817180D02*
X139974836Y-123721942D01*
X139974836Y-123721942D02*
X139974836Y-123436228D01*
X139974836Y-123436228D02*
X140022455Y-123340990D01*
X140022455Y-123340990D02*
X140070074Y-123293371D01*
X140070074Y-123293371D02*
X140165312Y-123245752D01*
X140165312Y-123245752D02*
X140355788Y-123245752D01*
X140355788Y-123245752D02*
X140451026Y-123293371D01*
X140927217Y-123245752D02*
X140927217Y-123912419D01*
X140927217Y-123340990D02*
X140974836Y-123293371D01*
X140974836Y-123293371D02*
X141070074Y-123245752D01*
X141070074Y-123245752D02*
X141212931Y-123245752D01*
X141212931Y-123245752D02*
X141308169Y-123293371D01*
X141308169Y-123293371D02*
X141355788Y-123388609D01*
X141355788Y-123388609D02*
X141355788Y-123912419D01*
X142260550Y-123912419D02*
X142260550Y-123388609D01*
X142260550Y-123388609D02*
X142212931Y-123293371D01*
X142212931Y-123293371D02*
X142117693Y-123245752D01*
X142117693Y-123245752D02*
X141927217Y-123245752D01*
X141927217Y-123245752D02*
X141831979Y-123293371D01*
X142260550Y-123864800D02*
X142165312Y-123912419D01*
X142165312Y-123912419D02*
X141927217Y-123912419D01*
X141927217Y-123912419D02*
X141831979Y-123864800D01*
X141831979Y-123864800D02*
X141784360Y-123769561D01*
X141784360Y-123769561D02*
X141784360Y-123674323D01*
X141784360Y-123674323D02*
X141831979Y-123579085D01*
X141831979Y-123579085D02*
X141927217Y-123531466D01*
X141927217Y-123531466D02*
X142165312Y-123531466D01*
X142165312Y-123531466D02*
X142260550Y-123483847D01*
X142879598Y-123912419D02*
X142784360Y-123864800D01*
X142784360Y-123864800D02*
X142736741Y-123769561D01*
X142736741Y-123769561D02*
X142736741Y-122912419D01*
X143212932Y-123864800D02*
X143308170Y-123912419D01*
X143308170Y-123912419D02*
X143498646Y-123912419D01*
X143498646Y-123912419D02*
X143593884Y-123864800D01*
X143593884Y-123864800D02*
X143641503Y-123769561D01*
X143641503Y-123769561D02*
X143641503Y-123721942D01*
X143641503Y-123721942D02*
X143593884Y-123626704D01*
X143593884Y-123626704D02*
X143498646Y-123579085D01*
X143498646Y-123579085D02*
X143355789Y-123579085D01*
X143355789Y-123579085D02*
X143260551Y-123531466D01*
X143260551Y-123531466D02*
X143212932Y-123436228D01*
X143212932Y-123436228D02*
X143212932Y-123388609D01*
X143212932Y-123388609D02*
X143260551Y-123293371D01*
X143260551Y-123293371D02*
X143355789Y-123245752D01*
X143355789Y-123245752D02*
X143498646Y-123245752D01*
X143498646Y-123245752D02*
X143593884Y-123293371D01*
X150419524Y-118484895D02*
X150419524Y-117684895D01*
X150419524Y-117684895D02*
X150610000Y-117684895D01*
X150610000Y-117684895D02*
X150724286Y-117722990D01*
X150724286Y-117722990D02*
X150800476Y-117799180D01*
X150800476Y-117799180D02*
X150838571Y-117875371D01*
X150838571Y-117875371D02*
X150876667Y-118027752D01*
X150876667Y-118027752D02*
X150876667Y-118142038D01*
X150876667Y-118142038D02*
X150838571Y-118294419D01*
X150838571Y-118294419D02*
X150800476Y-118370609D01*
X150800476Y-118370609D02*
X150724286Y-118446800D01*
X150724286Y-118446800D02*
X150610000Y-118484895D01*
X150610000Y-118484895D02*
X150419524Y-118484895D01*
X151143333Y-117684895D02*
X151638571Y-117684895D01*
X151638571Y-117684895D02*
X151371905Y-117989657D01*
X151371905Y-117989657D02*
X151486190Y-117989657D01*
X151486190Y-117989657D02*
X151562381Y-118027752D01*
X151562381Y-118027752D02*
X151600476Y-118065847D01*
X151600476Y-118065847D02*
X151638571Y-118142038D01*
X151638571Y-118142038D02*
X151638571Y-118332514D01*
X151638571Y-118332514D02*
X151600476Y-118408704D01*
X151600476Y-118408704D02*
X151562381Y-118446800D01*
X151562381Y-118446800D02*
X151486190Y-118484895D01*
X151486190Y-118484895D02*
X151257619Y-118484895D01*
X151257619Y-118484895D02*
X151181428Y-118446800D01*
X151181428Y-118446800D02*
X151143333Y-118408704D01*
X134878395Y-96715951D02*
X134078395Y-96715951D01*
X134802204Y-95877856D02*
X134840300Y-95915952D01*
X134840300Y-95915952D02*
X134878395Y-96030237D01*
X134878395Y-96030237D02*
X134878395Y-96106428D01*
X134878395Y-96106428D02*
X134840300Y-96220714D01*
X134840300Y-96220714D02*
X134764109Y-96296904D01*
X134764109Y-96296904D02*
X134687919Y-96334999D01*
X134687919Y-96334999D02*
X134535538Y-96373095D01*
X134535538Y-96373095D02*
X134421252Y-96373095D01*
X134421252Y-96373095D02*
X134268871Y-96334999D01*
X134268871Y-96334999D02*
X134192680Y-96296904D01*
X134192680Y-96296904D02*
X134116490Y-96220714D01*
X134116490Y-96220714D02*
X134078395Y-96106428D01*
X134078395Y-96106428D02*
X134078395Y-96030237D01*
X134078395Y-96030237D02*
X134116490Y-95915952D01*
X134116490Y-95915952D02*
X134154585Y-95877856D01*
X134878395Y-95115952D02*
X134878395Y-95573095D01*
X134878395Y-95344523D02*
X134078395Y-95344523D01*
X134078395Y-95344523D02*
X134192680Y-95420714D01*
X134192680Y-95420714D02*
X134268871Y-95496904D01*
X134268871Y-95496904D02*
X134306966Y-95573095D01*
X139919524Y-118494895D02*
X139919524Y-117694895D01*
X139919524Y-117694895D02*
X140110000Y-117694895D01*
X140110000Y-117694895D02*
X140224286Y-117732990D01*
X140224286Y-117732990D02*
X140300476Y-117809180D01*
X140300476Y-117809180D02*
X140338571Y-117885371D01*
X140338571Y-117885371D02*
X140376667Y-118037752D01*
X140376667Y-118037752D02*
X140376667Y-118152038D01*
X140376667Y-118152038D02*
X140338571Y-118304419D01*
X140338571Y-118304419D02*
X140300476Y-118380609D01*
X140300476Y-118380609D02*
X140224286Y-118456800D01*
X140224286Y-118456800D02*
X140110000Y-118494895D01*
X140110000Y-118494895D02*
X139919524Y-118494895D01*
X140681428Y-117771085D02*
X140719524Y-117732990D01*
X140719524Y-117732990D02*
X140795714Y-117694895D01*
X140795714Y-117694895D02*
X140986190Y-117694895D01*
X140986190Y-117694895D02*
X141062381Y-117732990D01*
X141062381Y-117732990D02*
X141100476Y-117771085D01*
X141100476Y-117771085D02*
X141138571Y-117847276D01*
X141138571Y-117847276D02*
X141138571Y-117923466D01*
X141138571Y-117923466D02*
X141100476Y-118037752D01*
X141100476Y-118037752D02*
X140643333Y-118494895D01*
X140643333Y-118494895D02*
X141138571Y-118494895D01*
D13*
%TO.C,D3*%
X150285000Y-114485000D02*
X150285000Y-116770000D01*
X151755000Y-114485000D02*
X150285000Y-114485000D01*
X151755000Y-116770000D02*
X151755000Y-114485000D01*
D11*
%TO.C,IC1*%
X131213500Y-85335000D02*
X140813500Y-85335000D01*
X131213500Y-99335000D02*
X133313500Y-99335000D01*
X140813500Y-99335000D02*
X138713500Y-99335000D01*
X141626500Y-98557000D02*
G75*
G02*
X141428500Y-98557000I-99000J0D01*
G01*
X141428500Y-98557000D02*
G75*
G02*
X141626500Y-98557000I99000J0D01*
G01*
D13*
%TO.C,D2*%
X139725000Y-114485000D02*
X139725000Y-116770000D01*
X141195000Y-114485000D02*
X139725000Y-114485000D01*
X141195000Y-116770000D02*
X141195000Y-114485000D01*
%TD*%
M02*
