M48
; DRILL file {KiCad 8.0.4+1} date 2024-10-18T12:55:20+0000
; FORMAT={3:3/ absolute / metric / suppress leading zeros}
; #@! TF.CreationDate,2024-10-18T12:55:20+00:00
; #@! TF.GenerationSoftware,Kicad,Pcbnew,8.0.4+1
; #@! TF.FileFunction,Plated,1,4,PTH
FMAT,2
METRIC,TZ
; #@! TA.AperFunction,Plated,PTH,ViaDrill
T1C0.300
; #@! TA.AperFunction,Plated,PTH,ComponentDrill
T2C3.200
%
G90
G05
T1
X112090Y-86220
X112090Y-89220
X112090Y-92220
X112090Y-95220
X112090Y-98220
X112090Y-101220
X112090Y-104220
X112090Y-107220
X112090Y-110220
X112090Y-113220
X112090Y-116220
X115090Y-86220
X115090Y-89220
X115090Y-92220
X115090Y-95220
X115090Y-104220
X115090Y-107220
X115090Y-110220
X115090Y-113220
X115090Y-116220
X118090Y-86220
X118090Y-89220
X118090Y-92220
X118090Y-95220
X118090Y-104220
X118090Y-107220
X118090Y-110220
X118090Y-113220
X118090Y-116220
X121090Y-86220
X121090Y-89220
X121090Y-92220
X121090Y-95220
X121090Y-98220
X121090Y-101220
X121090Y-104220
X121090Y-107220
X121090Y-110220
X121090Y-113220
X121090Y-116220
X121090Y-119220
X121090Y-122220
X122677Y-116760
X124090Y-86220
X124090Y-89220
X124090Y-92220
X124090Y-95220
X124090Y-98220
X124090Y-101220
X124090Y-104220
X124090Y-107220
X124090Y-110220
X124090Y-113220
X124090Y-119220
X124090Y-122220
X127090Y-86220
X127090Y-89220
X127090Y-92220
X127090Y-95220
X127090Y-98220
X127090Y-101220
X127090Y-104220
X127090Y-107220
X127090Y-110220
X127090Y-113220
X127090Y-122220
X129090Y-111120
X129760Y-86210
X129760Y-89210
X129760Y-92210
X129760Y-95210
X129765Y-117135
X130090Y-104220
X130090Y-107220
X130090Y-110220
X130090Y-113220
X130090Y-122220
X130350Y-97550
X131510Y-99908
X131560Y-108350
X131590Y-115590
X133090Y-101220
X133090Y-104220
X133090Y-107220
X133090Y-110220
X133090Y-122220
X134620Y-115027
X134620Y-116852
X134910Y-105380
X136090Y-101220
X136090Y-104220
X136090Y-107220
X136090Y-110220
X136090Y-113220
X136090Y-119220
X136090Y-122220
X136110Y-99880
X139090Y-101220
X139090Y-104220
X139090Y-107220
X139090Y-110220
X139090Y-113220
X139090Y-122630
X140414Y-90535
X140414Y-96535
X141720Y-91535
X141720Y-92580
X141720Y-93690
X141750Y-98535
X142090Y-86220
X142090Y-104220
X142090Y-107220
X142090Y-110220
X142090Y-122620
X145090Y-86220
X145090Y-89220
X145090Y-92220
X145090Y-95220
X145090Y-98220
X145090Y-101220
X145090Y-104220
X145090Y-107220
X145090Y-110220
X145090Y-116220
X145090Y-119220
X145090Y-122220
X146565Y-101395
X147593Y-112230
X148090Y-86220
X148090Y-89220
X148090Y-92220
X148090Y-95220
X148090Y-98220
X148090Y-101220
X148090Y-104220
X148090Y-107220
X148090Y-110220
X149800Y-115030
X150045Y-116838
X151090Y-86220
X151090Y-89220
X151090Y-92220
X151090Y-95220
X151090Y-98220
X151090Y-101220
X151090Y-104220
X151090Y-107220
X151090Y-110220
X151090Y-113220
X154090Y-86220
X154090Y-89220
X154090Y-92220
X154090Y-95220
X154090Y-104220
X154090Y-107220
X154090Y-110220
X154090Y-113220
X154090Y-116220
X157090Y-86220
X157090Y-89220
X157090Y-92220
X157090Y-95220
X157090Y-104220
X157090Y-107220
X157090Y-110220
X157090Y-113220
X157090Y-116220
X160090Y-86220
X160090Y-89220
X160090Y-92220
X160090Y-95220
X160090Y-98220
X160090Y-101220
X160090Y-104220
X160090Y-107220
X160090Y-110220
X160090Y-113220
X160090Y-116220
T2
X115700Y-99840
X115700Y-120160
X156340Y-99840
X156340Y-120160
M30
