%TF.GenerationSoftware,KiCad,Pcbnew,8.0.6+1*%
%TF.CreationDate,2024-11-07T23:00:44+00:00*%
%TF.ProjectId,TFGPSLITE02,54464750-534c-4495-9445-30322e6b6963,rev?*%
%TF.SameCoordinates,Original*%
%TF.FileFunction,Copper,L2,Bot*%
%TF.FilePolarity,Positive*%
%FSLAX46Y46*%
G04 Gerber Fmt 4.6, Leading zero omitted, Abs format (unit mm)*
G04 Created by KiCad (PCBNEW 8.0.6+1) date 2024-11-07 23:00:44*
%MOMM*%
%LPD*%
G01*
G04 APERTURE LIST*
G04 Aperture macros list*
%AMRoundRect*
0 Rectangle with rounded corners*
0 $1 Rounding radius*
0 $2 $3 $4 $5 $6 $7 $8 $9 X,Y pos of 4 corners*
0 Add a 4 corners polygon primitive as box body*
4,1,4,$2,$3,$4,$5,$6,$7,$8,$9,$2,$3,0*
0 Add four circle primitives for the rounded corners*
1,1,$1+$1,$2,$3*
1,1,$1+$1,$4,$5*
1,1,$1+$1,$6,$7*
1,1,$1+$1,$8,$9*
0 Add four rect primitives between the rounded corners*
20,1,$1+$1,$2,$3,$4,$5,0*
20,1,$1+$1,$4,$5,$6,$7,0*
20,1,$1+$1,$6,$7,$8,$9,0*
20,1,$1+$1,$8,$9,$2,$3,0*%
G04 Aperture macros list end*
%TA.AperFunction,ComponentPad*%
%ADD10C,5.600000*%
%TD*%
%TA.AperFunction,SMDPad,CuDef*%
%ADD11RoundRect,0.250000X-0.450000X0.262500X-0.450000X-0.262500X0.450000X-0.262500X0.450000X0.262500X0*%
%TD*%
%TA.AperFunction,SMDPad,CuDef*%
%ADD12RoundRect,0.250000X-0.475000X0.250000X-0.475000X-0.250000X0.475000X-0.250000X0.475000X0.250000X0*%
%TD*%
%TA.AperFunction,SMDPad,CuDef*%
%ADD13RoundRect,0.250000X0.450000X-0.262500X0.450000X0.262500X-0.450000X0.262500X-0.450000X-0.262500X0*%
%TD*%
%TA.AperFunction,SMDPad,CuDef*%
%ADD14RoundRect,0.250000X-0.262500X-0.450000X0.262500X-0.450000X0.262500X0.450000X-0.262500X0.450000X0*%
%TD*%
%TA.AperFunction,SMDPad,CuDef*%
%ADD15RoundRect,0.150000X0.150000X-0.512500X0.150000X0.512500X-0.150000X0.512500X-0.150000X-0.512500X0*%
%TD*%
%TA.AperFunction,SMDPad,CuDef*%
%ADD16RoundRect,0.250000X0.475000X-0.250000X0.475000X0.250000X-0.475000X0.250000X-0.475000X-0.250000X0*%
%TD*%
%TA.AperFunction,SMDPad,CuDef*%
%ADD17RoundRect,0.250000X0.262500X0.450000X-0.262500X0.450000X-0.262500X-0.450000X0.262500X-0.450000X0*%
%TD*%
%TA.AperFunction,SMDPad,CuDef*%
%ADD18RoundRect,0.150000X-0.200000X0.150000X-0.200000X-0.150000X0.200000X-0.150000X0.200000X0.150000X0*%
%TD*%
%TA.AperFunction,SMDPad,CuDef*%
%ADD19RoundRect,0.250000X-0.250000X-0.475000X0.250000X-0.475000X0.250000X0.475000X-0.250000X0.475000X0*%
%TD*%
%TA.AperFunction,SMDPad,CuDef*%
%ADD20RoundRect,0.150000X0.150000X0.700000X-0.150000X0.700000X-0.150000X-0.700000X0.150000X-0.700000X0*%
%TD*%
%TA.AperFunction,SMDPad,CuDef*%
%ADD21RoundRect,0.250000X0.250000X1.100000X-0.250000X1.100000X-0.250000X-1.100000X0.250000X-1.100000X0*%
%TD*%
%TA.AperFunction,SMDPad,CuDef*%
%ADD22RoundRect,0.250000X0.625000X-0.312500X0.625000X0.312500X-0.625000X0.312500X-0.625000X-0.312500X0*%
%TD*%
%TA.AperFunction,ViaPad*%
%ADD23C,0.600000*%
%TD*%
%TA.AperFunction,Conductor*%
%ADD24C,0.500000*%
%TD*%
%TA.AperFunction,Conductor*%
%ADD25C,0.300000*%
%TD*%
G04 APERTURE END LIST*
D10*
%TO.P,M4,1*%
%TO.N,GND*%
X156340000Y-130320000D03*
%TD*%
%TO.P,M1,1*%
%TO.N,GND*%
X115700000Y-89680000D03*
%TD*%
%TO.P,M3,1*%
%TO.N,GND*%
X115700000Y-130320000D03*
%TD*%
%TO.P,M2,1*%
%TO.N,GND*%
X156340000Y-89680000D03*
%TD*%
D11*
%TO.P,R2,1*%
%TO.N,/L_UBX_TX*%
X129610000Y-115067500D03*
%TO.P,R2,2*%
%TO.N,/TX*%
X129610000Y-116892500D03*
%TD*%
D12*
%TO.P,C5,1*%
%TO.N,+3V3*%
X133740000Y-115040000D03*
%TO.P,C5,2*%
%TO.N,GND*%
X133740000Y-116940000D03*
%TD*%
D13*
%TO.P,R9,1*%
%TO.N,Net-(J2-Pad2)*%
X139840000Y-116880000D03*
%TO.P,R9,2*%
%TO.N,/EXTINT*%
X139840000Y-115055000D03*
%TD*%
D14*
%TO.P,R6,1*%
%TO.N,/I2C2.SCL*%
X125447500Y-107940000D03*
%TO.P,R6,2*%
%TO.N,Net-(U2-SCL)*%
X127272500Y-107940000D03*
%TD*%
%TO.P,R5,1*%
%TO.N,/I2C2.SDA*%
X125437500Y-106030000D03*
%TO.P,R5,2*%
%TO.N,Net-(U2-SDA)*%
X127262500Y-106030000D03*
%TD*%
D11*
%TO.P,R3,1*%
%TO.N,/L_UBX_RX*%
X131620000Y-115067500D03*
%TO.P,R3,2*%
%TO.N,/RX*%
X131620000Y-116892500D03*
%TD*%
D13*
%TO.P,R1,1*%
%TO.N,+3V3*%
X148740000Y-105942500D03*
%TO.P,R1,2*%
%TO.N,Net-(D1-A)*%
X148740000Y-104117500D03*
%TD*%
D15*
%TO.P,U1,1,VIN*%
%TO.N,+5V*%
X148302500Y-115342500D03*
%TO.P,U1,2,GND*%
%TO.N,GND*%
X147352500Y-115342500D03*
%TO.P,U1,3,EN*%
%TO.N,+5V*%
X146402500Y-115342500D03*
%TO.P,U1,4,NC*%
%TO.N,unconnected-(U1-NC-Pad4)*%
X146402500Y-113067500D03*
%TO.P,U1,5,VOUT*%
%TO.N,+3V3*%
X148302500Y-113067500D03*
%TD*%
D16*
%TO.P,C1,1*%
%TO.N,+3V3*%
X127350000Y-113100000D03*
%TO.P,C1,2*%
%TO.N,GND*%
X127350000Y-111200000D03*
%TD*%
D13*
%TO.P,R10,1*%
%TO.N,Net-(J2-Pad3)*%
X137810000Y-116885000D03*
%TO.P,R10,2*%
%TO.N,/TPL*%
X137810000Y-115060000D03*
%TD*%
D17*
%TO.P,R7,1*%
%TO.N,+3V3*%
X127192500Y-116870000D03*
%TO.P,R7,2*%
%TO.N,/I2C2.SCL*%
X125367500Y-116870000D03*
%TD*%
%TO.P,R4,1*%
%TO.N,/TPL*%
X137842500Y-100740000D03*
%TO.P,R4,2*%
%TO.N,Net-(D2-A)*%
X136017500Y-100740000D03*
%TD*%
D16*
%TO.P,C4,1*%
%TO.N,+3V3*%
X147070000Y-111295000D03*
%TO.P,C4,2*%
%TO.N,GND*%
X147070000Y-109395000D03*
%TD*%
D18*
%TO.P,D1,1,K*%
%TO.N,/UBX_VBCKP*%
X146950000Y-105470000D03*
%TO.P,D1,2,A*%
%TO.N,Net-(D1-A)*%
X146950000Y-104070000D03*
%TD*%
D19*
%TO.P,C3,1*%
%TO.N,+5V*%
X145872500Y-117465000D03*
%TO.P,C3,2*%
%TO.N,GND*%
X147772500Y-117465000D03*
%TD*%
D20*
%TO.P,J1,1*%
%TO.N,+5V*%
X132265000Y-120230000D03*
%TO.P,J1,2*%
%TO.N,/RX*%
X131015000Y-120230000D03*
%TO.P,J1,3*%
%TO.N,/TX*%
X129765000Y-120230000D03*
%TO.P,J1,4*%
%TO.N,/I2C2.SCL*%
X128515000Y-120230000D03*
%TO.P,J1,5*%
%TO.N,/I2C2.SDA*%
X127265000Y-120230000D03*
%TO.P,J1,6*%
%TO.N,GND*%
X126015000Y-120230000D03*
D21*
%TO.P,J1,MP*%
X134115000Y-123430000D03*
X124165000Y-123430000D03*
%TD*%
D17*
%TO.P,R8,1*%
%TO.N,+3V3*%
X127202500Y-114870000D03*
%TO.P,R8,2*%
%TO.N,/I2C2.SDA*%
X125377500Y-114870000D03*
%TD*%
D20*
%TO.P,J2,1*%
%TO.N,+5V*%
X142945000Y-120270000D03*
%TO.P,J2,2*%
%TO.N,Net-(J2-Pad2)*%
X141695000Y-120270000D03*
%TO.P,J2,3*%
%TO.N,Net-(J2-Pad3)*%
X140445000Y-120270000D03*
%TO.P,J2,4*%
%TO.N,GND*%
X139195000Y-120270000D03*
D21*
%TO.P,J2,MP*%
X144795000Y-123470000D03*
X137345000Y-123470000D03*
%TD*%
D22*
%TO.P,C2,1*%
%TO.N,/UBX_VBCKP*%
X145050000Y-105982500D03*
%TO.P,C2,2*%
%TO.N,GND*%
X145050000Y-103057500D03*
%TD*%
D13*
%TO.P,R11,1*%
%TO.N,+3V3*%
X149090000Y-111277500D03*
%TO.P,R11,2*%
%TO.N,Net-(D3-A)*%
X149090000Y-109452500D03*
%TD*%
D23*
%TO.N,+3V3*%
X142610000Y-111895000D03*
X133970000Y-115050000D03*
X127290000Y-115800000D03*
%TO.N,GND*%
X118670000Y-102710000D03*
X148670000Y-97710000D03*
X148670000Y-127710000D03*
X118670000Y-87710000D03*
X123670000Y-112710000D03*
X138670000Y-127710000D03*
X113670000Y-127710000D03*
X153670000Y-117710000D03*
X148670000Y-87710000D03*
X158670000Y-97710000D03*
X123670000Y-87710000D03*
X130090000Y-122220000D03*
X113670000Y-132710000D03*
X158670000Y-132710000D03*
X133670000Y-122710000D03*
X136090000Y-119220000D03*
X113670000Y-102710000D03*
X123670000Y-132710000D03*
X145090000Y-116220000D03*
X123670000Y-122710000D03*
X133670000Y-127710000D03*
X136090000Y-122220000D03*
X118670000Y-92710000D03*
X158670000Y-117710000D03*
X118670000Y-117710000D03*
X148670000Y-92710000D03*
X138670000Y-132710000D03*
X143670000Y-122710000D03*
X113670000Y-117710000D03*
X113670000Y-97710000D03*
X153670000Y-97710000D03*
X143670000Y-97710000D03*
X143670000Y-102710000D03*
X123670000Y-102710000D03*
X148670000Y-102710000D03*
X127090000Y-122220000D03*
X138670000Y-122710000D03*
X118670000Y-107710000D03*
X128670000Y-102710000D03*
X153670000Y-102710000D03*
X128670000Y-132710000D03*
X147070000Y-109395000D03*
X123670000Y-127710000D03*
X148670000Y-107710000D03*
X128670000Y-87710000D03*
X158670000Y-87710000D03*
X147640000Y-108040000D03*
X128670000Y-127710000D03*
X128670000Y-92710000D03*
X158670000Y-112710000D03*
X143670000Y-132710000D03*
X118670000Y-132710000D03*
X118670000Y-97710000D03*
X143670000Y-117710000D03*
X118670000Y-127710000D03*
X138670000Y-97710000D03*
X113670000Y-112710000D03*
X133670000Y-112710000D03*
X148670000Y-132710000D03*
X113670000Y-107710000D03*
X118670000Y-122710000D03*
X153670000Y-127710000D03*
X138670000Y-87710000D03*
X143670000Y-107710000D03*
X113670000Y-122710000D03*
X136090000Y-113220000D03*
X113670000Y-87710000D03*
X158670000Y-122710000D03*
X153670000Y-107710000D03*
X113670000Y-92710000D03*
X143670000Y-92710000D03*
X158670000Y-107710000D03*
X128670000Y-122710000D03*
X153670000Y-132710000D03*
X133670000Y-87710000D03*
X123670000Y-97710000D03*
X143670000Y-87710000D03*
X158670000Y-92710000D03*
X123670000Y-92710000D03*
X133670000Y-97710000D03*
X124090000Y-122220000D03*
X153670000Y-87710000D03*
X138830000Y-112880000D03*
X143670000Y-127710000D03*
X133090000Y-122220000D03*
X128670000Y-97710000D03*
X153670000Y-122710000D03*
X133670000Y-92710000D03*
X158670000Y-127710000D03*
X133670000Y-132710000D03*
X124090000Y-119220000D03*
X139000000Y-107700000D03*
X145090000Y-122220000D03*
X148670000Y-122710000D03*
X138670000Y-92710000D03*
X148670000Y-117710000D03*
X123670000Y-107710000D03*
X153670000Y-92710000D03*
X153670000Y-112710000D03*
X158670000Y-102710000D03*
X133670000Y-107710000D03*
X142090000Y-122620000D03*
X118670000Y-112710000D03*
%TO.N,/UBX_VBCKP*%
X142180000Y-109630000D03*
%TO.N,Net-(D2-A)*%
X130540000Y-100120000D03*
%TO.N,Net-(D3-A)*%
X143170000Y-100110000D03*
%TO.N,Net-(U2-SDA)*%
X134120000Y-103400000D03*
%TO.N,Net-(U2-SCL)*%
X129410000Y-107770000D03*
%TO.N,/L_UBX_TX*%
X129450000Y-110250000D03*
%TO.N,/L_UBX_RX*%
X130130000Y-111980000D03*
%TO.N,/TPL*%
X137910000Y-103395000D03*
%TO.N,/EXTINT*%
X139840000Y-115055000D03*
%TD*%
D24*
%TO.N,+3V3*%
X148740000Y-105942500D02*
X148377500Y-105942500D01*
D25*
X127212500Y-116810000D02*
X127272500Y-116750000D01*
D24*
X148302500Y-111665000D02*
X148652500Y-111315000D01*
X147070000Y-111295000D02*
X146045000Y-111295000D01*
X145820000Y-108500000D02*
X145820000Y-108510000D01*
X148652500Y-111315000D02*
X146690000Y-111315000D01*
D25*
X127202500Y-114870000D02*
X127202500Y-116860000D01*
X127350000Y-114722500D02*
X127202500Y-114870000D01*
D24*
X148377500Y-105942500D02*
X145820000Y-108500000D01*
X145820000Y-108510000D02*
X144365000Y-109965000D01*
D25*
X127350000Y-113100000D02*
X127350000Y-114722500D01*
D24*
X144365000Y-109965000D02*
X144715000Y-109965000D01*
X142610000Y-111720000D02*
X142610000Y-111895000D01*
X146690000Y-111315000D02*
X146632500Y-111257500D01*
D25*
X127202500Y-116860000D02*
X127192500Y-116870000D01*
D24*
X144365000Y-109965000D02*
X142610000Y-111720000D01*
X144715000Y-109965000D02*
X146045000Y-111295000D01*
X148302500Y-113067500D02*
X148302500Y-111665000D01*
%TO.N,GND*%
X147352500Y-115342500D02*
X147352500Y-117105000D01*
X147352500Y-117105000D02*
X147712500Y-117465000D01*
D25*
%TO.N,/UBX_VBCKP*%
X142180000Y-109630000D02*
X142180000Y-107610000D01*
X143807500Y-105982500D02*
X145050000Y-105982500D01*
X146437500Y-105982500D02*
X145050000Y-105982500D01*
X142180000Y-107610000D02*
X143807500Y-105982500D01*
X146950000Y-105470000D02*
X146437500Y-105982500D01*
D24*
%TO.N,+5V*%
X132265000Y-120230000D02*
X136820000Y-120230000D01*
X146402500Y-115342500D02*
X146402500Y-116875000D01*
X145872500Y-117465000D02*
X145872500Y-119265000D01*
X146807500Y-114230000D02*
X146402500Y-114635000D01*
X148302500Y-114680001D02*
X147852499Y-114230000D01*
X145872500Y-119265000D02*
X144867500Y-120270000D01*
X142320000Y-121700000D02*
X142945000Y-121075000D01*
X142945000Y-121075000D02*
X142945000Y-120270000D01*
X148302500Y-115342500D02*
X148302500Y-114680001D01*
X146402500Y-116875000D02*
X145812500Y-117465000D01*
X136820000Y-120230000D02*
X138290000Y-121700000D01*
X138290000Y-121700000D02*
X142320000Y-121700000D01*
X144867500Y-120270000D02*
X142945000Y-120270000D01*
X147852499Y-114230000D02*
X146807500Y-114230000D01*
X146402500Y-114635000D02*
X146402500Y-115342500D01*
D25*
%TO.N,Net-(D1-A)*%
X146997500Y-104117500D02*
X146950000Y-104070000D01*
X148740000Y-104117500D02*
X146997500Y-104117500D01*
D24*
%TO.N,Net-(D2-A)*%
X131160000Y-100740000D02*
X130540000Y-100120000D01*
X136017500Y-100740000D02*
X131160000Y-100740000D01*
D25*
%TO.N,Net-(D3-A)*%
X149090000Y-109452500D02*
X149790000Y-108752500D01*
X149790000Y-101690000D02*
X148210000Y-100110000D01*
X149790000Y-108752500D02*
X149790000Y-101690000D01*
X148210000Y-100110000D02*
X143170000Y-100110000D01*
%TO.N,/I2C2.SCL*%
X128515000Y-118955000D02*
X127480000Y-117920000D01*
X127480000Y-117920000D02*
X126150000Y-117920000D01*
X126150000Y-117920000D02*
X125367500Y-117137500D01*
X126240000Y-108732500D02*
X125447500Y-107940000D01*
X128515000Y-120230000D02*
X128515000Y-118955000D01*
X126240000Y-115997500D02*
X126240000Y-108732500D01*
X125367500Y-116870000D02*
X126240000Y-115997500D01*
X125367500Y-117137500D02*
X125367500Y-116870000D01*
%TO.N,Net-(U2-SDA)*%
X131490000Y-106030000D02*
X134120000Y-103400000D01*
X127262500Y-106030000D02*
X131490000Y-106030000D01*
%TO.N,/I2C2.SDA*%
X125340000Y-118640000D02*
X126534544Y-118640000D01*
X126534544Y-118640000D02*
X127265000Y-119370456D01*
X125460000Y-114810000D02*
X125377500Y-114727500D01*
X124460000Y-112330000D02*
X124460000Y-114880000D01*
X125437500Y-106030000D02*
X124460000Y-107007500D01*
X124460000Y-114880000D02*
X124460000Y-117760000D01*
X127265000Y-119370456D02*
X127265000Y-120230000D01*
X124460000Y-117760000D02*
X125340000Y-118640000D01*
X124470000Y-114870000D02*
X124460000Y-114880000D01*
X124460000Y-107007500D02*
X124460000Y-112330000D01*
X125377500Y-114870000D02*
X124470000Y-114870000D01*
%TO.N,Net-(U2-SCL)*%
X129240000Y-107940000D02*
X127272500Y-107940000D01*
X129410000Y-107770000D02*
X129240000Y-107940000D01*
%TO.N,/L_UBX_TX*%
X129450000Y-114907500D02*
X129610000Y-115067500D01*
X129450000Y-110250000D02*
X129450000Y-114907500D01*
%TO.N,/L_UBX_RX*%
X131620000Y-113450000D02*
X131620000Y-115067500D01*
X130150000Y-111980000D02*
X131620000Y-113450000D01*
X130130000Y-111980000D02*
X130150000Y-111980000D01*
%TO.N,/TPL*%
X137910000Y-100807500D02*
X137842500Y-100740000D01*
X137910000Y-114960000D02*
X137910000Y-103395000D01*
X137910000Y-103395000D02*
X137910000Y-100807500D01*
X137810000Y-115060000D02*
X137910000Y-114960000D01*
%TO.N,/TX*%
X129765000Y-117135000D02*
X129765000Y-120230000D01*
%TO.N,/RX*%
X131015000Y-118805000D02*
X131015000Y-120230000D01*
X131620000Y-118200000D02*
X131015000Y-118805000D01*
X131620000Y-116770000D02*
X131620000Y-118200000D01*
%TO.N,Net-(J2-Pad2)*%
X139862500Y-116892500D02*
X141695000Y-118725000D01*
X141695000Y-118725000D02*
X141695000Y-120270000D01*
%TO.N,Net-(J2-Pad3)*%
X138062500Y-116882500D02*
X137907499Y-116882500D01*
X140445000Y-119265000D02*
X138062500Y-116882500D01*
X140445000Y-120270000D02*
X140445000Y-119265000D01*
%TD*%
%TA.AperFunction,Conductor*%
%TO.N,GND*%
G36*
X149098691Y-106974406D02*
G01*
X149134655Y-107023906D01*
X149139500Y-107054499D01*
X149139500Y-108340500D01*
X149120593Y-108398691D01*
X149071093Y-108434655D01*
X149040500Y-108439500D01*
X148589983Y-108439500D01*
X148487211Y-108449999D01*
X148487199Y-108450002D01*
X148320663Y-108505187D01*
X148167832Y-108599453D01*
X148108379Y-108613909D01*
X148051783Y-108590658D01*
X148045856Y-108585196D01*
X148013340Y-108552680D01*
X147864124Y-108460643D01*
X147697693Y-108405493D01*
X147594987Y-108395000D01*
X147225374Y-108395000D01*
X147167183Y-108376093D01*
X147131219Y-108326593D01*
X147131219Y-108265407D01*
X147155368Y-108225997D01*
X148396871Y-106984494D01*
X148451388Y-106956718D01*
X148466875Y-106955499D01*
X149040500Y-106955499D01*
X149098691Y-106974406D01*
G37*
%TD.AperFunction*%
%TA.AperFunction,Conductor*%
G36*
X160478691Y-85519407D02*
G01*
X160514655Y-85568907D01*
X160519500Y-85599500D01*
X160519500Y-134400500D01*
X160500593Y-134458691D01*
X160451093Y-134494655D01*
X160420500Y-134499500D01*
X111619500Y-134499500D01*
X111561309Y-134480593D01*
X111525345Y-134431093D01*
X111520500Y-134400500D01*
X111520500Y-130320000D01*
X112395153Y-130320000D01*
X112414525Y-130677317D01*
X112472418Y-131030449D01*
X112568146Y-131375229D01*
X112568148Y-131375234D01*
X112700604Y-131707673D01*
X112868215Y-132023822D01*
X113069032Y-132320004D01*
X113069039Y-132320014D01*
X113228918Y-132508236D01*
X114435502Y-131301651D01*
X114479588Y-131362330D01*
X114657670Y-131540412D01*
X114718345Y-131584495D01*
X113510943Y-132791898D01*
X113560488Y-132838829D01*
X113845358Y-133055382D01*
X113845363Y-133055385D01*
X114151980Y-133239871D01*
X114476744Y-133390123D01*
X114815868Y-133504387D01*
X115165330Y-133581310D01*
X115165329Y-133581310D01*
X115521078Y-133620000D01*
X115878922Y-133620000D01*
X116234670Y-133581310D01*
X116584130Y-133504387D01*
X116584132Y-133504387D01*
X116923255Y-133390123D01*
X117248019Y-133239871D01*
X117554636Y-133055385D01*
X117554641Y-133055382D01*
X117839509Y-132838832D01*
X117839515Y-132838827D01*
X117889055Y-132791898D01*
X117889055Y-132791897D01*
X116681653Y-131584495D01*
X116742330Y-131540412D01*
X116920412Y-131362330D01*
X116964496Y-131301653D01*
X118171080Y-132508237D01*
X118330962Y-132320011D01*
X118330966Y-132320007D01*
X118531784Y-132023822D01*
X118699395Y-131707673D01*
X118831851Y-131375234D01*
X118831853Y-131375229D01*
X118927581Y-131030449D01*
X118985474Y-130677317D01*
X119004846Y-130320000D01*
X153035153Y-130320000D01*
X153054525Y-130677317D01*
X153112418Y-131030449D01*
X153208146Y-131375229D01*
X153208148Y-131375234D01*
X153340604Y-131707673D01*
X153508215Y-132023822D01*
X153709032Y-132320004D01*
X153709039Y-132320014D01*
X153868918Y-132508236D01*
X155075502Y-131301651D01*
X155119588Y-131362330D01*
X155297670Y-131540412D01*
X155358345Y-131584495D01*
X154150943Y-132791898D01*
X154200488Y-132838829D01*
X154485358Y-133055382D01*
X154485363Y-133055385D01*
X154791980Y-133239871D01*
X155116744Y-133390123D01*
X155455868Y-133504387D01*
X155805330Y-133581310D01*
X155805329Y-133581310D01*
X156161078Y-133620000D01*
X156518922Y-133620000D01*
X156874670Y-133581310D01*
X157224130Y-133504387D01*
X157224132Y-133504387D01*
X157563255Y-133390123D01*
X157888019Y-133239871D01*
X158194636Y-133055385D01*
X158194641Y-133055382D01*
X158479509Y-132838832D01*
X158479515Y-132838827D01*
X158529055Y-132791898D01*
X158529055Y-132791897D01*
X157321653Y-131584495D01*
X157382330Y-131540412D01*
X157560412Y-131362330D01*
X157604496Y-131301653D01*
X158811080Y-132508237D01*
X158970962Y-132320011D01*
X158970966Y-132320007D01*
X159171784Y-132023822D01*
X159339395Y-131707673D01*
X159471851Y-131375234D01*
X159471853Y-131375229D01*
X159567581Y-131030449D01*
X159625474Y-130677317D01*
X159644846Y-130320000D01*
X159625474Y-129962682D01*
X159567581Y-129609550D01*
X159471853Y-129264770D01*
X159471851Y-129264765D01*
X159339395Y-128932326D01*
X159171784Y-128616177D01*
X158970967Y-128319995D01*
X158970960Y-128319985D01*
X158811079Y-128131761D01*
X157604495Y-129338345D01*
X157560412Y-129277670D01*
X157382330Y-129099588D01*
X157321652Y-129055502D01*
X158529055Y-127848100D01*
X158479511Y-127801170D01*
X158194641Y-127584617D01*
X158194636Y-127584614D01*
X157888019Y-127400128D01*
X157563255Y-127249876D01*
X157224131Y-127135612D01*
X156874669Y-127058689D01*
X156874670Y-127058689D01*
X156518922Y-127020000D01*
X156161078Y-127020000D01*
X155805329Y-127058689D01*
X155455869Y-127135612D01*
X155455867Y-127135612D01*
X155116744Y-127249876D01*
X154791980Y-127400128D01*
X154485363Y-127584614D01*
X154485358Y-127584617D01*
X154200488Y-127801169D01*
X154150943Y-127848100D01*
X155358346Y-129055503D01*
X155297670Y-129099588D01*
X155119588Y-129277670D01*
X155075503Y-129338346D01*
X153868918Y-128131761D01*
X153709039Y-128319985D01*
X153709032Y-128319995D01*
X153508215Y-128616177D01*
X153340604Y-128932326D01*
X153208148Y-129264765D01*
X153208146Y-129264770D01*
X153112418Y-129609550D01*
X153054525Y-129962682D01*
X153035153Y-130320000D01*
X119004846Y-130320000D01*
X118985474Y-129962682D01*
X118927581Y-129609550D01*
X118831853Y-129264770D01*
X118831851Y-129264765D01*
X118699395Y-128932326D01*
X118531784Y-128616177D01*
X118330967Y-128319995D01*
X118330960Y-128319985D01*
X118171079Y-128131761D01*
X116964495Y-129338345D01*
X116920412Y-129277670D01*
X116742330Y-129099588D01*
X116681652Y-129055502D01*
X117889055Y-127848100D01*
X117839511Y-127801170D01*
X117554641Y-127584617D01*
X117554636Y-127584614D01*
X117248019Y-127400128D01*
X116923255Y-127249876D01*
X116584131Y-127135612D01*
X116234669Y-127058689D01*
X116234670Y-127058689D01*
X115878922Y-127020000D01*
X115521078Y-127020000D01*
X115165329Y-127058689D01*
X114815869Y-127135612D01*
X114815867Y-127135612D01*
X114476744Y-127249876D01*
X114151980Y-127400128D01*
X113845363Y-127584614D01*
X113845358Y-127584617D01*
X113560488Y-127801169D01*
X113510943Y-127848100D01*
X114718346Y-129055503D01*
X114657670Y-129099588D01*
X114479588Y-129277670D01*
X114435503Y-129338346D01*
X113228918Y-128131761D01*
X113069039Y-128319985D01*
X113069032Y-128319995D01*
X112868215Y-128616177D01*
X112700604Y-128932326D01*
X112568148Y-129264765D01*
X112568146Y-129264770D01*
X112472418Y-129609550D01*
X112414525Y-129962682D01*
X112395153Y-130320000D01*
X111520500Y-130320000D01*
X111520500Y-123630001D01*
X123165001Y-123630001D01*
X123165001Y-124579986D01*
X123175492Y-124682687D01*
X123175495Y-124682699D01*
X123230643Y-124849124D01*
X123322680Y-124998340D01*
X123446659Y-125122319D01*
X123595875Y-125214356D01*
X123762306Y-125269506D01*
X123865013Y-125279999D01*
X123965000Y-125279999D01*
X123965000Y-123630001D01*
X124365000Y-123630001D01*
X124365000Y-125279998D01*
X124365001Y-125279999D01*
X124464986Y-125279999D01*
X124567687Y-125269507D01*
X124567699Y-125269504D01*
X124734124Y-125214356D01*
X124883340Y-125122319D01*
X125007319Y-124998340D01*
X125099356Y-124849124D01*
X125154506Y-124682693D01*
X125165000Y-124579987D01*
X125165000Y-123630001D01*
X133115001Y-123630001D01*
X133115001Y-124579986D01*
X133125492Y-124682687D01*
X133125495Y-124682699D01*
X133180643Y-124849124D01*
X133272680Y-124998340D01*
X133396659Y-125122319D01*
X133545875Y-125214356D01*
X133712306Y-125269506D01*
X133815013Y-125279999D01*
X133915000Y-125279999D01*
X133915000Y-123630001D01*
X134315000Y-123630001D01*
X134315000Y-125279998D01*
X134315001Y-125279999D01*
X134414986Y-125279999D01*
X134517687Y-125269507D01*
X134517699Y-125269504D01*
X134684124Y-125214356D01*
X134833340Y-125122319D01*
X134957319Y-124998340D01*
X135049356Y-124849124D01*
X135104506Y-124682693D01*
X135115000Y-124579987D01*
X135115000Y-123670001D01*
X136345001Y-123670001D01*
X136345001Y-124619986D01*
X136355492Y-124722687D01*
X136355495Y-124722699D01*
X136410643Y-124889124D01*
X136502680Y-125038340D01*
X136626659Y-125162319D01*
X136775875Y-125254356D01*
X136942306Y-125309506D01*
X137045013Y-125319999D01*
X137145000Y-125319999D01*
X137145000Y-123670001D01*
X137545000Y-123670001D01*
X137545000Y-125319998D01*
X137545001Y-125319999D01*
X137644986Y-125319999D01*
X137747687Y-125309507D01*
X137747699Y-125309504D01*
X137914124Y-125254356D01*
X138063340Y-125162319D01*
X138187319Y-125038340D01*
X138279356Y-124889124D01*
X138334506Y-124722693D01*
X138345000Y-124619987D01*
X138345000Y-123670001D01*
X143795001Y-123670001D01*
X143795001Y-124619986D01*
X143805492Y-124722687D01*
X143805495Y-124722699D01*
X143860643Y-124889124D01*
X143952680Y-125038340D01*
X144076659Y-125162319D01*
X144225875Y-125254356D01*
X144392306Y-125309506D01*
X144495013Y-125319999D01*
X144595000Y-125319999D01*
X144595000Y-123670001D01*
X144995000Y-123670001D01*
X144995000Y-125319998D01*
X144995001Y-125319999D01*
X145094986Y-125319999D01*
X145197687Y-125309507D01*
X145197699Y-125309504D01*
X145364124Y-125254356D01*
X145513340Y-125162319D01*
X145637319Y-125038340D01*
X145729356Y-124889124D01*
X145784506Y-124722693D01*
X145795000Y-124619987D01*
X145795000Y-123670001D01*
X145794999Y-123670000D01*
X144995001Y-123670000D01*
X144995000Y-123670001D01*
X144595000Y-123670001D01*
X144594999Y-123670000D01*
X143795002Y-123670000D01*
X143795001Y-123670001D01*
X138345000Y-123670001D01*
X138344999Y-123670000D01*
X137545001Y-123670000D01*
X137545000Y-123670001D01*
X137145000Y-123670001D01*
X137144999Y-123670000D01*
X136345002Y-123670000D01*
X136345001Y-123670001D01*
X135115000Y-123670001D01*
X135115000Y-123630001D01*
X135114999Y-123630000D01*
X134315001Y-123630000D01*
X134315000Y-123630001D01*
X133915000Y-123630001D01*
X133914999Y-123630000D01*
X133115002Y-123630000D01*
X133115001Y-123630001D01*
X125165000Y-123630001D01*
X125164999Y-123630000D01*
X124365001Y-123630000D01*
X124365000Y-123630001D01*
X123965000Y-123630001D01*
X123964999Y-123630000D01*
X123165002Y-123630000D01*
X123165001Y-123630001D01*
X111520500Y-123630001D01*
X111520500Y-122280012D01*
X123165000Y-122280012D01*
X123165000Y-123229999D01*
X123165001Y-123230000D01*
X123964999Y-123230000D01*
X123965000Y-123229999D01*
X123965000Y-121580001D01*
X124365000Y-121580001D01*
X124365000Y-123229999D01*
X124365001Y-123230000D01*
X125164998Y-123230000D01*
X125164999Y-123229999D01*
X125164999Y-122280013D01*
X125164999Y-122280012D01*
X133115000Y-122280012D01*
X133115000Y-123229999D01*
X133115001Y-123230000D01*
X133914999Y-123230000D01*
X133915000Y-123229999D01*
X133915000Y-121580001D01*
X134315000Y-121580001D01*
X134315000Y-123229999D01*
X134315001Y-123230000D01*
X135114998Y-123230000D01*
X135114999Y-123229999D01*
X135114999Y-122280013D01*
X135104507Y-122177312D01*
X135104504Y-122177300D01*
X135049356Y-122010875D01*
X134957319Y-121861659D01*
X134833340Y-121737680D01*
X134684124Y-121645643D01*
X134517693Y-121590493D01*
X134414987Y-121580000D01*
X134315001Y-121580000D01*
X134315000Y-121580001D01*
X133915000Y-121580001D01*
X133915000Y-121580000D01*
X133815013Y-121580000D01*
X133815013Y-121580001D01*
X133712312Y-121590492D01*
X133712300Y-121590495D01*
X133545875Y-121645643D01*
X133396659Y-121737680D01*
X133272680Y-121861659D01*
X133180643Y-122010875D01*
X133125493Y-122177306D01*
X133115000Y-122280012D01*
X125164999Y-122280012D01*
X125154507Y-122177312D01*
X125154504Y-122177300D01*
X125099356Y-122010875D01*
X125007319Y-121861659D01*
X124883340Y-121737680D01*
X124734124Y-121645643D01*
X124567693Y-121590493D01*
X124464987Y-121580000D01*
X124365001Y-121580000D01*
X124365000Y-121580001D01*
X123965000Y-121580001D01*
X123965000Y-121580000D01*
X123865013Y-121580000D01*
X123865013Y-121580001D01*
X123762312Y-121590492D01*
X123762300Y-121590495D01*
X123595875Y-121645643D01*
X123446659Y-121737680D01*
X123322680Y-121861659D01*
X123230643Y-122010875D01*
X123175493Y-122177306D01*
X123165000Y-122280012D01*
X111520500Y-122280012D01*
X111520500Y-120430001D01*
X125215000Y-120430001D01*
X125215000Y-120995636D01*
X125217899Y-121032489D01*
X125263719Y-121190200D01*
X125263719Y-121190201D01*
X125347314Y-121331552D01*
X125463447Y-121447685D01*
X125604799Y-121531280D01*
X125762510Y-121577100D01*
X125799363Y-121580000D01*
X125814999Y-121580000D01*
X125815000Y-121579999D01*
X125815000Y-120430001D01*
X125814999Y-120430000D01*
X125215001Y-120430000D01*
X125215000Y-120430001D01*
X111520500Y-120430001D01*
X111520500Y-106943430D01*
X123809500Y-106943430D01*
X123809500Y-117824069D01*
X123825698Y-117905499D01*
X123834499Y-117949745D01*
X123883533Y-118068124D01*
X123883534Y-118068126D01*
X123883535Y-118068127D01*
X123954723Y-118174669D01*
X124925331Y-119145277D01*
X125031873Y-119216465D01*
X125150256Y-119265501D01*
X125152822Y-119266011D01*
X125153867Y-119266596D01*
X125154914Y-119266914D01*
X125154844Y-119267143D01*
X125206207Y-119295901D01*
X125231829Y-119351463D01*
X125228585Y-119390729D01*
X125217900Y-119427508D01*
X125215000Y-119464363D01*
X125215000Y-120029999D01*
X125215001Y-120030000D01*
X126116000Y-120030000D01*
X126174191Y-120048907D01*
X126210155Y-120098407D01*
X126215000Y-120129000D01*
X126215000Y-121579999D01*
X126215001Y-121580000D01*
X126230637Y-121580000D01*
X126267489Y-121577100D01*
X126425200Y-121531280D01*
X126425201Y-121531280D01*
X126566549Y-121447687D01*
X126566556Y-121447681D01*
X126569638Y-121444600D01*
X126624152Y-121416819D01*
X126684585Y-121426386D01*
X126709646Y-121444592D01*
X126713135Y-121448081D01*
X126854602Y-121531744D01*
X127012431Y-121577598D01*
X127049306Y-121580500D01*
X127049311Y-121580500D01*
X127480689Y-121580500D01*
X127480694Y-121580500D01*
X127517569Y-121577598D01*
X127675398Y-121531744D01*
X127816865Y-121448081D01*
X127819998Y-121444947D01*
X127874513Y-121417172D01*
X127934945Y-121426743D01*
X127960000Y-121444946D01*
X127963135Y-121448081D01*
X128104602Y-121531744D01*
X128262431Y-121577598D01*
X128299306Y-121580500D01*
X128299311Y-121580500D01*
X128730689Y-121580500D01*
X128730694Y-121580500D01*
X128767569Y-121577598D01*
X128925398Y-121531744D01*
X129066865Y-121448081D01*
X129069998Y-121444947D01*
X129124513Y-121417172D01*
X129184945Y-121426743D01*
X129210000Y-121444946D01*
X129213135Y-121448081D01*
X129354602Y-121531744D01*
X129512431Y-121577598D01*
X129549306Y-121580500D01*
X129549311Y-121580500D01*
X129980689Y-121580500D01*
X129980694Y-121580500D01*
X130017569Y-121577598D01*
X130175398Y-121531744D01*
X130316865Y-121448081D01*
X130319998Y-121444947D01*
X130374513Y-121417172D01*
X130434945Y-121426743D01*
X130460000Y-121444946D01*
X130463135Y-121448081D01*
X130604602Y-121531744D01*
X130762431Y-121577598D01*
X130799306Y-121580500D01*
X130799311Y-121580500D01*
X131230689Y-121580500D01*
X131230694Y-121580500D01*
X131267569Y-121577598D01*
X131425398Y-121531744D01*
X131566865Y-121448081D01*
X131569998Y-121444947D01*
X131624513Y-121417172D01*
X131684945Y-121426743D01*
X131710000Y-121444946D01*
X131713135Y-121448081D01*
X131854602Y-121531744D01*
X132012431Y-121577598D01*
X132049306Y-121580500D01*
X132049311Y-121580500D01*
X132480689Y-121580500D01*
X132480694Y-121580500D01*
X132517569Y-121577598D01*
X132675398Y-121531744D01*
X132816865Y-121448081D01*
X132933081Y-121331865D01*
X133016744Y-121190398D01*
X133056988Y-121051878D01*
X133091378Y-121001275D01*
X133148946Y-120980549D01*
X133152056Y-120980500D01*
X136468124Y-120980500D01*
X136526315Y-120999407D01*
X136538128Y-121009496D01*
X136992186Y-121463554D01*
X137019963Y-121518071D01*
X137010392Y-121578503D01*
X136967127Y-121621768D01*
X136947424Y-121628762D01*
X136947435Y-121628794D01*
X136945932Y-121629291D01*
X136942918Y-121630362D01*
X136942310Y-121630492D01*
X136775875Y-121685643D01*
X136626659Y-121777680D01*
X136502680Y-121901659D01*
X136410643Y-122050875D01*
X136355493Y-122217306D01*
X136345000Y-122320012D01*
X136345000Y-123269999D01*
X136345001Y-123270000D01*
X138344998Y-123270000D01*
X138344999Y-123269999D01*
X138344999Y-122549500D01*
X138363906Y-122491309D01*
X138413406Y-122455345D01*
X138443999Y-122450500D01*
X142393917Y-122450500D01*
X142393918Y-122450500D01*
X142538913Y-122421658D01*
X142675495Y-122365084D01*
X142724729Y-122332186D01*
X142742949Y-122320012D01*
X143795000Y-122320012D01*
X143795000Y-123269999D01*
X143795001Y-123270000D01*
X144594999Y-123270000D01*
X144595000Y-123269999D01*
X144595000Y-121620001D01*
X144995000Y-121620001D01*
X144995000Y-123269999D01*
X144995001Y-123270000D01*
X145794998Y-123270000D01*
X145794999Y-123269999D01*
X145794999Y-122320013D01*
X145784507Y-122217312D01*
X145784504Y-122217300D01*
X145729356Y-122050875D01*
X145637319Y-121901659D01*
X145513340Y-121777680D01*
X145364124Y-121685643D01*
X145197693Y-121630493D01*
X145094987Y-121620000D01*
X144995001Y-121620000D01*
X144995000Y-121620001D01*
X144595000Y-121620001D01*
X144595000Y-121620000D01*
X144495013Y-121620000D01*
X144495013Y-121620001D01*
X144392312Y-121630492D01*
X144392300Y-121630495D01*
X144225875Y-121685643D01*
X144076659Y-121777680D01*
X143952680Y-121901659D01*
X143860643Y-122050875D01*
X143805493Y-122217306D01*
X143795000Y-122320012D01*
X142742949Y-122320012D01*
X142798416Y-122282952D01*
X143527951Y-121553416D01*
X143610084Y-121430495D01*
X143666658Y-121293913D01*
X143667154Y-121291416D01*
X143679037Y-121260336D01*
X143696744Y-121230398D01*
X143736988Y-121091878D01*
X143771378Y-121041275D01*
X143828946Y-121020549D01*
X143832056Y-121020500D01*
X144941417Y-121020500D01*
X144941418Y-121020500D01*
X145086413Y-120991658D01*
X145222995Y-120935084D01*
X145282235Y-120895501D01*
X145345916Y-120852952D01*
X146455452Y-119743415D01*
X146519841Y-119647049D01*
X146537584Y-119620495D01*
X146567471Y-119548342D01*
X146594159Y-119483912D01*
X146623000Y-119338917D01*
X146623000Y-119191082D01*
X146623000Y-118541875D01*
X146641907Y-118483684D01*
X146651990Y-118471877D01*
X146715212Y-118408656D01*
X146738533Y-118370846D01*
X146785172Y-118331246D01*
X146846182Y-118326622D01*
X146898259Y-118358741D01*
X146907053Y-118370846D01*
X146930179Y-118408339D01*
X147054159Y-118532319D01*
X147203375Y-118624356D01*
X147369806Y-118679506D01*
X147472513Y-118689999D01*
X147572500Y-118689999D01*
X147572500Y-117665001D01*
X147972500Y-117665001D01*
X147972500Y-118689998D01*
X147972501Y-118689999D01*
X148072486Y-118689999D01*
X148175187Y-118679507D01*
X148175199Y-118679504D01*
X148341624Y-118624356D01*
X148490840Y-118532319D01*
X148614819Y-118408340D01*
X148706856Y-118259124D01*
X148762006Y-118092693D01*
X148772500Y-117989987D01*
X148772500Y-117665001D01*
X148772499Y-117665000D01*
X147972501Y-117665000D01*
X147972500Y-117665001D01*
X147572500Y-117665001D01*
X147572500Y-117364000D01*
X147591407Y-117305809D01*
X147640907Y-117269845D01*
X147671500Y-117265000D01*
X148772498Y-117265000D01*
X148772499Y-117264999D01*
X148772499Y-116940013D01*
X148762007Y-116837312D01*
X148762004Y-116837300D01*
X148706856Y-116670874D01*
X148663947Y-116601308D01*
X148649490Y-116541855D01*
X148672740Y-116485259D01*
X148708900Y-116458473D01*
X148712890Y-116456746D01*
X148712898Y-116456744D01*
X148854365Y-116373081D01*
X148970581Y-116256865D01*
X149054244Y-116115398D01*
X149100098Y-115957569D01*
X149103000Y-115920694D01*
X149103000Y-114764306D01*
X149100098Y-114727431D01*
X149054244Y-114569602D01*
X149052001Y-114565809D01*
X149050028Y-114562472D01*
X149038142Y-114531390D01*
X149024159Y-114461089D01*
X148970288Y-114331035D01*
X148969381Y-114328844D01*
X148967588Y-114324514D01*
X148967586Y-114324511D01*
X148967584Y-114324506D01*
X148897422Y-114219501D01*
X148885452Y-114201586D01*
X148885443Y-114201577D01*
X148882364Y-114197824D01*
X148884114Y-114196387D01*
X148860371Y-114149709D01*
X148869984Y-114089284D01*
X148888157Y-114064288D01*
X148970581Y-113981865D01*
X149054244Y-113840398D01*
X149100098Y-113682569D01*
X149103000Y-113645694D01*
X149103000Y-112489306D01*
X149100098Y-112452431D01*
X149089839Y-112417119D01*
X149091761Y-112355964D01*
X149129262Y-112307618D01*
X149184908Y-112290499D01*
X149590016Y-112290499D01*
X149692788Y-112280000D01*
X149692788Y-112279999D01*
X149692797Y-112279999D01*
X149859334Y-112224814D01*
X150008656Y-112132712D01*
X150132712Y-112008656D01*
X150224814Y-111859334D01*
X150279999Y-111692797D01*
X150290500Y-111590009D01*
X150290499Y-110964992D01*
X150290499Y-110964983D01*
X150280000Y-110862211D01*
X150279999Y-110862209D01*
X150279999Y-110862203D01*
X150224814Y-110695666D01*
X150132712Y-110546344D01*
X150021369Y-110435001D01*
X149993594Y-110380487D01*
X150003165Y-110320055D01*
X150021368Y-110294999D01*
X150132712Y-110183656D01*
X150224814Y-110034334D01*
X150279999Y-109867797D01*
X150290500Y-109765009D01*
X150290499Y-109204348D01*
X150307183Y-109149349D01*
X150366465Y-109060627D01*
X150415501Y-108942244D01*
X150440500Y-108816569D01*
X150440500Y-101625931D01*
X150415501Y-101500256D01*
X150366465Y-101381873D01*
X150295276Y-101275330D01*
X148624669Y-99604723D01*
X148542772Y-99550002D01*
X148518126Y-99533534D01*
X148399747Y-99484500D01*
X148399745Y-99484499D01*
X148399744Y-99484499D01*
X148274069Y-99459500D01*
X143667866Y-99459500D01*
X143615195Y-99444326D01*
X143519523Y-99384211D01*
X143349261Y-99324633D01*
X143349257Y-99324632D01*
X143170000Y-99304435D01*
X142990742Y-99324632D01*
X142990738Y-99324633D01*
X142820477Y-99384211D01*
X142820476Y-99384211D01*
X142667741Y-99480181D01*
X142540181Y-99607741D01*
X142444211Y-99760476D01*
X142444211Y-99760477D01*
X142384633Y-99930738D01*
X142384632Y-99930742D01*
X142364435Y-100110000D01*
X142384632Y-100289257D01*
X142384633Y-100289261D01*
X142444211Y-100459522D01*
X142444211Y-100459523D01*
X142540181Y-100612258D01*
X142540184Y-100612262D01*
X142667738Y-100739816D01*
X142667740Y-100739817D01*
X142667741Y-100739818D01*
X142730746Y-100779407D01*
X142820478Y-100835789D01*
X142888657Y-100859646D01*
X142990738Y-100895366D01*
X142990742Y-100895367D01*
X142990745Y-100895368D01*
X143170000Y-100915565D01*
X143349255Y-100895368D01*
X143519522Y-100835789D01*
X143615195Y-100775674D01*
X143667866Y-100760500D01*
X147899546Y-100760500D01*
X147957737Y-100779407D01*
X147969550Y-100789496D01*
X149110504Y-101930450D01*
X149138281Y-101984967D01*
X149139500Y-102000454D01*
X149139500Y-103005500D01*
X149120593Y-103063691D01*
X149071093Y-103099655D01*
X149040500Y-103104500D01*
X148239983Y-103104500D01*
X148137211Y-103114999D01*
X148137199Y-103115002D01*
X147970663Y-103170187D01*
X147821347Y-103262285D01*
X147697284Y-103386348D01*
X147695195Y-103388991D01*
X147693539Y-103390093D01*
X147693211Y-103390422D01*
X147693145Y-103390356D01*
X147644271Y-103422909D01*
X147583136Y-103420416D01*
X147557933Y-103404256D01*
X147556786Y-103405736D01*
X147551868Y-103401921D01*
X147548620Y-103400000D01*
X147410398Y-103318256D01*
X147252569Y-103272402D01*
X147252568Y-103272401D01*
X147252565Y-103272401D01*
X147229140Y-103270558D01*
X147215694Y-103269500D01*
X146684306Y-103269500D01*
X146671773Y-103270486D01*
X146647434Y-103272401D01*
X146647427Y-103272403D01*
X146542844Y-103302787D01*
X146481689Y-103300865D01*
X146445220Y-103277721D01*
X146424999Y-103257500D01*
X145250001Y-103257500D01*
X145250000Y-103257501D01*
X145250000Y-104119998D01*
X145250001Y-104119999D01*
X145724986Y-104119999D01*
X145827687Y-104109507D01*
X145827695Y-104109505D01*
X145969359Y-104062562D01*
X146030544Y-104062206D01*
X146080252Y-104097881D01*
X146099498Y-104155960D01*
X146099500Y-104156537D01*
X146099500Y-104285688D01*
X146102401Y-104322565D01*
X146102401Y-104322568D01*
X146102402Y-104322569D01*
X146148256Y-104480398D01*
X146231919Y-104621865D01*
X146310052Y-104699998D01*
X146337828Y-104754513D01*
X146328257Y-104814945D01*
X146310055Y-104839999D01*
X146254868Y-104895186D01*
X146231917Y-104918137D01*
X146190703Y-104987826D01*
X146144807Y-105028288D01*
X146083893Y-105034046D01*
X146053521Y-105021692D01*
X145994334Y-104985186D01*
X145827797Y-104930001D01*
X145827794Y-104930000D01*
X145725016Y-104919500D01*
X144374983Y-104919500D01*
X144272211Y-104929999D01*
X144272199Y-104930002D01*
X144105663Y-104985187D01*
X143956347Y-105077285D01*
X143832287Y-105201345D01*
X143775498Y-105293415D01*
X143728856Y-105333016D01*
X143710552Y-105338540D01*
X143617754Y-105356999D01*
X143568720Y-105377310D01*
X143499376Y-105406032D01*
X143392834Y-105477220D01*
X141674720Y-107195334D01*
X141628357Y-107264724D01*
X141603534Y-107301873D01*
X141554500Y-107420252D01*
X141554499Y-107420257D01*
X141529500Y-107545930D01*
X141529500Y-109132134D01*
X141514326Y-109184805D01*
X141454211Y-109280476D01*
X141454211Y-109280477D01*
X141394633Y-109450738D01*
X141394632Y-109450742D01*
X141374435Y-109630000D01*
X141394632Y-109809257D01*
X141394633Y-109809261D01*
X141454211Y-109979522D01*
X141454211Y-109979523D01*
X141550181Y-110132258D01*
X141550184Y-110132262D01*
X141677738Y-110259816D01*
X141677740Y-110259817D01*
X141677741Y-110259818D01*
X141773607Y-110320055D01*
X141830478Y-110355789D01*
X141856802Y-110365000D01*
X142000738Y-110415366D01*
X142000742Y-110415367D01*
X142000745Y-110415368D01*
X142180000Y-110435565D01*
X142359255Y-110415368D01*
X142529522Y-110355789D01*
X142682262Y-110259816D01*
X142809816Y-110132262D01*
X142905789Y-109979522D01*
X142965368Y-109809255D01*
X142985565Y-109630000D01*
X142965368Y-109450745D01*
X142905789Y-109280478D01*
X142860817Y-109208906D01*
X142845674Y-109184805D01*
X142830500Y-109132134D01*
X142830500Y-107920454D01*
X142849407Y-107862263D01*
X142859496Y-107850450D01*
X143289694Y-107420252D01*
X143819287Y-106890658D01*
X143873802Y-106862883D01*
X143934234Y-106872454D01*
X143951272Y-106884833D01*
X143951823Y-106884137D01*
X143956345Y-106887713D01*
X144060718Y-106952090D01*
X144105666Y-106979814D01*
X144272203Y-107034999D01*
X144374991Y-107045500D01*
X145725008Y-107045499D01*
X145725016Y-107045499D01*
X145827788Y-107035000D01*
X145827788Y-107034999D01*
X145827797Y-107034999D01*
X145994334Y-106979814D01*
X146003102Y-106974406D01*
X146015844Y-106966547D01*
X146075297Y-106952090D01*
X146131893Y-106975340D01*
X146164014Y-107027416D01*
X146159391Y-107088426D01*
X146137821Y-107120811D01*
X145237044Y-108021588D01*
X145222330Y-108043609D01*
X145210020Y-108058610D01*
X143886584Y-109382048D01*
X142027043Y-111241589D01*
X141981667Y-111309503D01*
X141981666Y-111309505D01*
X141944915Y-111364505D01*
X141888341Y-111501088D01*
X141888340Y-111501092D01*
X141874676Y-111569780D01*
X141871024Y-111583161D01*
X141824632Y-111715742D01*
X141804435Y-111895000D01*
X141824632Y-112074257D01*
X141824633Y-112074261D01*
X141884211Y-112244522D01*
X141884211Y-112244523D01*
X141980181Y-112397258D01*
X141980184Y-112397262D01*
X142107738Y-112524816D01*
X142260478Y-112620789D01*
X142328657Y-112644646D01*
X142430738Y-112680366D01*
X142430742Y-112680367D01*
X142430745Y-112680368D01*
X142610000Y-112700565D01*
X142789255Y-112680368D01*
X142959522Y-112620789D01*
X143112262Y-112524816D01*
X143239816Y-112397262D01*
X143335789Y-112244522D01*
X143395368Y-112074255D01*
X143401425Y-112020486D01*
X143426728Y-111964779D01*
X143429776Y-111961590D01*
X144469997Y-110921370D01*
X144524513Y-110893594D01*
X144584945Y-110903165D01*
X144610000Y-110921368D01*
X145566584Y-111877952D01*
X145566587Y-111877954D01*
X145566589Y-111877956D01*
X145622526Y-111915331D01*
X145622527Y-111915331D01*
X145689505Y-111960084D01*
X145720887Y-111973082D01*
X145767411Y-112012818D01*
X145781695Y-112072312D01*
X145758281Y-112128840D01*
X145753005Y-112134548D01*
X145734420Y-112153133D01*
X145650756Y-112294602D01*
X145604903Y-112452427D01*
X145604901Y-112452434D01*
X145602000Y-112489311D01*
X145602000Y-113645688D01*
X145604901Y-113682565D01*
X145604901Y-113682568D01*
X145604902Y-113682569D01*
X145650756Y-113840398D01*
X145734419Y-113981865D01*
X145797983Y-114045429D01*
X145825759Y-114099944D01*
X145816188Y-114160376D01*
X145810295Y-114170430D01*
X145772100Y-114227596D01*
X145772099Y-114227598D01*
X145737414Y-114279507D01*
X145680842Y-114416085D01*
X145651051Y-114565853D01*
X145650833Y-114565809D01*
X145648811Y-114576294D01*
X145604903Y-114727427D01*
X145604901Y-114727434D01*
X145603324Y-114747483D01*
X145602000Y-114764306D01*
X145602000Y-115920694D01*
X145602159Y-115922712D01*
X145604901Y-115957565D01*
X145604901Y-115957568D01*
X145604902Y-115957569D01*
X145611419Y-115980000D01*
X145648069Y-116106150D01*
X145652000Y-116133770D01*
X145652000Y-116141976D01*
X145633093Y-116200167D01*
X145583593Y-116236131D01*
X145563062Y-116240463D01*
X145469710Y-116250000D01*
X145469706Y-116250000D01*
X145469703Y-116250001D01*
X145469701Y-116250001D01*
X145469699Y-116250002D01*
X145303163Y-116305187D01*
X145153847Y-116397285D01*
X145029785Y-116521347D01*
X144937687Y-116670663D01*
X144882500Y-116837205D01*
X144872000Y-116939983D01*
X144872000Y-117990016D01*
X144882499Y-118092788D01*
X144882500Y-118092795D01*
X144882501Y-118092797D01*
X144937616Y-118259124D01*
X144937687Y-118259336D01*
X145029785Y-118408652D01*
X145029786Y-118408653D01*
X145029788Y-118408656D01*
X145093005Y-118471873D01*
X145120781Y-118526388D01*
X145122000Y-118541875D01*
X145122000Y-118913124D01*
X145103093Y-118971315D01*
X145093004Y-118983128D01*
X144585628Y-119490504D01*
X144531111Y-119518281D01*
X144515624Y-119519500D01*
X143832056Y-119519500D01*
X143773865Y-119500593D01*
X143737901Y-119451093D01*
X143736997Y-119448154D01*
X143696744Y-119309602D01*
X143613081Y-119168135D01*
X143496865Y-119051919D01*
X143355398Y-118968256D01*
X143197569Y-118922402D01*
X143197568Y-118922401D01*
X143197565Y-118922401D01*
X143174140Y-118920558D01*
X143160694Y-118919500D01*
X142729306Y-118919500D01*
X142716773Y-118920486D01*
X142692434Y-118922401D01*
X142692427Y-118922403D01*
X142534602Y-118968256D01*
X142494893Y-118991739D01*
X142435183Y-119005086D01*
X142379030Y-118980786D01*
X142347884Y-118928121D01*
X142345500Y-118906525D01*
X142345500Y-118660932D01*
X142345500Y-118660931D01*
X142320501Y-118535256D01*
X142271465Y-118416873D01*
X142250503Y-118385501D01*
X142200276Y-118310330D01*
X141069495Y-117179549D01*
X141041718Y-117125032D01*
X141040499Y-117109545D01*
X141040499Y-116567483D01*
X141030000Y-116464711D01*
X141029999Y-116464709D01*
X141029999Y-116464703D01*
X140974814Y-116298166D01*
X140882712Y-116148844D01*
X140771369Y-116037501D01*
X140743594Y-115982987D01*
X140753165Y-115922555D01*
X140771368Y-115897499D01*
X140882712Y-115786156D01*
X140974814Y-115636834D01*
X141029999Y-115470297D01*
X141040500Y-115367509D01*
X141040499Y-114742492D01*
X141040499Y-114742483D01*
X141030000Y-114639711D01*
X141029999Y-114639709D01*
X141029999Y-114639703D01*
X140974814Y-114473166D01*
X140890422Y-114336344D01*
X140882714Y-114323847D01*
X140882713Y-114323846D01*
X140882712Y-114323844D01*
X140758656Y-114199788D01*
X140758653Y-114199786D01*
X140758652Y-114199785D01*
X140609336Y-114107687D01*
X140609335Y-114107686D01*
X140609334Y-114107686D01*
X140442797Y-114052501D01*
X140442794Y-114052500D01*
X140340016Y-114042000D01*
X139339983Y-114042000D01*
X139237211Y-114052499D01*
X139237199Y-114052502D01*
X139070663Y-114107687D01*
X138921345Y-114199786D01*
X138921342Y-114199789D01*
X138892500Y-114228630D01*
X138837983Y-114256406D01*
X138777551Y-114246832D01*
X138752498Y-114228630D01*
X138728656Y-114204788D01*
X138679684Y-114174582D01*
X138607527Y-114130075D01*
X138567926Y-114083434D01*
X138560500Y-114045814D01*
X138560500Y-103892864D01*
X138575675Y-103840192D01*
X138635787Y-103744525D01*
X138635786Y-103744525D01*
X138635789Y-103744522D01*
X138695368Y-103574255D01*
X138715565Y-103395000D01*
X138700073Y-103257501D01*
X143675001Y-103257501D01*
X143675001Y-103419986D01*
X143685492Y-103522687D01*
X143685495Y-103522699D01*
X143740643Y-103689124D01*
X143832680Y-103838340D01*
X143956659Y-103962319D01*
X144105875Y-104054356D01*
X144272306Y-104109506D01*
X144375012Y-104119999D01*
X144849998Y-104119999D01*
X144850000Y-104119998D01*
X144850000Y-103257501D01*
X144849999Y-103257500D01*
X143675002Y-103257500D01*
X143675001Y-103257501D01*
X138700073Y-103257501D01*
X138695368Y-103215745D01*
X138635789Y-103045478D01*
X138575674Y-102949805D01*
X138560500Y-102897134D01*
X138560500Y-102695012D01*
X143675000Y-102695012D01*
X143675000Y-102857499D01*
X143675001Y-102857500D01*
X144849999Y-102857500D01*
X144850000Y-102857499D01*
X144850000Y-101995001D01*
X145250000Y-101995001D01*
X145250000Y-102857499D01*
X145250001Y-102857500D01*
X146424998Y-102857500D01*
X146424999Y-102857499D01*
X146424999Y-102695013D01*
X146414507Y-102592312D01*
X146414504Y-102592300D01*
X146359356Y-102425875D01*
X146267319Y-102276659D01*
X146143340Y-102152680D01*
X145994124Y-102060643D01*
X145827693Y-102005493D01*
X145724987Y-101995000D01*
X145250001Y-101995000D01*
X145250000Y-101995001D01*
X144850000Y-101995001D01*
X144849999Y-101995000D01*
X144375013Y-101995000D01*
X144272312Y-102005492D01*
X144272300Y-102005495D01*
X144105875Y-102060643D01*
X143956659Y-102152680D01*
X143832680Y-102276659D01*
X143740643Y-102425875D01*
X143685493Y-102592306D01*
X143675000Y-102695012D01*
X138560500Y-102695012D01*
X138560500Y-101836875D01*
X138579407Y-101778684D01*
X138589490Y-101766877D01*
X138697712Y-101658656D01*
X138789814Y-101509334D01*
X138844999Y-101342797D01*
X138855500Y-101240009D01*
X138855499Y-100239992D01*
X138855499Y-100239983D01*
X138845000Y-100137211D01*
X138844999Y-100137209D01*
X138844999Y-100137203D01*
X138789814Y-99970666D01*
X138697712Y-99821344D01*
X138573656Y-99697288D01*
X138573653Y-99697286D01*
X138573652Y-99697285D01*
X138424336Y-99605187D01*
X138424335Y-99605186D01*
X138424334Y-99605186D01*
X138257797Y-99550001D01*
X138257794Y-99550000D01*
X138155016Y-99539500D01*
X137529983Y-99539500D01*
X137427211Y-99549999D01*
X137427199Y-99550002D01*
X137260663Y-99605187D01*
X137111347Y-99697285D01*
X137111344Y-99697287D01*
X137111344Y-99697288D01*
X137000001Y-99808630D01*
X136945487Y-99836406D01*
X136885055Y-99826835D01*
X136859999Y-99808631D01*
X136748656Y-99697288D01*
X136748653Y-99697286D01*
X136748652Y-99697285D01*
X136599336Y-99605187D01*
X136599335Y-99605186D01*
X136599334Y-99605186D01*
X136432797Y-99550001D01*
X136432794Y-99550000D01*
X136330016Y-99539500D01*
X135704983Y-99539500D01*
X135602211Y-99549999D01*
X135602199Y-99550002D01*
X135435663Y-99605187D01*
X135286347Y-99697285D01*
X135162285Y-99821347D01*
X135087576Y-99942472D01*
X135040935Y-99982074D01*
X135003315Y-99989500D01*
X131511874Y-99989500D01*
X131453683Y-99970593D01*
X131441870Y-99960503D01*
X131289271Y-99807903D01*
X131268736Y-99775221D01*
X131268198Y-99775481D01*
X131265899Y-99770706D01*
X131265831Y-99770598D01*
X131265830Y-99770596D01*
X131265789Y-99770478D01*
X131259504Y-99760476D01*
X131169818Y-99617741D01*
X131169817Y-99617740D01*
X131169816Y-99617738D01*
X131042262Y-99490184D01*
X131042259Y-99490182D01*
X131042258Y-99490181D01*
X130889523Y-99394211D01*
X130719261Y-99334633D01*
X130719257Y-99334632D01*
X130540000Y-99314435D01*
X130360742Y-99334632D01*
X130360738Y-99334633D01*
X130190477Y-99394211D01*
X130190476Y-99394211D01*
X130037741Y-99490181D01*
X129910181Y-99617741D01*
X129814211Y-99770476D01*
X129814211Y-99770477D01*
X129754633Y-99940738D01*
X129754632Y-99940742D01*
X129734435Y-100120000D01*
X129754632Y-100299257D01*
X129754633Y-100299261D01*
X129814211Y-100469522D01*
X129814211Y-100469523D01*
X129910181Y-100622258D01*
X129910184Y-100622262D01*
X130037738Y-100749816D01*
X130037740Y-100749817D01*
X130037741Y-100749818D01*
X130174561Y-100835788D01*
X130190478Y-100845789D01*
X130190594Y-100845829D01*
X130190598Y-100845831D01*
X130190706Y-100845899D01*
X130195481Y-100848198D01*
X130195221Y-100848736D01*
X130227903Y-100869271D01*
X130577047Y-101218414D01*
X130577049Y-101218416D01*
X130577048Y-101218416D01*
X130633963Y-101275330D01*
X130681584Y-101322951D01*
X130804505Y-101405084D01*
X130941087Y-101461658D01*
X131086082Y-101490500D01*
X135003315Y-101490500D01*
X135061506Y-101509407D01*
X135087576Y-101537528D01*
X135162285Y-101658652D01*
X135162286Y-101658653D01*
X135162288Y-101658656D01*
X135286344Y-101782712D01*
X135435666Y-101874814D01*
X135602203Y-101929999D01*
X135704991Y-101940500D01*
X136330008Y-101940499D01*
X136330016Y-101940499D01*
X136432788Y-101930000D01*
X136432788Y-101929999D01*
X136432797Y-101929999D01*
X136599334Y-101874814D01*
X136748656Y-101782712D01*
X136859998Y-101671369D01*
X136914513Y-101643594D01*
X136974945Y-101653165D01*
X137000000Y-101671368D01*
X137111344Y-101782712D01*
X137212472Y-101845087D01*
X137252073Y-101891727D01*
X137259500Y-101929348D01*
X137259500Y-102897134D01*
X137244326Y-102949805D01*
X137184211Y-103045476D01*
X137184211Y-103045477D01*
X137124633Y-103215738D01*
X137124632Y-103215742D01*
X137104435Y-103395000D01*
X137124632Y-103574257D01*
X137124633Y-103574261D01*
X137184211Y-103744522D01*
X137184212Y-103744525D01*
X137244325Y-103840192D01*
X137259500Y-103892864D01*
X137259500Y-113968683D01*
X137240593Y-114026874D01*
X137191641Y-114062657D01*
X137040666Y-114112686D01*
X137040663Y-114112687D01*
X137040662Y-114112688D01*
X136891347Y-114204785D01*
X136767285Y-114328847D01*
X136675187Y-114478163D01*
X136620000Y-114644705D01*
X136609500Y-114747483D01*
X136609500Y-115372516D01*
X136619999Y-115475288D01*
X136620002Y-115475300D01*
X136675187Y-115641836D01*
X136767285Y-115791152D01*
X136767286Y-115791153D01*
X136767288Y-115791156D01*
X136878630Y-115902498D01*
X136906406Y-115957013D01*
X136896835Y-116017445D01*
X136878631Y-116042500D01*
X136820467Y-116100665D01*
X136767285Y-116153847D01*
X136675187Y-116303163D01*
X136620000Y-116469705D01*
X136609500Y-116572483D01*
X136609500Y-117197516D01*
X136619999Y-117300288D01*
X136620000Y-117300295D01*
X136620001Y-117300297D01*
X136621827Y-117305809D01*
X136675187Y-117466836D01*
X136767285Y-117616152D01*
X136767286Y-117616153D01*
X136767288Y-117616156D01*
X136891344Y-117740212D01*
X136891346Y-117740213D01*
X136891347Y-117740214D01*
X136903505Y-117747713D01*
X137040666Y-117832314D01*
X137207203Y-117887499D01*
X137309991Y-117898000D01*
X138117045Y-117897999D01*
X138175236Y-117916906D01*
X138187049Y-117926995D01*
X139013561Y-118753507D01*
X139041338Y-118808024D01*
X139031767Y-118868456D01*
X138988502Y-118911721D01*
X138951327Y-118922206D01*
X138942509Y-118922900D01*
X138784799Y-118968719D01*
X138784798Y-118968719D01*
X138643447Y-119052314D01*
X138527314Y-119168447D01*
X138443719Y-119309798D01*
X138443719Y-119309799D01*
X138397899Y-119467510D01*
X138395000Y-119504363D01*
X138395000Y-120069999D01*
X138395001Y-120070000D01*
X139296000Y-120070000D01*
X139354191Y-120088907D01*
X139390155Y-120138407D01*
X139395000Y-120169000D01*
X139395000Y-120371000D01*
X139376093Y-120429191D01*
X139326593Y-120465155D01*
X139296000Y-120470000D01*
X138395001Y-120470000D01*
X138395000Y-120470001D01*
X138395000Y-120504624D01*
X138376093Y-120562815D01*
X138326593Y-120598779D01*
X138265407Y-120598779D01*
X138225996Y-120574628D01*
X137780368Y-120129000D01*
X137298416Y-119647048D01*
X137224729Y-119597813D01*
X137175495Y-119564916D01*
X137175494Y-119564915D01*
X137175492Y-119564914D01*
X137038914Y-119508342D01*
X136893918Y-119479500D01*
X133152056Y-119479500D01*
X133093865Y-119460593D01*
X133057901Y-119411093D01*
X133056997Y-119408154D01*
X133016744Y-119269602D01*
X132933081Y-119128135D01*
X132816865Y-119011919D01*
X132675398Y-118928256D01*
X132517569Y-118882402D01*
X132517568Y-118882401D01*
X132517565Y-118882401D01*
X132494140Y-118880558D01*
X132480694Y-118879500D01*
X132099452Y-118879500D01*
X132041261Y-118860593D01*
X132005297Y-118811093D01*
X132005297Y-118749907D01*
X132029449Y-118710496D01*
X132125268Y-118614677D01*
X132125268Y-118614676D01*
X132125276Y-118614669D01*
X132196465Y-118508127D01*
X132245501Y-118389744D01*
X132256456Y-118334669D01*
X132270500Y-118264069D01*
X132270500Y-117950679D01*
X132289407Y-117892488D01*
X132338359Y-117856704D01*
X132389334Y-117839814D01*
X132538656Y-117747712D01*
X132580351Y-117706016D01*
X132634865Y-117678240D01*
X132695297Y-117687811D01*
X132720357Y-117706017D01*
X132796659Y-117782319D01*
X132945875Y-117874356D01*
X133112306Y-117929506D01*
X133215013Y-117939999D01*
X133539998Y-117939999D01*
X133540000Y-117939998D01*
X133540000Y-117140001D01*
X133940000Y-117140001D01*
X133940000Y-117939998D01*
X133940001Y-117939999D01*
X134264986Y-117939999D01*
X134367687Y-117929507D01*
X134367699Y-117929504D01*
X134534124Y-117874356D01*
X134683340Y-117782319D01*
X134807319Y-117658340D01*
X134899356Y-117509124D01*
X134954506Y-117342693D01*
X134965000Y-117239987D01*
X134965000Y-117140001D01*
X134964999Y-117140000D01*
X133940001Y-117140000D01*
X133940000Y-117140001D01*
X133540000Y-117140001D01*
X133540000Y-116839000D01*
X133558907Y-116780809D01*
X133608407Y-116744845D01*
X133639000Y-116740000D01*
X134964998Y-116740000D01*
X134964999Y-116739999D01*
X134964999Y-116640013D01*
X134954507Y-116537312D01*
X134954504Y-116537300D01*
X134899356Y-116370875D01*
X134807319Y-116221659D01*
X134683339Y-116097679D01*
X134645846Y-116074553D01*
X134606245Y-116027912D01*
X134601622Y-115966902D01*
X134633743Y-115914826D01*
X134645838Y-115906037D01*
X134683656Y-115882712D01*
X134807712Y-115758656D01*
X134899814Y-115609334D01*
X134954999Y-115442797D01*
X134965500Y-115340009D01*
X134965499Y-114739992D01*
X134965499Y-114739983D01*
X134965498Y-114739972D01*
X134955000Y-114637211D01*
X134954999Y-114637209D01*
X134954999Y-114637203D01*
X134899814Y-114470666D01*
X134816964Y-114336344D01*
X134807714Y-114321347D01*
X134807713Y-114321346D01*
X134807712Y-114321344D01*
X134683656Y-114197288D01*
X134683653Y-114197286D01*
X134683652Y-114197285D01*
X134534336Y-114105187D01*
X134534335Y-114105186D01*
X134534334Y-114105186D01*
X134367797Y-114050001D01*
X134367794Y-114050000D01*
X134265016Y-114039500D01*
X133214983Y-114039500D01*
X133112211Y-114049999D01*
X133112199Y-114050002D01*
X132945663Y-114105187D01*
X132796347Y-114197285D01*
X132796344Y-114197287D01*
X132796344Y-114197288D01*
X132730001Y-114263630D01*
X132675487Y-114291406D01*
X132615055Y-114281835D01*
X132589999Y-114263631D01*
X132538656Y-114212288D01*
X132538653Y-114212286D01*
X132538652Y-114212285D01*
X132389338Y-114120188D01*
X132389329Y-114120184D01*
X132338358Y-114103293D01*
X132289069Y-114067041D01*
X132270500Y-114009319D01*
X132270500Y-113385932D01*
X132270500Y-113385931D01*
X132245501Y-113260256D01*
X132196465Y-113141873D01*
X132196463Y-113141870D01*
X132196462Y-113141867D01*
X132196162Y-113141418D01*
X132196162Y-113141419D01*
X132125279Y-113035334D01*
X132125277Y-113035331D01*
X130942832Y-111852886D01*
X130916316Y-111804900D01*
X130915367Y-111800741D01*
X130877594Y-111692794D01*
X130855789Y-111630478D01*
X130759816Y-111477738D01*
X130632262Y-111350184D01*
X130632259Y-111350182D01*
X130632258Y-111350181D01*
X130479523Y-111254211D01*
X130309261Y-111194633D01*
X130309249Y-111194630D01*
X130188415Y-111181016D01*
X130132708Y-111155713D01*
X130102512Y-111102497D01*
X130100500Y-111082639D01*
X130100500Y-110747864D01*
X130115675Y-110695192D01*
X130175787Y-110599525D01*
X130175786Y-110599525D01*
X130175789Y-110599522D01*
X130235368Y-110429255D01*
X130255565Y-110250000D01*
X130235368Y-110070745D01*
X130175789Y-109900478D01*
X130090672Y-109765016D01*
X130079818Y-109747741D01*
X130079817Y-109747740D01*
X130079816Y-109747738D01*
X129952262Y-109620184D01*
X129952259Y-109620182D01*
X129952258Y-109620181D01*
X129799523Y-109524211D01*
X129629261Y-109464633D01*
X129629257Y-109464632D01*
X129450000Y-109444435D01*
X129270742Y-109464632D01*
X129270738Y-109464633D01*
X129100477Y-109524211D01*
X129100476Y-109524211D01*
X128947741Y-109620181D01*
X128820181Y-109747741D01*
X128724211Y-109900476D01*
X128724211Y-109900477D01*
X128664633Y-110070738D01*
X128664632Y-110070742D01*
X128644435Y-110250000D01*
X128664632Y-110429257D01*
X128664633Y-110429261D01*
X128724211Y-110599522D01*
X128724212Y-110599525D01*
X128784325Y-110695192D01*
X128799500Y-110747864D01*
X128799500Y-114090322D01*
X128780593Y-114148513D01*
X128752473Y-114174582D01*
X128691348Y-114212284D01*
X128567285Y-114336347D01*
X128475187Y-114485663D01*
X128420000Y-114652205D01*
X128412986Y-114720860D01*
X128388262Y-114776827D01*
X128335363Y-114807573D01*
X128274495Y-114801354D01*
X128228907Y-114760546D01*
X128215499Y-114710797D01*
X128215499Y-114369983D01*
X128205000Y-114267211D01*
X128204999Y-114267209D01*
X128204999Y-114267203D01*
X128155387Y-114117487D01*
X128155032Y-114056305D01*
X128190707Y-114006597D01*
X128197384Y-114002092D01*
X128293656Y-113942712D01*
X128417712Y-113818656D01*
X128509814Y-113669334D01*
X128564999Y-113502797D01*
X128575500Y-113400009D01*
X128575499Y-112799992D01*
X128575499Y-112799983D01*
X128565000Y-112697211D01*
X128564999Y-112697209D01*
X128564999Y-112697203D01*
X128509814Y-112530666D01*
X128417712Y-112381344D01*
X128293656Y-112257288D01*
X128293653Y-112257286D01*
X128293652Y-112257285D01*
X128255847Y-112233967D01*
X128216245Y-112187326D01*
X128211622Y-112126315D01*
X128243743Y-112074239D01*
X128255847Y-112065445D01*
X128293340Y-112042319D01*
X128417319Y-111918340D01*
X128509356Y-111769124D01*
X128564506Y-111602693D01*
X128575000Y-111499987D01*
X128575000Y-111400001D01*
X128574999Y-111400000D01*
X127249000Y-111400000D01*
X127190809Y-111381093D01*
X127154845Y-111331593D01*
X127150000Y-111301000D01*
X127150000Y-110200001D01*
X127550000Y-110200001D01*
X127550000Y-110999999D01*
X127550001Y-111000000D01*
X128574998Y-111000000D01*
X128574999Y-110999999D01*
X128574999Y-110900013D01*
X128564507Y-110797312D01*
X128564504Y-110797300D01*
X128509356Y-110630875D01*
X128417319Y-110481659D01*
X128293340Y-110357680D01*
X128144124Y-110265643D01*
X127977693Y-110210493D01*
X127874987Y-110200000D01*
X127550001Y-110200000D01*
X127550000Y-110200001D01*
X127150000Y-110200001D01*
X127149999Y-110200000D01*
X126989500Y-110200000D01*
X126931309Y-110181093D01*
X126895345Y-110131593D01*
X126890500Y-110101000D01*
X126890500Y-109239499D01*
X126909407Y-109181308D01*
X126958907Y-109145344D01*
X126989493Y-109140499D01*
X127585008Y-109140499D01*
X127585016Y-109140499D01*
X127687788Y-109130000D01*
X127687788Y-109129999D01*
X127687797Y-109129999D01*
X127854334Y-109074814D01*
X128003656Y-108982712D01*
X128127712Y-108858656D01*
X128219814Y-108709334D01*
X128236705Y-108658359D01*
X128272956Y-108609070D01*
X128330680Y-108590500D01*
X129304064Y-108590500D01*
X129304069Y-108590500D01*
X129375205Y-108576348D01*
X129405609Y-108575070D01*
X129410000Y-108575565D01*
X129589255Y-108555368D01*
X129759522Y-108495789D01*
X129912262Y-108399816D01*
X130039816Y-108272262D01*
X130135789Y-108119522D01*
X130195368Y-107949255D01*
X130215565Y-107770000D01*
X130195368Y-107590745D01*
X130135789Y-107420478D01*
X130061264Y-107301873D01*
X130039818Y-107267741D01*
X130039817Y-107267740D01*
X130039816Y-107267738D01*
X129912262Y-107140184D01*
X129912259Y-107140182D01*
X129912258Y-107140181D01*
X129759523Y-107044211D01*
X129589261Y-106984633D01*
X129589257Y-106984632D01*
X129410000Y-106964435D01*
X129230742Y-106984632D01*
X129230738Y-106984633D01*
X129060477Y-107044211D01*
X129060476Y-107044211D01*
X128907741Y-107140181D01*
X128907738Y-107140183D01*
X128907738Y-107140184D01*
X128787416Y-107260505D01*
X128732902Y-107288281D01*
X128717415Y-107289500D01*
X128330680Y-107289500D01*
X128272489Y-107270593D01*
X128236705Y-107221640D01*
X128219814Y-107170667D01*
X128219811Y-107170661D01*
X128132351Y-107028865D01*
X128117895Y-106969412D01*
X128132349Y-106924924D01*
X128209814Y-106799334D01*
X128226705Y-106748359D01*
X128262956Y-106699070D01*
X128320680Y-106680500D01*
X131554068Y-106680500D01*
X131554069Y-106680500D01*
X131679744Y-106655501D01*
X131798127Y-106606465D01*
X131818532Y-106592831D01*
X131904669Y-106535277D01*
X134224410Y-104215534D01*
X134278925Y-104187759D01*
X134283307Y-104187164D01*
X134299255Y-104185368D01*
X134469522Y-104125789D01*
X134622262Y-104029816D01*
X134749816Y-103902262D01*
X134845789Y-103749522D01*
X134905368Y-103579255D01*
X134925565Y-103400000D01*
X134905368Y-103220745D01*
X134905367Y-103220742D01*
X134905366Y-103220738D01*
X134868367Y-103115002D01*
X134845789Y-103050478D01*
X134842647Y-103045478D01*
X134749818Y-102897741D01*
X134749817Y-102897740D01*
X134749816Y-102897738D01*
X134622262Y-102770184D01*
X134622259Y-102770182D01*
X134622258Y-102770181D01*
X134469523Y-102674211D01*
X134299261Y-102614633D01*
X134299257Y-102614632D01*
X134120000Y-102594435D01*
X133940742Y-102614632D01*
X133940738Y-102614633D01*
X133770477Y-102674211D01*
X133770476Y-102674211D01*
X133617741Y-102770181D01*
X133490181Y-102897741D01*
X133394211Y-103050476D01*
X133394211Y-103050477D01*
X133334632Y-103220740D01*
X133334631Y-103220747D01*
X133332836Y-103236674D01*
X133307530Y-103292381D01*
X133304463Y-103295589D01*
X131249550Y-105350504D01*
X131195033Y-105378281D01*
X131179546Y-105379500D01*
X128320680Y-105379500D01*
X128262489Y-105360593D01*
X128226705Y-105311640D01*
X128209814Y-105260667D01*
X128209811Y-105260661D01*
X128117714Y-105111347D01*
X128117713Y-105111346D01*
X128117712Y-105111344D01*
X127993656Y-104987288D01*
X127993653Y-104987286D01*
X127993652Y-104987285D01*
X127844336Y-104895187D01*
X127844335Y-104895186D01*
X127844334Y-104895186D01*
X127677797Y-104840001D01*
X127677794Y-104840000D01*
X127575016Y-104829500D01*
X126949983Y-104829500D01*
X126847211Y-104839999D01*
X126847199Y-104840002D01*
X126680663Y-104895187D01*
X126531347Y-104987285D01*
X126531344Y-104987287D01*
X126531344Y-104987288D01*
X126420001Y-105098630D01*
X126365487Y-105126406D01*
X126305055Y-105116835D01*
X126279999Y-105098631D01*
X126168656Y-104987288D01*
X126168653Y-104987286D01*
X126168652Y-104987285D01*
X126019336Y-104895187D01*
X126019335Y-104895186D01*
X126019334Y-104895186D01*
X125852797Y-104840001D01*
X125852794Y-104840000D01*
X125750016Y-104829500D01*
X125124983Y-104829500D01*
X125022211Y-104839999D01*
X125022199Y-104840002D01*
X124855663Y-104895187D01*
X124706347Y-104987285D01*
X124582285Y-105111347D01*
X124490187Y-105260663D01*
X124435000Y-105427205D01*
X124424500Y-105529983D01*
X124424500Y-106082046D01*
X124405593Y-106140237D01*
X124395504Y-106152049D01*
X123954722Y-106592831D01*
X123887792Y-106693001D01*
X123883536Y-106699370D01*
X123834500Y-106817752D01*
X123834499Y-106817757D01*
X123809500Y-106943430D01*
X111520500Y-106943430D01*
X111520500Y-89680000D01*
X112395153Y-89680000D01*
X112414525Y-90037317D01*
X112472418Y-90390449D01*
X112568146Y-90735229D01*
X112568148Y-90735234D01*
X112700604Y-91067673D01*
X112868215Y-91383822D01*
X113069032Y-91680004D01*
X113069039Y-91680014D01*
X113228918Y-91868236D01*
X114435502Y-90661651D01*
X114479588Y-90722330D01*
X114657670Y-90900412D01*
X114718345Y-90944495D01*
X113510943Y-92151898D01*
X113560488Y-92198829D01*
X113845358Y-92415382D01*
X113845363Y-92415385D01*
X114151980Y-92599871D01*
X114476744Y-92750123D01*
X114815868Y-92864387D01*
X115165330Y-92941310D01*
X115165329Y-92941310D01*
X115521078Y-92980000D01*
X115878922Y-92980000D01*
X116234670Y-92941310D01*
X116584130Y-92864387D01*
X116584132Y-92864387D01*
X116923255Y-92750123D01*
X117248019Y-92599871D01*
X117554636Y-92415385D01*
X117554641Y-92415382D01*
X117839509Y-92198832D01*
X117839515Y-92198827D01*
X117889055Y-92151898D01*
X117889055Y-92151897D01*
X116681653Y-90944495D01*
X116742330Y-90900412D01*
X116920412Y-90722330D01*
X116964496Y-90661653D01*
X118171080Y-91868237D01*
X118330962Y-91680011D01*
X118330966Y-91680007D01*
X118531784Y-91383822D01*
X118699395Y-91067673D01*
X118831851Y-90735234D01*
X118831853Y-90735229D01*
X118927581Y-90390449D01*
X118985474Y-90037317D01*
X119004846Y-89680000D01*
X153035153Y-89680000D01*
X153054525Y-90037317D01*
X153112418Y-90390449D01*
X153208146Y-90735229D01*
X153208148Y-90735234D01*
X153340604Y-91067673D01*
X153508215Y-91383822D01*
X153709032Y-91680004D01*
X153709039Y-91680014D01*
X153868918Y-91868236D01*
X155075502Y-90661651D01*
X155119588Y-90722330D01*
X155297670Y-90900412D01*
X155358345Y-90944495D01*
X154150943Y-92151898D01*
X154200488Y-92198829D01*
X154485358Y-92415382D01*
X154485363Y-92415385D01*
X154791980Y-92599871D01*
X155116744Y-92750123D01*
X155455868Y-92864387D01*
X155805330Y-92941310D01*
X155805329Y-92941310D01*
X156161078Y-92980000D01*
X156518922Y-92980000D01*
X156874670Y-92941310D01*
X157224130Y-92864387D01*
X157224132Y-92864387D01*
X157563255Y-92750123D01*
X157888019Y-92599871D01*
X158194636Y-92415385D01*
X158194641Y-92415382D01*
X158479509Y-92198832D01*
X158479515Y-92198827D01*
X158529055Y-92151898D01*
X158529055Y-92151897D01*
X157321653Y-90944495D01*
X157382330Y-90900412D01*
X157560412Y-90722330D01*
X157604496Y-90661653D01*
X158811080Y-91868237D01*
X158970962Y-91680011D01*
X158970966Y-91680007D01*
X159171784Y-91383822D01*
X159339395Y-91067673D01*
X159471851Y-90735234D01*
X159471853Y-90735229D01*
X159567581Y-90390449D01*
X159625474Y-90037317D01*
X159644846Y-89680000D01*
X159625474Y-89322682D01*
X159567581Y-88969550D01*
X159471853Y-88624770D01*
X159471851Y-88624765D01*
X159339395Y-88292326D01*
X159171784Y-87976177D01*
X158970967Y-87679995D01*
X158970960Y-87679985D01*
X158811079Y-87491761D01*
X157604495Y-88698345D01*
X157560412Y-88637670D01*
X157382330Y-88459588D01*
X157321652Y-88415502D01*
X158529055Y-87208100D01*
X158479511Y-87161170D01*
X158194641Y-86944617D01*
X158194636Y-86944614D01*
X157888019Y-86760128D01*
X157563255Y-86609876D01*
X157224131Y-86495612D01*
X156874669Y-86418689D01*
X156874670Y-86418689D01*
X156518922Y-86380000D01*
X156161078Y-86380000D01*
X155805329Y-86418689D01*
X155455869Y-86495612D01*
X155455867Y-86495612D01*
X155116744Y-86609876D01*
X154791980Y-86760128D01*
X154485363Y-86944614D01*
X154485358Y-86944617D01*
X154200488Y-87161169D01*
X154150943Y-87208100D01*
X155358346Y-88415503D01*
X155297670Y-88459588D01*
X155119588Y-88637670D01*
X155075503Y-88698346D01*
X153868918Y-87491761D01*
X153709039Y-87679985D01*
X153709032Y-87679995D01*
X153508215Y-87976177D01*
X153340604Y-88292326D01*
X153208148Y-88624765D01*
X153208146Y-88624770D01*
X153112418Y-88969550D01*
X153054525Y-89322682D01*
X153035153Y-89680000D01*
X119004846Y-89680000D01*
X118985474Y-89322682D01*
X118927581Y-88969550D01*
X118831853Y-88624770D01*
X118831851Y-88624765D01*
X118699395Y-88292326D01*
X118531784Y-87976177D01*
X118330967Y-87679995D01*
X118330960Y-87679985D01*
X118171079Y-87491761D01*
X116964495Y-88698345D01*
X116920412Y-88637670D01*
X116742330Y-88459588D01*
X116681652Y-88415502D01*
X117889055Y-87208100D01*
X117839511Y-87161170D01*
X117554641Y-86944617D01*
X117554636Y-86944614D01*
X117248019Y-86760128D01*
X116923255Y-86609876D01*
X116584131Y-86495612D01*
X116234669Y-86418689D01*
X116234670Y-86418689D01*
X115878922Y-86380000D01*
X115521078Y-86380000D01*
X115165329Y-86418689D01*
X114815869Y-86495612D01*
X114815867Y-86495612D01*
X114476744Y-86609876D01*
X114151980Y-86760128D01*
X113845363Y-86944614D01*
X113845358Y-86944617D01*
X113560488Y-87161169D01*
X113510943Y-87208100D01*
X114718346Y-88415503D01*
X114657670Y-88459588D01*
X114479588Y-88637670D01*
X114435503Y-88698346D01*
X113228918Y-87491761D01*
X113069039Y-87679985D01*
X113069032Y-87679995D01*
X112868215Y-87976177D01*
X112700604Y-88292326D01*
X112568148Y-88624765D01*
X112568146Y-88624770D01*
X112472418Y-88969550D01*
X112414525Y-89322682D01*
X112395153Y-89680000D01*
X111520500Y-89680000D01*
X111520500Y-85599500D01*
X111539407Y-85541309D01*
X111588907Y-85505345D01*
X111619500Y-85500500D01*
X160420500Y-85500500D01*
X160478691Y-85519407D01*
G37*
%TD.AperFunction*%
%TD*%
M02*
