%TF.GenerationSoftware,KiCad,Pcbnew,8.0.4+1*%
%TF.CreationDate,2024-10-18T12:55:20+00:00*%
%TF.ProjectId,TFGPSLITE01,54464750-534c-4495-9445-30312e6b6963,rev?*%
%TF.SameCoordinates,Original*%
%TF.FileFunction,Copper,L3,Inr*%
%TF.FilePolarity,Positive*%
%FSLAX46Y46*%
G04 Gerber Fmt 4.6, Leading zero omitted, Abs format (unit mm)*
G04 Created by KiCad (PCBNEW 8.0.4+1) date 2024-10-18 12:55:20*
%MOMM*%
%LPD*%
G01*
G04 APERTURE LIST*
%TA.AperFunction,ComponentPad*%
%ADD10C,5.600000*%
%TD*%
%TA.AperFunction,ViaPad*%
%ADD11C,0.600000*%
%TD*%
G04 APERTURE END LIST*
D10*
%TO.N,GND*%
%TO.C,M4*%
X156340000Y-99840000D03*
%TD*%
%TO.N,GND*%
%TO.C,M1*%
X115700000Y-99840000D03*
%TD*%
%TO.N,GND*%
%TO.C,M3*%
X115700000Y-120160000D03*
%TD*%
%TO.N,GND*%
%TO.C,M2*%
X156340000Y-120160000D03*
%TD*%
D11*
%TO.N,+3V3*%
X150045001Y-116837500D03*
X140413500Y-90535000D03*
X147592500Y-112230000D03*
X146565000Y-101395000D03*
X122677500Y-116760000D03*
X141750000Y-98535000D03*
%TO.N,GND*%
X127090000Y-86220000D03*
X151090000Y-89220000D03*
X115090000Y-110220000D03*
X154090000Y-95220000D03*
X121090000Y-113220000D03*
X139090000Y-113220000D03*
X112090000Y-110220000D03*
X148090000Y-92220000D03*
X121090000Y-122220000D03*
X127090000Y-95220000D03*
X139090000Y-104220000D03*
X154090000Y-107220000D03*
X121090000Y-95220000D03*
X145090000Y-86220000D03*
X112090000Y-101220000D03*
X145090000Y-92220000D03*
X127090000Y-104220000D03*
X130090000Y-122220000D03*
X151090000Y-98220000D03*
X124090000Y-92220000D03*
X127090000Y-89220000D03*
X121090000Y-104220000D03*
X136090000Y-119220000D03*
X157090000Y-92220000D03*
X148090000Y-86220000D03*
X145090000Y-89220000D03*
X148090000Y-101220000D03*
X142090000Y-110220000D03*
X112090000Y-116220000D03*
X112090000Y-107220000D03*
X148090000Y-95220000D03*
X145090000Y-116220000D03*
X124090000Y-104220000D03*
X136090000Y-122220000D03*
X154090000Y-113220000D03*
X118090000Y-86220000D03*
X136090000Y-101220000D03*
X154090000Y-116220000D03*
X160090000Y-110220000D03*
X136090000Y-107220000D03*
X127090000Y-101220000D03*
X145090000Y-104220000D03*
X148090000Y-110220000D03*
X142090000Y-104220000D03*
X151090000Y-86220000D03*
X148090000Y-104220000D03*
X139090000Y-110220000D03*
X157090000Y-113220000D03*
X160090000Y-86220000D03*
X127090000Y-122220000D03*
X118090000Y-113220000D03*
X124090000Y-113220000D03*
X136090000Y-104220000D03*
X118090000Y-95220000D03*
X124090000Y-95220000D03*
X157090000Y-86220000D03*
X129760000Y-89210000D03*
X121090000Y-92220000D03*
X160090000Y-89220000D03*
X133090000Y-107220000D03*
X124090000Y-110220000D03*
X112090000Y-104220000D03*
X139090000Y-122630000D03*
X121090000Y-107220000D03*
X124090000Y-89220000D03*
X121090000Y-98220000D03*
X136090000Y-110220000D03*
X151090000Y-113220000D03*
X115090000Y-92220000D03*
X148090000Y-107220000D03*
X118090000Y-89220000D03*
X151090000Y-104220000D03*
X160090000Y-113220000D03*
X118090000Y-92220000D03*
X145090000Y-95220000D03*
X151090000Y-107220000D03*
X130090000Y-110220000D03*
X127090000Y-92220000D03*
X118090000Y-116220000D03*
X112090000Y-89220000D03*
X157090000Y-110220000D03*
X121090000Y-89220000D03*
X139090000Y-107220000D03*
X142090000Y-86220000D03*
X157090000Y-107220000D03*
X157090000Y-104220000D03*
X121090000Y-86220000D03*
X124090000Y-101220000D03*
X115090000Y-89220000D03*
X133090000Y-101220000D03*
X127090000Y-113220000D03*
X148090000Y-89220000D03*
X115090000Y-116220000D03*
X154090000Y-110220000D03*
X160090000Y-116220000D03*
X133090000Y-104220000D03*
X160090000Y-101220000D03*
X136090000Y-113220000D03*
X133090000Y-110220000D03*
X127090000Y-107220000D03*
X151090000Y-101220000D03*
X154090000Y-92220000D03*
X124090000Y-86220000D03*
X112090000Y-95220000D03*
X154090000Y-89220000D03*
X112090000Y-98220000D03*
X115090000Y-107220000D03*
X121090000Y-101220000D03*
X129760000Y-86210000D03*
X118090000Y-107220000D03*
X151090000Y-110220000D03*
X151090000Y-92220000D03*
X118090000Y-104220000D03*
X157090000Y-95220000D03*
X129760000Y-95210000D03*
X112090000Y-92220000D03*
X145090000Y-119220000D03*
X130090000Y-113220000D03*
X148090000Y-98220000D03*
X127090000Y-110220000D03*
X121090000Y-116220000D03*
X160090000Y-95220000D03*
X154090000Y-104220000D03*
X112090000Y-113220000D03*
X124090000Y-122220000D03*
X115090000Y-86220000D03*
X124090000Y-107220000D03*
X121090000Y-110220000D03*
X133090000Y-122220000D03*
X160090000Y-92220000D03*
X115090000Y-95220000D03*
X154090000Y-86220000D03*
X127090000Y-98220000D03*
X145090000Y-107220000D03*
X121090000Y-119220000D03*
X124090000Y-98220000D03*
X124090000Y-119220000D03*
X145090000Y-122220000D03*
X145090000Y-110220000D03*
X160090000Y-98220000D03*
X139090000Y-101220000D03*
X151090000Y-95220000D03*
X115090000Y-113220000D03*
X130090000Y-107220000D03*
X157090000Y-89220000D03*
X118090000Y-110220000D03*
X160090000Y-107220000D03*
X130090000Y-104220000D03*
X145090000Y-98220000D03*
X129760000Y-92210000D03*
X145090000Y-101220000D03*
X142090000Y-122620000D03*
X112090000Y-86220000D03*
X142090000Y-107220000D03*
X160090000Y-104220000D03*
X157090000Y-116220000D03*
X115090000Y-104220000D03*
%TO.N,Net-(D1-K)*%
X141720000Y-91535000D03*
%TO.N,Net-(D2-A)*%
X134620000Y-116852500D03*
%TO.N,Net-(D3-A)*%
X149800000Y-115030000D03*
%TO.N,/L_UBX_TX*%
X130350000Y-97550000D03*
%TO.N,/L_UBX_RX*%
X131510000Y-99907500D03*
%TO.N,/TPL*%
X134910000Y-105380000D03*
X136110000Y-99880000D03*
X134620000Y-115027500D03*
%TO.N,/EXTINT*%
X141720000Y-92580000D03*
%TO.N,/TX*%
X129765000Y-117135000D03*
X129090000Y-111120000D03*
%TO.N,/RX*%
X131590000Y-115590000D03*
X131560000Y-108350000D03*
%TO.N,Net-(IC1-SCL_{slash}_SPI_CLK)*%
X141720000Y-93690000D03*
%TO.N,Net-(IC1-SDA_{slash}_SPI_CS_N)*%
X140413500Y-96535000D03*
%TD*%
M02*
